<?xml version="1.0" encoding="UTF-8" standalone="no"?>
<!-- Created with Inkscape (http://www.inkscape.org/) -->

<svg
   xmlns:dc="http://purl.org/dc/elements/1.1/"
   xmlns:cc="http://creativecommons.org/ns#"
   xmlns:rdf="http://www.w3.org/1999/02/22-rdf-syntax-ns#"
   xmlns:svg="http://www.w3.org/2000/svg"
   xmlns="http://www.w3.org/2000/svg"
   xmlns:xlink="http://www.w3.org/1999/xlink"
   xmlns:sodipodi="http://sodipodi.sourceforge.net/DTD/sodipodi-0.dtd"
   xmlns:inkscape="http://www.inkscape.org/namespaces/inkscape"
   version="1.1"
   width="100%"
   height="100%"
   id="svg2816"
   inkscape:version="0.47 r22583"
   sodipodi:docname="convex.svg"
   viewBox="0 0 905.53305 470.99739">
  <metadata
     id="metadata3066">
    <rdf:RDF>
      <cc:Work
         rdf:about="">
        <dc:format>image/svg+xml</dc:format>
        <dc:type
           rdf:resource="http://purl.org/dc/dcmitype/StillImage" />
      </cc:Work>
    </rdf:RDF>
  </metadata>
  <sodipodi:namedview
     pagecolor="#ffffff"
     bordercolor="#666666"
     borderopacity="1"
     objecttolerance="10"
     gridtolerance="10"
     guidetolerance="10"
     inkscape:pageopacity="0"
     inkscape:pageshadow="2"
     inkscape:window-width="1678"
     inkscape:window-height="1029"
     id="namedview3064"
     showgrid="false"
     inkscape:zoom="1.6496907"
     inkscape:cx="452.76652"
     inkscape:cy="235.4987"
     inkscape:window-x="0"
     inkscape:window-y="19"
     inkscape:window-maximized="0"
     inkscape:current-layer="svg2816" />
  <defs
     id="defs2818">
    <inkscape:perspective
       sodipodi:type="inkscape:persp3d"
       inkscape:vp_x="0 : 372.04724 : 1"
       inkscape:vp_y="0 : 1000 : 0"
       inkscape:vp_z="1052.3622 : 372.04724 : 1"
       inkscape:persp3d-origin="526.18109 : 248.03149 : 1"
       id="perspective3068" />
    <marker
       refX="0"
       refY="0"
       orient="auto"
       id="Arrow2Mstart"
       style="overflow:visible">
      <path
         d="M 8.7185878,4.0337352 -2.2072895,0.01601326 8.7185884,-4.0017078 c -1.7454984,2.3720609 -1.7354408,5.6174519 -6e-7,8.035443 z"
         transform="scale(0.6,0.6)"
         id="path3888"
         style="font-size:12px;fill-rule:evenodd;stroke-width:0.625;stroke-linejoin:round" />
    </marker>
    <marker
       refX="0"
       refY="0"
       orient="auto"
       id="Arrow1Mstart"
       style="overflow:visible">
      <path
         d="M 0,0 5,-5 -12.5,0 5,5 0,0 z"
         transform="matrix(0.4,0,0,0.4,4,0)"
         id="path3624"
         style="fill-rule:evenodd;stroke:#000000;stroke-width:1pt;marker-start:none" />
    </marker>
    <marker
       refX="0"
       refY="0"
       orient="auto"
       id="Arrow1Mend"
       style="overflow:visible">
      <path
         d="M 0,0 5,-5 -12.5,0 5,5 0,0 z"
         transform="matrix(-0.4,0,0,-0.4,-4,0)"
         id="path3627"
         style="fill-rule:evenodd;stroke:#000000;stroke-width:1pt;marker-start:none" />
    </marker>
    <inkscape:path-effect
       effect="spiro"
       id="path-effect2841"
       is_visible="true" />
    <inkscape:path-effect
       effect="spiro"
       id="path-effect2837"
       is_visible="true" />
  </defs>
  <g
     id="layer1"
     transform="translate(-88.562804,-179.75432)">
    <path
       d="m 284.28435,181.00334 0,469.24877"
       id="path2829"
       style="fill:none;stroke:#000000;stroke-width:0.99921262;stroke-linecap:butt;stroke-linejoin:miter;stroke-miterlimit:4;stroke-opacity:1;stroke-dasharray:none;marker-start:url(#Arrow1Mstart);marker-end:none" />
    <path
       d="m 244.58272,625.9472 748.26313,0"
       id="path2831"
       style="fill:none;stroke:#000000;stroke-width:1px;stroke-linecap:butt;stroke-linejoin:miter;stroke-opacity:1;marker-start:none;marker-mid:none;marker-end:url(#Arrow1Mend)" />
    <path
       d="m 360.8964,445.31489 c 50.82171,29.19952 108.99369,45.48767 167.58884,46.92488 80.63188,1.97772 161.6777,-24.64768 225.42744,-74.05804 C 817.66241,368.77137 863.6615,296.92835 881.8583,218.35171"
       id="path2839"
       style="fill:none;stroke:#000000;stroke-width:1.70787406;stroke-linecap:butt;stroke-linejoin:miter;stroke-miterlimit:4;stroke-opacity:1;stroke-dasharray:none" />
    <path
       d="M 362.85607,501.78176 957.60758,280.62089"
       id="path5179"
       style="fill:none;stroke:#d400aa;stroke-width:1.76102364;stroke-linecap:butt;stroke-linejoin:miter;stroke-miterlimit:4;stroke-opacity:1;stroke-dasharray:none" />
    <path
       d="m 431.40173,476.4314 0,149.04848"
       id="path5181"
       style="fill:none;stroke:#666666;stroke-width:0.99329412;stroke-linecap:butt;stroke-linejoin:miter;stroke-miterlimit:4;stroke-opacity:1;stroke-dasharray:2.97988235, 0.99329412;stroke-dashoffset:0" />
    <path
       d="m 837.69129,324.69392 0,300.70644"
       id="path5183"
       style="fill:none;stroke:#696969;stroke-width:0.99881333;stroke-linecap:butt;stroke-linejoin:miter;stroke-miterlimit:4;stroke-opacity:1;stroke-dasharray:2.99644003, 0.99881334;stroke-dashoffset:0" />
    <g
       transform="matrix(2,0,0,2,-24.750034,373.4911)"
       id="g4703">
      <defs
         id="defs4705">
        <g
           id="g4707">
          <symbol
             id="textext-04bd7d3f-0"
             style="overflow:visible">
            <path
               d=""
               id="path4710"
               style="stroke:none" />
          </symbol>
          <symbol
             id="textext-04bd7d3f-1"
             style="overflow:visible">
            <path
               d="M 3.328125,-3.015625 C 3.390625,-3.265625 3.625,-4.1875 4.3125,-4.1875 c 0.046875,0 0.296875,0 0.5,0.125 C 4.53125,-4 4.34375,-3.765625 4.34375,-3.515625 c 0,0.15625 0.109375,0.34375 0.375,0.34375 0.21875,0 0.53125,-0.171875 0.53125,-0.578125 0,-0.515625 -0.578125,-0.65625 -0.921875,-0.65625 -0.578125,0 -0.921875,0.53125 -1.046875,0.75 -0.25,-0.65625 -0.78125,-0.75 -1.078125,-0.75 -1.03125,0 -1.609375,1.28125 -1.609375,1.53125 0,0.109375 0.109375,0.109375 0.125,0.109375 0.078125,0 0.109375,-0.03125 0.125,-0.109375 0.34375,-1.0625 1,-1.3125 1.34375,-1.3125 0.1875,0 0.53125,0.09375 0.53125,0.671875 0,0.3125 -0.171875,0.96875 -0.53125,2.375 -0.15625,0.609375 -0.515625,1.03125 -0.953125,1.03125 -0.0625,0 -0.28125,0 -0.5,-0.125 0.25,-0.0625 0.46875,-0.265625 0.46875,-0.546875 0,-0.265625 -0.21875,-0.34375 -0.359375,-0.34375 -0.3125,0 -0.546875,0.25 -0.546875,0.578125 0,0.453125 0.484375,0.65625 0.921875,0.65625 0.671875,0 1.03125,-0.703125 1.046875,-0.75 0.125,0.359375 0.484375,0.75 1.078125,0.75 1.03125,0 1.59375,-1.28125 1.59375,-1.53125 0,-0.109375 -0.078125,-0.109375 -0.109375,-0.109375 -0.09375,0 -0.109375,0.046875 -0.140625,0.109375 -0.328125,1.078125 -1,1.3125 -1.3125,1.3125 -0.390625,0 -0.546875,-0.3125 -0.546875,-0.65625 0,-0.21875 0.046875,-0.4375 0.15625,-0.875 l 0.34375,-1.375 z m 0,0"
               id="path4713"
               style="stroke:none" />
          </symbol>
          <symbol
             id="textext-04bd7d3f-2"
             style="overflow:visible">
            <path
               d=""
               id="path4716"
               style="stroke:none" />
          </symbol>
          <symbol
             id="textext-04bd7d3f-3"
             style="overflow:visible">
            <path
               d="m 2.328125,-4.4375 c 0,-0.1875 0,-0.1875 -0.203125,-0.1875 -0.453125,0.4375 -1.078125,0.4375 -1.359375,0.4375 l 0,0.25 c 0.15625,0 0.625,0 1,-0.1875 l 0,3.546875 c 0,0.234375 0,0.328125 -0.6875,0.328125 l -0.265625,0 0,0.25 c 0.125,0 0.984375,-0.03125 1.234375,-0.03125 0.21875,0 1.09375,0.03125 1.25,0.03125 l 0,-0.25 -0.265625,0 c -0.703125,0 -0.703125,-0.09375 -0.703125,-0.328125 l 0,-3.859375 z m 0,0"
               id="path4719"
               style="stroke:none" />
          </symbol>
        </g>
      </defs>
      <g
         id="textext-04bd7d3f-4">
        <g
           id="g4722"
           style="fill:#000000;fill-opacity:1">
          <use
             id="use4724"
             x="223.43201"
             y="134.765"
             width="1052.3622"
             height="744.09448"
             xlink:href="#textext-04bd7d3f-1" />
        </g>
        <g
           id="g4726"
           style="fill:#000000;fill-opacity:1">
          <use
             id="use4728"
             x="229.12601"
             y="136.259"
             width="1052.3622"
             height="744.09448"
             xlink:href="#textext-04bd7d3f-3" />
        </g>
      </g>
    </g>
    <g
       transform="matrix(2,0,0,2,381.32078,373.4911)"
       id="g4834">
      <defs
         id="defs4836">
        <g
           id="g4838">
          <symbol
             id="textext-f3b97e67-0"
             style="overflow:visible">
            <path
               d=""
               id="path4841"
               style="stroke:none" />
          </symbol>
          <symbol
             id="textext-f3b97e67-1"
             style="overflow:visible">
            <path
               d="M 3.328125,-3.015625 C 3.390625,-3.265625 3.625,-4.1875 4.3125,-4.1875 c 0.046875,0 0.296875,0 0.5,0.125 C 4.53125,-4 4.34375,-3.765625 4.34375,-3.515625 c 0,0.15625 0.109375,0.34375 0.375,0.34375 0.21875,0 0.53125,-0.171875 0.53125,-0.578125 0,-0.515625 -0.578125,-0.65625 -0.921875,-0.65625 -0.578125,0 -0.921875,0.53125 -1.046875,0.75 -0.25,-0.65625 -0.78125,-0.75 -1.078125,-0.75 -1.03125,0 -1.609375,1.28125 -1.609375,1.53125 0,0.109375 0.109375,0.109375 0.125,0.109375 0.078125,0 0.109375,-0.03125 0.125,-0.109375 0.34375,-1.0625 1,-1.3125 1.34375,-1.3125 0.1875,0 0.53125,0.09375 0.53125,0.671875 0,0.3125 -0.171875,0.96875 -0.53125,2.375 -0.15625,0.609375 -0.515625,1.03125 -0.953125,1.03125 -0.0625,0 -0.28125,0 -0.5,-0.125 0.25,-0.0625 0.46875,-0.265625 0.46875,-0.546875 0,-0.265625 -0.21875,-0.34375 -0.359375,-0.34375 -0.3125,0 -0.546875,0.25 -0.546875,0.578125 0,0.453125 0.484375,0.65625 0.921875,0.65625 0.671875,0 1.03125,-0.703125 1.046875,-0.75 0.125,0.359375 0.484375,0.75 1.078125,0.75 1.03125,0 1.59375,-1.28125 1.59375,-1.53125 0,-0.109375 -0.078125,-0.109375 -0.109375,-0.109375 -0.09375,0 -0.109375,0.046875 -0.140625,0.109375 -0.328125,1.078125 -1,1.3125 -1.3125,1.3125 -0.390625,0 -0.546875,-0.3125 -0.546875,-0.65625 0,-0.21875 0.046875,-0.4375 0.15625,-0.875 l 0.34375,-1.375 z m 0,0"
               id="path4844"
               style="stroke:none" />
          </symbol>
          <symbol
             id="textext-f3b97e67-2"
             style="overflow:visible">
            <path
               d=""
               id="path4847"
               style="stroke:none" />
          </symbol>
          <symbol
             id="textext-f3b97e67-3"
             style="overflow:visible">
            <path
               d="m 3.515625,-1.265625 -0.234375,0 c -0.015625,0.15625 -0.09375,0.5625 -0.1875,0.625 -0.046875,0.046875 -0.578125,0.046875 -0.6875,0.046875 l -1.28125,0 c 0.734375,-0.640625 0.984375,-0.84375 1.390625,-1.171875 0.515625,-0.40625 1,-0.84375 1,-1.5 0,-0.84375 -0.734375,-1.359375 -1.625,-1.359375 -0.859375,0 -1.453125,0.609375 -1.453125,1.25 0,0.34375 0.296875,0.390625 0.375,0.390625 0.15625,0 0.359375,-0.125 0.359375,-0.375 0,-0.125 -0.046875,-0.375 -0.40625,-0.375 C 0.984375,-4.21875 1.453125,-4.375 1.78125,-4.375 c 0.703125,0 1.0625,0.546875 1.0625,1.109375 0,0.609375 -0.4375,1.078125 -0.65625,1.328125 L 0.515625,-0.265625 C 0.4375,-0.203125 0.4375,-0.1875 0.4375,0 l 2.875,0 0.203125,-1.265625 z m 0,0"
               id="path4850"
               style="stroke:none" />
          </symbol>
        </g>
      </defs>
      <g
         id="textext-f3b97e67-4">
        <g
           id="g4853"
           style="fill:#000000;fill-opacity:1">
          <use
             id="use4855"
             x="223.43201"
             y="134.765"
             width="1052.3622"
             height="744.09448"
             xlink:href="#textext-f3b97e67-1" />
        </g>
        <g
           id="g4857"
           style="fill:#000000;fill-opacity:1">
          <use
             id="use4859"
             x="229.12601"
             y="136.259"
             width="1052.3622"
             height="744.09448"
             xlink:href="#textext-f3b97e67-3" />
        </g>
      </g>
    </g>
    <g
       transform="matrix(2,0,0,2,435.59314,-66.070503)"
       id="g4977">
      <defs
         id="defs4979">
        <g
           id="g4981">
          <symbol
             id="textext-06e5d0d3-0"
             style="overflow:visible">
            <path
               d=""
               id="path4984"
               style="stroke:none" />
          </symbol>
          <symbol
             id="textext-06e5d0d3-1"
             style="overflow:visible">
            <path
               d="m 3.65625,-3.984375 0.859375,0 c 0.203125,0 0.296875,0 0.296875,-0.203125 0,-0.109375 -0.09375,-0.109375 -0.265625,-0.109375 l -0.828125,0 0.203125,-1.140625 c 0.046875,-0.203125 0.1875,-0.90625 0.25,-1.03125 0.078125,-0.1875 0.25,-0.34375 0.46875,-0.34375 0.03125,0 0.296875,0 0.484375,0.1875 -0.4375,0.03125 -0.546875,0.390625 -0.546875,0.53125 0,0.234375 0.1875,0.359375 0.375,0.359375 C 5.21875,-5.734375 5.5,-5.96875 5.5,-6.34375 c 0,-0.453125 -0.453125,-0.6875 -0.859375,-0.6875 -0.34375,0 -0.96875,0.1875 -1.265625,1.171875 -0.0625,0.203125 -0.09375,0.3125 -0.328125,1.5625 l -0.6875,0 c -0.203125,0 -0.3125,0 -0.3125,0.1875 0,0.125 0.09375,0.125 0.28125,0.125 l 0.65625,0 -0.734375,3.9375 c -0.1875,0.96875 -0.359375,1.875 -0.875,1.875 -0.046875,0 -0.28125,0 -0.484375,-0.1875 C 1.359375,1.609375 1.453125,1.25 1.453125,1.109375 1.453125,0.875 1.265625,0.75 1.078125,0.75 0.8125,0.75 0.53125,0.984375 0.53125,1.359375 c 0,0.4375 0.4375,0.6875 0.84375,0.6875 0.546875,0 0.953125,-0.59375 1.125,-0.96875 0.328125,-0.625 0.546875,-1.828125 0.5625,-1.90625 l 0.59375,-3.15625 z m 0,0"
               id="path4987"
               style="stroke:none" />
          </symbol>
          <symbol
             id="textext-06e5d0d3-2"
             style="overflow:visible">
            <path
               d="M 3.328125,-3.015625 C 3.390625,-3.265625 3.625,-4.1875 4.3125,-4.1875 c 0.046875,0 0.296875,0 0.5,0.125 C 4.53125,-4 4.34375,-3.765625 4.34375,-3.515625 c 0,0.15625 0.109375,0.34375 0.375,0.34375 0.21875,0 0.53125,-0.171875 0.53125,-0.578125 0,-0.515625 -0.578125,-0.65625 -0.921875,-0.65625 -0.578125,0 -0.921875,0.53125 -1.046875,0.75 -0.25,-0.65625 -0.78125,-0.75 -1.078125,-0.75 -1.03125,0 -1.609375,1.28125 -1.609375,1.53125 0,0.109375 0.109375,0.109375 0.125,0.109375 0.078125,0 0.109375,-0.03125 0.125,-0.109375 0.34375,-1.0625 1,-1.3125 1.34375,-1.3125 0.1875,0 0.53125,0.09375 0.53125,0.671875 0,0.3125 -0.171875,0.96875 -0.53125,2.375 -0.15625,0.609375 -0.515625,1.03125 -0.953125,1.03125 -0.0625,0 -0.28125,0 -0.5,-0.125 0.25,-0.0625 0.46875,-0.265625 0.46875,-0.546875 0,-0.265625 -0.21875,-0.34375 -0.359375,-0.34375 -0.3125,0 -0.546875,0.25 -0.546875,0.578125 0,0.453125 0.484375,0.65625 0.921875,0.65625 0.671875,0 1.03125,-0.703125 1.046875,-0.75 0.125,0.359375 0.484375,0.75 1.078125,0.75 1.03125,0 1.59375,-1.28125 1.59375,-1.53125 0,-0.109375 -0.078125,-0.109375 -0.109375,-0.109375 -0.09375,0 -0.109375,0.046875 -0.140625,0.109375 -0.328125,1.078125 -1,1.3125 -1.3125,1.3125 -0.390625,0 -0.546875,-0.3125 -0.546875,-0.65625 0,-0.21875 0.046875,-0.4375 0.15625,-0.875 l 0.34375,-1.375 z m 0,0"
               id="path4990"
               style="stroke:none" />
          </symbol>
          <symbol
             id="textext-06e5d0d3-3"
             style="overflow:visible">
            <path
               d=""
               id="path4993"
               style="stroke:none" />
          </symbol>
          <symbol
             id="textext-06e5d0d3-4"
             style="overflow:visible">
            <path
               d="m 3.296875,2.390625 c 0,-0.03125 0,-0.046875 -0.171875,-0.21875 C 1.890625,0.921875 1.5625,-0.96875 1.5625,-2.5 c 0,-1.734375 0.375,-3.46875 1.609375,-4.703125 0.125,-0.125 0.125,-0.140625 0.125,-0.171875 0,-0.078125 -0.03125,-0.109375 -0.09375,-0.109375 -0.109375,0 -1,0.6875 -1.59375,1.953125 -0.5,1.09375 -0.625,2.203125 -0.625,3.03125 0,0.78125 0.109375,1.984375 0.65625,3.125 C 2.25,1.84375 3.09375,2.5 3.203125,2.5 c 0.0625,0 0.09375,-0.03125 0.09375,-0.109375 z m 0,0"
               id="path4996"
               style="stroke:none" />
          </symbol>
          <symbol
             id="textext-06e5d0d3-5"
             style="overflow:visible">
            <path
               d="m 2.875,-2.5 c 0,-0.765625 -0.109375,-1.96875 -0.65625,-3.109375 -0.59375,-1.21875 -1.453125,-1.875 -1.546875,-1.875 -0.0625,0 -0.109375,0.046875 -0.109375,0.109375 0,0.03125 0,0.046875 0.1875,0.234375 0.984375,0.984375 1.546875,2.5625 1.546875,4.640625 0,1.71875 -0.359375,3.46875 -1.59375,4.71875 C 0.5625,2.34375 0.5625,2.359375 0.5625,2.390625 0.5625,2.453125 0.609375,2.5 0.671875,2.5 0.765625,2.5 1.671875,1.8125 2.25,0.546875 2.765625,-0.546875 2.875,-1.65625 2.875,-2.5 z m 0,0"
               id="path4999"
               style="stroke:none" />
          </symbol>
        </g>
      </defs>
      <g
         id="textext-06e5d0d3-6">
        <g
           id="g5002"
           style="fill:#000000;fill-opacity:1">
          <use
             id="use5004"
             x="223.43201"
             y="134.765"
             width="1052.3622"
             height="744.09448"
             xlink:href="#textext-06e5d0d3-1" />
        </g>
        <g
           id="g5006"
           style="fill:#000000;fill-opacity:1">
          <use
             id="use5008"
             x="229.382"
             y="134.765"
             width="1052.3622"
             height="744.09448"
             xlink:href="#textext-06e5d0d3-4" />
        </g>
        <g
           id="g5010"
           style="fill:#000000;fill-opacity:1">
          <use
             id="use5012"
             x="233.256"
             y="134.765"
             width="1052.3622"
             height="744.09448"
             xlink:href="#textext-06e5d0d3-2" />
        </g>
        <g
           id="g5014"
           style="fill:#000000;fill-opacity:1">
          <use
             id="use5016"
             x="238.95"
             y="134.765"
             width="1052.3622"
             height="744.09448"
             xlink:href="#textext-06e5d0d3-5" />
        </g>
      </g>
    </g>
    <path
       d="m 551.03584,431.56255 0,193.8234"
       id="path5382"
       style="fill:none;stroke:#666666;stroke-width:0.92265314;stroke-linecap:butt;stroke-linejoin:miter;stroke-miterlimit:4;stroke-opacity:1;stroke-dasharray:2.76795947, 0.92265315;stroke-dashoffset:0" />
    <path
       d="m 550.69392,431.89637 -265.88046,0"
       id="path5398"
       style="fill:none;stroke:#666666;stroke-width:0.86616397;stroke-linecap:butt;stroke-linejoin:miter;stroke-miterlimit:4;stroke-opacity:1;stroke-dasharray:1.73232792, 0.86616396;stroke-dashoffset:0" />
    <path
       d="m 550.72279,491.99089 -265.9665,0"
       id="path5400"
       style="fill:none;stroke:#666666;stroke-width:0.86392421;stroke-linecap:butt;stroke-linejoin:miter;stroke-miterlimit:4;stroke-opacity:1;stroke-dasharray:1.72784849, 0.86392424;stroke-dashoffset:0" />
    <g
       transform="matrix(2,0,0,2,-328.05194,227.44527)"
       id="g5532">
      <defs
         id="defs5534">
        <g
           id="g5536">
          <symbol
             id="textext-1a9b1bfd-0"
             style="overflow:visible">
            <path
               d=""
               id="path5539"
               style="stroke:none" />
          </symbol>
          <symbol
             id="textext-1a9b1bfd-1"
             style="overflow:visible">
            <path
               d="m 3.65625,-3.984375 0.859375,0 c 0.203125,0 0.296875,0 0.296875,-0.203125 0,-0.109375 -0.09375,-0.109375 -0.265625,-0.109375 l -0.828125,0 0.203125,-1.140625 c 0.046875,-0.203125 0.1875,-0.90625 0.25,-1.03125 0.078125,-0.1875 0.25,-0.34375 0.46875,-0.34375 0.03125,0 0.296875,0 0.484375,0.1875 -0.4375,0.03125 -0.546875,0.390625 -0.546875,0.53125 0,0.234375 0.1875,0.359375 0.375,0.359375 C 5.21875,-5.734375 5.5,-5.96875 5.5,-6.34375 c 0,-0.453125 -0.453125,-0.6875 -0.859375,-0.6875 -0.34375,0 -0.96875,0.1875 -1.265625,1.171875 -0.0625,0.203125 -0.09375,0.3125 -0.328125,1.5625 l -0.6875,0 c -0.203125,0 -0.3125,0 -0.3125,0.1875 0,0.125 0.09375,0.125 0.28125,0.125 l 0.65625,0 -0.734375,3.9375 c -0.1875,0.96875 -0.359375,1.875 -0.875,1.875 -0.046875,0 -0.28125,0 -0.484375,-0.1875 C 1.359375,1.609375 1.453125,1.25 1.453125,1.109375 1.453125,0.875 1.265625,0.75 1.078125,0.75 0.8125,0.75 0.53125,0.984375 0.53125,1.359375 c 0,0.4375 0.4375,0.6875 0.84375,0.6875 0.546875,0 0.953125,-0.59375 1.125,-0.96875 0.328125,-0.625 0.546875,-1.828125 0.5625,-1.90625 l 0.59375,-3.15625 z m 0,0"
               id="path5542"
               style="stroke:none" />
          </symbol>
          <symbol
             id="textext-1a9b1bfd-2"
             style="overflow:visible">
            <path
               d="m 2.046875,-3.984375 0.9375,0 c 0.203125,0 0.3125,0 0.3125,-0.203125 0,-0.109375 -0.109375,-0.109375 -0.28125,-0.109375 l -0.875,0 C 2.5,-5.71875 2.546875,-5.90625 2.546875,-5.96875 c 0,-0.171875 -0.125,-0.265625 -0.296875,-0.265625 -0.03125,0 -0.3125,0 -0.390625,0.359375 l -0.390625,1.578125 -0.9375,0 c -0.203125,0 -0.296875,0 -0.296875,0.1875 0,0.125 0.078125,0.125 0.28125,0.125 l 0.875,0 C 0.671875,-1.15625 0.625,-0.984375 0.625,-0.8125 0.625,-0.265625 1,0.109375 1.546875,0.109375 2.5625,0.109375 3.125,-1.34375 3.125,-1.421875 3.125,-1.53125 3.046875,-1.53125 3.015625,-1.53125 2.921875,-1.53125 2.90625,-1.5 2.859375,-1.390625 2.4375,-0.34375 1.90625,-0.109375 1.5625,-0.109375 c -0.203125,0 -0.3125,-0.125 -0.3125,-0.453125 0,-0.25 0.03125,-0.3125 0.0625,-0.484375 l 0.734375,-2.9375 z m 0,0"
               id="path5545"
               style="stroke:none" />
          </symbol>
          <symbol
             id="textext-1a9b1bfd-3"
             style="overflow:visible">
            <path
               d="M 3.328125,-3.015625 C 3.390625,-3.265625 3.625,-4.1875 4.3125,-4.1875 c 0.046875,0 0.296875,0 0.5,0.125 C 4.53125,-4 4.34375,-3.765625 4.34375,-3.515625 c 0,0.15625 0.109375,0.34375 0.375,0.34375 0.21875,0 0.53125,-0.171875 0.53125,-0.578125 0,-0.515625 -0.578125,-0.65625 -0.921875,-0.65625 -0.578125,0 -0.921875,0.53125 -1.046875,0.75 -0.25,-0.65625 -0.78125,-0.75 -1.078125,-0.75 -1.03125,0 -1.609375,1.28125 -1.609375,1.53125 0,0.109375 0.109375,0.109375 0.125,0.109375 0.078125,0 0.109375,-0.03125 0.125,-0.109375 0.34375,-1.0625 1,-1.3125 1.34375,-1.3125 0.1875,0 0.53125,0.09375 0.53125,0.671875 0,0.3125 -0.171875,0.96875 -0.53125,2.375 -0.15625,0.609375 -0.515625,1.03125 -0.953125,1.03125 -0.0625,0 -0.28125,0 -0.5,-0.125 0.25,-0.0625 0.46875,-0.265625 0.46875,-0.546875 0,-0.265625 -0.21875,-0.34375 -0.359375,-0.34375 -0.3125,0 -0.546875,0.25 -0.546875,0.578125 0,0.453125 0.484375,0.65625 0.921875,0.65625 0.671875,0 1.03125,-0.703125 1.046875,-0.75 0.125,0.359375 0.484375,0.75 1.078125,0.75 1.03125,0 1.59375,-1.28125 1.59375,-1.53125 0,-0.109375 -0.078125,-0.109375 -0.109375,-0.109375 -0.09375,0 -0.109375,0.046875 -0.140625,0.109375 -0.328125,1.078125 -1,1.3125 -1.3125,1.3125 -0.390625,0 -0.546875,-0.3125 -0.546875,-0.65625 0,-0.21875 0.046875,-0.4375 0.15625,-0.875 l 0.34375,-1.375 z m 0,0"
               id="path5548"
               style="stroke:none" />
          </symbol>
          <symbol
             id="textext-1a9b1bfd-4"
             style="overflow:visible">
            <path
               d=""
               id="path5551"
               style="stroke:none" />
          </symbol>
          <symbol
             id="textext-1a9b1bfd-5"
             style="overflow:visible">
            <path
               d="m 3.296875,2.390625 c 0,-0.03125 0,-0.046875 -0.171875,-0.21875 C 1.890625,0.921875 1.5625,-0.96875 1.5625,-2.5 c 0,-1.734375 0.375,-3.46875 1.609375,-4.703125 0.125,-0.125 0.125,-0.140625 0.125,-0.171875 0,-0.078125 -0.03125,-0.109375 -0.09375,-0.109375 -0.109375,0 -1,0.6875 -1.59375,1.953125 -0.5,1.09375 -0.625,2.203125 -0.625,3.03125 0,0.78125 0.109375,1.984375 0.65625,3.125 C 2.25,1.84375 3.09375,2.5 3.203125,2.5 c 0.0625,0 0.09375,-0.03125 0.09375,-0.109375 z m 0,0"
               id="path5554"
               style="stroke:none" />
          </symbol>
          <symbol
             id="textext-1a9b1bfd-6"
             style="overflow:visible">
            <path
               d="m 4.078125,-2.296875 2.78125,0 C 7,-2.296875 7.1875,-2.296875 7.1875,-2.5 7.1875,-2.6875 7,-2.6875 6.859375,-2.6875 l -2.78125,0 0,-2.796875 c 0,-0.140625 0,-0.328125 -0.203125,-0.328125 -0.203125,0 -0.203125,0.1875 -0.203125,0.328125 l 0,2.796875 -2.78125,0 c -0.140625,0 -0.328125,0 -0.328125,0.1875 0,0.203125 0.1875,0.203125 0.328125,0.203125 l 2.78125,0 0,2.796875 c 0,0.140625 0,0.328125 0.203125,0.328125 0.203125,0 0.203125,-0.1875 0.203125,-0.328125 l 0,-2.796875 z m 0,0"
               id="path5557"
               style="stroke:none" />
          </symbol>
          <symbol
             id="textext-1a9b1bfd-7"
             style="overflow:visible">
            <path
               d="m 2.9375,-6.375 c 0,-0.25 0,-0.265625 -0.234375,-0.265625 C 2.078125,-6 1.203125,-6 0.890625,-6 l 0,0.3125 c 0.203125,0 0.78125,0 1.296875,-0.265625 l 0,5.171875 c 0,0.359375 -0.03125,0.46875 -0.921875,0.46875 l -0.3125,0 0,0.3125 c 0.34375,-0.03125 1.203125,-0.03125 1.609375,-0.03125 0.390625,0 1.265625,0 1.609375,0.03125 l 0,-0.3125 -0.3125,0 c -0.90625,0 -0.921875,-0.109375 -0.921875,-0.46875 l 0,-5.59375 z m 0,0"
               id="path5560"
               style="stroke:none" />
          </symbol>
          <symbol
             id="textext-1a9b1bfd-8"
             style="overflow:visible">
            <path
               d="m 2.875,-2.5 c 0,-0.765625 -0.109375,-1.96875 -0.65625,-3.109375 -0.59375,-1.21875 -1.453125,-1.875 -1.546875,-1.875 -0.0625,0 -0.109375,0.046875 -0.109375,0.109375 0,0.03125 0,0.046875 0.1875,0.234375 0.984375,0.984375 1.546875,2.5625 1.546875,4.640625 0,1.71875 -0.359375,3.46875 -1.59375,4.71875 C 0.5625,2.34375 0.5625,2.359375 0.5625,2.390625 0.5625,2.453125 0.609375,2.5 0.671875,2.5 0.765625,2.5 1.671875,1.8125 2.25,0.546875 2.765625,-0.546875 2.875,-1.65625 2.875,-2.5 z m 0,0"
               id="path5563"
               style="stroke:none" />
          </symbol>
          <symbol
             id="textext-1a9b1bfd-9"
             style="overflow:visible">
            <path
               d=""
               id="path5566"
               style="stroke:none" />
          </symbol>
          <symbol
             id="textext-1a9b1bfd-10"
             style="overflow:visible">
            <path
               d="m 2.328125,-4.4375 c 0,-0.1875 0,-0.1875 -0.203125,-0.1875 -0.453125,0.4375 -1.078125,0.4375 -1.359375,0.4375 l 0,0.25 c 0.15625,0 0.625,0 1,-0.1875 l 0,3.546875 c 0,0.234375 0,0.328125 -0.6875,0.328125 l -0.265625,0 0,0.25 c 0.125,0 0.984375,-0.03125 1.234375,-0.03125 0.21875,0 1.09375,0.03125 1.25,0.03125 l 0,-0.25 -0.265625,0 c -0.703125,0 -0.703125,-0.09375 -0.703125,-0.328125 l 0,-3.859375 z m 0,0"
               id="path5569"
               style="stroke:none" />
          </symbol>
          <symbol
             id="textext-1a9b1bfd-11"
             style="overflow:visible">
            <path
               d="m 3.515625,-1.265625 -0.234375,0 c -0.015625,0.15625 -0.09375,0.5625 -0.1875,0.625 -0.046875,0.046875 -0.578125,0.046875 -0.6875,0.046875 l -1.28125,0 c 0.734375,-0.640625 0.984375,-0.84375 1.390625,-1.171875 0.515625,-0.40625 1,-0.84375 1,-1.5 0,-0.84375 -0.734375,-1.359375 -1.625,-1.359375 -0.859375,0 -1.453125,0.609375 -1.453125,1.25 0,0.34375 0.296875,0.390625 0.375,0.390625 0.15625,0 0.359375,-0.125 0.359375,-0.375 0,-0.125 -0.046875,-0.375 -0.40625,-0.375 C 0.984375,-4.21875 1.453125,-4.375 1.78125,-4.375 c 0.703125,0 1.0625,0.546875 1.0625,1.109375 0,0.609375 -0.4375,1.078125 -0.65625,1.328125 L 0.515625,-0.265625 C 0.4375,-0.203125 0.4375,-0.1875 0.4375,0 l 2.875,0 0.203125,-1.265625 z m 0,0"
               id="path5572"
               style="stroke:none" />
          </symbol>
          <symbol
             id="textext-1a9b1bfd-12"
             style="overflow:visible">
            <path
               d=""
               id="path5575"
               style="stroke:none" />
          </symbol>
          <symbol
             id="textext-1a9b1bfd-13"
             style="overflow:visible">
            <path
               d="m 6.5625,-2.296875 c 0.171875,0 0.359375,0 0.359375,-0.203125 0,-0.1875 -0.1875,-0.1875 -0.359375,-0.1875 l -5.390625,0 c -0.171875,0 -0.34375,0 -0.34375,0.1875 0,0.203125 0.171875,0.203125 0.34375,0.203125 l 5.390625,0 z m 0,0"
               id="path5578"
               style="stroke:none" />
          </symbol>
        </g>
      </defs>
      <g
         id="textext-1a9b1bfd-14">
        <g
           id="g5581"
           style="fill:#000000;fill-opacity:1">
          <use
             id="use5583"
             x="223.43201"
             y="134.765"
             width="1052.3622"
             height="744.09448"
             xlink:href="#textext-1a9b1bfd-1" />
        </g>
        <g
           id="g5585"
           style="fill:#000000;fill-opacity:1">
          <use
             id="use5587"
             x="231.04201"
             y="134.765"
             width="1052.3622"
             height="744.09448"
             xlink:href="#textext-1a9b1bfd-5" />
        </g>
        <g
           id="g5589"
           style="fill:#000000;fill-opacity:1">
          <use
             id="use5591"
             x="234.91701"
             y="134.765"
             width="1052.3622"
             height="744.09448"
             xlink:href="#textext-1a9b1bfd-2" />
          <use
             id="use5593"
             x="238.5145"
             y="134.765"
             width="1052.3622"
             height="744.09448"
             xlink:href="#textext-1a9b1bfd-3" />
        </g>
        <g
           id="g5595"
           style="fill:#000000;fill-opacity:1">
          <use
             id="use5597"
             x="244.20799"
             y="136.259"
             width="1052.3622"
             height="744.09448"
             xlink:href="#textext-1a9b1bfd-10" />
        </g>
        <g
           id="g5599"
           style="fill:#000000;fill-opacity:1">
          <use
             id="use5601"
             x="250.892"
             y="134.765"
             width="1052.3622"
             height="744.09448"
             xlink:href="#textext-1a9b1bfd-6" />
        </g>
        <g
           id="g5603"
           style="fill:#000000;fill-opacity:1">
          <use
             id="use5605"
             x="260.8526"
             y="134.765"
             width="1052.3622"
             height="744.09448"
             xlink:href="#textext-1a9b1bfd-5" />
          <use
             id="use5607"
             x="264.72705"
             y="134.765"
             width="1052.3622"
             height="744.09448"
             xlink:href="#textext-1a9b1bfd-7" />
        </g>
        <g
           id="g5609"
           style="fill:#000000;fill-opacity:1">
          <use
             id="use5611"
             x="271.92401"
             y="134.765"
             width="1052.3622"
             height="744.09448"
             xlink:href="#textext-1a9b1bfd-13" />
        </g>
        <g
           id="g5613"
           style="fill:#000000;fill-opacity:1">
          <use
             id="use5615"
             x="281.88599"
             y="134.765"
             width="1052.3622"
             height="744.09448"
             xlink:href="#textext-1a9b1bfd-2" />
        </g>
        <g
           id="g5617"
           style="fill:#000000;fill-opacity:1">
          <use
             id="use5619"
             x="285.48401"
             y="134.765"
             width="1052.3622"
             height="744.09448"
             xlink:href="#textext-1a9b1bfd-8" />
        </g>
        <g
           id="g5621"
           style="fill:#000000;fill-opacity:1">
          <use
             id="use5623"
             x="289.358"
             y="134.765"
             width="1052.3622"
             height="744.09448"
             xlink:href="#textext-1a9b1bfd-3" />
        </g>
        <g
           id="g5625"
           style="fill:#000000;fill-opacity:1">
          <use
             id="use5627"
             x="295.052"
             y="136.259"
             width="1052.3622"
             height="744.09448"
             xlink:href="#textext-1a9b1bfd-11" />
        </g>
        <g
           id="g5629"
           style="fill:#000000;fill-opacity:1">
          <use
             id="use5631"
             x="299.522"
             y="134.765"
             width="1052.3622"
             height="744.09448"
             xlink:href="#textext-1a9b1bfd-8" />
        </g>
      </g>
    </g>
    <g
       transform="matrix(2,0,0,2,-358.76996,167.35075)"
       id="g6007">
      <defs
         id="defs6009">
        <g
           id="g6011">
          <symbol
             id="textext-eac8e853-0"
             style="overflow:visible">
            <path
               d=""
               id="path6014"
               style="stroke:none" />
          </symbol>
          <symbol
             id="textext-eac8e853-1"
             style="overflow:visible">
            <path
               d="m 2.046875,-3.984375 0.9375,0 c 0.203125,0 0.3125,0 0.3125,-0.203125 0,-0.109375 -0.109375,-0.109375 -0.28125,-0.109375 l -0.875,0 C 2.5,-5.71875 2.546875,-5.90625 2.546875,-5.96875 c 0,-0.171875 -0.125,-0.265625 -0.296875,-0.265625 -0.03125,0 -0.3125,0 -0.390625,0.359375 l -0.390625,1.578125 -0.9375,0 c -0.203125,0 -0.296875,0 -0.296875,0.1875 0,0.125 0.078125,0.125 0.28125,0.125 l 0.875,0 C 0.671875,-1.15625 0.625,-0.984375 0.625,-0.8125 0.625,-0.265625 1,0.109375 1.546875,0.109375 2.5625,0.109375 3.125,-1.34375 3.125,-1.421875 3.125,-1.53125 3.046875,-1.53125 3.015625,-1.53125 2.921875,-1.53125 2.90625,-1.5 2.859375,-1.390625 2.4375,-0.34375 1.90625,-0.109375 1.5625,-0.109375 c -0.203125,0 -0.3125,-0.125 -0.3125,-0.453125 0,-0.25 0.03125,-0.3125 0.0625,-0.484375 l 0.734375,-2.9375 z m 0,0"
               id="path6017"
               style="stroke:none" />
          </symbol>
          <symbol
             id="textext-eac8e853-2"
             style="overflow:visible">
            <path
               d="m 3.65625,-3.984375 0.859375,0 c 0.203125,0 0.296875,0 0.296875,-0.203125 0,-0.109375 -0.09375,-0.109375 -0.265625,-0.109375 l -0.828125,0 0.203125,-1.140625 c 0.046875,-0.203125 0.1875,-0.90625 0.25,-1.03125 0.078125,-0.1875 0.25,-0.34375 0.46875,-0.34375 0.03125,0 0.296875,0 0.484375,0.1875 -0.4375,0.03125 -0.546875,0.390625 -0.546875,0.53125 0,0.234375 0.1875,0.359375 0.375,0.359375 C 5.21875,-5.734375 5.5,-5.96875 5.5,-6.34375 c 0,-0.453125 -0.453125,-0.6875 -0.859375,-0.6875 -0.34375,0 -0.96875,0.1875 -1.265625,1.171875 -0.0625,0.203125 -0.09375,0.3125 -0.328125,1.5625 l -0.6875,0 c -0.203125,0 -0.3125,0 -0.3125,0.1875 0,0.125 0.09375,0.125 0.28125,0.125 l 0.65625,0 -0.734375,3.9375 c -0.1875,0.96875 -0.359375,1.875 -0.875,1.875 -0.046875,0 -0.28125,0 -0.484375,-0.1875 C 1.359375,1.609375 1.453125,1.25 1.453125,1.109375 1.453125,0.875 1.265625,0.75 1.078125,0.75 0.8125,0.75 0.53125,0.984375 0.53125,1.359375 c 0,0.4375 0.4375,0.6875 0.84375,0.6875 0.546875,0 0.953125,-0.59375 1.125,-0.96875 0.328125,-0.625 0.546875,-1.828125 0.5625,-1.90625 l 0.59375,-3.15625 z m 0,0"
               id="path6020"
               style="stroke:none" />
          </symbol>
          <symbol
             id="textext-eac8e853-3"
             style="overflow:visible">
            <path
               d="M 3.328125,-3.015625 C 3.390625,-3.265625 3.625,-4.1875 4.3125,-4.1875 c 0.046875,0 0.296875,0 0.5,0.125 C 4.53125,-4 4.34375,-3.765625 4.34375,-3.515625 c 0,0.15625 0.109375,0.34375 0.375,0.34375 0.21875,0 0.53125,-0.171875 0.53125,-0.578125 0,-0.515625 -0.578125,-0.65625 -0.921875,-0.65625 -0.578125,0 -0.921875,0.53125 -1.046875,0.75 -0.25,-0.65625 -0.78125,-0.75 -1.078125,-0.75 -1.03125,0 -1.609375,1.28125 -1.609375,1.53125 0,0.109375 0.109375,0.109375 0.125,0.109375 0.078125,0 0.109375,-0.03125 0.125,-0.109375 0.34375,-1.0625 1,-1.3125 1.34375,-1.3125 0.1875,0 0.53125,0.09375 0.53125,0.671875 0,0.3125 -0.171875,0.96875 -0.53125,2.375 -0.15625,0.609375 -0.515625,1.03125 -0.953125,1.03125 -0.0625,0 -0.28125,0 -0.5,-0.125 0.25,-0.0625 0.46875,-0.265625 0.46875,-0.546875 0,-0.265625 -0.21875,-0.34375 -0.359375,-0.34375 -0.3125,0 -0.546875,0.25 -0.546875,0.578125 0,0.453125 0.484375,0.65625 0.921875,0.65625 0.671875,0 1.03125,-0.703125 1.046875,-0.75 0.125,0.359375 0.484375,0.75 1.078125,0.75 1.03125,0 1.59375,-1.28125 1.59375,-1.53125 0,-0.109375 -0.078125,-0.109375 -0.109375,-0.109375 -0.09375,0 -0.109375,0.046875 -0.140625,0.109375 -0.328125,1.078125 -1,1.3125 -1.3125,1.3125 -0.390625,0 -0.546875,-0.3125 -0.546875,-0.65625 0,-0.21875 0.046875,-0.4375 0.15625,-0.875 l 0.34375,-1.375 z m 0,0"
               id="path6023"
               style="stroke:none" />
          </symbol>
          <symbol
             id="textext-eac8e853-4"
             style="overflow:visible">
            <path
               d=""
               id="path6026"
               style="stroke:none" />
          </symbol>
          <symbol
             id="textext-eac8e853-5"
             style="overflow:visible">
            <path
               d="m 3.296875,2.390625 c 0,-0.03125 0,-0.046875 -0.171875,-0.21875 C 1.890625,0.921875 1.5625,-0.96875 1.5625,-2.5 c 0,-1.734375 0.375,-3.46875 1.609375,-4.703125 0.125,-0.125 0.125,-0.140625 0.125,-0.171875 0,-0.078125 -0.03125,-0.109375 -0.09375,-0.109375 -0.109375,0 -1,0.6875 -1.59375,1.953125 -0.5,1.09375 -0.625,2.203125 -0.625,3.03125 0,0.78125 0.109375,1.984375 0.65625,3.125 C 2.25,1.84375 3.09375,2.5 3.203125,2.5 c 0.0625,0 0.09375,-0.03125 0.09375,-0.109375 z m 0,0"
               id="path6029"
               style="stroke:none" />
          </symbol>
          <symbol
             id="textext-eac8e853-6"
             style="overflow:visible">
            <path
               d="m 2.875,-2.5 c 0,-0.765625 -0.109375,-1.96875 -0.65625,-3.109375 -0.59375,-1.21875 -1.453125,-1.875 -1.546875,-1.875 -0.0625,0 -0.109375,0.046875 -0.109375,0.109375 0,0.03125 0,0.046875 0.1875,0.234375 0.984375,0.984375 1.546875,2.5625 1.546875,4.640625 0,1.71875 -0.359375,3.46875 -1.59375,4.71875 C 0.5625,2.34375 0.5625,2.359375 0.5625,2.390625 0.5625,2.453125 0.609375,2.5 0.671875,2.5 0.765625,2.5 1.671875,1.8125 2.25,0.546875 2.765625,-0.546875 2.875,-1.65625 2.875,-2.5 z m 0,0"
               id="path6032"
               style="stroke:none" />
          </symbol>
          <symbol
             id="textext-eac8e853-7"
             style="overflow:visible">
            <path
               d="m 4.078125,-2.296875 2.78125,0 C 7,-2.296875 7.1875,-2.296875 7.1875,-2.5 7.1875,-2.6875 7,-2.6875 6.859375,-2.6875 l -2.78125,0 0,-2.796875 c 0,-0.140625 0,-0.328125 -0.203125,-0.328125 -0.203125,0 -0.203125,0.1875 -0.203125,0.328125 l 0,2.796875 -2.78125,0 c -0.140625,0 -0.328125,0 -0.328125,0.1875 0,0.203125 0.1875,0.203125 0.328125,0.203125 l 2.78125,0 0,2.796875 c 0,0.140625 0,0.328125 0.203125,0.328125 0.203125,0 0.203125,-0.1875 0.203125,-0.328125 l 0,-2.796875 z m 0,0"
               id="path6035"
               style="stroke:none" />
          </symbol>
          <symbol
             id="textext-eac8e853-8"
             style="overflow:visible">
            <path
               d="m 2.9375,-6.375 c 0,-0.25 0,-0.265625 -0.234375,-0.265625 C 2.078125,-6 1.203125,-6 0.890625,-6 l 0,0.3125 c 0.203125,0 0.78125,0 1.296875,-0.265625 l 0,5.171875 c 0,0.359375 -0.03125,0.46875 -0.921875,0.46875 l -0.3125,0 0,0.3125 c 0.34375,-0.03125 1.203125,-0.03125 1.609375,-0.03125 0.390625,0 1.265625,0 1.609375,0.03125 l 0,-0.3125 -0.3125,0 c -0.90625,0 -0.921875,-0.109375 -0.921875,-0.46875 l 0,-5.59375 z m 0,0"
               id="path6038"
               style="stroke:none" />
          </symbol>
          <symbol
             id="textext-eac8e853-9"
             style="overflow:visible">
            <path
               d=""
               id="path6041"
               style="stroke:none" />
          </symbol>
          <symbol
             id="textext-eac8e853-10"
             style="overflow:visible">
            <path
               d="m 2.328125,-4.4375 c 0,-0.1875 0,-0.1875 -0.203125,-0.1875 -0.453125,0.4375 -1.078125,0.4375 -1.359375,0.4375 l 0,0.25 c 0.15625,0 0.625,0 1,-0.1875 l 0,3.546875 c 0,0.234375 0,0.328125 -0.6875,0.328125 l -0.265625,0 0,0.25 c 0.125,0 0.984375,-0.03125 1.234375,-0.03125 0.21875,0 1.09375,0.03125 1.25,0.03125 l 0,-0.25 -0.265625,0 c -0.703125,0 -0.703125,-0.09375 -0.703125,-0.328125 l 0,-3.859375 z m 0,0"
               id="path6044"
               style="stroke:none" />
          </symbol>
          <symbol
             id="textext-eac8e853-11"
             style="overflow:visible">
            <path
               d="m 3.515625,-1.265625 -0.234375,0 c -0.015625,0.15625 -0.09375,0.5625 -0.1875,0.625 -0.046875,0.046875 -0.578125,0.046875 -0.6875,0.046875 l -1.28125,0 c 0.734375,-0.640625 0.984375,-0.84375 1.390625,-1.171875 0.515625,-0.40625 1,-0.84375 1,-1.5 0,-0.84375 -0.734375,-1.359375 -1.625,-1.359375 -0.859375,0 -1.453125,0.609375 -1.453125,1.25 0,0.34375 0.296875,0.390625 0.375,0.390625 0.15625,0 0.359375,-0.125 0.359375,-0.375 0,-0.125 -0.046875,-0.375 -0.40625,-0.375 C 0.984375,-4.21875 1.453125,-4.375 1.78125,-4.375 c 0.703125,0 1.0625,0.546875 1.0625,1.109375 0,0.609375 -0.4375,1.078125 -0.65625,1.328125 L 0.515625,-0.265625 C 0.4375,-0.203125 0.4375,-0.1875 0.4375,0 l 2.875,0 0.203125,-1.265625 z m 0,0"
               id="path6047"
               style="stroke:none" />
          </symbol>
          <symbol
             id="textext-eac8e853-12"
             style="overflow:visible">
            <path
               d=""
               id="path6050"
               style="stroke:none" />
          </symbol>
          <symbol
             id="textext-eac8e853-13"
             style="overflow:visible">
            <path
               d="m 6.5625,-2.296875 c 0.171875,0 0.359375,0 0.359375,-0.203125 0,-0.1875 -0.1875,-0.1875 -0.359375,-0.1875 l -5.390625,0 c -0.171875,0 -0.34375,0 -0.34375,0.1875 0,0.203125 0.171875,0.203125 0.34375,0.203125 l 5.390625,0 z m 0,0"
               id="path6053"
               style="stroke:none" />
          </symbol>
        </g>
      </defs>
      <g
         id="textext-eac8e853-14">
        <g
           id="g6056"
           style="fill:#000000;fill-opacity:1">
          <use
             id="use6058"
             x="223.43201"
             y="134.765"
             width="1052.3622"
             height="744.09448"
             xlink:href="#textext-eac8e853-1" />
          <use
             id="use6060"
             x="227.0295"
             y="134.765"
             width="1052.3622"
             height="744.09448"
             xlink:href="#textext-eac8e853-2" />
        </g>
        <g
           id="g6062"
           style="fill:#000000;fill-opacity:1">
          <use
             id="use6064"
             x="234.64"
             y="134.765"
             width="1052.3622"
             height="744.09448"
             xlink:href="#textext-eac8e853-5" />
        </g>
        <g
           id="g6066"
           style="fill:#000000;fill-opacity:1">
          <use
             id="use6068"
             x="238.51401"
             y="134.765"
             width="1052.3622"
             height="744.09448"
             xlink:href="#textext-eac8e853-3" />
        </g>
        <g
           id="g6070"
           style="fill:#000000;fill-opacity:1">
          <use
             id="use6072"
             x="244.20799"
             y="136.259"
             width="1052.3622"
             height="744.09448"
             xlink:href="#textext-eac8e853-10" />
        </g>
        <g
           id="g6074"
           style="fill:#000000;fill-opacity:1">
          <use
             id="use6076"
             x="248.67799"
             y="134.765"
             width="1052.3622"
             height="744.09448"
             xlink:href="#textext-eac8e853-6" />
        </g>
        <g
           id="g6078"
           style="fill:#000000;fill-opacity:1">
          <use
             id="use6080"
             x="254.76414"
             y="134.765"
             width="1052.3622"
             height="744.09448"
             xlink:href="#textext-eac8e853-7" />
        </g>
        <g
           id="g6082"
           style="fill:#000000;fill-opacity:1">
          <use
             id="use6084"
             x="264.72476"
             y="134.765"
             width="1052.3622"
             height="744.09448"
             xlink:href="#textext-eac8e853-5" />
          <use
             id="use6086"
             x="268.59921"
             y="134.765"
             width="1052.3622"
             height="744.09448"
             xlink:href="#textext-eac8e853-8" />
        </g>
        <g
           id="g6088"
           style="fill:#000000;fill-opacity:1">
          <use
             id="use6090"
             x="275.798"
             y="134.765"
             width="1052.3622"
             height="744.09448"
             xlink:href="#textext-eac8e853-13" />
        </g>
        <g
           id="g6092"
           style="fill:#000000;fill-opacity:1">
          <use
             id="use6094"
             x="285.76099"
             y="134.765"
             width="1052.3622"
             height="744.09448"
             xlink:href="#textext-eac8e853-1" />
        </g>
        <g
           id="g6096"
           style="fill:#000000;fill-opacity:1">
          <use
             id="use6098"
             x="289.358"
             y="134.765"
             width="1052.3622"
             height="744.09448"
             xlink:href="#textext-eac8e853-6" />
        </g>
        <g
           id="g6100"
           style="fill:#000000;fill-opacity:1">
          <use
             id="use6102"
             x="293.233"
             y="134.765"
             width="1052.3622"
             height="744.09448"
             xlink:href="#textext-eac8e853-2" />
        </g>
        <g
           id="g6104"
           style="fill:#000000;fill-opacity:1">
          <use
             id="use6106"
             x="300.84299"
             y="134.765"
             width="1052.3622"
             height="744.09448"
             xlink:href="#textext-eac8e853-5" />
        </g>
        <g
           id="g6108"
           style="fill:#000000;fill-opacity:1">
          <use
             id="use6110"
             x="304.71701"
             y="134.765"
             width="1052.3622"
             height="744.09448"
             xlink:href="#textext-eac8e853-3" />
        </g>
        <g
           id="g6112"
           style="fill:#000000;fill-opacity:1">
          <use
             id="use6114"
             x="310.41101"
             y="136.259"
             width="1052.3622"
             height="744.09448"
             xlink:href="#textext-eac8e853-11" />
        </g>
        <g
           id="g6116"
           style="fill:#000000;fill-opacity:1">
          <use
             id="use6118"
             x="314.88101"
             y="134.765"
             width="1052.3622"
             height="744.09448"
             xlink:href="#textext-eac8e853-6" />
        </g>
      </g>
    </g>
    <g
       transform="matrix(2,0,0,2,40.28584,375.56323)"
       id="g6805">
      <defs
         id="defs6807">
        <g
           id="g6809">
          <symbol
             id="textext-a41ae2a7-0"
             style="overflow:visible">
            <path
               d=""
               id="path6812"
               style="stroke:none" />
          </symbol>
          <symbol
             id="textext-a41ae2a7-1"
             style="overflow:visible">
            <path
               d="m 2.046875,-3.984375 0.9375,0 c 0.203125,0 0.3125,0 0.3125,-0.203125 0,-0.109375 -0.109375,-0.109375 -0.28125,-0.109375 l -0.875,0 C 2.5,-5.71875 2.546875,-5.90625 2.546875,-5.96875 c 0,-0.171875 -0.125,-0.265625 -0.296875,-0.265625 -0.03125,0 -0.3125,0 -0.390625,0.359375 l -0.390625,1.578125 -0.9375,0 c -0.203125,0 -0.296875,0 -0.296875,0.1875 0,0.125 0.078125,0.125 0.28125,0.125 l 0.875,0 C 0.671875,-1.15625 0.625,-0.984375 0.625,-0.8125 0.625,-0.265625 1,0.109375 1.546875,0.109375 2.5625,0.109375 3.125,-1.34375 3.125,-1.421875 3.125,-1.53125 3.046875,-1.53125 3.015625,-1.53125 2.921875,-1.53125 2.90625,-1.5 2.859375,-1.390625 2.4375,-0.34375 1.90625,-0.109375 1.5625,-0.109375 c -0.203125,0 -0.3125,-0.125 -0.3125,-0.453125 0,-0.25 0.03125,-0.3125 0.0625,-0.484375 l 0.734375,-2.9375 z m 0,0"
               id="path6815"
               style="stroke:none" />
          </symbol>
          <symbol
             id="textext-a41ae2a7-2"
             style="overflow:visible">
            <path
               d="M 3.328125,-3.015625 C 3.390625,-3.265625 3.625,-4.1875 4.3125,-4.1875 c 0.046875,0 0.296875,0 0.5,0.125 C 4.53125,-4 4.34375,-3.765625 4.34375,-3.515625 c 0,0.15625 0.109375,0.34375 0.375,0.34375 0.21875,0 0.53125,-0.171875 0.53125,-0.578125 0,-0.515625 -0.578125,-0.65625 -0.921875,-0.65625 -0.578125,0 -0.921875,0.53125 -1.046875,0.75 -0.25,-0.65625 -0.78125,-0.75 -1.078125,-0.75 -1.03125,0 -1.609375,1.28125 -1.609375,1.53125 0,0.109375 0.109375,0.109375 0.125,0.109375 0.078125,0 0.109375,-0.03125 0.125,-0.109375 0.34375,-1.0625 1,-1.3125 1.34375,-1.3125 0.1875,0 0.53125,0.09375 0.53125,0.671875 0,0.3125 -0.171875,0.96875 -0.53125,2.375 -0.15625,0.609375 -0.515625,1.03125 -0.953125,1.03125 -0.0625,0 -0.28125,0 -0.5,-0.125 0.25,-0.0625 0.46875,-0.265625 0.46875,-0.546875 0,-0.265625 -0.21875,-0.34375 -0.359375,-0.34375 -0.3125,0 -0.546875,0.25 -0.546875,0.578125 0,0.453125 0.484375,0.65625 0.921875,0.65625 0.671875,0 1.03125,-0.703125 1.046875,-0.75 0.125,0.359375 0.484375,0.75 1.078125,0.75 1.03125,0 1.59375,-1.28125 1.59375,-1.53125 0,-0.109375 -0.078125,-0.109375 -0.109375,-0.109375 -0.09375,0 -0.109375,0.046875 -0.140625,0.109375 -0.328125,1.078125 -1,1.3125 -1.3125,1.3125 -0.390625,0 -0.546875,-0.3125 -0.546875,-0.65625 0,-0.21875 0.046875,-0.4375 0.15625,-0.875 l 0.34375,-1.375 z m 0,0"
               id="path6818"
               style="stroke:none" />
          </symbol>
          <symbol
             id="textext-a41ae2a7-3"
             style="overflow:visible">
            <path
               d=""
               id="path6821"
               style="stroke:none" />
          </symbol>
          <symbol
             id="textext-a41ae2a7-4"
             style="overflow:visible">
            <path
               d="m 2.328125,-4.4375 c 0,-0.1875 0,-0.1875 -0.203125,-0.1875 -0.453125,0.4375 -1.078125,0.4375 -1.359375,0.4375 l 0,0.25 c 0.15625,0 0.625,0 1,-0.1875 l 0,3.546875 c 0,0.234375 0,0.328125 -0.6875,0.328125 l -0.265625,0 0,0.25 c 0.125,0 0.984375,-0.03125 1.234375,-0.03125 0.21875,0 1.09375,0.03125 1.25,0.03125 l 0,-0.25 -0.265625,0 c -0.703125,0 -0.703125,-0.09375 -0.703125,-0.328125 l 0,-3.859375 z m 0,0"
               id="path6824"
               style="stroke:none" />
          </symbol>
          <symbol
             id="textext-a41ae2a7-5"
             style="overflow:visible">
            <path
               d="m 3.515625,-1.265625 -0.234375,0 c -0.015625,0.15625 -0.09375,0.5625 -0.1875,0.625 -0.046875,0.046875 -0.578125,0.046875 -0.6875,0.046875 l -1.28125,0 c 0.734375,-0.640625 0.984375,-0.84375 1.390625,-1.171875 0.515625,-0.40625 1,-0.84375 1,-1.5 0,-0.84375 -0.734375,-1.359375 -1.625,-1.359375 -0.859375,0 -1.453125,0.609375 -1.453125,1.25 0,0.34375 0.296875,0.390625 0.375,0.390625 0.15625,0 0.359375,-0.125 0.359375,-0.375 0,-0.125 -0.046875,-0.375 -0.40625,-0.375 C 0.984375,-4.21875 1.453125,-4.375 1.78125,-4.375 c 0.703125,0 1.0625,0.546875 1.0625,1.109375 0,0.609375 -0.4375,1.078125 -0.65625,1.328125 L 0.515625,-0.265625 C 0.4375,-0.203125 0.4375,-0.1875 0.4375,0 l 2.875,0 0.203125,-1.265625 z m 0,0"
               id="path6827"
               style="stroke:none" />
          </symbol>
          <symbol
             id="textext-a41ae2a7-6"
             style="overflow:visible">
            <path
               d=""
               id="path6830"
               style="stroke:none" />
          </symbol>
          <symbol
             id="textext-a41ae2a7-7"
             style="overflow:visible">
            <path
               d="m 4.078125,-2.296875 2.78125,0 C 7,-2.296875 7.1875,-2.296875 7.1875,-2.5 7.1875,-2.6875 7,-2.6875 6.859375,-2.6875 l -2.78125,0 0,-2.796875 c 0,-0.140625 0,-0.328125 -0.203125,-0.328125 -0.203125,0 -0.203125,0.1875 -0.203125,0.328125 l 0,2.796875 -2.78125,0 c -0.140625,0 -0.328125,0 -0.328125,0.1875 0,0.203125 0.1875,0.203125 0.328125,0.203125 l 2.78125,0 0,2.796875 c 0,0.140625 0,0.328125 0.203125,0.328125 0.203125,0 0.203125,-0.1875 0.203125,-0.328125 l 0,-2.796875 z m 0,0"
               id="path6833"
               style="stroke:none" />
          </symbol>
          <symbol
             id="textext-a41ae2a7-8"
             style="overflow:visible">
            <path
               d="m 3.296875,2.390625 c 0,-0.03125 0,-0.046875 -0.171875,-0.21875 C 1.890625,0.921875 1.5625,-0.96875 1.5625,-2.5 c 0,-1.734375 0.375,-3.46875 1.609375,-4.703125 0.125,-0.125 0.125,-0.140625 0.125,-0.171875 0,-0.078125 -0.03125,-0.109375 -0.09375,-0.109375 -0.109375,0 -1,0.6875 -1.59375,1.953125 -0.5,1.09375 -0.625,2.203125 -0.625,3.03125 0,0.78125 0.109375,1.984375 0.65625,3.125 C 2.25,1.84375 3.09375,2.5 3.203125,2.5 c 0.0625,0 0.09375,-0.03125 0.09375,-0.109375 z m 0,0"
               id="path6836"
               style="stroke:none" />
          </symbol>
          <symbol
             id="textext-a41ae2a7-9"
             style="overflow:visible">
            <path
               d="m 2.9375,-6.375 c 0,-0.25 0,-0.265625 -0.234375,-0.265625 C 2.078125,-6 1.203125,-6 0.890625,-6 l 0,0.3125 c 0.203125,0 0.78125,0 1.296875,-0.265625 l 0,5.171875 c 0,0.359375 -0.03125,0.46875 -0.921875,0.46875 l -0.3125,0 0,0.3125 c 0.34375,-0.03125 1.203125,-0.03125 1.609375,-0.03125 0.390625,0 1.265625,0 1.609375,0.03125 l 0,-0.3125 -0.3125,0 c -0.90625,0 -0.921875,-0.109375 -0.921875,-0.46875 l 0,-5.59375 z m 0,0"
               id="path6839"
               style="stroke:none" />
          </symbol>
          <symbol
             id="textext-a41ae2a7-10"
             style="overflow:visible">
            <path
               d="m 2.875,-2.5 c 0,-0.765625 -0.109375,-1.96875 -0.65625,-3.109375 -0.59375,-1.21875 -1.453125,-1.875 -1.546875,-1.875 -0.0625,0 -0.109375,0.046875 -0.109375,0.109375 0,0.03125 0,0.046875 0.1875,0.234375 0.984375,0.984375 1.546875,2.5625 1.546875,4.640625 0,1.71875 -0.359375,3.46875 -1.59375,4.71875 C 0.5625,2.34375 0.5625,2.359375 0.5625,2.390625 0.5625,2.453125 0.609375,2.5 0.671875,2.5 0.765625,2.5 1.671875,1.8125 2.25,0.546875 2.765625,-0.546875 2.875,-1.65625 2.875,-2.5 z m 0,0"
               id="path6842"
               style="stroke:none" />
          </symbol>
          <symbol
             id="textext-a41ae2a7-11"
             style="overflow:visible">
            <path
               d=""
               id="path6845"
               style="stroke:none" />
          </symbol>
          <symbol
             id="textext-a41ae2a7-12"
             style="overflow:visible">
            <path
               d="m 6.5625,-2.296875 c 0.171875,0 0.359375,0 0.359375,-0.203125 0,-0.1875 -0.1875,-0.1875 -0.359375,-0.1875 l -5.390625,0 c -0.171875,0 -0.34375,0 -0.34375,0.1875 0,0.203125 0.171875,0.203125 0.34375,0.203125 l 5.390625,0 z m 0,0"
               id="path6848"
               style="stroke:none" />
          </symbol>
        </g>
      </defs>
      <g
         id="textext-a41ae2a7-13">
        <g
           id="g6851"
           style="fill:#000000;fill-opacity:1">
          <use
             id="use6853"
             x="223.43201"
             y="134.765"
             width="1052.3622"
             height="744.09448"
             xlink:href="#textext-a41ae2a7-1" />
          <use
             id="use6855"
             x="227.0295"
             y="134.765"
             width="1052.3622"
             height="744.09448"
             xlink:href="#textext-a41ae2a7-2" />
        </g>
        <g
           id="g6857"
           style="fill:#000000;fill-opacity:1">
          <use
             id="use6859"
             x="232.724"
             y="136.259"
             width="1052.3622"
             height="744.09448"
             xlink:href="#textext-a41ae2a7-4" />
        </g>
        <g
           id="g6861"
           style="fill:#000000;fill-opacity:1">
          <use
             id="use6863"
             x="239.407"
             y="134.765"
             width="1052.3622"
             height="744.09448"
             xlink:href="#textext-a41ae2a7-7" />
        </g>
        <g
           id="g6865"
           style="fill:#000000;fill-opacity:1">
          <use
             id="use6867"
             x="249.3676"
             y="134.765"
             width="1052.3622"
             height="744.09448"
             xlink:href="#textext-a41ae2a7-8" />
          <use
             id="use6869"
             x="253.24207"
             y="134.765"
             width="1052.3622"
             height="744.09448"
             xlink:href="#textext-a41ae2a7-9" />
        </g>
        <g
           id="g6871"
           style="fill:#000000;fill-opacity:1">
          <use
             id="use6873"
             x="260.439"
             y="134.765"
             width="1052.3622"
             height="744.09448"
             xlink:href="#textext-a41ae2a7-12" />
        </g>
        <g
           id="g6875"
           style="fill:#000000;fill-opacity:1">
          <use
             id="use6877"
             x="270.40201"
             y="134.765"
             width="1052.3622"
             height="744.09448"
             xlink:href="#textext-a41ae2a7-1" />
        </g>
        <g
           id="g6879"
           style="fill:#000000;fill-opacity:1">
          <use
             id="use6881"
             x="273.99899"
             y="134.765"
             width="1052.3622"
             height="744.09448"
             xlink:href="#textext-a41ae2a7-10" />
        </g>
        <g
           id="g6883"
           style="fill:#000000;fill-opacity:1">
          <use
             id="use6885"
             x="277.87399"
             y="134.765"
             width="1052.3622"
             height="744.09448"
             xlink:href="#textext-a41ae2a7-2" />
        </g>
        <g
           id="g6887"
           style="fill:#000000;fill-opacity:1">
          <use
             id="use6889"
             x="283.56799"
             y="136.259"
             width="1052.3622"
             height="744.09448"
             xlink:href="#textext-a41ae2a7-5" />
        </g>
      </g>
    </g>
  </g>
</svg>
