<?xml version="1.0" encoding="UTF-8" standalone="no"?>
<svg xmlns="http://www.w3.org/2000/svg" version="1.2" viewBox="0 0 88 66" height="66" width="88">
  <g style="transform: translate(0px, 54px); fill: black">
    <path id="path3823" d="M 52.078125 -22.5625 L 60.796875 -22.5625 C 82.15625 -22.5625 87.6875 -32.234375 87.6875 -40.640625 C 87.6875 -46.3125 84.078125 -52.234375 78.078125 -52.234375 C 75.4375 -52.234375 73.765625 -50.640625 73.765625 -48.5625 C 73.765625 -47.515625 74.484375 -46.234375 75.921875 -45.6875 C 76.796875 -46.234375 77.84375 -46.484375 78.953125 -46.484375 C 83.046875 -46.484375 85.84375 -43.28125 85.84375 -39.765625 C 85.84375 -33.515625 80.078125 -28.078125 63.203125 -27.4375 L 52.078125 -27.046875 L 52.71875 -37.203125 L 51.28125 -37.515625 C 49.359375 -32.796875 47.203125 -29.203125 45.125 -26.71875 L 38.640625 -26.484375 C 38 -33.515625 33.84375 -37.28125 26.15625 -37.28125 C 17.359375 -37.28125 10.953125 -31.84375 8.234375 -24.875 C 5.515625 -24.640625 2.078125 -24.3125 2.078125 -24.3125 L 1.765625 -23.125 C 1.765625 -23.125 4.15625 -23.046875 7.59375 -22.953125 C 7.046875 -21.046875 6.796875 -19.125 6.796875 -17.125 C 6.796875 -6.875 12.71875 1.28125 25.765625 1.28125 C 34.234375 1.28125 39.6875 -2.640625 42.953125 -6.484375 L 42.3125 -8 C 39.28125 -5.84375 35.359375 -3.921875 29.125 -3.921875 C 20.71875 -3.921875 13.84375 -9.515625 13.84375 -19.515625 C 13.84375 -21.765625 14 -22.953125 14 -22.953125 L 45.203125 -22.640625 L 45.203125 -0.234375 C 45.203125 6.40625 49.046875 11.125 55.921875 11.125 C 61.28125 11.125 65.359375 8.40625 67.921875 5.84375 L 67.046875 4.3125 C 67.046875 4.3125 63.203125 6.953125 58.234375 6.953125 C 53.765625 6.953125 52.078125 3.515625 52.078125 0.078125 Z M 14.3125 -25.28125 C 15.4375 -30.796875 19.6875 -34.484375 24.484375 -34.484375 C 28.875 -34.484375 31.765625 -32.40625 31.765625 -27.4375 C 31.765625 -26.796875 31.6875 -26.234375 31.6875 -26.234375 Z M 14.3125 -25.28125" style="stroke:none;"/>
  </g>
</svg>