<svg xmlns="http://www.w3.org/2000/svg" viewBox="0 0 499.9999694824219 300"><g><text x="50%" y="0" style="fill: rgb(54, 58, 61); dominant-baseline: text-before-edge; text-anchor: middle; font-weight: bold; font-size: 13px; font-family: sans-serif;">BeamRiderNoFrameskip-v4</text><svg viewBox="0 0 1024 1024" x="109.59375" y="25.90625" height="11" width="11"><path d="M128 533.333h768c23.564 0 42.667-19.103 42.667-42.667v-85.333c0-23.564-19.103-42.667-42.667-42.667h-768c-23.564 0-42.667 19.103-42.667 42.667v85.333c0 23.564 19.103 42.667 42.667 42.667z" style="fill: rgb(215, 62, 62);"/></svg><text x="128.59375" y="23.90625" style="fill: rgb(215, 62, 62); dominant-baseline: text-before-edge; font-size: 11px; font-family: sans-serif;">openai/baselines' PPO</text><svg viewBox="0 0 1024 1024" x="318.571044921875" y="25.90625" height="11" width="11"><path d="M128 533.333h768c23.564 0 42.667-19.103 42.667-42.667v-85.333c0-23.564-19.103-42.667-42.667-42.667h-768c-23.564 0-42.667 19.103-42.667 42.667v85.333c0 23.564 19.103 42.667 42.667 42.667z" style="fill: rgb(56, 116, 216);"/></svg><text x="337.571044921875" y="23.90625" style="fill: rgb(56, 116, 216); dominant-baseline: text-before-edge; font-size: 11px; font-family: sans-serif;">our PPO</text></g><g transform="translate(0, 41.50567626953125)"><svg class="rv-xy-plot__inner" width="500" height="258"><g transform="translate(51.6,5)" class="rv-xy-plot__grid-lines"><line y1="223" y2="223" x1="0" x2="428.4" class="rv-xy-plot__grid-lines__line" style="stroke-width: 0.5;"/><line y1="166.04283598938184" y2="166.04283598938184" x1="0" x2="428.4" class="rv-xy-plot__grid-lines__line" style="stroke-width: 0.5;"/><line y1="109.0856719787637" y2="109.0856719787637" x1="0" x2="428.4" class="rv-xy-plot__grid-lines__line" style="stroke-width: 0.5;"/><line y1="52.128507968145584" y2="52.128507968145584" x1="0" x2="428.4" class="rv-xy-plot__grid-lines__line" style="stroke-width: 0.5;"/></g><path d="M0,200.72342029806933L1.7204819277108432,197.63949795688032L3.4409638554216864,196.05244577717662L5.161445783132529,195.4073347777646L6.881927710843373,193.24549581192062L8.602409638554215,191.8831551150743L10.322891566265058,191.46753403074902L12.043373493975903,190.00646144923437L13.763855421686745,189.57934221876567L15.484337349397588,189.21654544037992L17.20481927710843,189.33221090001973L18.925301204819274,189.18925536002655L20.645783132530116,189.02011456739507L22.366265060240963,188.84514797373598L24.086746987951805,188.76402147843993L25.80722891566265,188.24047791309926L27.52771084337349,188.09483882673348L29.248192771084337,188.2506432649418L30.968674698795176,188.15293712027136L32.689156626506026,188.007604987622L34.40963855421686,187.34753206465336L36.13012048192771,186.84781611646852L37.85060240963855,187.05246202612702L39.5710843373494,187.47414739060704L41.29156626506023,187.61086813124896L43.01204819277108,187.772290028138L44.732530120481925,187.96165284645153L46.45301204819277,186.9586960988527L48.17349397590361,187.29253337636263L49.89397590361446,186.3188650646854L51.61445783132529,186.41482559019616L53.334939759036146,185.93378720427341L55.05542168674698,186.2685395455716L56.77590361445783,185.85569655971335L58.49638554216866,185.94904141548065L60.21686746987952,185.92969756886362L61.93734939759035,185.61416257591353L63.657831325301196,185.98195763338018L65.37831325301204,185.37712208516058L67.09879518072289,184.91947701373394L68.81927710843372,184.33546124598107L70.53975903614457,184.7160129270926L72.26024096385541,184.53132198308256L73.98072289156626,184.43811759376982L75.7012048192771,184.75398380398855L77.42168674698794,184.87236169046471L79.1421686746988,183.80820049708655L80.86265060240963,183.45054642960832L82.58313253012047,183.36942253092786L84.30361445783133,182.52701836723566L86.02409638554215,180.79318941693586L87.744578313253,179.54331798004364L89.46506024096385,178.15320758462295L91.18554216867469,178.13748688820178L92.90602409638554,175.72111114421267L94.62650602409639,175.0255600230249L96.34698795180722,174.7265727767428L98.06746987951804,174.00923647379136L99.78795180722892,172.9588683193984L101.50843373493976,173.0782455876181L103.22891566265058,170.3124529944396L104.94939759036143,170.61998755253154L106.66987951807229,169.75553556851443L108.39036144578311,168.97304154806474L110.11084337349396,169.3640201762783L111.8313253012048,168.59007272833026L113.55180722891566,167.26738625174514L115.27228915662651,165.39196058497475L116.99277108433732,164.92029623447297L118.71325301204817,163.37489937800387L120.43373493975903,161.17159809554389L122.15421686746987,161.33057349395574L123.8746987951807,160.3115420992958L125.59518072289156,161.3916536414229L127.31566265060239,160.66414478596627L129.03614457831324,156.61837790634405L130.75662650602408,154.75303735737563L132.4771084337349,154.91089136449503L134.19759036144578,153.2070675769312L135.9180722891566,150.46731376177382L137.63855421686745,148.65605775505165L139.35903614457828,147.79744329592253L141.07951807228915,149.37992565755695L142.79999999999998,150.3264592755285L144.52048192771082,148.97766813405084L146.24096385542165,148.5838314327457L147.96144578313252,148.33555292567044L149.68192771084335,147.57082876271562L151.4024096385542,147.46797254563378L153.12289156626503,148.15953420701413L154.8433734939759,148.43153628859645L156.56385542168672,147.61704417849774L158.2843373493976,146.10383421481433L160.00481927710842,144.22812789588522L161.72530120481926,145.31426977871942L163.4457831325301,144.14307724021L165.16626506024093,142.68221500174758L166.88674698795177,141.62545950526365L168.60722891566266,138.62686398842035L170.3277108433735,139.37014924188261L172.0481927710843,137.06887715337268L173.76867469879514,137.89524408234806L175.489156626506,137.95006439642796L177.20963855421684,136.59771809042354L178.9301204819277,135.99315370130915L180.65060240963854,135.39445867160316L182.37108433734937,135.94684525959514L184.09156626506018,136.44038873415542L185.81204819277107,136.0192769388171L187.5325301204819,135.9715275972064L189.25301204819277,135.81888849728333L190.9734939759036,135.08416815992328L192.69397590361444,132.1467387798039L194.41445783132525,128.31118965664322L196.1349397590361,123.4067960743952L197.85542168674695,120.88876591887939L199.57590361445784,117.33976701427461L201.29638554216868,115.55394993218202L203.01686746987951,114.46409567439498L204.73734939759032,111.44420937026993L206.45783132530116,113.26900217542713L208.17831325301202,108.70231968921085L209.89879518072286,105.5103607181825L211.6192771084337,106.35025118836387L213.33975903614459,106.0419212883217L215.06024096385542,103.6823426161413L216.78072289156623,102.87381450929253L218.5012048192771,102.49214812927356L220.22168674698793,101.503976388347L221.94216867469873,95.9898016549515L223.6626506024096,97.05161673129415L225.3831325301204,96.69624576081272L227.10361445783133,96.13412513858573L228.82409638554213,97.59212921675815L230.54457831325303,95.63044502588352L232.26506024096383,92.59723489105178L233.98554216867464,89.39399312378475L235.7060240963855,86.41186247826285L237.42650602409634,85.77476012548588L239.1469879518072,82.12916789439407L240.86746987951807,82.65971631176699L242.58795180722888,82.26137205681114L244.30843373493974,74.22840234357867L246.02891566265055,72.88866855368587L247.7493975903614,74.90902525881665L249.46987951807225,71.12154326222308L251.1903614457831,73.27654355558364L252.91084337349392,76.47619960187434L254.63132530120478,78.4632710812642L256.3518072289157,78.67923012003932L258.0722891566265,79.46572122758525L259.79277108433735,81.91932995246243L261.51325301204815,76.68412703483301L263.233734939759,76.30145968526591L264.9542168674698,75.3039282802428L266.6746987951807,75.74030979760265L268.39518072289155,75.7337440268413L270.11566265060236,76.16395814766551L271.8361445783132,71.81406333397277L273.55662650602403,71.68339285453216L275.2771084337349,72.8168726289232L276.99759036144576,71.07244885018662L278.71807228915657,74.15595319065355L280.43855421686743,72.08955515668896L282.1590361445783,72.69890768370077L283.87951807228916,74.79995817100709L285.59999999999997,72.20374729419008L287.3204819277108,73.5678469974755L289.04096385542164,70.87684805735013L290.76144578313244,70.16307272330461L292.4819277108433,66.40065523995028L294.2024096385542,68.14882575226856L295.92289156626504,69.09968108806784L297.6433734939759,69.69170428308526L299.3638554216867,67.95016131204238L301.0843373493976,65.98677328635114L302.8048192771084,61.428024790655016L304.52530120481924,63.347312999693465L306.24578313253005,61.05010853564216L307.9662650602409,62.004367196290566L309.6867469879518,63.955297368873865L311.4072289156626,67.08732980277024L313.12771084337345,62.768957689379576L314.8481927710843,59.38577075945487L316.5686746987952,59.87672209746964L318.289156626506,58.55729004972246L320.00963855421685,58.46114228342137L321.73012048192766,60.26254747796942L323.4506024096385,61.02756765565579L325.1710843373494,59.92439263671639L326.8915662650602,61.60264174724628L328.61204819277106,62.28734484869575L330.33253012048186,63.23592432244955L332.0530120481927,60.30361082664498L333.77349397590353,61.50700933596693L335.4939759036144,62.622558272995036L337.2144578313253,53.95902623365525L338.9349397590361,55.710900191735384L340.655421686747,52.17662862213048L342.3759036144578,52.57560245170372L344.0963855421686,53.483881554814L345.81686746987947,52.09687049217567L347.5373493975903,51.13679276676925L349.25783132530114,53.76995360940513L350.978313253012,48.514415280332216L352.69879518072287,46.98501515171704L354.4192771084337,47.7706343798527L356.13975903614454,46.9878682385328L357.8602409638554,49.46723073684936L359.5807228915662,44.18771333904435L361.3012048192771,47.68174436834467L363.0216867469879,52.56023303241455L364.74216867469875,53.45292646751371L366.46265060240955,54.35006901693455L368.18313253012036,51.9687447826588L369.9036144578312,53.355802133436384L371.62409638554215,48.72045307695663L373.34457831325295,47.90945431741269L375.0650602409638,46.772825342693245L376.7855421686747,49.36196712142489L378.50602409638554,44.529987431164216L380.22650602409635,47.919053251257345L381.9469879518072,43.721943958184056L383.667469879518,38.86676920773779L385.3879518072289,38.19336026694391L387.1084337349397,38.588594797625284L388.8289156626505,34.49809727319534L390.54939759036137,31.410033806757976L392.2698795180722,29.907625540972187L393.99036144578304,23.82506357043549L395.7108433734939,25.540963004295087L397.43132530120477,28.091917243864454L399.1518072289157,29.003934090361078L400.8722891566265,31.432220752197452L402.59277108433736,30.269363080636904L404.31325301204816,29.67098250453952L406.03373493975903,34.849685550078675L407.75421686746984,32.95026720671114L409.47469879518064,30.615998959731513L411.1951807228915,30.964081665159963L412.9156626506023,30.748790486459477L414.6361445783132,30.573204962565143L416.35662650602404,28.74991225503008L418.0771084337349,15.409342486192166L419.7975903614457,7.909336049493438L421.5180722891566,8.237666599010218L423.2385542168674,4.055020761165855L424.9590361445782,0.907724610391586L426.67951807228917,0L428.4,6.036056396800473L428.4,87.61464898206545L426.67951807228917,85.01048153277748L424.9590361445782,86.9849053323979L423.2385542168674,85.99252990969137L421.5180722891566,92.1541785649228L419.7975903614457,89.02142008900037L418.0771084337349,89.11488494221562L416.35662650602404,86.11663586709467L414.6361445783132,90.81872856690512L412.9156626506023,88.31905746019065L411.1951807228915,88.14912712734272L409.47469879518064,89.92386350648047L407.75421686746984,93.1554962053625L406.03373493975903,97.76201975917337L404.31325301204816,95.98663988361575L402.59277108433736,95.41637212466024L400.8722891566265,97.06221177795601L399.1518072289157,98.79061510262821L397.43132530120477,96.8967563646774L395.7108433734939,99.24482911659055L393.99036144578304,102.50804304965673L392.2698795180722,107.1454812415119L390.54939759036137,102.94247878528294L388.8289156626505,106.82907406454736L387.1084337349397,105.60144572814902L385.3879518072289,107.78095036448003L383.667469879518,106.76550577939744L381.9469879518072,108.21086343961981L380.22650602409635,105.51722993813922L378.50602409638554,103.77844165017493L376.7855421686747,104.588985259808L375.0650602409638,104.89468399687762L373.34457831325295,107.96298582899503L371.62409638554215,111.23252833869832L369.9036144578312,110.08993289360231L368.18313253012036,110.97421761895576L366.46265060240955,110.48992958727406L364.74216867469875,102.67480318423704L363.0216867469879,106.71964286004449L361.3012048192771,105.10628458877342L359.5807228915662,104.87734079970802L357.8602409638554,101.61811496046067L356.13975903614454,101.78977502957082L354.4192771084337,102.28433893660784L352.69879518072287,100.11087015527406L350.978313253012,98.69339974617782L349.25783132530114,104.02317794486486L347.5373493975903,103.13463147223422L345.81686746987947,107.61165535319924L344.0963855421686,105.9051805509824L342.3759036144578,104.54671531055892L340.655421686747,105.85228814657108L338.9349397590361,110.79105014026165L337.2144578313253,109.52516225984208L335.4939759036144,109.20857621564522L333.77349397590353,107.65284062338505L332.0530120481927,108.14505660193662L330.33253012048186,110.49483465805197L328.61204819277106,108.21769924083209L326.8915662650602,108.47572452289748L325.1710843373494,108.6675822570975L323.4506024096385,113.76930938095155L321.73012048192766,114.14697621438343L320.00963855421685,111.63884024032582L318.289156626506,111.54472356649768L316.5686746987952,113.1694830887299L314.8481927710843,116.80983921802621L313.12771084337345,118.56622798693066L311.4072289156626,121.93773677488697L309.6867469879518,120.57247374191209L307.9662650602409,117.9206294994823L306.24578313253005,116.85184740218064L304.52530120481924,115.42203195241036L302.8048192771084,115.93090857102561L301.0843373493976,116.43583037436268L299.3638554216867,118.184892348226L297.6433734939759,122.63243606820922L295.92289156626504,125.78048882014649L294.2024096385542,125.52566850670766L292.4819277108433,126.63220133362174L290.76144578313244,126.72468295890809L289.04096385542164,125.2810311311902L287.3204819277108,124.59979514016773L285.59999999999997,124.66544257735373L283.87951807228916,123.8784007798737L282.1590361445783,121.27037895086684L280.43855421686743,123.16783400467739L278.71807228915657,123.59111419926339L276.99759036144576,120.13715764283157L275.2771084337349,124.82816088542864L273.55662650602403,127.37005611580277L271.8361445783132,125.77191035486821L270.11566265060236,127.58581846121716L268.39518072289155,124.97635853651045L266.6746987951807,127.15091068333713L264.9542168674698,128.56007095087153L263.233734939759,129.59337595852628L261.51325301204815,130.76615851552253L259.79277108433735,130.59174849236248L258.0722891566265,129.76934548540385L256.3518072289157,131.55265430404856L254.63132530120478,130.45617368806788L252.91084337349392,130.85546087760474L251.1903614457831,129.16696475859595L249.46987951807225,127.78795151897457L247.7493975903614,131.07869511188565L246.02891566265055,131.5429209080495L244.30843373493974,132.787566080778L242.58795180722888,134.1973564482134L240.86746987951807,134.2026277431863L239.1469879518072,136.55336364738122L237.42650602409634,140.19615469361528L235.7060240963855,140.4865464343704L233.98554216867464,142.68870833376155L232.26506024096383,143.15593075337333L230.54457831325303,143.00842307498974L228.82409638554213,145.06171179834627L227.10361445783133,143.99006063444904L225.3831325301204,145.397119390402L223.6626506024096,147.29952535255376L221.94216867469873,147.48325298495462L220.22168674698793,148.2505905066718L218.5012048192771,147.51158779305965L216.78072289156623,147.0214302133383L215.06024096385542,150.69353030905114L213.33975903614459,152.56560314066766L211.6192771084337,153.56009316243404L209.89879518072286,156.00348731511676L208.17831325301202,157.99828979425195L206.45783132530116,160.97358293525767L204.73734939759032,162.26051399095664L203.01686746987951,163.2545812466393L201.29638554216868,164.08073278542676L199.57590361445784,163.90932632955776L197.85542168674695,164.78793578585356L196.1349397590361,165.4175496972785L194.41445783132525,165.2470712562592L192.69397590361444,167.98433048807678L190.9734939759036,168.9100373991865L189.25301204819277,170.12018040879292L187.5325301204819,170.17317653021766L185.81204819277107,171.55470205401824L184.09156626506018,172.2247526836661L182.37108433734937,172.25962764444625L180.65060240963854,172.4328184581969L178.9301204819277,172.6372804760353L177.20963855421684,172.5409003062094L175.489156626506,173.41187810215263L173.76867469879514,175.2441841112218L172.0481927710843,176.39420427144194L170.3277108433735,176.3807730335969L168.60722891566266,176.15203492909865L166.88674698795177,176.98798141041624L165.16626506024093,178.13455605859764L163.4457831325301,178.34546492750283L161.72530120481926,177.76181807227252L160.00481927710842,177.96830837370442L158.2843373493976,178.54353034991428L156.56385542168672,180.07178884251618L154.8433734939759,180.39449311220056L153.12289156626503,180.31411070524044L151.4024096385542,181.82680949309054L149.68192771084335,182.83655279034895L147.96144578313252,183.51904510132653L146.24096385542165,184.7693016423807L144.52048192771082,184.8523912009131L142.79999999999998,185.56499007182558L141.07951807228915,185.57341841589204L139.35903614457828,185.54742720704309L137.63855421686745,186.15412892140372L135.9180722891566,185.58410610746648L134.19759036144578,186.40130819376398L132.4771084337349,186.72685479648845L130.75662650602408,186.95957901315379L129.03614457831324,187.52869896716896L127.31566265060239,188.03538095180568L125.59518072289156,188.02422924634794L123.8746987951807,188.3329832509349L122.15421686746987,188.95280398989485L120.43373493975903,189.14209616677533L118.71325301204817,190.25356319999574L116.99277108433732,190.40795642723987L115.27228915662651,190.1885350588611L113.55180722891566,189.80437846257504L111.8313253012048,190.11189146571462L110.11084337349396,190.42718083415076L108.39036144578311,191.10341863830152L106.66987951807229,191.4061106449693L104.94939759036143,191.67586105772463L103.22891566265058,191.82618040794947L101.50843373493976,191.72130113080738L99.78795180722892,191.20193986993365L98.06746987951804,191.87081172623473L96.34698795180722,192.06503100433156L94.62650602409639,191.77399994812706L92.90602409638554,191.96154172648988L91.18554216867469,191.816616069191L89.46506024096385,192.22948163989997L87.744578313253,192.36947732628045L86.02409638554215,193.01058091125356L84.30361445783133,193.12311379171206L82.58313253012047,193.2515518094541L80.86265060240963,193.24807111630327L79.1421686746988,193.20034908834168L77.42168674698794,193.07824527427L75.7012048192771,193.16637413989034L73.98072289156626,193.19438086189768L72.26024096385541,193.62444575034246L70.53975903614457,193.6541287169932L68.81927710843372,193.83712613399095L67.09879518072289,193.73408998815623L65.37831325301204,193.58278638053974L63.657831325301196,193.57986960201293L61.93734939759035,193.8326911789317L60.21686746987952,194.04521950466778L58.49638554216866,194.06446926729174L56.77590361445783,193.9549555037586L55.05542168674698,193.90252306477498L53.334939759036146,194.09061205796257L51.61445783132529,194.03519317669839L49.89397590361446,193.93667337903224L48.17349397590361,194.4656409427676L46.45301204819277,194.1553478576502L44.732530120481925,194.31483927303915L43.01204819277108,194.255522243683L41.29156626506023,194.67324846766468L39.5710843373494,194.76598465276308L37.85060240963855,195.01201627039356L36.13012048192771,195.25718784420462L34.40963855421686,195.3026259571405L32.689156626506026,194.27660972847806L30.968674698795176,194.4734555711246L29.248192771084337,194.1438571561042L27.52771084337349,194.05906972977624L25.80722891566265,194.0615115764355L24.086746987951805,194.03024407318566L22.366265060240963,194.55953504276098L20.645783132530116,194.57813915669783L18.925301204819274,194.9149759601291L17.20481927710843,195.62587615784244L15.484337349397588,194.9456946134717L13.763855421686745,195.62872646762185L12.043373493975903,196.0239140847505L10.322891566265058,197.51167029525766L8.602409638554215,197.94208747488844L6.881927710843373,198.6619994203L5.161445783132529,199.4447314716653L3.4409638554216864,199.4907580998895L1.7204819277108432,199.6639519486129L0,203.22953551453654Z" class="rv-xy-plot__series rv-xy-plot__series--line" transform="translate(51.6,5)" style="opacity: 1; stroke: rgba(83, 135, 221, 0); fill: rgba(83, 135, 221, 0.1);"/><path d="M0,201.84568738153783L1.7204819277108432,198.57704599960476L3.4409638554216864,197.59615085611674L5.161445783132529,197.43243669163797L6.881927710843373,195.7976019452366L8.602409638554215,194.8485542993555L10.322891566265058,194.5581207953403L12.043373493975903,193.21312149372704L13.763855421686745,192.81098610405775L15.484337349397588,192.27787385128872L17.20481927710843,192.4796603105631L18.925301204819274,192.01656047009195L20.645783132530116,191.69874395865355L22.366265060240963,191.73427605574153L24.086746987951805,191.4645868526382L25.80722891566265,191.11970782584865L27.52771084337349,191.17339463357385L29.248192771084337,191.27491138309452L30.968674698795176,191.27935856590778L32.689156626506026,191.16840517518173L34.40963855421686,191.07782976486294L36.13012048192771,190.78320845274212L37.85060240963855,190.79983448029859L39.5710843373494,190.90416555420592L41.29156626506023,190.91508770504018L43.01204819277108,190.81274439520297L44.732530120481925,190.92165266543645L46.45301204819277,190.603023977474L48.17349397590361,190.85038251604854L49.89397590361446,190.21242495631944L51.61445783132529,190.22337950697934L53.334939759036146,190.08958825213818L55.05542168674698,190.14424018345156L56.77590361445783,190.01318791674797L58.49638554216866,190.11322985654982L60.21686746987952,189.9880921140614L61.93734939759035,189.60885263764496L63.657831325301196,189.6513503425998L65.37831325301204,189.25543471414738L67.09879518072289,188.9793709683274L68.81927710843372,188.80718631184186L70.53975903614457,188.9373883777312L72.26024096385541,188.8963725815577L73.98072289156626,188.70148274343987L75.7012048192771,188.779675537992L77.42168674698794,188.78257312740377L79.1421686746988,188.58597938482853L80.86265060240963,188.26151597234838L82.58313253012047,188.22617494311626L84.30361445783133,187.98310719948165L86.02409638554215,187.45201994574774L87.744578313253,186.67883619687828L89.46506024096385,186.2371715739796L91.18554216867469,186.03795251226862L92.90602409638554,185.38591242736715L94.62650602409639,185.1050313628229L96.34698795180722,185.1311586576086L98.06746987951804,184.85524669177846L99.78795180722892,184.11482377750423L101.50843373493976,184.30374458040245L103.22891566265058,183.40047959428495L104.94939759036143,183.37750973073219L106.66987951807229,182.92103396192252L108.39036144578311,182.47665319257902L110.11084337349396,182.22841129265123L111.8313253012048,181.8048333475636L113.55180722891566,181.25802333334474L115.27228915662651,180.52063726159938L116.99277108433732,180.427267530828L118.71325301204817,179.6345298466284L120.43373493975903,178.29173663940824L122.15421686746987,178.07947242809394L123.8746987951807,177.43779601341848L125.59518072289156,177.59179658598273L127.31566265060239,177.25785055022595L129.03614457831324,175.23560497764416L130.75662650602408,174.33662102839043L132.4771084337349,173.99261507340898L134.19759036144578,173.0308601805447L135.9180722891566,171.56678657769024L137.63855421686745,170.8779753678083L139.35903614457828,169.98847303470313L141.07951807228915,170.20902075488854L142.79999999999998,170.61376510050775L144.52048192771082,169.36079965110028L146.24096385542165,168.3631221226399L147.96144578313252,167.10224122920238L149.68192771084335,166.11375369323568L151.4024096385542,165.38677954250988L153.12289156626503,164.7826355381864L154.8433734939759,164.7526904416146L156.56385542168672,164.40003369661875L158.2843373493976,163.1832346170784L160.00481927710842,161.7421356350471L161.72530120481926,161.83387510012457L163.4457831325301,161.32148124138956L165.16626506024093,160.38551612330411L166.88674698795177,158.83584711384532L168.60722891566266,157.23316152253165L170.3277108433735,157.46132398619824L172.0481927710843,156.02831496970418L173.76867469879514,156.04618773339178L175.489156626506,155.3076338277025L177.20963855421684,154.35684650338126L178.9301204819277,154.7481487961279L180.65060240963854,154.11007760824234L182.37108433734937,153.87118462979572L184.09156626506018,154.23184034598646L185.81204819277107,153.9540320526364L187.5325301204819,152.9474236258425L189.25301204819277,152.47051669436814L190.9734939759036,151.57081018212014L192.69397590361444,149.66087180873097L194.41445783132525,146.76221494952523L196.1349397590361,145.02959773087585L197.85542168674695,143.70165339426939L199.57590361445784,141.04557992384326L201.29638554216868,140.06140514062855L203.01686746987951,138.31903521623542L204.73734939759032,136.9626151733865L206.45783132530116,136.9415610961899L208.17831325301202,133.91226734532387L209.89879518072286,132.08629603983061L211.6192771084337,131.2699225588265L213.33975903614459,130.6515425637939L215.06024096385542,128.44299050750112L216.78072289156623,125.9596067669492L218.5012048192771,126.26874499471586L220.22168674698793,126.11723472536416L221.94216867469873,124.17303369832598L223.6626506024096,124.40514999025731L225.3831325301204,123.35833840601383L227.10361445783133,122.51586384563808L228.82409638554213,123.77164729607368L230.54457831325303,121.83846841733309L232.26506024096383,120.5832441540494L233.98554216867464,118.06686854328532L235.7060240963855,115.52772095802095L237.42650602409634,115.34393675657152L239.1469879518072,111.60134601171643L240.86746987951807,110.36930228317755L242.58795180722888,109.51991971318037L244.30843373493974,104.3476672073702L246.02891566265055,103.40030393811274L247.7493975903614,104.12566170471136L249.46987951807225,101.35178749122453L251.1903614457831,103.1846977196362L252.91084337349392,105.31386621955414L254.63132530120478,106.06614389801078L256.3518072289157,105.80384195873094L258.0722891566265,104.89456211093753L259.79277108433735,106.79334661507477L261.51325301204815,103.40451130254047L263.233734939759,102.5475256180677L264.9542168674698,101.3687199073673L266.6746987951807,101.21770349491963L268.39518072289155,100.44572304287148L270.11566265060236,101.60476743954617L271.8361445783132,99.73099284597974L273.55662650602403,100.19917429249922L275.2771084337349,99.41120592710969L276.99759036144576,96.0292923974704L278.71807228915657,99.01606951969734L280.43855421686743,98.00406255117997L282.1590361445783,97.4322611253641L283.87951807228916,100.14056146101971L285.59999999999997,98.71723849921564L287.3204819277108,99.39416609289542L289.04096385542164,97.15994711000377L290.76144578313244,98.49779346044183L292.4819277108433,95.37546654951737L294.2024096385542,95.42881492281614L295.92289156626504,96.39963330822168L297.6433734939759,95.04414602960463L299.3638554216867,92.43672357284892L301.0843373493976,90.64008518779745L302.8048192771084,89.40935193012201L304.52530120481924,89.6340816856836L306.24578313253005,88.20748437995672L307.9662650602409,89.33496846641658L309.6867469879518,92.00410123103696L311.4072289156626,94.78553796529991L313.12771084337345,91.24784708371611L314.8481927710843,89.54942061265588L316.5686746987952,87.78229934593215L318.289156626506,86.40959397358955L320.00963855421685,86.84367688012706L321.73012048192766,88.3725879992326L323.4506024096385,88.84362758458609L325.1710843373494,85.54927076407805L326.8915662650602,85.74204469783501L328.61204819277106,85.37882220269898L330.33253012048186,86.0609205762458L332.0530120481927,83.17842994050227L333.77349397590353,83.30892727652159L335.4939759036144,84.0347081532661L337.2144578313253,81.65746496361764L338.9349397590361,83.77266965778004L340.655421686747,79.54093162550927L342.3759036144578,79.02752446479387L344.0963855421686,79.91825173570908L345.81686746987947,80.58232251826777L347.5373493975903,77.98958413461338L349.25783132530114,79.49414422709621L350.978313253012,74.25721620163682L352.69879518072287,74.13953883215251L354.4192771084337,75.33318092719696L356.13975903614454,74.40858277936434L357.8602409638554,75.8939896238784L359.5807228915662,76.44543484034239L361.3012048192771,77.92894999831927L363.0216867469879,81.02988117548708L364.74216867469875,79.31787895163704L366.46265060240955,82.25532828499252L368.18313253012036,81.62688787613266L369.9036144578312,81.9261845822914L371.62409638554215,80.00935710343657L373.34457831325295,77.47330391580165L375.0650602409638,75.01869880636049L376.7855421686747,76.13088259981001L378.50602409638554,73.40398899392657L380.22650602409635,75.75523104223325L381.9469879518072,74.03992046921663L383.667469879518,71.61575619531543L385.3879518072289,71.72889226103342L387.1084337349397,70.75224084029054L388.8289156626505,68.17055319291319L390.54939759036137,65.22996731914053L392.2698795180722,64.92436430708628L393.99036144578304,59.80420087092024L395.7108433734939,59.05331827159672L397.43132530120477,59.80666598619214L399.1518072289157,60.68319824419928L400.8722891566265,61.28593279056515L402.59277108433736,60.56169225926965L404.31325301204816,61.652356209802505L406.03373493975903,65.67729971944098L407.75421686746984,63.00684326996158L409.47469879518064,60.37575467625304L411.1951807228915,59.13409067705022L412.9156626506023,58.72831365945521L414.6361445783132,60.35455156821987L416.35662650602404,56.70086246030675L418.0771084337349,52.959016115560644L419.7975903614457,51.32626822166158L421.5180722891566,51.17249129030199L423.2385542168674,45.294597007375245L424.9590361445782,42.62231240361081L426.67951807228917,41.16791324768701L428.4,45.504593845093346" class="rv-xy-plot__series rv-xy-plot__series--line" transform="translate(51.6,5)" style="opacity: 1; stroke-width: 1.5; stroke: rgb(83, 135, 221);"/><path d="M0,197.43762479203457L1.7204819277108432,195.71594211638737L3.4409638554216864,194.0357578195005L5.161445783132529,191.7451532543086L6.881927710843373,191.80428534120998L8.602409638554215,190.9745896592571L10.322891566265058,190.56919508585452L12.043373493975903,190.29805416347097L13.763855421686745,190.47381106266565L15.484337349397588,189.62056682121377L17.20481927710843,188.2162645073577L18.925301204819274,188.49996701167126L20.645783132530116,188.6612087029604L22.366265060240963,188.42867794414443L24.086746987951805,187.81002287923275L25.80722891566265,187.38960549611951L27.52771084337349,187.1401249347467L29.248192771084337,187.47713723092286L30.968674698795176,187.68168924926238L32.689156626506026,187.76539054473346L34.40963855421686,187.15466497094448L36.13012048192771,187.2446407639615L37.85060240963855,187.0115130050352L39.5710843373494,186.98692194739473L41.29156626506023,187.4794573888888L43.01204819277108,187.71019616107407L44.732530120481925,187.51139138686906L46.45301204819277,186.43044491663858L48.17349397590361,186.25971851587835L49.89397590361446,185.8492530104399L51.61445783132529,185.94095495557877L53.334939759036146,186.27637960881214L55.05542168674698,186.4237726617808L56.77590361445783,186.38139304676315L58.49638554216866,186.6122760369166L60.21686746987952,186.98240602698868L61.93734939759035,187.06832407753598L63.657831325301196,187.34563251020614L65.37831325301204,187.30944435257504L67.09879518072289,187.40059163227403L68.81927710843372,186.90014713791226L70.53975903614457,186.82744161309228L72.26024096385541,186.211278404484L73.98072289156626,185.90712795890292L75.7012048192771,185.65262792490813L77.42168674698794,185.50969110341475L79.1421686746988,185.66296437757563L80.86265060240963,185.07433107231662L82.58313253012047,184.9385263113125L84.30361445783133,183.84177642984645L86.02409638554215,183.09403666110597L87.744578313253,182.88099854029457L89.46506024096385,182.67099886971718L91.18554216867469,182.13614888379837L92.90602409638554,181.38211189011534L94.62650602409639,180.59726220916644L96.34698795180722,180.64837669062385L98.06746987951804,180.92401791817852L99.78795180722892,180.7136707521345L101.50843373493976,180.32972507793187L103.22891566265058,179.64570795547442L104.94939759036143,179.5133912219692L106.66987951807229,178.65741505699123L108.39036144578311,177.28049028103578L110.11084337349396,176.32505932251684L111.8313253012048,174.5580515662979L113.55180722891566,172.70632519618755L115.27228915662651,169.97537518497649L116.99277108433732,168.40627899445607L118.71325301204817,164.8890726751841L120.43373493975903,164.8350668254556L122.15421686746987,165.2292390911496L123.8746987951807,165.98300681948493L125.59518072289156,165.5302747445854L127.31566265060239,165.57333702474608L129.03614457831324,166.01390746245985L130.75662650602408,164.45313177875278L132.4771084337349,162.17965458750052L134.19759036144578,161.66201005001264L135.9180722891566,158.68305129908882L137.63855421686745,156.08470961771383L139.35903614457828,154.38085769939346L141.07951807228915,155.7324676890718L142.79999999999998,152.73146269985517L144.52048192771082,153.79541671559997L146.24096385542165,150.68785986500976L147.96144578313252,151.4682263195723L149.68192771084335,151.44609486436016L151.4024096385542,150.3959689317111L153.12289156626503,150.47513854984655L154.8433734939759,147.57656928968527L156.56385542168672,144.40148242460694L158.2843373493976,142.2758477661625L160.00481927710842,139.62822896323763L161.72530120481926,135.65958854642275L163.4457831325301,137.63306950671975L165.16626506024093,134.93895205162568L166.88674698795177,130.3013899420675L168.60722891566266,131.11662123792794L170.3277108433735,132.9130060114771L172.0481927710843,130.69801062111563L173.76867469879514,129.1836813970609L175.489156626506,127.49926648403866L177.20963855421684,125.14108348412536L178.9301204819277,125.37126287532952L180.65060240963854,128.19098729628425L182.37108433734937,129.47457055551737L184.09156626506018,126.62851759096675L185.81204819277107,122.94188682548204L187.5325301204819,123.72056258416973L189.25301204819277,126.62086248829479L190.9734939759036,126.44223729823261L192.69397590361444,125.64048260337026L194.41445783132525,122.67061341804273L196.1349397590361,120.51573394269344L197.85542168674695,118.91413218086417L199.57590361445784,117.0333984152573L201.29638554216868,118.58540770473282L203.01686746987951,114.47869385843278L204.73734939759032,115.87849354497378L206.45783132530116,115.2522018672063L208.17831325301202,116.24074319648501L209.89879518072286,114.38119838579257L211.6192771084337,116.19603163134609L213.33975903614459,115.04230060542349L215.06024096385542,113.67796504467023L216.78072289156623,116.5799401702502L218.5012048192771,113.14314294101833L220.22168674698793,111.80217851365629L221.94216867469873,114.5083089715211L223.6626506024096,113.28349051994593L225.3831325301204,112.48612745943629L227.10361445783133,113.40237650487062L228.82409638554213,113.40112258732778L230.54457831325303,112.094484459733L232.26506024096383,114.22600650325705L233.98554216867464,113.7834843791588L235.7060240963855,112.15247651621095L237.42650602409634,110.8451428251408L239.1469879518072,110.8341994680919L240.86746987951807,111.67437137314671L242.58795180722888,109.96042933941196L244.30843373493974,108.04420509083654L246.02891566265055,104.22575313429209L247.7493975903614,104.59695094731346L249.46987951807225,105.82031550298133L251.1903614457831,107.40926815386422L252.91084337349392,109.69820702081573L254.63132530120478,103.63597541888846L256.3518072289157,104.27630143697317L258.0722891566265,106.7858612008314L259.79277108433735,105.60543285129076L261.51325301204815,102.74727431295541L263.233734939759,98.87501318358096L264.9542168674698,96.11485060811123L266.6746987951807,84.0078111586926L268.39518072289155,87.1729819425964L270.11566265060236,84.40834033839695L271.8361445783132,82.52127493946819L273.55662650602403,82.63252936510513L275.2771084337349,86.22890565125306L276.99759036144576,89.48556281385534L278.71807228915657,88.43782750742801L280.43855421686743,88.8208050129153L282.1590361445783,86.90610378150902L283.87951807228916,83.98681775853449L285.59999999999997,86.43167153771135L287.3204819277108,90.75240039209731L289.04096385542164,90.39664821005474L290.76144578313244,85.789124923949L292.4819277108433,88.35560906008459L294.2024096385542,89.73632060146238L295.92289156626504,92.53253569240871L297.6433734939759,94.39746407451959L299.3638554216867,93.6884266606877L301.0843373493976,93.50081847982398L302.8048192771084,95.03324583310973L304.52530120481924,94.6992351022196L306.24578313253005,95.1112738468635L307.9662650602409,92.73328530759262L309.6867469879518,91.79227667735891L311.4072289156626,93.99399181330944L313.12771084337345,83.62604788781195L314.8481927710843,83.4233699289767L316.5686746987952,81.02368316881666L318.289156626506,80.83368392049438L320.00963855421685,79.49949646765216L321.73012048192766,80.8169853630561L323.4506024096385,80.63421336378396L325.1710843373494,80.33035677781245L326.8915662650602,78.5541108452411L328.61204819277106,81.0464846900566L330.33253012048186,79.05553185622813L332.0530120481927,79.58229926839026L333.77349397590353,80.76860484429214L335.4939759036144,82.39048367389583L337.2144578313253,82.58572712036018L338.9349397590361,83.80844980911466L340.655421686747,83.18457416246973L342.3759036144578,81.76820484916067L344.0963855421686,82.37732673077859L345.81686746987947,82.95258319078823L347.5373493975903,82.25756167859416L349.25783132530114,80.27774808070103L350.978313253012,80.76079990841912L352.69879518072287,83.05979133797213L354.4192771084337,80.7136639830606L356.13975903614454,75.95820896379774L357.8602409638554,75.78758655861319L359.5807228915662,73.63162528720375L361.3012048192771,69.41736903406631L363.0216867469879,75.6609357689653L364.74216867469875,74.08365866765183L366.46265060240955,74.14678112431817L368.18313253012036,65.21604000036683L369.9036144578312,67.09278976292073L371.62409638554215,67.1803335477452L373.34457831325295,63.84314375567625L375.0650602409638,62.30076092121881L376.7855421686747,57.14327326581301L378.50602409638554,60.83030421683842L380.22650602409635,61.783804870216656L381.9469879518072,60.22073991316445L383.667469879518,54.875942370882306L385.3879518072289,56.966512486680024L387.1084337349397,52.4223044536464L388.8289156626505,56.521210164858466L390.54939759036137,60.39325884992391L392.2698795180722,61.70368528197919L393.99036144578304,52.52794928037063L395.7108433734939,52.93498548496101L397.43132530120477,49.194848475659064L399.1518072289157,44.276788837070555L400.8722891566265,46.453926826309335L402.59277108433736,47.37733479654125L404.31325301204816,44.40429335740949L406.03373493975903,38.90000812741839L407.75421686746984,40.615880940471065L409.47469879518064,37.89146775022639L411.1951807228915,39.03648156044757L412.9156626506023,38.5927398038804L414.6361445783132,39.433754234653854L416.35662650602404,30.25978141800404L418.0771084337349,23.17371435597756L419.7975903614457,22.54616571690857L421.5180722891566,27.718631926698315L423.2385542168674,28.995002328744025L424.9590361445782,30.534596648804015L426.67951807228917,34.152598724013906L428.4,36.43438785901395L428.4,113.22127161299755L426.67951807228917,111.29192120482774L424.9590361445782,109.38312615858763L423.2385542168674,110.9494391346556L421.5180722891566,117.08535990691144L419.7975903614457,114.58310224416283L418.0771084337349,116.43993242149752L416.35662650602404,118.75980638712655L414.6361445783132,118.96567524911501L412.9156626506023,120.186438411796L411.1951807228915,117.37549481124361L409.47469879518064,120.7285506344519L407.75421686746984,124.48010166180707L406.03373493975903,127.69612249200024L404.31325301204816,128.48312764359457L402.59277108433736,127.34569953612458L400.8722891566265,125.56676819443649L399.1518072289157,122.715002954528L397.43132530120477,122.70484832801316L395.7108433734939,119.51493116146789L393.99036144578304,120.9415276333698L392.2698795180722,121.1721800677566L390.54939759036137,122.70391977536332L388.8289156626505,125.1430539453646L387.1084337349397,123.31259809681063L385.3879518072289,123.25189323648385L383.667469879518,126.64280975727146L381.9469879518072,125.23616889097067L380.22650602409635,128.66771360460223L378.50602409638554,130.577329751659L376.7855421686747,130.63276511535773L375.0650602409638,127.2122634028648L373.34457831325295,127.35040059630461L371.62409638554215,129.97857319790415L369.9036144578312,127.90390662202341L368.18313253012036,125.32762859300215L366.46265060240955,126.3089323630391L364.74216867469875,127.91545321673945L363.0216867469879,126.5702704671311L361.3012048192771,124.58686680902585L359.5807228915662,121.27005521146569L357.8602409638554,122.03010320448064L356.13975903614454,122.44402430043715L354.4192771084337,126.79340126536052L352.69879518072287,129.03668776048235L350.978313253012,127.90155040615797L349.25783132530114,126.85793395271241L347.5373493975903,129.1158741948874L345.81686746987947,128.32624813169656L344.0963855421686,125.22364262615511L342.3759036144578,125.07709680593584L340.655421686747,126.10752530735553L338.9349397590361,126.13873956032077L337.2144578313253,126.40255189161562L335.4939759036144,127.65640710794287L333.77349397590353,130.04517230223482L332.0530120481927,129.71237144211216L330.33253012048186,133.70591643299088L328.61204819277106,133.20836892000173L326.8915662650602,132.8609306571853L325.1710843373494,131.84745012683518L323.4506024096385,135.52898128719718L321.73012048192766,136.58102279462375L320.00963855421685,133.06209343218404L318.289156626506,136.21676527404526L316.5686746987952,136.28058928726847L314.8481927710843,137.7231618622065L313.12771084337345,139.22273715169362L311.4072289156626,139.59537670867365L309.6867469879518,137.00286509619636L307.9662650602409,136.24716748868795L306.24578313253005,136.4781483597057L304.52530120481924,135.0161301158187L302.8048192771084,135.29218684566328L301.0843373493976,137.55535942415383L299.3638554216867,139.26162304153172L297.6433734939759,139.109355596923L295.92289156626504,141.56989440853985L294.2024096385542,142.58664721591478L292.4819277108433,142.11238721743035L290.76144578313244,142.56306093720914L289.04096385542164,141.94374448392813L287.3204819277108,140.5061019290173L285.59999999999997,140.00018413869253L283.87951807228916,140.47157805566005L282.1590361445783,140.60170400740162L280.43855421686743,142.05932479517332L278.71807228915657,144.04331232746597L276.99759036144576,146.4243881428525L275.2771084337349,148.0806285132984L273.55662650602403,146.66637208610865L271.8361445783132,148.41070301065784L270.11566265060236,149.27597404007193L268.39518072289155,151.0870824226137L266.6746987951807,153.86188904785072L264.9542168674698,154.46874496566178L263.233734939759,155.18643726694825L261.51325301204815,154.74712425646058L259.79277108433735,155.0106135593742L258.0722891566265,153.20027717960383L256.3518072289157,151.26645150271753L254.63132530120478,152.3571346428703L252.91084337349392,152.5194529851202L251.1903614457831,153.26552311979037L249.46987951807225,154.9271719585093L247.7493975903614,156.29702137080042L246.02891566265055,156.93212196686665L244.30843373493974,157.7493326914164L242.58795180722888,158.94504684622973L240.86746987951807,162.32974151555655L239.1469879518072,164.48537370083204L237.42650602409634,165.41274868195157L235.7060240963855,164.78003125288544L233.98554216867464,165.33751630748998L232.26506024096383,165.45406890689455L230.54457831325303,165.663584298598L228.82409638554213,166.6934945454528L227.10361445783133,166.5807463100821L225.3831325301204,167.29042517583292L223.6626506024096,167.73348784459594L221.94216867469873,168.77136893338638L220.22168674698793,168.86586877448292L218.5012048192771,170.46748936946395L216.78072289156623,171.04788022272433L215.06024096385542,171.26102543579648L213.33975903614459,172.351984837669L211.6192771084337,172.89393844095878L209.89879518072286,173.62559236111346L208.17831325301202,174.4324380340301L206.45783132530116,175.2101656842834L204.73734939759032,176.6825298366336L203.01686746987951,177.48643093757153L201.29638554216868,179.39613915209125L199.57590361445784,179.66615113772554L197.85542168674695,180.82585637664465L196.1349397590361,180.68353377571404L194.41445783132525,181.6938837152378L192.69397590361444,182.15181331552782L190.9734939759036,182.21613806004353L189.25301204819277,181.82203072495682L187.5325301204819,182.42913861793693L185.81204819277107,182.71648648177634L184.09156626506018,182.4805783110766L182.37108433734937,183.0640381086665L180.65060240963854,183.3463195254203L178.9301204819277,184.62852309651362L177.20963855421684,184.80267371735997L175.489156626506,185.5026789473162L173.76867469879514,185.81199117212054L172.0481927710843,185.6734774724963L170.3277108433735,185.93287375643186L168.60722891566266,186.9002647754062L166.88674698795177,186.48549346724084L165.16626506024093,186.42258568348984L163.4457831325301,186.97206629957114L161.72530120481926,187.22499700141262L160.00481927710842,187.9992217926363L158.2843373493976,187.98826527811278L156.56385542168672,188.68288484426728L154.8433734939759,189.48801054350068L153.12289156626503,189.22094491343165L151.4024096385542,189.29189269752402L149.68192771084335,189.56634488485912L147.96144578313252,189.50396888437453L146.24096385542165,189.52244093626487L144.52048192771082,189.38912046092938L142.79999999999998,189.9074941576828L141.07951807228915,190.2475291337915L139.35903614457828,189.67251355772098L137.63855421686745,190.01050126302906L135.9180722891566,190.43528162793064L134.19759036144578,190.4576274115298L132.4771084337349,190.61307608447095L130.75662650602408,189.9792946951422L129.03614457831324,190.1336654361186L127.31566265060239,190.05616654735573L125.59518072289156,190.09185850153818L123.8746987951807,190.93752266943852L122.15421686746987,191.1133954094421L120.43373493975903,191.27493809272332L118.71325301204817,189.99034531021601L116.99277108433732,189.53145703668147L115.27228915662651,189.17687371426433L113.55180722891566,188.97320561788L111.8313253012048,188.74664711345463L110.11084337349396,188.13536189860758L108.39036144578311,188.25070762108194L106.66987951807229,188.1757286521567L104.94939759036143,188.35027936831753L103.22891566265058,188.58047742413868L101.50843373493976,188.94084183756502L99.78795180722892,189.21744856429157L98.06746987951804,189.37288278651138L96.34698795180722,189.49830360439324L94.62650602409639,189.89252731320116L92.90602409638554,190.81049114653817L91.18554216867469,191.0662715934349L89.46506024096385,191.30121914378654L87.744578313253,190.9394595679712L86.02409638554215,191.08163851831299L84.30361445783133,191.371281036298L82.58313253012047,191.96622758672692L80.86265060240963,191.9442846666435L79.1421686746988,192.1390267695619L77.42168674698794,191.94659726106815L75.7012048192771,191.9565200878843L73.98072289156626,192.23573189544908L72.26024096385541,193.15994540677397L70.53975903614457,193.87567464427482L68.81927710843372,194.4519321765472L67.09879518072289,194.19961627923107L65.37831325301204,194.57796286991163L63.657831325301196,194.43317639594065L61.93734939759035,194.01961277811046L60.21686746987952,194.26652605871217L58.49638554216866,193.74547946542998L56.77590361445783,193.95921317789953L55.05542168674698,193.81004376693568L53.334939759036146,194.3195901696755L51.61445783132529,194.40963866571903L49.89397590361446,194.9407655779424L48.17349397590361,195.63468477645847L46.45301204819277,195.9358957588348L44.732530120481925,195.49324894619934L43.01204819277108,195.71982390124649L41.29156626506023,195.63764489510248L39.5710843373494,195.40195438651926L37.85060240963855,195.3719115424685L36.13012048192771,195.37450101227455L34.40963855421686,194.83010121386067L32.689156626506026,194.45413579241304L30.968674698795176,194.42718202469456L29.248192771084337,194.30116480206777L27.52771084337349,194.48962057722943L25.80722891566265,194.4070365098313L24.086746987951805,194.76337694281918L22.366265060240963,194.6316739475316L20.645783132530116,195.16896573852583L18.925301204819274,195.48607770760998L17.20481927710843,196.06291228410808L15.484337349397588,196.3751049203516L13.763855421686745,196.6891078402056L12.043373493975903,196.0421640312929L10.322891566265058,196.48781621037037L8.602409638554215,196.36232199759118L6.881927710843373,196.38745096215354L5.161445783132529,196.81581914564651L3.4409638554216864,198.49813122698362L1.7204819277108432,199.18534405143203L0,200.16650580552107Z" class="rv-xy-plot__series rv-xy-plot__series--line" transform="translate(51.6,5)" style="opacity: 1; stroke: rgba(218, 76, 76, 0); fill: rgba(218, 76, 76, 0.1);"/><path d="M0,198.75300378395812L1.7204819277108432,197.29410292175294L3.4409638554216864,196.46886363199582L5.161445783132529,194.27477364005995L6.881927710843373,194.08443155987L8.602409638554215,193.58734483385052L10.322891566265058,193.28258731514373L12.043373493975903,192.85942578001146L13.763855421686745,193.18521586559288L15.484337349397588,192.88554938646283L17.20481927710843,192.30592029479774L18.925301204819274,192.14565495395613L20.645783132530116,191.976684560476L22.366265060240963,191.65441696054796L24.086746987951805,191.22103176289352L25.80722891566265,190.85046848448633L27.52771084337349,190.86701813619578L29.248192771084337,190.89816350567838L30.968674698795176,191.1605099114438L32.689156626506026,191.250425309175L34.40963855421686,191.10166846768638L36.13012048192771,191.2219089094628L37.85060240963855,190.9536122751893L39.5710843373494,190.98309581034843L41.29156626506023,191.34689433812656L43.01204819277108,191.43470767318306L44.732530120481925,191.1761664914681L46.45301204819277,191.0681087688169L48.17349397590361,190.90066781613885L49.89397590361446,190.4322297290837L51.61445783132529,190.17224836443359L53.334939759036146,190.23432405672995L55.05542168674698,190.05179304919815L56.77590361445783,190.03494641150135L58.49638554216866,190.06507331211006L60.21686746987952,190.52421361814473L61.93734939759035,190.4854533895059L63.657831325301196,190.87791627132208L65.37831325301204,190.9807368507315L67.09879518072289,190.8017652362227L68.81927710843372,190.4999435507056L70.53975903614457,190.22312352782325L72.26024096385541,189.59067263947423L73.98072289156626,188.98213578817138L75.7012048192771,188.66140708929015L77.42168674698794,188.58673399590938L79.1421686746988,188.70275362646967L80.86265060240963,188.20970670169552L82.58313253012047,188.1262700705561L84.30361445783133,187.37766620803123L86.02409638554215,187.0543599181459L87.744578313253,186.77140462655223L89.46506024096385,186.8299994563177L91.18554216867469,186.60172676852727L92.90602409638554,186.0122459748605L94.62650602409639,185.294035892383L96.34698795180722,185.07668674659425L98.06746987951804,185.19027648790296L99.78795180722892,185.1229517570706L101.50843373493976,184.68401188774075L103.22891566265058,184.2068223517253L104.94939759036143,184.08323312488022L106.66987951807229,183.35509676955536L108.39036144578311,182.88994600449809L110.11084337349396,182.5111923802644L111.8313253012048,181.72328636217037L113.55180722891566,181.20707520262206L115.27228915662651,180.62988324626318L116.99277108433732,180.2406118405495L118.71325301204817,179.02303897873523L120.43373493975903,179.59826049688672L122.15421686746987,179.7665968898912L123.8746987951807,179.74302859837135L125.59518072289156,178.80491506143125L127.31566265060239,178.7805218593035L129.03614457831324,179.01046313948203L130.75662650602408,178.3613973387909L132.4771084337349,177.66204437110477L134.19759036144578,177.38984051427525L135.9180722891566,176.46967938090955L137.63855421686745,175.0798362840156L139.35903614457828,174.13278092716752L141.07951807228915,174.5977719079841L142.79999999999998,173.4636738244291L144.52048192771082,173.6462881227586L146.24096385542165,172.6519713731798L147.96144578313252,172.45702374095697L149.68192771084335,172.51935187552104L151.4024096385542,172.17994992054568L153.12289156626503,171.39866485327158L154.8433734939759,170.27956919882465L156.56385542168672,168.75959001797878L158.2843373493976,168.01848598495164L160.00481927710842,166.41204938343554L161.72530120481926,164.57691019915714L163.4457831325301,165.53826332366174L165.16626506024093,163.78133106195324L166.88674698795177,162.31174410378313L168.60722891566266,162.66540336027018L170.3277108433735,163.06169670430836L172.0481927710843,162.588419739529L173.76867469879514,162.25545464733736L175.489156626506,161.36657807696452L177.20963855421684,160.38888023624568L178.9301204819277,159.96568967535134L180.65060240963854,160.20936482170106L182.37108433734937,159.91342370197285L184.09156626506018,158.51854870787372L185.81204819277107,157.3709682476685L187.5325301204819,156.73368677396385L189.25301204819277,157.336968664694L190.9734939759036,156.21935371986905L192.69397590361444,155.12809437476434L194.41445783132525,153.178395953648L196.1349397590361,152.3867449429945L197.85542168674695,151.9246722602102L199.57590361445784,151.0739023681346L201.29638554216868,151.90657282565525L203.01686746987951,149.48467346399985L204.73734939759032,149.00850806256489L206.45783132530116,148.0171317336245L208.17831325301202,147.83820986699587L209.89879518072286,147.286178500645L211.6192771084337,147.3690718988162L213.33975903614459,146.60421913001355L215.06024096385542,145.04307971214845L216.78072289156623,146.21253940461548L218.5012048192771,145.02257463682733L220.22168674698793,143.0752055262483L221.94216867469873,143.99989212194794L223.6626506024096,143.48837728008502L225.3831325301204,143.43242763778204L227.10361445783133,143.1112551660921L228.82409638554213,142.61947820659702L230.54457831325303,141.55653700910491L232.26506024096383,142.4328420853507L233.98554216867464,141.53535255079285L235.7060240963855,140.88723765125414L237.42650602409634,139.99842372949888L239.1469879518072,139.47692919178147L240.86746987951807,138.52662110309177L242.58795180722888,135.98220086044793L244.30843373493974,135.1530512440377L246.02891566265055,133.64312074809249L247.7493975903614,133.72716756240123L249.46987951807225,133.1737276972583L251.1903614457831,132.95179932666125L252.91084337349392,133.33764174942354L254.63132530120478,131.06093179177512L256.3518072289157,130.94412790040965L258.0722891566265,132.80693485171471L259.79277108433735,133.2884007042093L261.51325301204815,131.4530401614724L263.233734939759,130.15755728786485L264.9542168674698,129.01305702201975L266.6746987951807,123.62634398182482L268.39518072289155,123.3592990108958L270.11566265060236,121.64093142708172L271.8361445783132,120.45159507652191L273.55662650602403,119.57972689980876L275.2771084337349,121.79412062429301L276.99759036144576,122.23428184042629L278.71807228915657,120.47958268463213L280.43855421686743,119.42924165735045L282.1590361445783,116.49507359618076L283.87951807228916,113.64870342431715L285.59999999999997,114.83529868483289L287.3204819277108,117.24319247041534L289.04096385542164,117.7307474339093L290.76144578313244,116.8773556191191L292.4819277108433,117.57402757315727L294.2024096385542,118.55247263746165L295.92289156626504,119.3038662949672L297.6433734939759,118.81030977439518L299.3638554216867,118.16890034396937L301.0843373493976,116.85491243292621L302.8048192771084,116.41466096794231L304.52530120481924,115.7940905406835L306.24578313253005,116.57302009153464L307.9662650602409,115.55011221943029L309.6867469879518,115.90851590415315L311.4072289156626,118.41135154299754L313.12771084337345,114.89338998106085L314.8481927710843,114.22737510579705L316.5686746987952,112.75260280230415L318.289156626506,113.07121900351481L320.00963855421685,110.35133686488436L321.73012048192766,112.77920453067863L323.4506024096385,112.46602262171098L325.1710843373494,110.31639700820254L326.8915662650602,109.10641122168457L328.61204819277106,109.82307534092779L330.33253012048186,108.57633814923304L332.0530120481927,106.65109136566886L333.77349397590353,106.76120526889503L335.4939759036144,106.1969681446437L337.2144578313253,105.48812159065965L338.9349397590361,105.84588574253789L340.655421686747,104.82990161226947L342.3759036144578,103.70361572536635L344.0963855421686,104.30774150418407L345.81686746987947,105.62063062590333L347.5373493975903,105.17113675471403L349.25783132530114,103.62493978406218L350.978313253012,104.90620008759772L352.69879518072287,106.98561789027205L354.4192771084337,104.55663261780825L356.13975903614454,99.98170883548974L357.8602409638554,99.70462062983613L359.5807228915662,98.7770238071423L361.3012048192771,98.33587575557368L363.0216867469879,102.44460735993434L364.74216867469875,102.54143871931831L366.46265060240955,101.30826981605843L368.18313253012036,97.78655261075265L369.9036144578312,99.2961414569004L371.62409638554215,99.82452936000713L373.34457831325295,96.94931057650395L375.0650602409638,96.58208329231431L376.7855421686747,95.94158910258446L378.50602409638554,97.18128572524427L380.22650602409635,96.66732372975669L381.9469879518072,93.306017174822L383.667469879518,92.53412839732069L385.3879518072289,91.92063970825856L387.1084337349397,90.19256443343815L388.8289156626505,92.76167712036246L390.54939759036137,93.29105007109223L392.2698795180722,92.69381942778095L393.99036144578304,86.00504262897306L395.7108433734939,85.15439430245341L397.43132530120477,84.33806838177688L399.1518072289157,80.58782211888857L400.8722891566265,83.59027205811388L402.59277108433736,84.3289319140996L404.31325301204816,85.37622836707007L406.03373493975903,84.3884541585331L407.75421686746984,83.64059434007169L409.47469879518064,80.28221638796425L411.1951807228915,79.32303937224326L412.9156626506023,79.39710598809174L414.6361445783132,78.35763635829446L416.35662650602404,75.64122999915001L418.0771084337349,72.5910257375839L419.7975903614457,69.87677282252308L421.5180722891566,73.57440608249847L423.2385542168674,71.11847290829238L424.9590361445782,70.82502731246352L426.67951807228917,73.02746465674535L428.4,74.1215599304245" class="rv-xy-plot__series rv-xy-plot__series--line" transform="translate(51.6,5)" style="opacity: 1; stroke-width: 1.5; stroke: rgb(218, 76, 76);"/><g class="rv-xy-plot__series rv-xy-plot__series--mark" transform="translate(51.6,5)"><circle r="2" cx="428.4" cy="74.1215599304245" style="opacity: 1; stroke: rgb(218, 76, 76); fill: rgb(218, 76, 76); stroke-width: 1;"/></g><g class="rv-xy-plot__series rv-xy-plot__series--mark" transform="translate(51.6,5)"><circle r="2" cx="428.4" cy="45.504593845093346" style="opacity: 1; stroke: rgb(83, 135, 221); fill: rgb(83, 135, 221); stroke-width: 1;"/></g><defs class="rv-gradient-defs"><linearGradient id="leftFadeGradient" x1="0" x2="1" y1="0" y2="0"><stop offset="0%" stop-color="white" stop-opacity="1"/><stop offset="60%" stop-color="white" stop-opacity="1"/><stop offset="100%" stop-color="white" stop-opacity="0"/></linearGradient><linearGradient id="rightFadeGradient" x1="1" x2="0" y1="0" y2="0"><stop offset="0%" stop-color="white" stop-opacity="1"/><stop offset="100%" stop-color="white" stop-opacity="0"/></linearGradient><linearGradient id="bottomFadeGradient" x1="0" x2="0" y1="1" y2="0"><stop offset="0%" stop-color="white" stop-opacity="1"/><stop offset="40%" stop-color="white" stop-opacity="1"/><stop offset="100%" stop-color="white" stop-opacity="0"/></linearGradient><linearGradient id="topFadeGradient" x1="0" x2="0" y1="0" y2="1"><stop offset="0%" stop-color="white" stop-opacity="1"/><stop offset="100%" stop-color="white" stop-opacity="0"/></linearGradient></defs><g class="rv-xy-plot__borders plot-border"><rect class="rv-xy-plot__borders-bottom plot-border-bottom" x="0" y="228" width="500" height="30" style="fill: url(&quot;#bottomFadeGradient&quot;); opacity: 1;"/><rect class="rv-xy-plot__borders-left plot-border-left" x="0" y="0" width="51.6" height="258" style="fill: url(&quot;#leftFadeGradient&quot;); opacity: 1;"/><rect class="rv-xy-plot__borders-right plot-border-right" x="480" y="0" width="20" height="258" style="fill: url(&quot;#rightFadeGradient&quot;); opacity: 1;"/><rect class="rv-xy-plot__borders-top plot-border-top" x="0" y="0" width="500" height="5" style="fill: url(&quot;#topFadeGradient&quot;); opacity: 1;"/></g><g transform="translate(51.6,228)" class="rv-xy-plot__axis rv-xy-plot__axis--horizontal"><line x1="0" x2="428.4" y1="0" y2="0" class="rv-xy-plot__axis__line"/><g transform="translate(0, 0)" class="rv-xy-plot__axis__ticks"/></g><g transform="translate(51.6,228)" class="rv-xy-plot__axis rv-xy-plot__axis--horizontal" style="font-family: &quot;Source Sans Pro&quot;; fill: rgb(107, 107, 118); font-size: 14px;"><line x1="0" x2="428.4" y1="0" y2="0" class="rv-xy-plot__axis__line" style="font-family: &quot;Source Sans Pro&quot;; fill: rgb(107, 107, 118); font-size: 14px; stroke-width: 0;"/><g transform="translate(0, 0)" class="rv-xy-plot__axis__ticks"><g transform="translate(84.88807305823154, 0)" class="rv-xy-plot__axis__tick" style="font-family: &quot;Source Sans Pro&quot;; fill: rgb(107, 107, 118); font-size: 14px;"><line x1="0" x2="0" y1="-6" y2="6" class="rv-xy-plot__axis__tick__line" style="font-family: &quot;Source Sans Pro&quot;; fill: rgb(107, 107, 118); font-size: 14px; stroke-width: 0;"/><text text-anchor="middle" dy="0.72em" transform="translate(0, 14)" class="rv-xy-plot__axis__tick__text" style="font-family: sans-serif; fill: rgb(107, 107, 118); font-size: 14px;">2M</text></g><g transform="translate(170.98799764735935, 0)" class="rv-xy-plot__axis__tick" style="font-family: &quot;Source Sans Pro&quot;; fill: rgb(107, 107, 118); font-size: 14px;"><line x1="0" x2="0" y1="-6" y2="6" class="rv-xy-plot__axis__tick__line" style="font-family: &quot;Source Sans Pro&quot;; fill: rgb(107, 107, 118); font-size: 14px; stroke-width: 0;"/><text text-anchor="middle" dy="0.72em" transform="translate(0, 14)" class="rv-xy-plot__axis__tick__text" style="font-family: sans-serif; fill: rgb(107, 107, 118); font-size: 14px;">4M</text></g><g transform="translate(257.0879222364872, 0)" class="rv-xy-plot__axis__tick" style="font-family: &quot;Source Sans Pro&quot;; fill: rgb(107, 107, 118); font-size: 14px;"><line x1="0" x2="0" y1="-6" y2="6" class="rv-xy-plot__axis__tick__line" style="font-family: &quot;Source Sans Pro&quot;; fill: rgb(107, 107, 118); font-size: 14px; stroke-width: 0;"/><text text-anchor="middle" dy="0.72em" transform="translate(0, 14)" class="rv-xy-plot__axis__tick__text" style="font-family: sans-serif; fill: rgb(107, 107, 118); font-size: 14px;">6M</text></g><g transform="translate(343.187846825615, 0)" class="rv-xy-plot__axis__tick" style="font-family: &quot;Source Sans Pro&quot;; fill: rgb(107, 107, 118); font-size: 14px;"><line x1="0" x2="0" y1="-6" y2="6" class="rv-xy-plot__axis__tick__line" style="font-family: &quot;Source Sans Pro&quot;; fill: rgb(107, 107, 118); font-size: 14px; stroke-width: 0;"/><text text-anchor="middle" dy="0.72em" transform="translate(0, 14)" class="rv-xy-plot__axis__tick__text" style="font-family: sans-serif; fill: rgb(107, 107, 118); font-size: 14px;">8M</text></g></g><g transform="translate(0, 0)" class="rv-xy-plot__axis__title"><g transform="translate(422.4, -6) rotate(0)" style="text-anchor: end; font-family: &quot;Source Sans Pro&quot;; fill: rgb(107, 107, 118); font-size: 14px;"><text style="font-family: sans-serif; fill: rgb(107, 107, 118); font-size: 14px;"> Steps</text></g></g></g><g transform="translate(51.6,228)" class="rv-xy-plot__axis rv-xy-plot__axis--horizontal"><line x1="0" x2="0" y1="0" y2="0" class="rv-xy-plot__axis__line"/><g transform="translate(0, 0)" class="rv-xy-plot__axis__ticks"><g transform="translate(84.88807305823154, 0)" class="rv-xy-plot__axis__tick"><line x1="0" x2="0" y1="-6" y2="6" class="rv-xy-plot__axis__tick__line"/><text text-anchor="middle" dy="0.72em" transform="translate(0, 14)" class="rv-xy-plot__axis__tick__text" style="font-family: sans-serif;"/></g><g transform="translate(170.98799764735935, 0)" class="rv-xy-plot__axis__tick"><line x1="0" x2="0" y1="-6" y2="6" class="rv-xy-plot__axis__tick__line"/><text text-anchor="middle" dy="0.72em" transform="translate(0, 14)" class="rv-xy-plot__axis__tick__text" style="font-family: sans-serif;"/></g><g transform="translate(257.0879222364872, 0)" class="rv-xy-plot__axis__tick"><line x1="0" x2="0" y1="-6" y2="6" class="rv-xy-plot__axis__tick__line"/><text text-anchor="middle" dy="0.72em" transform="translate(0, 14)" class="rv-xy-plot__axis__tick__text" style="font-family: sans-serif;"/></g><g transform="translate(343.187846825615, 0)" class="rv-xy-plot__axis__tick"><line x1="0" x2="0" y1="-6" y2="6" class="rv-xy-plot__axis__tick__line"/><text text-anchor="middle" dy="0.72em" transform="translate(0, 14)" class="rv-xy-plot__axis__tick__text" style="font-family: sans-serif;"/></g></g></g><g transform="translate(0,5)" class="rv-xy-plot__axis rv-xy-plot__axis--vertical" style="font-family: &quot;Source Sans Pro&quot;; fill: rgb(107, 107, 118); font-size: 14px;"><line x1="51.6" x2="51.6" y1="0" y2="223" class="rv-xy-plot__axis__line" style="font-family: &quot;Source Sans Pro&quot;; fill: rgb(107, 107, 118); font-size: 14px; stroke: none;"/><g transform="translate(51.6, 0)" class="rv-xy-plot__axis__ticks"><g transform="translate(0, 223)" class="rv-xy-plot__axis__tick" style="font-family: &quot;Source Sans Pro&quot;; fill: rgb(107, 107, 118); font-size: 14px;"><line y1="0" y2="0" x1="6" x2="-6" class="rv-xy-plot__axis__tick__line" style="font-family: &quot;Source Sans Pro&quot;; fill: rgb(107, 107, 118); font-size: 14px; stroke: none;"/><text text-anchor="end" dy="0.32em" transform="translate(-14, 0)" class="rv-xy-plot__axis__tick__text" style="font-family: sans-serif; fill: rgb(107, 107, 118); font-size: 14px;">0</text></g><g transform="translate(0, 166.04283598938184)" class="rv-xy-plot__axis__tick" style="font-family: &quot;Source Sans Pro&quot;; fill: rgb(107, 107, 118); font-size: 14px;"><line y1="0" y2="0" x1="6" x2="-6" class="rv-xy-plot__axis__tick__line" style="font-family: &quot;Source Sans Pro&quot;; fill: rgb(107, 107, 118); font-size: 14px; stroke: none;"/><text text-anchor="end" dy="0.32em" transform="translate(-14, 0)" class="rv-xy-plot__axis__tick__text" style="font-family: sans-serif; fill: rgb(107, 107, 118); font-size: 14px;">1000</text></g><g transform="translate(0, 109.0856719787637)" class="rv-xy-plot__axis__tick" style="font-family: &quot;Source Sans Pro&quot;; fill: rgb(107, 107, 118); font-size: 14px;"><line y1="0" y2="0" x1="6" x2="-6" class="rv-xy-plot__axis__tick__line" style="font-family: &quot;Source Sans Pro&quot;; fill: rgb(107, 107, 118); font-size: 14px; stroke: none;"/><text text-anchor="end" dy="0.32em" transform="translate(-14, 0)" class="rv-xy-plot__axis__tick__text" style="font-family: sans-serif; fill: rgb(107, 107, 118); font-size: 14px;">2000</text></g><g transform="translate(0, 52.128507968145584)" class="rv-xy-plot__axis__tick" style="font-family: &quot;Source Sans Pro&quot;; fill: rgb(107, 107, 118); font-size: 14px;"><line y1="0" y2="0" x1="6" x2="-6" class="rv-xy-plot__axis__tick__line" style="font-family: &quot;Source Sans Pro&quot;; fill: rgb(107, 107, 118); font-size: 14px; stroke: none;"/><text text-anchor="end" dy="0.32em" transform="translate(-14, 0)" class="rv-xy-plot__axis__tick__text" style="font-family: sans-serif; fill: rgb(107, 107, 118); font-size: 14px;">3000</text></g></g><g transform="translate(51.6, 0)" class="rv-xy-plot__axis__title"><g transform="translate(16, 6) rotate(-90)" style="text-anchor: end; font-family: &quot;Source Sans Pro&quot;; fill: rgb(107, 107, 118); font-size: 14px;"><text style="font-family: sans-serif; fill: rgb(107, 107, 118); font-size: 14px;">Episodic Return</text></g></g></g></svg></g><style xmlns="http://www.w3.org/1999/xhtml">/*&lt;![CDATA[*/<br />text { font-size: 10px; fill: black }<br />.react-vis-magic-css-import-rule{display:inherit}.rv-treemap{font-size:12px;position:relative}.rv-treemap__leaf{overflow:hidden;position:absolute}.rv-treemap__leaf--circle{align-items:center;border-radius:100%;display:flex;justify-content:center}.rv-treemap__leaf__content{overflow:hidden;padding:10px;text-overflow:ellipsis}.rv-xy-plot{color:#c3c3c3;position:relative}.rv-xy-plot canvas{pointer-events:none}.rv-xy-plot .rv-xy-canvas{pointer-events:none;position:absolute}.rv-xy-plot__inner{display:block}.rv-xy-plot__axis__line{fill:none;stroke-width:2px;stroke:#e6e6e9}.rv-xy-plot__axis__tick__line{stroke:#e6e6e9}.rv-xy-plot__axis__tick__text{fill:#6b6b76;font-size:11px}.rv-xy-plot__axis__title text{fill:#6b6b76;font-size:11px}.rv-xy-plot__grid-lines__line{stroke:#e6e6e9}.rv-xy-plot__circular-grid-lines__line{fill-opacity:0;stroke:#e6e6e9}.rv-xy-plot__series,.rv-xy-plot__series path{pointer-events:all}.rv-xy-plot__series--line{fill:none;stroke:#000;stroke-width:2px}.rv-crosshair{position:absolute;font-size:11px;pointer-events:none}.rv-crosshair__line{background:#47d3d9;width:1px}.rv-crosshair__inner{position:absolute;text-align:left;top:0}.rv-crosshair__inner__content{border-radius:4px;background:#3a3a48;color:#fff;font-size:12px;padding:7px 10px;box-shadow:0 2px 4px rgba(0,0,0,0.5)}.rv-crosshair__inner--left{right:4px}.rv-crosshair__inner--right{left:4px}.rv-crosshair__title{font-weight:bold;white-space:nowrap}.rv-crosshair__item{white-space:nowrap}.rv-hint{position:absolute;pointer-events:none}.rv-hint__content{border-radius:4px;padding:7px 10px;font-size:12px;background:#3a3a48;box-shadow:0 2px 4px rgba(0,0,0,0.5);color:#fff;text-align:left;white-space:nowrap}.rv-discrete-color-legend{box-sizing:border-box;overflow-y:auto;font-size:12px}.rv-discrete-color-legend.horizontal{white-space:nowrap}.rv-discrete-color-legend-item{color:#3a3a48;border-radius:1px;padding:9px 10px}.rv-discrete-color-legend-item.horizontal{display:inline-block}.rv-discrete-color-legend-item.horizontal .rv-discrete-color-legend-item__title{margin-left:0;display:block}.rv-discrete-color-legend-item__color{display:inline-block;vertical-align:middle;overflow:visible}.rv-discrete-color-legend-item__color__path{stroke:#dcdcdc;stroke-width:2px}.rv-discrete-color-legend-item__title{margin-left:10px}.rv-discrete-color-legend-item.disabled{color:#b8b8b8}.rv-discrete-color-legend-item.clickable{cursor:pointer}.rv-discrete-color-legend-item.clickable:hover{background:#f9f9f9}.rv-search-wrapper{display:flex;flex-direction:column}.rv-search-wrapper__form{flex:0}.rv-search-wrapper__form__input{width:100%;color:#a6a6a5;border:1px solid #e5e5e4;padding:7px 10px;font-size:12px;box-sizing:border-box;border-radius:2px;margin:0 0 9px;outline:0}.rv-search-wrapper__contents{flex:1;overflow:auto}.rv-continuous-color-legend{font-size:12px}.rv-continuous-color-legend .rv-gradient{height:4px;border-radius:2px;margin-bottom:5px}.rv-continuous-size-legend{font-size:12px}.rv-continuous-size-legend .rv-bubbles{text-align:justify;overflow:hidden;margin-bottom:5px;width:100%}.rv-continuous-size-legend .rv-bubble{background:#d8d9dc;display:inline-block;vertical-align:bottom}.rv-continuous-size-legend .rv-spacer{display:inline-block;font-size:0;line-height:0;width:100%}.rv-legend-titles{height:16px;position:relative}.rv-legend-titles__left,.rv-legend-titles__right,.rv-legend-titles__center{position:absolute;white-space:nowrap;overflow:hidden}.rv-legend-titles__center{display:block;text-align:center;width:100%}.rv-legend-titles__right{right:0}.rv-radial-chart .rv-xy-plot__series--label{pointer-events:none}<br /><br />/*]]&gt;*/</style></svg>