<svg xmlns="http://www.w3.org/2000/svg" viewBox="0 0 499.9999694824219 300"><g><text x="50%" y="0" style="fill: rgb(54, 58, 61); dominant-baseline: text-before-edge; text-anchor: middle; font-weight: bold; font-size: 13px; font-family: sans-serif;">BeamRiderNoFrameskip-v4</text><svg viewBox="0 0 1024 1024" x="69.09661865234375" y="25.90625" height="11" width="11"><path d="M128 533.333h768c23.564 0 42.667-19.103 42.667-42.667v-85.333c0-23.564-19.103-42.667-42.667-42.667h-768c-23.564 0-42.667 19.103-42.667 42.667v85.333c0 23.564 19.103 42.667 42.667 42.667z" style="fill: rgb(56, 116, 216);"/></svg><text x="88.09661865234375" y="23.90625" style="fill: rgb(56, 116, 216); dominant-baseline: text-before-edge; font-size: 11px; font-family: sans-serif;">our PPO-LSTM</text><svg viewBox="0 0 1024 1024" x="205.16192626953125" y="25.90625" height="11" width="11"><path d="M128 533.333h768c23.564 0 42.667-19.103 42.667-42.667v-85.333c0-23.564-19.103-42.667-42.667-42.667h-768c-23.564 0-42.667 19.103-42.667 42.667v85.333c0 23.564 19.103 42.667 42.667 42.667z" style="fill: rgb(215, 62, 62);"/></svg><text x="224.16192626953125" y="23.90625" style="fill: rgb(215, 62, 62); dominant-baseline: text-before-edge; font-size: 11px; font-family: sans-serif;">openai/baselines' PPO-LSTM</text></g><g transform="translate(0, 41.50567626953125)"><svg class="rv-xy-plot__inner" width="500" height="258"><g transform="translate(51.6,5)" class="rv-xy-plot__grid-lines"><line y1="223" y2="223" x1="0" x2="428.4" class="rv-xy-plot__grid-lines__line" style="stroke-width: 0.5;"/><line y1="166.74977674104906" y2="166.74977674104906" x1="0" x2="428.4" class="rv-xy-plot__grid-lines__line" style="stroke-width: 0.5;"/><line y1="110.49955348209811" y2="110.49955348209811" x1="0" x2="428.4" class="rv-xy-plot__grid-lines__line" style="stroke-width: 0.5;"/><line y1="54.249330223147155" y2="54.249330223147155" x1="0" x2="428.4" class="rv-xy-plot__grid-lines__line" style="stroke-width: 0.5;"/></g><path d="M0,171.0247937087293L1.7204819277108432,166.49849619728357L3.4409638554216864,164.9891662941178L5.16144578313253,165.06431002961696L6.881927710843373,164.71059602606755L8.602409638554215,163.55026192054416L10.322891566265058,162.54086945904555L12.043373493975906,160.09960987800193L13.763855421686745,158.53943281850195L15.484337349397592,157.3014535099907L17.20481927710843,155.96540247594515L18.92530120481928,153.6947735056885L20.64578313253012,151.47491038775559L22.366265060240963,151.20749874406468L24.086746987951805,149.88511076833123L25.80722891566265,144.7279193951226L27.52771084337349,142.42199818516013L29.248192771084337,140.26114166596605L30.968674698795176,140.10395246350743L32.689156626506026,138.19245730395076L34.40963855421686,137.57394397897548L36.13012048192771,137.39836002535228L37.850602409638554,137.13089808684214L39.5710843373494,136.7477509266758L41.29156626506024,137.02938156715757L43.01204819277109,136.32841171985592L44.732530120481925,136.82246316357103L46.45301204819277,135.76889086370846L48.17349397590361,133.2057976123829L49.893975903614454,133.8907244970904L51.6144578313253,133.22314495374778L53.334939759036146,130.34534119679662L55.05542168674698,129.6892059746553L56.77590361445782,125.45295266677223L58.496385542168674,124.62399101129903L60.21686746987952,124.41335142261383L61.93734939759035,121.97428192973892L63.657831325301196,119.22881457725175L65.37831325301205,118.29983900469537L67.09879518072289,118.28055833633694L68.81927710843372,119.17076654570232L70.53975903614457,119.8456492854476L72.26024096385542,120.68911820329195L73.98072289156626,119.21669092117632L75.70120481927711,116.87858761398236L77.42168674698794,117.33741732300865L79.1421686746988,117.9512739338496L80.86265060240964,117.88441987609978L82.58313253012048,117.15997720855901L84.30361445783133,116.2855929087326L86.02409638554218,115.99833268094592L87.744578313253,114.23606131625155L89.46506024096385,111.51211519944671L91.18554216867469,108.35164556947764L92.90602409638552,109.36651710300318L94.62650602409637,110.29327482045362L96.34698795180722,109.6445354513977L98.06746987951806,108.37377922103654L99.78795180722891,107.08310765939834L101.50843373493974,106.48732839103671L103.22891566265058,101.61223265041657L104.94939759036143,100.70699335388373L106.66987951807226,100.24536756008246L108.39036144578311,100.08962512903429L110.11084337349396,98.06871390943057L111.8313253012048,95.56952805951491L113.55180722891564,94.55557915316899L115.27228915662648,95.38960906121217L116.99277108433732,97.37162585532272L118.71325301204817,91.31046680341696L120.433734939759,85.85658645889133L122.15421686746984,78.06137886419708L123.8746987951807,78.1257442406043L125.59518072289156,80.97312632741266L127.31566265060239,81.10132103396772L129.03614457831324,76.79544500942322L130.75662650602408,76.45086905183439L132.4771084337349,75.60304010212562L134.19759036144575,70.55880771091904L135.91807228915658,69.49011811209861L137.63855421686745,71.91944899091274L139.3590361445783,71.21927709152558L141.07951807228915,69.63285339448325L142.79999999999998,70.50367369891082L144.52048192771082,67.60131018332554L146.24096385542165,66.8135660559238L147.96144578313252,70.35423213548661L149.68192771084335,74.13285931254885L151.40240963855422,76.69282390686595L153.12289156626505,78.24991211483456L154.8433734939759,79.78316586727719L156.56385542168672,81.6161118840266L158.2843373493976,74.54573347688613L160.00481927710842,76.8794964496456L161.72530120481926,80.86326687609494L163.4457831325301,82.77022909204995L165.16626506024096,80.03341395216732L166.8867469879518,79.46812211484283L168.60722891566266,79.04125495305166L170.3277108433735,77.4219266972707L172.04819277108433,77.52843675187077L173.76867469879517,77.48318636511111L175.489156626506,76.94095421543378L177.20963855421684,79.49770634208022L178.9301204819277,77.7361028752822L180.65060240963854,74.94357608651514L182.3710843373494,75.15667179853881L184.0915662650602,70.83156115429239L185.81204819277107,73.00591234629279L187.53253012048194,73.82240756716332L189.25301204819277,73.5994267040527L190.97349397590364,74.57711968823456L192.69397590361444,74.3742403796225L194.4144578313253,71.6230210623453L196.13493975903611,71.575919789749L197.85542168674698,73.53115626401647L199.57590361445784,74.3391870338558L201.29638554216868,77.12680053508511L203.01686746987954,75.83480019117418L204.73734939759035,75.26232115164345L206.4578313253012,76.79493571008544L208.17831325301202,78.01864714404527L209.89879518072289,78.33658633506981L211.61927710843372,79.06718300292717L213.33975903614459,80.54856320209134L215.06024096385542,78.1432327538619L216.78072289156623,78.63502102388543L218.5012048192771,80.58230211533983L220.22168674698793,83.33276824592683L221.9421686746988,83.09346528111513L223.6626506024096,81.7545578874389L225.38313253012046,78.8729817143607L227.10361445783133,78.91893241689394L228.82409638554213,78.79901247841912L230.54457831325303,75.5164970276567L232.26506024096383,77.9638105152402L233.9855421686747,77.67906563226923L235.7060240963855,79.01526394589521L237.42650602409637,79.65138631560332L239.1469879518072,76.11832473730388L240.86746987951807,67.9455808346951L242.58795180722893,66.52428805414472L244.30843373493974,66.08741023139201L246.0289156626506,66.61634663291001L247.7493975903614,65.97948749251402L249.46987951807228,68.55545330316919L251.1903614457831,67.84169288767758L252.91084337349398,67.41852164164072L254.63132530120484,62.467854940050685L256.3518072289157,59.959325641055166L258.07228915662654,63.33067308658886L259.79277108433735,64.08206143157948L261.5132530120482,63.011553963580866L263.233734939759,61.014895294259944L264.9542168674699,60.51750265035805L266.6746987951807,56.333488705928154L268.39518072289155,51.021505307911504L270.1156626506024,52.862765430753065L271.8361445783132,54.80336204252555L273.5566265060241,54.77936592874847L275.2771084337349,56.174564604159855L276.9975903614458,59.30831575550906L278.7180722891566,59.38303835807943L280.4385542168675,56.0288213395443L282.15903614457835,52.99853333741679L283.87951807228916,54.61508685553017L285.6,55.11188494078406L287.32048192771083,53.57097089736921L289.0409638554217,56.61059851088864L290.7614457831325,49.883850144153804L292.48192771084337,48.63841416461846L294.2024096385542,49.66907753816055L295.92289156626504,45.85095113012341L297.6433734939759,50.01656307465396L299.36385542168676,53.540722707679336L301.08433734939763,51.73731392980779L302.80481927710844,49.82795688349079L304.5253012048193,51.13827099559122L306.2457831325301,49.05170733356378L307.96626506024097,47.41729061279379L309.68674698795184,46.85421812453531L311.40722891566264,47.50317893611929L313.1277108433735,46.831189009030034L314.8481927710843,40.98267433508108L316.5686746987952,40.03395637443801L318.28915662650604,40.08452345540513L320.0096385542169,38.052287877629034L321.7301204819277,40.103005595002045L323.4506024096386,40.46160818354816L325.17108433734944,42.316618798057L326.89156626506025,46.4533553727328L328.6120481927711,49.527705822171086L330.3325301204819,43.67405593476528L332.0530120481928,44.800535578286166L333.7734939759036,46.8089135053896L335.49397590361446,47.20204636888132L337.2144578313253,46.65626990484722L338.9349397590362,45.14186019408457L340.65542168674705,41.61535650917921L342.37590361445785,43.7439528727347L344.0963855421687,43.85072648254325L345.8168674698795,37.71293125298268L347.53734939759033,36.51197463630563L349.2578313253012,30.306518523735043L350.978313253012,29.791013382995985L352.69879518072287,30.40106884218873L354.4192771084337,33.80683615143935L356.13975903614454,26.673068168426887L357.8602409638554,21.817837379755364L359.58072289156627,17.612524176935363L361.3012048192771,20.04095813074088L363.02168674698794,21.80581140618483L364.74216867469875,22.490035511267713L366.4626506024096,19.085551504785137L368.1831325301204,16.298190797533906L369.9036144578313,14.856560045197604L371.6240963855421,15.08493234681791L373.34457831325295,22.599537994353927L375.0650602409638,18.29913027315792L376.7855421686747,22.254726117502887L378.50602409638554,19.732367916758445L380.22650602409635,24.03433349474225L381.94698795180716,25.40071267869808L383.667469879518,27.289808495976242L385.3879518072289,22.323184706283314L387.1084337349397,23.780355151981627L388.8289156626505,21.890537380015754L390.54939759036137,18.89408098289469L392.26987951807223,17.84333801166813L393.99036144578304,13.103794206700487L395.7108433734939,11.188142869946024L397.43132530120477,14.94758480278609L399.15180722891563,11.741935531686623L400.87228915662644,7.755146798670994L402.59277108433724,5.2777899239733035L404.31325301204816,5.9079776766194225L406.033734939759,3.7297967991428207L407.7542168674698,8.933097931301216L409.4746987951807,7.211629927034426L411.1951807228915,6.203250844522797L412.9156626506023,13.037178133266893L414.6361445783132,10.58584452182456L416.35662650602404,10.39156598335982L418.0771084337349,8.665317725263153L419.7975903614457,10.001016146954942L421.51807228915663,13.717914536490245L423.23855421686744,15.633719612082592L424.95903614457825,16.029558011743923L426.67951807228906,17.3954406766224L428.4,10.781102448856133L428.4,78.25451812910744L426.67951807228906,73.7173175170489L424.95903614457825,73.70614635402674L423.23855421686744,75.8296733094053L421.51807228915663,75.54596152831047L419.7975903614457,75.93678508358126L418.0771084337349,77.73752073146828L416.35662650602404,78.0022840622058L414.6361445783132,80.95888858282731L412.9156626506023,83.85072274842827L411.1951807228915,81.58720561186554L409.4746987951807,83.03539580724654L407.7542168674698,86.84797217027125L406.033734939759,88.26129440054474L404.31325301204816,90.29929191996393L402.59277108433724,90.11672056761381L400.87228915662644,88.90920308728072L399.15180722891563,87.66625420958512L397.43132530120477,85.83204993463963L395.7108433734939,87.18633802571819L393.99036144578304,87.14845861271421L392.26987951807223,86.47551796635572L390.54939759036137,88.66951755946866L388.8289156626505,89.17754018678099L387.1084337349397,88.87795300984786L385.3879518072289,88.05891696035182L383.667469879518,87.02300520150104L381.94698795180716,84.33933267722081L380.22650602409635,87.81459718125L378.50602409638554,89.06274818118608L376.7855421686747,89.83938859939538L375.0650602409638,91.56029054324594L373.34457831325295,87.56612808277727L371.6240963855421,86.39431522680437L369.9036144578313,86.93100450040028L368.1831325301204,86.11541704526518L366.4626506024096,85.7545849893014L364.74216867469875,85.63307076001216L363.02168674698794,87.60188474731066L361.3012048192771,87.41958498417482L359.58072289156627,89.51842920464827L357.8602409638554,90.92084486055896L356.13975903614454,93.72693031005444L354.4192771084337,94.61386843157592L352.69879518072287,94.05519310806265L350.978313253012,93.91822192162883L349.2578313253012,96.9922728249692L347.53734939759033,95.95879374858205L345.8168674698795,96.16004976953553L344.0963855421687,95.74388793382978L342.37590361445785,95.56596639010556L340.65542168674705,96.21444188203054L338.9349397590362,95.34392184629141L337.2144578313253,93.26537240495404L335.49397590361446,93.34526645844483L333.7734939759036,94.62045804232407L332.0530120481928,92.97967340513001L330.3325301204819,92.23174977699503L328.6120481927711,96.35819298635568L326.89156626506025,95.45974993276823L325.17108433734944,95.11136229658749L323.4506024096386,94.92781274417695L321.7301204819277,98.96934845650185L320.0096385542169,98.04822442662935L318.28915662650604,98.34539061655728L316.5686746987952,99.84710712949705L314.8481927710843,101.08299710773287L313.1277108433735,99.89729099295086L311.40722891566264,102.91634622482711L309.68674698795184,101.09257677323085L307.96626506024097,101.49607613476958L306.2457831325301,101.85247673530789L304.5253012048193,103.51349083458288L302.80481927710844,103.54167850369464L301.08433734939763,103.7312360122041L299.36385542168676,103.96403829022464L297.6433734939759,103.79864690377156L295.92289156626504,102.77104567520814L294.2024096385542,101.66441518191304L292.48192771084337,101.7419705717041L290.7614457831325,101.95503032457394L289.0409638554217,100.59428555594667L287.32048192771083,99.22655273841026L285.6,98.26771366357013L283.87951807228916,100.66261486720569L282.15903614457835,101.86957269650993L280.4385542168675,102.53406917923347L278.7180722891566,105.08297571118048L276.9975903614458,104.37711775395971L275.2771084337349,104.83153357628946L273.5566265060241,106.25291333324674L271.8361445783132,107.4528960054126L270.1156626506024,108.3555766714816L268.39518072289155,110.90150877362356L266.6746987951807,109.99520918921843L264.9542168674699,111.22881091092279L263.233734939759,111.8212463167979L261.5132530120482,112.05300321590951L259.79277108433735,111.6048049062077L258.07228915662654,113.87943467237973L256.3518072289157,111.80443237255491L254.63132530120484,113.65393681428982L252.91084337349398,116.45526980018006L251.1903614457831,121.4069486414205L249.46987951807228,122.2513690077201L247.7493975903614,120.89544899258426L246.0289156626506,121.0316701446046L244.30843373493974,118.37496452013762L242.58795180722893,116.72733680190147L240.86746987951807,117.17580978922555L239.1469879518072,116.90993286046931L237.42650602409637,118.06146698719006L235.7060240963855,117.50461713220702L233.9855421686747,118.83889452854031L232.26506024096383,119.50540041708913L230.54457831325303,120.39790699318092L228.82409638554213,121.94682151432258L227.10361445783133,121.88133436942793L225.38313253012046,122.11218394052416L223.6626506024096,122.3482074898428L221.9421686746988,121.85405170946731L220.22168674698793,119.8229628707122L218.5012048192771,119.95058017546783L216.78072289156623,119.83919561025041L215.06024096385542,120.109333013662L213.33975903614459,120.34729577443748L211.61927710843372,120.84255788346599L209.89879518072289,120.42521103484876L208.17831325301202,118.87878708959389L206.4578313253012,118.72014287926298L204.73734939759035,120.23487477017235L203.01686746987954,119.23972530750595L201.29638554216868,119.18132235476573L199.57590361445784,120.04002908232185L197.85542168674698,119.61133302261005L196.13493975903611,121.64152039712226L194.4144578313253,121.49528604728857L192.69397590361444,121.52613145334861L190.97349397590364,121.06155823562563L189.25301204819277,121.36532660622316L187.53253012048194,120.62109688151519L185.81204819277107,122.02432770021764L184.0915662650602,118.20365304722806L182.3710843373494,120.08702156542905L180.65060240963854,120.51211213905434L178.9301204819277,122.0729840186659L177.20963855421684,121.04788018918585L175.489156626506,122.10132795950202L173.76867469879517,122.58868206731603L172.04819277108433,123.73581149556081L170.3277108433735,123.95083808425045L168.60722891566266,125.22890277223465L166.8867469879518,120.70960339843634L165.16626506024096,122.6291396084452L163.4457831325301,125.8756320653029L161.72530120481926,125.17937498763663L160.00481927710842,125.26489675226898L158.2843373493976,127.32171206319332L156.56385542168672,125.53689542068437L154.8433734939759,126.84749540733L153.12289156626505,126.54015401444717L151.40240963855422,125.92883083590803L149.68192771084335,127.06910338986728L147.96144578313252,128.32314745674626L146.24096385542165,126.60509773218938L144.52048192771082,125.76574583083087L142.79999999999998,125.08921438330337L141.07951807228915,126.19834253089877L139.3590361445783,125.87771773088902L137.63855421686745,126.81159600016383L135.91807228915658,128.89533885544236L134.19759036144575,130.43937213471702L132.4771084337349,131.58105536301463L130.75662650602408,131.76898160374876L129.03614457831324,134.68668104006449L127.31566265060239,135.15800548632802L125.59518072289156,135.47053605814207L123.8746987951807,135.35788676304668L122.15421686746984,136.13964413156828L120.433734939759,136.25605643166102L118.71325301204817,136.3235511353016L116.99277108433732,139.16123110891752L115.27228915662648,139.62066179989299L113.55180722891564,138.93347730033977L111.8313253012048,140.11075095362352L110.11084337349396,142.0559989952922L108.39036144578311,141.6020925938477L106.66987951807226,140.73746526269485L104.94939759036143,138.93215727399436L103.22891566265058,139.1407565961982L101.50843373493974,138.33188813833732L99.78795180722891,137.32441044175744L98.06746987951806,136.48533918076845L96.34698795180722,137.09361157743746L94.62650602409637,137.9370221401533L92.90602409638552,139.08598959020762L91.18554216867469,138.70514650801292L89.46506024096385,137.0384308476115L87.744578313253,137.79266422816642L86.02409638554218,138.01239078022826L84.30361445783133,139.634146586103L82.58313253012048,141.3842234658769L80.86265060240964,141.77940607307576L79.1421686746988,142.70829858184098L77.42168674698794,143.2889823564393L75.70120481927711,144.897179198941L73.98072289156626,146.43357514560697L72.26024096385542,147.46870800255724L70.53975903614457,149.09716348956158L68.81927710843372,151.251359075772L67.09879518072289,151.1943845186068L65.37831325301205,151.80840972677007L63.657831325301196,153.3148748999204L61.93734939759035,153.321848648947L60.21686746987952,153.29739055349165L58.496385542168674,152.72118015812597L56.77590361445782,154.12231486202595L55.05542168674698,153.429339813456L53.334939759036146,153.22354391897687L51.6144578313253,154.16666283821633L49.893975903614454,155.59304551844468L48.17349397590361,153.61371427731825L46.45301204819277,154.31600499543595L44.732530120481925,154.9394385881111L43.01204819277109,155.68885866967315L41.29156626506024,155.71038935998166L39.5710843373494,156.13286297664578L37.850602409638554,157.91414813802652L36.13012048192771,156.46977684615118L34.40963855421686,156.79981335722945L32.689156626506026,156.71214220497927L30.968674698795176,156.56081788396546L29.248192771084337,157.8780888128647L27.52771084337349,159.96306263884506L25.80722891566265,162.63961644027341L24.086746987951805,163.20141737574428L22.366265060240963,165.20954970105356L20.64578313253012,166.15377227814218L18.92530120481928,167.49044712140625L17.20481927710843,167.47955944741523L15.484337349397592,168.73017777631242L13.763855421686745,170.4652653113894L12.043373493975906,172.45788499234808L10.322891566265058,172.6827838661896L8.602409638554215,172.20506879675705L6.881927710843373,174.50020581677822L5.16144578313253,175.40983095868575L3.4409638554216864,175.5151844592246L1.7204819277108432,175.2488160805342L0,185.3798506844136Z" class="rv-xy-plot__series rv-xy-plot__series--line" transform="translate(51.6,5)" style="opacity: 1; stroke: rgba(218, 76, 76, 0); fill: rgba(218, 76, 76, 0.1);"/><path d="M0,178.6514906460022L1.7204819277108432,171.15270577365823L3.4409638554216864,171.2223494304663L5.16144578313253,170.763504418257L6.881927710843373,170.1065823996138L8.602409638554215,168.13896646488L10.322891566265058,167.44938811715986L12.043373493975906,166.6899944643424L13.763855421686745,164.91085230416297L15.484337349397592,163.3817608240516L17.20481927710843,162.16669332899176L18.92530120481928,160.7492953486549L20.64578313253012,159.136344094287L22.366265060240963,158.4480666824095L24.086746987951805,156.87956025310473L25.80722891566265,153.36035162431858L27.52771084337349,151.0015472827961L29.248192771084337,149.185298690625L30.968674698795176,148.47973175760242L32.689156626506026,148.0686977329032L34.40963855421686,147.83953908601163L36.13012048192771,147.4813158820359L37.850602409638554,148.0427744872437L39.5710843373494,146.8538493157832L41.29156626506024,146.843627842259L43.01204819277109,146.7772657452546L44.732530120481925,146.56486420310856L46.45301204819277,145.82177821813957L48.17349397590361,144.5958291430947L49.893975903614454,145.617679483638L51.6144578313253,144.44864615633773L53.334939759036146,142.98214989259267L55.05542168674698,142.31651523887894L56.77590361445782,141.2781870810197L58.496385542168674,140.19818071169263L60.21686746987952,139.97339411024043L61.93734939759035,138.48567409893047L63.657831325301196,137.59482457873486L65.37831325301205,136.01471597856968L67.09879518072289,135.41267430128224L68.81927710843372,135.64387916507775L70.53975903614457,134.86101584755912L72.26024096385542,134.42241365152378L73.98072289156626,133.63408750980608L75.70120481927711,131.8264831198195L77.42168674698794,131.1811255492368L79.1421686746988,131.11494572466006L80.86265060240964,130.53338819711274L82.58313253012048,129.74886967112982L84.30361445783133,128.51088889819326L86.02409638554218,127.50399856415497L87.744578313253,126.7702433952869L89.46506024096385,125.45750054862305L91.18554216867469,125.61758851309729L92.90602409638552,125.8805606287796L94.62650602409637,125.55995204719281L96.34698795180722,124.70156612235516L98.06746987951806,123.99729952691486L99.78795180722891,124.0640007530557L101.50843373493974,124.12436676436194L103.22891566265058,122.72542607371373L104.94939759036143,122.54024726149156L106.66987951807226,122.72764953384973L108.39036144578311,122.30587637229608L110.11084337349396,121.47522481643469L111.8313253012048,118.9767832304798L113.55180722891564,117.86486998336319L115.27228915662648,118.25353739521255L116.99277108433732,118.88082144910891L118.71325301204817,115.27977623669311L120.433734939759,113.04047569737551L122.15421686746984,110.37398781017147L123.8746987951807,110.20193014475615L125.59518072289156,111.18021584164696L127.31566265060239,110.96559930382894L129.03614457831324,108.75807096913329L130.75662650602408,106.92017871230108L132.4771084337349,106.69313844908383L134.19759036144575,104.26984114945532L135.91807228915658,103.00892551153531L137.63855421686745,102.99209152411241L139.3590361445783,102.46959184395946L141.07951807228915,101.98270770096205L142.79999999999998,101.7995789052471L144.52048192771082,101.62795272162795L146.24096385542165,101.78318355137137L147.96144578313252,103.97568787630193L149.68192771084335,104.74477936372449L151.40240963855422,105.18278554314696L153.12289156626505,105.77955616977731L154.8433734939759,106.25593516075969L156.56385542168672,106.22260284027246L158.2843373493976,104.32148628075979L160.00481927710842,104.21186120225003L161.72530120481926,105.81721699454711L163.4457831325301,106.72717005760387L165.16626506024096,103.24341019348012L166.8867469879518,101.62339763578021L168.60722891566266,102.77566325512885L170.3277108433735,101.27767115726206L172.04819277108433,101.33877612250981L173.76867469879517,100.86786732562044L175.489156626506,100.21727514768088L177.20963855421684,100.84243981356482L178.9301204819277,100.7889877920918L180.65060240963854,97.82379956509259L182.3710843373494,97.90357017820274L184.0915662650602,95.54293660132402L185.81204819277107,98.06101520881204L187.53253012048194,97.8312866082182L189.25301204819277,97.43212828466618L190.97349397590364,97.72424398131561L192.69397590361444,98.12054128678669L194.4144578313253,96.64178225284626L196.13493975903611,97.00678373589007L197.85542168674698,96.82897792135171L199.57590361445784,97.5792804412848L201.29638554216868,98.53368890706277L203.01686746987954,98.65955873910043L204.73734939759035,98.80219217543983L206.4578313253012,98.61655599808483L208.17831325301202,99.51359758531822L209.89879518072289,100.67282247634427L211.61927710843372,101.4323072990409L213.33975903614459,101.8377591268978L215.06024096385542,100.24110915240745L216.78072289156623,100.27496473875061L218.5012048192771,100.86590087728673L220.22168674698793,102.11507653135206L221.9421686746988,102.02150650321869L223.6626506024096,101.18236066691834L225.38313253012046,100.14883455916713L227.10361445783133,99.73338370654692L228.82409638554213,99.85534617507687L230.54457831325303,97.85962250600797L232.26506024096383,98.66867820240117L233.9855421686747,98.48738944769843L235.7060240963855,98.33863183606235L237.42650602409637,98.9280220080697L239.1469879518072,96.75270365819661L240.86746987951807,93.55722579899428L242.58795180722893,93.32168932899918L244.30843373493974,93.59542071814958L246.0289156626506,95.05912111881092L247.7493975903614,94.32565940629729L249.46987951807228,95.66218489232129L251.1903614457831,95.07296078489901L252.91084337349398,92.38708130423849L254.63132530120484,88.6532292536397L256.3518072289157,86.51921582173777L258.07228915662654,88.7201670392392L259.79277108433735,87.90381526042088L261.5132530120482,87.25397875235298L263.233734939759,85.42177867118818L264.9542168674699,85.68180155522356L266.6746987951807,83.8759410761299L268.39518072289155,81.8282207514971L270.1156626506024,81.30090126350098L271.8361445783132,81.74338435663412L273.5566265060241,81.49363235863015L275.2771084337349,81.32178788766471L276.9975903614458,82.69004850151384L278.7180722891566,82.41404457678925L280.4385542168675,79.77954058708791L282.15903614457835,78.86750094782L283.87951807228916,79.03835532766541L285.6,78.15098747051194L287.32048192771083,77.73048457895264L289.0409638554217,79.95767706372321L290.7614457831325,77.25798779937911L292.48192771084337,76.37396017590255L294.2024096385542,77.01960529010843L295.92289156626504,75.77646970807243L297.6433734939759,78.41648478115954L299.36385542168676,79.9720772155888L301.08433734939763,79.71016801150843L302.80481927710844,79.51550697981999L304.5253012048193,80.308058402993L306.2457831325301,78.58898240607532L307.96626506024097,77.42194807257098L309.68674698795184,77.13980828644664L311.40722891566264,77.75471843448955L313.1277108433735,75.9385431952673L314.8481927710843,74.66568460497346L316.5686746987952,73.0800219664803L318.28915662650604,72.63929909683618L320.0096385542169,72.3339272268111L321.7301204819277,73.35321556434008L323.4506024096386,71.22699151076372L325.17108433734944,71.85390577495562L326.89156626506025,73.64306012937769L328.6120481927711,75.73666464751857L330.3325301204819,71.47851630678167L332.0530120481928,72.2928608967492L333.7734939759036,73.78951849750068L335.49397590361446,73.3135889390097L337.2144578313253,72.61086986077812L338.9349397590362,72.65843454788978L340.65542168674705,71.93602776313949L342.37590361445785,72.65992420862582L344.0963855421687,73.02308085894528L345.8168674698795,70.61442845189029L347.53734939759033,70.33529050858442L349.2578313253012,68.73573036341118L350.978313253012,67.06740706520918L352.69879518072287,66.95471161189434L354.4192771084337,68.63763648372792L356.13975903614454,64.66544445341653L357.8602409638554,61.522327093177715L359.58072289156627,59.66634346693389L361.3012048192771,59.39997529287013L363.02168674698794,60.33358591279528L364.74216867469875,59.1219489786876L366.4626506024096,55.5746605462686L368.1831325301204,53.923234088881195L369.9036144578313,52.918499461468095L371.6240963855421,53.07018872495111L373.34457831325295,57.216274427560954L375.0650602409638,57.003316544542294L376.7855421686747,57.963078367461584L378.50602409638554,56.71488068384478L380.22650602409635,57.90363213306441L381.94698795180716,56.638618970826265L383.667469879518,57.853466586966164L385.3879518072289,56.97286134579917L387.1084337349397,58.502810960729484L388.8289156626505,58.223348958882106L390.54939759036137,57.46444208675881L392.26987951807223,54.910504496212894L393.99036144578304,53.833213730443966L395.7108433734939,52.23313511305679L397.43132530120477,53.00287526292227L399.15180722891563,52.75238467447847L400.87228915662644,51.20835261879107L402.59277108433724,50.11471041878661L404.31325301204816,49.192252880852045L406.033734939759,47.889345840390355L407.7542168674698,49.58790118899702L409.4746987951807,46.60300588299399L411.1951807228915,45.45943113243073L412.9156626506023,49.73287290154534L414.6361445783132,47.788511458546516L416.35662650602404,45.58195730270281L418.0771084337349,45.69908600217885L419.7975903614457,45.279104816104905L421.51807228915663,46.78866264499663L423.23855421686744,47.953909965300404L424.95903614457825,47.18408313529653L426.67951807228906,47.56950822008654L428.4,47.00791313745187" class="rv-xy-plot__series rv-xy-plot__series--line" transform="translate(51.6,5)" style="opacity: 1; stroke-width: 1.5; stroke: rgb(218, 76, 76);"/><path d="M0,173.99480549680192L1.7204819277108432,171.13733419827184L3.4409638554216864,170.4149823228133L5.16144578313253,168.44985525039817L6.881927710843373,166.83015216638483L8.602409638554215,162.58106652289626L10.322891566265058,162.1506891147104L12.043373493975906,160.034147209487L13.763855421686745,158.2292541845987L15.484337349397592,159.28314012499516L17.20481927710843,158.83045621144882L18.92530120481928,158.56162944188063L20.64578313253012,158.15861978376932L22.366265060240963,158.31950796450025L24.086746987951805,159.56762108578113L25.80722891566265,159.30598379640128L27.52771084337349,158.14491132660578L29.248192771084337,158.00360460022253L30.968674698795176,156.8928594638986L32.689156626506026,155.95178888296516L34.40963855421686,153.57258424390585L36.13012048192771,152.65991092846232L37.850602409638554,153.27819519428792L39.5710843373494,151.48139514571068L41.29156626506024,150.29186486289586L43.01204819277109,149.16838315177463L44.732530120481925,147.05691091958465L46.45301204819277,144.49283528052015L48.17349397590361,144.22690592084558L49.893975903614454,143.53044579149483L51.6144578313253,142.94212289238936L53.334939759036146,141.10137346468989L55.05542168674698,140.10716789091603L56.77590361445782,137.25517641134095L58.496385542168674,136.35776191994975L60.21686746987952,130.49431553964425L61.93734939759035,129.95203452667454L63.657831325301196,126.5172533585877L65.37831325301205,121.1862961320237L67.09879518072289,119.42082407146583L68.81927710843372,120.27172385588632L70.53975903614457,116.31173570090107L72.26024096385542,116.11057610970352L73.98072289156626,118.02785238454635L75.70120481927711,119.88859245223543L77.42168674698794,117.78179645139437L79.1421686746988,113.80883128964574L80.86265060240964,114.90838240656296L82.58313253012048,113.27846465860596L84.30361445783133,111.51584487255964L86.02409638554218,110.00751944541886L87.744578313253,104.34668966232235L89.46506024096385,106.64013951279892L91.18554216867469,107.73248311248834L92.90602409638552,108.43042107880186L94.62650602409637,105.46885750997L96.34698795180722,105.55328767477519L98.06746987951806,105.24590326899276L99.78795180722891,105.40255738711679L101.50843373493974,102.36012161730002L103.22891566265058,97.98055156450361L104.94939759036143,98.18587201008104L106.66987951807226,96.41866501803219L108.39036144578311,93.30835169511097L110.11084337349396,95.23285579715387L111.8313253012048,97.57098287297823L113.55180722891564,92.15398922180842L115.27228915662648,94.9529203912456L116.99277108433732,92.55679044605426L118.71325301204817,94.18950054027032L120.433734939759,94.22421068238448L122.15421686746984,94.17460532620538L123.8746987951807,90.74081260945916L125.59518072289156,87.36952171409834L127.31566265060239,90.28939061059488L129.03614457831324,88.72616948663858L130.75662650602408,87.89198179188564L132.4771084337349,88.27070083420719L134.19759036144575,90.4818631698535L135.91807228915658,87.86599955394288L137.63855421686745,87.00388124789251L139.3590361445783,89.98082811601662L141.07951807228915,86.13697281923396L142.79999999999998,84.60372349869763L144.52048192771082,83.29946276416821L146.24096385542165,78.55046862108695L147.96144578313252,81.10129499876281L149.68192771084335,83.18029061901721L151.40240963855422,86.59942005510304L153.12289156626505,86.37457471734842L154.8433734939759,85.72033688731018L156.56385542168672,86.44579940246791L158.2843373493976,88.68781030356091L160.00481927710842,87.43853005345063L161.72530120481926,86.19796400608301L163.4457831325301,86.03337516158142L165.16626506024096,84.8162558055709L166.8867469879518,84.38720285439744L168.60722891566266,86.39793006443962L170.3277108433735,88.78402815238597L172.04819277108433,90.48115235909034L173.76867469879517,90.18059301223693L175.489156626506,91.07979687055291L177.20963855421684,90.2007699861573L178.9301204819277,90.99482554135L180.65060240963854,86.62569519980991L182.3710843373494,88.0094785583668L184.0915662650602,88.90121695077987L185.81204819277107,88.20674309162473L187.53253012048194,85.14248362679501L189.25301204819277,84.68263280534266L190.97349397590364,80.32852013442992L192.69397590361444,78.60465418918537L194.4144578313253,80.89488854786376L196.13493975903611,76.0292976058793L197.85542168674698,77.33006172395855L199.57590361445784,70.5057783093912L201.29638554216868,69.46325240560697L203.01686746987954,65.42096942275381L204.73734939759035,67.85984046769698L206.4578313253012,68.0109372722601L208.17831325301202,69.2529709676966L209.89879518072289,71.73429314146848L211.61927710843372,72.89878707212726L213.33975903614459,75.89802177482117L215.06024096385542,78.93983672606397L216.78072289156623,81.50444630074628L218.5012048192771,81.17217494500869L220.22168674698793,77.25811445597716L221.9421686746988,78.4073693393694L223.6626506024096,81.99145474901756L225.38313253012046,82.75937591390978L227.10361445783133,83.06611401385688L228.82409638554213,81.24884441922963L230.54457831325303,77.84219569860797L232.26506024096383,81.5363423455235L233.9855421686747,82.6569538878902L235.7060240963855,80.27107970347201L237.42650602409637,76.40317933878346L239.1469879518072,71.7387653350812L240.86746987951807,72.63715830572815L242.58795180722893,69.21052759267404L244.30843373493974,68.65451166095279L246.0289156626506,70.73691294861996L247.7493975903614,72.22728417042184L249.46987951807228,69.50178578972132L251.1903614457831,68.78364907409623L252.91084337349398,68.22686596140942L254.63132530120484,66.62314097052449L256.3518072289157,67.22899484127896L258.07228915662654,67.97042228330625L259.79277108433735,66.0207489843548L261.5132530120482,63.81068357441316L263.233734939759,60.73960350495329L264.9542168674699,60.54552843117116L266.6746987951807,57.54908680477863L268.39518072289155,50.40779311080553L270.1156626506024,46.37110860747725L271.8361445783132,46.86875174230852L273.5566265060241,43.145116580323986L275.2771084337349,42.83378626808161L276.9975903614458,42.23730665594493L278.7180722891566,41.28909612707837L280.4385542168675,43.953882711261926L282.15903614457835,47.01779182676746L283.87951807228916,41.4607427559835L285.6,41.253867987309064L287.32048192771083,41.00216590432963L289.0409638554217,37.832697468470094L290.7614457831325,37.60873477049948L292.48192771084337,35.29541370166276L294.2024096385542,37.80846216012972L295.92289156626504,37.26443765587007L297.6433734939759,36.36089340936852L299.36385542168676,35.181382671261666L301.08433734939763,39.11403386108925L302.80481927710844,40.27806249239793L304.5253012048193,34.90282468531986L306.2457831325301,33.17383524677156L307.96626506024097,35.36019391512511L309.68674698795184,30.20295985823695L311.40722891566264,34.514792002138236L313.1277108433735,37.54259790258747L314.8481927710843,32.44093757131853L316.5686746987952,32.22378516993623L318.28915662650604,24.697579542342503L320.0096385542169,29.14157405267074L321.7301204819277,30.669205825667017L323.4506024096386,30.533183654801785L325.17108433734944,30.506361439482355L326.89156626506025,34.89276710262623L328.6120481927711,35.786044402229884L330.3325301204819,34.481142561143315L332.0530120481928,39.913819840827884L333.7734939759036,25.45860016988877L335.49397590361446,26.754202767534196L337.2144578313253,23.00926400291487L338.9349397590362,21.613820698288077L340.65542168674705,24.547842007003524L342.37590361445785,28.71373953583074L344.0963855421687,27.502076233385942L345.8168674698795,29.706816545662765L347.53734939759033,27.92844602026041L349.2578313253012,29.403069329716295L350.978313253012,29.43340691624145L352.69879518072287,23.896602833272826L354.4192771084337,23.47365994941182L356.13975903614454,18.30428637145167L357.8602409638554,14.075927975138228L359.58072289156627,17.063118346831526L361.3012048192771,20.45676124405051L363.02168674698794,19.7859577986739L364.74216867469875,12.42862907647362L366.4626506024096,8.381528659724388L368.1831325301204,13.323548370335747L369.9036144578313,18.323000883247424L371.6240963855421,22.963551914609805L373.34457831325295,25.515028574918695L375.0650602409638,25.083733438066265L376.7855421686747,23.326855732226658L378.50602409638554,29.223387255877437L380.22650602409635,24.259023835639606L381.94698795180716,25.235777177643993L383.667469879518,27.395500072529586L385.3879518072289,29.10750073121844L387.1084337349397,24.861839619255953L388.8289156626505,24.21594473822458L390.54939759036137,20.464228153460922L392.26987951807223,22.500822854143127L393.99036144578304,25.526401443222397L395.7108433734939,26.454282808549788L397.43132530120477,27.457461831513697L399.15180722891563,28.302117316785438L400.87228915662644,25.363135815222112L402.59277108433724,30.01879063621952L404.31325301204816,28.115307943248347L406.033734939759,26.056881834084695L407.7542168674698,23.399418081065114L409.4746987951807,25.95931465169358L411.1951807228915,22.854107986619795L412.9156626506023,13.74752148819744L414.6361445783132,11.307727287119043L416.35662650602404,11.779227290627391L418.0771084337349,4.684325648285983L419.7975903614457,3.7212688233894617L421.51807228915663,6.602625828696974L423.23855421686744,5.885567284680733L424.95903614457825,0.818970376243867L426.67951807228906,0L428.4,1.018215255121181L428.4,125.33836248886193L426.67951807228906,126.67839048202535L424.95903614457825,126.92653377031051L423.23855421686744,127.37268305380938L421.51807228915663,125.4243857262208L419.7975903614457,125.39697918266026L418.0771084337349,127.14548225141854L416.35662650602404,126.50127393047971L414.6361445783132,127.5602508740488L412.9156626506023,127.32143366402357L411.1951807228915,127.24547238907505L409.4746987951807,125.80026763796569L407.7542168674698,127.34942357120731L406.033734939759,125.4456419782098L404.31325301204816,125.74513532389412L402.59277108433724,125.72604032950737L400.87228915662644,125.1029029698748L399.15180722891563,124.8952669510813L397.43132530120477,125.10605307986798L395.7108433734939,124.3452206162489L393.99036144578304,123.17016839969573L392.26987951807223,125.28992181102804L390.54939759036137,125.9408839205482L388.8289156626505,126.61280925862262L387.1084337349397,127.12011639526662L385.3879518072289,126.12343196175337L383.667469879518,125.5000223438582L381.94698795180716,125.45938192963631L380.22650602409635,125.28306434974635L378.50602409638554,122.22488888193607L376.7855421686747,124.52768753627578L375.0650602409638,125.15546744318729L373.34457831325295,127.12019342852886L371.6240963855421,125.70886222307901L369.9036144578313,127.81178782139752L368.1831325301204,127.31755743145615L366.4626506024096,128.3879191175677L364.74216867469875,128.63444779238785L363.02168674698794,126.95859794228414L361.3012048192771,126.52792850192252L359.58072289156627,127.47702499610588L357.8602409638554,128.0744830232445L356.13975903614454,128.0536052617147L354.4192771084337,126.9274113689102L352.69879518072287,130.28405953016227L350.978313253012,130.24331669858447L349.2578313253012,128.98878351685394L347.53734939759033,127.59399496796097L345.8168674698795,127.78117626513212L344.0963855421687,130.8714667302147L342.37590361445785,132.1046691562294L340.65542168674705,132.6215564475514L338.9349397590362,133.4874273098497L337.2144578313253,133.5852527336461L335.49397590361446,134.11576132647724L333.7734939759036,134.1315994081823L332.0530120481928,135.18069716041177L330.3325301204819,135.1109147427572L328.6120481927711,133.37523371609336L326.89156626506025,134.70062585977146L325.17108433734944,136.0672630540456L323.4506024096386,136.99750936635314L321.7301204819277,135.6307498115839L320.0096385542169,135.590032066462L318.28915662650604,134.65540314698686L316.5686746987952,134.9971156176014L314.8481927710843,135.17418781655178L313.1277108433735,135.88804986436992L311.40722891566264,137.94185816773415L309.68674698795184,136.03989086078982L307.96626506024097,136.96728184518958L306.2457831325301,138.4138923565376L304.5253012048193,138.19240180888997L302.80481927710844,139.0425621930121L301.08433734939763,139.18003934691077L299.36385542168676,139.00065518979855L297.6433734939759,140.41125530502575L295.92289156626504,141.03016144296828L294.2024096385542,140.63798526979687L292.48192771084337,140.19081651683038L290.7614457831325,140.3642490287285L289.0409638554217,141.17943194544674L287.32048192771083,142.28306646754993L285.6,141.81712867169398L283.87951807228916,142.75033909191205L282.15903614457835,143.83203092724347L280.4385542168675,143.9449365013177L278.7180722891566,143.21683912992012L276.9975903614458,144.3608855062729L275.2771084337349,143.51411608308766L273.5566265060241,142.3952710318759L271.8361445783132,142.8766191899394L270.1156626506024,143.63467476553797L268.39518072289155,144.23709682349553L266.6746987951807,143.67834643735455L264.9542168674699,142.98972318895952L263.233734939759,144.04748862671764L261.5132530120482,142.91856345085813L259.79277108433735,144.23491093916905L258.07228915662654,145.45386329908683L256.3518072289157,144.45286758651565L254.63132530120484,145.01724921170845L252.91084337349398,145.56204417775194L251.1903614457831,146.07056784002L249.46987951807228,148.38229546031076L247.7493975903614,149.395471580789L246.0289156626506,149.8195947309868L244.30843373493974,149.00174730103396L242.58795180722893,149.27448511721664L240.86746987951807,149.16493038115414L239.1469879518072,149.20042105123633L237.42650602409637,150.3505770204623L235.7060240963855,150.83834362282178L233.9855421686747,150.98245456982096L232.26506024096383,149.9244564586332L230.54457831325303,150.58683555742854L228.82409638554213,150.52029487252344L227.10361445783133,151.02688369386638L225.38313253012046,152.13755262656122L223.6626506024096,151.28610883291708L221.9421686746988,152.53648068132864L220.22168674698793,151.77672252565426L218.5012048192771,153.683828049624L216.78072289156623,152.5633803768213L215.06024096385542,151.79938621889832L213.33975903614459,151.50726658257847L211.61927710843372,151.4454645162784L209.89879518072289,151.00376350433214L208.17831325301202,152.41245530376034L206.4578313253012,152.39552846626123L204.73734939759035,153.2511375229811L203.01686746987954,152.6488575562913L201.29638554216868,153.33725662323772L199.57590361445784,152.45448066396068L197.85542168674698,153.9780014048492L196.13493975903611,154.99804009243866L194.4144578313253,155.60290210892808L192.69397590361444,156.16132915038025L190.97349397590364,155.51055595911436L189.25301204819277,155.24176381867164L187.53253012048194,156.2140666165716L185.81204819277107,156.95249219853434L184.0915662650602,157.80818703162927L182.3710843373494,157.57286180288176L180.65060240963854,157.81846629615117L178.9301204819277,157.93829989942006L177.20963855421684,158.8431923279844L175.489156626506,159.24361709954272L173.76867469879517,161.88748636805948L172.04819277108433,159.64331960416098L170.3277108433735,158.08044506757125L168.60722891566266,158.57500146412409L166.8867469879518,159.6804680215154L165.16626506024096,159.85841304127547L163.4457831325301,159.8953083955692L161.72530120481926,160.06632778403164L160.00481927710842,158.14847803441884L158.2843373493976,158.67362713997176L156.56385542168672,158.64795043605466L154.8433734939759,160.57261809213182L153.12289156626505,160.92748827518417L151.40240963855422,162.27429451734625L149.68192771084335,162.44117807567406L147.96144578313252,162.98699428314458L146.24096385542165,162.92306044414127L144.52048192771082,164.27862937583666L142.79999999999998,164.52162454792213L141.07951807228915,164.10131466674721L139.3590361445783,163.53800668978604L137.63855421686745,164.6481009290616L135.91807228915658,164.9788747524416L134.19759036144575,164.65318812364632L132.4771084337349,164.87046700448218L130.75662650602408,163.3984596676445L129.03614457831324,162.08585733136613L127.31566265060239,159.6028466292885L125.59518072289156,159.92780192129712L123.8746987951807,159.85452538820655L122.15421686746984,159.4870207385786L120.433734939759,160.63938587476912L118.71325301204817,160.8135734737111L116.99277108433732,160.1995518666636L115.27228915662648,160.7776716089373L113.55180722891564,161.44646345199698L111.8313253012048,160.92603187109043L110.11084337349396,161.60715678196928L108.39036144578311,162.64507403683555L106.66987951807226,163.1096857551972L104.94939759036143,163.58767896753093L103.22891566265058,163.32762551020647L101.50843373493974,162.78145648078404L99.78795180722891,163.11012703994584L98.06746987951806,163.2270709212659L96.34698795180722,163.88680754436785L94.62650602409637,165.14209157111378L92.90602409638552,163.8775901002889L91.18554216867469,163.3230520714488L89.46506024096385,163.83669170472885L87.744578313253,164.91912558022506L86.02409638554218,164.9710238300717L84.30361445783133,165.3041686940732L82.58313253012048,166.4295092519338L80.86265060240964,165.16480463788886L79.1421686746988,165.25853324724727L77.42168674698794,165.401765433506L75.70120481927711,165.39603982495544L73.98072289156626,164.93207177830098L72.26024096385542,164.72388966736574L70.53975903614457,163.81521439964666L68.81927710843372,164.71366358462802L67.09879518072289,165.83002771229226L65.37831325301205,166.99052382122372L63.657831325301196,166.29549383078145L61.93734939759035,165.92173709971067L60.21686746987952,165.27397353961726L58.496385542168674,164.87892498658516L56.77590361445782,165.68544877889437L55.05542168674698,165.75823959845428L53.334939759036146,165.09508730430628L51.6144578313253,165.03716008816343L49.893975903614454,165.53520830262391L48.17349397590361,166.3360889252686L46.45301204819277,166.85316591922626L44.732530120481925,166.28009580855465L43.01204819277109,169.2491621609407L41.29156626506024,170.96812343736212L39.5710843373494,172.00122659343705L37.850602409638554,173.43728253256543L36.13012048192771,173.5269243666579L34.40963855421686,173.69100140932136L32.689156626506026,173.8320394496311L30.968674698795176,175.27226629486137L29.248192771084337,174.74998085056768L27.52771084337349,175.33245368358948L25.80722891566265,176.38403918963368L24.086746987951805,177.2515900532376L22.366265060240963,174.33377738847253L20.64578313253012,174.77768785929374L18.92530120481928,176.082077836565L17.20481927710843,176.41691901511206L15.484337349397592,176.9005022500476L13.763855421686745,176.50194256845649L12.043373493975906,176.720116856719L10.322891566265058,176.47434603922477L8.602409638554215,176.78232521558195L6.881927710843373,178.512961152032L5.16144578313253,178.53306571286615L3.4409638554216864,182.86454081872034L1.7204819277108432,183.51054467955987L0,176.7998166299816Z" class="rv-xy-plot__series rv-xy-plot__series--line" transform="translate(51.6,5)" style="opacity: 1; stroke: rgba(83, 135, 221, 0); fill: rgba(83, 135, 221, 0.1);"/><path d="M0,174.974809386469L1.7204819277108432,176.82250088268717L3.4409638554216864,176.18356620402434L5.16144578313253,173.03210793737003L6.881927710843373,171.93294208695391L8.602409638554215,169.89278832319394L10.322891566265058,169.73060899493493L12.043373493975906,168.43829669472424L13.763855421686745,167.21554817569694L15.484337349397592,167.80399361877326L17.20481927710843,167.25591800411468L18.92530120481928,167.34245604297294L20.64578313253012,166.6441133115493L22.366265060240963,166.5259621629891L24.086746987951805,168.04169708038967L25.80722891566265,167.56950821217274L27.52771084337349,166.50859075933275L29.248192771084337,166.26832830530836L30.968674698795176,165.66377421950156L32.689156626506026,164.6891271555799L34.40963855421686,163.40368245497027L36.13012048192771,162.79643880708832L37.850602409638554,162.99535049701623L39.5710843373494,161.75776570681302L41.29156626506024,160.8738119778353L43.01204819277109,159.49666068144845L44.732530120481925,156.95787348108792L46.45301204819277,156.30387843237745L48.17349397590361,155.92590276531305L49.893975903614454,155.41716841971802L51.6144578313253,154.99047242285764L53.334939759036146,153.9183299591875L55.05542168674698,153.90545859020546L56.77590361445782,153.1685033013691L58.496385542168674,152.50741935200375L60.21686746987952,150.44047754167434L61.93734939759035,150.1395113517122L63.657831325301196,149.2452564693488L65.37831325301205,147.67714701609341L67.09879518072289,146.37110324506438L68.81927710843372,146.12747661027086L70.53975903614457,144.41213501960644L72.26024096385542,144.28455867074308L73.98072289156626,145.2816474916518L75.70120481927711,146.13506012064497L77.42168674698794,145.64881707352566L79.1421686746988,144.33196029753216L80.86265060240964,144.76650391680568L82.58313253012048,144.9190052734393L84.30361445783133,143.381527900532L86.02409638554218,142.64514364063965L87.744578313253,140.97106725931823L89.46506024096385,141.32733540788908L91.18554216867469,141.43622814973367L92.90602409638552,141.9532215602153L94.62650602409637,141.69803513307141L96.34698795180722,141.17736903629458L98.06746987951806,140.47303255193856L99.78795180722891,140.4461211871142L101.50843373493974,139.26761617572004L103.22891566265058,138.0304812617918L104.94939759036143,137.71754116103077L106.66987951807226,137.03099569274238L108.39036144578311,135.71082142444334L110.11084337349396,135.9616677959577L111.8313253012048,135.9632341545351L113.55180722891564,134.27429223593674L115.27228915662648,134.8399899677145L116.99277108433732,133.89145201398748L118.71325301204817,135.10073088248876L120.433734939759,135.26270470624354L122.15421686746984,134.73679321621253L123.8746987951807,133.86597450161534L125.59518072289156,132.72755515705566L127.31566265060239,133.2902988721708L129.03614457831324,133.67159300438288L130.75662650602408,133.93177652084285L132.4771084337349,134.74288342681183L134.19759036144575,135.00785033533515L135.91807228915658,134.2637102255673L137.63855421686745,133.54207936471687L139.3590361445783,134.24410328436406L141.07951807228915,132.95740060239632L142.79999999999998,132.6977799645872L144.52048192771082,131.98686336502885L146.24096385542165,129.37846964770543L147.96144578313252,129.66673915224428L149.68192771084335,130.25614447147694L151.40240963855422,131.37270394335735L153.12289156626505,130.7466395777838L154.8433734939759,130.581678740046L156.56385542168672,129.59708609056878L158.2843373493976,130.50499159612517L160.00481927710842,129.91831422466356L161.72530120481926,130.39227045926984L163.4457831325301,130.6350421162798L165.16626506024096,129.7859714376085L166.8867469879518,129.484965690662L168.60722891566266,129.74932485919672L170.3277108433735,130.0786368859773L172.04819277108433,131.21320068889972L173.76867469879517,131.9991331051454L175.489156626506,130.81127970302657L177.20963855421684,130.57968505736903L178.9301204819277,130.6253437097418L180.65060240963854,129.05539609082993L182.3710843373494,129.07197276246973L184.0915662650602,129.58469047349888L185.81204819277107,129.26492486638264L187.53253012048194,127.92420560460792L189.25301204819277,127.42898679962353L190.97349397590364,126.24808711978297L192.69397590361444,125.8760467825368L194.4144578313253,126.09553799881327L196.13493975903611,124.45075042173598L197.85542168674698,124.58131613768342L199.57590361445784,121.50766416104754L201.29638554216868,121.88853118905783L203.01686746987954,120.25427784717647L204.73734939759035,121.31185814464757L206.4578313253012,120.56078619137347L208.17831325301202,120.98501203972714L209.89879518072289,121.20432768884493L211.61927710843372,121.89394590955294L213.33975903614459,123.0319627996083L215.06024096385542,124.24409493056581L216.78072289156623,124.92025644651697L218.5012048192771,125.6066991180587L220.22168674698793,123.313197936943L221.9421686746988,122.66272309395744L223.6626506024096,123.28776718217674L225.38313253012046,123.85066466898587L227.10361445783133,123.41374526396038L228.82409638554213,122.6344473147838L230.54457831325303,121.32319431966503L232.26506024096383,122.02706860210472L233.9855421686747,122.63139200645816L235.7060240963855,122.19723761480351L237.42650602409637,120.80414688456408L239.1469879518072,118.77818277584954L240.86746987951807,119.36114553142842L242.58795180722893,117.71287389160398L244.30843373493974,117.61125252800548L246.0289156626506,118.939229294023L247.7493975903614,118.83771652367908L249.46987951807228,117.37609512482742L251.1903614457831,115.252920765707L252.91084337349398,114.77427301822686L254.63132530120484,114.23138136134301L256.3518072289157,113.86722817781559L258.07228915662654,114.54501073906127L259.79277108433735,112.79376374142403L261.5132530120482,111.24749814110606L263.233734939759,110.514668361356L264.9542168674699,110.22513185044438L266.6746987951807,109.7415672388396L268.39518072289155,107.45268352145817L270.1156626506024,106.1308650675323L271.8361445783132,106.1326287722833L273.5566265060241,104.96703135481697L275.2771084337349,105.31457234148597L276.9975903614458,105.54296392549352L278.7180722891566,104.86582061143733L280.4385542168675,106.10015799780544L282.15903614457835,106.88224351533279L283.87951807228916,104.43416056471804L285.6,104.10634525472149L287.32048192771083,104.33839235884494L289.0409638554217,102.78217301507324L290.7614457831325,102.23947541265174L292.48192771084337,101.36030961686554L294.2024096385542,102.3723936454328L295.92289156626504,101.80629574337506L297.6433734939759,101.14729014105846L299.36385542168676,100.20186970445566L301.08433734939763,101.75835606962751L302.80481927710844,101.5390782245746L304.5253012048193,99.26488293130247L306.2457831325301,99.00602209434824L307.96626506024097,98.72863349011219L309.68674698795184,96.6340241777999L311.40722891566264,98.2565189389639L313.1277108433735,98.08736003180839L314.8481927710843,95.58265327597904L316.5686746987952,95.89596825322349L318.28915662650604,93.42706837219936L320.0096385542169,94.80372412516279L321.7301204819277,95.78665538747254L323.4506024096386,96.67203127562533L325.17108433734944,96.20636494713713L326.89156626506025,96.90608339611332L328.6120481927711,96.21494526340786L330.3325301204819,96.50276008779728L332.0530120481928,97.45946867267735L333.7734939759036,91.30976845779888L335.49397590361446,92.16806191287594L337.2144578313253,90.79944356450125L338.9349397590362,90.70144238032634L340.65542168674705,91.56861883428715L342.37590361445785,92.3384461177916L344.0963855421687,91.21657315472291L345.8168674698795,89.97750783218885L347.53734939759033,89.58899968295053L349.2578313253012,90.16502535505917L350.978313253012,90.38695853112559L352.69879518072287,89.15021804151016L354.4192771084337,86.12122768157072L356.13975903614454,84.82504365777976L357.8602409638554,83.20567527328278L359.58072289156627,83.77044100365184L361.3012048192771,84.2747734841036L363.02168674698794,84.33791423971563L364.74216867469875,83.27158486440263L366.4626506024096,82.21776191572044L368.1831325301204,83.70245616782748L369.9036144578313,86.05899536371992L371.6240963855421,86.35505877869386L373.34457831325295,87.69352656757694L375.0650602409638,86.7123587023474L376.7855421686747,86.18438035769394L378.50602409638554,86.88009920232172L380.22650602409635,86.66135958859124L381.94698795180716,87.57179238425195L383.667469879518,88.56200491120377L385.3879518072289,89.85778185444333L387.1084337349397,88.45258512773394L388.8289156626505,87.39845034878259L390.54939759036137,86.01527001287933L392.26987951807223,86.2251346346893L393.99036144578304,85.97651786484403L395.7108433734939,87.28414757855553L397.43132530120477,86.869961955987L399.15180722891563,87.51272747642682L400.87228915662644,87.06181909103073L402.59277108433724,89.13802543382162L404.31325301204816,88.55524774316926L406.033734939759,87.45894403633908L407.7542168674698,87.21008596324981L409.4746987951807,86.78805230420728L411.1951807228915,86.92491876225779L412.9156626506023,83.44361847278203L414.6361445783132,82.14531837064838L416.35662650602404,81.97095335346998L418.0771084337349,79.49300833330216L419.7975903614457,78.41000248273778L421.51807228915663,78.86596267272985L423.23855421686744,79.79299460100475L424.95903614457825,78.17830482756241L426.67951807228906,78.23697701372922L428.4,78.10583883607026" class="rv-xy-plot__series rv-xy-plot__series--line" transform="translate(51.6,5)" style="opacity: 1; stroke-width: 1.5; stroke: rgb(83, 135, 221);"/><g class="rv-xy-plot__series rv-xy-plot__series--mark" transform="translate(51.6,5)"><circle r="2" cx="428.4" cy="78.10583883607026" style="opacity: 1; stroke: rgb(83, 135, 221); fill: rgb(83, 135, 221); stroke-width: 1;"/></g><g class="rv-xy-plot__series rv-xy-plot__series--mark" transform="translate(51.6,5)"><circle r="2" cx="428.4" cy="47.00791313745187" style="opacity: 1; stroke: rgb(218, 76, 76); fill: rgb(218, 76, 76); stroke-width: 1;"/></g><defs class="rv-gradient-defs"><linearGradient id="leftFadeGradient" x1="0" x2="1" y1="0" y2="0"><stop offset="0%" stop-color="white" stop-opacity="1"/><stop offset="60%" stop-color="white" stop-opacity="1"/><stop offset="100%" stop-color="white" stop-opacity="0"/></linearGradient><linearGradient id="rightFadeGradient" x1="1" x2="0" y1="0" y2="0"><stop offset="0%" stop-color="white" stop-opacity="1"/><stop offset="100%" stop-color="white" stop-opacity="0"/></linearGradient><linearGradient id="bottomFadeGradient" x1="0" x2="0" y1="1" y2="0"><stop offset="0%" stop-color="white" stop-opacity="1"/><stop offset="40%" stop-color="white" stop-opacity="1"/><stop offset="100%" stop-color="white" stop-opacity="0"/></linearGradient><linearGradient id="topFadeGradient" x1="0" x2="0" y1="0" y2="1"><stop offset="0%" stop-color="white" stop-opacity="1"/><stop offset="100%" stop-color="white" stop-opacity="0"/></linearGradient></defs><g class="rv-xy-plot__borders plot-border"><rect class="rv-xy-plot__borders-bottom plot-border-bottom" x="0" y="228" width="500" height="30" style="fill: url(&quot;#bottomFadeGradient&quot;); opacity: 1;"/><rect class="rv-xy-plot__borders-left plot-border-left" x="0" y="0" width="51.6" height="258" style="fill: url(&quot;#leftFadeGradient&quot;); opacity: 1;"/><rect class="rv-xy-plot__borders-right plot-border-right" x="480" y="0" width="20" height="258" style="fill: url(&quot;#rightFadeGradient&quot;); opacity: 1;"/><rect class="rv-xy-plot__borders-top plot-border-top" x="0" y="0" width="500" height="5" style="fill: url(&quot;#topFadeGradient&quot;); opacity: 1;"/></g><g transform="translate(51.6,228)" class="rv-xy-plot__axis rv-xy-plot__axis--horizontal"><line x1="0" x2="428.4" y1="0" y2="0" class="rv-xy-plot__axis__line"/><g transform="translate(0, 0)" class="rv-xy-plot__axis__ticks"/></g><g transform="translate(51.6,228)" class="rv-xy-plot__axis rv-xy-plot__axis--horizontal" style="font-family: &quot;Source Sans Pro&quot;; fill: rgb(107, 107, 118); font-size: 14px;"><line x1="0" x2="428.4" y1="0" y2="0" class="rv-xy-plot__axis__line" style="font-family: &quot;Source Sans Pro&quot;; fill: rgb(107, 107, 118); font-size: 14px; stroke-width: 0;"/><g transform="translate(0, 0)" class="rv-xy-plot__axis__ticks"><g transform="translate(84.92432289419727, 0)" class="rv-xy-plot__axis__tick" style="font-family: &quot;Source Sans Pro&quot;; fill: rgb(107, 107, 118); font-size: 14px;"><line x1="0" x2="0" y1="-6" y2="6" class="rv-xy-plot__axis__tick__line" style="font-family: &quot;Source Sans Pro&quot;; fill: rgb(107, 107, 118); font-size: 14px; stroke-width: 0;"/><text text-anchor="middle" dy="0.72em" transform="translate(0, 14)" class="rv-xy-plot__axis__tick__text" style="font-family: sans-serif; fill: rgb(107, 107, 118); font-size: 14px;">2M</text></g><g transform="translate(171.0174228993936, 0)" class="rv-xy-plot__axis__tick" style="font-family: &quot;Source Sans Pro&quot;; fill: rgb(107, 107, 118); font-size: 14px;"><line x1="0" x2="0" y1="-6" y2="6" class="rv-xy-plot__axis__tick__line" style="font-family: &quot;Source Sans Pro&quot;; fill: rgb(107, 107, 118); font-size: 14px; stroke-width: 0;"/><text text-anchor="middle" dy="0.72em" transform="translate(0, 14)" class="rv-xy-plot__axis__tick__text" style="font-family: sans-serif; fill: rgb(107, 107, 118); font-size: 14px;">4M</text></g><g transform="translate(257.1105229045899, 0)" class="rv-xy-plot__axis__tick" style="font-family: &quot;Source Sans Pro&quot;; fill: rgb(107, 107, 118); font-size: 14px;"><line x1="0" x2="0" y1="-6" y2="6" class="rv-xy-plot__axis__tick__line" style="font-family: &quot;Source Sans Pro&quot;; fill: rgb(107, 107, 118); font-size: 14px; stroke-width: 0;"/><text text-anchor="middle" dy="0.72em" transform="translate(0, 14)" class="rv-xy-plot__axis__tick__text" style="font-family: sans-serif; fill: rgb(107, 107, 118); font-size: 14px;">6M</text></g><g transform="translate(343.20362290978625, 0)" class="rv-xy-plot__axis__tick" style="font-family: &quot;Source Sans Pro&quot;; fill: rgb(107, 107, 118); font-size: 14px;"><line x1="0" x2="0" y1="-6" y2="6" class="rv-xy-plot__axis__tick__line" style="font-family: &quot;Source Sans Pro&quot;; fill: rgb(107, 107, 118); font-size: 14px; stroke-width: 0;"/><text text-anchor="middle" dy="0.72em" transform="translate(0, 14)" class="rv-xy-plot__axis__tick__text" style="font-family: sans-serif; fill: rgb(107, 107, 118); font-size: 14px;">8M</text></g></g><g transform="translate(0, 0)" class="rv-xy-plot__axis__title"><g transform="translate(422.4, -6) rotate(0)" style="text-anchor: end; font-family: &quot;Source Sans Pro&quot;; fill: rgb(107, 107, 118); font-size: 14px;"><text style="font-family: sans-serif; fill: rgb(107, 107, 118); font-size: 14px;"> Steps</text></g></g></g><g transform="translate(51.6,228)" class="rv-xy-plot__axis rv-xy-plot__axis--horizontal"><line x1="0" x2="0" y1="0" y2="0" class="rv-xy-plot__axis__line"/><g transform="translate(0, 0)" class="rv-xy-plot__axis__ticks"><g transform="translate(84.92432289419727, 0)" class="rv-xy-plot__axis__tick"><line x1="0" x2="0" y1="-6" y2="6" class="rv-xy-plot__axis__tick__line"/><text text-anchor="middle" dy="0.72em" transform="translate(0, 14)" class="rv-xy-plot__axis__tick__text" style="font-family: sans-serif;"/></g><g transform="translate(171.0174228993936, 0)" class="rv-xy-plot__axis__tick"><line x1="0" x2="0" y1="-6" y2="6" class="rv-xy-plot__axis__tick__line"/><text text-anchor="middle" dy="0.72em" transform="translate(0, 14)" class="rv-xy-plot__axis__tick__text" style="font-family: sans-serif;"/></g><g transform="translate(257.1105229045899, 0)" class="rv-xy-plot__axis__tick"><line x1="0" x2="0" y1="-6" y2="6" class="rv-xy-plot__axis__tick__line"/><text text-anchor="middle" dy="0.72em" transform="translate(0, 14)" class="rv-xy-plot__axis__tick__text" style="font-family: sans-serif;"/></g><g transform="translate(343.20362290978625, 0)" class="rv-xy-plot__axis__tick"><line x1="0" x2="0" y1="-6" y2="6" class="rv-xy-plot__axis__tick__line"/><text text-anchor="middle" dy="0.72em" transform="translate(0, 14)" class="rv-xy-plot__axis__tick__text" style="font-family: sans-serif;"/></g></g></g><g transform="translate(0,5)" class="rv-xy-plot__axis rv-xy-plot__axis--vertical" style="font-family: &quot;Source Sans Pro&quot;; fill: rgb(107, 107, 118); font-size: 14px;"><line x1="51.6" x2="51.6" y1="0" y2="223" class="rv-xy-plot__axis__line" style="font-family: &quot;Source Sans Pro&quot;; fill: rgb(107, 107, 118); font-size: 14px; stroke: none;"/><g transform="translate(51.6, 0)" class="rv-xy-plot__axis__ticks"><g transform="translate(0, 223)" class="rv-xy-plot__axis__tick" style="font-family: &quot;Source Sans Pro&quot;; fill: rgb(107, 107, 118); font-size: 14px;"><line y1="0" y2="0" x1="6" x2="-6" class="rv-xy-plot__axis__tick__line" style="font-family: &quot;Source Sans Pro&quot;; fill: rgb(107, 107, 118); font-size: 14px; stroke: none;"/><text text-anchor="end" dy="0.32em" transform="translate(-14, 0)" class="rv-xy-plot__axis__tick__text" style="font-family: sans-serif; fill: rgb(107, 107, 118); font-size: 14px;">0</text></g><g transform="translate(0, 166.74977674104906)" class="rv-xy-plot__axis__tick" style="font-family: &quot;Source Sans Pro&quot;; fill: rgb(107, 107, 118); font-size: 14px;"><line y1="0" y2="0" x1="6" x2="-6" class="rv-xy-plot__axis__tick__line" style="font-family: &quot;Source Sans Pro&quot;; fill: rgb(107, 107, 118); font-size: 14px; stroke: none;"/><text text-anchor="end" dy="0.32em" transform="translate(-14, 0)" class="rv-xy-plot__axis__tick__text" style="font-family: sans-serif; fill: rgb(107, 107, 118); font-size: 14px;">500</text></g><g transform="translate(0, 110.49955348209811)" class="rv-xy-plot__axis__tick" style="font-family: &quot;Source Sans Pro&quot;; fill: rgb(107, 107, 118); font-size: 14px;"><line y1="0" y2="0" x1="6" x2="-6" class="rv-xy-plot__axis__tick__line" style="font-family: &quot;Source Sans Pro&quot;; fill: rgb(107, 107, 118); font-size: 14px; stroke: none;"/><text text-anchor="end" dy="0.32em" transform="translate(-14, 0)" class="rv-xy-plot__axis__tick__text" style="font-family: sans-serif; fill: rgb(107, 107, 118); font-size: 14px;">1000</text></g><g transform="translate(0, 54.249330223147155)" class="rv-xy-plot__axis__tick" style="font-family: &quot;Source Sans Pro&quot;; fill: rgb(107, 107, 118); font-size: 14px;"><line y1="0" y2="0" x1="6" x2="-6" class="rv-xy-plot__axis__tick__line" style="font-family: &quot;Source Sans Pro&quot;; fill: rgb(107, 107, 118); font-size: 14px; stroke: none;"/><text text-anchor="end" dy="0.32em" transform="translate(-14, 0)" class="rv-xy-plot__axis__tick__text" style="font-family: sans-serif; fill: rgb(107, 107, 118); font-size: 14px;">1500</text></g></g><g transform="translate(51.6, 0)" class="rv-xy-plot__axis__title"><g transform="translate(16, 6) rotate(-90)" style="text-anchor: end; font-family: &quot;Source Sans Pro&quot;; fill: rgb(107, 107, 118); font-size: 14px;"><text style="font-family: sans-serif; fill: rgb(107, 107, 118); font-size: 14px;">Episodic Return</text></g></g></g></svg></g><style xmlns="http://www.w3.org/1999/xhtml">/*&lt;![CDATA[*/<br />text { font-size: 10px; fill: black }<br />.react-vis-magic-css-import-rule{display:inherit}.rv-treemap{font-size:12px;position:relative}.rv-treemap__leaf{overflow:hidden;position:absolute}.rv-treemap__leaf--circle{align-items:center;border-radius:100%;display:flex;justify-content:center}.rv-treemap__leaf__content{overflow:hidden;padding:10px;text-overflow:ellipsis}.rv-xy-plot{color:#c3c3c3;position:relative}.rv-xy-plot canvas{pointer-events:none}.rv-xy-plot .rv-xy-canvas{pointer-events:none;position:absolute}.rv-xy-plot__inner{display:block}.rv-xy-plot__axis__line{fill:none;stroke-width:2px;stroke:#e6e6e9}.rv-xy-plot__axis__tick__line{stroke:#e6e6e9}.rv-xy-plot__axis__tick__text{fill:#6b6b76;font-size:11px}.rv-xy-plot__axis__title text{fill:#6b6b76;font-size:11px}.rv-xy-plot__grid-lines__line{stroke:#e6e6e9}.rv-xy-plot__circular-grid-lines__line{fill-opacity:0;stroke:#e6e6e9}.rv-xy-plot__series,.rv-xy-plot__series path{pointer-events:all}.rv-xy-plot__series--line{fill:none;stroke:#000;stroke-width:2px}.rv-crosshair{position:absolute;font-size:11px;pointer-events:none}.rv-crosshair__line{background:#47d3d9;width:1px}.rv-crosshair__inner{position:absolute;text-align:left;top:0}.rv-crosshair__inner__content{border-radius:4px;background:#3a3a48;color:#fff;font-size:12px;padding:7px 10px;box-shadow:0 2px 4px rgba(0,0,0,0.5)}.rv-crosshair__inner--left{right:4px}.rv-crosshair__inner--right{left:4px}.rv-crosshair__title{font-weight:bold;white-space:nowrap}.rv-crosshair__item{white-space:nowrap}.rv-hint{position:absolute;pointer-events:none}.rv-hint__content{border-radius:4px;padding:7px 10px;font-size:12px;background:#3a3a48;box-shadow:0 2px 4px rgba(0,0,0,0.5);color:#fff;text-align:left;white-space:nowrap}.rv-discrete-color-legend{box-sizing:border-box;overflow-y:auto;font-size:12px}.rv-discrete-color-legend.horizontal{white-space:nowrap}.rv-discrete-color-legend-item{color:#3a3a48;border-radius:1px;padding:9px 10px}.rv-discrete-color-legend-item.horizontal{display:inline-block}.rv-discrete-color-legend-item.horizontal .rv-discrete-color-legend-item__title{margin-left:0;display:block}.rv-discrete-color-legend-item__color{display:inline-block;vertical-align:middle;overflow:visible}.rv-discrete-color-legend-item__color__path{stroke:#dcdcdc;stroke-width:2px}.rv-discrete-color-legend-item__title{margin-left:10px}.rv-discrete-color-legend-item.disabled{color:#b8b8b8}.rv-discrete-color-legend-item.clickable{cursor:pointer}.rv-discrete-color-legend-item.clickable:hover{background:#f9f9f9}.rv-search-wrapper{display:flex;flex-direction:column}.rv-search-wrapper__form{flex:0}.rv-search-wrapper__form__input{width:100%;color:#a6a6a5;border:1px solid #e5e5e4;padding:7px 10px;font-size:12px;box-sizing:border-box;border-radius:2px;margin:0 0 9px;outline:0}.rv-search-wrapper__contents{flex:1;overflow:auto}.rv-continuous-color-legend{font-size:12px}.rv-continuous-color-legend .rv-gradient{height:4px;border-radius:2px;margin-bottom:5px}.rv-continuous-size-legend{font-size:12px}.rv-continuous-size-legend .rv-bubbles{text-align:justify;overflow:hidden;margin-bottom:5px;width:100%}.rv-continuous-size-legend .rv-bubble{background:#d8d9dc;display:inline-block;vertical-align:bottom}.rv-continuous-size-legend .rv-spacer{display:inline-block;font-size:0;line-height:0;width:100%}.rv-legend-titles{height:16px;position:relative}.rv-legend-titles__left,.rv-legend-titles__right,.rv-legend-titles__center{position:absolute;white-space:nowrap;overflow:hidden}.rv-legend-titles__center{display:block;text-align:center;width:100%}.rv-legend-titles__right{right:0}.rv-radial-chart .rv-xy-plot__series--label{pointer-events:none}<br /><br />/*]]&gt;*/</style></svg>