<svg xmlns="http://www.w3.org/2000/svg" viewBox="0 0 499.9999694824219 300"><g><text x="50%" y="0" style="fill: rgb(54, 58, 61); dominant-baseline: text-before-edge; text-anchor: middle; font-weight: bold; font-size: 13px; font-family: sans-serif;">BreakoutNoFrameskip-v4</text><svg viewBox="0 0 1024 1024" x="69.09661865234375" y="25.90625" height="11" width="11"><path d="M128 533.333h768c23.564 0 42.667-19.103 42.667-42.667v-85.333c0-23.564-19.103-42.667-42.667-42.667h-768c-23.564 0-42.667 19.103-42.667 42.667v85.333c0 23.564 19.103 42.667 42.667 42.667z" style="fill: rgb(56, 116, 216);"/></svg><text x="88.09661865234375" y="23.90625" style="fill: rgb(56, 116, 216); dominant-baseline: text-before-edge; font-size: 11px; font-family: sans-serif;">our PPO-LSTM</text><svg viewBox="0 0 1024 1024" x="205.16192626953125" y="25.90625" height="11" width="11"><path d="M128 533.333h768c23.564 0 42.667-19.103 42.667-42.667v-85.333c0-23.564-19.103-42.667-42.667-42.667h-768c-23.564 0-42.667 19.103-42.667 42.667v85.333c0 23.564 19.103 42.667 42.667 42.667z" style="fill: rgb(215, 62, 62);"/></svg><text x="224.16192626953125" y="23.90625" style="fill: rgb(215, 62, 62); dominant-baseline: text-before-edge; font-size: 11px; font-family: sans-serif;">openai/baselines' PPO-LSTM</text></g><g transform="translate(0, 41.50567626953125)"><svg class="rv-xy-plot__inner" width="500" height="258"><g transform="translate(44.4,5)" class="rv-xy-plot__grid-lines"><line y1="223" y2="223" x1="0" x2="435.6" class="rv-xy-plot__grid-lines__line" style="stroke-width: 0.5;"/><line y1="163.97580187453522" y2="163.97580187453522" x1="0" x2="435.6" class="rv-xy-plot__grid-lines__line" style="stroke-width: 0.5;"/><line y1="104.95160374907047" y2="104.95160374907047" x1="0" x2="435.6" class="rv-xy-plot__grid-lines__line" style="stroke-width: 0.5;"/><line y1="45.927405623605694" y2="45.927405623605694" x1="0" x2="435.6" class="rv-xy-plot__grid-lines__line" style="stroke-width: 0.5;"/></g><path d="M0,220.98075111676042L1.7493975903614458,219.95476968961927L3.4987951807228916,218.53998118899L5.248192771084338,216.3435958746142L6.997590361445783,215.07979175951067L8.74698795180723,214.17901307293755L10.496385542168676,212.60156817116103L12.245783132530121,211.47094900730394L13.995180722891567,210.4827738351303L15.744578313253015,209.2203751839778L17.49397590361446,207.92935415929813L19.243373493975906,206.00938810244392L20.992771084337353,204.76196182086386L22.7421686746988,203.36192795776026L24.491566265060243,202.30129916875651L26.24096385542169,201.25486699781558L27.990361445783133,199.65322628059408L29.73975903614458,199.176839136048L31.489156626506023,197.26620326340102L33.23855421686747,195.796643978745L34.98795180722892,194.49226567102966L36.737349397590364,193.7443994662777L38.48674698795181,193.1461668476099L40.23614457831325,192.05546760130318L41.985542168674705,191.30701867660966L43.734939759036145,189.47880317514193L45.4843373493976,188.24914889625876L47.23373493975903,186.8744144253456L48.98313253012048,184.94869296671172L50.732530120481925,184.173245689285L52.48192771084337,183.16026445597186L54.23132530120481,182.08365733952965L55.980722891566266,180.6535819685518L57.73012048192772,179.42641253327136L59.47951807228916,178.23666356423968L61.22891566265061,176.9079855553762L62.97831325301205,176.3791696832343L64.72771084337349,175.1798991600488L66.47710843373494,174.02306871463279L68.22650602409638,173.16937120601474L69.97590361445782,172.03622521047853L71.72530120481927,171.3922904953163L73.47469879518073,170.75243595409572L75.22409638554218,168.9557946340406L76.97349397590362,167.8782607916144L78.72289156626506,167.53794391501512L80.4722891566265,165.397100929773L82.22168674698796,161.88755818028852L83.9710843373494,160.96255956861128L85.72048192771084,160.1636668630022L87.46987951807229,160.13328818486846L89.21927710843374,160.49835441710695L90.9686746987952,160.13998381579148L92.71807228915664,159.4060638593147L94.46746987951809,159.20964518551307L96.21686746987952,158.5981544247102L97.96626506024097,158.27984587773827L99.71566265060241,157.51078884937485L101.46506024096387,157.39633864617878L103.21445783132532,156.42630432829387L104.96385542168676,154.98948990406194L106.71325301204821,155.25348348507345L108.46265060240965,154.53718380476386L110.2120481927711,151.88368564047218L111.96144578313253,152.02255204246907L113.71084337349399,152.37160163991942L115.46024096385544,152.6429274126602L117.20963855421688,152.76575448613292L118.95903614457832,152.46764702271872L120.70843373493976,152.31557504101457L122.45783132530123,151.40904227607933L124.20722891566265,150.40228702832655L125.95662650602412,151.0716334031229L127.70602409638555,151.45450114779428L129.455421686747,150.8527647946952L131.20481927710844,149.14442247891105L132.95421686746988,147.27354946880126L134.70361445783135,146.4100573180377L136.4530120481928,147.04741739139956L138.20240963855423,147.19691760223174L139.95180722891567,147.08688428855112L141.70120481927714,138.7925652055477L143.45060240963855,138.4672009051798L145.20000000000002,139.01840905230358L146.94939759036146,140.03801981162707L148.6987951807229,140.20843426312632L150.44819277108436,137.70275114151514L152.1975903614458,137.01435381512468L153.94698795180724,137.07078449510166L155.69638554216868,138.07913964165917L157.44578313253012,138.90857731887797L159.19518072289156,139.58529894284476L160.94457831325303,140.6308917891387L162.69397590361447,141.27500022475581L164.4433734939759,141.39359134452403L166.19277108433738,141.74260166290253L167.94216867469882,141.991728782175L169.69156626506026,142.21732002078673L171.4409638554217,142.67436945066066L173.19036144578314,142.15894302146157L174.93975903614458,141.45430994728648L176.68915662650605,141.85333041932589L178.4385542168675,141.8615272186794L180.18795180722893,138.01242565305023L181.9373493975904,138.45779320891128L183.68674698795184,137.52292886029602L185.43614457831328,136.23032573585243L187.1855421686747,136.9109410528283L188.93493975903618,133.41802575566047L190.6843373493976,131.77721191844165L192.43373493975903,133.10150223804055L194.1831325301205,133.9828851923545L195.93253012048194,134.71967756038933L197.6819277108434,135.03003240908225L199.43132530120482,134.82785347540684L201.18072289156632,135.07223338690162L202.93012048192773,132.48716110153936L204.67951807228917,131.8932913991319L206.42891566265058,133.11182021275283L208.17831325301208,132.45894476346876L209.92771084337352,133.5850103275665L211.67710843373496,130.12754275207405L213.4265060240964,131.07876894725143L215.17590361445787,131.48214936170874L216.9253012048193,124.90588275756663L218.67469879518075,126.39416309251726L220.4240963855422,127.84407535040661L222.17349397590363,128.51398134842663L223.92289156626506,127.29183319418422L225.6722891566265,128.7219965513252L227.42168674698797,129.54314419051155L229.1710843373494,129.79886623958208L230.92048192771088,130.82892697158644L232.66987951807235,132.08294260827623L234.41927710843376,131.89365146617416L236.16867469879517,132.87982549187979L237.91807228915664,131.98867726971736L239.6674698795181,131.88794093836634L241.41686746987952,128.11687767089674L243.166265060241,130.04059443962694L244.91566265060243,130.4584081806638L246.6650602409639,131.56157185434625L248.4144578313253,129.71701506750583L250.16385542168678,129.83086350868663L251.91325301204824,128.91177959675724L253.66265060240966,124.86429939640162L255.4120481927711,124.26568439404225L257.16144578313254,124.2572720177599L258.910843373494,121.29064851309764L260.6602409638554,120.23509512828736L262.4096385542169,120.05982307972228L264.15903614457835,121.73638120205428L265.90843373493976,118.50608887901312L267.65783132530123,116.16636396818686L269.4072289156627,113.25592996779379L271.15662650602417,115.25924808885574L272.9060240963856,113.97891922462792L274.655421686747,116.38786134614102L276.40481927710846,114.88383622137457L278.1542168674699,116.83095125269053L279.90361445783134,117.7407754487341L281.6530120481928,119.34832575612774L283.4024096385542,114.97761230874326L285.1518072289157,116.90193024458152L286.9012048192771,118.60544562127956L288.65060240963857,116.42360111649663L290.40000000000003,114.93571437401366L292.14939759036145,113.90339217106568L293.8987951807229,111.25132642820239L295.6481927710843,110.08010881355091L297.3975903614458,111.21256155968145L299.14698795180726,110.9928430698253L300.89638554216873,113.48871112443842L302.64578313253014,113.16549443167584L304.3951807228916,113.47284073743486L306.144578313253,111.59741339116533L307.8939759036145,113.86890739648116L309.64337349397596,115.52439571371596L311.39277108433737,111.31975374166844L313.14216867469884,106.19089179689495L314.89156626506025,105.49149538751479L316.6409638554217,105.77502723359146L318.3903614457831,105.52998002002064L320.1397590361446,108.04008196634884L321.889156626506,109.7741096386143L323.6385542168675,111.0804308361359L325.38795180722894,107.85710630131675L327.13734939759036,106.60693334393767L328.8867469879518,106.82226935021424L330.6361445783133,102.45596334286677L332.38554216867476,101.5543004902431L334.1349397590362,98.16749832560795L335.88433734939764,98.25078365916555L337.63373493975905,98.91720616728867L339.3831325301205,97.4428693841182L341.13253012048193,96.92554262506353L342.8819277108434,101.1962697907066L344.63132530120487,99.36261517287373L346.3807228915663,85.2827139958266L348.13012048192775,81.63949324857913L349.87951807228916,81.49987419241846L351.6289156626506,84.38422104277579L353.37831325301204,84.52058021423133L355.1277108433735,86.78505587385588L356.877108433735,86.93995121200201L358.6265060240964,89.84009408048709L360.37590361445785,86.50048571640639L362.1253012048193,81.6642998407654L363.8746987951808,80.47414098270512L365.6240963855422,81.43226522182505L367.37349397590356,83.57959671528276L369.122891566265,86.04446934235148L370.87228915662655,85.60025996728578L372.62168674698796,79.39947725162217L374.3710843373494,81.5529784680857L376.12048192771084,75.06544636127313L377.86987951807225,78.93991974741341L379.61927710843366,77.5313327325698L381.36867469879513,76.79848625252413L383.11807228915666,79.79240238156754L384.86746987951807,80.84943974502539L386.61686746987954,72.2539146968481L388.366265060241,72.62173642343632L390.1156626506024,70.56212137945184L391.8650602409638,73.25305164621574L393.6144578313253,70.61607537668061L395.3638554216867,66.90865361517987L397.11325301204823,67.51934751423049L398.86265060240964,65.14520978472022L400.6120481927711,70.13199388361438L402.3614457831325,71.45109121859868L404.11084337349394,71.68845484541342L405.8602409638554,67.97265975041253L407.6096385542168,64.1506720774498L409.35903614457834,66.77817575643682L411.10843373493975,64.47405021285277L412.85783132530116,61.65160801364171L414.60722891566263,55.1483143581296L416.3566265060241,57.30400093066651L418.1060240963855,57.81279665739601L419.855421686747,59.25482115540516L421.60481927710845,60.19822150025871L423.3542168674699,54.61278878159956L425.1036144578313,56.20841041999667L426.8530120481928,53.95488332792593L428.6024096385542,53.73556215631204L430.3518072289156,54.2617751404032L432.1012048192771,50.42655084252586L433.8506024096385,47.10228789105753L435.6,50.55963539060394L435.6,114.63721760222727L433.8506024096385,114.55688429022258L432.1012048192771,115.46034764056677L430.3518072289156,115.69457255324258L428.6024096385542,115.21437574458939L426.8530120481928,115.17665705007609L425.1036144578313,116.8589986131816L423.3542168674699,116.68498295113721L421.60481927710845,115.8647880888791L419.855421686747,115.73819051919394L418.1060240963855,118.48477228021761L416.3566265060241,119.15763333017969L414.60722891566263,118.8847584940092L412.85783132530116,121.63119533420902L411.10843373493975,124.51019933410178L409.35903614457834,125.16070834728747L407.6096385542168,124.84702401319969L405.8602409638554,124.911092590569L404.11084337349394,126.10038880399618L402.3614457831325,126.04070797211028L400.6120481927711,125.34677480757752L398.86265060240964,124.76516756258859L397.11325301204823,126.27788342276489L395.3638554216867,128.1023267478571L393.6144578313253,130.04525423363762L391.8650602409638,129.27648638705145L390.1156626506024,128.6122380606385L388.366265060241,129.74635963138485L386.61686746987954,133.53962748258553L384.86746987951807,132.9917098515216L383.11807228915666,131.85301858280502L381.36867469879513,131.2112568994152L379.61927710843366,131.85711709512302L377.86987951807225,132.0162091497501L376.12048192771084,132.21242068229068L374.3710843373494,132.75748005183243L372.62168674698796,133.19520744178644L370.87228915662655,134.26968044233047L369.122891566265,134.58808280248684L367.37349397590356,134.80629502108744L365.6240963855422,135.11294610019175L363.8746987951808,135.0575295906961L362.1253012048193,135.6736160022595L360.37590361445785,137.46225206119436L358.6265060240964,138.09521698898385L356.877108433735,138.06356436271335L355.1277108433735,137.73101552745524L353.37831325301204,138.42074983491702L351.6289156626506,139.91102703800513L349.87951807228916,139.63486042255388L348.13012048192775,139.9690535906308L346.3807228915663,144.16725333605845L344.63132530120487,142.98754537173792L342.8819277108434,144.24613971211102L341.13253012048193,143.7067922629836L339.3831325301205,143.3985151269483L337.63373493975905,142.31101552391476L335.88433734939764,141.38802331356254L334.1349397590362,144.00673000846956L332.38554216867476,144.0417019386285L330.6361445783133,144.45590657897748L328.8867469879518,144.5131059819438L327.13734939759036,145.2740796178574L325.38795180722894,145.35505570883043L323.6385542168675,145.5265738377013L321.889156626506,146.43431513835452L320.1397590361446,145.12782595269707L318.3903614457831,143.24378940024155L316.6409638554217,142.87900449634267L314.89156626506025,143.11650792934353L313.14216867469884,144.63484003976174L311.39277108433737,145.2032749133611L309.64337349397596,145.3384362414797L307.8939759036145,145.56979195625902L306.144578313253,145.33271162168865L304.3951807228916,144.39772121126018L302.64578313253014,144.71976448542642L300.89638554216873,145.66648577400295L299.14698795180726,144.90587459007486L297.3975903614458,144.83761303081616L295.6481927710843,146.23642236956098L293.8987951807229,147.52606799338386L292.14939759036145,147.1338914845967L290.40000000000003,148.7326562292195L288.65060240963857,149.15389092137616L286.9012048192771,150.3344661235838L285.1518072289157,150.36865279027012L283.4024096385542,150.4679769006518L281.6530120481928,150.94708954923232L279.90361445783134,150.99533880117903L278.1542168674699,150.1092197691328L276.40481927710846,150.91007423931723L274.655421686747,152.31782575093385L272.9060240963856,151.6558620338554L271.15662650602417,151.23270166331412L269.4072289156627,151.3811117813875L267.65783132530123,152.71485729411725L265.90843373493976,153.92092408390454L264.15903614457835,154.5652563368468L262.4096385542169,154.66108966325166L260.6602409638554,154.18199283495656L258.910843373494,154.22758404234492L257.16144578313254,156.18664054354406L255.4120481927711,155.49725432165567L253.66265060240966,154.8590970815348L251.91325301204824,154.4930122760103L250.16385542168678,155.42483606788292L248.4144578313253,156.50312045988133L246.6650602409639,157.01660230960536L244.91566265060243,156.7370428925765L243.166265060241,156.37598550281015L241.41686746987952,154.10549644433948L239.6674698795181,153.75315626947824L237.91807228915664,154.14689694275458L236.16867469879517,152.4443061072808L234.41927710843376,152.30042033477883L232.66987951807235,153.0117334410134L230.92048192771088,152.26206836753704L229.1710843373494,152.88728586937359L227.42168674698797,153.77783038231436L225.6722891566265,153.57602326903591L223.92289156626506,154.19053574300884L222.17349397590363,155.5341231042189L220.4240963855422,155.9095818681805L218.67469879518075,156.15884359824418L216.9253012048193,157.37527167535112L215.17590361445787,158.3245350986494L213.4265060240964,158.81594162461573L211.67710843373496,158.77025917407656L209.92771084337352,158.88913325218192L208.17831325301208,158.9434432933972L206.42891566265058,159.19839584581197L204.67951807228917,159.31575291701537L202.93012048192773,158.61413296221482L201.18072289156632,159.19390293968326L199.43132530120482,158.44878466941668L197.6819277108434,158.3155437715964L195.93253012048194,158.83338189612337L194.1831325301205,159.47912657206717L192.43373493975903,160.52882940876313L190.6843373493976,161.03126416151107L188.93493975903618,160.2725662323564L187.1855421686747,160.1501362946577L185.43614457831328,160.90040929723546L183.68674698795184,161.88493596704825L181.9373493975904,161.27499150487122L180.18795180722893,160.4514016341982L178.4385542168675,160.00164152620587L176.68915662650605,160.1412227836179L174.93975903614458,160.83193899558955L173.19036144578314,160.9789715172619L171.4409638554217,161.03578693208098L169.69156626506026,162.10132145234533L167.94216867469882,160.3663887654211L166.19277108433738,161.077682471905L164.4433734939759,161.12016679218385L162.69397590361447,161.59196302763996L160.94457831325303,161.85641195770432L159.19518072289156,161.47109544853055L157.44578313253012,162.1950430270641L155.69638554216868,163.30242540144013L153.94698795180724,163.41691242670996L152.1975903614458,163.52281880763144L150.44819277108436,164.5101386350231L148.6987951807229,165.50195623191703L146.94939759036146,165.76383307491983L145.20000000000002,165.35917094016463L143.45060240963855,165.56510326684713L141.70120481927714,166.3961043180623L139.95180722891567,166.21752235897785L138.20240963855423,166.57463796497098L136.4530120481928,166.53786550510515L134.70361445783135,167.07216913066227L132.95421686746988,167.34252208094335L131.20481927710844,167.8910415159991L129.455421686747,168.66934445066659L127.70602409638555,168.17349165882678L125.95662650602412,169.08920650583224L124.20722891566265,168.94521526819418L122.45783132530123,169.21755334801728L120.70843373493976,170.0524842785682L118.95903614457832,169.6084060762374L117.20963855421688,169.95008880570214L115.46024096385544,170.72206994958515L113.71084337349399,170.0703081085754L111.96144578313253,170.62483987233415L110.2120481927711,170.62062118228613L108.46265060240965,171.0683555464189L106.71325301204821,170.80492449444057L104.96385542168676,171.24126158696393L103.21445783132532,171.3426632580342L101.46506024096387,170.50789319156073L99.71566265060241,169.4208051696591L97.96626506024097,170.89700932809356L96.21686746987952,171.62179585660238L94.46746987951809,171.81991496616175L92.71807228915664,172.45645973226178L90.9686746987952,172.94344134393637L89.21927710843374,173.05861451646882L87.46987951807229,173.26856713366567L85.72048192771084,173.87274857617155L83.9710843373494,175.10624678884832L82.22168674698796,176.69133601385178L80.4722891566265,177.31557909758334L78.72289156626506,178.45733667043024L76.97349397590362,179.2381080189294L75.22409638554218,179.79050535737375L73.47469879518073,180.35351832632531L71.72530120481927,180.51283675151186L69.97590361445782,181.01506881725052L68.22650602409638,182.19918215288294L66.47710843373494,183.48896514382244L64.72771084337349,185.0683021992906L62.97831325301205,186.31515472021408L61.22891566265061,187.5471949976656L59.47951807228916,187.96669195584016L57.73012048192772,189.17368856597264L55.980722891566266,190.08179305917693L54.23132530120481,191.21030128868458L52.48192771084337,192.99453890271036L50.732530120481925,193.7003007133131L48.98313253012048,195.28960207821214L47.23373493975903,196.0972722774229L45.4843373493976,197.36792333502657L43.734939759036145,197.09524407739957L41.985542168674705,197.79709128833213L40.23614457831325,198.59389635558958L38.48674698795181,199.8384797081078L36.737349397590364,201.02457490288276L34.98795180722892,202.29172984363495L33.23855421686747,202.94401370648364L31.489156626506023,203.59882265658374L29.73975903614458,204.65224834315174L27.990361445783133,205.41218226881537L26.24096385542169,206.3565360256584L24.491566265060243,207.83005342761442L22.7421686746988,208.94811546660804L20.992771084337353,210.1782252099524L19.243373493975906,210.9862874939901L17.49397590361446,211.741340129093L15.744578313253015,212.72140136201668L13.995180722891567,213.59455962329426L12.245783132530121,214.68822906084003L10.496385542168676,216.32401044539822L8.74698795180723,217.54706147964012L6.997590361445783,218.88436002521286L5.248192771084338,219.77794591955234L3.4987951807228916,220.63975501515668L1.7493975903614458,221.298960976274L0,221.57647522167997Z" class="rv-xy-plot__series rv-xy-plot__series--line" transform="translate(44.4,5)" style="opacity: 1; stroke: rgba(83, 135, 221, 0); fill: rgba(83, 135, 221, 0.1);"/><path d="M0,221.3341475276468L1.7493975903614458,220.71329486118103L3.4987951807228916,219.7246499976349L5.248192771084338,218.23395783055534L6.997590361445783,217.09677292843264L8.74698795180723,216.0111862506326L10.496385542168676,214.671363339188L12.245783132530121,213.23713893121192L13.995180722891567,212.2001020693588L15.744578313253015,210.99650769807482L17.49397590361446,209.9169526849127L19.243373493975906,208.76418900167832L20.992771084337353,207.6998957205433L22.7421686746988,206.34927698994312L24.491566265060243,205.3194443627714L26.24096385542169,204.05340727639694L27.990361445783133,202.6952498332595L29.73975903614458,202.06338664096484L31.489156626506023,200.7459787548554L33.23855421686747,199.68537672187838L34.98795180722892,198.45404578585914L36.737349397590364,197.4236965706169L38.48674698795181,196.5536246738621L40.23614457831325,195.40715031361407L41.985542168674705,194.72917558732414L43.734939759036145,193.4605643918615L45.4843373493976,192.70174273436146L47.23373493975903,191.44837504984943L48.98313253012048,190.23643456515697L50.732530120481925,189.00866008121858L52.48192771084337,187.99433762991612L54.23132530120481,186.5866503919147L55.980722891566266,185.43239630976842L57.73012048192772,184.51238544663806L59.47951807228916,183.3344132566079L61.22891566265061,182.63393702947323L62.97831325301205,181.6848817336665L64.72771084337349,180.41014308975792L66.47710843373494,178.95119349323684L68.22650602409638,177.87616031104457L69.97590361445782,176.61253054830038L71.72530120481927,176.0246385890761L73.47469879518073,175.69872840051573L75.22409638554218,174.61685545007126L76.97349397590362,173.87574132683L78.72289156626506,173.25134765125583L80.4722891566265,171.36774514184054L82.22168674698796,169.77040290925828L83.9710843373494,168.59194182323782L85.72048192771084,167.37090032857884L87.46987951807229,166.93325327677488L89.21927710843374,166.92642948988234L90.9686746987952,166.60604045594167L92.71807228915664,165.8939409715631L94.46746987951809,165.43921638323025L96.21686746987952,165.23980860828772L97.96626506024097,164.6761133460591L99.71566265060241,163.60172723728084L101.46506024096387,163.78005960204507L103.21445783132532,163.662573809102L104.96385542168676,163.02469780028187L106.71325301204821,162.89868567054884L108.46265060240965,162.49201031800916L110.2120481927711,161.0406160041501L111.96144578313253,161.0718968862117L113.71084337349399,160.9991791173999L115.46024096385544,161.504030392809L117.20963855421688,161.3130233312557L118.95903614457832,160.97921205807978L120.70843373493976,161.32352349680633L122.45783132530123,160.3962004157072L124.20722891566265,159.51941982162154L125.95662650602412,159.76399319614632L127.70602409638555,159.49260961693864L129.455421686747,159.1585622332799L131.20481927710844,158.07312598363737L132.95421686746988,156.95069345891002L134.70361445783135,156.35172688842286L136.4530120481928,156.36568213574012L138.20240963855423,156.3504306386435L139.95180722891567,156.40664710190907L141.70120481927714,154.0482230605379L143.45060240963855,153.29641708445902L145.20000000000002,153.37907274080328L146.94939759036146,153.9798111049557L148.6987951807229,153.57345401914253L150.44819277108436,152.1695053090011L152.1975903614458,150.94920507064543L153.94698795180724,150.50080218530113L155.69638554216868,150.78737371731629L157.44578313253012,150.68264642889775L159.19518072289156,150.53453118468911L160.94457831325303,151.08966913414517L162.69397590361447,151.21536192879762L164.4433734939759,151.020642978568L166.19277108433738,151.30402394325512L167.94216867469882,151.13934374854873L169.69156626506026,151.68658279065363L171.4409638554217,151.41726264273987L173.19036144578314,151.11984024645196L174.93975903614458,150.83892139507205L176.68915662650605,150.72313771237134L178.4385542168675,150.5480792395207L180.18795180722893,149.5327003633883L181.9373493975904,149.94547522674495L183.68674698795184,150.09555413416427L185.43614457831328,149.35064775000558L187.1855421686747,149.19331633546565L188.93493975903618,147.44546543535648L190.6843373493976,147.0672795163698L192.43373493975903,147.53452063144516L194.1831325301205,147.3824083525929L195.93253012048194,147.4322439705534L197.6819277108434,147.14575756403926L199.43132530120482,147.07068170687296L201.18072289156632,147.0785432202741L202.93012048192773,146.13905522566426L204.67951807228917,146.18447473376636L206.42891566265058,146.8397998382081L208.17831325301208,146.46865074592574L209.92771084337352,146.9411927906767L211.67710843373496,145.83843337968548L213.4265060240964,145.92950769835858L215.17590361445787,146.0029813569196L216.9253012048193,143.43358383177488L218.67469879518075,143.35012057562034L220.4240963855422,143.888203987639L222.17349397590363,143.82312739604998L223.92289156626506,142.37403287413946L225.6722891566265,142.66571608037512L227.42168674698797,142.975070037883L229.1710843373494,142.44984823741814L230.92048192771088,142.46600696398988L232.66987951807235,143.32947578621406L234.41927710843376,142.6574960720585L236.16867469879517,143.2538363171969L237.91807228915664,143.30939445301195L239.6674698795181,143.1184526165041L241.41686746987952,141.66901907670552L243.166265060241,143.63875617522189L244.91566265060243,143.76203049484755L246.6650602409639,144.33487933566832L248.4144578313253,143.32809245830651L250.16385542168678,142.66730655312676L251.91325301204824,141.78128418314293L253.66265060240966,139.38421172366185L255.4120481927711,139.51147962895485L257.16144578313254,139.5433583717416L258.910843373494,137.23289875699535L260.6602409638554,136.8582572404879L262.4096385542169,136.96194864998535L264.15903614457835,137.58397038429086L265.90843373493976,136.24846241586988L267.65783132530123,134.5063371655091L269.4072289156627,131.6959674902886L271.15662650602417,132.58001105441264L272.9060240963856,132.26916064262076L274.655421686747,133.66125718729913L276.40481927710846,132.208127493775L278.1542168674699,132.7913447094613L279.90361445783134,133.76682422965754L281.6530120481928,134.7119021400603L283.4024096385542,133.2561692631453L285.1518072289157,134.0473498811084L286.9012048192771,134.6776836750527L288.65060240963857,133.15296698125766L290.40000000000003,132.06764679433365L292.14939759036145,131.0469252338378L293.8987951807229,130.87593641953848L295.6481927710843,130.0059292020405L297.3975903614458,129.8234456556788L299.14698795180726,129.0942763928884L300.89638554216873,130.71658314445293L302.64578313253014,130.3519198886772L304.3951807228916,130.5289865087623L306.144578313253,130.06557762801432L307.8939759036145,131.25076170767431L309.64337349397596,131.78595447082432L311.39277108433737,129.3068969076309L313.14216867469884,127.56009402739195L314.89156626506025,126.57467019967557L316.6409638554217,126.62108225647792L318.3903614457831,126.8112595212973L320.1397590361446,128.6740034644735L321.889156626506,129.8497011017077L323.6385542168675,130.04270197542277L325.38795180722894,128.1809932595139L327.13734939759036,127.72441229952739L328.8867469879518,127.66469601374165L330.6361445783133,124.72108861445159L332.38554216867476,124.36088083379421L334.1349397590362,123.26651695504862L335.88433734939764,121.9955136376279L337.63373493975905,122.63218701204828L339.3831325301205,122.37168424640353L341.13253012048193,122.53333192161725L342.8819277108434,124.72893257665083L344.63132530120487,123.6626813879553L346.3807228915663,119.8062461268268L348.13012048192775,116.08257891356318L349.87951807228916,115.98516276248397L351.6289156626506,116.93417119484143L353.37831325301204,116.28734973683287L355.1277108433735,116.6723868431249L356.877108433735,115.7139046107462L358.6265060240964,116.83765935130171L360.37590361445785,115.62753516164626L362.1253012048193,112.66020707623615L363.8746987951808,112.01939066002257L365.6240963855422,112.30822306637967L367.37349397590356,112.501051518176L369.122891566265,112.9773623372244L370.87228915662655,111.93116905626817L372.62168674698796,106.60826166939506L374.3710843373494,107.41199862142217L376.12048192771084,105.4016167668763L377.86987951807225,107.00432684558031L379.61927710843366,106.12277690877389L381.36867469879513,105.29104640834211L383.11807228915666,106.84490598392647L384.86746987951807,108.45642116876084L386.61686746987954,105.87160445853274L388.366265060241,103.9559314036642L390.1156626506024,102.55300297468601L391.8650602409638,103.64688046507074L393.6144578313253,103.50993593663964L395.3638554216867,101.57078800444518L397.11325301204823,100.59383800091535L398.86265060240964,97.41113134205371L400.6120481927711,99.98192006444346L402.3614457831325,100.48233884609049L404.11084337349394,100.12951587780277L405.8602409638554,97.9738186532417L407.6096385542168,96.50806046775217L409.35903614457834,97.3861853095007L411.10843373493975,96.32197167940289L412.85783132530116,93.13577937855676L414.60722891566263,86.82409675588981L416.3566265060241,88.05544934481694L418.1060240963855,87.24286337905657L419.855421686747,86.47853842240477L421.60481927710845,87.14024878206048L423.3542168674699,85.23953918266993L425.1036144578313,86.13205025413245L426.8530120481928,84.0998390380494L428.6024096385542,84.65830331137677L430.3518072289156,84.7848793030925L432.1012048192771,84.14060940428165L433.8506024096385,82.01030295878209L435.6,83.44724556180391" class="rv-xy-plot__series rv-xy-plot__series--line" transform="translate(44.4,5)" style="opacity: 1; stroke-width: 1.5; stroke: rgb(83, 135, 221);"/><path d="M0,220.3017509428359L1.7493975903614458,220.25347809888885L3.4987951807228916,218.87901948320481L5.248192771084338,217.47184042059445L6.997590361445783,216.7015769781557L8.74698795180723,215.31621599589775L10.496385542168676,213.64795750801215L12.245783132530121,212.69079352210463L13.995180722891567,211.25575957548608L15.744578313253015,209.8998778631884L17.49397590361446,208.94257858858612L19.243373493975906,207.90648204238224L20.992771084337353,207.0785459703992L22.7421686746988,205.59126008474132L24.491566265060243,204.38666745924093L26.24096385542169,203.51311896829552L27.990361445783133,202.61225002522758L29.73975903614458,202.09776349756171L31.489156626506023,200.81026289777174L33.23855421686747,200.30385795869415L34.98795180722892,199.3683438185167L36.737349397590364,198.74230978527777L38.48674698795181,197.833559935842L40.23614457831325,196.16796416172335L41.985542168674705,195.13108596852803L43.734939759036145,193.62388163079243L45.4843373493976,191.85410018761527L47.23373493975903,190.44919021086343L48.98313253012048,188.54207712841307L50.732530120481925,187.52646554895668L52.48192771084337,186.24635807565411L54.23132530120481,184.40003001025173L55.980722891566266,183.20612389256792L57.73012048192772,181.69464287846702L59.47951807228916,180.95370800840425L61.22891566265061,179.05117294788255L62.97831325301205,176.7317936395332L64.72771084337349,174.50921543519883L66.47710843373494,173.68282322767752L68.22650602409638,172.64719833931568L69.97590361445782,172.645803455573L71.72530120481927,171.3608758040593L73.47469879518073,170.86822938020654L75.22409638554218,170.20878352368774L76.97349397590362,167.92103678639L78.72289156626506,166.9685006363343L80.4722891566265,167.00206825282768L82.22168674698796,166.17950293860665L83.9710843373494,165.80917331439207L85.72048192771084,165.74706559029738L87.46987951807229,165.1297933251333L89.21927710843374,165.02015589897704L90.9686746987952,164.18117353823806L92.71807228915664,160.1096442456467L94.46746987951809,157.25116111779985L96.21686746987952,156.27367193789414L97.96626506024097,154.63519613490925L99.71566265060241,154.92371584193714L101.46506024096387,153.76829127057232L103.21445783132532,151.7962601078796L104.96385542168676,152.20431541982856L106.71325301204821,150.05559245751812L108.46265060240965,150.17599539191446L110.2120481927711,149.35942477136803L111.96144578313253,147.83843768564097L113.71084337349399,146.2940535575764L115.46024096385544,147.51984591270468L117.20963855421688,148.3504583631026L118.95903614457832,148.7489425602719L120.70843373493976,148.79345880726063L122.45783132530123,148.86166415357732L124.20722891566265,146.89790567526106L125.95662650602412,146.754720032213L127.70602409638555,140.2050996280287L129.455421686747,139.47648121258513L131.20481927710844,140.43080471438955L132.95421686746988,140.8151654361865L134.70361445783135,140.9958473659293L136.4530120481928,141.49411036240545L138.20240963855423,140.3835701799306L139.95180722891567,140.57712758582153L141.70120481927714,140.36756695472715L143.45060240963855,134.264608382647L145.20000000000002,134.19976687527137L146.94939759036146,130.4185890039847L148.6987951807229,131.66514636068322L150.44819277108436,131.5577821317599L152.1975903614458,130.53116091276829L153.94698795180724,127.86359002915275L155.69638554216868,127.03730365419341L157.44578313253012,125.08091651729971L159.19518072289156,125.82393872802066L160.94457831325303,122.78150943171534L162.69397590361447,123.74572473112761L164.4433734939759,124.49803085182366L166.19277108433738,124.19046557847652L167.94216867469882,125.21671376938875L169.69156626506026,126.00103680316886L171.4409638554217,124.54227082746964L173.19036144578314,125.95035425078689L174.93975903614458,127.57235183736032L176.68915662650605,121.39306651656476L178.4385542168675,117.11897524350499L180.18795180722893,116.83382243207382L181.9373493975904,118.70830487913749L183.68674698795184,119.54984638207357L185.43614457831328,117.78054540853974L187.1855421686747,118.29712514809547L188.93493975903618,118.98793095366761L190.6843373493976,115.94472512786449L192.43373493975903,116.4775883908309L194.1831325301205,112.47091494643578L195.93253012048194,112.20666714513781L197.6819277108434,112.63645102535712L199.43132530120482,108.00761823865695L201.18072289156632,109.52170710826877L202.93012048192773,110.49504658727815L204.67951807228917,110.22628314425725L206.42891566265058,113.48223240705782L208.17831325301208,112.60950449970468L209.92771084337352,111.17245331456374L211.67710843373496,112.53625987628415L213.4265060240964,114.86776102624842L215.17590361445787,117.14257214815376L216.9253012048193,117.57692077148394L218.67469879518075,118.70744937987592L220.4240963855422,120.08430286145338L222.17349397590363,120.83549317386155L223.92289156626506,119.29046899947504L225.6722891566265,119.65325753515809L227.42168674698797,120.9726270011349L229.1710843373494,121.856729941396L230.92048192771088,122.33393849591859L232.66987951807235,124.33995951123619L234.41927710843376,124.91712931130948L236.16867469879517,125.31711717062392L237.91807228915664,125.51205587001625L239.6674698795181,126.30808252383682L241.41686746987952,126.07488187268277L243.166265060241,121.1245188979588L244.91566265060243,122.22844458408572L246.6650602409639,120.65220245910453L248.4144578313253,116.40921848051958L250.16385542168678,116.05173169393186L251.91325301204824,115.3823316500253L253.66265060240966,112.67658404961777L255.4120481927711,108.86918572922188L257.16144578313254,106.89337640418063L258.910843373494,107.02855449468424L260.6602409638554,108.0271158713017L262.4096385542169,103.6330191400538L264.15903614457835,101.09725745752971L265.90843373493976,103.15258434856317L267.65783132530123,99.15947141029477L269.4072289156627,100.30132651551322L271.15662650602417,94.25069978199073L272.9060240963856,93.99030595708581L274.655421686747,97.38337266251287L276.40481927710846,99.25798608543565L278.1542168674699,101.07818200303241L279.90361445783134,103.75790957938581L281.6530120481928,104.35387893486696L283.4024096385542,101.54824372615168L285.1518072289157,103.23015560411768L286.9012048192771,105.2512708030032L288.65060240963857,103.18790124411069L290.40000000000003,101.54803673343805L292.14939759036145,103.15987594360305L293.8987951807229,103.2052249178497L295.6481927710843,103.08026375104372L297.3975903614458,98.26694854166185L299.14698795180726,98.69767253874433L300.89638554216873,90.75789227885247L302.64578313253014,85.81690601910087L304.3951807228916,83.88880392011423L306.144578313253,84.68898444118157L307.8939759036145,87.99690002199948L309.64337349397596,86.64344436278938L311.39277108433737,82.76017666694737L313.14216867469884,81.59473644592181L314.89156626506025,82.32354978447833L316.6409638554217,72.12055941837099L318.3903614457831,74.4858609108298L320.1397590361446,78.09966807845909L321.889156626506,74.05703588424339L323.6385542168675,75.2469735138004L325.38795180722894,74.6407027798967L327.13734939759036,72.32665300145104L328.8867469879518,72.19695857278603L330.6361445783133,76.7406445688645L332.38554216867476,77.43547894237193L334.1349397590362,80.8375669443347L335.88433734939764,81.08035228133285L337.63373493975905,77.88984799672974L339.3831325301205,80.59482203395314L341.13253012048193,81.91059245744708L342.8819277108434,81.35507902230489L344.63132530120487,75.44379212468776L346.3807228915663,77.88422303281723L348.13012048192775,73.4716561869705L349.87951807228916,67.2642866149367L351.6289156626506,67.28781805428581L353.37831325301204,67.01242971125387L355.1277108433735,64.21225754112743L356.877108433735,65.8489363871506L358.6265060240964,62.62899574563641L360.37590361445785,62.036346101063L362.1253012048193,60.80738609882312L363.8746987951808,56.53970410688666L365.6240963855422,54.23629747387585L367.37349397590356,51.265825916192185L369.122891566265,54.06225478123651L370.87228915662655,52.290232413072694L372.62168674698796,39.98061203145378L374.3710843373494,39.27113791932446L376.12048192771084,39.95565399422007L377.86987951807225,39.6090873270517L379.61927710843366,37.67304894085967L381.36867469879513,36.96596414679608L383.11807228915666,37.55228459838611L384.86746987951807,40.9267322222549L386.61686746987954,41.31547056164579L388.366265060241,42.698958093033035L390.1156626506024,42.69417129618403L391.8650602409638,42.60930147261175L393.6144578313253,35.56305673258405L395.3638554216867,36.46774835265383L397.11325301204823,39.85171765701464L398.86265060240964,40.784947040514986L400.6120481927711,40.802368188952926L402.3614457831325,39.11203658600809L404.11084337349394,39.309785396156606L405.8602409638554,39.15432375121981L407.6096385542168,33.68893187440344L409.35903614457834,22.77958513077798L411.10843373493975,18.275546485138364L412.85783132530116,25.087802347420492L414.60722891566263,24.82613685405304L416.3566265060241,21.318220766059433L418.1060240963855,27.18329199898836L419.855421686747,18.917964572283097L421.60481927710845,15.015659666570444L423.3542168674699,14.395178073077034L425.1036144578313,13.439039640110442L426.8530120481928,8.925240647347868L428.6024096385542,13.567482915412457L430.3518072289156,10.045143405678257L432.1012048192771,3.064180157221798L433.8506024096385,2.7084484915584763L435.6,0L435.6,102.3717127984681L433.8506024096385,102.62594639378192L432.1012048192771,100.93642055510583L430.3518072289156,103.7720558285289L428.6024096385542,100.81673365531182L426.8530120481928,101.76049476801683L425.1036144578313,104.6539467024636L423.3542168674699,105.25913274057275L421.60481927710845,108.24663252422532L419.855421686747,108.28249807918444L418.1060240963855,109.87677892495859L416.3566265060241,109.09755368785945L414.60722891566263,110.0841807524424L412.85783132530116,109.60366129887335L411.10843373493975,111.07408183416564L409.35903614457834,115.1361110199098L407.6096385542168,117.49150672142095L405.8602409638554,117.69132753853349L404.11084337349394,122.53863207251186L402.3614457831325,121.5819976909625L400.6120481927711,121.77752041690293L398.86265060240964,121.34078393739867L397.11325301204823,125.00531260893756L395.3638554216867,125.31165433848018L393.6144578313253,126.3682833909851L391.8650602409638,125.89323508021425L390.1156626506024,126.23062942771769L388.366265060241,128.6350702789874L386.61686746987954,129.9973348346259L384.86746987951807,127.83821522391149L383.11807228915666,127.96802570769474L381.36867469879513,126.92099997938384L379.61927710843366,128.06341334741643L377.86987951807225,127.05712362863905L376.12048192771084,127.88535679096162L374.3710843373494,127.79021887377324L372.62168674698796,128.6538775604033L370.87228915662655,127.67839664667865L369.122891566265,127.56577437778941L367.37349397590356,127.96818010527396L365.6240963855422,127.41374045230873L363.8746987951808,127.54031923714572L362.1253012048193,127.96743460343811L360.37590361445785,128.61355648502118L358.6265060240964,129.0910556286603L356.877108433735,128.82614851811363L355.1277108433735,127.95073308839736L353.37831325301204,128.872183355761L351.6289156626506,129.28772498456314L349.87951807228916,129.2403614772173L348.13012048192775,129.82839819503542L346.3807228915663,129.77586390840406L344.63132530120487,129.9949201025537L342.8819277108434,131.30200976320927L341.13253012048193,134.86349969971488L339.3831325301205,135.8082495640204L337.63373493975905,136.25636254191866L335.88433734939764,136.71017304472977L334.1349397590362,137.16001353686303L332.38554216867476,136.48076844881743L330.6361445783133,135.84970547480972L328.8867469879518,136.30214293813887L327.13734939759036,137.66377398747278L325.38795180722894,137.48449652684866L323.6385542168675,137.71751641824477L321.889156626506,137.951388127785L320.1397590361446,137.8910494565405L318.3903614457831,138.18700277313005L316.6409638554217,137.86390981895266L314.89156626506025,137.66446208072668L313.14216867469884,136.15121270658486L311.39277108433737,136.20410324993875L309.64337349397596,136.97673755526768L307.8939759036145,136.80788670256595L306.144578313253,136.8923356185061L304.3951807228916,136.6941566053197L302.64578313253014,137.20389759837107L300.89638554216873,138.47488171547144L299.14698795180726,139.13959389917437L297.3975903614458,139.1347907275454L295.6481927710843,141.29679447963312L293.8987951807229,141.35283026235788L292.14939759036145,140.79899893575734L290.40000000000003,141.02007240134043L288.65060240963857,141.08828934763483L286.9012048192771,140.75314735715585L285.1518072289157,141.31071845873743L283.4024096385542,142.62015551821753L281.6530120481928,142.79371431922652L279.90361445783134,143.1085204623604L278.1542168674699,143.9795213575615L276.40481927710846,143.98702651258483L274.655421686747,143.95426706621382L272.9060240963856,144.45170786696391L271.15662650602417,144.12144995551813L269.4072289156627,144.14376043285668L267.65783132530123,143.4911143700366L265.90843373493976,142.97562486952515L264.15903614457835,142.7200821659776L262.4096385542169,143.99182390135567L260.6602409638554,143.53267076966475L258.910843373494,143.32937252109136L257.16144578313254,142.1197267941231L255.4120481927711,142.5284158954419L253.66265060240966,142.87711875237227L251.91325301204824,145.01082105608745L250.16385542168678,145.60308403397866L248.4144578313253,145.58292355023082L246.6650602409639,146.61968625640625L244.91566265060243,145.79431777632195L243.166265060241,146.4016094292631L241.41686746987952,148.87834272922964L239.6674698795181,149.0028138770731L237.91807228915664,149.58358282182965L236.16867469879517,150.77599840244028L234.41927710843376,151.5452563562489L232.66987951807235,152.75246013301128L230.92048192771088,152.47447686638623L229.1710843373494,152.13670990335896L227.42168674698797,151.32039456353573L225.6722891566265,151.73963120257116L223.92289156626506,150.97337150713153L222.17349397590363,152.20301568109468L220.4240963855422,153.12113523440976L218.67469879518075,152.88161003262732L216.9253012048193,152.78334154868762L215.17590361445787,152.6255648533978L213.4265060240964,152.73455863444522L211.67710843373496,152.1776347972904L209.92771084337352,151.93204436163148L208.17831325301208,152.30118004437008L206.42891566265058,152.88943309208602L204.67951807228917,153.2380334148502L202.93012048192773,153.84192067474692L201.18072289156632,153.03107906879833L199.43132530120482,153.14132734867695L197.6819277108434,152.65419781644562L195.93253012048194,153.32032811825584L194.1831325301205,152.003542469998L192.43373493975903,152.6018003465883L190.6843373493976,153.63190200839477L188.93493975903618,153.81948765704433L187.1855421686747,154.73032917077623L185.43614457831328,154.9234294327062L183.68674698795184,156.07258229335608L181.9373493975904,156.32566024942997L180.18795180722893,156.91300614385344L178.4385542168675,156.54566286176444L176.68915662650605,156.47865260875943L174.93975903614458,157.99531275888944L173.19036144578314,156.54017327056474L171.4409638554217,156.99597334971546L169.69156626506026,158.08428758726623L167.94216867469882,158.82432904501448L166.19277108433738,159.41990619457962L164.4433734939759,160.03246478338096L162.69397590361447,159.90843599363674L160.94457831325303,160.0998789327743L159.19518072289156,160.68076398644445L157.44578313253012,158.73595582187738L155.69638554216868,158.18928757982638L153.94698795180724,157.86268871678627L152.1975903614458,158.526896965831L150.44819277108436,158.69737836306396L148.6987951807229,159.8299285044492L146.94939759036146,160.92017656597542L145.20000000000002,161.62778546610815L143.45060240963855,161.64673331307588L141.70120481927714,162.32754385959075L139.95180722891567,162.68933979153186L138.20240963855423,163.3352751538416L136.4530120481928,164.1483681430924L134.70361445783135,164.98768470121294L132.95421686746988,166.0049829348942L131.20481927710844,165.5083245317153L129.455421686747,166.31516105605962L127.70602409638555,166.10753504862382L125.95662650602412,165.75499037502738L124.20722891566265,165.83803369838026L122.45783132530123,166.64871206699968L120.70843373493976,167.29758953326703L118.95903614457832,167.7985633844347L117.20963855421688,169.1686914164343L115.46024096385544,169.18705726136548L113.71084337349399,169.46014823161764L111.96144578313253,170.7115114486243L110.2120481927711,170.6135515111693L108.46265060240965,170.53960756929953L106.71325301204821,170.69689403751863L104.96385542168676,171.70824080871756L103.21445783132532,171.93050249232127L101.46506024096387,172.608314695843L99.71566265060241,173.1101937027581L97.96626506024097,174.48654774289278L96.21686746987952,175.43270467612615L94.46746987951809,176.57111814061474L92.71807228915664,177.5200433190755L90.9686746987952,178.51589073273828L89.21927710843374,179.9423222985319L87.46987951807229,180.89558882654254L85.72048192771084,181.72227850967042L83.9710843373494,182.12973407892775L82.22168674698796,182.36993552585866L80.4722891566265,183.45750918438682L78.72289156626506,183.3459066964869L76.97349397590362,183.84172234427902L75.22409638554218,184.5998901971934L73.47469879518073,185.28317257076972L71.72530120481927,186.211854104301L69.97590361445782,186.73426082269003L68.22650602409638,187.59765979687663L66.47710843373494,188.49728810801446L64.72771084337349,189.37193312062533L62.97831325301205,190.3423558087346L61.22891566265061,191.84896500170817L59.47951807228916,193.17213461435497L57.73012048192772,192.90850596316682L55.980722891566266,194.445504378302L54.23132530120481,195.61457008828702L52.48192771084337,196.82830352499963L50.732530120481925,197.6135659470263L48.98313253012048,198.01367583938747L47.23373493975903,198.35293796245978L45.4843373493976,199.2151472991768L43.734939759036145,200.0081397305939L41.985542168674705,201.2431833114147L40.23614457831325,202.04975715691504L38.48674698795181,203.02481265733218L36.737349397590364,203.8376171799529L34.98795180722892,204.7613031440615L33.23855421686747,205.3870644892485L31.489156626506023,206.342325291094L29.73975903614458,207.638889659599L27.990361445783133,208.27922939931065L26.24096385542169,208.84940522177385L24.491566265060243,209.06351469280952L22.7421686746988,209.80619284088579L20.992771084337353,211.0647407201407L19.243373493975906,212.18049791750124L17.49397590361446,213.68848361705105L15.744578313253015,214.9008971151685L13.995180722891567,215.72603954578378L12.245783132530121,216.90712625275793L10.496385542168676,217.03770999307852L8.74698795180723,217.78624577259586L6.997590361445783,218.6389754200497L5.248192771084338,219.29685405926978L3.4987951807228916,220.703033826212L1.7493975903614458,221.50976528883052L0,221.8195160374907Z" class="rv-xy-plot__series rv-xy-plot__series--line" transform="translate(44.4,5)" style="opacity: 1; stroke: rgba(218, 76, 76, 0); fill: rgba(218, 76, 76, 0.1);"/><path d="M0,221.24204985669613L1.7493975903614458,220.902128580569L3.4987951807228916,219.77693959461115L5.248192771084338,218.4614185863688L6.997590361445783,217.70765124793232L8.74698795180723,216.71102969724836L10.496385542168676,215.61270582248198L12.245783132530121,214.82953497834876L13.995180722891567,213.4367884175435L15.744578313253015,212.17477423533023L17.49397590361446,211.16706135478432L19.243373493975906,209.92938057844358L20.992771084337353,208.93607727199077L22.7421686746988,207.58228154136896L24.491566265060243,206.78354307595282L26.24096385542169,206.27793702415266L27.990361445783133,205.4303591488874L29.73975903614458,204.82368092190515L31.489156626506023,203.60910862525836L33.23855421686747,202.8965364936082L34.98795180722892,202.08713955764034L36.737349397590364,201.32366815796726L38.48674698795181,200.52590565676368L40.23614457831325,199.2064104084919L41.985542168674705,198.32786960505632L43.734939759036145,197.07112001591491L45.4843373493976,195.8938958619355L47.23373493975903,194.70631524894603L48.98313253012048,193.4317416843789L50.732530120481925,192.68907652308528L52.48192771084337,191.53202593706763L54.23132530120481,190.2178080562418L55.980722891566266,189.05336728562528L57.73012048192772,187.64093947561454L59.47951807228916,187.16753736506104L61.22891566265061,185.60666467295195L62.97831325301205,183.7939728559447L64.72771084337349,182.20750925131088L66.47710843373494,181.2078615421138L68.22650602409638,180.16319370859833L69.97590361445782,179.70923111679332L71.72530120481927,178.709334412508L73.47469879518073,177.9626442470688L75.22409638554218,177.42257171716707L76.97349397590362,176.14698933283938L78.72289156626506,175.49479102233133L80.4722891566265,175.3150424138899L82.22168674698796,174.44776307320964L83.9710843373494,173.9072111822345L85.72048192771084,173.52706178675862L87.46987951807229,172.61595950311332L89.21927710843374,172.21877726108073L90.9686746987952,171.02718940599058L92.71807228915664,169.09797119237453L94.46746987951809,167.42497992734047L96.21686746987952,166.57350471729583L97.96626506024097,165.39785587153673L99.71566265060241,164.80427777083997L101.46506024096387,164.06412720450638L103.21445783132532,162.79481133738568L104.96385542168676,162.68619101969486L106.71325301204821,161.1730206952548L108.46265060240965,161.20632322294284L110.2120481927711,160.7426008837728L111.96144578313253,159.63379734821854L113.71084337349399,157.94762035989476L115.46024096385544,158.43684066112388L117.20963855421688,159.01649482253438L118.95903614457832,158.5257580632165L120.70843373493976,158.42159502925534L122.45783132530123,158.0114813875827L124.20722891566265,156.88646979882475L125.95662650602412,156.62236109224054L127.70602409638555,154.34676534510976L129.455421686747,153.82870332686474L131.20481927710844,153.76996069729302L132.95421686746988,154.00745852079694L134.70361445783135,153.60211036525232L136.4530120481928,153.41419029376118L138.20240963855423,152.4213086443354L139.95180722891567,152.19536453964668L141.70120481927714,151.84125597849314L143.45060240963855,149.59646511410526L145.20000000000002,149.2339619810996L146.94939759036146,146.77421298781496L148.6987951807229,146.77178236368042L150.44819277108436,146.21615533291595L152.1975903614458,145.79977568931068L153.94698795180724,144.75136775657649L155.69638554216868,144.16256015171075L157.44578313253012,143.3937409093098L159.19518072289156,144.5097120596828L160.94457831325303,143.18785831933613L162.69397590361447,143.6501533645511L164.4433734939759,144.13293975344266L166.19277108433738,143.84006312139215L167.94216867469882,144.09921407940243L169.69156626506026,143.91755225792946L171.4409638554217,142.71648177867354L173.19036144578314,142.8434554322016L174.93975903614458,144.1217028308469L176.68915662650605,141.3074109910824L178.4385542168675,140.06989463902957L180.18795180722893,139.95051998101664L181.9373493975904,140.26258965507455L183.68674698795184,140.09580709536073L185.43614457831328,139.0778990484816L187.1855421686747,139.3395997047326L188.93493975903618,138.9306321487181L190.6843373493976,137.772292268318L192.43373493975903,137.50030270057846L194.1831325301205,135.90009392331012L195.93253012048194,136.32019730082297L197.6819277108434,135.4831922374525L199.43132530120482,134.46330497487597L201.18072289156632,135.2191419612175L202.93012048192773,136.06836899287538L204.67951807228917,135.1914348766168L206.42891566265058,136.31937101518835L208.17831325301208,135.7093646750726L209.92771084337352,135.14990112044214L211.67710843373496,135.97097348925024L213.4265060240964,137.01184753220383L215.17590361445787,137.96643421173994L216.9253012048193,138.17070788007084L218.67469879518075,138.83280658011884L220.4240963855422,139.62052214356547L222.17349397590363,139.2602505337984L223.92289156626506,138.10464361935908L225.6722891566265,138.23489941126272L227.42168674698797,138.2712093567362L229.1710843373494,139.1524984356624L230.92048192771088,139.09894442426875L232.66987951807235,139.95452467701315L234.41927710843376,139.42983467008034L236.16867469879517,138.98816093170402L237.91807228915664,138.46134324567035L239.6674698795181,138.37447279361024L241.41686746987952,138.1983399358985L243.166265060241,134.87814531358487L244.91566265060243,134.9139561701568L246.6650602409639,134.49600634377032L248.4144578313253,131.96405954946724L250.16385542168678,131.9330859021025L251.91325301204824,131.13601503231138L253.66265060240966,128.73215656736758L255.4120481927711,127.26638141420084L257.16144578313254,126.38882395800906L258.910843373494,126.91706364889981L260.6602409638554,127.33020981747357L262.4096385542169,125.86057452943679L264.15903614457835,124.49170815446509L265.90843373493976,125.47837044978571L267.65783132530123,124.82174950839226L269.4072289156627,125.23570263292132L271.15662650602417,123.37724979358212L272.9060240963856,123.3688620693445L274.655421686747,124.45318247101982L276.40481927710846,125.2932989631148L278.1542168674699,125.91174841944125L279.90361445783134,126.49655826956293L281.6530120481928,126.22696908494551L283.4024096385542,125.36334414451868L285.1518072289157,125.31478834982775L286.9012048192771,125.79987352816042L288.65060240963857,125.41953629432957L290.40000000000003,124.65882125299038L292.14939759036145,125.21118006520173L293.8987951807229,125.66599112535027L295.6481927710843,125.01890544312536L297.3975903614458,121.86046436399982L299.14698795180726,122.22580901825629L300.89638554216873,119.15062331924855L302.64578313253014,116.57035975168598L304.3951807228916,114.37941458627249L306.144578313253,114.36500168037101L307.8939759036145,115.64900940459333L309.64337349397596,115.13411775489783L311.39277108433737,112.4787222042073L313.14216867469884,111.93682330751574L314.89156626506025,113.17266368808178L316.6409638554217,110.11189958343918L318.3903614457831,111.0806919020601L320.1397590361446,112.2070102610458L321.889156626506,111.18877496362401L323.6385542168675,111.13325879039775L325.38795180722894,110.46507825862662L327.13734939759036,110.20401538814237L328.8867469879518,109.26306269683268L330.6361445783133,110.67093527328338L332.38554216867476,110.55503724249755L334.1349397590362,112.53099265264359L335.88433734939764,112.52869803733049L337.63373493975905,111.3018657092441L339.3831325301205,111.69940793907105L341.13253012048193,111.76734703183912L342.8819277108434,109.61707114386056L344.63132530120487,106.73868207790997L346.3807228915663,107.2719737014169L348.13012048192775,106.23504612825802L349.87951807228916,101.6149903700769L351.6289156626506,101.21332009527937L353.37831325301204,100.9846287683602L355.1277108433735,100.03848942666983L356.877108433735,100.33001409068326L358.6265060240964,99.3857074795774L360.37590361445785,99.05655824645467L362.1253012048193,98.13125567242159L363.8746987951808,95.78704066266619L365.6240963855422,95.67392654618853L367.37349397590356,94.4712626971502L369.122891566265,95.57854357295618L370.87228915662655,95.28068890722587L372.62168674698796,91.71057580696919L374.3710843373494,91.16726664847882L376.12048192771084,90.1164889297533L377.86987951807225,89.37900700350261L379.61927710843366,90.2008685672219L381.36867469879513,89.68927783039216L383.11807228915666,89.87339177983006L384.86746987951807,91.21406938973922L386.61686746987954,92.2081815684391L388.366265060241,92.0738209324754L390.1156626506024,91.18249534146219L391.8650602409638,91.58486861407103L393.6144578313253,88.94465084678116L395.3638554216867,87.81761502847382L397.11325301204823,88.80546454319557L398.86265060240964,87.24605164313374L400.6120481927711,86.06635951500097L402.3614457831325,85.66964248172981L404.11084337349394,84.4492928476628L405.8602409638554,81.60696005464636L407.6096385542168,79.8760827790355L409.35903614457834,74.066094988702L411.10843373493975,70.65351974797454L412.85783132530116,72.70392486132955L414.60722891566263,73.46226950556064L416.3566265060241,72.34499142736108L418.1060240963855,75.50125917108282L419.855421686747,72.25698167329925L421.60481927710845,70.98252496994823L423.3542168674699,69.26625773204714L425.1036144578313,68.7267666005693L426.8530120481928,62.43979108829264L428.6024096385542,63.24738733874111L430.3518072289156,62.24320765245462L432.1012048192771,58.33195701608832L433.8506024096385,58.008479206334L435.6,57.44403893497972" class="rv-xy-plot__series rv-xy-plot__series--line" transform="translate(44.4,5)" style="opacity: 1; stroke-width: 1.5; stroke: rgb(218, 76, 76);"/><g class="rv-xy-plot__series rv-xy-plot__series--mark" transform="translate(44.4,5)"><circle r="2" cx="435.6" cy="57.44403893497972" style="opacity: 1; stroke: rgb(218, 76, 76); fill: rgb(218, 76, 76); stroke-width: 1;"/></g><g class="rv-xy-plot__series rv-xy-plot__series--mark" transform="translate(44.4,5)"><circle r="2" cx="435.6" cy="83.44724556180391" style="opacity: 1; stroke: rgb(83, 135, 221); fill: rgb(83, 135, 221); stroke-width: 1;"/></g><defs class="rv-gradient-defs"><linearGradient id="leftFadeGradient" x1="0" x2="1" y1="0" y2="0"><stop offset="0%" stop-color="white" stop-opacity="1"/><stop offset="60%" stop-color="white" stop-opacity="1"/><stop offset="100%" stop-color="white" stop-opacity="0"/></linearGradient><linearGradient id="rightFadeGradient" x1="1" x2="0" y1="0" y2="0"><stop offset="0%" stop-color="white" stop-opacity="1"/><stop offset="100%" stop-color="white" stop-opacity="0"/></linearGradient><linearGradient id="bottomFadeGradient" x1="0" x2="0" y1="1" y2="0"><stop offset="0%" stop-color="white" stop-opacity="1"/><stop offset="40%" stop-color="white" stop-opacity="1"/><stop offset="100%" stop-color="white" stop-opacity="0"/></linearGradient><linearGradient id="topFadeGradient" x1="0" x2="0" y1="0" y2="1"><stop offset="0%" stop-color="white" stop-opacity="1"/><stop offset="100%" stop-color="white" stop-opacity="0"/></linearGradient></defs><g class="rv-xy-plot__borders plot-border"><rect class="rv-xy-plot__borders-bottom plot-border-bottom" x="0" y="228" width="500" height="30" style="fill: url(&quot;#bottomFadeGradient&quot;); opacity: 1;"/><rect class="rv-xy-plot__borders-left plot-border-left" x="0" y="0" width="44.4" height="258" style="fill: url(&quot;#leftFadeGradient&quot;); opacity: 1;"/><rect class="rv-xy-plot__borders-right plot-border-right" x="480" y="0" width="20" height="258" style="fill: url(&quot;#rightFadeGradient&quot;); opacity: 1;"/><rect class="rv-xy-plot__borders-top plot-border-top" x="0" y="0" width="500" height="5" style="fill: url(&quot;#topFadeGradient&quot;); opacity: 1;"/></g><g transform="translate(44.4,228)" class="rv-xy-plot__axis rv-xy-plot__axis--horizontal"><line x1="0" x2="435.6" y1="0" y2="0" class="rv-xy-plot__axis__line"/><g transform="translate(0, 0)" class="rv-xy-plot__axis__ticks"/></g><g transform="translate(44.4,228)" class="rv-xy-plot__axis rv-xy-plot__axis--horizontal" style="font-family: &quot;Source Sans Pro&quot;; fill: rgb(107, 107, 118); font-size: 14px;"><line x1="0" x2="435.6" y1="0" y2="0" class="rv-xy-plot__axis__line" style="font-family: &quot;Source Sans Pro&quot;; fill: rgb(107, 107, 118); font-size: 14px; stroke-width: 0;"/><g transform="translate(0, 0)" class="rv-xy-plot__axis__ticks"><g transform="translate(86.59015329435246, 0)" class="rv-xy-plot__axis__tick" style="font-family: &quot;Source Sans Pro&quot;; fill: rgb(107, 107, 118); font-size: 14px;"><line x1="0" x2="0" y1="-6" y2="6" class="rv-xy-plot__axis__tick__line" style="font-family: &quot;Source Sans Pro&quot;; fill: rgb(107, 107, 118); font-size: 14px; stroke-width: 0;"/><text text-anchor="middle" dy="0.72em" transform="translate(0, 14)" class="rv-xy-plot__axis__tick__text" style="font-family: sans-serif; fill: rgb(107, 107, 118); font-size: 14px;">2M</text></g><g transform="translate(174.09978843967127, 0)" class="rv-xy-plot__axis__tick" style="font-family: &quot;Source Sans Pro&quot;; fill: rgb(107, 107, 118); font-size: 14px;"><line x1="0" x2="0" y1="-6" y2="6" class="rv-xy-plot__axis__tick__line" style="font-family: &quot;Source Sans Pro&quot;; fill: rgb(107, 107, 118); font-size: 14px; stroke-width: 0;"/><text text-anchor="middle" dy="0.72em" transform="translate(0, 14)" class="rv-xy-plot__axis__tick__text" style="font-family: sans-serif; fill: rgb(107, 107, 118); font-size: 14px;">4M</text></g><g transform="translate(261.6094235849901, 0)" class="rv-xy-plot__axis__tick" style="font-family: &quot;Source Sans Pro&quot;; fill: rgb(107, 107, 118); font-size: 14px;"><line x1="0" x2="0" y1="-6" y2="6" class="rv-xy-plot__axis__tick__line" style="font-family: &quot;Source Sans Pro&quot;; fill: rgb(107, 107, 118); font-size: 14px; stroke-width: 0;"/><text text-anchor="middle" dy="0.72em" transform="translate(0, 14)" class="rv-xy-plot__axis__tick__text" style="font-family: sans-serif; fill: rgb(107, 107, 118); font-size: 14px;">6M</text></g><g transform="translate(349.1190587303089, 0)" class="rv-xy-plot__axis__tick" style="font-family: &quot;Source Sans Pro&quot;; fill: rgb(107, 107, 118); font-size: 14px;"><line x1="0" x2="0" y1="-6" y2="6" class="rv-xy-plot__axis__tick__line" style="font-family: &quot;Source Sans Pro&quot;; fill: rgb(107, 107, 118); font-size: 14px; stroke-width: 0;"/><text text-anchor="middle" dy="0.72em" transform="translate(0, 14)" class="rv-xy-plot__axis__tick__text" style="font-family: sans-serif; fill: rgb(107, 107, 118); font-size: 14px;">8M</text></g></g><g transform="translate(0, 0)" class="rv-xy-plot__axis__title"><g transform="translate(429.6, -6) rotate(0)" style="text-anchor: end; font-family: &quot;Source Sans Pro&quot;; fill: rgb(107, 107, 118); font-size: 14px;"><text style="font-family: sans-serif; fill: rgb(107, 107, 118); font-size: 14px;"> Steps</text></g></g></g><g transform="translate(44.4,228)" class="rv-xy-plot__axis rv-xy-plot__axis--horizontal"><line x1="0" x2="0" y1="0" y2="0" class="rv-xy-plot__axis__line"/><g transform="translate(0, 0)" class="rv-xy-plot__axis__ticks"><g transform="translate(86.59015329435246, 0)" class="rv-xy-plot__axis__tick"><line x1="0" x2="0" y1="-6" y2="6" class="rv-xy-plot__axis__tick__line"/><text text-anchor="middle" dy="0.72em" transform="translate(0, 14)" class="rv-xy-plot__axis__tick__text" style="font-family: sans-serif;"/></g><g transform="translate(174.09978843967127, 0)" class="rv-xy-plot__axis__tick"><line x1="0" x2="0" y1="-6" y2="6" class="rv-xy-plot__axis__tick__line"/><text text-anchor="middle" dy="0.72em" transform="translate(0, 14)" class="rv-xy-plot__axis__tick__text" style="font-family: sans-serif;"/></g><g transform="translate(261.6094235849901, 0)" class="rv-xy-plot__axis__tick"><line x1="0" x2="0" y1="-6" y2="6" class="rv-xy-plot__axis__tick__line"/><text text-anchor="middle" dy="0.72em" transform="translate(0, 14)" class="rv-xy-plot__axis__tick__text" style="font-family: sans-serif;"/></g><g transform="translate(349.1190587303089, 0)" class="rv-xy-plot__axis__tick"><line x1="0" x2="0" y1="-6" y2="6" class="rv-xy-plot__axis__tick__line"/><text text-anchor="middle" dy="0.72em" transform="translate(0, 14)" class="rv-xy-plot__axis__tick__text" style="font-family: sans-serif;"/></g></g></g><g transform="translate(0,5)" class="rv-xy-plot__axis rv-xy-plot__axis--vertical" style="font-family: &quot;Source Sans Pro&quot;; fill: rgb(107, 107, 118); font-size: 14px;"><line x1="44.4" x2="44.4" y1="0" y2="223" class="rv-xy-plot__axis__line" style="font-family: &quot;Source Sans Pro&quot;; fill: rgb(107, 107, 118); font-size: 14px; stroke: none;"/><g transform="translate(44.4, 0)" class="rv-xy-plot__axis__ticks"><g transform="translate(0, 223)" class="rv-xy-plot__axis__tick" style="font-family: &quot;Source Sans Pro&quot;; fill: rgb(107, 107, 118); font-size: 14px;"><line y1="0" y2="0" x1="6" x2="-6" class="rv-xy-plot__axis__tick__line" style="font-family: &quot;Source Sans Pro&quot;; fill: rgb(107, 107, 118); font-size: 14px; stroke: none;"/><text text-anchor="end" dy="0.32em" transform="translate(-14, 0)" class="rv-xy-plot__axis__tick__text" style="font-family: sans-serif; fill: rgb(107, 107, 118); font-size: 14px;">0</text></g><g transform="translate(0, 163.97580187453522)" class="rv-xy-plot__axis__tick" style="font-family: &quot;Source Sans Pro&quot;; fill: rgb(107, 107, 118); font-size: 14px;"><line y1="0" y2="0" x1="6" x2="-6" class="rv-xy-plot__axis__tick__line" style="font-family: &quot;Source Sans Pro&quot;; fill: rgb(107, 107, 118); font-size: 14px; stroke: none;"/><text text-anchor="end" dy="0.32em" transform="translate(-14, 0)" class="rv-xy-plot__axis__tick__text" style="font-family: sans-serif; fill: rgb(107, 107, 118); font-size: 14px;">50</text></g><g transform="translate(0, 104.95160374907047)" class="rv-xy-plot__axis__tick" style="font-family: &quot;Source Sans Pro&quot;; fill: rgb(107, 107, 118); font-size: 14px;"><line y1="0" y2="0" x1="6" x2="-6" class="rv-xy-plot__axis__tick__line" style="font-family: &quot;Source Sans Pro&quot;; fill: rgb(107, 107, 118); font-size: 14px; stroke: none;"/><text text-anchor="end" dy="0.32em" transform="translate(-14, 0)" class="rv-xy-plot__axis__tick__text" style="font-family: sans-serif; fill: rgb(107, 107, 118); font-size: 14px;">100</text></g><g transform="translate(0, 45.927405623605694)" class="rv-xy-plot__axis__tick" style="font-family: &quot;Source Sans Pro&quot;; fill: rgb(107, 107, 118); font-size: 14px;"><line y1="0" y2="0" x1="6" x2="-6" class="rv-xy-plot__axis__tick__line" style="font-family: &quot;Source Sans Pro&quot;; fill: rgb(107, 107, 118); font-size: 14px; stroke: none;"/><text text-anchor="end" dy="0.32em" transform="translate(-14, 0)" class="rv-xy-plot__axis__tick__text" style="font-family: sans-serif; fill: rgb(107, 107, 118); font-size: 14px;">150</text></g></g><g transform="translate(44.4, 0)" class="rv-xy-plot__axis__title"><g transform="translate(16, 6) rotate(-90)" style="text-anchor: end; font-family: &quot;Source Sans Pro&quot;; fill: rgb(107, 107, 118); font-size: 14px;"><text style="font-family: sans-serif; fill: rgb(107, 107, 118); font-size: 14px;">Episodic Return</text></g></g></g></svg></g><style xmlns="http://www.w3.org/1999/xhtml">/*&lt;![CDATA[*/<br />text { font-size: 10px; fill: black }<br />.react-vis-magic-css-import-rule{display:inherit}.rv-treemap{font-size:12px;position:relative}.rv-treemap__leaf{overflow:hidden;position:absolute}.rv-treemap__leaf--circle{align-items:center;border-radius:100%;display:flex;justify-content:center}.rv-treemap__leaf__content{overflow:hidden;padding:10px;text-overflow:ellipsis}.rv-xy-plot{color:#c3c3c3;position:relative}.rv-xy-plot canvas{pointer-events:none}.rv-xy-plot .rv-xy-canvas{pointer-events:none;position:absolute}.rv-xy-plot__inner{display:block}.rv-xy-plot__axis__line{fill:none;stroke-width:2px;stroke:#e6e6e9}.rv-xy-plot__axis__tick__line{stroke:#e6e6e9}.rv-xy-plot__axis__tick__text{fill:#6b6b76;font-size:11px}.rv-xy-plot__axis__title text{fill:#6b6b76;font-size:11px}.rv-xy-plot__grid-lines__line{stroke:#e6e6e9}.rv-xy-plot__circular-grid-lines__line{fill-opacity:0;stroke:#e6e6e9}.rv-xy-plot__series,.rv-xy-plot__series path{pointer-events:all}.rv-xy-plot__series--line{fill:none;stroke:#000;stroke-width:2px}.rv-crosshair{position:absolute;font-size:11px;pointer-events:none}.rv-crosshair__line{background:#47d3d9;width:1px}.rv-crosshair__inner{position:absolute;text-align:left;top:0}.rv-crosshair__inner__content{border-radius:4px;background:#3a3a48;color:#fff;font-size:12px;padding:7px 10px;box-shadow:0 2px 4px rgba(0,0,0,0.5)}.rv-crosshair__inner--left{right:4px}.rv-crosshair__inner--right{left:4px}.rv-crosshair__title{font-weight:bold;white-space:nowrap}.rv-crosshair__item{white-space:nowrap}.rv-hint{position:absolute;pointer-events:none}.rv-hint__content{border-radius:4px;padding:7px 10px;font-size:12px;background:#3a3a48;box-shadow:0 2px 4px rgba(0,0,0,0.5);color:#fff;text-align:left;white-space:nowrap}.rv-discrete-color-legend{box-sizing:border-box;overflow-y:auto;font-size:12px}.rv-discrete-color-legend.horizontal{white-space:nowrap}.rv-discrete-color-legend-item{color:#3a3a48;border-radius:1px;padding:9px 10px}.rv-discrete-color-legend-item.horizontal{display:inline-block}.rv-discrete-color-legend-item.horizontal .rv-discrete-color-legend-item__title{margin-left:0;display:block}.rv-discrete-color-legend-item__color{display:inline-block;vertical-align:middle;overflow:visible}.rv-discrete-color-legend-item__color__path{stroke:#dcdcdc;stroke-width:2px}.rv-discrete-color-legend-item__title{margin-left:10px}.rv-discrete-color-legend-item.disabled{color:#b8b8b8}.rv-discrete-color-legend-item.clickable{cursor:pointer}.rv-discrete-color-legend-item.clickable:hover{background:#f9f9f9}.rv-search-wrapper{display:flex;flex-direction:column}.rv-search-wrapper__form{flex:0}.rv-search-wrapper__form__input{width:100%;color:#a6a6a5;border:1px solid #e5e5e4;padding:7px 10px;font-size:12px;box-sizing:border-box;border-radius:2px;margin:0 0 9px;outline:0}.rv-search-wrapper__contents{flex:1;overflow:auto}.rv-continuous-color-legend{font-size:12px}.rv-continuous-color-legend .rv-gradient{height:4px;border-radius:2px;margin-bottom:5px}.rv-continuous-size-legend{font-size:12px}.rv-continuous-size-legend .rv-bubbles{text-align:justify;overflow:hidden;margin-bottom:5px;width:100%}.rv-continuous-size-legend .rv-bubble{background:#d8d9dc;display:inline-block;vertical-align:bottom}.rv-continuous-size-legend .rv-spacer{display:inline-block;font-size:0;line-height:0;width:100%}.rv-legend-titles{height:16px;position:relative}.rv-legend-titles__left,.rv-legend-titles__right,.rv-legend-titles__center{position:absolute;white-space:nowrap;overflow:hidden}.rv-legend-titles__center{display:block;text-align:center;width:100%}.rv-legend-titles__right{right:0}.rv-radial-chart .rv-xy-plot__series--label{pointer-events:none}<br /><br />/*]]&gt;*/</style></svg>