<svg xmlns="http://www.w3.org/2000/svg" viewBox="0 0 499.9999694824219 300"><g><text x="50%" y="0" style="fill: rgb(54, 58, 61); dominant-baseline: text-before-edge; text-anchor: middle; font-weight: bold; font-size: 13px; font-family: sans-serif;">BreakoutNoFrameskip-v4</text><svg viewBox="0 0 1024 1024" x="109.59375" y="25.90625" height="11" width="11"><path d="M128 533.333h768c23.564 0 42.667-19.103 42.667-42.667v-85.333c0-23.564-19.103-42.667-42.667-42.667h-768c-23.564 0-42.667 19.103-42.667 42.667v85.333c0 23.564 19.103 42.667 42.667 42.667z" style="fill: rgb(215, 62, 62);"/></svg><text x="128.59375" y="23.90625" style="fill: rgb(215, 62, 62); dominant-baseline: text-before-edge; font-size: 11px; font-family: sans-serif;">openai/baselines' PPO</text><svg viewBox="0 0 1024 1024" x="318.571044921875" y="25.90625" height="11" width="11"><path d="M128 533.333h768c23.564 0 42.667-19.103 42.667-42.667v-85.333c0-23.564-19.103-42.667-42.667-42.667h-768c-23.564 0-42.667 19.103-42.667 42.667v85.333c0 23.564 19.103 42.667 42.667 42.667z" style="fill: rgb(56, 116, 216);"/></svg><text x="337.571044921875" y="23.90625" style="fill: rgb(56, 116, 216); dominant-baseline: text-before-edge; font-size: 11px; font-family: sans-serif;">our PPO</text></g><g transform="translate(0, 41.50567626953125)"><svg class="rv-xy-plot__inner" width="500" height="258"><g transform="translate(44.4,5)" class="rv-xy-plot__grid-lines"><line y1="223" y2="223" x1="0" x2="435.6" class="rv-xy-plot__grid-lines__line" style="stroke-width: 0.5;"/><line y1="172.08590283741574" y2="172.08590283741574" x1="0" x2="435.6" class="rv-xy-plot__grid-lines__line" style="stroke-width: 0.5;"/><line y1="121.1718056748315" y2="121.1718056748315" x1="0" x2="435.6" class="rv-xy-plot__grid-lines__line" style="stroke-width: 0.5;"/><line y1="70.25770851224726" y2="70.25770851224726" x1="0" x2="435.6" class="rv-xy-plot__grid-lines__line" style="stroke-width: 0.5;"/><line y1="19.343611349662996" y2="19.343611349662996" x1="0" x2="435.6" class="rv-xy-plot__grid-lines__line" style="stroke-width: 0.5;"/></g><path d="M0,222.10900329965477L1.7493975903614458,221.7461302972345L3.4987951807228916,221.20988808118622L5.248192771084337,220.68208997634972L6.997590361445783,220.0336256980589L8.74698795180723,219.38871270462957L10.496385542168674,218.99422162091435L12.245783132530123,218.5643511030496L13.995180722891567,218.25006178725423L15.744578313253015,217.79276855422322L17.49397590361446,217.58721056114274L19.243373493975906,217.21334031587773L20.99277108433735,216.8261455892646L22.7421686746988,216.5696045297245L24.491566265060243,216.25992483626538L26.24096385542169,215.9335946209585L27.990361445783133,215.56250786597784L29.73975903614458,215.12095535739223L31.489156626506023,214.82389472485298L33.23855421686747,214.57625247737653L34.98795180722892,214.22472443555125L36.737349397590364,213.69962300530133L38.48674698795181,213.26757422124425L40.23614457831325,212.89459414046917L41.9855421686747,212.56214960294412L43.734939759036145,212.1950405537621L45.4843373493976,211.62373049345658L47.23373493975904,211.333687654851L48.983132530120486,211.07448050685824L50.732530120481925,210.63981872943904L52.48192771084338,210.0991329997027L54.231325301204826,209.44857612090541L55.980722891566266,209.04617151553492L57.730120481927706,208.4688141345016L59.47951807228916,207.83512913736445L61.22891566265061,207.70573745085787L62.97831325301205,206.93923259337248L64.72771084337349,206.36437363366315L66.47710843373494,205.46421504647986L68.2265060240964,204.6035119157592L69.97590361445783,204.18591942530003L71.72530120481927,203.46479636085505L73.47469879518073,202.67307032171877L75.22409638554218,199.61993219388603L76.97349397590362,198.9933002736777L78.72289156626506,198.57019625968474L80.4722891566265,198.06439887760723L82.22168674698796,196.1013251393278L83.9710843373494,195.38429685211977L85.72048192771084,195.62193378898013L87.46987951807229,195.48648924206054L89.21927710843374,191.68311359265684L90.9686746987952,190.3540561679759L92.71807228915664,190.06300433226184L94.46746987951808,189.8226935622314L96.21686746987952,189.66379010513532L97.96626506024097,189.46955098910792L99.71566265060241,188.0634842755313L101.46506024096385,187.9968535069428L103.21445783132529,187.90210881659993L104.96385542168676,188.1936015809039L106.71325301204821,186.62662547716863L108.46265060240965,184.74446892856042L110.21204819277108,182.7998663948089L111.96144578313253,182.42312619284212L113.71084337349397,181.10811449727296L115.46024096385541,179.22206408276696L117.20963855421685,177.92121971728398L118.95903614457832,175.8769130925087L120.70843373493976,174.58774611757022L122.45783132530121,161.1618999839309L124.20722891566265,159.99497082376325L125.9566265060241,156.7100824961197L127.70602409638555,156.91218662667262L129.45542168674697,159.6112912680389L131.20481927710844,159.04995629794553L132.95421686746988,159.35167475575477L134.70361445783135,157.50779950202931L136.4530120481928,154.7236220493877L138.20240963855423,148.89738764143488L139.95180722891567,147.58719586960837L141.7012048192771,144.14509862594238L143.45060240963855,143.74064471582042L145.2,140.38155008256751L146.94939759036146,132.40917731843257L148.6987951807229,130.10879982745388L150.44819277108436,129.88291199033966L152.1975903614458,127.51103154878896L153.94698795180724,128.09862862965426L155.69638554216868,128.7910402182702L157.44578313253012,129.56232901432577L159.19518072289156,126.85530432081234L160.944578313253,128.24233738593043L162.69397590361447,128.18042602603646L164.4433734939759,130.77296527510305L166.19277108433735,128.95897368492422L167.9421686746988,122.64404033351266L169.69156626506023,122.18431527111576L171.44096385542167,123.37766166204158L173.1903614457831,123.3736934371583L174.93975903614458,123.71879862489503L176.68915662650602,123.2858116167735L178.4385542168675,123.67395176930107L180.18795180722893,118.91658239868705L181.93734939759037,118.07151621649197L183.68674698795184,122.78916935207252L185.43614457831328,119.80837805098737L187.18554216867471,116.41820101807234L188.93493975903615,119.87800079098574L190.6843373493976,120.70962028749787L192.43373493975903,121.72479882484852L194.1831325301205,120.09745252973042L195.93253012048194,116.11087559432494L197.68192771084338,114.85753158122704L199.43132530120482,110.76475622007355L201.18072289156626,110.11261180166842L202.9301204819277,108.75255669804727L204.67951807228914,109.98181743662106L206.42891566265058,109.98076766531454L208.17831325301205,109.6271237859899L209.92771084337352,106.41319992058537L211.67710843373496,102.31654113585968L213.42650602409643,99.37236629272627L215.17590361445787,103.70164020959261L216.9253012048193,105.98781975927548L218.67469879518075,108.08582957227341L220.42409638554216,107.81900527303743L222.17349397590363,107.92606986153179L223.92289156626506,107.8546907014443L225.6722891566265,101.85040402262379L227.42168674698794,100.9341601309355L229.1710843373494,101.70761008704226L230.92048192771082,100.54300836505253L232.6698795180723,98.23529350031318L234.4192771084337,101.68442812095913L236.16867469879517,95.06064417402266L237.91807228915664,93.63151027023295L239.6674698795181,94.6699467599142L241.41686746987952,91.45975596673408L243.166265060241,89.9679786830818L244.91566265060243,87.84640673970962L246.6650602409639,86.94484004307654L248.4144578313253,83.46080929087493L250.16385542168678,86.32087232940778L251.9132530120482,83.44085101289832L253.66265060240966,80.76234286782325L255.4120481927711,78.68793874557726L257.16144578313254,75.87164854874905L258.91084337349395,73.40956227888371L260.6602409638554,72.27820007624855L262.4096385542169,71.30981803111824L264.1590361445783,73.83156951358629L265.90843373493976,72.6443125619135L267.65783132530123,71.54355546811969L269.4072289156627,73.099378452573L271.1566265060241,72.33077012742673L272.9060240963856,69.23726879091497L274.655421686747,66.67645538533903L276.40481927710846,61.339628010129914L278.15421686746987,61.07587621895522L279.90361445783134,59.119388162659256L281.65301204819275,61.0564641754228L283.4024096385542,58.09412148568327L285.15180722891563,60.649867938571546L286.9012048192771,56.89229989952626L288.6506024096385,55.34474000059861L290.4,53.73953706179319L292.14939759036145,51.029101828183975L293.8987951807229,49.767434904135285L295.6481927710843,51.635644791746586L297.3975903614458,49.01813912461728L299.14698795180726,47.43342579349001L300.89638554216873,47.84001448178389L302.64578313253014,52.81922899993917L304.3951807228916,51.893453276971854L306.144578313253,55.3535480955801L307.8939759036145,52.67340908276397L309.6433734939759,49.84565487995106L311.39277108433737,49.03243765353668L313.1421686746988,47.88723732130066L314.89156626506025,46.55363333404404L316.64096385542166,47.532687141222034L318.3903614457831,45.0622819670496L320.13975903614454,45.90326460204734L321.889156626506,43.0577407628938L323.6385542168675,41.73145888640711L325.38795180722894,39.424292663974015L327.13734939759036,38.36428095873142L328.8867469879518,36.27899494710476L330.6361445783133,35.2371463057472L332.3855421686747,35.22673997158196L334.1349397590362,34.030992711737994L335.8843373493976,33.429139647206675L337.63373493975905,31.425280721742798L339.38313253012046,31.36614806631856L341.13253012048193,30.166355758896277L342.88192771084334,31.240930921481496L344.6313253012048,31.22325932877891L346.3807228915662,28.834609180357667L348.1301204819277,28.89995967719883L349.87951807228916,28.5743833652539L351.6289156626506,26.932923513046013L353.37831325301204,28.21995134501509L355.1277108433735,28.952556698376075L356.877108433735,28.16511697104553L358.6265060240964,28.017166972680823L360.37590361445785,26.52453103620464L362.1253012048193,28.683769251406524L363.87469879518073,29.116059206673974L365.6240963855422,28.16889215114895L367.37349397590367,28.237009501773798L369.1228915662651,27.685491171824342L370.87228915662655,26.80131637993388L372.62168674698796,25.038777795300387L374.37108433734943,20.941832155042878L376.12048192771084,21.199662651933533L377.8698795180723,20.15864145557373L379.6192771084337,19.119768242901927L381.3686746987952,17.98665168643103L383.1180722891566,14.68090531375347L384.86746987951807,15.762607627320357L386.61686746987954,16.678005115516797L388.366265060241,15.535070068816164L390.1156626506024,15.4740061758848L391.8650602409639,14.733367935668618L393.6144578313253,11.249180031664961L395.36385542168676,1.9861486613535906L397.1132530120482,2.663876126253287L398.86265060240964,2.508077041737419L400.61204819277106,4.795752719926696L402.3614457831325,5.320300639817759L404.11084337349394,5.763236175034283L405.8602409638554,9.715287410980691L407.6096385542168,5.659065721778784L409.3590361445783,5.364619215233377L411.1084337349397,0L412.85783132530116,1.057718870633796L414.60722891566263,2.4964661733762634L416.3566265060241,3.045831266159501L418.1060240963855,3.863930601549863L419.85542168674704,4.845222122164893L421.60481927710845,5.397159897334181L423.3542168674699,4.309851785604347L425.1036144578314,4.575701948406073L426.85301204819285,5.537852702616641L428.60240963855426,1.3912877249909905L430.35180722891573,2.4618661279432663L432.10120481927714,3.2870334652921467L433.8506024096386,3.457123715291787L435.6,3.803523838925761L435.6,31.78747803388161L433.8506024096386,31.793191350251764L432.10120481927714,33.091872534248765L430.35180722891573,34.12769218548378L428.60240963855426,35.36185262819506L426.85301204819285,37.60374475599743L425.1036144578314,38.579109802385446L423.3542168674699,38.99233064273556L421.60481927710845,37.43043214063198L419.85542168674704,38.945385355124884L418.1060240963855,40.32625985653898L416.3566265060241,41.82462505503497L414.60722891566263,44.07679330860302L412.85783132530116,43.89506062670838L411.1084337349397,47.30593023143271L409.3590361445783,51.23193910805411L407.6096385542168,52.256894160529725L405.8602409638554,49.8214671987886L404.11084337349394,49.371509175819114L402.3614457831325,50.59187493175481L400.61204819277106,52.831811169845L398.86265060240964,53.52795301030006L397.1132530120482,54.89863969821678L395.36385542168676,56.05823543728871L393.6144578313253,59.46324163718924L391.8650602409639,59.87743803373374L390.1156626506024,62.83106657696353L388.366265060241,61.7589319167435L386.61686746987954,64.77605105210534L384.86746987951807,68.87801376877869L383.1180722891566,69.42453580380865L381.3686746987952,73.34751675448453L379.6192771084337,74.06816470632353L377.8698795180723,73.95224543000309L376.12048192771084,74.76253139802522L374.37108433734943,73.72763659705382L372.62168674698796,74.68141326637165L370.87228915662655,75.2597177627238L369.1228915662651,77.7820245214838L367.37349397590367,77.22144245276209L365.6240963855422,77.93016245077786L363.87469879518073,77.6417374328081L362.1253012048193,79.12015331281087L360.37590361445785,79.61975216794782L358.6265060240964,80.13163342809727L356.877108433735,75.60266501072094L355.1277108433735,76.49217037556824L353.37831325301204,77.03629754501348L351.6289156626506,76.39792477148724L349.87951807228916,78.52555588621887L348.1301204819277,78.1310541072091L346.3807228915662,71.30435524511395L344.6313253012048,74.5895846397358L342.88192771084334,79.1310257796147L341.13253012048193,80.05664818737675L339.38313253012046,84.26549754405367L337.63373493975905,86.56322469754751L335.8843373493976,92.77858862310727L334.1349397590362,92.74847954405942L332.3855421686747,95.02379530443388L330.6361445783133,95.42971800678686L328.8867469879518,95.81159567526592L327.13734939759036,99.41997943090537L325.38795180722894,93.59248334831001L323.6385542168675,100.11621687020951L321.889156626506,104.89063916893117L320.13975903614454,101.42631848946657L318.3903614457831,101.82295461137187L316.64096385542166,101.21202024887396L314.89156626506025,98.280131209792L313.1421686746988,101.15018641732733L311.39277108433737,107.26350870823416L309.6433734939759,110.45988880797137L307.8939759036145,111.96262365415724L306.144578313253,118.25164073770594L304.3951807228916,115.74290921038842L302.64578313253014,114.91103656764355L300.89638554216873,114.11188705138215L299.14698795180726,114.77908226006294L297.3975903614458,116.66156004488003L295.6481927710843,117.10458479613557L293.8987951807229,113.58215963520034L292.14939759036145,112.68422133144765L290.4,112.29454101607952L288.6506024096385,107.91628027212724L286.9012048192771,105.81652568215355L285.15180722891563,110.09237251431017L283.4024096385542,107.84783929205878L281.65301204819275,108.29028178669488L279.90361445783134,104.62292801237612L278.15421686746987,106.73833598911901L276.40481927710846,108.88675385461255L274.655421686747,115.3063565837916L272.9060240963856,116.31439168837274L271.1566265060241,121.19847428817845L269.4072289156627,120.75866302941517L267.65783132530123,121.07672199796068L265.90843373493976,124.61463059265799L264.1590361445783,128.00110759892175L262.4096385542169,128.60728585203947L260.6602409638554,130.09106939149797L258.91084337349395,129.18914889372616L257.16144578313254,128.64458941040405L255.4120481927711,132.84093554605838L253.66265060240966,137.98843331934876L251.9132530120482,137.83066189230362L250.16385542168678,142.35146311592337L248.4144578313253,143.53046865547063L246.6650602409639,144.9599295559792L244.91566265060243,146.1401711481265L243.166265060241,144.54896854444797L241.41686746987952,144.8327675048518L239.6674698795181,143.813332047897L237.91807228915664,146.78976463730544L236.16867469879517,143.20560756181922L234.4192771084337,139.8565761685061L232.6698795180723,139.27404930562685L230.92048192771082,145.1855719138586L229.1710843373494,149.58930766983084L227.42168674698794,152.9785838580629L225.6722891566265,151.25095044390233L223.92289156626506,158.37202192252164L222.17349397590363,157.52567518426258L220.42409638554216,159.9689229869603L218.67469879518075,161.700413680721L216.9253012048193,159.50170500707702L215.17590361445787,159.56987194168252L213.42650602409643,158.29080809797054L211.67710843373496,154.1430764265946L209.92771084337352,157.79495012250365L208.17831325301205,153.01126066972245L206.42891566265058,154.20816370325275L204.67951807228914,155.25374357349108L202.9301204819277,156.9235783261011L201.18072289156626,159.45274665969143L199.43132530120482,159.81456053844627L197.68192771084338,163.4207443022635L195.93253012048194,167.9991511837914L194.1831325301205,172.33014886697345L192.43373493975903,172.93100839396456L190.6843373493976,171.57186161155613L188.93493975903615,170.53566175134168L187.18554216867471,170.91391993206116L185.43614457831328,169.99497412380916L183.68674698795184,172.07131719343954L181.93734939759037,172.1304959394935L180.18795180722893,172.20817810610097L178.4385542168675,172.4409737657995L176.68915662650602,175.43465548153083L174.93975903614458,177.28002817436362L173.1903614457831,178.47695123252961L171.44096385542167,177.97516211804134L169.69156626506023,177.2616797214961L167.9421686746988,181.46654098283926L166.19277108433735,180.69235949924965L164.4433734939759,179.6957654660514L162.69397590361447,180.6224506520491L160.944578313253,181.8715660112668L159.19518072289156,181.28568345780351L157.44578313253012,183.69735534036909L155.69638554216868,185.25403564069157L153.94698795180724,185.3235086347383L152.1975903614458,184.69786987978276L150.44819277108436,185.2788894840528L148.6987951807229,189.12023368851743L146.94939759036146,190.7381924392013L145.2,190.91358054242954L143.45060240963855,191.4171708485046L141.7012048192771,191.13214952390138L139.95180722891567,189.82564872306875L138.20240963855423,190.05636650235584L136.4530120481928,190.22084515499742L134.70361445783135,192.0779972708875L132.95421686746988,190.8877166857088L131.20481927710844,190.4942285927625L129.45542168674697,190.38103233924895L127.70602409638555,190.1967940597306L125.9566265060241,190.49291287958803L124.20722891566265,192.0026251104633L122.45783132530121,191.98897884624853L120.70843373493976,195.29876854541232L118.95903614457832,196.9651620245415L117.20963855421685,198.11008718378662L115.46024096385541,198.52164319350078L113.71084337349397,199.99224680723052L111.96144578313253,199.78269160796606L110.21204819277108,200.17635153816988L108.46265060240965,201.56020638583678L106.71325301204821,203.48818914304087L104.96385542168676,203.60940817004948L103.21445783132529,204.09232358651295L101.46506024096385,204.15607550861944L99.71566265060241,203.9157186121296L97.96626506024097,204.2452771840176L96.21686746987952,204.54726445405703L94.46746987951808,205.11036686153565L92.71807228915664,204.96076181955004L90.9686746987952,206.16570867477975L89.21927710843374,206.33016927544938L87.46987951807229,206.75022935587305L85.72048192771084,206.69053633892838L83.9710843373494,207.30429360281468L82.22168674698796,208.27775416587335L80.4722891566265,208.569847457855L78.72289156626506,208.6946045000911L76.97349397590362,208.97594210952298L75.22409638554218,209.02489499251587L73.47469879518073,208.82567394734286L71.72530120481927,209.31984423173847L69.97590361445783,210.40762953341775L68.2265060240964,210.45999965055302L66.47710843373494,211.1988020179601L64.72771084337349,211.0803628945233L62.97831325301205,211.54842906175077L61.22891566265061,211.6308390266818L59.47951807228916,211.9745045643832L57.730120481927706,212.04846839885423L55.980722891566266,212.87592362564848L54.231325301204826,212.99317305062044L52.48192771084338,213.76410650073709L50.732530120481925,213.8402076617568L48.983132530120486,214.12212275650415L47.23373493975904,214.44848511155644L45.4843373493976,214.58367313699307L43.734939759036145,214.99137038285988L41.9855421686747,215.36930065444264L40.23614457831325,215.69864780815394L38.48674698795181,216.1004274621422L36.737349397590364,216.37668612556686L34.98795180722892,216.42670334160047L33.23855421686747,216.52842046497616L31.489156626506023,216.7742219654087L29.73975903614458,217.07379749104564L27.990361445783133,217.20726965661274L26.24096385542169,217.4023706481845L24.491566265060243,217.69000927843467L22.7421686746988,217.94262641964232L20.99277108433735,218.1948661221182L19.243373493975906,218.49940695755336L17.49397590361446,218.8508569226702L15.744578313253015,219.04926194703364L13.995180722891567,219.40361904034205L12.245783132530123,219.80136681361785L10.496385542168674,220.2487291767275L8.74698795180723,220.73821577071607L6.997590361445783,221.22132262591836L5.248192771084337,221.45880646733818L3.4987951807228916,221.7282807086156L1.7493975903614458,221.97763257117435L0,222.3635737854677Z" class="rv-xy-plot__series rv-xy-plot__series--line" transform="translate(44.4,5)" style="opacity: 1; stroke: rgba(83, 135, 221, 0); fill: rgba(83, 135, 221, 0.1);"/><path d="M0,222.21507433541018L1.7493975903614458,221.8688645841189L3.4987951807228916,221.46227084207572L5.248192771084337,220.9979189484515L6.997590361445783,220.52119938099983L8.74698795180723,220.0124789609144L10.496385542168674,219.59955342671634L12.245783132530123,219.18647104441604L13.995180722891567,218.81644920405074L15.744578313253015,218.44075934643237L17.49397590361446,218.2051881933135L19.243373493975906,217.8547950449142L20.99277108433735,217.525763367478L22.7421686746988,217.2408762550363L24.491566265060243,216.98107135343392L26.24096385542169,216.64472029305247L27.990361445783133,216.31692047942295L29.73975903614458,216.03948259019015L31.489156626506023,215.7406411245942L33.23855421686747,215.46839466697347L34.98795180722892,215.21335582231072L36.737349397590364,214.8964107680456L38.48674698795181,214.52464924922174L40.23614457831325,214.12989529541002L41.9855421686747,213.84940422328697L43.734939759036145,213.5044329427484L45.4843373493976,213.08340854057684L47.23373493975904,212.8065443401121L48.983132530120486,212.56072637195354L50.732530120481925,212.22776239293952L52.48192771084338,211.85895670157447L54.231325301204826,211.1899510562962L55.980722891566266,210.93371539353433L57.730120481927706,210.23502004176558L59.47951807228916,209.82537966379732L61.22891566265061,209.5862624485586L62.97831325301205,209.16623061123335L64.72771084337349,208.6705038781669L66.47710843373494,208.36446604131655L68.2265060240964,207.55021346888932L69.97590361445783,207.3327589575625L71.72530120481927,206.43473864959782L73.47469879518073,205.79841138838952L75.22409638554218,204.5543060213689L76.97349397590362,204.14235805001036L78.72289156626506,203.81307355464943L80.4722891566265,203.51347476084993L82.22168674698796,202.75909038771533L83.9710843373494,201.88487030698897L85.72048192771084,201.68238421363864L87.46987951807229,201.50713775571546L89.21927710843374,199.64602798946584L90.9686746987952,198.91625417920082L92.71807228915664,198.03731198952016L94.46746987951808,197.89113021829058L96.21686746987952,197.61663676295322L97.96626506024097,197.41257804135154L99.71566265060241,196.8513292662636L101.46506024096385,196.7847835653658L103.21445783132529,196.62620599364215L104.96385542168676,196.34594300418033L106.71325301204821,195.90218036675796L108.46265060240965,194.07376618895327L110.21204819277108,192.4314161438599L111.96144578313253,192.0889912788918L113.71084337349397,191.41087389345583L115.46024096385541,189.84514378079402L117.20963855421685,189.05147192235265L118.95903614457832,187.06468507892222L120.70843373493976,185.5691245201541L122.45783132530121,179.10903229347002L124.20722891566265,178.32527811258706L125.9566265060241,176.0886749997965L127.70602409638555,175.38490314673686L129.45542168674697,176.56987104556083L131.20481927710844,175.76143128646999L132.95421686746988,176.17753025064715L134.70361445783135,175.34071673967054L136.4530120481928,173.5603431765688L138.20240963855423,170.87512154817793L139.95180722891567,170.36365836329563L141.7012048192771,169.2889395746411L143.45060240963855,169.0729089009229L145.2,166.5140043305132L146.94939759036146,162.3983482117527L148.6987951807229,160.57252115810056L150.44819277108436,158.49550467662516L152.1975903614458,157.441384981674L153.94698795180724,157.68029867411298L155.69638554216868,157.5398029144523L157.44578313253012,157.0982396877725L159.19518072289156,153.68069180092638L160.944578313253,154.49754990100587L162.69397590361447,153.66841943410594L164.4433734939759,154.804938673009L166.19277108433735,154.75738227201919L167.9421686746988,152.24396424437398L169.69156626506023,149.8243740540775L171.44096385542167,150.69766974834457L173.1903614457831,150.71099193311625L174.93975903614458,150.51775540878168L176.68915662650602,149.86715637957647L178.4385542168675,148.54410981617693L180.18795180722893,146.6935746427465L181.93734939759037,145.3256096593926L183.68674698795184,147.5987033881516L185.43614457831328,145.38127147798636L187.18554216867471,145.01349388946548L188.93493975903615,146.52931741901403L190.6843373493976,148.00962808228155L192.43373493975903,148.9244607604589L194.1831325301205,147.9207246289016L195.93253012048194,143.40755371086559L197.68192771084338,140.51799522431716L199.43132530120482,137.03123645217272L201.18072289156626,136.6581311052426L202.9301204819277,134.71591316503515L204.67951807228914,134.56619503337103L206.42891566265058,134.37183746712248L208.17831325301205,133.8794842882768L209.92771084337352,135.53537005450372L211.67710843373496,131.87937563766067L213.42650602409643,131.2085866481647L215.17590361445787,133.46839164395354L216.9253012048193,134.58486045931932L218.67469879518075,136.03463740623366L220.42409638554216,134.54329605797795L222.17349397590363,133.36142738264698L223.92289156626506,133.1197591261767L225.6722891566265,126.71678967021025L227.42168674698794,126.96021999728353L229.1710843373494,125.54667028847881L230.92048192771082,122.78770278526049L232.6698795180723,118.6899944503449L234.4192771084337,120.63712134860087L236.16867469879517,117.208808969405L237.91807228915664,118.4216034857973L239.6674698795181,117.50995302835123L241.41686746987952,115.9876625340931L243.166265060241,114.31226444322533L244.91566265060243,114.61394882312052L246.6650602409639,113.17017089872245L248.4144578313253,112.06370165226977L250.16385542168678,112.7861970679481L251.9132530120482,108.77850941478476L253.66265060240966,108.95311410117098L255.4120481927711,105.3700282419833L257.16144578313254,101.96776408842156L258.91084337349395,100.24581233874035L260.6602409638554,100.67013859995434L262.4096385542169,98.85059795080724L264.1590361445783,99.87056034223629L265.90843373493976,97.84493075766629L267.65783132530123,95.94438209411678L269.4072289156627,96.42086736316857L271.1566265060241,96.34164735933311L272.9060240963856,91.95795831497755L274.655421686747,90.9000634438592L276.40481927710846,85.51141894126101L278.15421686746987,84.61078899399672L279.90361445783134,83.12138047282048L281.65301204819275,85.43877907809902L283.4024096385542,83.82172723866678L285.15180722891563,85.67859741914558L286.9012048192771,81.63284522870059L288.6506024096385,82.93853849695022L290.4,83.7619813932879L292.14939759036145,82.2357233321745L293.8987951807229,82.96924898758623L295.6481927710843,86.24820687507956L297.3975903614458,84.91406602495985L299.14698795180726,83.46120399768273L300.89638554216873,83.01870141590119L302.64578313253014,85.52054138159906L304.3951807228916,85.13419227640186L306.144578313253,87.6209617511074L307.8939759036145,83.05907950644244L309.6433734939759,81.95137518060257L311.39277108433737,79.55303967588898L313.1421686746988,75.79105369268517L314.89156626506025,73.64079641413394L316.64096385542166,74.85703345108611L318.3903614457831,73.05188929198604L320.13975903614454,73.16468482490848L321.889156626506,72.22077638310182L323.6385542168675,69.40752769482661L325.38795180722894,64.94560578498707L327.13734939759036,66.96717204569643L328.8867469879518,64.87329035276296L330.6361445783133,63.79239675238003L332.3855421686747,63.72980072949336L334.1349397590362,61.51422183134753L335.8843373493976,60.65497679300035L337.63373493975905,56.77401900561497L339.38313253012046,55.61895060178664L341.13253012048193,53.13283718666975L342.88192771084334,53.730079101962005L344.6313253012048,51.588049142833775L346.3807228915662,49.01698837775581L348.1301204819277,52.82695136067337L349.87951807228916,52.90775276813656L351.6289156626506,51.18006046951529L353.37831325301204,51.94012217933629L355.1277108433735,51.59703365280632L356.877108433735,50.70895603327116L358.6265060240964,53.01045134519247L360.37590361445785,51.325160051667226L362.1253012048193,51.962501889503415L363.87469879518073,51.4863762073741L365.6240963855422,50.662456659516494L367.37349397590367,50.567641576425856L369.1228915662651,50.776359920981974L370.87228915662655,49.6810688096133L372.62168674698796,48.65575270225528L374.37108433734943,46.66478907368067L376.12048192771084,47.79659606464113L377.8698795180723,46.88837071737429L379.6192771084337,45.86020133118803L381.3686746987952,44.58180726035594L383.1180722891566,41.778548542965L384.86746987951807,41.77118135780125L386.61686746987954,40.229770317165176L388.366265060241,38.2568326998879L390.1156626506024,38.163177995160034L391.8650602409639,36.40950086652093L393.6144578313253,34.48481919573942L395.36385542168676,29.776136022673057L397.1132530120482,28.91891547154576L398.86265060240964,27.78730645263532L400.61204819277106,28.638265205156145L402.3614457831325,27.797150618143878L404.11084337349394,27.225728295970573L405.8602409638554,29.4590051612621L407.6096385542168,27.802116090808696L409.3590361445783,27.377179262022224L411.1084337349397,23.65250670447499L412.85783132530116,22.47597463963685L414.60722891566263,23.097884843400394L416.3566265060241,22.407927049948157L418.1060240963855,22.070373021881863L419.85542168674704,21.82081476398113L421.60481927710845,21.226107851421084L423.3542168674699,21.15649641305296L425.1036144578314,20.712714722804154L426.85301204819285,20.787787588083617L428.60240963855426,17.667523431471814L430.35180722891573,17.71843877848773L432.10120481927714,17.65553103700737L433.8506024096386,17.253890462124016L435.6,17.176082829297282" class="rv-xy-plot__series rv-xy-plot__series--line" transform="translate(44.4,5)" style="opacity: 1; stroke-width: 1.5; stroke: rgb(83, 135, 221);"/><path d="M0,221.7271475709354L1.7493975903614458,221.59355253521846L3.4987951807228916,220.98875522392788L5.248192771084337,220.40890445791197L6.997590361445783,219.94556717963886L8.74698795180723,219.3482123651827L10.496385542168674,219.01751472964781L12.245783132530123,218.6727017585573L13.995180722891567,218.1188819100767L15.744578313253015,217.81216675616204L17.49397590361446,217.27382503848807L19.243373493975906,217.0006485142173L20.99277108433735,216.60135882410182L22.7421686746988,216.37434036977794L24.491566265060243,216.09910142344327L26.24096385542169,215.78499662207946L27.990361445783133,215.50982699558588L29.73975903614458,215.31456152664626L31.489156626506023,215.0688406361084L33.23855421686747,214.87402774293375L34.98795180722892,214.69436936221985L36.737349397590364,214.49452317783343L38.48674698795181,214.18416827592327L40.23614457831325,213.90058011754226L41.9855421686747,213.53049683608808L43.734939759036145,213.2205293482731L45.4843373493976,212.86509929620254L47.23373493975904,212.76340882140983L48.983132530120486,212.42904436968098L50.732530120481925,212.1332115999029L52.48192771084338,212.00486484983008L54.231325301204826,211.51739380355815L55.980722891566266,210.90146670622374L57.730120481927706,210.78451147579528L59.47951807228916,210.27538099888633L61.22891566265061,210.01520756759137L62.97831325301205,209.65934867122218L64.72771084337349,209.40675491781434L66.47710843373494,207.45788093534173L68.2265060240964,207.13508466891608L69.97590361445783,206.58688411929236L71.72530120481927,205.27459424011687L73.47469879518073,203.37943666714713L75.22409638554218,203.05849598923672L76.97349397590362,202.6834699369288L78.72289156626506,200.61933790441893L80.4722891566265,200.72652617131558L82.22168674698796,200.35044738504456L83.9710843373494,200.47577966621813L85.72048192771084,198.2691353364641L87.46987951807229,196.7857106846013L89.21927710843374,192.5202955335625L90.9686746987952,192.7027545207619L92.71807228915664,192.12804396354758L94.46746987951808,191.9517320814163L96.21686746987952,190.9208597486121L97.96626506024097,190.03864546978596L99.71566265060241,187.9848413065377L101.46506024096385,185.20052318105473L103.21445783132529,184.5317468187319L104.96385542168676,183.39617414996312L106.71325301204821,183.3376429542873L108.46265060240965,181.86314302357104L110.21204819277108,178.8421975663884L111.96144578313253,179.20853382065684L113.71084337349397,178.09325913702867L115.46024096385541,176.39337747714256L117.20963855421685,177.1485052572967L118.95903614457832,174.78247581686367L120.70843373493976,175.88507178234664L122.45783132530121,172.76607611709707L124.20722891566265,172.3359703938322L125.9566265060241,169.85242465900234L127.70602409638555,168.74009144872403L129.45542168674697,168.25428678928355L131.20481927710844,166.49227570234913L132.95421686746988,162.515926104194L134.70361445783135,160.40830525920205L136.4530120481928,157.85522203983606L138.20240963855423,155.32217568109888L139.95180722891567,152.76877471694814L141.7012048192771,151.6181920196101L143.45060240963855,149.83184319388147L145.2,145.50970818213366L146.94939759036146,144.77705174256843L148.6987951807229,144.70080208805973L150.44819277108436,141.5758947753889L152.1975903614458,143.56047708270884L153.94698795180724,141.57757924759804L155.69638554216868,135.3928633536089L157.44578313253012,133.03926063080416L159.19518072289156,131.93873559490444L160.944578313253,133.206275042821L162.69397590361447,133.87307348911457L164.4433734939759,131.97577390847L166.19277108433735,127.73259318264635L167.9421686746988,127.16090788854017L169.69156626506023,122.5229142384074L171.44096385542167,121.164001049446L173.1903614457831,121.15672222674569L174.93975903614458,116.41264062071285L176.68915662650602,118.0357625101124L178.4385542168675,115.85506641161798L180.18795180722893,113.0867957175204L181.93734939759037,111.21596778897654L183.68674698795184,111.3869082497615L185.43614457831328,106.57585148241154L187.18554216867471,106.99273199669433L188.93493975903615,107.78705657673962L190.6843373493976,105.49238638403165L192.43373493975903,104.79320513502007L194.1831325301205,105.57085627532982L195.93253012048194,108.5234820610257L197.68192771084338,108.32352688922172L199.43132530120482,107.08437582037715L201.18072289156626,103.09463307540976L202.9301204819277,100.59396333275048L204.67951807228914,99.4543941081461L206.42891566265058,94.97703034682621L208.17831325301205,96.28915979112782L209.92771084337352,97.50138919879421L211.67710843373496,99.84956473078545L213.42650602409643,99.97840280019837L215.17590361445787,99.64435699405976L216.9253012048193,98.27920847699173L218.67469879518075,98.48355646715663L220.42409638554216,97.12271068817597L222.17349397590363,93.094069776318L223.92289156626506,87.43403569099965L225.6722891566265,87.41467467867824L227.42168674698794,86.25891026421034L229.1710843373494,86.40185418128047L230.92048192771082,86.46396332777923L232.6698795180723,82.52837915437252L234.4192771084337,84.152728410553L236.16867469879517,81.34925971776559L237.91807228915664,82.95473471991055L239.6674698795181,81.8652831522791L241.41686746987952,80.62453049235253L243.166265060241,82.75535948735137L244.91566265060243,83.3542991807984L246.6650602409639,76.53824189089038L248.4144578313253,73.78073189767466L250.16385542168678,74.27516264208532L251.9132530120482,70.45692958034168L253.66265060240966,72.33302380744152L255.4120481927711,67.95278789487611L257.16144578313254,69.93625962510583L258.91084337349395,69.72615302070689L260.6602409638554,67.50391222134644L262.4096385542169,65.26314014584054L264.1590361445783,70.9634641004736L265.90843373493976,68.0111438540176L267.65783132530123,67.69432127581327L269.4072289156627,66.46958889544486L271.1566265060241,65.16473441258005L272.9060240963856,64.63584575439262L274.655421686747,65.10677757271854L276.40481927710846,64.34289252274311L278.15421686746987,68.14797468425029L279.90361445783134,68.04266658351852L281.65301204819275,66.32011833967857L283.4024096385542,63.67415685225437L285.15180722891563,63.879232432569566L286.9012048192771,65.0829305167455L288.6506024096385,66.31720812287368L290.4,66.5066756491608L292.14939759036145,66.53121490138494L293.8987951807229,64.23002749678109L295.6481927710843,62.80006600169865L297.3975903614458,61.32425495067821L299.14698795180726,59.27445369787284L300.89638554216873,56.68885081148881L302.64578313253014,55.3047917190965L304.3951807228916,56.015090974893425L306.144578313253,54.58703681598634L307.8939759036145,50.44028875177893L309.6433734939759,51.374434543942506L311.39277108433737,53.42269487737308L313.1421686746988,50.15543972941738L314.89156626506025,50.269500238989416L316.64096385542166,50.45027154481483L318.3903614457831,47.36760751383873L320.13975903614454,49.722217352254326L321.889156626506,47.25339416181444L323.6385542168675,48.79638171050653L325.38795180722894,49.09225887542305L327.13734939759036,47.821172219505755L328.8867469879518,48.20916912247989L330.6361445783133,47.48320488584872L332.3855421686747,45.54651024123105L334.1349397590362,44.99511398093407L335.8843373493976,43.8545472568586L337.63373493975905,40.962077256327184L339.38313253012046,38.83339524615898L341.13253012048193,38.031196288710674L342.88192771084334,35.576588849881865L344.6313253012048,34.203511708813764L346.3807228915662,33.48516596762747L348.1301204819277,35.59608562800697L349.87951807228916,34.253229601976706L351.6289156626506,33.08531596537918L353.37831325301204,31.63335264090564L355.1277108433735,30.0235660910765L356.877108433735,30.75813691098286L358.6265060240964,29.423401392002003L360.37590361445785,28.01435442031235L362.1253012048193,30.165120789846952L363.87469879518073,29.367344584566972L365.6240963855422,28.85333576132758L367.37349397590367,30.758238611162096L369.1228915662651,30.32926782904914L370.87228915662655,28.425850558567976L372.62168674698796,28.505765895776474L374.37108433734943,27.6242637559175L376.12048192771084,26.55349574535561L377.8698795180723,26.273224457133324L379.6192771084337,25.394203243946894L381.3686746987952,24.293618999465313L383.1180722891566,23.32104468489998L384.86746987951807,23.199542688774535L386.61686746987954,23.17196517384905L388.366265060241,21.84844892448264L390.1156626506024,22.23706301175165L391.8650602409639,21.55494245811147L393.6144578313253,21.033444451484833L395.36385542168676,17.22827897000816L397.1132530120482,17.079413367124797L398.86265060240964,16.5959267870675L400.61204819277106,16.663100302997165L402.3614457831325,16.242986380143932L404.11084337349394,15.910651255682312L405.8602409638554,11.281229843372781L407.6096385542168,11.850437531272123L409.3590361445783,11.259710119196672L411.1084337349397,9.995354801341053L412.85783132530116,10.27722734743709L414.60722891566263,10.575758585485326L416.3566265060241,10.29781609250177L418.1060240963855,11.304593696992889L419.85542168674704,11.24636963335171L421.60481927710845,8.995052913413824L423.3542168674699,9.611886526772405L425.1036144578314,9.208568863088459L426.85301204819285,8.626925227456095L428.60240963855426,9.254485622702411L430.35180722891573,9.694514496048136L432.10120481927714,9.223273905515846L433.8506024096386,9.746408105483342L435.6,8.500758161739471L435.6,30.885220155079715L433.8506024096386,31.850185807633533L432.10120481927714,32.84676757867263L430.35180722891573,32.68857323184562L428.60240963855426,33.46987791833532L426.85301204819285,34.57168488638911L425.1036144578314,35.027166986208684L423.3542168674699,37.19431291409996L421.60481927710845,38.68463528990266L419.85542168674704,39.57624237329482L418.1060240963855,39.88103466492848L416.3566265060241,38.925249562362836L414.60722891566263,39.58702275490463L412.85783132530116,40.60994044327954L411.1084337349397,40.969452045416425L409.3590361445783,41.884300132941895L407.6096385542168,44.87297203962057L405.8602409638554,47.27051809088906L404.11084337349394,51.35216646059185L402.3614457831325,51.238920974320465L400.61204819277106,53.663198570148L398.86265060240964,55.29584557558156L397.1132530120482,58.8072119844153L395.36385542168676,60.83128755044972L393.6144578313253,64.77402930610845L391.8650602409639,67.10793778611944L390.1156626506024,69.62081639897333L388.366265060241,71.10219016610473L386.61686746987954,69.61022508653645L384.86746987951807,68.34388763125457L383.1180722891566,71.1538800566871L381.3686746987952,71.7177776736836L379.6192771084337,71.25045481463086L377.8698795180723,67.83097224604369L376.12048192771084,68.93216153713692L374.37108433734943,71.50255659404701L372.62168674698796,68.45636508633474L370.87228915662655,70.71157144644945L369.1228915662651,69.48424811876791L367.37349397590367,70.25334316817087L365.6240963855422,71.1026665683291L363.87469879518073,72.83725495957896L362.1253012048193,75.6202698882826L360.37590361445785,74.60403540330034L358.6265060240964,74.17577815033663L356.877108433735,75.54049372609602L355.1277108433735,76.48105078157319L353.37831325301204,79.83891019298186L351.6289156626506,84.21093525223644L349.87951807228916,84.92291331447211L348.1301204819277,87.79377510787968L346.3807228915662,84.843048870305L344.6313253012048,90.09292682781195L342.88192771084334,93.27737744619371L341.13253012048193,93.91842418919204L339.38313253012046,95.48370797609543L337.63373493975905,96.94671888350956L335.8843373493976,92.52537410564895L334.1349397590362,93.49684715726079L332.3855421686747,89.7282811458124L330.6361445783133,89.47557855721067L328.8867469879518,92.41505235159843L327.13734939759036,93.35082207288775L325.38795180722894,95.63586018460494L323.6385542168675,96.53051998623276L321.889156626506,93.40770160974414L320.13975903614454,98.02007402201735L318.3903614457831,97.33110821833698L316.64096385542166,99.75694320375604L314.89156626506025,104.16194296264213L313.1421686746988,107.65883870112758L311.39277108433737,100.37159338465779L309.6433734939759,97.5432352077549L307.8939759036145,94.77745133828083L306.144578313253,97.17590124747765L304.3951807228916,95.63635060426414L302.64578313253014,97.5507961419894L300.89638554216873,98.379657141693L299.14698795180726,103.21762065828322L297.3975903614458,105.03595178281094L295.6481927710843,108.76041924332152L293.8987951807229,109.74286383420707L292.14939759036145,109.91029682991575L290.4,112.26744276690788L288.6506024096385,111.97591588644818L286.9012048192771,109.72427218920595L285.15180722891563,110.48557664586178L283.4024096385542,112.4609446884247L281.65301204819275,113.49613800100467L279.90361445783134,111.10211325365536L278.15421686746987,111.96369300849686L276.40481927710846,110.78311416532449L274.655421686747,112.49660382373332L272.9060240963856,112.83976050996111L271.1566265060241,115.65297625505887L269.4072289156627,117.67972603654762L267.65783132530123,121.0332317381843L265.90843373493976,124.20544756394665L264.1590361445783,126.4073499780544L262.4096385542169,125.97094030698561L260.6602409638554,128.45943948277943L258.91084337349395,128.17513105596638L257.16144578313254,130.71146572119488L255.4120481927711,132.41474761069708L253.66265060240966,131.0514988127973L251.9132530120482,130.79415548296978L250.16385542168678,133.7948953949545L248.4144578313253,136.34385726319687L246.6650602409639,135.6427527997702L244.91566265060243,134.52328940887028L243.166265060241,132.66564739373962L241.41686746987952,132.74929593778802L239.6674698795181,135.00595307481237L237.91807228915664,136.1835113717185L236.16867469879517,139.13920780532501L234.4192771084337,140.48237235580362L232.6698795180723,139.32336460674605L230.92048192771082,142.89870966462837L229.1710843373494,145.14745820469076L227.42168674698794,145.23192645997744L225.6722891566265,144.5904996859348L223.92289156626506,141.9081912384388L222.17349397590363,143.90439796083078L220.42409638554216,148.58610604840032L218.67469879518075,148.31227570253094L216.9253012048193,152.3225254197017L215.17590361445787,151.11067682827382L213.42650602409643,148.10471354042525L211.67710843373496,148.8800732000337L209.92771084337352,149.75983645178582L208.17831325301205,152.34368795949985L206.42891566265058,154.09058742112958L204.67951807228914,151.89471630584382L202.9301204819277,152.95390295942718L201.18072289156626,153.67440777287206L199.43132530120482,154.3164290815793L197.68192771084338,155.8206265834973L195.93253012048194,154.99138134708497L194.1831325301205,153.87734604891477L192.43373493975903,152.70374907220622L190.6843373493976,153.82306153531417L188.93493975903615,158.6419397950356L187.18554216867471,160.7449133593292L185.43614457831328,163.7046190873069L183.68674698795184,163.32424691010377L181.93734939759037,164.77376299168145L180.18795180722893,163.53295372967358L178.4385542168675,161.8440214938211L176.68915662650602,164.67057004049644L174.93975903614458,166.9775881952957L173.1903614457831,170.6273969571508L171.44096385542167,172.364586949636L169.69156626506023,173.77463281423198L167.9421686746988,175.13703266421413L166.19277108433735,174.10975406613744L164.4433734939759,174.97420971202166L162.69397590361447,176.5551413002539L160.944578313253,175.29890817346808L159.19518072289156,174.5186543664197L157.44578313253012,173.74994528522865L155.69638554216868,177.28062363118474L153.94698795180724,178.57510972574028L152.1975903614458,178.73865141653692L150.44819277108436,178.90155191565984L148.6987951807229,181.39888276710462L146.94939759036146,181.89247540274158L145.2,183.9715340848067L143.45060240963855,186.67797244227154L141.7012048192771,187.4922373170612L139.95180722891567,186.44345549661818L138.20240963855423,186.3477980088357L136.4530120481928,187.27823072160095L134.70361445783135,188.818168763753L132.95421686746988,189.62126213295514L131.20481927710844,190.30362856511877L129.45542168674697,191.08914117673376L127.70602409638555,190.69448847511794L125.9566265060241,192.025821128874L124.20722891566265,195.5107448862901L122.45783132530121,196.10352639766717L120.70843373493976,196.33068040915686L118.95903614457832,196.06230693713607L117.20963855421685,198.4493696317549L115.46024096385541,198.31359844282528L113.71084337349397,198.24973835981515L111.96144578313253,200.29940840834536L110.21204819277108,200.2256642030168L108.46265060240965,201.48518619609607L106.71325301204821,202.87899531551784L104.96385542168676,203.51679258843706L103.21445783132529,204.08832830008785L101.46506024096385,204.37892160069342L99.71566265060241,204.2684445845205L97.96626506024097,204.5613255959065L96.21686746987952,205.23630568500226L94.46746987951808,205.66890660994153L92.71807228915664,206.25376627005983L90.9686746987952,206.82258701300623L89.21927710843374,207.3554880417035L87.46987951807229,207.89922225867755L85.72048192771084,207.8639577213429L83.9710843373494,207.92531960861194L82.22168674698796,208.44182566078712L80.4722891566265,208.67808311646337L78.72289156626506,208.6375851450439L76.97349397590362,208.96337845439078L75.22409638554218,209.72500392122447L73.47469879518073,210.17892231727225L71.72530120481927,210.36692091756467L69.97590361445783,210.7823174627074L68.2265060240964,211.17045768495376L66.47710843373494,211.7905806597932L64.72771084337349,212.0071471320354L62.97831325301205,212.35642407543256L61.22891566265061,212.75628667550222L59.47951807228916,213.0991565299361L57.730120481927706,213.4664621470783L55.980722891566266,213.45405593797025L54.231325301204826,213.7404787303793L52.48192771084338,213.91940481680638L50.732530120481925,214.16774565747372L48.983132530120486,214.59409245523744L47.23373493975904,214.8321838036248L45.4843373493976,214.94381802569677L43.734939759036145,214.95398453726466L41.9855421686747,214.94607547444733L40.23614457831325,215.25578774161343L38.48674698795181,215.56865920820204L36.737349397590364,215.86553561822885L34.98795180722892,216.1735837361267L33.23855421686747,216.45635130741405L31.489156626506023,216.70910152500588L29.73975903614458,216.94161786622962L27.990361445783133,217.25233821010534L26.24096385542169,217.4132940948621L24.491566265060243,217.74670589964785L22.7421686746988,217.99305179974775L20.99277108433735,218.31056791041172L19.243373493975906,218.61882332763238L17.49397590361446,218.99020160706945L15.744578313253015,219.3523773675821L13.995180722891567,219.71017012004253L12.245783132530123,220.03081772560418L10.496385542168674,220.42473292797973L8.74698795180723,220.7493363779024L6.997590361445783,221.31462236842927L5.248192771084337,221.66226187189977L3.4987951807228916,222.19753994928837L1.7493975903614458,222.34943886856303L0,222.30571685687386Z" class="rv-xy-plot__series rv-xy-plot__series--line" transform="translate(44.4,5)" style="opacity: 1; stroke: rgba(218, 76, 76, 0); fill: rgba(218, 76, 76, 0.1);"/><path d="M0,221.9918059314775L1.7493975903614458,221.8994277842729L3.4987951807228916,221.55514158776393L5.248192771084337,220.99082284025422L6.997590361445783,220.5673994174453L8.74698795180723,219.98060454884433L10.496385542168674,219.65645563844384L12.245783132530123,219.31231746766096L13.995180722891567,218.90193662330546L15.744578313253015,218.54166234786152L17.49397590361446,218.16048302238252L19.243373493975906,217.83243693886607L20.99277108433735,217.47994533013855L22.7421686746988,217.2076263796332L24.491566265060243,216.91538699009251L26.24096385542169,216.60572579905306L27.990361445783133,216.40362226847316L29.73975903614458,216.15921876631074L31.489156626506023,215.93553364415058L33.23855421686747,215.70318639839877L34.98795180722892,215.45777974737686L36.737349397590364,215.2093468723056L38.48674698795181,214.9009113116935L40.23614457831325,214.58884650539503L41.9855421686747,214.2219051913049L43.734939759036145,214.02764347307567L45.4843373493976,213.8153358955834L47.23373493975904,213.7064442010763L48.983132530120486,213.46657045889617L50.732530120481925,213.097485246473L52.48192771084338,212.9023020304871L54.231325301204826,212.6524066626995L55.980722891566266,212.2864518153361L57.730120481927706,212.23163646578402L59.47951807228916,211.81650445561704L61.22891566265061,211.52590435771444L62.97831325301205,211.15244246191637L64.72771084337349,210.86338744805917L66.47710843373494,210.01260260992618L68.2265060240964,209.5084708647641L69.97590361445783,209.03762453756684L71.72530120481927,208.18912229719197L73.47469879518073,207.27575110309536L75.22409638554218,206.83451905371058L76.97349397590362,206.23339947933817L78.72289156626506,205.25835131233066L80.4722891566265,205.24192691468335L82.22168674698796,204.79137141740543L83.9710843373494,204.5374442656759L85.72048192771084,203.02704481494712L87.46987951807229,202.4560209976383L89.21927710843374,200.57501516006042L90.9686746987952,200.3577103641456L92.71807228915664,199.68339389489975L94.46746987951808,199.2733377262374L96.21686746987952,198.66757053822695L97.96626506024097,198.00782345802364L99.71566265060241,197.03064276613267L101.46506024096385,195.9879145779168L103.21445783132529,195.63754578997546L104.96385542168676,195.0421727165678L106.71325301204821,194.71500106427456L108.46265060240965,193.29699253612984L110.21204819277108,191.52432491132606L111.96144578313253,191.4847998166531L113.71084337349397,189.85948211391823L115.46024096385541,188.66339012707905L117.20963855421685,189.1865805484652L118.95903614457832,186.6772113050662L120.70843373493976,187.1015892598709L122.45783132530121,185.71350356957493L124.20722891566265,184.77313027085296L125.9566265060241,181.57148988672762L127.70602409638555,179.97974269657234L129.45542168674697,179.96082475703685L131.20481927710844,179.1287152262992L132.95421686746988,177.40895004096075L134.70361445783135,176.41112396358682L136.4530120481928,174.59680398171147L138.20240963855423,172.42385449147994L139.95180722891567,171.63285562835432L141.7012048192771,171.39732283488735L143.45060240963855,170.1130986225036L145.2,166.65432814431293L146.94939759036146,164.87500240107698L148.6987951807229,164.37762144670782L150.44819277108436,162.08142435186593L152.1975903614458,163.02394244690444L153.94698795180724,161.7115094877751L155.69638554216868,157.14401985163866L157.44578313253012,154.0430420286018L159.19518072289156,154.3295081036739L160.944578313253,155.07304729454455L162.69397590361447,155.7203414275353L164.4433734939759,153.79117292395182L166.19277108433735,149.96736602454013L167.9421686746988,150.39482187972848L169.69156626506023,148.01898390781648L171.44096385542167,146.4960618011061L173.1903614457831,145.76845338229109L174.93975903614458,142.2358254844905L176.68915662650602,141.9678489089167L178.4385542168675,139.6633404479365L180.18795180722893,139.59722595991738L181.93734939759037,139.90430912934238L183.68674698795184,139.20087837170894L185.43614457831328,137.30994443543278L187.18554216867471,136.00992269024562L188.93493975903615,135.10906454561885L190.6843373493976,131.7147986322222L192.43373493975903,130.6932056920778L194.1831325301205,132.0056676604455L195.93253012048194,133.44552966949857L197.68192771084338,133.2330544747329L199.43132530120482,132.26650319730103L201.18072289156626,129.88023617887936L202.9301204819277,128.87417068648244L204.67951807228914,126.97129813259987L206.42891566265058,126.05073245171211L208.17831325301205,125.41618395239841L209.92771084337352,124.40979482574666L211.67710843373496,125.01436398435258L213.42650602409643,124.20090368248542L215.17590361445787,124.79575620033187L216.9253012048193,124.90364816114379L218.67469879518075,123.04732925708637L220.42409638554216,122.14035086366289L222.17349397590363,118.5032373100105L223.92289156626506,115.45459236539281L225.6722891566265,116.63323604851368L227.42168674698794,116.06800773536821L229.1710843373494,115.90268002193896L230.92048192771082,114.58618643332225L232.6698795180723,111.4302008995295L234.4192771084337,113.05298612727404L236.16867469879517,111.6859419664402L237.91807228915664,110.83456662031742L239.6674698795181,108.84980594959913L241.41686746987952,106.74094701314569L243.166265060241,107.47353947962964L244.91566265060243,108.4821399127512L246.6650602409639,105.22809958649967L248.4144578313253,104.35884542568613L250.16385542168678,102.98121198661346L251.9132530120482,100.65399631620261L253.66265060240966,101.92122545967429L255.4120481927711,99.95224370308406L257.16144578313254,100.14436305913118L258.91084337349395,99.0245615340014L260.6602409638554,98.7165882080034L262.4096385542169,96.5536914842575L264.1590361445783,99.53358080232633L265.90843373493976,96.47155663590382L267.65783132530123,94.42419717513414L269.4072289156627,92.34178685805769L271.1566265060241,91.3091840824919L272.9060240963856,89.56858250140556L274.655421686747,89.21212365184653L276.40481927710846,88.38621746966467L278.15421686746987,90.85224290245681L279.90361445783134,90.03172268273364L281.65301204819275,91.31935479445251L283.4024096385542,89.787136047438L285.15180722891563,89.12469759745932L286.9012048192771,89.314599410586L288.6506024096385,90.92647449965881L290.4,90.59244238828232L292.14939759036145,89.57965768959454L293.8987951807229,89.14012534182045L295.6481927710843,87.06990273593024L297.3975903614458,84.49076550825873L299.14698795180726,82.6920666003496L300.89638554216873,78.7329962723L302.64578313253014,77.14915933493207L304.3951807228916,76.31791838947879L306.144578313253,76.64627420725888L307.8939759036145,72.83881005073937L309.6433734939759,74.12465854982963L311.39277108433737,76.70755600041247L313.1421686746988,77.1349913056527L314.89156626506025,75.46500493612866L316.64096385542166,73.49708165404213L318.3903614457831,71.7402435420304L320.13975903614454,73.05104318311126L321.889156626506,69.27563508461839L323.6385542168675,72.25886542170647L325.38795180722894,71.7919554875743L327.13734939759036,70.31642167068738L328.8867469879518,70.3520228097384L330.6361445783133,68.47812703025699L332.3855421686747,67.57533113022188L334.1349397590362,67.95455900990422L335.8843373493976,67.02925693146511L337.63373493975905,67.49560407104765L339.38313253012046,66.5947741274103L341.13253012048193,65.79413415878092L342.88192771084334,64.248869395049L344.6313253012048,62.49459154240515L346.3807228915662,59.41323445076434L348.1301204819277,61.17933923007085L349.87951807228916,58.79454396256624L351.6289156626506,58.797923633740666L353.37831325301204,56.0280854898565L355.1277108433735,53.24682212098266L356.877108433735,52.75758961973172L358.6265060240964,52.02066166880137L360.37590361445785,51.86012825360261L362.1253012048193,53.06876383689014L363.87469879518073,51.251048975038884L365.6240963855422,49.64458229143081L367.37349397590367,50.08401342645811L369.1228915662651,50.017787918899884L370.87228915662655,49.22838927572017L372.62168674698796,47.92955724517842L374.37108433734943,47.87126173815429L376.12048192771084,46.13196917964724L377.8698795180723,45.40637001875011L379.6192771084337,45.53084299228422L381.3686746987952,45.35392402619914L383.1180722891566,44.430240544226955L384.86746987951807,43.24073698228207L386.61686746987954,43.54954876559999L388.366265060241,43.40951046659354L390.1156626506024,42.72503654422378L391.8650602409639,41.85501462890111L393.6144578313253,40.390421995690765L395.36385542168676,36.357503365236994L397.1132530120482,35.21766127440067L398.86265060240964,33.477703862188996L400.61204819277106,32.70100372676324L402.3614457831325,31.535433016836116L404.11084337349394,31.13725142424052L405.8602409638554,27.017318351244167L407.6096385542168,26.308479987544505L409.3590361445783,24.832966526220407L411.1084337349397,24.05606107890952L412.85783132530116,23.979638372480878L414.60722891566263,24.005019953773594L416.3566265060241,23.71218528872468L418.1060240963855,24.48584721912786L419.85542168674704,24.35079094532931L421.60481927710845,23.164178808287296L423.3542168674699,22.769616379056814L425.1036144578314,21.600334276174795L426.85301204819285,21.48869310176765L428.60240963855426,21.26201838503811L430.35180722891573,21.17752561122353L432.10120481927714,20.727749620595066L433.8506024096386,20.520051121858735L435.6,19.5616631560356" class="rv-xy-plot__series rv-xy-plot__series--line" transform="translate(44.4,5)" style="opacity: 1; stroke-width: 1.5; stroke: rgb(218, 76, 76);"/><g class="rv-xy-plot__series rv-xy-plot__series--mark" transform="translate(44.4,5)"><circle r="2" cx="435.6" cy="19.5616631560356" style="opacity: 1; stroke: rgb(218, 76, 76); fill: rgb(218, 76, 76); stroke-width: 1;"/></g><g class="rv-xy-plot__series rv-xy-plot__series--mark" transform="translate(44.4,5)"><circle r="2" cx="435.6" cy="17.176082829297282" style="opacity: 1; stroke: rgb(83, 135, 221); fill: rgb(83, 135, 221); stroke-width: 1;"/></g><defs class="rv-gradient-defs"><linearGradient id="leftFadeGradient" x1="0" x2="1" y1="0" y2="0"><stop offset="0%" stop-color="white" stop-opacity="1"/><stop offset="60%" stop-color="white" stop-opacity="1"/><stop offset="100%" stop-color="white" stop-opacity="0"/></linearGradient><linearGradient id="rightFadeGradient" x1="1" x2="0" y1="0" y2="0"><stop offset="0%" stop-color="white" stop-opacity="1"/><stop offset="100%" stop-color="white" stop-opacity="0"/></linearGradient><linearGradient id="bottomFadeGradient" x1="0" x2="0" y1="1" y2="0"><stop offset="0%" stop-color="white" stop-opacity="1"/><stop offset="40%" stop-color="white" stop-opacity="1"/><stop offset="100%" stop-color="white" stop-opacity="0"/></linearGradient><linearGradient id="topFadeGradient" x1="0" x2="0" y1="0" y2="1"><stop offset="0%" stop-color="white" stop-opacity="1"/><stop offset="100%" stop-color="white" stop-opacity="0"/></linearGradient></defs><g class="rv-xy-plot__borders plot-border"><rect class="rv-xy-plot__borders-bottom plot-border-bottom" x="0" y="228" width="500" height="30" style="fill: url(&quot;#bottomFadeGradient&quot;); opacity: 1;"/><rect class="rv-xy-plot__borders-left plot-border-left" x="0" y="0" width="44.4" height="258" style="fill: url(&quot;#leftFadeGradient&quot;); opacity: 1;"/><rect class="rv-xy-plot__borders-right plot-border-right" x="480" y="0" width="20" height="258" style="fill: url(&quot;#rightFadeGradient&quot;); opacity: 1;"/><rect class="rv-xy-plot__borders-top plot-border-top" x="0" y="0" width="500" height="5" style="fill: url(&quot;#topFadeGradient&quot;); opacity: 1;"/></g><g transform="translate(44.4,228)" class="rv-xy-plot__axis rv-xy-plot__axis--horizontal"><line x1="0" x2="435.6" y1="0" y2="0" class="rv-xy-plot__axis__line"/><g transform="translate(0, 0)" class="rv-xy-plot__axis__ticks"/></g><g transform="translate(44.4,228)" class="rv-xy-plot__axis rv-xy-plot__axis--horizontal" style="font-family: &quot;Source Sans Pro&quot;; fill: rgb(107, 107, 118); font-size: 14px;"><line x1="0" x2="435.6" y1="0" y2="0" class="rv-xy-plot__axis__line" style="font-family: &quot;Source Sans Pro&quot;; fill: rgb(107, 107, 118); font-size: 14px; stroke-width: 0;"/><g transform="translate(0, 0)" class="rv-xy-plot__axis__ticks"><g transform="translate(86.58707372733211, 0)" class="rv-xy-plot__axis__tick" style="font-family: &quot;Source Sans Pro&quot;; fill: rgb(107, 107, 118); font-size: 14px;"><line x1="0" x2="0" y1="-6" y2="6" class="rv-xy-plot__axis__tick__line" style="font-family: &quot;Source Sans Pro&quot;; fill: rgb(107, 107, 118); font-size: 14px; stroke-width: 0;"/><text text-anchor="middle" dy="0.72em" transform="translate(0, 14)" class="rv-xy-plot__axis__tick__text" style="font-family: sans-serif; fill: rgb(107, 107, 118); font-size: 14px;">2M</text></g><g transform="translate(174.08837496267802, 0)" class="rv-xy-plot__axis__tick" style="font-family: &quot;Source Sans Pro&quot;; fill: rgb(107, 107, 118); font-size: 14px;"><line x1="0" x2="0" y1="-6" y2="6" class="rv-xy-plot__axis__tick__line" style="font-family: &quot;Source Sans Pro&quot;; fill: rgb(107, 107, 118); font-size: 14px; stroke-width: 0;"/><text text-anchor="middle" dy="0.72em" transform="translate(0, 14)" class="rv-xy-plot__axis__tick__text" style="font-family: sans-serif; fill: rgb(107, 107, 118); font-size: 14px;">4M</text></g><g transform="translate(261.58967619802394, 0)" class="rv-xy-plot__axis__tick" style="font-family: &quot;Source Sans Pro&quot;; fill: rgb(107, 107, 118); font-size: 14px;"><line x1="0" x2="0" y1="-6" y2="6" class="rv-xy-plot__axis__tick__line" style="font-family: &quot;Source Sans Pro&quot;; fill: rgb(107, 107, 118); font-size: 14px; stroke-width: 0;"/><text text-anchor="middle" dy="0.72em" transform="translate(0, 14)" class="rv-xy-plot__axis__tick__text" style="font-family: sans-serif; fill: rgb(107, 107, 118); font-size: 14px;">6M</text></g><g transform="translate(349.09097743336986, 0)" class="rv-xy-plot__axis__tick" style="font-family: &quot;Source Sans Pro&quot;; fill: rgb(107, 107, 118); font-size: 14px;"><line x1="0" x2="0" y1="-6" y2="6" class="rv-xy-plot__axis__tick__line" style="font-family: &quot;Source Sans Pro&quot;; fill: rgb(107, 107, 118); font-size: 14px; stroke-width: 0;"/><text text-anchor="middle" dy="0.72em" transform="translate(0, 14)" class="rv-xy-plot__axis__tick__text" style="font-family: sans-serif; fill: rgb(107, 107, 118); font-size: 14px;">8M</text></g></g><g transform="translate(0, 0)" class="rv-xy-plot__axis__title"><g transform="translate(429.6, -6) rotate(0)" style="text-anchor: end; font-family: &quot;Source Sans Pro&quot;; fill: rgb(107, 107, 118); font-size: 14px;"><text style="font-family: sans-serif; fill: rgb(107, 107, 118); font-size: 14px;"> Steps</text></g></g></g><g transform="translate(44.4,228)" class="rv-xy-plot__axis rv-xy-plot__axis--horizontal"><line x1="0" x2="0" y1="0" y2="0" class="rv-xy-plot__axis__line"/><g transform="translate(0, 0)" class="rv-xy-plot__axis__ticks"><g transform="translate(86.58707372733211, 0)" class="rv-xy-plot__axis__tick"><line x1="0" x2="0" y1="-6" y2="6" class="rv-xy-plot__axis__tick__line"/><text text-anchor="middle" dy="0.72em" transform="translate(0, 14)" class="rv-xy-plot__axis__tick__text" style="font-family: sans-serif;"/></g><g transform="translate(174.08837496267802, 0)" class="rv-xy-plot__axis__tick"><line x1="0" x2="0" y1="-6" y2="6" class="rv-xy-plot__axis__tick__line"/><text text-anchor="middle" dy="0.72em" transform="translate(0, 14)" class="rv-xy-plot__axis__tick__text" style="font-family: sans-serif;"/></g><g transform="translate(261.58967619802394, 0)" class="rv-xy-plot__axis__tick"><line x1="0" x2="0" y1="-6" y2="6" class="rv-xy-plot__axis__tick__line"/><text text-anchor="middle" dy="0.72em" transform="translate(0, 14)" class="rv-xy-plot__axis__tick__text" style="font-family: sans-serif;"/></g><g transform="translate(349.09097743336986, 0)" class="rv-xy-plot__axis__tick"><line x1="0" x2="0" y1="-6" y2="6" class="rv-xy-plot__axis__tick__line"/><text text-anchor="middle" dy="0.72em" transform="translate(0, 14)" class="rv-xy-plot__axis__tick__text" style="font-family: sans-serif;"/></g></g></g><g transform="translate(0,5)" class="rv-xy-plot__axis rv-xy-plot__axis--vertical" style="font-family: &quot;Source Sans Pro&quot;; fill: rgb(107, 107, 118); font-size: 14px;"><line x1="44.4" x2="44.4" y1="0" y2="223" class="rv-xy-plot__axis__line" style="font-family: &quot;Source Sans Pro&quot;; fill: rgb(107, 107, 118); font-size: 14px; stroke: none;"/><g transform="translate(44.4, 0)" class="rv-xy-plot__axis__ticks"><g transform="translate(0, 223)" class="rv-xy-plot__axis__tick" style="font-family: &quot;Source Sans Pro&quot;; fill: rgb(107, 107, 118); font-size: 14px;"><line y1="0" y2="0" x1="6" x2="-6" class="rv-xy-plot__axis__tick__line" style="font-family: &quot;Source Sans Pro&quot;; fill: rgb(107, 107, 118); font-size: 14px; stroke: none;"/><text text-anchor="end" dy="0.32em" transform="translate(-14, 0)" class="rv-xy-plot__axis__tick__text" style="font-family: sans-serif; fill: rgb(107, 107, 118); font-size: 14px;">0</text></g><g transform="translate(0, 172.08590283741574)" class="rv-xy-plot__axis__tick" style="font-family: &quot;Source Sans Pro&quot;; fill: rgb(107, 107, 118); font-size: 14px;"><line y1="0" y2="0" x1="6" x2="-6" class="rv-xy-plot__axis__tick__line" style="font-family: &quot;Source Sans Pro&quot;; fill: rgb(107, 107, 118); font-size: 14px; stroke: none;"/><text text-anchor="end" dy="0.32em" transform="translate(-14, 0)" class="rv-xy-plot__axis__tick__text" style="font-family: sans-serif; fill: rgb(107, 107, 118); font-size: 14px;">100</text></g><g transform="translate(0, 121.1718056748315)" class="rv-xy-plot__axis__tick" style="font-family: &quot;Source Sans Pro&quot;; fill: rgb(107, 107, 118); font-size: 14px;"><line y1="0" y2="0" x1="6" x2="-6" class="rv-xy-plot__axis__tick__line" style="font-family: &quot;Source Sans Pro&quot;; fill: rgb(107, 107, 118); font-size: 14px; stroke: none;"/><text text-anchor="end" dy="0.32em" transform="translate(-14, 0)" class="rv-xy-plot__axis__tick__text" style="font-family: sans-serif; fill: rgb(107, 107, 118); font-size: 14px;">200</text></g><g transform="translate(0, 70.25770851224726)" class="rv-xy-plot__axis__tick" style="font-family: &quot;Source Sans Pro&quot;; fill: rgb(107, 107, 118); font-size: 14px;"><line y1="0" y2="0" x1="6" x2="-6" class="rv-xy-plot__axis__tick__line" style="font-family: &quot;Source Sans Pro&quot;; fill: rgb(107, 107, 118); font-size: 14px; stroke: none;"/><text text-anchor="end" dy="0.32em" transform="translate(-14, 0)" class="rv-xy-plot__axis__tick__text" style="font-family: sans-serif; fill: rgb(107, 107, 118); font-size: 14px;">300</text></g><g transform="translate(0, 19.343611349662996)" class="rv-xy-plot__axis__tick" style="font-family: &quot;Source Sans Pro&quot;; fill: rgb(107, 107, 118); font-size: 14px;"><line y1="0" y2="0" x1="6" x2="-6" class="rv-xy-plot__axis__tick__line" style="font-family: &quot;Source Sans Pro&quot;; fill: rgb(107, 107, 118); font-size: 14px; stroke: none;"/><text text-anchor="end" dy="0.32em" transform="translate(-14, 0)" class="rv-xy-plot__axis__tick__text" style="font-family: sans-serif; fill: rgb(107, 107, 118); font-size: 14px;">400</text></g></g><g transform="translate(44.4, 0)" class="rv-xy-plot__axis__title"><g transform="translate(16, 6) rotate(-90)" style="text-anchor: end; font-family: &quot;Source Sans Pro&quot;; fill: rgb(107, 107, 118); font-size: 14px;"><text style="font-family: sans-serif; fill: rgb(107, 107, 118); font-size: 14px;">Episodic Return</text></g></g></g></svg></g><style xmlns="http://www.w3.org/1999/xhtml">/*&lt;![CDATA[*/<br />text { font-size: 10px; fill: black }<br />.react-vis-magic-css-import-rule{display:inherit}.rv-treemap{font-size:12px;position:relative}.rv-treemap__leaf{overflow:hidden;position:absolute}.rv-treemap__leaf--circle{align-items:center;border-radius:100%;display:flex;justify-content:center}.rv-treemap__leaf__content{overflow:hidden;padding:10px;text-overflow:ellipsis}.rv-xy-plot{color:#c3c3c3;position:relative}.rv-xy-plot canvas{pointer-events:none}.rv-xy-plot .rv-xy-canvas{pointer-events:none;position:absolute}.rv-xy-plot__inner{display:block}.rv-xy-plot__axis__line{fill:none;stroke-width:2px;stroke:#e6e6e9}.rv-xy-plot__axis__tick__line{stroke:#e6e6e9}.rv-xy-plot__axis__tick__text{fill:#6b6b76;font-size:11px}.rv-xy-plot__axis__title text{fill:#6b6b76;font-size:11px}.rv-xy-plot__grid-lines__line{stroke:#e6e6e9}.rv-xy-plot__circular-grid-lines__line{fill-opacity:0;stroke:#e6e6e9}.rv-xy-plot__series,.rv-xy-plot__series path{pointer-events:all}.rv-xy-plot__series--line{fill:none;stroke:#000;stroke-width:2px}.rv-crosshair{position:absolute;font-size:11px;pointer-events:none}.rv-crosshair__line{background:#47d3d9;width:1px}.rv-crosshair__inner{position:absolute;text-align:left;top:0}.rv-crosshair__inner__content{border-radius:4px;background:#3a3a48;color:#fff;font-size:12px;padding:7px 10px;box-shadow:0 2px 4px rgba(0,0,0,0.5)}.rv-crosshair__inner--left{right:4px}.rv-crosshair__inner--right{left:4px}.rv-crosshair__title{font-weight:bold;white-space:nowrap}.rv-crosshair__item{white-space:nowrap}.rv-hint{position:absolute;pointer-events:none}.rv-hint__content{border-radius:4px;padding:7px 10px;font-size:12px;background:#3a3a48;box-shadow:0 2px 4px rgba(0,0,0,0.5);color:#fff;text-align:left;white-space:nowrap}.rv-discrete-color-legend{box-sizing:border-box;overflow-y:auto;font-size:12px}.rv-discrete-color-legend.horizontal{white-space:nowrap}.rv-discrete-color-legend-item{color:#3a3a48;border-radius:1px;padding:9px 10px}.rv-discrete-color-legend-item.horizontal{display:inline-block}.rv-discrete-color-legend-item.horizontal .rv-discrete-color-legend-item__title{margin-left:0;display:block}.rv-discrete-color-legend-item__color{display:inline-block;vertical-align:middle;overflow:visible}.rv-discrete-color-legend-item__color__path{stroke:#dcdcdc;stroke-width:2px}.rv-discrete-color-legend-item__title{margin-left:10px}.rv-discrete-color-legend-item.disabled{color:#b8b8b8}.rv-discrete-color-legend-item.clickable{cursor:pointer}.rv-discrete-color-legend-item.clickable:hover{background:#f9f9f9}.rv-search-wrapper{display:flex;flex-direction:column}.rv-search-wrapper__form{flex:0}.rv-search-wrapper__form__input{width:100%;color:#a6a6a5;border:1px solid #e5e5e4;padding:7px 10px;font-size:12px;box-sizing:border-box;border-radius:2px;margin:0 0 9px;outline:0}.rv-search-wrapper__contents{flex:1;overflow:auto}.rv-continuous-color-legend{font-size:12px}.rv-continuous-color-legend .rv-gradient{height:4px;border-radius:2px;margin-bottom:5px}.rv-continuous-size-legend{font-size:12px}.rv-continuous-size-legend .rv-bubbles{text-align:justify;overflow:hidden;margin-bottom:5px;width:100%}.rv-continuous-size-legend .rv-bubble{background:#d8d9dc;display:inline-block;vertical-align:bottom}.rv-continuous-size-legend .rv-spacer{display:inline-block;font-size:0;line-height:0;width:100%}.rv-legend-titles{height:16px;position:relative}.rv-legend-titles__left,.rv-legend-titles__right,.rv-legend-titles__center{position:absolute;white-space:nowrap;overflow:hidden}.rv-legend-titles__center{display:block;text-align:center;width:100%}.rv-legend-titles__right{right:0}.rv-radial-chart .rv-xy-plot__series--label{pointer-events:none}<br /><br />/*]]&gt;*/</style></svg>