<svg xmlns="http://www.w3.org/2000/svg" viewBox="0 0 499.9999694824219 300"><g><text x="50%" y="0" style="fill: rgb(54, 58, 61); dominant-baseline: text-before-edge; text-anchor: middle; font-weight: bold; font-size: 13px; font-family: sans-serif;">MicrortsRandomEnemyShapedReward3-v1</text><svg viewBox="0 0 1024 1024" x="100.67327880859375" y="25.90625" height="11" width="11"><path d="M128 533.333h768c23.564 0 42.667-19.103 42.667-42.667v-85.333c0-23.564-19.103-42.667-42.667-42.667h-768c-23.564 0-42.667 19.103-42.667 42.667v85.333c0 23.564 19.103 42.667 42.667 42.667z" style="fill: rgb(215, 62, 62);"/></svg><text x="119.67327880859375" y="23.90625" style="fill: rgb(215, 62, 62); dominant-baseline: text-before-edge; font-size: 11px; font-family: sans-serif;">openai/baselines' PPO-MultiDiscrete</text><svg viewBox="0 0 1024 1024" x="157.37786865234375" y="44.414764404296875" height="11" width="11"><path d="M128 533.333h768c23.564 0 42.667-19.103 42.667-42.667v-85.333c0-23.564-19.103-42.667-42.667-42.667h-768c-23.564 0-42.667 19.103-42.667 42.667v85.333c0 23.564 19.103 42.667 42.667 42.667z" style="fill: rgb(56, 116, 216);"/></svg><text x="176.37786865234375" y="42.414764404296875" style="fill: rgb(56, 116, 216); dominant-baseline: text-before-edge; font-size: 11px; font-family: sans-serif;">our PPO-MultiDiscrete</text></g><g transform="translate(0, 60.014190673828125)"><svg class="rv-xy-plot__inner" width="500" height="240"><g transform="translate(42,5)" class="rv-xy-plot__grid-lines"><line y1="203.93056718365236" y2="203.93056718365236" x1="0" x2="438" class="rv-xy-plot__grid-lines__line" style="stroke-width: 0.5;"/><line y1="163.8269895536243" y2="163.8269895536243" x1="0" x2="438" class="rv-xy-plot__grid-lines__line" style="stroke-width: 0.5;"/><line y1="123.7234119235962" y2="123.7234119235962" x1="0" x2="438" class="rv-xy-plot__grid-lines__line" style="stroke-width: 0.5;"/><line y1="83.61983429356813" y2="83.61983429356813" x1="0" x2="438" class="rv-xy-plot__grid-lines__line" style="stroke-width: 0.5;"/><line y1="43.516256663540034" y2="43.516256663540034" x1="0" x2="438" class="rv-xy-plot__grid-lines__line" style="stroke-width: 0.5;"/><line y1="3.412679033511962" y2="3.412679033511962" x1="0" x2="438" class="rv-xy-plot__grid-lines__line" style="stroke-width: 0.5;"/></g><path d="M0,44.60699371827857L1.7590361445783134,39.946103043240484L3.5180722891566263,68.77426274848273L5.27710843373494,61.645450543939575L7.036144578313253,56.401306360876475L8.795180722891565,53.66358336600521L10.55421686746988,59.186833782067865L12.313253012048191,62.88041323241392L14.072289156626505,59.32729963841508L15.83132530120482,56.34962708461237L17.590361445783135,53.41069953766196L19.349397590361445,51.66647424340578L21.10843373493976,49.69780367412565L22.867469879518072,48.10312566492246L24.626506024096386,47.38565129993289L26.3855421686747,46.31293772821585L28.144578313253014,48.4364025226227L29.903614457831328,46.78972175300153L31.66265060240964,45.42064182718688L33.42168674698795,44.20437270288758L35.18072289156626,49.971275787863924L36.93975903614457,47.712480214115615L38.69879518072289,46.246209355979516L40.4578313253012,44.46578117370845L42.21686746987952,42.71675210217741L43.97590361445783,41.45766773283918L45.734939759036145,43.902614831962396L47.493975903614455,42.85194614023091L49.25301204819277,41.76456469048242L51.01204819277108,40.365770873138764L52.77108433734939,38.99857840430712L54.53012048192771,38.63420871721406L56.28915662650602,37.608569220069L58.04819277108433,37.19947810159222L59.807228915662655,35.63787900853511L61.566265060240966,34.70402745450354L63.325301204819276,33.44911214859386L65.08433734939759,32.40024816744761L66.84337349397589,31.66254113474151L68.60240963855422,30.462547973420673L70.36144578313252,29.674149199582253L72.12048192771083,28.89766757319235L73.87951807228914,28.208353959655817L75.63855421686745,28.038348958307804L77.39759036144578,27.86386272891383L79.15662650602408,27.212264813700443L80.9156626506024,26.553032605968973L82.6746987951807,25.560892816357796L84.43373493975902,24.49994072840493L86.19277108433734,24.159429115103947L87.95180722891565,23.70550108148968L89.71084337349396,23.169454784608334L91.46987951807228,22.652553273304367L93.22891566265058,21.719609437936292L94.98795180722891,20.8894472274989L96.74698795180721,20.356689882127398L98.50602409638553,19.655904114987532L100.26506024096383,18.887455049213354L102.02409638554215,18.397709511627877L103.78313253012047,18.778614434719415L105.54216867469879,18.842059019761848L107.30120481927709,18.531675021221112L109.0602409638554,18.34736201906961L110.81927710843372,18.193188298790716L112.57831325301204,18.31227200183462L114.33734939759034,18.115744440800462L116.09638554216869,16.862424042199866L117.85542168674696,16.63181483103408L119.61445783132531,15.869806830507743L121.37349397590359,15.50976853078316L123.13253012048193,14.586340595931414L124.89156626506023,13.677269695928233L126.65060240963855,13.90109901927744L128.40963855421685,13.088167124621473L130.16867469879517,12.607033420176199L131.9277108433735,11.913300561636179L133.6867469879518,12.042717894475878L135.4457831325301,11.05561111316295L137.20481927710844,11.791897318550573L138.96385542168673,11.012409646906805L140.72289156626505,11.89367605219029L142.48192771084337,11.855449985318879L144.24096385542165,10.889553570633828L146,10.016865707441601L147.7590361445783,9.048352786004891L149.5180722891566,8.304200474803352L151.27710843373492,7.687362989787152L153.03614457831324,7.075492521146311L154.79518072289156,6.649259001692023L156.55421686746985,6.102917055290531L158.31325301204816,5.667363617097307L160.0722891566265,5.2697486569082965L161.8313253012048,4.882462179605834L163.59036144578312,4.436985604730156L165.3493975903614,4.075203320167277L167.10843373493975,3.708800151202497L168.86746987951807,3.3328694427249324L170.62650602409636,3.0171862482842036L172.38554216867468,2.6895934673612465L174.144578313253,2.453431903178585L175.9036144578313,2.4367969214801537L177.66265060240963,2.2599984451993684L179.42168674698792,1.7617205888693976L181.18072289156626,1.4953288527336461L182.93975903614455,1.4829804147379L184.69879518072287,1.4577189842876348L186.45783132530119,1.4380213408331555L188.2168674698795,1.1364621740853187L189.97590361445782,1.028111755867433L191.7349397590361,1.0772687911252143L193.49397590361443,1.2420351500421312L195.25301204819277,1.2625890432603764L197.01204819277106,1.0348107016188095L198.77108433734938,0.9272284560625416L200.53012048192767,0.8411093976444939L202.289156626506,0.9109217145304066L204.04819277108433,1.1108761619488532L205.80722891566262,1.1202826022658225L207.56626506024094,0.9474776376307892L209.32530120481925,0.9721727663312929L211.08433734939757,1.0088933205986517L212.8433734939759,1.0112353031509191L214.60240963855418,1.0719374011150857L216.36144578313252,1.0563673936109796L218.1204819277108,1.0158265155032824L219.87951807228913,0.956080325984226L221.63855421686745,0.9145286280434844L223.39759036144574,0.8553435582107388L225.15662650602408,0.7442487745170628L226.91566265060237,0.7558173772539734L228.6746987951807,0.805956509616696L230.43373493975898,0.573454560311234L232.19277108433738,0.4273938017785023L233.95180722891564,0.416096997145331L235.710843373494,0.46495936259828563L237.46987951807233,3.6610080167493884L239.22891566265062,3.283143102967032L240.9879518072289,2.9535454856492347L242.74698795180723,2.634068028822043L244.50602409638557,2.249053155655928L246.2650602409639,2.120821900584424L248.02409638554215,2.0057145907653213L249.78313253012047,1.9278965030191297L251.54216867469881,1.8919814847147731L253.30120481927713,1.717899452648441L255.06024096385542,1.651408253032411L256.8192771084337,1.6616128668071228L258.578313253012,1.278966997992389L260.3373493975904,1.3535890706138272L262.09638554216866,1.384555820662063L263.85542168674704,1.3398841092829872L265.6144578313253,0.939866173189387L267.3734939759036,0.6334027845673668L269.13253012048193,0.4893578610710986L270.89156626506025,0.5222782849888752L272.65060240963857,0.4904091932588972L274.4096385542169,0.5194337685124745L276.16867469879514,0.5692927709925161L277.9277108433735,0.7184055764138969L279.68674698795184,0.69352520604536L281.44578313253015,0.7223246605855937L283.2048192771084,0.7217092713762974L284.96385542168673,0.6278210335618639L286.72289156626505,4.342893565343012L288.4819277108434,4.00607733795763L290.2409638554217,3.1801542533482605L292,5.797901115809176L293.7590361445783,5.349215688430061L295.5180722891566,4.831794010475978L297.27710843373495,4.3458600829519165L299.03614457831327,3.8053286285619463L300.7951807228916,3.5937414712028093L302.55421686746985,3.37094773413066L304.31325301204816,3.0842869337614447L306.07228915662654,2.76674807136415L307.83132530120486,2.525560536270244L309.5903614457831,2.279070521381202L311.34939759036143,2.129717226184453L313.10843373493975,2.0027839934507274L314.8674698795181,1.8409698865159507L316.6265060240964,1.5867159518726837L318.38554216867465,1.4252720134788222L320.144578313253,1.2085816683549693L321.90361445783134,1.0924545717687035L323.6626506024096,1.0407558417287492L325.421686746988,1.0888629633075837L327.18072289156623,0.9254888749940904L328.9397590361446,0.9720752097967816L330.69879518072287,0.8749904654656215L332.4578313253012,0.8103609777505888L334.21686746987956,0.8735494357466328L335.9759036144578,0.8991158348998746L337.73493975903614,0.9424316753679951L339.49397590361446,1.012965223998532L341.2530120481928,0.9855755322514004L343.01204819277115,0.9245394217572162L344.77108433734935,0.8741469464780494L346.53012048192767,0.8999605985138281L348.28915662650604,0.8302081635677927L350.04819277108436,0.8065880217144478L351.8072289156627,0.7952235584086975L353.56626506024094,0.8051493346796051L355.32530120481925,0.7700921219339685L357.08433734939763,0.6722379900428843L358.8433734939759,0.5553646969255699L360.6024096385542,0.598505787995367L362.3614457831325,0.49697856836566745L364.12048192771084,0.392583852787286L365.87951807228916,0L367.6385542168675,4.652086880988313L369.3975903614458,4.222017037327632L371.1566265060241,3.7647687296561987L372.91566265060237,3.410279928647783L374.6746987951807,3.1185434235885863L376.43373493975906,2.9092190439741743L378.1927710843374,2.6899581334309586L379.95180722891564,2.5162897067335432L381.71084337349396,2.360007119520361L383.4698795180723,2.05833202792735L385.22891566265065,1.9537578832444562L386.9879518072289,1.802759116589605L388.7469879518072,1.6094608282870277L390.50602409638554,1.4480828579649585L392.26506024096386,1.36069016766108L394.0240963855422,1.199409490559931L395.7831325301205,1.1740945245708378L397.54216867469876,1.122946655527857L399.30120481927713,1.0974752330874922L401.0602409638554,1.2470767423578544L402.8192771084337,1.2667470200558195L404.5783132530121,1.377431988343587L406.33734939759034,1.2162494668961221L408.09638554216866,1.2238366282363362L409.855421686747,1.186963384245285L411.6144578313253,0.9654750669953138L413.37349397590367,0.6566779804887007L415.1325301204819,0.7047534595919364L416.89156626506025,0.645647013820202L418.65060240963857,0.72725956009214L420.4096385542169,4.57656452525608L422.1686746987952,4.186495943887282L423.92771084337346,3.8887149616929846L425.6867469879518,3.4462188395673317L427.44578313253015,3.3513447397430554L429.2048192771084,3.1206687095446526L430.96385542168673,2.8573659255503263L432.72289156626505,2.6862059143995842L434.4819277108433,2.6196146511865734L436.2409638554217,2.3943497983742312L438,2.1613218839771036L438,27.98469595391486L436.2409638554217,26.463716878987732L434.4819277108433,28.830142799172027L432.72289156626505,28.07284078028024L430.96385542168673,26.566938379661085L429.2048192771084,29.177406866994342L427.44578313253015,32.02996936482487L425.6867469879518,35.01476922824223L423.92771084337346,38.538536001243024L422.1686746987952,38.75779011548704L420.4096385542169,37.69101465428814L418.65060240963857,36.554583727364474L416.89156626506025,37.22802440882656L415.1325301204819,41.04699228283812L413.37349397590367,41.054190805343225L411.6144578313253,41.77875521449841L409.855421686747,37.50004255647639L408.09638554216866,32.82464836405317L406.33734939759034,31.146168499901616L404.5783132530121,34.16709771460962L402.8192771084337,32.56900610427447L401.0602409638554,30.784175615343127L399.30120481927713,23.724355272500183L397.54216867469876,22.36132868485207L395.7831325301205,24.509482371036743L394.0240963855422,26.91436709670848L392.26506024096386,24.297963796066327L390.50602409638554,23.012968884843662L388.7469879518072,25.257137322019037L386.9879518072289,27.782466490907495L385.22891566265065,30.424874243804837L383.4698795180723,29.830882518532288L381.71084337349396,28.89658303767086L379.95180722891564,31.740200986959582L378.1927710843374,34.83157265246908L376.43373493975906,33.357528736088014L374.6746987951807,29.070826359692983L372.91566265060237,31.830155724856876L371.1566265060241,34.953024199911354L369.3975903614458,38.48765901214191L367.6385542168675,38.12020162192811L365.87951807228916,36.80822593456184L364.12048192771084,32.02464439520213L362.3614457831325,35.25024131337642L360.6024096385542,34.51297625810495L358.8433734939759,29.680925704857035L357.08433734939763,28.95720913866644L355.32530120481925,27.59474668607288L353.56626506024094,30.307183044848934L351.8072289156627,29.014834118424893L350.04819277108436,26.59196207744715L348.28915662650604,29.04131155791329L346.53012048192767,31.937550781242262L344.77108433734935,30.993967709034333L343.01204819277115,27.837715066289128L341.2530120481928,26.117244774642373L339.49397590361446,25.243758925305844L337.73493975903614,27.434005633225564L335.9759036144578,24.967696646210292L334.21686746987956,23.257846394037966L332.4578313253012,21.309859911130438L330.69879518072287,23.32107338222366L328.9397590361446,22.11000724250061L327.18072289156623,24.135041774505776L325.421686746988,26.580221654907067L323.6626506024096,29.149822426103015L321.90361445783134,24.855217037496672L320.144578313253,27.332409183964266L318.38554216867465,29.77221021731753L316.6265060240964,29.67382600149129L314.8674698795181,32.52352970656822L313.10843373493975,35.692770947314244L311.34939759036143,39.248064324168865L309.5903614457831,35.92539574072607L307.83132530120486,31.063216026860168L306.07228915662654,30.539362466294612L304.31325301204816,27.646205792944833L302.55421686746985,26.24804938315953L300.7951807228916,28.82113520780122L299.03614457831327,28.522133694953528L297.27710843373495,31.268035492434674L295.5180722891566,34.07231096319559L293.7590361445783,33.80681539338828L292,36.98905355786353L290.2409638554217,36.865487427499275L288.4819277108434,31.09534811119282L286.72289156626505,30.549778149104892L284.96385542168673,28.56145746093096L283.2048192771084,31.422763241306388L281.44578313253015,29.52897301183144L279.68674698795184,27.33506358962494L277.9277108433735,26.953749184071786L276.16867469879514,23.29686955398824L274.4096385542169,21.241312627575976L272.65060240963857,23.24857631139449L270.89156626506025,25.438910010582173L269.13253012048193,27.936673008104183L267.3734939759036,30.719660326007585L265.6144578313253,33.73987781574212L263.85542168674704,28.706753989329023L262.09638554216866,31.459886540728807L260.3373493975904,34.494385655396464L258.578313253012,34.562110977450956L256.8192771084337,38.089907959992175L255.06024096385542,35.37597103536055L253.30120481927713,33.94801554341356L251.54216867469881,33.19910333865029L249.78313253012047,36.22624753518829L248.02409638554215,35.63727233455716L246.2650602409639,34.11040392338568L244.50602409638557,37.34583303668796L242.74698795180723,31.971709015707468L240.9879518072289,35.05280596862861L239.22891566265062,33.5161256437965L237.46987951807233,36.44848397419588L235.710843373494,32.71990310718077L233.95180722891564,32.38537947811446L232.19277108433738,30.61559705052029L230.43373493975898,33.669878429255355L228.6746987951807,29.774266622885875L226.91566265060237,32.69651094038511L225.15662650602408,35.86456152568402L223.39759036144574,39.211568220557304L221.63855421686745,37.514226216907566L219.87951807228913,36.04486481132982L218.1204819277108,35.955765607970804L216.36144578313252,39.373906864866235L214.60240963855418,35.066212144386775L212.8433734939759,33.22206216875817L211.08433734939757,36.07075258414054L209.32530120481925,36.607658335701345L207.56626506024094,36.593656744965344L205.80722891566262,31.227359048252744L204.04819277108433,27.78310847641296L202.289156626506,26.02307035859152L200.53012048192767,28.231678947733393L198.77108433734938,26.938159646926866L197.01204819277106,29.39120935205111L195.25301204819277,32.2435240278039L193.49397590361443,30.42938012090388L191.7349397590361,29.826930793970597L189.97590361445782,28.553691855284722L188.2168674698795,31.22540498372036L186.45783132530119,34.106201660603354L184.69879518072287,33.91054650578339L182.93975903614455,26.951383380509924L181.18072289156626,29.23364666971886L179.42168674698792,31.945630778809768L177.66265060240963,34.87494663277934L175.9036144578313,38.02359320117559L174.144578313253,36.3817405425875L172.38554216867468,39.72571767311179L170.62650602409636,43.60671147089708L168.86746987951807,44.31658756005564L167.10843373493975,47.51265636992647L165.3493975903614,47.37376033476492L163.59036144578312,47.04801529550935L161.8313253012048,46.797435868007256L160.0722891566265,47.45676321933195L158.31325301204816,48.12674432604558L156.55421686746985,45.65440707926161L154.79518072289156,48.10089472982732L153.03614457831324,48.8283435666301L151.27710843373492,52.923503716792766L149.5180722891566,51.90896703251575L147.7590361445783,51.19652817692408L146,54.302501844000155L144.24096385542165,53.51566639622138L142.48192771084337,57.95789900274198L140.72289156626505,58.73622841720882L138.96385542168673,56.351212796660235L137.20481927710844,56.8222737540289L135.4457831325301,56.6235112333832L133.6867469879518,60.545830509095026L131.9277108433735,61.97165478317733L130.16867469879517,60.35763514593697L128.40963855421685,61.14632684081778L126.65060240963855,65.46467830214944L124.89156626506023,66.08586106824717L123.13253012048193,62.9531634263972L121.37349397590359,64.67624222020366L119.61445783132531,66.93405419505896L117.85542168674696,71.47724725699561L116.09638554216869,67.49910555335714L114.33734939759034,68.16744959453803L112.57831325301204,60.74706634650443L110.81927710843372,58.01725329761374L109.0602409638554,57.87620128805231L107.30120481927709,57.00462446739785L105.54216867469879,60.66468247050475L103.78313253012047,64.2684677987366L102.02409638554215,62.3918247059669L100.26506024096383,63.26397383930346L98.50602409638553,67.46265209095652L96.74698795180721,71.87006039915522L94.98795180722891,68.90385733507246L93.22891566265058,69.13448318611925L91.46987951807228,69.15303425999777L89.71084337349396,66.83956083478046L87.95180722891565,70.61496316079959L86.19277108433734,72.09875059210765L84.43373493975902,74.80120720262855L82.6746987951807,79.97147832468822L80.9156626506024,80.47821184079064L79.15662650602408,81.61255911764417L77.39759036144578,87.79522075410627L75.63855421686745,89.0626862232753L73.87951807228914,91.65395055392393L72.12048192771083,84.13539587316758L70.36144578313252,87.37995203192378L68.60240963855422,88.56431286658737L66.84337349397589,88.04814042108809L65.08433734939759,85.13433427644758L63.325301204819276,87.73102757470537L61.566265060240966,90.2345281634333L59.807228915662655,92.7329877439657L58.04819277108433,93.55826743788184L56.28915662650602,89.65782598808195L54.53012048192771,90.34227627925806L52.77108433734939,92.22835981792139L51.01204819277108,88.06257850623257L49.25301204819277,87.35954498327274L47.493975903614455,88.64742689942338L45.734939759036145,90.99070024423393L43.97590361445783,86.40572369742787L42.21686746987952,83.7177167788933L40.4578313253012,88.50186721793945L38.69879518072289,89.51749117269537L36.93975903614457,91.70803815461379L35.18072289156626,90.70541824036874L33.42168674698795,88.34526793909563L31.66265060240964,89.240023320519L29.903614457831328,90.24590505076597L28.144578313253014,93.39326244976L26.3855421686747,95.16550307951415L24.626506024096386,102.62490769579402L22.867469879518072,106.85964522498465L21.10843373493976,107.54943236314001L19.349397590361445,111.15239385772546L17.590361445783135,109.74128640250294L15.83132530120482,121.03444572216576L14.072289156626505,128.30238390677692L12.313253012048191,136.91168856433174L10.55421686746988,132.2690667742413L8.795180722891565,142.17991959150635L7.036144578313253,152.8499603673093L5.27710843373494,150.17688923365807L3.5180722891566263,168.8139098347448L1.7590361445783134,170.6746523982644L0,205Z" class="rv-xy-plot__series rv-xy-plot__series--line" transform="translate(42,5)" style="opacity: 1; stroke: rgba(218, 76, 76, 0); fill: rgba(218, 76, 76, 0.1);"/><path d="M0,149.79150359957205L1.7590361445783134,109.51096469870498L3.5180722891566263,118.89093699906398L5.27710843373494,106.77469158312198L7.036144578313253,104.26478552400296L8.795180722891565,99.66381887430079L10.55421686746988,96.9342647879491L12.313253012048191,99.1963530942367L14.072289156626505,92.10569163802636L15.83132530120482,86.37851166682611L17.590361445783135,79.61584712948105L19.349397590361445,79.45945395586315L21.10843373493976,77.6558533289082L22.867469879518072,75.33418506941088L24.626506024096386,73.69500882573271L26.3855421686747,69.56062387157257L28.144578313253014,69.94175997172141L29.903614457831328,67.05582677171319L31.66265060240964,65.19022818827335L33.42168674698795,63.73753350059858L35.18072289156626,68.21541077075567L36.93975903614457,66.92949337959719L38.69879518072289,64.86807921677912L40.4578313253012,63.24621983444611L42.21686746987952,60.37098751315635L43.97590361445783,61.609871090819254L45.734939759036145,64.37144660943108L47.493975903614455,62.46251081922671L49.25301204819277,60.87987447672475L51.01204819277108,61.53124616981325L52.77108433734939,63.08074849166761L54.53012048192771,62.52382484677665L56.28915662650602,61.071544189613164L58.04819277108433,62.74846802990507L59.807228915662655,61.08229876628082L61.566265060240966,59.125545944507714L63.325301204819276,58.153309240998524L65.08433734939759,56.39845610399193L66.84337349397589,56.36506048557781L68.60240963855422,56.69928678405103L70.36144578313252,55.328572508862266L72.12048192771083,53.223511911962724L73.87951807228914,54.89500368265463L75.63855421686745,54.183223554212596L77.39759036144578,53.14303962816422L79.15662650602408,50.14978966680629L80.9156626506024,49.818375148189546L82.6746987951807,48.692541987010614L84.43373493975902,45.86573934010128L86.19277108433734,44.43412585740691L87.95180722891565,43.23845853494479L89.71084337349396,41.31350422265356L91.46987951807228,41.48443652143537L93.22891566265058,40.867142096637735L94.98795180722891,40.09739032578394L96.74698795180721,40.45945971253166L98.50602409638553,38.44105420225721L100.26506024096383,36.41974845530162L102.02409638554215,35.84344841318736L103.78313253012047,37.37052249308606L105.54216867469879,35.92323175544557L107.30120481927709,34.273992864565976L109.0602409638554,35.67039880378176L110.81927710843372,35.34078715643349L112.57831325301204,36.08487105324077L114.33734939759034,38.20589449865001L116.09638554216869,37.10663751743497L117.85542168674696,39.462880286838974L119.61445783132531,37.1370977791031L121.37349397590359,35.979900190018355L123.13253012048193,34.87408853729704L124.89156626506023,35.1039477895843L126.65060240963855,35.296534634213536L128.40963855421685,33.305242454093424L130.16867469879517,32.50027171585311L131.9277108433735,33.680015371217685L133.6867469879518,32.90496025171347L135.4457831325301,30.658608380871964L137.20481927710844,31.396931212941727L138.96385542168673,31.72828563395847L140.72289156626505,33.54990981132424L142.48192771084337,32.826460240326895L144.24096385542165,30.246348336736304L146,29.5713582520807L147.7590361445783,27.647699648882337L149.5180722891566,28.722016254451496L151.27710843373492,29.42710976903892L153.03614457831324,27.05779132780895L154.79518072289156,26.3668655992846L156.55421686746985,24.669903211485128L158.31325301204816,25.195424495850773L160.0722891566265,24.61413768753942L161.8313253012048,24.012190316348967L163.59036144578312,24.61709114504665L165.3493975903614,23.96163921846247L167.10843373493975,23.35758348800244L168.86746987951807,21.632768682839533L170.62650602409636,20.960163689522567L172.38554216867468,19.100888746960475L174.144578313253,17.45959660547854L175.9036144578313,18.53078936953837L177.66265060240963,16.990729186813677L179.42168674698792,15.483313375954548L181.18072289156626,14.0770475806745L182.93975903614455,13.106136892450046L184.69879518072287,15.121487793331328L186.45783132530119,15.055644890554092L188.2168674698795,13.70215658327776L189.97590361445782,12.539853744140991L191.7349397590361,12.85668109907109L193.49397590361443,14.008806012768705L195.25301204819277,15.304885030076381L197.01204819277106,13.950415674380102L198.77108433734938,12.779626349456631L200.53012048192767,12.901548331479553L202.289156626506,11.939810696883963L204.04819277108433,13.599827791657194L205.80722891566262,15.801460678427926L207.56626506024094,17.053699120644854L209.32530120481925,16.776097359640985L211.08433734939757,16.273433342400207L212.8433734939759,15.05067807768661L214.60240963855418,16.68732594208732L216.36144578313252,18.984584440328625L218.1204819277108,17.361075743280715L219.87951807228913,17.080210107087183L221.63855421686745,17.143038066769464L223.39759036144574,17.34829711234095L225.15662650602408,15.898775690965525L226.91566265060237,14.563209908324911L228.6746987951807,13.332299725801782L230.43373493975898,14.284424104654578L232.19277108433738,12.979558929263627L233.95180722891564,13.466922273162925L235.710843373494,13.395630823433763L237.46987951807233,17.700229486398428L239.22891566265062,16.212257723434863L240.9879518072289,16.40326176608447L242.74698795180723,14.96329627253564L244.50602409638557,17.808137881127532L246.2650602409639,16.306531690703707L248.02409638554215,16.457156744212107L249.78313253012047,17.506805522511538L251.54216867469881,16.116655195253585L253.30120481927713,16.049249975779237L255.06024096385542,16.21978432967022L256.8192771084337,16.824211417221555L258.578313253012,15.18584046797731L260.3373493975904,14.958770416787189L262.09638554216866,13.738044932068064L263.85542168674704,12.596719446430203L265.6144578313253,13.908125109688264L267.3734939759036,12.596392785546035L269.13253012048193,11.397214149777222L270.89156626506025,10.428171313484851L272.65060240963857,9.553333251267848L274.4096385542169,8.775097830466656L276.16867469879514,10.267587062341843L277.9277108433735,12.658804272941149L279.68674698795184,13.398115663182539L281.44578313253015,15.072638431542678L283.2048192771084,16.7700461030563L284.96385542168673,15.223531383088464L286.72289156626505,18.14469295706703L288.4819277108434,17.633313122074277L290.2409638554217,20.28871777935118L292,21.687298070091245L293.7590361445783,19.836097545895562L295.5180722891566,20.22089770583281L297.27710843373495,18.497808908009045L299.03614457831327,16.766283754994365L300.7951807228916,16.34824153575673L302.55421686746985,14.936012282457721L304.31325301204816,14.86023014307173L306.07228915662654,15.277704889553018L307.83132530120486,15.052333409639747L309.5903614457831,16.29264028530299L311.34939759036143,17.066813913820983L313.10843373493975,15.570900675181239L314.8674698795181,14.222128143547412L316.6265060240964,12.936097087895426L318.38554216867465,12.676417628561625L320.144578313253,11.631837551172664L321.90361445783134,10.588971662750644L323.6626506024096,11.84604408165491L325.421686746988,10.896875521939064L327.18072289156623,9.87842198216128L328.9397590361446,9.12994230849849L330.69879518072287,9.535578705776757L332.4578313253012,8.767189435672709L334.21686746987956,9.391265351144076L335.9759036144578,11.133723566590506L337.73493975903614,12.858731361648466L339.49397590361446,11.900068671730613L341.2530120481928,11.920780090245415L343.01204819277115,13.541593353402613L344.77108433734935,14.27244488747237L346.53012048192767,14.290461168657275L348.28915662650604,13.007738130258563L350.04819277108436,11.957697745366833L351.8072289156627,12.60075335011039L353.56626506024094,12.897535624229674L355.32530120481925,11.782025004420696L357.08433734939763,12.01171158179141L358.8433734939759,12.025737939534427L360.6024096385542,14.472212791286776L362.3614457831325,14.445813117199073L364.12048192771084,13.115988328468564L365.87951807228916,14.397469919317732L367.6385542168675,17.740338705720653L369.3975903614458,17.414735563292986L371.1566265060241,15.772219479011238L372.91566265060237,14.365895334580276L374.6746987951807,13.122952032693288L376.43373493975906,14.343477950856425L378.1927710843374,15.666127783380855L379.95180722891564,14.323513901645718L381.71084337349396,13.100245687448597L383.4698795180723,13.098581282131688L385.22891566265065,14.140055029921278L386.9879518072289,12.95549535177891L388.7469879518072,11.765896657628494L390.50602409638554,10.738100705662506L392.26506024096386,10.937107463895739L394.0240963855422,13.096765923667666L395.7831325301205,11.972928869223317L397.54216867469876,10.943752089339878L399.30120481927713,11.138614148237643L401.0602409638554,13.38739506452511L402.8192771084337,14.981821108505534L404.5783132530121,16.437511923196528L406.33734939759034,14.95919695664681L408.09638554216866,15.2437032041613L409.855421686747,16.4998883332751L411.6144578313253,17.591560864050603L413.37349397590367,16.902364085253975L415.1325301204819,16.690988522686805L416.89156626506025,15.154379597641391L418.65060240963857,14.772705775811867L420.4096385542169,17.53642578029151L422.1686746987952,18.753424240526364L423.92771084337346,19.254950342981033L425.6867469879518,17.4787802231484L427.44578313253015,16.108796642289214L429.2048192771084,14.726547969465143L430.96385542168673,13.436092303673801L432.72289156626505,13.584399332192294L434.4819277108433,13.589960393366182L436.2409638554217,12.445171596801027L438,13.607571593689327" class="rv-xy-plot__series rv-xy-plot__series--line" transform="translate(42,5)" style="opacity: 1; stroke-width: 1.5; stroke: rgb(218, 76, 76);"/><path d="M0,45.12039979264477L1.7590361445783134,44.93558025434621L3.5180722891566263,40.8834699838453L5.27710843373494,40.71705562159198L7.036144578313253,41.393112740000305L8.795180722891565,40.757749994755194L10.55421686746988,39.008450787653864L12.313253012048191,40.00151134361302L14.072289156626505,40.02048725056247L15.83132530120482,39.56231831544701L17.590361445783135,45.411838710068956L19.349397590361445,44.5720167572068L21.10843373493976,43.981533255790396L22.867469879518072,42.95252236226428L24.626506024096386,42.39545321142415L26.3855421686747,42.23905703143676L28.144578313253014,41.891241568072715L29.903614457831328,40.37572694882254L31.66265060240964,39.97516082395903L33.42168674698795,41.816644535822014L35.18072289156626,40.590468922015326L36.93975903614457,39.05755069873987L38.69879518072289,38.195947372239566L40.4578313253012,37.92722097881559L42.21686746987952,37.27404232742715L43.97590361445783,35.977617844008805L45.734939759036145,34.77923091910665L47.493975903614455,35.314073552209706L49.25301204819277,35.66190149458791L51.01204819277108,35.622079007082625L52.77108433734939,35.315287340792494L54.53012048192771,39.262566144908526L56.28915662650602,38.04141140002439L58.04819277108433,37.29260624627063L59.807228915662655,36.74828298244171L61.566265060240966,37.25016718683445L63.325301204819276,36.681411959270044L65.08433734939759,35.28852366169632L66.84337349397589,34.658510146343914L68.60240963855422,34.26329680372943L70.36144578313252,33.886500699232705L72.12048192771083,32.79536572021134L73.87951807228914,31.346787216043968L75.63855421686745,30.10256855468984L77.39759036144578,29.600228263682265L79.15662650602408,29.958643017813095L80.9156626506024,33.201809266673564L82.6746987951807,31.720093655484654L84.43373493975902,31.043966792860164L86.19277108433734,29.98145614298175L87.95180722891565,29.723949502243663L89.71084337349396,28.832209542469247L91.46987951807228,28.44860467753944L93.22891566265058,27.56299598754202L94.98795180722891,26.657642982924468L96.74698795180721,26.61228064713298L98.50602409638553,26.359638888138043L100.26506024096383,24.884053647591283L102.02409638554215,24.08477807751347L103.78313253012047,23.887390097458056L105.54216867469879,23.55914804159168L107.30120481927709,23.305996194973424L109.0602409638554,23.30705985464975L110.81927710843372,22.82907079966048L112.57831325301204,21.95349616317993L114.33734939759034,21.199460455496908L116.09638554216869,21.09580845025052L117.85542168674696,20.326972161935263L119.61445783132531,20.526639000127776L121.37349397590359,19.581767431337216L123.13253012048193,19.85985529779523L124.89156626506023,19.817362284139197L126.65060240963855,19.185931909964744L128.40963855421685,18.25455911804472L130.16867469879517,17.952010912895354L131.9277108433735,17.693514246394518L133.6867469879518,17.29499980007816L135.4457831325301,16.163639574100294L137.20481927710844,14.898332529743424L138.96385542168673,14.452938713644771L140.72289156626505,14.308009311674105L142.48192771084337,14.064913083825966L144.24096385542165,13.539879211165669L146,12.556783612823073L147.7590361445783,12.463782996212L149.5180722891566,11.673017678504834L151.27710843373492,14.754508731386538L153.03614457831324,13.504888030068095L154.79518072289156,12.488608244631944L156.55421686746985,11.532935120947574L158.31325301204816,10.974119353095304L160.0722891566265,10.25404705311471L161.8313253012048,9.475601492045808L163.59036144578312,8.867835086864476L165.3493975903614,8.107140454052717L167.10843373493975,12.081121581793383L168.86746987951807,10.992196169124021L170.62650602409636,10.029475843423718L172.38554216867468,8.96534230815129L174.144578313253,7.952885919479854L175.9036144578313,7.267713020218177L177.66265060240963,6.836214637902035L179.42168674698792,5.985261424850597L181.18072289156626,8.440121689330791L182.93975903614455,7.728898252107807L184.69879518072287,6.956409702193768L186.45783132530119,6.237649784308827L188.2168674698795,5.345091477351621L189.97590361445782,4.757324861092283L191.7349397590361,4.62183975661119L193.49397590361443,4.63611912498741L195.25301204819277,4.467931554599266L197.01204819277106,4.078294230604776L198.77108433734938,3.7529831985213984L200.53012048192767,3.3446686331367688L202.289156626506,3.093549954152718L204.04819277108433,2.884101694063867L205.80722891566262,2.7908277769132797L207.56626506024094,2.4311253589204163L209.32530120481925,2.289948308898346L211.08433734939757,2.125436052998275L212.8433734939759,1.788419580507895L214.60240963855418,1.4787782683511896L216.36144578313252,1.4652014161603373L218.1204819277108,1.139711133028341L219.87951807228913,1.1271096233042806L221.63855421686745,1.088608057556627L223.39759036144574,1.0200768396356197L225.15662650602408,1.1770154536930306L226.91566265060237,1.1245453699210384L228.6746987951807,1.0294719466844886L230.43373493975898,0.9212763954136277L232.19277108433738,0.961977155725372L233.95180722891564,0.9582067158304935L235.710843373494,0.8496128258238334L237.46987951807233,0.6876918661821652L239.22891566265062,0.5703815810384771L240.9879518072289,0.5325039571988532L242.74698795180723,0.5813751594939198L244.50602409638557,0.4886636494025748L246.2650602409639,0.5223216425520927L248.02409638554215,0.5526265935528107L249.78313253012047,0.5753610630170036L251.54216867469881,0.5369693143000887L253.30120481927713,0.6828679586299108L255.06024096385542,0.7063346523628289L256.8192771084337,0.5428913572921085L258.578313253012,0.7093108842816287L260.3373493975904,0.7374094296284689L262.09638554216866,0.6913745087513951L263.85542168674704,0.7482492586634171L265.6144578313253,0.8216876538585632L267.3734939759036,0.9183790718326801L269.13253012048193,0.8187868037473445L270.89156626506025,0.8325465024934753L272.65060240963857,0.7733474537207252L274.4096385542169,0.814632879627375L276.16867469879514,3.132702583245393L277.9277108433735,3.0113705736386036L279.68674698795184,2.8037532184010883L281.44578313253015,2.6137835021538396L283.2048192771084,2.4257101095210305L284.96385542168673,2.521611011977749L286.72289156626505,2.279353245406273L288.4819277108434,1.994029286336546L290.2409638554217,1.8388905468657146L292,1.9070256435169564L293.7590361445783,1.7565832839897637L295.5180722891566,1.5935472962021824L297.27710843373495,1.3417645166308123L299.03614457831327,1.2403597323416427L300.7951807228916,1.034254181103168L302.55421686746985,1.0836219320828615L304.31325301204816,1.43223028118082L306.07228915662654,1.450181689392659L307.83132530120486,1.3686172879034775L309.5903614457831,1.345203478554755L311.34939759036143,1.128869267679965L313.10843373493975,1.0136748227583492L314.8674698795181,1.0002109343927175L316.6265060240964,0.9297083472595269L318.38554216867465,1.0224884979779474L320.144578313253,1.3188401089001067L321.90361445783134,1.1962035807226967L323.6626506024096,1.3372824805452554L325.421686746988,1.2912980019746083L327.18072289156623,1.3248280835352895L328.9397590361446,1.1408246789866694L330.69879518072287,1.1435322507294698L332.4578313253012,1.0900583207175174L334.21686746987956,1.139825557497004L335.9759036144578,0.9026312967299222L337.73493975903614,0.888541653399304L339.49397590361446,0.9658923703454303L341.2530120481928,0.8477647609160077L343.01204819277115,0.8161768762260646L344.77108433734935,1.1789158542449658L346.53012048192767,1.1369923181549046L348.28915662650604,1.0585036545783848L350.04819277108436,1.0243108665296634L351.8072289156627,1.0537045421528501L353.56626506024094,0.6724532343113532L355.32530120481925,0.7290407004017629L357.08433734939763,0.603024668300835L358.8433734939759,0.6616188156712788L360.6024096385542,0.6882630856629085L362.3614457831325,0.6488870739792529L364.12048192771084,0.657744904477921L365.87951807228916,0.5544858270474834L367.6385542168675,0.6194095625115409L369.3975903614458,0.6088696843379016L371.1566265060241,0.7383405745498678L372.91566265060237,0.7220146552553125L374.6746987951807,0.6336674170235129L376.43373493975906,0.6974485622038801L378.1927710843374,0.6718766955557082L379.95180722891564,0.6900102536958652L381.71084337349396,0.7813957042426645L383.4698795180723,0.591515778729968L385.22891566265065,0.6703591169435719L386.9879518072289,0.5646514859774654L388.7469879518072,0.4770420198821551L390.50602409638554,0.5365222719704954L392.26506024096386,0.44083505435686676L394.0240963855422,0.6571405366516808L395.7831325301205,0.6160255139040421L397.54216867469876,4.198118450792138L399.30120481927713,3.932639086990757L401.0602409638554,3.7965408596792933L402.8192771084337,3.6203913259371707L404.5783132530121,3.2781423141434813L406.33734939759034,2.9930485714056196L408.09638554216866,2.8385901156952755L409.855421686747,2.6136722870206412L411.6144578313253,2.4381694565960017L413.37349397590367,2.2136142639714245L415.1325301204819,2.063472659944195L416.89156626506025,2.059736126112015L418.65060240963857,1.718671970137549L420.4096385542169,1.5194756893455281L422.1686746987952,1.4240350917402922L423.92771084337346,1.3971547798962058L425.6867469879518,1.2896619529535531L427.44578313253015,1.238889582619644L429.2048192771084,1.1811879073090459L430.96385542168673,1.1514482883094375L432.72289156626505,1.3583753569336992L434.4819277108433,1.3429767940594046L436.2409638554217,1.2507251993023494L438,1.0971999432686168L438,32.01768777499955L436.2409638554217,35.22855901914173L434.4819277108433,35.97448853622839L432.72289156626505,39.31461043335256L430.96385542168673,30.628184270173396L429.2048192771084,27.357938983932453L427.44578313253015,30.06772938402387L425.6867469879518,32.947733856440635L423.92771084337346,32.6703645676876L422.1686746987952,33.212808634025144L420.4096385542169,31.446626119920982L418.65060240963857,34.57335211205186L416.89156626506025,37.9609894547479L415.1325301204819,37.45010537856928L413.37349397590367,41.00073174587669L411.6144578313253,36.73753107732891L409.855421686747,37.723726321054784L408.09638554216866,36.863800132267066L406.33734939759034,40.136354812747776L404.5783132530121,39.930160327691276L402.8192771084337,43.834478072997534L401.0602409638554,43.115991704228556L399.30120481927713,42.2464091626872L397.54216867469876,46.26447719653741L395.7831325301205,44.57174247994065L394.0240963855422,42.63263651179659L392.26506024096386,40.73015322309428L390.50602409638554,39.5718246853856L388.7469879518072,40.32779272235212L386.9879518072289,37.186368064797826L385.22891566265065,40.832609473032626L383.4698795180723,38.59613408887239L381.71084337349396,34.16475856463814L379.95180722891564,34.80949919970557L378.1927710843374,33.2180274601669L376.43373493975906,32.24053491651314L374.6746987951807,31.273469170276535L372.91566265060237,31.07034815899402L371.1566265060241,27.97754550909806L369.3975903614458,25.544462096496535L367.6385542168675,27.6620277702881L365.87951807228916,30.32982297215317L364.12048192771084,29.741665012808877L362.3614457831325,32.70553810154826L360.6024096385542,35.78514415972778L358.8433734939759,39.359107247812894L357.08433734939763,38.70529938712204L355.32530120481925,39.46622159060983L353.56626506024094,30.57215785074999L351.8072289156627,33.488408955202736L350.04819277108436,34.33176596784399L348.28915662650604,37.701618427609L346.53012048192767,41.33863399459372L344.77108433734935,45.4820147149739L343.01204819277115,45.671724962205545L341.2530120481928,41.8796897686536L339.49397590361446,46.06055528102234L337.73493975903614,46.410001519728745L335.9759036144578,44.41367377303071L334.21686746987956,46.05465344090692L332.4578313253012,50.60759354846333L330.69879518072287,55.52109734906729L328.9397590361446,56.9213644778542L327.18072289156623,59.825045141558846L325.421686746988,53.27318530181274L323.6626506024096,51.35207328857198L321.90361445783134,52.09152695606355L320.144578313253,44.15036288487321L318.38554216867465,44.954167205091785L316.6265060240964,44.43290129047736L314.8674698795181,44.0213662400115L313.10843373493975,44.801706408413494L311.34939759036143,44.3263307025275L309.5903614457831,43.47258126658882L307.83132530120486,47.6192478645325L306.07228915662654,51.9119395970052L304.31325301204816,51.940608729465566L302.55421686746985,38.160825532364846L300.7951807228916,41.77178930985644L299.03614457831327,45.707304330823895L297.27710843373495,47.01248256441368L295.5180722891566,51.782818570026166L293.7590361445783,52.79379514591426L292,51.73324789838639L290.2409638554217,45.59721339160354L288.4819277108434,46.061411811893876L286.72289156626505,47.10157129040732L284.96385542168673,47.547341429800575L283.2048192771084,43.938059410244975L281.44578313253015,44.51767803045976L279.68674698795184,45.9779705819642L277.9277108433735,42.15940795494176L276.16867469879514,46.25147599775667L274.4096385542169,44.60198693190504L272.65060240963857,48.96419251615586L270.89156626506025,49.81426487031869L269.13253012048193,49.653793628054636L267.3734939759036,42.09754144638524L265.6144578313253,43.60934467395503L263.85542168674704,35.268062101733435L262.09638554216866,35.04486670014243L260.3373493975904,38.45676033011117L258.578313253012,37.98418362556533L256.8192771084337,37.32950100340805L255.06024096385542,36.04586103517131L253.30120481927713,35.28497314113303L251.54216867469881,35.09127159816926L249.78313253012047,25.966794587029668L248.02409638554215,28.36920956137213L246.2650602409639,23.955581381609022L244.50602409638557,26.164038825556936L242.74698795180723,28.516560188970324L240.9879518072289,31.323611423074333L239.22891566265062,25.776851629556216L237.46987951807233,24.81309051781565L235.710843373494,27.211082242001027L233.95180722891564,29.88340938350401L232.19277108433738,32.749006986029855L230.43373493975898,32.99721279166292L228.6746987951807,32.77615732384763L226.91566265060237,27.79800568411199L225.15662650602408,30.597864499362032L223.39759036144574,27.21211725311955L221.63855421686745,29.890269018445466L219.87951807228913,28.548635679470486L218.1204819277108,27.590768466623864L216.36144578313252,26.53672779937028L214.60240963855418,29.12328559365582L212.8433734939759,31.9644679837392L211.08433734939757,29.037050403691346L209.32530120481925,31.80713590204507L207.56626506024094,29.866384814044782L205.80722891566262,29.42480869315154L204.04819277108433,27.327055162038548L202.289156626506,29.70083723742998L200.53012048192767,29.054318755921155L198.77108433734938,31.7667238478033L197.01204819277106,34.56895488643292L195.25301204819277,38.04851822721456L193.49397590361443,36.48710711818419L191.7349397590361,36.88837451271598L189.97590361445782,32.44769963596526L188.2168674698795,35.710732321914854L186.45783132530119,38.81822884720104L184.69879518072287,40.03865518892926L182.93975903614455,43.935709174195516L181.18072289156626,47.80416440483756L179.42168674698792,46.2575166848926L177.66265060240963,45.60752418482573L175.9036144578313,44.769404657881736L174.144578313253,49.00862597247581L172.38554216867468,53.37252024383253L170.62650602409636,58.59012383153784L168.86746987951807,57.93136104928238L167.10843373493975,63.449501589597276L165.3493975903614,60.60308838925712L163.59036144578312,61.272457004287844L161.8313253012048,67.13889971698255L160.0722891566265,63.315581742350204L158.31325301204816,68.95325752061306L156.55421686746985,69.69038450283246L154.79518072289156,64.06367083748967L153.03614457831324,64.35897825203422L151.27710843373492,69.90735253880943L149.5180722891566,68.43218112483301L147.7590361445783,74.82291974270501L146,75.15709104758582L144.24096385542165,65.46442156903902L142.48192771084337,65.83433458560911L140.72289156626505,67.99259847983832L138.96385542168673,69.42492049424884L137.20481927710844,69.9595640546969L135.4457831325301,72.50203097343532L133.6867469879518,71.64885698017572L131.9277108433735,74.48974651627782L130.16867469879517,65.91849896297649L128.40963855421685,67.49366642914579L126.65060240963855,69.25028361014922L124.89156626506023,68.97374100219336L123.13253012048193,70.75111222280286L121.37349397590359,72.41055778631264L119.61445783132531,72.61615272850376L117.85542168674696,74.09073443264934L116.09638554216869,66.29582776216066L114.33734939759034,61.74899495843734L112.57831325301204,61.884954128246164L110.81927710843372,61.19068376539362L109.0602409638554,64.78162075249094L107.30120481927709,62.81911310304135L105.54216867469879,61.961634702743126L103.78313253012047,63.11150979200828L102.02409638554215,58.58691587860353L100.26506024096383,59.61632518083724L98.50602409638553,63.75514347026401L96.74698795180721,67.48496741033796L94.98795180722891,71.58406398015548L93.22891566265058,73.11576696700158L91.46987951807228,75.14877738207511L89.71084337349396,71.42420260989294L87.95180722891565,70.74513541191156L86.19277108433734,68.59880584661421L84.43373493975902,69.48724180095816L82.6746987951807,69.13197696035719L80.9156626506024,73.87794619629753L79.15662650602408,72.09008055792056L77.39759036144578,74.35405040414526L75.63855421686745,75.89850364265287L73.87951807228914,78.62487509009189L72.12048192771083,77.27917762371801L70.36144578313252,82.11367011302869L68.60240963855422,75.8026665935241L66.84337349397589,78.4827970366464L65.08433734939759,83.65022667958307L63.325301204819276,85.25070950366788L61.566265060240966,82.27136276750166L59.807228915662655,84.32209206429592L58.04819277108433,83.32180053040494L56.28915662650602,81.40700870429978L54.53012048192771,81.40827136091926L52.77108433734939,79.36823595244938L51.01204819277108,81.31572429514233L49.25301204819277,85.95313774232508L47.493975903614455,90.8213713490049L45.734939759036145,90.66865879948527L43.97590361445783,96.59278031722175L42.21686746987952,102.86225331404401L40.4578313253012,103.76030857622642L38.69879518072289,100.46271200454075L36.93975903614457,102.1942668623912L35.18072289156626,98.47264439479555L33.42168674698795,105.49873835248613L31.66265060240964,108.96344112494175L29.903614457831328,111.48555007665921L28.144578313253014,107.97779385895872L26.3855421686747,104.05138823798342L24.626506024096386,103.28161458949153L22.867469879518072,111.70665693977266L21.10843373493976,115.91415469625173L19.349397590361445,116.66554655591702L17.590361445783135,117.80975939322481L15.83132530120482,117.69565875418361L14.072289156626505,123.87125494426711L12.313253012048191,124.28831881072907L10.55421686746988,130.91078742727993L8.795180722891565,137.52461904051182L7.036144578313253,162.27688376645784L5.27710843373494,122.96283490724085L3.5180722891566263,106.0807939472761L1.7590361445783134,120.02541896390063L0,118.73721921692693Z" class="rv-xy-plot__series rv-xy-plot__series--line" transform="translate(42,5)" style="opacity: 1; stroke: rgba(83, 135, 221, 0); fill: rgba(83, 135, 221, 0.1);"/><path d="M0,81.92880950478585L1.7590361445783134,76.07676057726165L3.5180722891566263,67.82684590953049L5.27710843373494,72.17107633722566L7.036144578313253,87.88232415523356L8.795180722891565,78.12979134606134L10.55421686746988,77.56543366108323L12.313253012048191,77.21871196289003L14.072289156626505,78.96733752241174L15.83132530120482,75.21433919778889L17.590361445783135,78.34599045539191L19.349397590361445,77.5133799983472L21.10843373493976,75.75891524784866L22.867469879518072,72.85568389092705L24.626506024096386,68.93428464975865L26.3855421686747,68.3810408644964L28.144578313253014,70.31871002470255L29.903614457831328,71.50310438797432L31.66265060240964,70.77540769400142L33.42168674698795,70.60428734777364L35.18072289156626,66.96600685756832L36.93975903614457,69.61601174733867L38.69879518072289,67.73629201065344L40.4578313253012,68.9986684323776L42.21686746987952,67.59052600810305L43.97590361445783,64.13027158754774L45.734939759036145,60.924707418475265L47.493975903614455,60.589261435147876L49.25301204819277,58.5890072013131L51.01204819277108,56.42025515448689L52.77108433734939,55.71811632293141L54.53012048192771,58.614410627681366L56.28915662650602,57.56581899917787L58.04819277108433,57.97342795869481L59.807228915662655,58.793999369438424L61.566265060240966,58.45379815980502L63.325301204819276,59.39501944806783L65.08433734939759,58.52914459549525L66.84337349397589,55.732330289571685L68.60240963855422,54.02584904358691L70.36144578313252,56.60761635695736L72.12048192771083,53.81663803318056L73.87951807228914,53.81552566326795L75.63855421686745,51.69330343176919L77.39759036144578,51.23090690397057L79.15662650602408,50.085763087696876L80.9156626506024,52.60655679985122L82.6746987951807,49.526862958224875L84.43373493975902,50.04494733424027L86.19277108433734,48.59606299995512L87.95180722891565,48.65066482849159L89.71084337349396,48.64861234738691L91.46987951807228,49.20349506859924L93.22891566265058,48.535066850748144L94.98795180722891,47.189172635710136L96.74698795180721,45.268185501601764L98.50602409638553,43.40281617955158L100.26506024096383,40.73600502029418L102.02409638554215,39.723717351685984L103.78313253012047,41.42860907430804L105.54216867469879,41.21981473498018L107.30120481927709,41.745752766262434L109.0602409638554,43.63338145011861L110.81927710843372,41.529807100125055L112.57831325301204,42.18362475625298L114.33734939759034,41.40481144642306L116.09638554216869,44.06646599762515L117.85542168674696,48.24363848393039L119.61445783132531,46.97381766655297L121.37349397590359,45.583964206755624L123.13253012048193,44.44500277464136L124.89156626506023,44.02288826581542L126.65060240963855,42.99723271046513L128.40963855421685,42.29871108667387L130.16867469879517,40.978460909345216L131.9277108433735,43.02317550346637L133.6867469879518,41.45487096287992L135.4457831325301,42.694558822544614L137.20481927710844,40.65694837476995L138.96385542168673,39.543555519404755L140.72289156626505,39.34046483206302L142.48192771084337,38.77988882919734L144.24096385542165,37.773557493275156L146,39.7407285537463L147.7590361445783,39.074038962797694L149.5180722891566,35.87827179038141L151.27710843373492,38.0396892873503L153.03614457831324,35.09044829761598L154.79518072289156,35.174981243470924L156.55421686746985,35.97715095200527L158.31325301204816,34.900603705303936L160.0722891566265,32.107847653153144L161.8313253012048,33.5741712901175L163.59036144578312,30.808495120643716L165.3493975903614,31.033444023603668L167.10843373493975,34.45166895210011L168.86746987951807,31.522798448173717L170.62650602409636,30.795469657741997L172.38554216867468,27.933144327944255L174.144578313253,25.542180779820054L175.9036144578313,23.30362336258926L177.66265060240963,23.000724121173885L179.42168674698792,22.458451475675346L181.18072289156626,25.225143992645698L182.93975903614455,23.124934059236892L184.69879518072287,21.013611871524173L186.45783132530119,19.989450013405225L188.2168674698795,18.22399054834073L189.97590361445782,16.546420472064806L191.7349397590361,18.599804988656174L193.49397590361443,19.02348063606253L195.25301204819277,19.881691310053935L197.01204819277106,18.088277707263234L198.77108433734938,16.637052062183646L200.53012048192767,15.155749229772349L202.289156626506,14.945268792490833L204.04819277108433,13.74249992708591L205.80722891566262,14.965157062545014L207.56626506024094,14.582161147441933L209.32530120481925,14.905947078867662L211.08433734939757,13.615860486237953L212.8433734939759,15.16780982405819L214.60240963855418,13.760009341762501L216.36144578313252,12.609043131041924L218.1204819277108,13.402372987537706L219.87951807228913,13.448668470805682L221.63855421686745,13.582935558918235L223.39759036144574,12.407288068439469L225.15662650602408,13.394720991795525L226.91566265060237,12.198769242711906L228.6746987951807,13.784567939028141L230.43373493975898,13.624145281150323L232.19277108433738,13.417517517456787L233.95180722891564,12.28761739094784L235.710843373494,11.220142131483872L237.46987951807233,10.212340524972637L239.22891566265062,10.346786834281536L240.9879518072289,13.961680287407146L242.74698795180723,12.76479099022653L244.50602409638557,11.741379170224263L246.2650602409639,10.791319284416305L248.02409638554215,12.072175580473724L249.78313253012047,11.136268126334812L251.54216867469881,14.04044376755154L253.30120481927713,14.073326072740002L255.06024096385542,15.486699543617831L256.8192771084337,15.6422551573685L258.578313253012,16.710572012851124L260.3373493975904,17.539804919588498L262.09638554216866,15.990832639717961L263.85542168674704,15.741067110598674L265.6144578313253,18.30432727718889L267.3734939759036,17.59687024910949L269.13253012048193,19.806834389180075L270.89156626506025,20.77567182263732L272.65060240963857,20.136951833538532L274.4096385542169,18.40065366134611L276.16867469879514,21.131881718342115L277.9277108433735,19.34747493448215L279.68674698795184,21.31010081330117L281.44578313253015,20.354079028988938L283.2048192771084,19.706062725059937L284.96385542168673,21.66793624054464L286.72289156626505,21.046333291783796L288.4819277108434,20.26602044694999L290.2409638554217,19.71590449841843L292,21.497797791301096L293.7590361445783,21.567788442608613L295.5180722891566,20.913179477601386L297.27710843373495,18.940069125285145L299.03614457831327,18.266072922606046L300.7951807228916,16.656873413639094L302.55421686746985,15.326699752327771L304.31325301204816,21.780407003864607L306.07228915662654,21.453253327165164L307.83132530120486,19.747698129019597L309.5903614457831,18.126721314251977L311.34939759036143,19.64871739024942L313.10843373493975,19.92017541289196L314.8674698795181,19.277224954407952L316.6265060240964,19.03363911431932L318.38554216867465,20.379403650860645L320.144578313253,20.80912283924869L321.90361445783134,24.60540026513522L323.6626506024096,24.528689082187682L325.421686746988,25.567344347679537L327.18072289156623,27.136768022044365L328.9397590361446,25.489769283382266L330.69879518072287,24.519676345033638L332.4578313253012,22.353388370639976L334.21686746987956,20.433761387203894L335.9759036144578,19.41220473867001L337.73493975903614,19.72371974944848L339.49397590361446,20.587762329312714L341.2530120481928,18.713108007423113L343.01204819277115,20.489332396026477L344.77108433734935,21.27123209327584L346.53012048192767,19.367156355429348L348.28915662650604,17.660384538427998L350.04819277108436,16.126008642073057L351.8072289156627,15.496227225470367L353.56626506024094,14.058479917151509L355.32530120481925,18.23193562468007L357.08433734939763,17.5056988886388L358.8433734939759,17.378111040160615L360.6024096385542,15.850144546648314L362.3614457831325,14.500155722869517L364.12048192771084,13.22557600275754L365.87951807228916,13.17572246226279L367.6385542168675,12.089955151042256L369.3975903614458,11.150813801247839L371.1566265060241,13.09491052681427L372.91566265060237,13.883916212625369L374.6746987951807,13.68664193305069L376.43373493975906,13.8219060852996L378.1927710843374,14.967906253893995L379.95180722891564,15.19526098958922L381.71084337349396,14.805209748914265L383.4698795180723,16.0128040223173L385.22891566265065,16.551498339259734L386.9879518072289,15.075246721636677L388.7469879518072,15.89728248940359L390.50602409638554,15.483195659541664L392.26506024096386,15.694740634531065L394.0240963855422,17.96408112295946L395.7831325301205,18.347806347030584L397.54216867469876,21.256755746510496L399.30120481927713,19.490373073969266L401.0602409638554,20.69209418880129L402.8192771084337,20.524902864220667L404.5783132530121,18.73494269639027L406.33734939759034,18.382657674117034L408.09638554216866,16.926602799118175L409.855421686747,16.8797400617561L411.6144578313253,16.197303526135396L413.37349397590367,17.28308694555743L415.1325301204819,15.816592257113816L416.89156626506025,15.845556345842677L418.65060240963857,14.420029275180584L420.4096385542169,13.113587703898967L422.1686746987952,14.757325114469827L423.92771084337346,14.344036617653783L425.6867469879518,14.176305487832094L427.44578313253015,12.98292732336895L429.2048192771084,11.84298609777279L430.96385542168673,12.7403153410986L432.72289156626505,16.512087310810557L434.4819277108433,15.190102823770598L436.2409638554217,14.679655022952662L438,13.347215137194494" class="rv-xy-plot__series rv-xy-plot__series--line" transform="translate(42,5)" style="opacity: 1; stroke-width: 1.5; stroke: rgb(83, 135, 221);"/><g class="rv-xy-plot__series rv-xy-plot__series--mark" transform="translate(42,5)"><circle r="2" cx="438" cy="13.347215137194494" style="opacity: 1; stroke: rgb(83, 135, 221); fill: rgb(83, 135, 221); stroke-width: 1;"/></g><g class="rv-xy-plot__series rv-xy-plot__series--mark" transform="translate(42,5)"><circle r="2" cx="438" cy="13.607571593689327" style="opacity: 1; stroke: rgb(218, 76, 76); fill: rgb(218, 76, 76); stroke-width: 1;"/></g><defs class="rv-gradient-defs"><linearGradient id="leftFadeGradient" x1="0" x2="1" y1="0" y2="0"><stop offset="0%" stop-color="white" stop-opacity="1"/><stop offset="60%" stop-color="white" stop-opacity="1"/><stop offset="100%" stop-color="white" stop-opacity="0"/></linearGradient><linearGradient id="rightFadeGradient" x1="1" x2="0" y1="0" y2="0"><stop offset="0%" stop-color="white" stop-opacity="1"/><stop offset="100%" stop-color="white" stop-opacity="0"/></linearGradient><linearGradient id="bottomFadeGradient" x1="0" x2="0" y1="1" y2="0"><stop offset="0%" stop-color="white" stop-opacity="1"/><stop offset="40%" stop-color="white" stop-opacity="1"/><stop offset="100%" stop-color="white" stop-opacity="0"/></linearGradient><linearGradient id="topFadeGradient" x1="0" x2="0" y1="0" y2="1"><stop offset="0%" stop-color="white" stop-opacity="1"/><stop offset="100%" stop-color="white" stop-opacity="0"/></linearGradient></defs><g class="rv-xy-plot__borders plot-border"><rect class="rv-xy-plot__borders-bottom plot-border-bottom" x="0" y="210" width="500" height="30" style="fill: url(&quot;#bottomFadeGradient&quot;); opacity: 1;"/><rect class="rv-xy-plot__borders-left plot-border-left" x="0" y="0" width="42" height="240" style="fill: url(&quot;#leftFadeGradient&quot;); opacity: 1;"/><rect class="rv-xy-plot__borders-right plot-border-right" x="480" y="0" width="20" height="240" style="fill: url(&quot;#rightFadeGradient&quot;); opacity: 1;"/><rect class="rv-xy-plot__borders-top plot-border-top" x="0" y="0" width="500" height="5" style="fill: url(&quot;#topFadeGradient&quot;); opacity: 1;"/></g><g transform="translate(42,48.516256663540034)" class="rv-xy-plot__axis rv-xy-plot__axis--horizontal"><line x1="0" x2="438" y1="0" y2="0" class="rv-xy-plot__axis__line"/><g transform="translate(0, 0)" class="rv-xy-plot__axis__ticks"/></g><g transform="translate(42,210)" class="rv-xy-plot__axis rv-xy-plot__axis--horizontal" style="font-family: &quot;Source Sans Pro&quot;; fill: rgb(107, 107, 118); font-size: 14px;"><line x1="0" x2="438" y1="0" y2="0" class="rv-xy-plot__axis__line" style="font-family: &quot;Source Sans Pro&quot;; fill: rgb(107, 107, 118); font-size: 14px; stroke-width: 0;"/><g transform="translate(0, 0)" class="rv-xy-plot__axis__ticks"><g transform="translate(108.72923717193048, 0)" class="rv-xy-plot__axis__tick" style="font-family: &quot;Source Sans Pro&quot;; fill: rgb(107, 107, 118); font-size: 14px;"><line x1="0" x2="0" y1="-6" y2="6" class="rv-xy-plot__axis__tick__line" style="font-family: &quot;Source Sans Pro&quot;; fill: rgb(107, 107, 118); font-size: 14px; stroke-width: 0;"/><text text-anchor="middle" dy="0.72em" transform="translate(0, 14)" class="rv-xy-plot__axis__tick__text" style="font-family: sans-serif; fill: rgb(107, 107, 118); font-size: 14px;">500k</text></g><g transform="translate(218.78868585852172, 0)" class="rv-xy-plot__axis__tick" style="font-family: &quot;Source Sans Pro&quot;; fill: rgb(107, 107, 118); font-size: 14px;"><line x1="0" x2="0" y1="-6" y2="6" class="rv-xy-plot__axis__tick__line" style="font-family: &quot;Source Sans Pro&quot;; fill: rgb(107, 107, 118); font-size: 14px; stroke-width: 0;"/><text text-anchor="middle" dy="0.72em" transform="translate(0, 14)" class="rv-xy-plot__axis__tick__text" style="font-family: sans-serif; fill: rgb(107, 107, 118); font-size: 14px;">1M</text></g><g transform="translate(328.848134545113, 0)" class="rv-xy-plot__axis__tick" style="font-family: &quot;Source Sans Pro&quot;; fill: rgb(107, 107, 118); font-size: 14px;"><line x1="0" x2="0" y1="-6" y2="6" class="rv-xy-plot__axis__tick__line" style="font-family: &quot;Source Sans Pro&quot;; fill: rgb(107, 107, 118); font-size: 14px; stroke-width: 0;"/><text text-anchor="middle" dy="0.72em" transform="translate(0, 14)" class="rv-xy-plot__axis__tick__text" style="font-family: sans-serif; fill: rgb(107, 107, 118); font-size: 14px;">1.5M</text></g></g><g transform="translate(0, 0)" class="rv-xy-plot__axis__title"><g transform="translate(432, -6) rotate(0)" style="text-anchor: end; font-family: &quot;Source Sans Pro&quot;; fill: rgb(107, 107, 118); font-size: 14px;"><text style="font-family: sans-serif; fill: rgb(107, 107, 118); font-size: 14px;"> Steps</text></g></g></g><g transform="translate(42,210)" class="rv-xy-plot__axis rv-xy-plot__axis--horizontal"><line x1="0" x2="0" y1="0" y2="0" class="rv-xy-plot__axis__line"/><g transform="translate(0, 0)" class="rv-xy-plot__axis__ticks"><g transform="translate(108.72923717193048, 0)" class="rv-xy-plot__axis__tick"><line x1="0" x2="0" y1="-6" y2="6" class="rv-xy-plot__axis__tick__line"/><text text-anchor="middle" dy="0.72em" transform="translate(0, 14)" class="rv-xy-plot__axis__tick__text" style="font-family: sans-serif;"/></g><g transform="translate(218.78868585852172, 0)" class="rv-xy-plot__axis__tick"><line x1="0" x2="0" y1="-6" y2="6" class="rv-xy-plot__axis__tick__line"/><text text-anchor="middle" dy="0.72em" transform="translate(0, 14)" class="rv-xy-plot__axis__tick__text" style="font-family: sans-serif;"/></g><g transform="translate(328.848134545113, 0)" class="rv-xy-plot__axis__tick"><line x1="0" x2="0" y1="-6" y2="6" class="rv-xy-plot__axis__tick__line"/><text text-anchor="middle" dy="0.72em" transform="translate(0, 14)" class="rv-xy-plot__axis__tick__text" style="font-family: sans-serif;"/></g></g></g><g transform="translate(0,5)" class="rv-xy-plot__axis rv-xy-plot__axis--vertical" style="font-family: &quot;Source Sans Pro&quot;; fill: rgb(107, 107, 118); font-size: 14px;"><line x1="42" x2="42" y1="0" y2="205" class="rv-xy-plot__axis__line" style="font-family: &quot;Source Sans Pro&quot;; fill: rgb(107, 107, 118); font-size: 14px; stroke: none;"/><g transform="translate(42, 0)" class="rv-xy-plot__axis__ticks"><g transform="translate(0, 203.93056718365236)" class="rv-xy-plot__axis__tick" style="font-family: &quot;Source Sans Pro&quot;; fill: rgb(107, 107, 118); font-size: 14px;"><line y1="0" y2="0" x1="6" x2="-6" class="rv-xy-plot__axis__tick__line" style="font-family: &quot;Source Sans Pro&quot;; fill: rgb(107, 107, 118); font-size: 14px; stroke: none;"/><text text-anchor="end" dy="0.32em" transform="translate(-14, 0)" class="rv-xy-plot__axis__tick__text" style="font-family: sans-serif; fill: rgb(107, 107, 118); font-size: 14px;">-20</text></g><g transform="translate(0, 163.8269895536243)" class="rv-xy-plot__axis__tick" style="font-family: &quot;Source Sans Pro&quot;; fill: rgb(107, 107, 118); font-size: 14px;"><line y1="0" y2="0" x1="6" x2="-6" class="rv-xy-plot__axis__tick__line" style="font-family: &quot;Source Sans Pro&quot;; fill: rgb(107, 107, 118); font-size: 14px; stroke: none;"/><text text-anchor="end" dy="0.32em" transform="translate(-14, 0)" class="rv-xy-plot__axis__tick__text" style="font-family: sans-serif; fill: rgb(107, 107, 118); font-size: 14px;">-15</text></g><g transform="translate(0, 123.7234119235962)" class="rv-xy-plot__axis__tick" style="font-family: &quot;Source Sans Pro&quot;; fill: rgb(107, 107, 118); font-size: 14px;"><line y1="0" y2="0" x1="6" x2="-6" class="rv-xy-plot__axis__tick__line" style="font-family: &quot;Source Sans Pro&quot;; fill: rgb(107, 107, 118); font-size: 14px; stroke: none;"/><text text-anchor="end" dy="0.32em" transform="translate(-14, 0)" class="rv-xy-plot__axis__tick__text" style="font-family: sans-serif; fill: rgb(107, 107, 118); font-size: 14px;">-10</text></g><g transform="translate(0, 83.61983429356813)" class="rv-xy-plot__axis__tick" style="font-family: &quot;Source Sans Pro&quot;; fill: rgb(107, 107, 118); font-size: 14px;"><line y1="0" y2="0" x1="6" x2="-6" class="rv-xy-plot__axis__tick__line" style="font-family: &quot;Source Sans Pro&quot;; fill: rgb(107, 107, 118); font-size: 14px; stroke: none;"/><text text-anchor="end" dy="0.32em" transform="translate(-14, 0)" class="rv-xy-plot__axis__tick__text" style="font-family: sans-serif; fill: rgb(107, 107, 118); font-size: 14px;">-5</text></g><g transform="translate(0, 43.516256663540034)" class="rv-xy-plot__axis__tick" style="font-family: &quot;Source Sans Pro&quot;; fill: rgb(107, 107, 118); font-size: 14px;"><line y1="0" y2="0" x1="6" x2="-6" class="rv-xy-plot__axis__tick__line" style="font-family: &quot;Source Sans Pro&quot;; fill: rgb(107, 107, 118); font-size: 14px; stroke: none;"/><text text-anchor="end" dy="0.32em" transform="translate(-14, 0)" class="rv-xy-plot__axis__tick__text" style="font-family: sans-serif; fill: rgb(107, 107, 118); font-size: 14px;">0</text></g><g transform="translate(0, 3.412679033511962)" class="rv-xy-plot__axis__tick" style="font-family: &quot;Source Sans Pro&quot;; fill: rgb(107, 107, 118); font-size: 14px;"><line y1="0" y2="0" x1="6" x2="-6" class="rv-xy-plot__axis__tick__line" style="font-family: &quot;Source Sans Pro&quot;; fill: rgb(107, 107, 118); font-size: 14px; stroke: none;"/><text text-anchor="end" dy="0.32em" transform="translate(-14, 0)" class="rv-xy-plot__axis__tick__text" style="font-family: sans-serif; fill: rgb(107, 107, 118); font-size: 14px;">5</text></g></g><g transform="translate(42, 0)" class="rv-xy-plot__axis__title"><g transform="translate(16, 6) rotate(-90)" style="text-anchor: end; font-family: &quot;Source Sans Pro&quot;; fill: rgb(107, 107, 118); font-size: 14px;"><text style="font-family: sans-serif; fill: rgb(107, 107, 118); font-size: 14px;">Episodic Return</text></g></g></g></svg></g><style xmlns="http://www.w3.org/1999/xhtml">/*&lt;![CDATA[*/<br />text { font-size: 10px; fill: black }<br />.react-vis-magic-css-import-rule{display:inherit}.rv-treemap{font-size:12px;position:relative}.rv-treemap__leaf{overflow:hidden;position:absolute}.rv-treemap__leaf--circle{align-items:center;border-radius:100%;display:flex;justify-content:center}.rv-treemap__leaf__content{overflow:hidden;padding:10px;text-overflow:ellipsis}.rv-xy-plot{color:#c3c3c3;position:relative}.rv-xy-plot canvas{pointer-events:none}.rv-xy-plot .rv-xy-canvas{pointer-events:none;position:absolute}.rv-xy-plot__inner{display:block}.rv-xy-plot__axis__line{fill:none;stroke-width:2px;stroke:#e6e6e9}.rv-xy-plot__axis__tick__line{stroke:#e6e6e9}.rv-xy-plot__axis__tick__text{fill:#6b6b76;font-size:11px}.rv-xy-plot__axis__title text{fill:#6b6b76;font-size:11px}.rv-xy-plot__grid-lines__line{stroke:#e6e6e9}.rv-xy-plot__circular-grid-lines__line{fill-opacity:0;stroke:#e6e6e9}.rv-xy-plot__series,.rv-xy-plot__series path{pointer-events:all}.rv-xy-plot__series--line{fill:none;stroke:#000;stroke-width:2px}.rv-crosshair{position:absolute;font-size:11px;pointer-events:none}.rv-crosshair__line{background:#47d3d9;width:1px}.rv-crosshair__inner{position:absolute;text-align:left;top:0}.rv-crosshair__inner__content{border-radius:4px;background:#3a3a48;color:#fff;font-size:12px;padding:7px 10px;box-shadow:0 2px 4px rgba(0,0,0,0.5)}.rv-crosshair__inner--left{right:4px}.rv-crosshair__inner--right{left:4px}.rv-crosshair__title{font-weight:bold;white-space:nowrap}.rv-crosshair__item{white-space:nowrap}.rv-hint{position:absolute;pointer-events:none}.rv-hint__content{border-radius:4px;padding:7px 10px;font-size:12px;background:#3a3a48;box-shadow:0 2px 4px rgba(0,0,0,0.5);color:#fff;text-align:left;white-space:nowrap}.rv-discrete-color-legend{box-sizing:border-box;overflow-y:auto;font-size:12px}.rv-discrete-color-legend.horizontal{white-space:nowrap}.rv-discrete-color-legend-item{color:#3a3a48;border-radius:1px;padding:9px 10px}.rv-discrete-color-legend-item.horizontal{display:inline-block}.rv-discrete-color-legend-item.horizontal .rv-discrete-color-legend-item__title{margin-left:0;display:block}.rv-discrete-color-legend-item__color{display:inline-block;vertical-align:middle;overflow:visible}.rv-discrete-color-legend-item__color__path{stroke:#dcdcdc;stroke-width:2px}.rv-discrete-color-legend-item__title{margin-left:10px}.rv-discrete-color-legend-item.disabled{color:#b8b8b8}.rv-discrete-color-legend-item.clickable{cursor:pointer}.rv-discrete-color-legend-item.clickable:hover{background:#f9f9f9}.rv-search-wrapper{display:flex;flex-direction:column}.rv-search-wrapper__form{flex:0}.rv-search-wrapper__form__input{width:100%;color:#a6a6a5;border:1px solid #e5e5e4;padding:7px 10px;font-size:12px;box-sizing:border-box;border-radius:2px;margin:0 0 9px;outline:0}.rv-search-wrapper__contents{flex:1;overflow:auto}.rv-continuous-color-legend{font-size:12px}.rv-continuous-color-legend .rv-gradient{height:4px;border-radius:2px;margin-bottom:5px}.rv-continuous-size-legend{font-size:12px}.rv-continuous-size-legend .rv-bubbles{text-align:justify;overflow:hidden;margin-bottom:5px;width:100%}.rv-continuous-size-legend .rv-bubble{background:#d8d9dc;display:inline-block;vertical-align:bottom}.rv-continuous-size-legend .rv-spacer{display:inline-block;font-size:0;line-height:0;width:100%}.rv-legend-titles{height:16px;position:relative}.rv-legend-titles__left,.rv-legend-titles__right,.rv-legend-titles__center{position:absolute;white-space:nowrap;overflow:hidden}.rv-legend-titles__center{display:block;text-align:center;width:100%}.rv-legend-titles__right{right:0}.rv-radial-chart .rv-xy-plot__series--label{pointer-events:none}<br /><br />/*]]&gt;*/</style></svg>