<svg xmlns="http://www.w3.org/2000/svg" viewBox="0 0 499.9999694824219 300"><g><text x="50%" y="0" style="fill: rgb(54, 58, 61); dominant-baseline: text-before-edge; text-anchor: middle; font-weight: bold; font-size: 13px; font-family: sans-serif;">MicrortsMining-v1</text><svg viewBox="0 0 1024 1024" x="100.67327880859375" y="25.90625" height="11" width="11"><path d="M128 533.333h768c23.564 0 42.667-19.103 42.667-42.667v-85.333c0-23.564-19.103-42.667-42.667-42.667h-768c-23.564 0-42.667 19.103-42.667 42.667v85.333c0 23.564 19.103 42.667 42.667 42.667z" style="fill: rgb(215, 62, 62);"/></svg><text x="119.67327880859375" y="23.90625" style="fill: rgb(215, 62, 62); dominant-baseline: text-before-edge; font-size: 11px; font-family: sans-serif;">openai/baselines' PPO-MultiDiscrete</text><svg viewBox="0 0 1024 1024" x="157.37786865234375" y="44.414764404296875" height="11" width="11"><path d="M128 533.333h768c23.564 0 42.667-19.103 42.667-42.667v-85.333c0-23.564-19.103-42.667-42.667-42.667h-768c-23.564 0-42.667 19.103-42.667 42.667v85.333c0 23.564 19.103 42.667 42.667 42.667z" style="fill: rgb(56, 116, 216);"/></svg><text x="176.37786865234375" y="42.414764404296875" style="fill: rgb(56, 116, 216); dominant-baseline: text-before-edge; font-size: 11px; font-family: sans-serif;">our PPO-MultiDiscrete</text></g><g transform="translate(0, 60.014190673828125)"><svg class="rv-xy-plot__inner" width="500" height="240"><g transform="translate(38.4,5)" class="rv-xy-plot__grid-lines"><line y1="205" y2="205" x1="0" x2="441.6" class="rv-xy-plot__grid-lines__line" style="stroke-width: 0.5;"/><line y1="153.44262588595356" y2="153.44262588595356" x1="0" x2="441.6" class="rv-xy-plot__grid-lines__line" style="stroke-width: 0.5;"/><line y1="101.88525177190715" y2="101.88525177190715" x1="0" x2="441.6" class="rv-xy-plot__grid-lines__line" style="stroke-width: 0.5;"/><line y1="50.3278776578607" y2="50.3278776578607" x1="0" x2="441.6" class="rv-xy-plot__grid-lines__line" style="stroke-width: 0.5;"/></g><path d="M0,205L1.7734939759036148,205L3.5469879518072296,205L5.320481927710843,205L7.093975903614459,205L8.867469879518072,205L10.640963855421687,205L12.4144578313253,205L14.187951807228915,204.83507284515898L15.96144578313253,204.85983091062744L17.73493975903614,204.87976311494754L19.50843373493976,204.89608188466863L21.28192771084337,204.90962696645568L23.05542168674699,204.79125047431438L24.8289156626506,204.81671831350909L26.602409638554214,204.83847970997056L28.375903614457837,204.73767376611184L30.149397590361442,204.76744347770335L31.92289156626506,204.67850827355684L33.69638554216867,204.60079105788475L35.46987951807229,204.532611237958L37.2433734939759,204.3628169583834L39.01686746987952,204.4298474013669L40.79036144578313,204.48918923917628L42.563855421686746,204.43554824894764L44.337349397590366,204.38784858388078L46.11084337349398,204.34535332435766L47.88433734939759,204.20357415732758L49.6578313253012,203.87044459759647L51.43132530120482,203.98287315345343L53.20481927710843,203.87936892645342L54.97831325301205,203.88819028081082L56.75180722891566,203.59240671601506L58.52530120481926,203.62922798231259L60.298795180722884,203.36076871351753L62.072289156626496,203.2194306885983L63.84578313253011,202.9922305239818L65.61927710843372,202.78755705049943L67.39277108433734,202.60308420687306L69.16626506024096,202.53602233368042L70.93975903614457,202.37642819074335L72.7132530120482,202.33134511161637L74.4867469879518,202.09306904767462L76.26024096385542,201.97656725404067L78.03373493975903,201.7728026794229L79.80722891566265,201.4902833518184L81.58072289156625,201.43164843567155L83.35421686746987,201.182166947907L85.12771084337348,200.85847543326614L86.9012048192771,200.95817713897998L88.67469879518072,200.95030893547082L90.44819277108432,200.94319300863103L92.22168674698794,200.93675665765474L93.99518072289156,200.93093434777649L95.76867469879518,200.82784608553405L97.54216867469879,200.63679380050445L99.3156626506024,200.4639218687481L101.08915662650602,199.81892309715454L102.86265060240963,199.13753673873907L104.63614457831324,199.00915429962023L106.40963855421685,198.50242601793948L108.18313253012047,198.23900210105893L109.95662650602408,197.8053789686631L111.73012048192771,196.63227457869135L113.50361445783132,195.4727946697988L115.27710843373494,194.5207147862872L117.05060240963854,194.04893613784813L118.82409638554216,193.52431441714168L120.59759036144577,192.07428637905767L122.37108433734939,189.59153688972683L124.14457831325299,187.34374220200456L125.91807228915663,184.52878513091798L127.69156626506022,180.6155057444762L129.46506024096385,175.90278261433494L131.23855421686747,170.56371037496905L133.0120481927711,165.33971664684904L134.78554216867468,160.31733679497597L136.55903614457833,151.77452149659157L138.33253012048192,142.4802687133441L140.10602409638554,132.70048547314062L141.87951807228913,123.1630970815029L143.65301204819275,113.45542494480722L145.4265060240964,103.20382231192649L147.2,93.72623624187977L148.9734939759036,84.85205184392876L150.74698795180723,76.71906039407044L152.52048192771085,69.35461153860965L154.29397590361444,65.12154181807566L156.0674698795181,59.047844077451L157.84096385542168,53.64545323740703L159.6144578313253,48.75350895184348L161.3879518072289,44.518599099588705L163.1614457831325,40.78122113794704L164.93493975903615,37.39694755617432L166.70843373493975,34.429823261509796L168.48192771084337,32.035253461317026L170.25542168674698,30.93842148094675L172.0289156626506,29.165934514512134L173.8024096385542,27.56089838905949L175.57590361445781,26.594534523852165L177.34939759036143,25.816871409736102L179.12289156626505,25.794527221354702L180.89638554216864,25.676886588181866L182.6698795180723,25.375545362115957L184.4433734939759,25.005264432199724L186.2168674698795,24.6699627800996L187.99036144578312,23.78189919637796L189.76385542168674,23.075133217971715L191.53734939759036,22.72734926584445L193.31084337349395,22.022796779342134L195.08433734939757,21.092583690835628L196.8578313253012,20.737268552196362L198.6313253012048,20.610328041585294L200.4048192771084,21.177213232539916L202.17831325301205,22.664596380954755L203.95180722891567,25.667356048692774L205.72530120481926,24.977303870737924L207.49879518072288,24.255031650366046L209.27228915662647,23.893200753188463L211.04578313253012,23.27333628401192L212.8192771084337,22.322408612634277L214.59277108433733,21.948329338455146L216.36626506024095,21.122565464120527L218.13975903614457,20.667017712564455L219.91325301204816,22.49479689196739L221.68674698795178,21.714817838667084L223.46024096385543,21.49553754571129L225.23373493975902,20.809950825048183L227.00722891566264,20.286530013672525L228.78072289156623,19.617744635844502L230.55421686746988,18.914730075531523L232.32771084337347,19.057354988350276L234.1012048192771,18.11506433832882L235.87469879518073,17.066976403611157L237.64819277108435,16.215296601871987L239.421686746988,15.151856399583437L241.19518072289154,14.578485983997918L242.96867469879518,13.961873285076665L244.7421686746988,13.1112953935168L246.51566265060245,12.63327595217563L248.28915662650604,11.713391990447478L250.06265060240966,10.977805571495953L251.83614457831325,10.506511420884376L253.6096385542169,9.884928905846644L255.3831325301205,9.419465847306329L257.1566265060241,9.509340978803818L258.93012048192776,9.371567883913004L260.7036144578313,8.954597758397018L262.47710843373494,8.577015282081312L264.2506024096386,8.722118619025714L266.0240963855422,8.65870776221971L267.79759036144577,8.406479290546674L269.5710843373494,8.080672959453853L271.344578313253,7.688239047410428L273.11807228915666,7.235471298217125L274.89156626506025,6.728068938453661L276.6650602409639,6.0737890962643L278.4385542168675,5.578717259337806L280.2120481927711,5.6174293445157355L281.98554216867467,7.308348140650543L283.7590361445783,7.4758879070664355L285.53253012048197,7.919812816155618L287.30602409638556,8.126996444497566L289.07951807228915,8.704224123850475L290.8530120481928,8.7399073538036L292.6265060240964,8.674816161830684L294.4,9.200295960502189L296.1734939759036,9.286523233361955L297.9469879518073,9.267201620250379L299.72048192771086,9.15230142735677L301.49397590361446,8.950851150604864L303.2674698795181,8.378815258236532L305.0409638554217,7.6660072762623015L306.8144578313253,7.312743380369509L308.5879518072289,6.700638139754974L310.3614457831325,6.633371903988156L312.1349397590362,5.890633655486163L313.90843373493976,5.21805556893736L315.6819277108434,5.193432563825805L317.455421686747,5.365942935174807L319.2289156626506,4.8403316435356745L321.0024096385542,4.753985277368571L322.77590361445783,4.188776692900594L324.5493975903615,3.6769585526493165L326.3228915662651,3.4082949650516343L328.09638554216866,3.4572209135193517L329.8698795180723,3.0145066215719494L331.6433734939759,3.100630402417041L333.4168674698795,3.178618802804785L335.19036144578314,2.7622216814573983L336.9638554216868,2.677369224200656L338.7373493975904,2.6005320562527428L340.51084337349397,3.9920089033013766L342.2843373493976,3.5961814688405913L344.0578313253012,3.1403407583847502L345.83132530120486,3.6041929552457526L347.6048192771084,4.024228983921738L349.37831325301204,4.112376613014161L351.1518072289157,4.192197686012163L352.9253012048193,3.972267570124022L354.6987951807229,3.8705161038007545L356.4722891566265,3.8757799560936173L358.2457831325301,3.3935279579362803L360.0192771084337,3.5412525432628406L361.79277108433735,3.9672340160587707L363.566265060241,3.768554303037945L365.33975903614464,3.3938347234905564L367.1132530120482,3.1519154361708477L368.8867469879518,2.8354444805663617L370.6602409638554,2.841079013040348L372.433734939759,2.943585022934081L374.20722891566265,2.7441969916011555L375.98072289156624,2.368836002625933L377.7542168674699,2.0289321705704157L379.5277108433735,2.208154778219891L381.30120481927713,2.078236580870962L383.0746987951807,1.9605906495378007L384.84819277108437,1.7566540040387175L386.6216867469879,1.4745777934871458L388.39518072289155,1.6087618157632955L390.1686746987952,1.3406557211342447L391.94216867469885,1.195279050353781L393.71566265060244,0.9662311522817302L395.48915662650603,0.7588194590795899L397.2626506024096,0.6684039063510749L399.0361445783132,0.5865291411109819L400.80963855421686,0.41498466420971547L402.5831325301205,0.2596445335486891L404.35662650602416,0.2163817861651235L406.1301204819277,0.2746094258624321L407.90361445783134,0.13252934884683099L409.67710843373493,0.29608153805629367L411.4506024096386,0.34678062073872806L413.22409638554217,0.2952868690603899L414.99759036144576,0.24865729369559164L416.7710843373494,0.10902869366053836L418.544578313253,0.07999334236009681L420.31807228915665,0.15110443715464827L422.09156626506024,0.020690824933051744L423.8650602409639,0L425.6385542168674,0.07866738479814339L427.41204819277107,0.05250000785613773L429.1855421686747,0.22361188754348005L430.95903614457836,0.08634911380093424L432.73253012048195,0.15685983297733852L434.50602409638554,0.22071000482788483L436.27951807228914,0.570739965518936L438.0530120481928,0.5954944049455874L439.8265060240964,0.5205067795788149L441.6,0.8422174913705749L441.6,8.168093010153866L439.8265060240964,8.072760820897782L438.0530120481928,8.29017728492069L436.27951807228914,8.852966859540256L434.50602409638554,9.151770719924778L432.73253012048195,9.91200205686844L430.95903614457836,10.321279450009001L429.1855421686747,11.418637232063563L427.41204819277107,12.200208503342585L425.6385542168674,12.740616330118964L423.8650602409639,13.01470368479336L422.09156626506024,11.058529745058415L420.31807228915665,11.587407472964722L418.544578313253,12.494148474440514L416.7710843373494,13.495476399928846L414.99759036144576,11.266761135813043L413.22409638554217,12.140053831037333L411.4506024096386,13.104444281489513L409.67710843373493,14.061870954768082L407.90361445783134,14.68891416715365L406.1301204819277,15.381367555755054L404.35662650602416,16.253618818662005L402.5831325301205,16.89416594402216L400.80963855421686,18.13935400231707L399.0361445783132,16.287501622522814L397.2626506024096,17.469405333966133L395.48915662650603,18.667035220792325L393.71566265060244,20.09716060011206L391.94216867469885,18.341972907439246L390.1686746987952,19.415496071299593L388.39518072289155,21.246390595107183L386.6216867469879,23.053146521654547L384.84819277108437,22.57439303779749L383.0746987951807,21.292747329669997L381.30120481927713,22.24382362300453L379.5277108433735,23.72436936214336L377.7542168674699,25.466923034835887L375.98072289156624,25.6702209516047L374.20722891566265,26.217419199289278L372.433734939759,24.455281366384533L370.6602409638554,26.058951478800534L368.8867469879518,27.937473276052028L367.1132530120482,28.613616122995L365.33975903614464,30.113241917775976L363.566265060241,29.72557761484756L361.79277108433735,31.55632680044266L360.0192771084337,33.47048664662871L358.2457831325301,32.1422611793168L356.4722891566265,32.61164106206586L354.6987951807229,33.99049977962653L352.9253012048193,35.19050124827513L351.1518072289157,36.623245602428334L349.37831325301204,39.281091246306076L347.6048192771084,38.02117841878465L345.83132530120486,40.07189885905895L344.0578313253012,40.938203292571814L342.2843373493976,42.647827432381774L340.51084337349397,44.32066262375046L338.7373493975904,46.168000056065864L336.9638554216868,47.99291413824905L335.19036144578314,49.57793693438349L333.4168674698795,51.543430637558L331.6433734939759,53.821519751307065L329.8698795180723,56.444812748348184L328.09638554216866,59.44931966295176L326.3228915662651,62.87480692577055L324.5493975903615,66.55006037386626L322.77590361445783,71.2540853725106L321.0024096385542,76.12611871879459L319.2289156626506,80.96855740837754L317.455421686747,83.73459028055468L315.6819277108434,89.47827311776248L313.90843373493976,95.71354533138664L312.1349397590362,101.20091414777032L310.3614457831325,108.55147235688123L308.5879518072289,117.42175695527753L306.8144578313253,126.89465439475862L305.0409638554217,134.55904468805184L303.2674698795181,144.95910751995999L301.49397590361446,150.8507057060071L299.72048192771086,157.46445197192745L297.9469879518073,164.9832418208514L296.1734939759036,168.9837792922886L294.4,174.90753587832322L292.6265060240964,176.9315248663047L290.8530120481928,181.64062864154613L289.07951807228915,187.59391487904992L287.30602409638556,189.65051383100777L285.53253012048197,191.7065186221556L283.7590361445783,192.5786585347411L281.98554216867467,192.3585672177538L280.2120481927711,192.8684680467997L278.4385542168675,193.64668819991599L276.6650602409639,194.39852418082472L274.89156626506025,195.22878815643395L273.11807228915666,196.14566136967565L271.344578313253,196.83548516333138L269.5710843373494,196.84431701938692L267.79759036144577,197.28432796846346L266.0240963855422,197.66267434968688L264.2506024096386,198.08048805816102L262.47710843373494,198.3267572254963L260.7036144578313,198.59871604574806L258.93012048192776,198.5763509414921L257.1566265060241,198.65921728673078L255.3831325301205,199.34233250117677L253.6096385542169,199.18240901508855L251.83614457831325,199.32849652449121L250.06265060240966,199.3822587123697L248.28915662650604,199.76432265212767L246.51566265060245,199.97111272542517L244.7421686746988,200.09190967263734L242.96867469879518,200.0101785319259L241.19518072289154,200.0274861184183L239.421686746988,200.04659915505044L237.64819277108435,200.06770597886523L235.87469879518073,199.9834499742781L234.1012048192771,199.8904047515151L232.32771084337347,199.895218093138L230.55421686746988,199.90053354191323L228.78072289156623,199.79883878838316L227.00722891566264,199.7941003797393L225.23373493975902,199.78886767989087L223.46024096385543,199.99821868729555L221.68674698795178,200.01427871758142L219.91325301204816,200.03201406722047L218.13975903614457,200.15916440662298L216.36626506024095,200.29957859337722L214.59277108433733,200.45464027695616L212.8192771084337,200.41074729818934L211.04578313253012,200.46984069682722L209.27228915662647,200.7502289650512L207.49879518072288,201.05986646688203L205.72530120481926,201.18667365388663L203.95180722891567,201.21914352130952L202.17831325301205,201.36256617253684L200.4048192771084,201.520950343665L198.6313253012048,201.37315921271167L196.8578313253012,201.4250828185854L195.08433734939757,201.4824230189282L193.31084337349395,201.54574488451885L191.53734939759036,201.7232390187081L189.76385542168674,201.70411567384446L187.99036144578312,201.79056443228694L186.2168674698795,201.88603158031216L184.4433734939759,201.9914579756156L182.6698795180723,202.10788264410786L180.89638554216864,202.2364530252752L179.12289156626505,202.27086754182608L177.34939759036143,202.41644151848018L175.57590361445781,202.57720250205819L173.8024096385542,202.8623052867139L172.0289156626506,203.06958117940167L170.25542168674698,203.19091030784625L168.48192771084337,203.32489767561484L166.70843373493975,203.68801028723493L164.93493975903615,203.8738595289928L163.1614457831325,203.8639493369022L161.3879518072289,203.9605812374678L159.6144578313253,204.06729562174198L157.84096385542168,204.18514475201152L156.0674698795181,204.42287090688515L154.29397590361444,204.4702395971872L152.52048192771085,204.4149676532893L150.74698795180723,204.3539278396749L148.9734939759036,204.5016936024212L147.2,204.55729040143663L145.4265060240964,204.51109679210273L143.65301204819275,204.56767770411875L141.87951807228913,204.6301645048344L140.10602409638554,204.69917406714723L138.33253012048192,204.77538778865102L136.55903614457833,204.75194710466477L134.78554216867468,204.726058958946L133.0120481927711,204.80508909506233L131.23855421686747,205L129.46506024096385,205L127.69156626506022,205L125.91807228915663,205L124.14457831325299,205L122.37108433734939,205L120.59759036144577,205L118.82409638554216,205L117.05060240963854,205L115.27710843373494,205L113.50361445783132,205L111.73012048192771,205L109.95662650602408,205L108.18313253012047,205L106.40963855421685,205L104.63614457831324,205L102.86265060240963,205L101.08915662650602,205L99.3156626506024,205L97.54216867469879,205L95.76867469879518,205L93.99518072289156,205L92.22168674698794,205L90.44819277108432,205L88.67469879518072,205L86.9012048192771,205L85.12771084337348,205L83.35421686746987,205L81.58072289156625,205L79.80722891566265,205L78.03373493975903,205L76.26024096385542,205L74.4867469879518,205L72.7132530120482,205L70.93975903614457,205L69.16626506024096,205L67.39277108433734,205L65.61927710843372,205L63.84578313253011,205L62.072289156626496,205L60.298795180722884,205L58.52530120481926,205L56.75180722891566,205L54.97831325301205,205L53.20481927710843,205L51.43132530120482,205L49.6578313253012,205L47.88433734939759,205L46.11084337349398,205L44.337349397590366,205L42.563855421686746,205L40.79036144578313,205L39.01686746987952,205L37.2433734939759,205L35.46987951807229,205L33.69638554216867,205L31.92289156626506,205L30.149397590361442,205L28.375903614457837,205L26.602409638554214,205L24.8289156626506,205L23.05542168674699,205L21.28192771084337,205L19.50843373493976,205L17.73493975903614,205L15.96144578313253,205L14.187951807228915,205L12.4144578313253,205L10.640963855421687,205L8.867469879518072,205L7.093975903614459,205L5.320481927710843,205L3.5469879518072296,205L1.7734939759036148,205L0,205Z" class="rv-xy-plot__series rv-xy-plot__series--line" transform="translate(38.4,5)" style="opacity: 1; stroke: rgba(83, 135, 221, 0); fill: rgba(83, 135, 221, 0.1);"/><path d="M0,205L1.7734939759036148,205L3.5469879518072296,205L5.320481927710843,205L7.093975903614459,205L8.867469879518072,205L10.640963855421687,205L12.4144578313253,205L14.187951807228915,204.94502428171967L15.96144578313253,204.95327697020915L17.73493975903614,204.95992103831585L19.50843373493976,204.96536062822287L21.28192771084337,204.96987565548523L23.05542168674699,204.93041682477147L24.8289156626506,204.93890610450305L26.602409638554214,204.94615990332352L28.375903614457837,204.91255792203728L30.149397590361442,204.92248115923445L31.92289156626506,204.89283609118561L33.69638554216867,204.86693035262823L35.46987951807229,204.84420374598602L37.2433734939759,204.78760565279447L39.01686746987952,204.80994913378896L40.79036144578313,204.82972974639208L42.563855421686746,204.81184941631588L44.337349397590366,204.79594952796026L46.11084337349398,204.78178444145254L47.88433734939759,204.7345247191092L49.6578313253012,204.62348153253214L51.43132530120482,204.6609577178178L53.20481927710843,204.6264563088178L54.97831325301205,204.62939676027025L56.75180722891566,204.5308022386717L58.52530120481926,204.54307599410419L60.298795180722884,204.4535895711725L62.072289156626496,204.40647689619942L63.84578313253011,204.33074350799393L65.61927710843372,204.26251901683315L67.39277108433734,204.2010280689577L69.16626506024096,204.1786741112268L70.93975903614457,204.12547606358112L72.7132530120482,204.1104483705388L74.4867469879518,204.03102301589152L76.26024096385542,203.99218908468023L78.03373493975903,203.92426755980765L79.80722891566265,203.83009445060614L81.58072289156625,203.81054947855716L83.35421686746987,203.7273889826357L85.12771084337348,203.61949181108872L86.9012048192771,203.6200287958101L88.67469879518072,203.62051437484786L90.44819277108432,203.62095352781378L92.22168674698794,203.58871309280286L93.99518072289156,203.59217000022997L95.76867469879518,203.56269045565392L97.54216867469879,203.50342453187852L99.3156626506024,203.44979829689896L101.08915662650602,203.23841629155592L102.86265060240963,203.01456130018184L104.63614457831324,202.97473000686566L106.40963855421685,202.77595773693835L108.18313253012047,202.69365766494263L109.95662650602408,202.55410212158355L111.73012048192771,202.16758015457543L113.50361445783132,201.7851719721299L115.27710843373494,201.47151008066302L117.05060240963854,201.3175983214636L118.82409638554216,201.11324911515516L120.59759036144577,200.6357241139186L122.37108433734939,199.78090877365278L124.14457831325299,199.03948505198747L125.91807228915663,198.07577172380053L127.69156626506022,196.7483533518265L129.46506024096385,195.15662854221597L131.23855421686747,193.3580895373049L133.0120481927711,191.46975185708476L134.78554216867468,189.759969864776L136.55903614457833,186.8800805361819L138.33253012048192,183.75276419254476L140.10602409638554,180.46636774381847L141.87951807228913,177.1658363378911L143.65301204819275,173.8524959688861L145.4265060240964,170.43011855472025L147.2,167.16880878725692L148.9734939759036,164.11828320149786L150.74698795180723,161.35603414593075L152.52048192771085,158.82233540745636L154.29397590361444,157.4048298941763L156.0674698795181,155.30944891526858L157.84096385542168,153.37958365319403L159.6144578313253,151.63206230195536L161.3879518072289,150.04965210871228L163.1614457831325,148.71416293688358L164.93493975903615,147.50484967786866L166.70843373493975,146.4097893151268L168.48192771084337,145.45065614033936L170.25542168674698,145.0691875023596L172.0289156626506,144.46399869243774L173.8024096385542,143.81857443356867L175.57590361445781,143.36400220622517L177.34939759036143,143.01731226163298L179.12289156626505,142.9306584346221L180.89638554216864,142.85219068434935L182.6698795180723,142.68372869224257L184.4433734939759,142.46624311510004L186.2168674698795,142.30177150423984L187.99036144578312,141.95802470811486L189.76385542168674,141.54934437669561L191.53734939759036,141.27667590832522L193.31084337349395,140.80248560573986L195.08433734939757,140.34062113362893L196.8578313253012,140.01979161144862L198.6313253012048,139.7292689839943L200.4048192771084,139.43372195698257L202.17831325301205,139.32843472910682L203.95180722891567,140.01233090234854L205.72530120481926,139.17055487016992L207.49879518072288,137.62905943221935L209.27228915662647,136.68773232086656L211.04578313253012,135.21843121977994L212.8192771084337,133.7255837369961L214.59277108433733,130.94515864118753L216.36626506024095,127.5182734269066L218.13975903614457,123.99301525517177L219.91325301204816,121.25531366297191L221.68674698795178,118.67881736927474L223.46024096385543,115.04698178125514L225.23373493975902,111.4335369126263L227.00722891566264,108.64844536205668L228.78072289156623,105.63941924671856L230.55421686746988,102.9470995455302L232.32771084337347,101.32080082255072L234.1012048192771,98.93902218574827L235.87469879518073,96.5224869948647L237.64819277108435,94.4965618271783L239.421686746988,92.49966935360851L241.19518072289154,90.788810651485L242.96867469879518,89.1421587556374L244.7421686746988,87.71598826231903L246.51566265060245,86.2621965262097L248.28915662650604,84.71845681469105L250.06265060240966,83.25560541868767L251.83614457831325,82.06080906063546L253.6096385542169,81.0762788746045L255.3831325301205,80.18474898357437L257.1566265060241,80.73297026842643L258.93012048192776,80.0362095386575L260.7036144578313,79.30786215650495L262.47710843373494,78.74571936607524L264.2506024096386,78.23667745747133L266.0240963855422,78.78222589314358L267.79759036144577,78.98402972895396L269.5710843373494,78.9070275349374L271.344578313253,78.9022349169145L273.11807228915666,78.1836008940188L274.89156626506025,77.01336351144607L276.6650602409639,76.5705588867589L278.4385542168675,75.87737104232949L280.2120481927711,75.34706650862918L281.98554216867467,75.61361731920854L283.7590361445783,75.98486098448332L285.53253012048197,75.60674236562177L287.30602409638556,74.80979064718453L289.07951807228915,73.9907164540619L290.8530120481928,71.91782891263429L292.6265060240964,70.26802480916044L294.4,69.55329351286082L296.1734939759036,67.70476414430328L297.9469879518073,66.29059290294371L299.72048192771086,63.678822105909966L301.49397590361446,61.50857053778135L303.2674698795181,59.44592044745659L305.0409638554217,55.69497264118732L306.8144578313253,53.17497850369986L308.5879518072289,49.26963133111876L310.3614457831325,45.76565698547648L312.1349397590362,42.3978658286048L313.90843373493976,39.83521987253587L315.6819277108434,38.00166389957927L317.455421686747,36.27637253830914L319.2289156626506,34.58418313496923L321.0024096385542,32.53235392879651L322.77590361445783,30.219792847849295L324.5493975903615,28.45035881158379L326.3228915662651,26.78313233138086L328.09638554216866,25.760413168475036L329.8698795180723,24.412218773237463L331.6433734939759,23.288780550787944L333.4168674698795,22.271463974070176L335.19036144578314,21.090501369661773L336.9638554216868,20.865259859334724L338.7373493975904,19.979468927858857L340.51084337349397,20.216324182380674L342.2843373493976,19.294428956426824L344.0578313253012,18.394681508323142L345.83132530120486,18.781238138025415L347.6048192771084,18.416986077968037L349.37831325301204,18.86637160057725L351.1518072289157,17.77978373195711L352.9253012048193,16.95817610861171L354.6987951807229,16.701197382113993L356.4722891566265,16.11134626070618L358.2457831325301,16.064231972202276L360.0192771084337,16.411183064670578L361.79277108433735,15.816259219111505L363.566265060241,15.082725316763069L365.33975903614464,15.132776091490708L367.1132530120482,14.366401297646517L368.8867469879518,13.867226853453527L370.6602409638554,13.155461905906089L372.433734939759,12.510931333233517L374.20722891566265,12.901321313689152L375.98072289156624,12.313265147073327L377.7542168674699,11.813225547891117L379.5277108433735,11.230548800845066L381.30120481927713,10.637976749547244L383.0746987951807,10.13384784283888L384.84819277108437,10.359165767777444L386.6216867469879,10.270988655578371L388.39518072289155,9.639186450232136L390.1686746987952,8.807321957062506L391.94216867469885,8.24884406762792L393.71566265060244,8.587286434862833L395.48915662650603,7.887253888442308L397.2626506024096,7.480622812000686L399.0361445783132,6.9175952640414975L400.80963855421686,7.706468450638954L402.5831325301205,7.122107188020613L404.35662650602416,6.885156729754568L406.1301204819277,6.540717332380774L407.90361445783134,6.16387837661536L409.67710843373493,5.98497572811077L411.4506024096386,5.595697134457727L413.22409638554217,5.210722467420786L414.99759036144576,4.79717726380817L416.7710843373494,5.396733391340136L418.544578313253,4.998085227298131L420.31807228915665,4.702029777073966L422.09156626506024,4.596279704105052L423.8650602409639,5.344684545229211L425.6385542168674,5.3080999792974515L427.41204819277107,5.145099614292513L429.1855421686747,4.932560690244818L430.95903614457836,4.38295152209603L432.73253012048195,4.242406239534473L434.50602409638554,3.95279753381435L436.27951807228914,4.015224775702611L438.0530120481928,3.8120117844620434L439.8265060240964,3.7253983180425037L441.6,3.939177659350289" class="rv-xy-plot__series rv-xy-plot__series--line" transform="translate(38.4,5)" style="opacity: 1; stroke-width: 1.5; stroke: rgb(83, 135, 221);"/><path d="M0,205L1.7734939759036148,205L3.5469879518072296,205L5.320481927710843,205L7.093975903614459,205L8.867469879518072,205L10.640963855421687,205L12.4144578313253,205L14.187951807228915,205L15.96144578313253,205L17.73493975903614,205L19.50843373493976,205L21.28192771084337,204.8655963213202L23.05542168674699,204.88250817095042L24.8289156626506,204.8968423975749L26.602409638554214,204.90909050335878L28.375903614457837,204.91962860255381L30.149397590361442,204.9287494338436L31.92289156626506,204.93668426401848L33.69638554216867,204.94361822131853L35.46987951807229,204.72720034029152L37.2433734939759,204.75624268874765L39.01686746987952,204.67341074169676L40.79036144578313,204.60007988263416L42.563855421686746,204.64130724603797L44.337349397590366,204.57257752950724L46.11084337349398,204.61592740860272L47.88433734939759,204.5507536434245L49.6578313253012,204.49250877905547L51.43132530120482,204.4403874602585L53.20481927710843,204.49580654772114L54.97831325301205,204.4438590547455L56.75180722891566,204.49845890599715L58.52530120481926,204.44665655419146L60.298795180722884,204.29955459088103L62.072289156626496,204.36763244187492L63.84578313253011,204.42892627701352L65.61927710843372,204.38444215733549L67.39277108433734,204.34434848074122L69.16626506024096,204.30819557471503L70.93975903614457,204.17648375497333L72.7132530120482,204.05762559579887L74.4867469879518,203.9503311009117L76.26024096385542,203.95210317200863L78.03373493975903,203.7566293545748L79.80722891566265,203.67845828337676L81.58072289156625,203.7061505609695L83.35421686746987,203.53469383902282L85.12771084337348,203.18337288182434L86.9012048192771,203.06191229802687L88.67469879518072,202.85405372709235L90.44819277108432,202.86200119857224L92.22168674698794,202.673363789693L93.99518072289156,202.3069935444688L95.76867469879518,202.07336397558873L97.54216867469879,201.8619834399538L99.3156626506024,201.67071767453652L101.08915662650602,201.3999267857783L102.86265060240963,201.252553836696L104.63614457831324,201.0215209141472L106.40963855421685,200.91005324042624L108.18313253012047,200.61393911917273L109.95662650602408,200.5410938750989L111.73012048192771,200.47515502718156L113.50361445783132,200.22034967823996L115.27710843373494,200.28231637523282L117.05060240963854,200.24088344677295L118.82409638554216,200.00833759310484L120.59759036144577,199.74905386826637L122.37108433734939,199.75805609180463L124.14457831325299,199.86369510002763L125.91807228915663,199.8618580259259L127.69156626506022,199.47030114171292L129.46506024096385,199.5056489767806L131.23855421686747,199.37521892891777L133.0120481927711,199.32209356779572L134.78554216867468,199.0790904579604L136.55903614457833,199.15140122797717L138.33253012048192,199.09507308625248L140.10602409638554,198.84107290699458L141.87951807228913,198.74099590382033L143.65301204819275,198.74781038521766L145.4265060240964,198.16940353625614L147.2,197.8405156654871L148.9734939759036,197.44528434636348L150.74698795180723,196.61652530148362L152.52048192771085,195.26531807824597L154.29397590361444,193.9443718015197L156.0674698795181,192.91872387422399L157.84096385542168,190.8453419429782L159.6144578313253,187.88005888379936L161.3879518072289,185.11376625273647L163.1614457831325,178.51747738664093L164.93493975903615,175.29630047297795L166.70843373493975,166.90005139354187L168.48192771084337,154.9135588835719L170.25542168674698,144.74135680307714L172.0289156626506,132.9000991405883L173.8024096385542,120.47285428260298L175.57590361445781,109.17092237857074L177.34939759036143,98.74187145902077L179.12289156626505,89.29804758274825L180.89638554216864,80.84377699907424L182.6698795180723,73.21251654753695L184.4433734939759,66.18040331914231L186.2168674698795,60.29962355799396L187.99036144578312,54.89320786720684L189.76385542168674,50.0786856435143L191.53734939759036,45.840726665598105L193.31084337349395,45.29054237431417L195.08433734939757,42.064981930836474L196.8578313253012,38.62462800916539L198.6313253012048,36.61318804352811L200.4048192771084,34.86481026206516L202.17831325301205,33.30594189342254L203.95180722891567,31.796924954544615L205.72530120481926,30.917477762872007L207.49879518072288,29.341869700713335L209.27228915662647,27.79334268866009L211.04578313253012,26.22063624931301L212.8192771084337,24.50427895119718L214.59277108433733,23.339670249429663L216.36626506024095,22.561051974261403L218.13975903614457,21.774813702519058L219.91325301204816,19.89399582550583L221.68674698795178,18.093440104539525L223.46024096385543,16.462968757843083L225.23373493975902,14.872877121740242L227.00722891566264,13.351818783506074L228.78072289156623,11.974442632288046L230.55421686746988,11.116791875679429L232.32771084337347,10.242752510310508L234.1012048192771,9.159064811512017L235.87469879518073,8.177744225378774L237.64819277108435,7.289120937138229L239.421686746988,7.068861716251577L241.19518072289154,6.479793182468602L242.96867469879518,6.238580571409537L244.7421686746988,6.1824930167170224L246.51566265060245,5.604099594041734L248.28915662650604,5.348202635000386L250.06265060240966,5.311285717026889L251.83614457831325,5.180452240357455L253.6096385542169,4.9808076842505695L255.3831325301205,5.489965303891749L257.1566265060241,5.4396572758771L258.93012048192776,5.296697654858932L260.7036144578313,5.069838459547106L262.47710843373494,4.961812498701045L264.2506024096386,4.571779566680227L266.0240963855422,4.413397257119585L267.79759036144577,4.075168482583108L269.5710843373494,3.9636968149211507L271.344578313253,3.570543693303594L273.11807228915666,3.60414339232574L274.89156626506025,3.634569212577606L276.6650602409639,3.5647172232295103L278.4385542168675,3.209252342411652L280.2120481927711,3.0821726871728434L281.98554216867467,2.8696934321886944L283.7590361445783,2.6772852882859794L285.53253012048197,2.4056485737779285L287.30602409638556,2.4518822707319785L289.07951807228915,3.1755747871465765L290.8530120481928,3.051676372095832L292.6265060240964,3.036885317691189L294.4,2.6338765290614656L296.1734939759036,2.5611477419549895L297.9469879518073,2.4952890249210435L299.72048192771086,2.338247692541354L301.49397590361446,2.585655630421374L303.2674698795181,2.3226744077633916L305.0409638554217,2.1819385111390375L306.8144578313253,2.0544967373578666L308.5879518072289,2.231304483021673L310.3614457831325,2.4888144315353817L312.1349397590362,2.234980976646985L313.90843373493976,1.9077212824952987L315.6819277108434,2.0983936543635906L317.455421686747,1.8814399285115058L319.2289156626506,1.6849799747208265L321.0024096385542,1.896692820909505L322.77590361445783,2.3806181312147103L324.5493975903615,2.624023686772577L326.3228915662651,3.136647965366201L328.09638554216866,3.6982527163587764L329.8698795180723,3.914596273432624L331.6433734939759,3.6234850741155347L333.4168674698795,3.944295017856227L335.19036144578314,4.137397052828192L336.9638554216868,3.9226434854614887L338.7373493975904,4.117790756146951L340.51084337349397,3.8074855048165874L342.2843373493976,3.6238958730460995L344.0578313253012,3.4576483908852773L345.83132530120486,3.5993160650885256L347.6048192771084,3.3379867042742055L349.37831325301204,3.4909577991761873L351.1518072289157,3.6294790170294036L352.9253012048193,3.949722762485417L354.6987951807229,3.655293464470665L356.4722891566265,3.973098738712759L358.2457831325301,4.163479930491682L360.0192771084337,4.433281155703102L361.79277108433735,4.38538538473903L363.566265060241,4.342013919494888L365.33975903614464,4.302739387326137L367.1132530120482,4.267174785843812L368.8867469879518,4.040162221981185L370.6602409638554,3.907646395129521L372.433734939759,3.9905726346887778L374.20722891566265,4.179303216082228L375.98072289156624,4.057994855089561L377.7542168674699,3.7533380147537914L379.5277108433735,3.89142533811794L381.30120481927713,3.7323745335511105L383.0746987951807,3.9454948912653425L384.84819277108437,3.846272412157992L386.6216867469879,3.9512300832754694L388.39518072289155,4.0706242277071025L390.1686746987952,3.8946460297322307L391.94216867469885,3.8002268096705967L393.71566265060244,3.909534016819931L395.48915662650603,4.398130797426722L397.2626506024096,4.353555381606643L399.0361445783132,4.118383178471397L400.80963855421686,3.9378935990515758L402.5831325301205,3.644581701992886L404.35662650602416,3.2815727589876484L406.1301204819277,3.0989597657446L407.90361445783134,2.98229852907637L409.67710843373493,3.0714647335330185L411.4506024096386,3.054804442135157L413.22409638554217,3.0397179066233266L414.99759036144576,3.0017055367623167L416.7710843373494,2.6020199081271618L418.544578313253,2.4835984871336585L420.31807228915665,2.425065191394185L422.09156626506024,2.274657314103915L423.8650602409639,2.0654043956945194L425.6385542168674,1.754163164376703L427.41204819277107,1.764533413305246L429.1855421686747,1.96873152042137L430.95903614457836,1.7640258762358014L432.73253012048195,2.090026580626753L434.50602409638554,2.3608818430675624L436.27951807228914,2.4113442675642567L438.0530120481928,2.1485948115372033L439.8265060240964,2.51132135549636L441.6,2.157958145446906L441.6,200.31002786595135L439.8265060240964,200.46617871079349L438.0530120481928,200.42348963475914L436.27951807228914,200.39427483970806L434.50602409638554,200.45164951109916L432.73253012048195,200.29988039932263L430.95903614457836,200.21295276694232L429.1855421686747,200.0362839420575L427.41204819277107,199.87704066880013L425.6385542168674,199.8804599227837L423.8650602409639,200.20692911260556L422.09156626506024,200.11030524251225L420.31807228915665,200.46075080679802L418.544578313253,200.63262435452296L416.7710843373494,200.62522550229576L414.99759036144576,200.59912743378712L413.22409638554217,200.67787135694962L411.4506024096386,200.6572650544966L409.67710843373493,200.84963803721982L407.90361445783134,200.95451403930483L406.1301204819277,200.9627657903987L404.35662650602416,200.81053169731155L402.5831325301205,200.80376389285522L400.80963855421686,200.79629010311206L399.0361445783132,200.8059640861268L397.2626506024096,200.69115539161234L395.48915662650603,200.64504371206948L393.71566265060244,200.5134485667663L391.94216867469885,200.47569045807393L390.1686746987952,200.43399360242566L388.39518072289155,200.40587453149197L386.6216867469879,200.4644592277761L384.84819277108437,200.6367196204613L383.0746987951807,200.7193849824092L381.30120481927713,200.8106736031516L379.5277108433735,200.82184800472777L377.7542168674699,200.7893695591907L375.98072289156624,200.78039422077333L374.20722891566265,200.77048261758736L372.433734939759,200.759537082929L370.6602409638554,200.67574014957998L368.8867469879518,200.89693147148384L367.1132530120482,200.79161206340103L365.33975903614464,200.89043507100405L363.566265060241,200.89200240781219L361.79277108433735,201.0012976604105L360.0192771084337,201.12199407581733L358.2457831325301,201.14771655063512L356.4722891566265,200.96099343473767L354.6987951807229,200.96992108567406L352.9253012048193,201.51760212056558L351.1518072289157,201.4770281330874L349.37831325301204,201.64735049710208L347.6048192771084,201.9430045018728L345.83132530120486,201.83924205597594L344.0578313253012,202.04734886012608L342.2843373493976,202.06203554208776L340.51084337349397,202.18581868812456L338.7373493975904,202.21494988639066L336.9638554216868,202.2471199132338L335.19036144578314,202.3902101840394L333.4168674698795,202.3330981154479L331.6433734939759,202.485157225111L329.8698795180723,202.76064284013657L328.09638554216866,202.95730138993196L326.3228915662651,203.06691000841343L324.5493975903615,203.40308131826976L322.77590361445783,203.66675600695598L321.0024096385542,204.06550041032628L319.2289156626506,204.39827552117316L317.455421686747,204.5506353149017L315.6819277108434,204.6113241402622L313.90843373493976,204.5707793157413L312.1349397590362,204.63356946810902L310.3614457831325,204.7029095919184L308.5879518072289,204.7794829492196L306.8144578313253,204.75647965483753L305.0409638554217,204.73107676564354L303.2674698795181,204.81058838989367L301.49397590361446,204.8983942906359L299.72048192771086,204.8877952640695L297.9469879518073,204.8760905971733L296.1734939759036,204.86316495476382L294.4,204.84889097043265L292.6265060240964,204.94069241754374L290.8530120481928,204.9345057311356L289.07951807228915,204.92767367881632L287.30602409638556,204.92012893904945L285.53253012048197,204.91179716762983L283.7590361445783,204.90259626511107L281.98554216867467,205L280.2120481927711,205L278.4385542168675,205L276.6650602409639,205L274.89156626506025,205L273.11807228915666,205L271.344578313253,205L269.5710843373494,205L267.79759036144577,205L266.0240963855422,205L264.2506024096386,205L262.47710843373494,205L260.7036144578313,205L258.93012048192776,205L257.1566265060241,205L255.3831325301205,205L253.6096385542169,205L251.83614457831325,205L250.06265060240966,205L248.28915662650604,205L246.51566265060245,205L244.7421686746988,205L242.96867469879518,205L241.19518072289154,205L239.421686746988,205L237.64819277108435,205L235.87469879518073,205L234.1012048192771,205L232.32771084337347,205L230.55421686746988,205L228.78072289156623,205L227.00722891566264,205L225.23373493975902,205L223.46024096385543,205L221.68674698795178,205L219.91325301204816,205L218.13975903614457,205L216.36626506024095,205L214.59277108433733,205L212.8192771084337,205L211.04578313253012,205L209.27228915662647,205L207.49879518072288,205L205.72530120481926,205L203.95180722891567,205L202.17831325301205,205L200.4048192771084,205L198.6313253012048,205L196.8578313253012,205L195.08433734939757,205L193.31084337349395,205L191.53734939759036,205L189.76385542168674,205L187.99036144578312,205L186.2168674698795,205L184.4433734939759,205L182.6698795180723,205L180.89638554216864,205L179.12289156626505,205L177.34939759036143,205L175.57590361445781,205L173.8024096385542,205L172.0289156626506,205L170.25542168674698,205L168.48192771084337,205L166.70843373493975,205L164.93493975903615,205L163.1614457831325,205L161.3879518072289,205L159.6144578313253,205L157.84096385542168,205L156.0674698795181,205L154.29397590361444,205L152.52048192771085,205L150.74698795180723,205L148.9734939759036,205L147.2,205L145.4265060240964,205L143.65301204819275,205L141.87951807228913,205L140.10602409638554,205L138.33253012048192,205L136.55903614457833,205L134.78554216867468,205L133.0120481927711,205L131.23855421686747,205L129.46506024096385,205L127.69156626506022,205L125.91807228915663,205L124.14457831325299,205L122.37108433734939,205L120.59759036144577,205L118.82409638554216,205L117.05060240963854,205L115.27710843373494,205L113.50361445783132,205L111.73012048192771,205L109.95662650602408,205L108.18313253012047,205L106.40963855421685,205L104.63614457831324,205L102.86265060240963,205L101.08915662650602,205L99.3156626506024,205L97.54216867469879,205L95.76867469879518,205L93.99518072289156,205L92.22168674698794,205L90.44819277108432,205L88.67469879518072,205L86.9012048192771,205L85.12771084337348,205L83.35421686746987,205L81.58072289156625,205L79.80722891566265,205L78.03373493975903,205L76.26024096385542,205L74.4867469879518,205L72.7132530120482,205L70.93975903614457,205L69.16626506024096,205L67.39277108433734,205L65.61927710843372,205L63.84578313253011,205L62.072289156626496,205L60.298795180722884,205L58.52530120481926,205L56.75180722891566,205L54.97831325301205,205L53.20481927710843,205L51.43132530120482,205L49.6578313253012,205L47.88433734939759,205L46.11084337349398,205L44.337349397590366,205L42.563855421686746,205L40.79036144578313,205L39.01686746987952,205L37.2433734939759,205L35.46987951807229,205L33.69638554216867,205L31.92289156626506,205L30.149397590361442,205L28.375903614457837,205L26.602409638554214,205L24.8289156626506,205L23.05542168674699,205L21.28192771084337,205L19.50843373493976,205L17.73493975903614,205L15.96144578313253,205L14.187951807228915,205L12.4144578313253,205L10.640963855421687,205L8.867469879518072,205L7.093975903614459,205L5.320481927710843,205L3.5469879518072296,205L1.7734939759036148,205L0,205Z" class="rv-xy-plot__series rv-xy-plot__series--line" transform="translate(38.4,5)" style="opacity: 1; stroke: rgba(218, 76, 76, 0); fill: rgba(218, 76, 76, 0.1);"/><path d="M0,205L1.7734939759036148,205L3.5469879518072296,205L5.320481927710843,205L7.093975903614459,205L8.867469879518072,205L10.640963855421687,205L12.4144578313253,205L14.187951807228915,205L15.96144578313253,205L17.73493975903614,205L19.50843373493976,205L21.28192771084337,204.9551987737734L23.05542168674699,204.96083605698348L24.8289156626506,204.96561413252496L26.602409638554214,204.96969683445292L28.375903614457837,204.9732095341846L30.149397590361442,204.9762498112812L31.92289156626506,204.9788947546728L33.69638554216867,204.98120607377285L35.46987951807229,204.9090667800972L37.2433734939759,204.91874756291588L39.01686746987952,204.89113691389892L40.79036144578313,204.83091913667428L42.563855421686746,204.84834951312766L44.337349397590366,204.82871905198908L46.11084337349398,204.8460906430968L47.88433734939759,204.82697322328417L49.6578313253012,204.77548433447748L51.43132530120482,204.72940870502816L53.20481927710843,204.75620567896587L54.97831325301205,204.7124716035623L56.75180722891566,204.7407000729999L58.52530120481926,204.73244310656466L60.298795180722884,204.65800355473775L62.072289156626496,204.69124295175268L63.84578313253011,204.72117001453444L65.61927710843372,204.6816626851236L67.39277108433734,204.67921431351456L69.16626506024096,204.6770065900974L70.93975903614457,204.64198203279446L72.7132530120482,204.6103754965315L74.4867469879518,204.548914097923L76.26024096385542,204.5591869300687L78.03373493975903,204.50277414705323L79.80722891566265,204.4846179011881L81.58072289156625,204.50098816436247L83.35421686746987,204.41754117273473L85.12771084337348,204.30938501220206L86.9012048192771,204.24429400117197L88.67469879518072,204.1527590225955L90.44819277108432,204.16794204911716L92.22168674698794,204.08376214054934L93.99518072289156,203.90974855186616L95.76867469879518,203.78492765434922L97.54216867469879,203.73718126833882L99.3156626506024,203.5962328437513L101.08915662650602,203.46868761989245L102.86265060240963,203.35326341717834L104.63614457831324,203.24880208821654L106.40963855421685,203.121712839714L108.18313253012047,202.94160815929484L109.95662650602408,202.87617748979773L111.73012048192771,202.81695024689452L113.50361445783132,202.63325904833323L115.27710843373494,202.59702978292077L117.05060240963854,202.53172208014092L118.82409638554216,202.40758655797126L120.59759036144577,202.24644962979545L122.37108433734939,202.23597811022685L124.14457831325299,202.2698258773724L125.91807228915663,202.20299034353778L127.69156626506022,202.0125131624875L129.46506024096385,202.0512313626781L131.23855421686747,201.92385291730835L133.0120481927711,201.8897331530398L134.78554216867468,201.76138909014654L136.55903614457833,201.74262584429513L138.33253012048192,201.6850355859575L140.10602409638554,201.51109135111884L141.87951807228913,201.4835029441698L143.65301204819275,201.49099959738186L145.4265060240964,201.27045210741736L147.2,201.17629441442736L148.9734939759036,201.01796639365102L150.74698795180723,200.71764135859652L152.52048192771085,200.24544166237115L154.29397590361444,199.78538865185521L156.0674698795181,199.425633439466L157.84096385542168,198.65337788958934L159.6144578313253,197.521131826536L161.3879518072289,196.6365733666084L163.1614457831325,194.37438946937343L164.93493975903615,193.2269994493389L166.70843373493975,190.3777802628552L168.48192771084337,186.34740484711017L170.25542168674698,182.91426463434632L172.0289156626506,178.66902001357144L173.8024096385542,174.33778822275087L175.57590361445781,170.25338575715034L177.34939759036143,166.1002671824779L179.12289156626505,162.44231074792745L180.89638554216864,159.05956710530396L182.6698795180723,155.97203290078437L184.4433734939759,152.74595746851605L186.2168674698795,150.76623405844546L187.99036144578312,148.36744544411133L189.76385542168674,145.47012785081935L191.53734939759036,142.36759549061142L193.31084337349395,140.4916134931606L195.08433734939757,138.14347683250324L196.8578313253012,134.88076188815745L198.6313253012048,131.37429471695035L200.4048192771084,128.38575492313433L202.17831325301205,125.33048974336663L203.95180722891567,122.23915320856511L205.72530120481926,118.9528114563535L207.49879518072288,115.50070790373567L209.27228915662647,112.266473127172L211.04578313253012,109.27281705548708L212.8192771084337,107.89314216999628L214.59277108433733,105.05285865836431L216.36626506024095,103.2114069600987L218.13975903614457,101.05688235922308L219.91325301204816,98.66756055648082L221.68674698795178,96.73121560802612L223.46024096385543,94.84790990819279L225.23373493975902,93.10462586360116L227.00722891566264,91.41778931892351L228.78072289156623,90.10133662820064L230.55421686746988,88.90923860748845L232.32771084337347,87.82974842321991L234.1012048192771,86.75482497992402L235.87469879518073,85.78144076176505L237.64819277108435,84.8675362006808L239.421686746988,84.33217224676835L241.19518072289154,84.10712328767475L242.96867469879518,83.54618544790296L244.7421686746988,83.059880038325L246.51566265060245,82.44364385270049L248.28915662650604,81.90996930716028L250.06265060240966,81.71891792597411L251.83614457831325,81.44850977764374L253.6096385542169,80.99801460696844L255.3831325301205,81.79409286030159L257.1566265060241,81.41917984680542L258.93012048192776,80.94981001660625L260.7036144578313,80.58971344021013L262.47710843373494,80.19869630834253L264.2506024096386,79.61733982930018L266.0240963855422,79.22077085517205L267.79759036144577,79.18634156824584L269.5710843373494,78.70061369832501L271.344578313253,78.29323634257078L273.11807228915666,78.08668004760538L274.89156626506025,77.93210328905718L276.6650602409639,77.72719225921371L278.4385542168675,77.37929787147169L280.2120481927711,77.74609227584621L281.98554216867467,77.59122004606644L283.7590361445783,76.99642651801666L285.53253012048197,76.71756137315704L287.30602409638556,77.63388304396808L289.07951807228915,77.55454609369691L290.8530120481928,77.3528317892701L292.6265060240964,77.04030007998117L294.4,77.56898833311932L296.1734939759036,77.85292844355804L297.9469879518073,79.01914861441051L299.72048192771086,78.51674623170136L301.49397590361446,78.15920525681607L303.2674698795181,77.60816277255046L305.0409638554217,77.20657631121054L306.8144578313253,77.16760339553083L308.5879518072289,77.32711937251862L310.3614457831325,76.98454860147535L312.1349397590362,76.57693385024427L313.90843373493976,76.2078229959359L315.6819277108434,76.10085426249738L317.455421686747,75.74424668734355L319.2289156626506,75.32392106965014L321.0024096385542,75.1381074857895L322.77590361445783,75.03478194630735L324.5493975903615,74.84381296628729L326.3228915662651,74.63841529210946L328.09638554216866,74.67969514527324L329.8698795180723,74.45733237673939L331.6433734939759,74.0286989691531L333.4168674698795,73.90029817582501L335.19036144578314,73.88143003671364L336.9638554216868,73.70200466970962L338.7373493975904,73.57199599777948L340.51084337349397,73.4542681383415L342.2843373493976,73.31519311954753L344.0578313253012,73.18925533382946L345.83132530120486,73.30248917461175L347.6048192771084,73.2751551464754L349.37831325301204,73.4127426711751L351.1518072289157,73.24512230200128L352.9253012048193,73.25567514190803L354.6987951807229,73.13535951304813L356.4722891566265,73.31862024888603L358.2457831325301,73.419634087307L360.0192771084337,73.70591345601503L361.79277108433735,73.51059973895808L363.566265060241,73.46360727764875L365.33975903614464,73.32365007031493L367.1132530120482,73.22938133673844L368.8867469879518,73.07908155202198L370.6602409638554,72.71570395297577L372.433734939759,73.5230283189159L374.20722891566265,73.50732974340791L375.98072289156624,73.39571035495747L377.7542168674699,73.35957051564854L379.5277108433735,73.17262193674001L381.30120481927713,72.96274791357828L383.0746987951807,72.87010262627177L384.84819277108437,72.68880502680705L386.6216867469879,72.71944051542106L388.39518072289155,72.55237468287712L390.1686746987952,72.21169400779323L391.94216867469885,71.99518694130876L393.71566265060244,71.96147099356715L395.48915662650603,72.19068316749257L397.2626506024096,72.2359040793527L399.0361445783132,72.04957800143728L400.80963855421686,71.8646186078182L402.5831325301205,71.64842889157597L404.35662650602416,71.4201928693451L406.1301204819277,71.29468613070213L407.90361445783134,71.29467262272887L409.67710843373493,71.23513589294465L411.4506024096386,71.0134722337211L413.22409638554217,70.8452151610721L414.99759036144576,70.97694609557989L416.7710843373494,70.81213933622705L418.544578313253,71.28520203612247L420.31807228915665,71.05880905461434L422.09156626506024,70.88626939849001L423.8650602409639,70.6488583249959L425.6385542168674,70.450107408286L427.41204819277107,70.43247033797931L429.1855421686747,70.53554828712642L430.95903614457836,70.4773724365378L432.73253012048195,70.60326545662593L434.50602409638554,70.70103248099278L436.27951807228914,70.56228893174085L438.0530120481928,70.51782107406352L439.8265060240964,70.59119139390792L441.6,70.36541987333224" class="rv-xy-plot__series rv-xy-plot__series--line" transform="translate(38.4,5)" style="opacity: 1; stroke-width: 1.5; stroke: rgb(218, 76, 76);"/><g class="rv-xy-plot__series rv-xy-plot__series--mark" transform="translate(38.4,5)"><circle r="2" cx="441.6" cy="70.36541987333224" style="opacity: 1; stroke: rgb(218, 76, 76); fill: rgb(218, 76, 76); stroke-width: 1;"/></g><g class="rv-xy-plot__series rv-xy-plot__series--mark" transform="translate(38.4,5)"><circle r="2" cx="441.6" cy="3.939177659350289" style="opacity: 1; stroke: rgb(83, 135, 221); fill: rgb(83, 135, 221); stroke-width: 1;"/></g><defs class="rv-gradient-defs"><linearGradient id="leftFadeGradient" x1="0" x2="1" y1="0" y2="0"><stop offset="0%" stop-color="white" stop-opacity="1"/><stop offset="60%" stop-color="white" stop-opacity="1"/><stop offset="100%" stop-color="white" stop-opacity="0"/></linearGradient><linearGradient id="rightFadeGradient" x1="1" x2="0" y1="0" y2="0"><stop offset="0%" stop-color="white" stop-opacity="1"/><stop offset="100%" stop-color="white" stop-opacity="0"/></linearGradient><linearGradient id="bottomFadeGradient" x1="0" x2="0" y1="1" y2="0"><stop offset="0%" stop-color="white" stop-opacity="1"/><stop offset="40%" stop-color="white" stop-opacity="1"/><stop offset="100%" stop-color="white" stop-opacity="0"/></linearGradient><linearGradient id="topFadeGradient" x1="0" x2="0" y1="0" y2="1"><stop offset="0%" stop-color="white" stop-opacity="1"/><stop offset="100%" stop-color="white" stop-opacity="0"/></linearGradient></defs><g class="rv-xy-plot__borders plot-border"><rect class="rv-xy-plot__borders-bottom plot-border-bottom" x="0" y="210" width="500" height="30" style="fill: url(&quot;#bottomFadeGradient&quot;); opacity: 1;"/><rect class="rv-xy-plot__borders-left plot-border-left" x="0" y="0" width="38.4" height="240" style="fill: url(&quot;#leftFadeGradient&quot;); opacity: 1;"/><rect class="rv-xy-plot__borders-right plot-border-right" x="480" y="0" width="20" height="240" style="fill: url(&quot;#rightFadeGradient&quot;); opacity: 1;"/><rect class="rv-xy-plot__borders-top plot-border-top" x="0" y="0" width="500" height="5" style="fill: url(&quot;#topFadeGradient&quot;); opacity: 1;"/></g><g transform="translate(38.4,210)" class="rv-xy-plot__axis rv-xy-plot__axis--horizontal"><line x1="0" x2="441.6" y1="0" y2="0" class="rv-xy-plot__axis__line"/><g transform="translate(0, 0)" class="rv-xy-plot__axis__ticks"/></g><g transform="translate(38.4,210)" class="rv-xy-plot__axis rv-xy-plot__axis--horizontal" style="font-family: &quot;Source Sans Pro&quot;; fill: rgb(107, 107, 118); font-size: 14px;"><line x1="0" x2="441.6" y1="0" y2="0" class="rv-xy-plot__axis__line" style="font-family: &quot;Source Sans Pro&quot;; fill: rgb(107, 107, 118); font-size: 14px; stroke-width: 0;"/><g transform="translate(0, 0)" class="rv-xy-plot__axis__ticks"><g transform="translate(109.75422521147716, 0)" class="rv-xy-plot__axis__tick" style="font-family: &quot;Source Sans Pro&quot;; fill: rgb(107, 107, 118); font-size: 14px;"><line x1="0" x2="0" y1="-6" y2="6" class="rv-xy-plot__axis__tick__line" style="font-family: &quot;Source Sans Pro&quot;; fill: rgb(107, 107, 118); font-size: 14px; stroke-width: 0;"/><text text-anchor="middle" dy="0.72em" transform="translate(0, 14)" class="rv-xy-plot__axis__tick__text" style="font-family: sans-serif; fill: rgb(107, 107, 118); font-size: 14px;">500k</text></g><g transform="translate(220.75027377024566, 0)" class="rv-xy-plot__axis__tick" style="font-family: &quot;Source Sans Pro&quot;; fill: rgb(107, 107, 118); font-size: 14px;"><line x1="0" x2="0" y1="-6" y2="6" class="rv-xy-plot__axis__tick__line" style="font-family: &quot;Source Sans Pro&quot;; fill: rgb(107, 107, 118); font-size: 14px; stroke-width: 0;"/><text text-anchor="middle" dy="0.72em" transform="translate(0, 14)" class="rv-xy-plot__axis__tick__text" style="font-family: sans-serif; fill: rgb(107, 107, 118); font-size: 14px;">1M</text></g><g transform="translate(331.74632232901416, 0)" class="rv-xy-plot__axis__tick" style="font-family: &quot;Source Sans Pro&quot;; fill: rgb(107, 107, 118); font-size: 14px;"><line x1="0" x2="0" y1="-6" y2="6" class="rv-xy-plot__axis__tick__line" style="font-family: &quot;Source Sans Pro&quot;; fill: rgb(107, 107, 118); font-size: 14px; stroke-width: 0;"/><text text-anchor="middle" dy="0.72em" transform="translate(0, 14)" class="rv-xy-plot__axis__tick__text" style="font-family: sans-serif; fill: rgb(107, 107, 118); font-size: 14px;">1.5M</text></g></g><g transform="translate(0, 0)" class="rv-xy-plot__axis__title"><g transform="translate(435.6, -6) rotate(0)" style="text-anchor: end; font-family: &quot;Source Sans Pro&quot;; fill: rgb(107, 107, 118); font-size: 14px;"><text style="font-family: sans-serif; fill: rgb(107, 107, 118); font-size: 14px;"> Steps</text></g></g></g><g transform="translate(38.4,210)" class="rv-xy-plot__axis rv-xy-plot__axis--horizontal"><line x1="0" x2="0" y1="0" y2="0" class="rv-xy-plot__axis__line"/><g transform="translate(0, 0)" class="rv-xy-plot__axis__ticks"><g transform="translate(109.75422521147716, 0)" class="rv-xy-plot__axis__tick"><line x1="0" x2="0" y1="-6" y2="6" class="rv-xy-plot__axis__tick__line"/><text text-anchor="middle" dy="0.72em" transform="translate(0, 14)" class="rv-xy-plot__axis__tick__text" style="font-family: sans-serif;"/></g><g transform="translate(220.75027377024566, 0)" class="rv-xy-plot__axis__tick"><line x1="0" x2="0" y1="-6" y2="6" class="rv-xy-plot__axis__tick__line"/><text text-anchor="middle" dy="0.72em" transform="translate(0, 14)" class="rv-xy-plot__axis__tick__text" style="font-family: sans-serif;"/></g><g transform="translate(331.74632232901416, 0)" class="rv-xy-plot__axis__tick"><line x1="0" x2="0" y1="-6" y2="6" class="rv-xy-plot__axis__tick__line"/><text text-anchor="middle" dy="0.72em" transform="translate(0, 14)" class="rv-xy-plot__axis__tick__text" style="font-family: sans-serif;"/></g></g></g><g transform="translate(0,5)" class="rv-xy-plot__axis rv-xy-plot__axis--vertical" style="font-family: &quot;Source Sans Pro&quot;; fill: rgb(107, 107, 118); font-size: 14px;"><line x1="38.4" x2="38.4" y1="0" y2="205" class="rv-xy-plot__axis__line" style="font-family: &quot;Source Sans Pro&quot;; fill: rgb(107, 107, 118); font-size: 14px; stroke: none;"/><g transform="translate(38.4, 0)" class="rv-xy-plot__axis__ticks"><g transform="translate(0, 205)" class="rv-xy-plot__axis__tick" style="font-family: &quot;Source Sans Pro&quot;; fill: rgb(107, 107, 118); font-size: 14px;"><line y1="0" y2="0" x1="6" x2="-6" class="rv-xy-plot__axis__tick__line" style="font-family: &quot;Source Sans Pro&quot;; fill: rgb(107, 107, 118); font-size: 14px; stroke: none;"/><text text-anchor="end" dy="0.32em" transform="translate(-14, 0)" class="rv-xy-plot__axis__tick__text" style="font-family: sans-serif; fill: rgb(107, 107, 118); font-size: 14px;">0</text></g><g transform="translate(0, 153.44262588595356)" class="rv-xy-plot__axis__tick" style="font-family: &quot;Source Sans Pro&quot;; fill: rgb(107, 107, 118); font-size: 14px;"><line y1="0" y2="0" x1="6" x2="-6" class="rv-xy-plot__axis__tick__line" style="font-family: &quot;Source Sans Pro&quot;; fill: rgb(107, 107, 118); font-size: 14px; stroke: none;"/><text text-anchor="end" dy="0.32em" transform="translate(-14, 0)" class="rv-xy-plot__axis__tick__text" style="font-family: sans-serif; fill: rgb(107, 107, 118); font-size: 14px;">10</text></g><g transform="translate(0, 101.88525177190715)" class="rv-xy-plot__axis__tick" style="font-family: &quot;Source Sans Pro&quot;; fill: rgb(107, 107, 118); font-size: 14px;"><line y1="0" y2="0" x1="6" x2="-6" class="rv-xy-plot__axis__tick__line" style="font-family: &quot;Source Sans Pro&quot;; fill: rgb(107, 107, 118); font-size: 14px; stroke: none;"/><text text-anchor="end" dy="0.32em" transform="translate(-14, 0)" class="rv-xy-plot__axis__tick__text" style="font-family: sans-serif; fill: rgb(107, 107, 118); font-size: 14px;">20</text></g><g transform="translate(0, 50.3278776578607)" class="rv-xy-plot__axis__tick" style="font-family: &quot;Source Sans Pro&quot;; fill: rgb(107, 107, 118); font-size: 14px;"><line y1="0" y2="0" x1="6" x2="-6" class="rv-xy-plot__axis__tick__line" style="font-family: &quot;Source Sans Pro&quot;; fill: rgb(107, 107, 118); font-size: 14px; stroke: none;"/><text text-anchor="end" dy="0.32em" transform="translate(-14, 0)" class="rv-xy-plot__axis__tick__text" style="font-family: sans-serif; fill: rgb(107, 107, 118); font-size: 14px;">30</text></g></g><g transform="translate(38.4, 0)" class="rv-xy-plot__axis__title"><g transform="translate(16, 6) rotate(-90)" style="text-anchor: end; font-family: &quot;Source Sans Pro&quot;; fill: rgb(107, 107, 118); font-size: 14px;"><text style="font-family: sans-serif; fill: rgb(107, 107, 118); font-size: 14px;">Episodic Return</text></g></g></g></svg></g><style xmlns="http://www.w3.org/1999/xhtml">/*&lt;![CDATA[*/<br />text { font-size: 10px; fill: black }<br />.react-vis-magic-css-import-rule{display:inherit}.rv-treemap{font-size:12px;position:relative}.rv-treemap__leaf{overflow:hidden;position:absolute}.rv-treemap__leaf--circle{align-items:center;border-radius:100%;display:flex;justify-content:center}.rv-treemap__leaf__content{overflow:hidden;padding:10px;text-overflow:ellipsis}.rv-xy-plot{color:#c3c3c3;position:relative}.rv-xy-plot canvas{pointer-events:none}.rv-xy-plot .rv-xy-canvas{pointer-events:none;position:absolute}.rv-xy-plot__inner{display:block}.rv-xy-plot__axis__line{fill:none;stroke-width:2px;stroke:#e6e6e9}.rv-xy-plot__axis__tick__line{stroke:#e6e6e9}.rv-xy-plot__axis__tick__text{fill:#6b6b76;font-size:11px}.rv-xy-plot__axis__title text{fill:#6b6b76;font-size:11px}.rv-xy-plot__grid-lines__line{stroke:#e6e6e9}.rv-xy-plot__circular-grid-lines__line{fill-opacity:0;stroke:#e6e6e9}.rv-xy-plot__series,.rv-xy-plot__series path{pointer-events:all}.rv-xy-plot__series--line{fill:none;stroke:#000;stroke-width:2px}.rv-crosshair{position:absolute;font-size:11px;pointer-events:none}.rv-crosshair__line{background:#47d3d9;width:1px}.rv-crosshair__inner{position:absolute;text-align:left;top:0}.rv-crosshair__inner__content{border-radius:4px;background:#3a3a48;color:#fff;font-size:12px;padding:7px 10px;box-shadow:0 2px 4px rgba(0,0,0,0.5)}.rv-crosshair__inner--left{right:4px}.rv-crosshair__inner--right{left:4px}.rv-crosshair__title{font-weight:bold;white-space:nowrap}.rv-crosshair__item{white-space:nowrap}.rv-hint{position:absolute;pointer-events:none}.rv-hint__content{border-radius:4px;padding:7px 10px;font-size:12px;background:#3a3a48;box-shadow:0 2px 4px rgba(0,0,0,0.5);color:#fff;text-align:left;white-space:nowrap}.rv-discrete-color-legend{box-sizing:border-box;overflow-y:auto;font-size:12px}.rv-discrete-color-legend.horizontal{white-space:nowrap}.rv-discrete-color-legend-item{color:#3a3a48;border-radius:1px;padding:9px 10px}.rv-discrete-color-legend-item.horizontal{display:inline-block}.rv-discrete-color-legend-item.horizontal .rv-discrete-color-legend-item__title{margin-left:0;display:block}.rv-discrete-color-legend-item__color{display:inline-block;vertical-align:middle;overflow:visible}.rv-discrete-color-legend-item__color__path{stroke:#dcdcdc;stroke-width:2px}.rv-discrete-color-legend-item__title{margin-left:10px}.rv-discrete-color-legend-item.disabled{color:#b8b8b8}.rv-discrete-color-legend-item.clickable{cursor:pointer}.rv-discrete-color-legend-item.clickable:hover{background:#f9f9f9}.rv-search-wrapper{display:flex;flex-direction:column}.rv-search-wrapper__form{flex:0}.rv-search-wrapper__form__input{width:100%;color:#a6a6a5;border:1px solid #e5e5e4;padding:7px 10px;font-size:12px;box-sizing:border-box;border-radius:2px;margin:0 0 9px;outline:0}.rv-search-wrapper__contents{flex:1;overflow:auto}.rv-continuous-color-legend{font-size:12px}.rv-continuous-color-legend .rv-gradient{height:4px;border-radius:2px;margin-bottom:5px}.rv-continuous-size-legend{font-size:12px}.rv-continuous-size-legend .rv-bubbles{text-align:justify;overflow:hidden;margin-bottom:5px;width:100%}.rv-continuous-size-legend .rv-bubble{background:#d8d9dc;display:inline-block;vertical-align:bottom}.rv-continuous-size-legend .rv-spacer{display:inline-block;font-size:0;line-height:0;width:100%}.rv-legend-titles{height:16px;position:relative}.rv-legend-titles__left,.rv-legend-titles__right,.rv-legend-titles__center{position:absolute;white-space:nowrap;overflow:hidden}.rv-legend-titles__center{display:block;text-align:center;width:100%}.rv-legend-titles__right{right:0}.rv-radial-chart .rv-xy-plot__series--label{pointer-events:none}<br /><br />/*]]&gt;*/</style></svg>