<svg xmlns="http://www.w3.org/2000/svg" viewBox="0 0 499.9999694824219 300"><g><text x="50%" y="0" style="fill: rgb(54, 58, 61); dominant-baseline: text-before-edge; text-anchor: middle; font-weight: bold; font-size: 13px; font-family: sans-serif;">MicrortsAttackShapedReward-v1</text><svg viewBox="0 0 1024 1024" x="100.67327880859375" y="25.90625" height="11" width="11"><path d="M128 533.333h768c23.564 0 42.667-19.103 42.667-42.667v-85.333c0-23.564-19.103-42.667-42.667-42.667h-768c-23.564 0-42.667 19.103-42.667 42.667v85.333c0 23.564 19.103 42.667 42.667 42.667z" style="fill: rgb(215, 62, 62);"/></svg><text x="119.67327880859375" y="23.90625" style="fill: rgb(215, 62, 62); dominant-baseline: text-before-edge; font-size: 11px; font-family: sans-serif;">openai/baselines' PPO-MultiDiscrete</text><svg viewBox="0 0 1024 1024" x="157.37786865234375" y="44.414764404296875" height="11" width="11"><path d="M128 533.333h768c23.564 0 42.667-19.103 42.667-42.667v-85.333c0-23.564-19.103-42.667-42.667-42.667h-768c-23.564 0-42.667 19.103-42.667 42.667v85.333c0 23.564 19.103 42.667 42.667 42.667z" style="fill: rgb(56, 116, 216);"/></svg><text x="176.37786865234375" y="42.414764404296875" style="fill: rgb(56, 116, 216); dominant-baseline: text-before-edge; font-size: 11px; font-family: sans-serif;">our PPO-MultiDiscrete</text></g><g transform="translate(0, 60.014190673828125)"><svg class="rv-xy-plot__inner" width="500" height="240"><g transform="translate(31.2,5)" class="rv-xy-plot__grid-lines"><line y1="193.4112075694911" y2="193.4112075694911" x1="0" x2="448.8" class="rv-xy-plot__grid-lines__line" style="stroke-width: 0.5;"/><line y1="146.1974637724216" y2="146.1974637724216" x1="0" x2="448.8" class="rv-xy-plot__grid-lines__line" style="stroke-width: 0.5;"/><line y1="98.98371997535205" y2="98.98371997535205" x1="0" x2="448.8" class="rv-xy-plot__grid-lines__line" style="stroke-width: 0.5;"/><line y1="51.76997617828253" y2="51.76997617828253" x1="0" x2="448.8" class="rv-xy-plot__grid-lines__line" style="stroke-width: 0.5;"/><line y1="4.556232381213" y2="4.556232381213" x1="0" x2="448.8" class="rv-xy-plot__grid-lines__line" style="stroke-width: 0.5;"/></g><path d="M0,193.4112075694911L1.8024096385542168,194.73948999134433L3.6048192771084335,189.24511746214267L5.4072289156626505,184.54390775325672L7.209638554216867,184.6818037928913L9.012048192771084,184.694979757031L10.814457831325303,184.85482003612574L12.61686746987952,186.33005490361614L14.419277108433738,185.9171056508755L16.221686746987952,184.47909378784746L18.024096385542165,185.74925055138914L19.826506024096386,184.0108839603817L21.628915662650602,182.92634133390982L23.43132530120482,181.27521549569752L25.233734939759035,180.72250426033648L27.03614457831325,179.41433765390673L28.83855421686747,177.76187909646055L30.64096385542169,176.5212652387871L32.44337349397591,174.28145209299134L34.245783132530114,172.50989247278844L36.04819277108434,169.65462055141225L37.85060240963856,168.60099957357212L39.65301204819277,166.45605802258407L41.45542168674699,163.1077502908027L43.25783132530121,162.51399675640047L45.06024096385543,159.17375403980373L46.86265060240964,158.39244792159926L48.66506024096386,157.6511893346849L50.46746987951808,154.3633192716914L52.269879518072294,153.2002149732481L54.07228915662651,152.34489752312518L55.87469879518073,151.34692499213938L57.67710843373494,150.44525225928572L59.47951807228916,147.28301288922853L61.28192771084338,146.793352510426L63.08433734939759,143.24615698543352L64.88674698795182,142.71417808899784L66.68915662650603,139.84310338019324L68.49156626506023,137.23298212254502L70.29397590361447,132.93539282200243L72.09638554216868,132.68575962708118L73.89879518072289,132.09282422668412L75.70120481927712,130.36668468312484L77.50361445783133,127.71696930253027L79.30602409638554,126.05227109056464L81.10843373493978,123.42501815022761L82.91084337349398,121.22524742658973L84.71325301204818,119.88741036808946L86.51566265060242,116.90659044700853L88.31807228915663,115.7243007717703L90.12048192771084,111.8455222314221L91.92289156626506,111.19845814985209L93.72530120481927,109.61509980576515L95.52771084337348,108.27739937849852L97.33012048192772,104.97855404328101L99.13253012048193,103.80209813899768L100.93493975903614,102.24635955702819L102.73734939759036,99.29593009294415L104.53975903614459,97.0816514246962L106.34216867469878,93.99596725235438L108.14457831325302,93.13108053107912L109.94698795180723,91.26304925986656L111.74939759036144,89.09941072839015L113.55180722891566,88.58730839386465L115.35421686746987,87.51183336960902L117.15662650602411,84.88736686887687L118.9590361445783,83.68978870548861L120.76144578313252,81.15858493825523L122.56385542168672,79.81889875069965L124.36626506024095,79.28095860268677L126.16867469879519,76.0095777815718L127.9710843373494,74.84937181941369L129.77349397590362,73.66666946006534L131.57590361445781,72.86007791383871L133.37831325301204,70.24641457089999L135.18072289156626,67.47222615345467L136.98313253012046,65.74044066862868L138.78554216867468,64.51677412827566L140.5879518072289,64.1733294394263L142.3903614457831,61.0723265502L144.19277108433732,57.995884059821655L145.99518072289158,56.56727427838526L147.79759036144577,54.58095757629725L149.6,52.92488724378284L151.40240963855422,51.63362037990702L153.2048192771084,50.680407897149244L155.00722891566264,49.2394732562084L156.8096385542169,46.498604785101854L158.61204819277108,45.46376476316312L160.4144578313253,42.946048590609415L162.2168674698795,43.06600267503918L164.0192771084337,41.69495115326053L165.82168674698792,40.45343797559507L167.62409638554217,38.59748605865259L169.42650602409637,36.007089669381585L171.2289156626506,34.34102020876004L173.03132530120482,33.267803810184425L174.833734939759,32.59209050037937L176.63614457831324,30.56907180782766L178.4385542168675,29.63214322845542L180.24096385542168,29.179257647349026L182.0433734939759,28.593676535426134L183.84578313253013,27.211621726838235L185.64819277108433,25.633140968292786L187.45060240963852,23.614388964095905L189.25301204819277,21.78634212857329L191.05542168674697,19.66913759015992L192.8578313253012,18.97255680385391L194.66024096385541,18.214740242399824L196.4626506024096,16.43493401340917L198.26506024096383,15.131152031336077L200.0674698795181,13.993381339879848L201.86987951807228,12.963089213157744L203.6722891566265,11.679378416267248L205.47469879518073,11.550215280316774L207.27710843373492,10.399970819004169L209.07951807228918,10.277176672465401L210.88192771084337,9.555081134841835L212.68433734939757,8.94404680556731L214.4867469879518,8.03999033024985L216.289156626506,7.879967865313159L218.0915662650602,7.42716927126848L219.89397590361446,6.666401589008566L221.69638554216868,6.328239239375286L223.49879518072288,5.671279232933776L225.30120481927707,5.076377130554088L227.10361445783133,5.588878265656687L228.9060240963855,5.463597022953836L230.70843373493975,4.8883135143514L232.51084337349397,4.367372426807073L234.31325301204816,3.8956404430103446L236.11566265060242,3.468469155694681L237.9180722891566,3.389540040219683L239.72048192771084,3.010175987079533L241.52289156626503,3.409962228048227L243.32530120481928,3.490505125464902L245.12771084337345,3.409494504933606L246.9301204819277,3.4900815642386167L248.73253012048193,3.7170014953490753L250.53493975903612,4.119281611652863L252.33734939759037,3.9788758130349535L254.13975903614457,3.894582611453731L255.9421686746988,3.467511830206573L257.74457831325304,4.458962842614281L259.54698795180724,4.891282899240318L261.3493975903615,4.831897903180906L263.15180722891563,5.228989899522221L264.9542168674699,5.488445079966763L266.75662650602413,5.218706080784405L268.55903614457833,5.128392203698789L270.3614457831326,5.24340463781236L272.1638554216868,5.150757703251444L273.9662650602409,4.605026910584879L275.7686746987951,4.110846684712969L277.57108433734936,3.9712377504542884L279.3734939759036,3.9987616220669815L281.1759036144578,3.869740416478628L282.97831325301206,3.906851877653442L284.7807228915662,4.094402859704019L286.58313253012045,3.648456997925307L288.3855421686747,3.7064712206118475L290.1879518072289,3.2971699720530867L291.99036144578315,3.2344221726192854L293.79277108433735,2.8697113902014237L295.59518072289154,2.539451735941796L297.39759036144574,3.1166845040658053L299.2,2.7630954055494494L301.00240963855424,3.0586873144311753L302.80481927710844,3.435958359404486L304.60722891566263,3.5140455162940865L306.4096385542168,3.7546422919681866L308.2120481927711,3.8788514857436174L310.01445783132533,3.570180243389154L311.8168674698795,3.6355886000281012L313.6192771084338,3.4083529708368276L315.421686746988,3.3351026641270067L317.22409638554217,3.31162129446313L319.0265060240964,3.2475084062032344L320.8289156626506,2.881561502875089L322.63132530120487,3.1819036534152207L324.433734939759,2.822153873908155L326.23614457831326,2.496386594255124L328.0385542168674,3.294948787993391L329.84096385542165,2.9245205984106537L331.6433734939759,2.5890836069261853L333.4457831325301,2.2853324928228025L335.24819277108435,2.3610139749095778L337.05060240963854,2.3866968684065166L338.85301204819274,2.1020635073001004L340.655421686747,2.3823777461247375L342.4578313253012,2.098152376097712L344.26024096385544,2.1486655669452914L346.06265060240963,2.7992194969436883L347.8650602409638,2.4756186358881225L349.667469879518,2.182585593353255L351.4698795180723,1.9172328877263123L353.2722891566265,1.6769457932074854L355.0746987951807,1.4593565748884023L356.877108433735,1.2623211576247488L358.6795180722891,1.3917882076128563L360.48192771084337,1.201135398849435L362.2843373493976,1.7538735398520515L364.0867469879518,1.9908529254237077L365.88915662650606,2.5895628427511532L367.69156626506026,2.285766461806703L369.49397590361446,2.010667138584358L371.29638554216865,2.223389419008731L373.09879518072285,2.177390213406447L374.9012048192771,1.9125282717794017L376.7036144578313,2.288465999529809L378.50602409638554,2.013111674104718L380.30843373493974,2.0716579358228326L382.11084337349394,1.816783622366243L383.9132530120482,1.5859851153798998L385.7156626506024,1.727727989515826L387.51807228915663,1.5053418099908416L389.32048192771083,1.3039625595107163L391.122891566265,1.1216058923341987L392.9253012048193,1.8691774027358172L394.7277108433735,1.6334297014492927L396.5301204819277,1.770690889437686L398.3325301204819,2.0060816828141377L400.1349397590362,1.01408839835242L401.9373493975903,0.859113675284986L403.73975903614456,1.0695179058840265L405.5421686746988,0.9093072291618015L407.344578313253,0L409.14698795180726,0.5725387274659433L410.94939759036146,0.459273442554628L412.75180722891565,0.6645975729003306L414.5542168674699,0.5426362726344836L416.3566265060241,0.4321956180514558L418.15903614457835,0.33218735183767445L419.96144578313255,0.24162601508301518L421.76385542168674,0.15961923679055579L423.56626506024094,0.5471942527909218L425.36867469879513,0.7442132527218953L427.1710843373494,1.0765666491540498L428.9734939759036,0.9156901376879978L430.77590361445783,0.7700102605889431L432.578313253012,0.638091521189248L434.3807228915662,0.5186340219700591L436.1831325301205,1.135842256287019L437.98554216867467,1.431201794999326L439.7879518072289,1.236825920605551L441.5903614457831,1.0608110801867547L443.39277108433737,1.2093130712629003L445.19518072289156,1.035897135483041L446.99759036144576,0.8788623267259732L448.8,1.0445514674632146L448.8,11.155239389179375L446.99759036144576,11.376345856525695L445.19518072289156,11.354223254669568L443.39277108433737,11.086074405588912L441.5903614457831,11.506827232467769L439.7879518072289,12.074901661610316L437.98554216867467,12.39194293871135L436.1831325301205,12.34261568730154L434.3807228915662,12.68086541189673L432.578313253012,13.06111795561902L430.77590361445783,13.281316256590113L428.9734939759036,13.72420498674981L427.1710843373494,14.627016415954433L425.36867469879513,14.308922506973389L423.56626506024094,14.85900625110353L421.76385542168674,15.776764108703391L419.96144578313255,16.790258116537768L418.15903614457835,17.599183031820537L416.3566265060241,18.492491160583103L414.5542168674699,19.27926457372962L412.75180722891565,20.34783084665633L410.94939759036146,20.093021546594656L409.14698795180726,20.85242994506329L407.344578313253,22.072989101981022L405.5421686746988,23.543555075910582L403.73975903614456,20.16541499007841L401.9373493975903,14.098311290850832L400.1349397590362,14.700139469993044L398.3325301204819,15.571608835480824L396.5301204819277,16.253410033379723L394.7277108433735,17.316625485399534L392.9253012048193,18.594181196055537L391.122891566265,19.077249854396918L389.32048192771083,20.19845730839768L387.51807228915663,21.673201395949775L385.7156626506024,15.012380669053895L383.9132530120482,15.63584583512392L382.11084337349394,16.738070578564233L380.30843373493974,17.34183115158933L378.50602409638554,17.868285305376858L376.7036144578313,19.410248877731277L374.9012048192771,19.344702774569303L373.09879518072285,20.220374865307036L371.29638554216865,20.52839607950632L369.49397590361446,18.51910601849811L367.69156626506026,19.715237477971293L365.88915662650606,21.139574364492947L364.0867469879518,16.48705731646249L362.2843373493976,15.523062890244503L360.48192771084337,14.712015718697124L358.6795180722891,14.794135866244375L356.877108433735,15.261687845674746L355.0746987951807,16.02173115497875L353.2722891566265,15.942719188645617L351.4698795180723,16.663232862175857L349.667469879518,17.53262150711852L347.8650602409638,18.41898625685478L346.06265060240963,19.264665452789345L344.26024096385544,20.131988433099735L342.4578313253012,21.289506824435836L340.655421686747,21.858039289247532L338.85301204819274,21.446928610163184L337.05060240963854,22.031882570540628L335.24819277108435,23.254441994105676L333.4457831325301,21.043844418362177L331.6433734939759,22.2964833111161L329.84096385542165,23.480071171177173L328.0385542168674,24.51369052216104L326.23614457831326,22.16341341318496L324.433734939759,21.467781605423387L322.63132530120487,21.84365709507394L320.8289156626506,22.155683901844615L319.0265060240964,23.391157709257893L317.22409638554217,24.080889412020344L315.421686746988,25.650338472705023L313.6192771084338,27.38350503035712L311.8168674698795,24.39197998188457L310.01445783132533,24.36316181095941L308.2120481927711,25.48890102245311L306.4096385542168,27.205227213948575L304.60722891566263,28.07654764080649L302.80481927710844,29.663364101389494L301.00240963855424,31.181356749259468L299.2,31.716582212460878L297.39759036144574,30.49919787914451L295.59518072289154,20.96931601229571L293.79277108433735,20.149121563579186L291.99036144578315,20.7984148862691L290.1879518072289,20.11739403252519L288.3855421686747,20.332475308270592L286.58313253012045,21.311187272139115L284.7807228915662,21.571689387224605L282.97831325301206,22.539382455691424L281.1759036144578,23.74830859681016L279.3734939759036,18.605707769598407L277.57108433734936,19.093999520665502L275.7686746987951,20.556962804778202L273.9662650602409,20.327813558471142L272.1638554216868,21.78633562459755L270.3614457831326,22.40669510456929L268.55903614457833,17.421738354978096L266.75662650602413,17.08488448175671L264.9542168674699,17.99825820461819L263.15180722891563,18.41916319528804L261.3493975903615,19.338575713162506L259.54698795180724,20.213609150714067L257.74457831325304,19.885306646377412L255.9421686746988,19.99706769245521L254.13975903614457,21.214227108551796L252.33734939759037,22.7949328135041L250.53493975903612,21.070341434002252L248.73253012048193,21.301699846696017L246.9301204819277,20.93953190798123L245.12771084337345,21.781849679968747L243.32530120481928,21.957147288373392L241.52289156626503,22.90561826645313L239.72048192771084,22.784478100447014L237.9180722891566,24.218694298431434L236.11566265060242,25.329365576760352L234.31325301204816,26.519040036006068L232.51084337349397,26.227964810437353L230.70843373493975,25.04881393741774L228.9060240963855,26.319795359089348L227.10361445783133,28.233374476888216L225.30120481927707,27.78106219142982L223.49879518072288,29.226489263513386L221.69638554216868,29.97157730821797L219.89397590361446,30.21450552030493L218.0915662650602,32.630658985477346L216.289156626506,25.71526855690847L214.4867469879518,27.302269678887495L212.68433734939757,28.08705676422072L210.88192771084337,29.054393389696394L209.07951807228918,31.00952560338602L207.27710843373492,31.73375411031294L205.47469879518073,33.70209473162009L203.6722891566265,35.66890425029294L201.86987951807228,37.545825704538366L200.0674698795181,38.76648754073547L198.26506024096383,41.52118785961023L196.4626506024096,43.555325793912935L194.66024096385541,47.15632804615671L192.8578313253012,47.47832273412783L191.05542168674697,50.12741705253992L189.25301204819277,53.05935833719684L187.45060240963852,55.18921051900175L185.64819277108433,56.42042022524712L183.84578313253013,57.86352625117827L182.0433734939759,59.88384958324475L180.24096385542168,61.8214245741648L178.4385542168675,64.32507657108208L176.63614457831324,61.15795655296747L174.833734939759,63.32217840390992L173.03132530120482,63.76631805338367L171.2289156626506,62.2961726891135L169.42650602409637,65.0562499311693L167.62409638554217,67.62722254230383L165.82168674698792,70.93025973402591L164.0192771084337,73.4025806181809L162.2168674698795,76.44643653987484L160.4144578313253,79.29324568215338L158.61204819277108,81.37254799525029L156.8096385542169,82.4634162411176L155.00722891566264,84.60217205260254L153.2048192771084,86.6895895765531L151.40240963855422,89.78992553909471L149.6,94.17575900875502L147.79759036144577,96.53224396489071L145.99518072289158,98.31962830488646L144.19277108433732,99.4573728974727L142.3903614457831,99.37275191539702L140.5879518072289,101.30234339965256L138.78554216867468,104.06562957057997L136.98313253012046,106.76159308580452L135.18072289156626,107.90150006990893L133.37831325301204,109.44852822774155L131.57590361445781,109.67049145721299L129.77349397590362,110.93950524506052L127.9710843373494,112.341095821605L126.16867469879519,114.00637436769532L124.36626506024095,115.43224576413631L122.56385542168672,116.82890661758482L120.76144578313252,119.02202304529641L118.9590361445783,119.70103675576641L117.15662650602411,119.91064022168736L115.35421686746987,123.31568979128286L113.55180722891566,124.6763921931815L111.74939759036144,126.01143038857717L109.94698795180723,128.86830848467056L108.14457831325302,129.35287420246632L106.34216867469878,131.65700384115678L104.53975903614459,133.44603110442725L102.73734939759036,134.136222565965L100.93493975903614,136.23618566100515L99.13253012048193,137.87099865672184L97.33012048192772,139.65146106393152L95.52771084337348,141.60374645570437L93.72530120481927,143.8140390644911L91.92289156626506,147.6722281068763L90.12048192771084,149.85729202077323L88.31807228915663,153.08698883513057L86.51566265060242,155.50346142302985L84.71325301204818,159.80876739286788L82.91084337349398,160.50306842817574L81.10843373493978,162.6811101776469L79.30602409638554,166.11374128961796L77.50361445783133,167.53250412988882L75.70120481927712,169.22627781955697L73.89879518072289,171.1539883151403L72.09638554216868,174.12619712691847L70.29397590361447,175.9162833382399L68.49156626506023,178.0180817561175L66.68915662650603,179.97540809567522L64.88674698795182,182.5621039757159L63.08433734939759,181.9308356448811L61.28192771084338,185.1241987217768L59.47951807228916,185.4772780693299L57.67710843373494,185.89680054944728L55.87469879518073,188.28191163369618L54.07228915662651,190.30264960825008L52.269879518072294,191.69082197927654L50.46746987951808,193.2402556103859L48.66506024096386,194.53410522569092L46.86265060240964,195.08297807498957L45.06024096385543,195.27166909567694L43.25783132530121,195.48346915499923L41.45542168674699,195.72165038534126L39.65301204819277,195.99005883199362L37.85060240963856,196.29324352838637L36.04819277108434,196.6366223265494L34.245783132530114,197.02669735231927L32.44337349397591,196.48431414250413L30.64096385542169,196.86944081580532L28.83855421686747,196.28475050580695L27.03614457831325,195.95997833816116L25.233734939759035,196.30337055951227L23.43132530120482,195.96177359279523L21.628915662650602,195.00291349697906L19.826506024096386,196.4208747199653L18.024096385542165,198.74704872311185L16.221686746987952,197.5954286853804L14.419277108433738,198.33448763757497L12.61686746987952,199.20266522616495L10.814457831325303,200.40921459345836L9.012048192771084,200.6083974293687L7.209638554216867,200.0710069489307L5.4072289156626505,200.23608501796028L3.6048192771084335,203.00134270222486L1.8024096385542168,205L0,198.7617050762887Z" class="rv-xy-plot__series rv-xy-plot__series--line" transform="translate(31.2,5)" style="opacity: 1; stroke: rgba(218, 76, 76, 0); fill: rgba(218, 76, 76, 0.1);"/><path d="M0,196.97820590735617L1.8024096385542168,200.17589681287043L3.6048192771084335,196.72374465740808L5.4072289156626505,193.73948512495596L7.209638554216867,193.02155824231457L9.012048192771084,193.141867970258L10.814457831325303,193.05716582138646L12.61686746987952,193.11820732158904L14.419277108433738,192.66926884043008L16.221686746987952,191.49554576519012L18.024096385542165,192.7212487733041L19.826506024096386,190.6472836750427L21.628915662650602,189.30110644796517L23.43132530120482,188.33053526757965L25.233734939759035,188.03921469805903L27.03614457831325,186.80450471559553L28.83855421686747,185.7774490933399L30.64096385542169,185.22781654411992L32.44337349397591,183.42469339218562L34.245783132530114,182.59295566339688L36.04819277108434,181.15787527432917L37.85060240963856,180.65300188798855L39.65301204819277,179.3475035856494L41.45542168674699,176.82349514420406L43.25783132530121,176.05737486413415L45.06024096385543,174.5663459802305L46.86265060240964,173.68252818900544L48.66506024096386,173.5133691698572L50.46746987951808,172.2024169868943L52.269879518072294,171.15946232177893L54.07228915662651,169.63934291880312L55.87469879518073,167.96258101168598L57.67710843373494,166.25977281185675L59.47951807228916,164.12602252146795L61.28192771084338,164.1500319522702L63.08433734939759,161.05461897299145L64.88674698795182,161.42008452734757L66.68915662650603,158.75969272717043L68.49156626506023,156.2873822669765L70.29397590361447,153.5179140027473L72.09638554216868,152.65255743103288L73.89879518072289,150.80257119292702L75.70120481927712,148.92376559349816L77.50361445783133,146.53709045585373L79.30602409638554,144.54654459322637L81.10843373493978,141.97526702954562L82.91084337349398,139.92638066304409L84.71325301204818,138.64300579353844L86.51566265060242,135.5076374296529L88.31807228915663,134.01346243781524L90.12048192771084,130.4962850657939L91.92289156626506,129.3617743976653L93.72530120481927,126.82533248025535L95.52771084337348,124.72214649046143L97.33012048192772,121.89254784914645L99.13253012048193,120.03140016938494L100.93493975903614,118.1369113255689L102.73734939759036,115.68338122363444L104.53975903614459,113.59252372467115L106.34216867469878,111.3492546529586L108.14457831325302,109.94061909501862L109.94698795180723,108.261152020866L111.74939759036144,106.03087953853094L113.55180722891566,104.88183704640217L115.35421686746987,103.56318956039574L117.15662650602411,100.75427724264034L118.9590361445783,99.56153242045994L120.76144578313252,97.86371499148316L122.56385542168672,96.39495107264601L124.36626506024095,95.4002160235681L126.16867469879519,93.64005394485368L127.9710843373494,91.96706126552144L129.77349397590362,91.06969784969085L131.57590361445781,90.16376717160945L133.37831325301204,88.14024910093543L135.18072289156626,86.93302565831824L136.98313253012046,86.05680329883855L138.78554216867468,83.85960141775142L140.5879518072289,82.46505826116467L142.3903614457831,80.10029200033898L144.19277108433732,79.00712699731599L145.99518072289158,77.78775017758126L147.79759036144577,75.69386475750835L149.6,73.81449803464548L151.40240963855422,70.98055813259333L153.2048192771084,68.98970178848845L155.00722891566264,66.80490541642843L156.8096385542169,64.41612592099614L158.61204819277108,63.13955853515742L160.4144578313253,60.535594861018055L162.2168674698795,59.29489868904968L164.0192771084337,57.172184358760234L165.82168674698792,55.17366161024557L167.62409638554217,52.444637486483245L169.42650602409637,49.91901689204171L171.2289156626506,48.03689681150009L173.03132530120482,48.03459552322398L174.833734939759,48.030774256524424L176.63614457831324,45.83444207275033L178.4385542168675,46.08509244049439L180.24096385542168,44.601768200745326L182.0433734939759,43.64206409912348L183.84578313253013,41.915227990532976L185.64819277108433,40.09724341896372L187.45060240963852,38.7381385505581L189.25301204819277,36.80336474231803L191.05542168674697,34.30292045424678L192.8578313253012,32.7235208029226L194.66024096385541,32.302662147920664L196.4626506024096,29.76716885146084L198.26506024096383,28.237671933310338L200.0674698795181,26.341128302591134L201.86987951807228,25.202293453840838L203.6722891566265,23.642986169689568L205.47469879518073,22.57952436526616L207.27710843373492,21.17675527572898L209.07951807228918,20.726774413947414L210.88192771084337,19.478927581462905L212.68433734939757,18.68042563714885L214.4867469879518,18.081404074612912L216.289156626506,17.18839883934531L218.0915662650602,20.200224459192086L219.89397590361446,18.591597892938566L221.69638554216868,17.93720171070191L223.49879518072288,17.244370287670726L225.30120481927707,16.131347594990753L227.10361445783133,16.57245700297845L228.9060240963855,15.583190016462211L230.70843373493975,14.758781615284507L232.51084337349397,15.149471820278203L234.31325301204816,15.357138205505809L236.11566265060242,14.576334078706783L237.9180722891566,14.075765479335711L239.72048192771084,13.26205667613702L241.52289156626503,13.319842084630883L243.32530120481928,12.885430083001319L245.12771084337345,12.668598012436842L246.9301204819277,12.262328019736838L248.73253012048193,12.37203819404338L250.53493975903612,12.392890374262848L252.33734939759037,12.765517395937774L254.13975903614457,11.981916721556582L255.9421686746988,11.292431374303998L257.74457831325304,11.726637114472695L259.54698795180724,11.925528882289052L261.3493975903615,11.62282622203187L263.15180722891563,11.398404095613653L264.9542168674699,11.296997200084338L266.75662650602413,10.774840714460174L268.55903614457833,11.098068764193249L270.3614457831326,13.217574557221164L272.1638554216868,12.853108228118398L273.9662650602409,11.978698900290066L275.7686746987951,11.734740134761813L277.57108433734936,10.965973463245517L279.3734939759036,10.753911948453087L281.1759036144578,12.776193662805044L282.97831325301206,12.239190733136502L284.7807228915662,11.917984363235425L286.58313253012045,11.555709821373478L288.3855421686747,11.227656102230053L290.1879518072289,11.04056229878027L291.99036144578315,11.243449734980004L293.79277108433735,10.944892757162531L295.59518072289154,10.896317021627976L297.39759036144574,16.116544533396798L299.2,16.131398491070996L301.00240963855424,16.000528835353016L302.80481927710844,15.409042764529495L304.60722891566263,14.837567167331885L306.4096385542168,14.782948380370296L308.2120481927711,14.016194523098887L310.01445783132533,13.463470898933815L311.8168674698795,13.541093911917779L313.6192771084338,14.504372429318568L315.421686746988,13.763933398958171L317.22409638554217,13.038138703273322L319.0265060240964,12.63983402628141L320.8289156626506,12.013081891553165L322.63132530120487,12.007556764322779L324.433734939759,11.606926810824689L326.23614457831326,11.660884844999334L328.0385542168674,12.825126125751156L329.84096385542165,12.18087102846194L331.6433734939759,11.452497683796L333.4457831325301,10.795083033625497L335.24819277108435,11.711691613379505L337.05060240963854,11.275243268386513L338.85301204819274,10.973683049562597L340.655421686747,11.298223169686379L342.4578313253012,11.05477706980111L344.26024096385544,10.60000207147659L346.06265060240963,10.51617106822011L347.8650602409638,9.987393114975925L349.667469879518,9.593255021140184L351.4698795180723,9.026776493051742L353.2722891566265,8.629719225831305L355.0746987951807,8.750470718919676L356.877108433735,8.346138092397267L358.6795180722891,8.086003660058179L360.48192771084337,8.085703756602078L362.2843373493976,8.59281928572884L364.0867469879518,8.91630134903246L365.88915662650606,10.690786905042756L367.69156626506026,10.0428842941959L369.49397590361446,9.518623825405871L371.29638554216865,10.197421789768295L373.09879518072285,9.99216661605763L374.9012048192771,9.564201997770834L376.7036144578313,10.005572723893673L378.50602409638554,9.235075568445389L380.30843373493974,9.157452655724736L382.11084337349394,8.808336358861766L383.9132530120482,8.27581252663069L385.7156626506024,8.009977089510555L387.51807228915663,10.291472581104484L389.32048192771083,9.681289795429878L391.122891566265,9.231375970128978L392.9253012048193,9.521990709372693L394.7277108433735,8.85961372839088L396.5301204819277,8.444971114717578L398.3325301204819,8.256817153476812L400.1349397590362,7.568809400672489L401.9373493975903,7.318443613125549L403.73975903614456,9.324819688826183L405.5421686746988,10.344880365754749L407.344578313253,9.32462028726678L409.14698795180726,9.207318461933161L410.94939759036146,9.005808399092542L412.75180722891565,9.217873887443847L414.5542168674699,8.89642572501171L416.3566265060241,8.632251254000431L418.15903614457835,8.303681577594945L419.96144578313255,8.006149081143802L421.76385542168674,7.518180902509444L423.56626506024094,7.32391247471675L425.36867469879513,7.159120194935658L427.1710843373494,7.458162045097581L428.9734939759036,7.053177685454319L430.77590361445783,6.8737696451528665L432.578313253012,6.6467129922509915L434.3807228915662,6.380819614392953L436.1831325301205,6.508745249851377L437.98554216867467,6.624059729126932L439.7879518072289,6.462936399679329L441.5903614457831,6.214402831885587L443.39277108433737,6.154416481912974L445.19518072289156,6.088971445329338L446.99759036144576,6.0587731288635736L448.8,6.013487791933782" class="rv-xy-plot__series rv-xy-plot__series--line" transform="translate(31.2,5)" style="opacity: 1; stroke-width: 1.5; stroke: rgb(218, 76, 76);"/><path d="M0,198.76170882849993L1.8024096385542168,195.95384049090316L3.6048192771084335,192.90104282743866L5.4072289156626505,193.04814575702994L7.209638554216867,191.23533774574187L9.012048192771084,189.20821037949756L10.814457831325303,190.0011191773561L12.61686746987952,189.93774080121656L14.419277108433738,187.97610047218495L16.221686746987952,185.9585042895622L18.024096385542165,184.79019600934402L19.826506024096386,183.64301028306443L21.628915662650602,183.8905644354273L23.43132530120482,182.50548175352557L25.233734939759035,181.27653905401655L27.03614457831325,180.7422626351941L28.83855421686747,178.37710172013868L30.64096385542169,178.58568805951998L32.44337349397591,176.42017723150948L34.245783132530114,175.69565018979324L36.04819277108434,175.06003653831277L37.85060240963856,173.43095275916508L39.65301204819277,170.22932819550016L41.45542168674699,167.90056286035536L43.25783132530121,166.11627512217774L45.06024096385543,163.76884022692732L46.86265060240964,162.32069861486278L48.66506024096386,160.22321996278788L50.46746987951808,158.87706184849628L52.269879518072294,157.31157986315625L54.07228915662651,153.5287514677772L55.87469879518073,152.63578615495422L57.67710843373494,151.38145616781247L59.47951807228916,148.78177822914398L61.28192771084338,146.1183398009791L63.08433734939759,142.6367505397101L64.88674698795182,141.60122924539704L66.68915662650603,140.17575294840017L68.49156626506023,136.9328530512134L70.29397590361447,135.30494034487074L72.09638554216868,133.66119983966607L73.89879518072289,131.134019160985L75.70120481927712,127.23397900335328L77.50361445783133,124.79850604707283L79.30602409638554,121.60374040607452L81.10843373493978,118.30097962010335L82.91084337349398,117.50956687856211L84.71325301204818,115.0361785238401L86.51566265060242,112.4222626536572L88.31807228915663,110.86912396033082L90.12048192771084,110.36429505507886L91.92289156626506,107.55293293297987L93.72530120481927,104.16551716821036L95.52771084337348,102.09446645264414L97.33012048192772,100.13470642891687L99.13253012048193,97.73456137388419L100.93493975903614,95.61556570956611L102.73734939759036,94.20908307184277L104.53975903614459,91.9672681299703L106.34216867469878,89.37495278729611L108.14457831325302,89.61784882444387L109.94698795180723,87.0354404554271L111.74939759036144,84.11134166921114L113.55180722891566,81.22916820391421L115.35421686746987,77.91248868476804L117.15662650602411,77.7083248106457L118.9590361445783,75.00695236387898L120.76144578313252,72.98745440053884L122.56385542168672,73.33412061971684L124.36626506024095,69.82605017450807L126.16867469879519,67.68995497496601L127.9710843373494,65.28807254977824L129.77349397590362,62.46551530576985L131.57590361445781,59.81518395658329L133.37831325301204,56.85675264763216L135.18072289156626,57.72553148757578L136.98313253012046,55.425112857741176L138.78554216867468,54.11270320128528L140.5879518072289,50.77701281029071L142.3903614457831,49.414459362662605L144.19277108433732,47.54857304650521L145.99518072289158,46.30378427668483L147.79759036144577,44.1609907988737L149.6,42.20162200138301L151.40240963855422,39.902203199842404L153.2048192771084,36.79856985020016L155.00722891566264,35.0994112232878L156.8096385542169,33.25287154810122L158.61204819277108,31.888748310076593L160.4144578313253,30.037655094341133L162.2168674698795,29.168639066693494L164.0192771084337,27.88248665182045L165.82168674698792,26.56389028699567L167.62409638554217,25.028579578840564L169.42650602409637,23.517740568677215L171.2289156626506,23.81186015695354L173.03132530120482,23.531027544291263L174.833734939759,22.161689151796452L176.63614457831324,20.92171489087553L178.4385542168675,20.106788909368703L180.24096385542168,19.522800654624447L182.0433734939759,18.532127045783977L183.84578313253013,17.635041111765744L185.64819277108433,16.82270183933926L187.45060240963852,15.806112784349663L189.25301204819277,15.474445541140698L191.05542168674697,15.789905901134526L192.8578313253012,16.136348413058442L194.66024096385541,15.465590495007898L196.4626506024096,14.8581961461544L198.26506024096383,14.027194961032171L200.0674698795181,13.555677961276384L201.86987951807228,13.590543795722269L203.6722891566265,13.280846426290214L205.47469879518073,12.879832500620402L207.27710843373492,12.516700100136088L209.07951807228918,12.0877438719381L210.88192771084337,11.799434611214702L212.68433734939757,11.538359544026868L214.4867469879518,11.301946720050598L216.289156626506,11.087866266932327L218.0915662650602,10.332043146919737L219.89397590361446,10.20958192076855L221.69638554216868,10.031937321826844L223.49879518072288,10.399663567836484L225.30120481927707,10.270814950337433L227.10361445783133,10.154137473743631L228.9060240963855,10.510318492933187L230.70843373493975,9.996374694562302L232.51084337349397,9.905621595551704L234.31325301204816,10.25190258727114L236.11566265060242,10.137011403450654L237.9180722891566,10.340864542447463L239.72048192771084,10.217569908392997L241.52289156626503,10.105922260453344L243.32530120481928,10.18567650551812L245.12771084337345,9.82297056881742L246.9301204819277,9.467615964221961L248.73253012048193,8.864847657830092L250.53493975903612,8.599999986844612L252.33734939759037,8.641150247735007L254.13975903614457,8.67841338760858L255.9421686746988,8.645406026594975L257.74457831325304,8.682267153924762L259.54698795180724,8.76946585445124L261.3493975903615,8.513627673430072L263.15180722891563,8.375616152619973L264.9542168674699,7.876000178900412L266.75662650602413,7.610899321734054L268.55903614457833,9.304515691551742L270.3614457831326,9.587007322241481L272.1638554216868,9.996759328028908L273.9662650602409,9.531328391635144L275.7686746987951,9.20352306642062L277.57108433734936,9.00034373170883L279.3734939759036,8.441715165922695L281.1759036144578,8.310497357676399L282.97831325301206,8.098013589036439L284.7807228915662,8.158655920847341L286.58313253012045,8.241496705808727L288.3855421686747,8.129191485983265L290.1879518072289,7.6528533120964966L291.99036144578315,8.339465701221396L293.79277108433735,8.12424608603111L295.59518072289154,7.835695984184067L297.39759036144574,8.410879386692168L299.2,8.282574031890316L301.00240963855424,8.253583006612438L302.80481927710844,8.26070613229006L304.60722891566263,8.514761605569955L306.4096385542168,8.376643029798752L308.2120481927711,7.8769302457278325L310.01445783132533,8.106953099065656L311.8168674698795,8.094551489383647L313.6192771084338,8.304017514576984L315.421686746988,8.092145869037628L317.22409638554217,7.9939482074162L319.0265060240964,7.811366171070425L320.8289156626506,7.739691377939408L322.63132530120487,7.581126820701227L324.433734939759,7.343880944891883L326.23614457831326,7.222705230443922L328.0385542168674,7.206636225801212L329.84096385542165,7.379405665857605L331.6433734939759,7.3485345050795345L333.4457831325301,7.6887555888682355L335.24819277108435,7.815983316448358L337.05060240963854,7.931193455256156L338.85301204819274,7.754539328696837L340.655421686747,7.50091194289512L342.4578313253012,7.083922035692949L344.26024096385544,6.589408344359554L346.06265060240963,5.705512470905355L347.8650602409638,5.832760104363477L349.667469879518,5.854327112143744L351.4698795180723,5.967517493273916L353.2722891566265,5.976355117766589L355.0746987951807,6.19858857449012L356.877108433735,5.878679481940461L358.6795180722891,5.802248961042352L360.48192771084337,5.826698628393229L362.2843373493976,5.386506683912755L364.0867469879518,5.631082486527004L365.88915662650606,5.57804034588896L367.69156626506026,5.623669092256563L369.49397590361446,5.384006336791262L371.29638554216865,4.332993720827121L373.09879518072285,4.589891160520832L374.9012048192771,4.728861415922932L376.7036144578313,4.573723523594596L378.50602409638554,4.433240187164249L380.30843373493974,4.124675335305593L382.11084337349394,4.307591100598349L383.9132530120482,4.500137591105563L385.7156626506024,3.994451843546209L387.51807228915663,4.216577933651553L389.32048192771083,4.109831100498068L391.122891566265,4.387809167241285L392.9253012048193,3.7118790963983472L394.7277108433735,3.6528075743951582L396.5301204819277,3.880296669613839L398.3325301204819,3.992636004912139L400.1349397590362,3.907043059193325L401.9373493975903,4.204177140092452L403.73975903614456,4.379582515005516L405.5421686746988,4.257438026867442L407.344578313253,4.146831488612353L409.14698795180726,4.046673008346049L410.94939759036146,3.955975646982563L412.75180722891565,4.248486774007052L414.5542168674699,4.419707126690994L416.3566265060241,4.668413488939995L418.15903614457835,4.799968003353465L419.96144578313255,5.012754712486382L421.76385542168674,3.996810546230898L423.56626506024094,4.285464347967758L425.36867469879513,4.73417308632172L427.1710843373494,4.397181665773361L428.9734939759036,4.554355546322465L430.77590361445783,4.603022987200421L432.578313253012,4.740753322265958L434.3807228915662,4.771812997765975L436.1831325301205,5.174579456523067L437.98554216867467,5.164658207314906L439.7879518072289,5.530316455392537L441.5903614457831,5.299471929057022L443.39277108433737,5.552269163533495L445.19518072289156,5.693992032562123L446.99759036144576,5.4476864679559736L448.8,5.511588711867383L448.8,12.338024754056386L446.99759036144576,12.682514567977437L445.19518072289156,12.863219344959468L443.39277108433737,13.262494969576887L441.5903614457831,13.5036999662638L439.7879518072289,13.969787493900784L437.98554216867467,13.974481910446132L436.1831325301205,14.69653971935583L434.3807228915662,15.087337468049382L432.578313253012,15.718622946042132L430.77590361445783,16.216040160161516L428.9734939759036,15.397016401343265L427.1710843373494,16.060604943783034L425.36867469879513,16.660268974060827L423.56626506024094,11.209915445938066L421.76385542168674,10.822734842088671L419.96144578313255,11.319447995178002L418.15903614457835,11.764545248936647L416.3566265060241,12.043154305708995L414.5542168674699,12.43059824796233L412.75180722891565,12.174049576871258L410.94939759036146,12.368287353451676L409.14698795180726,11.695908494926524L407.344578313253,11.840268468454019L405.5421686746988,12.443126494286263L403.73975903614456,12.665433099686771L401.9373493975903,12.534062860342516L400.1349397590362,11.877880569468882L398.3325301204819,12.17437071427969L396.5301204819277,12.368641207598746L394.7277108433735,12.716323415017687L392.9253012048193,12.292506978511836L391.122891566265,12.742819409399443L389.32048192771083,12.996388168039708L387.51807228915663,13.409555137648024L385.7156626506024,13.525813676169973L383.9132530120482,14.304499203086324L382.11084337349394,14.854122312270848L380.30843373493974,15.461079303776732L378.50602409638554,16.54507323107506L376.7036144578313,17.12870182267137L374.9012048192771,17.839785049451834L373.09879518072285,18.558471255118164L371.29638554216865,18.950941317333815L369.49397590361446,19.785538666261317L367.69156626506026,20.30601058571734L365.88915662650606,20.270030450069434L364.0867469879518,21.648810831709746L362.2843373493976,21.752905254119284L360.48192771084337,21.51146062940841L358.6795180722891,21.601227329661622L356.877108433735,22.104242354641375L355.0746987951807,23.578068523828556L353.2722891566265,24.755058191405524L351.4698795180723,22.40223977369076L349.667469879518,17.79924087589171L347.8650602409638,16.250861673543536L346.06265060240963,17.003519311782636L344.26024096385544,17.634970828667367L342.4578313253012,18.398866034019562L340.655421686747,19.375593309922806L338.85301204819274,20.114201072665114L337.05060240963854,21.269864560323164L335.24819277108435,22.346361000301744L333.4457831325301,22.119336261173732L331.6433734939759,23.084724590892698L329.84096385542165,23.123103990768943L328.0385542168674,23.380989691632724L326.23614457831326,24.06426547320721L324.433734939759,24.922247619892072L322.63132530120487,24.983522080686L320.8289156626506,21.417200357169705L319.0265060240964,22.368778123588996L317.22409638554217,22.037963743545404L315.421686746988,22.039667861894184L313.6192771084338,23.396186949591602L311.8168674698795,23.733350876288682L310.01445783132533,23.52525485970955L308.2120481927711,24.43583628351006L306.4096385542168,24.8306600093158L304.60722891566263,25.459654645064507L302.80481927710844,26.65686088877051L301.00240963855424,28.021868735489967L299.2,28.982398535908292L297.39759036144574,29.368504569213645L295.59518072289154,30.46950906206538L293.79277108433735,28.003927923293432L291.99036144578315,28.460666688077794L290.1879518072289,27.29032291842699L288.3855421686747,27.783192228711215L286.58313253012045,29.605701631794105L284.7807228915662,30.830486536655137L282.97831325301206,32.764014376844315L281.1759036144578,33.20728987670858L279.3734939759036,34.90791051317658L277.57108433734936,35.574827748118906L275.7686746987951,37.52241884275295L273.9662650602409,37.83165855032637L272.1638554216868,39.11047282907519L270.3614457831326,33.862420972401004L268.55903614457833,31.33442068361291L266.75662650602413,24.0439288747427L264.9542168674699,25.136368416230823L263.15180722891563,26.305908761646553L261.3493975903615,26.946601785966916L259.54698795180724,27.603337023546025L257.74457831325304,26.147519188053536L255.9421686746988,24.959979046828302L254.13975903614457,26.28112407112921L252.33734939759037,27.469395848681724L250.53493975903612,28.98518991031694L248.73253012048193,28.403866269007008L246.9301204819277,29.61650171790765L245.12771084337345,31.763402845480588L243.32530120481928,32.77962008024312L241.52289156626503,32.594113724097284L239.72048192771084,34.03699605220698L237.9180722891566,36.13501104342835L236.11566265060242,37.1870386889246L234.31325301204816,31.778067309640377L232.51084337349397,32.79581502388339L230.70843373493975,25.65169468106999L228.9060240963855,26.370376130706497L227.10361445783133,27.257670027106826L225.30120481927707,28.81850369241071L223.49879518072288,29.650883099769377L221.69638554216868,30.27942722969791L219.89397590361446,29.12409591582285L218.0915662650602,30.709624733220142L216.289156626506,31.615920570975604L214.4867469879518,32.951373182047604L212.68433734939757,35.106157609875616L210.88192771084337,35.983743369428616L209.07951807228918,36.746013881955626L207.27710843373492,39.12664133960919L205.47469879518073,41.5856038055574L203.6722891566265,41.01618085250518L201.86987951807228,41.49564276411618L200.0674698795181,43.359800451013825L198.26506024096383,45.98637810356245L196.4626506024096,47.087701748512295L194.66024096385541,50.10317409451033L192.8578313253012,53.15593314844746L191.05542168674697,52.70765252910319L189.25301204819277,53.417916922636934L187.45060240963852,54.79046597585288L185.64819277108433,59.363824124197606L183.84578313253013,62.358235470081866L182.0433734939759,64.43809833830475L180.24096385542168,66.93412207042647L178.4385542168675,67.91680106539266L176.63614457831324,70.31565502558098L174.833734939759,72.41513596699984L173.03132530120482,73.32046277428375L171.2289156626506,76.13300003951991L169.42650602409637,79.46272215438145L167.62409638554217,82.20620829604245L165.82168674698792,82.5371009460977L164.0192771084337,82.86409008327158L162.2168674698795,82.834289909419L160.4144578313253,84.21584953189556L158.61204819277108,84.03826890888732L156.8096385542169,85.95661146035009L155.00722891566264,87.05263394640579L153.2048192771084,87.12928690770771L151.40240963855422,89.0829995088532L149.6,93.87058320702164L147.79759036144577,95.0245741923186L145.99518072289158,96.44332333551698L144.19277108433732,97.61342841623984L142.3903614457831,98.8964333642537L140.5879518072289,100.80771147399635L138.78554216867468,100.91453005806414L136.98313253012046,103.99330755218104L135.18072289156626,105.36374652913146L133.37831325301204,106.14221768940885L131.57590361445781,104.68476994484203L129.77349397590362,107.79162665650615L127.9710843373494,109.54443387630359L126.16867469879519,112.58793653584333L124.36626506024095,113.85130147272511L122.56385542168672,115.49473741657846L120.76144578313252,115.72695722086084L118.9590361445783,117.19266989814659L117.15662650602411,119.33457935574901L115.35421686746987,119.62649777318589L113.55180722891566,119.46274049607551L111.74939759036144,119.46320927287589L109.94698795180723,122.38118472072095L108.14457831325302,123.69421701452195L106.34216867469878,123.49503706285853L104.53975903614459,122.43665421846046L102.73734939759036,124.77660647042619L100.93493975903614,126.60376807123336L99.13253012048193,127.99266418237934L97.33012048192772,129.03429962288305L95.52771084337348,129.95364986775445L93.72530120481927,132.2519751908029L91.92289156626506,133.42799876392922L90.12048192771084,135.3546924921287L88.31807228915663,136.97898066874146L86.51566265060242,139.78405043501152L84.71325301204818,141.73191074879284L82.91084337349398,143.6114721471517L81.10843373493978,145.59813918493685L79.30602409638554,147.97453301584497L77.50361445783133,150.09162119021198L75.70120481927712,153.58737844132608L73.89879518072289,155.0220182515568L72.09638554216868,157.07701960353288L70.29397590361447,159.1185003464816L68.49156626506023,161.7154821579976L66.68915662650603,164.04916193100524L64.88674698795182,166.9216736544034L63.08433734939759,168.46655207038137L61.28192771084338,169.8878241827427L59.47951807228916,173.92613297008495L57.67710843373494,174.37300821069115L55.87469879518073,175.5035911888849L54.07228915662651,176.0870371433295L52.269879518072294,178.0562849916457L50.46746987951808,178.968417778505L48.66506024096386,181.17283953230373L46.86265060240964,182.44612835811395L45.06024096385543,183.64917068546205L43.25783132530121,186.030400157264L41.45542168674699,188.6652082115072L39.65301204819277,190.856310915451L37.85060240963856,191.82335153369073L36.04819277108434,194.44679666467255L34.245783132530114,196.0938758087585L32.44337349397591,196.4237963514638L30.64096385542169,196.03169228677442L28.83855421686747,196.36714223886818L27.03614457831325,196.05317257985436L25.233734939759035,196.91808266981738L23.43132530120482,196.5520072300937L21.628915662650602,195.678106554747L19.826506024096386,196.88385619601132L18.024096385542165,196.16886013000308L16.221686746987952,195.6079260040237L14.419277108433738,195.9959323687751L12.61686746987952,195.31875179564008L10.814457831325303,194.0441297537283L9.012048192771084,194.19129590032995L7.209638554216867,194.39935473135492L5.4072289156626505,194.71400317106088L3.6048192771084335,195.0209485473385L1.8024096385542168,195.95384049090316L0,198.76170882849993Z" class="rv-xy-plot__series rv-xy-plot__series--line" transform="translate(31.2,5)" style="opacity: 1; stroke: rgba(83, 135, 221, 0); fill: rgba(83, 135, 221, 0.1);"/><path d="M0,198.76170882849993L1.8024096385542168,195.95384049090316L3.6048192771084335,193.6076780674053L5.4072289156626505,193.60343156170694L7.209638554216867,192.45835388677L9.012048192771084,191.12453743463246L10.814457831325303,191.55592503395002L12.61686746987952,192.11994149451618L14.419277108433738,191.72272643446834L16.221686746987952,191.03169699939966L18.024096385542165,190.3928172933632L19.826506024096386,190.3931535842984L21.628915662650602,189.85172120657356L23.43132530120482,189.8249697610499L25.233734939759035,189.10569038943524L27.03614457831325,188.34188404213063L28.83855421686747,187.51841794751883L30.64096385542169,187.24147491550028L32.44337349397591,186.30014227178208L34.245783132530114,185.35538179854456L36.04819277108434,184.07650604673503L37.85060240963856,182.12679356022662L39.65301204819277,180.22729201017958L41.45542168674699,177.81693760653002L43.25783132530121,175.67056267318932L45.06024096385543,173.0351433378394L46.86265060240964,171.8613229503636L48.66506024096386,170.17337327913768L50.46746987951808,168.63177365673158L52.269879518072294,167.0009630724462L54.07228915662651,164.44142081523216L55.87469879518073,163.8194630230553L57.67710843373494,162.4721629025349L59.47951807228916,161.2980051466252L61.28192771084338,158.04633524087728L63.08433734939759,155.10593493844013L64.88674698795182,153.84427120483042L66.68915662650603,151.78641789000727L68.49156626506023,149.38755679148025L70.29397590361447,147.38935198115112L72.09638554216868,145.242025539245L73.89879518072289,143.03198952629913L75.70120481927712,140.47140759195293L77.50361445783133,137.51270365759612L79.30602409638554,135.27541115909835L81.10843373493978,132.72179710397546L82.91084337349398,131.44550694624263L84.71325301204818,129.19401808860857L86.51566265060242,127.1686312604167L88.31807228915663,124.69907253721755L90.12048192771084,123.51263202037164L91.92289156626506,121.56750188033416L93.72530120481927,119.09099406842617L95.52771084337348,116.99020437002282L97.33012048192772,114.84767671086503L99.13253012048193,112.51268864250349L100.93493975903614,110.44643551604908L102.73734939759036,108.89910491203848L104.53975903614459,106.59930916082904L106.34216867469878,105.3107418205628L108.14457831325302,105.12204403571339L109.94698795180723,103.29548439863979L111.74939759036144,100.9639742434289L113.55180722891566,99.99394848209737L115.35421686746987,98.68159473825291L117.15662650602411,98.29114308242356L118.9590361445783,96.13893284679533L120.76144578313252,94.30246654144946L122.56385542168672,93.8553275943633L124.36626506024095,90.9780113600865L126.16867469879519,89.16140995973538L127.9710843373494,86.79259055568204L129.77349397590362,84.31099235370962L131.57590361445781,81.96563847660028L133.37831325301204,80.36149266973968L135.18072289156626,80.0794486843614L136.98313253012046,78.23728935461457L138.78554216867468,76.5690826157044L140.5879518072289,75.35010461276256L142.3903614457831,73.20531269846302L144.19277108433732,71.37002340178803L145.99518072289158,69.72791689255394L147.79759036144577,67.53670026972172L149.6,65.73081949480043L151.40240963855422,62.25384827578523L153.2048192771084,59.631347937602484L155.00722891566264,58.052405001964196L156.8096385542169,56.945388856840516L158.61204819277108,55.8248270496625L160.4144578313253,55.649393521600494L162.2168674698795,54.64678796499491L164.0192771084337,54.611550538857465L165.82168674698792,53.41918587615099L167.62409638554217,51.96236816305794L169.42650602409637,49.45069991288063L171.2289156626506,48.06850326703194L173.03132530120482,46.87985289388217L174.833734939759,45.581376572116184L176.63614457831324,43.4249460791712L178.4385542168675,41.656750641810696L180.24096385542168,40.409602461120606L182.0433734939759,38.803702923638696L183.84578313253013,38.07159989924524L185.64819277108433,36.482950224075815L187.45060240963852,33.856782007639595L189.25301204819277,32.90419208205759L191.05542168674697,33.23312472781842L192.8578313253012,33.398252622674214L194.66024096385541,31.468541702993257L196.4626506024096,29.822758009182824L198.26506024096383,28.596544963582602L200.0674698795181,27.218114560632458L201.86987951807228,26.573292858911564L203.6722891566265,26.004428498101486L205.47469879518073,26.0577067027081L207.27710843373492,24.655022552815495L209.07951807228918,23.300149383226838L210.88192771084337,23.106883571675915L212.68433734939757,22.611678150305377L214.4867469879518,21.47207729875255L216.289156626506,20.605197773152465L218.0915662650602,19.836517026921314L219.89397590361446,18.970190806809487L221.69638554216868,19.067335392144294L223.49879518072288,19.011060796306538L225.30120481927707,18.440422033872686L227.10361445783133,17.7350395509762L228.9060240963855,17.61729440036853L230.70843373493975,16.9880376472245L232.51084337349397,19.295352823096803L234.31325301204816,19.020736584844332L236.11566265060242,20.65689867102907L237.9180722891566,20.463209990823632L239.72048192771084,19.597972961684725L241.52289156626503,18.92443927477587L243.32530120481928,19.225895276053176L245.12771084337345,18.792769696188355L246.9301204819277,17.744059210072145L248.73253012048193,17.163279918800033L250.53493975903612,17.10549519932672L252.33734939759037,16.46609406219434L254.13975903614457,15.94853765028354L255.9421686746988,15.375913944633442L257.74457831325304,15.734545539749769L259.54698795180724,16.286593625815552L261.3493975903615,16.027674980614343L263.15180722891563,15.757787428185079L264.9542168674699,14.995766743612617L266.75662650602413,14.553333309211425L268.55903614457833,18.164498697092085L270.3614457831326,19.255856984739076L272.1638554216868,23.340597007598895L273.9662650602409,22.590408616956168L275.7686746987951,22.019969353915474L277.57108433734936,21.224230853245654L279.3734939759036,20.4988951205277L281.1759036144578,19.619329020360578L282.97831325301206,19.045595102683755L284.7807228915662,18.233550327669263L286.58313253012045,17.796643259267L288.3855421686747,16.987004871697547L290.1879518072289,16.628548997770455L291.99036144578315,17.306995108953622L293.79277108433735,16.951687747800623L295.59518072289154,18.136525763696277L297.39759036144574,17.89262287722666L299.2,17.442620624881332L301.00240963855424,16.983284051958726L302.80481927710844,16.393297041411703L304.60722891566263,15.974624859640972L306.4096385542168,15.6043880567981L308.2120481927711,15.222590786214655L310.01445783132533,14.940113162879996L311.8168674698795,14.934879495765948L313.6192771084338,14.911039702443945L315.421686746988,14.168719532598415L317.22409638554217,13.96785220654178L319.0265060240964,14.266246724825653L320.8289156626506,13.852535106250562L322.63132530120487,15.036442678136265L324.433734939759,15.051967088933925L326.23614457831326,14.604225284126974L328.0385542168674,14.363848088421744L329.84096385542165,14.286554443976112L331.6433734939759,14.407875729499622L333.4457831325301,14.141545777715445L335.24819277108435,14.24950736199439L337.05060240963854,13.817282087548612L338.85301204819274,13.178279725062428L340.655421686747,12.804898675357029L342.4578313253012,12.228152473845759L344.26024096385544,11.678040336127932L346.06265060240963,11.083687522196282L347.8650602409638,10.765345161819784L349.667469879518,11.405552434116297L351.4698795180723,12.969710282904488L353.2722891566265,14.573490698483782L355.0746987951807,14.170946371724094L356.877108433735,13.36285463249644L358.6795180722891,13.010599958689907L360.48192771084337,13.061136676436762L362.2843373493976,12.946610699999287L364.0867469879518,13.063476594938125L365.88915662650606,12.370799521848141L367.69156626506026,12.23416718795833L369.49397590361446,11.926089946056006L371.29638554216865,11.308305999445025L373.09879518072285,11.212567223834089L374.9012048192771,10.879895290995174L376.7036144578313,10.576492638033622L378.50602409638554,10.303905433221988L380.30843373493974,9.624130302032137L382.11084337349394,9.441504836185986L383.9132530120482,9.318475029020346L385.7156626506024,8.793064982075895L387.51807228915663,8.914297969611127L389.32048192771083,8.551118237675547L391.122891566265,8.574636206540298L392.9253012048193,8.025829832917543L394.7277108433735,8.115278864969836L396.5301204819277,8.108557007562988L398.3325301204819,8.151629677047541L400.1349397590362,7.954153173025674L401.9373493975903,8.279842777985559L403.73975903614456,8.471806083915428L405.5421686746988,8.31549510182341L407.344578313253,7.91521873138957L409.14698795180726,7.8739241161104685L410.94939759036146,8.104231102104354L412.75180722891565,8.14771216674827L414.5542168674699,8.228602147054874L416.3566265060241,8.15770510487793L418.15903614457835,8.148804332139111L419.96144578313255,8.045255102780851L421.76385542168674,7.486170021299711L423.56626506024094,7.6929852293667285L425.36867469879513,9.76534538150348L427.1710843373494,9.466584287097422L428.9734939759036,9.332215934000416L430.77590361445783,9.652629764679377L432.578313253012,9.560971935892173L434.3807228915662,9.36421702701877L436.1831325301205,9.393463364268868L437.98554216867467,9.10990125836887L439.7879518072289,9.317116454005086L441.5903614457831,9.040766427009007L443.39277108433737,9.067191306722034L445.19518072289156,8.939329940842008L446.99759036144576,8.634070485695041L448.8,8.517889253758314" class="rv-xy-plot__series rv-xy-plot__series--line" transform="translate(31.2,5)" style="opacity: 1; stroke-width: 1.5; stroke: rgb(83, 135, 221);"/><g class="rv-xy-plot__series rv-xy-plot__series--mark" transform="translate(31.2,5)"><circle r="2" cx="448.8" cy="8.517889253758314" style="opacity: 1; stroke: rgb(83, 135, 221); fill: rgb(83, 135, 221); stroke-width: 1;"/></g><g class="rv-xy-plot__series rv-xy-plot__series--mark" transform="translate(31.2,5)"><circle r="2" cx="448.8" cy="6.013487791933782" style="opacity: 1; stroke: rgb(218, 76, 76); fill: rgb(218, 76, 76); stroke-width: 1;"/></g><defs class="rv-gradient-defs"><linearGradient id="leftFadeGradient" x1="0" x2="1" y1="0" y2="0"><stop offset="0%" stop-color="white" stop-opacity="1"/><stop offset="60%" stop-color="white" stop-opacity="1"/><stop offset="100%" stop-color="white" stop-opacity="0"/></linearGradient><linearGradient id="rightFadeGradient" x1="1" x2="0" y1="0" y2="0"><stop offset="0%" stop-color="white" stop-opacity="1"/><stop offset="100%" stop-color="white" stop-opacity="0"/></linearGradient><linearGradient id="bottomFadeGradient" x1="0" x2="0" y1="1" y2="0"><stop offset="0%" stop-color="white" stop-opacity="1"/><stop offset="40%" stop-color="white" stop-opacity="1"/><stop offset="100%" stop-color="white" stop-opacity="0"/></linearGradient><linearGradient id="topFadeGradient" x1="0" x2="0" y1="0" y2="1"><stop offset="0%" stop-color="white" stop-opacity="1"/><stop offset="100%" stop-color="white" stop-opacity="0"/></linearGradient></defs><g class="rv-xy-plot__borders plot-border"><rect class="rv-xy-plot__borders-bottom plot-border-bottom" x="0" y="210" width="500" height="30" style="fill: url(&quot;#bottomFadeGradient&quot;); opacity: 1;"/><rect class="rv-xy-plot__borders-left plot-border-left" x="0" y="0" width="31.2" height="240" style="fill: url(&quot;#leftFadeGradient&quot;); opacity: 1;"/><rect class="rv-xy-plot__borders-right plot-border-right" x="480" y="0" width="20" height="240" style="fill: url(&quot;#rightFadeGradient&quot;); opacity: 1;"/><rect class="rv-xy-plot__borders-top plot-border-top" x="0" y="0" width="500" height="5" style="fill: url(&quot;#topFadeGradient&quot;); opacity: 1;"/></g><g transform="translate(31.2,198.4112075694911)" class="rv-xy-plot__axis rv-xy-plot__axis--horizontal"><line x1="0" x2="448.8" y1="0" y2="0" class="rv-xy-plot__axis__line"/><g transform="translate(0, 0)" class="rv-xy-plot__axis__ticks"/></g><g transform="translate(31.2,210)" class="rv-xy-plot__axis rv-xy-plot__axis--horizontal" style="font-family: &quot;Source Sans Pro&quot;; fill: rgb(107, 107, 118); font-size: 14px;"><line x1="0" x2="448.8" y1="0" y2="0" class="rv-xy-plot__axis__line" style="font-family: &quot;Source Sans Pro&quot;; fill: rgb(107, 107, 118); font-size: 14px; stroke-width: 0;"/><g transform="translate(0, 0)" class="rv-xy-plot__axis__ticks"><g transform="translate(111.38781510478921, 0)" class="rv-xy-plot__axis__tick" style="font-family: &quot;Source Sans Pro&quot;; fill: rgb(107, 107, 118); font-size: 14px;"><line x1="0" x2="0" y1="-6" y2="6" class="rv-xy-plot__axis__tick__line" style="font-family: &quot;Source Sans Pro&quot;; fill: rgb(107, 107, 118); font-size: 14px; stroke-width: 0;"/><text text-anchor="middle" dy="0.72em" transform="translate(0, 14)" class="rv-xy-plot__axis__tick__text" style="font-family: sans-serif; fill: rgb(107, 107, 118); font-size: 14px;">500k</text></g><g transform="translate(224.39999999999998, 0)" class="rv-xy-plot__axis__tick" style="font-family: &quot;Source Sans Pro&quot;; fill: rgb(107, 107, 118); font-size: 14px;"><line x1="0" x2="0" y1="-6" y2="6" class="rv-xy-plot__axis__tick__line" style="font-family: &quot;Source Sans Pro&quot;; fill: rgb(107, 107, 118); font-size: 14px; stroke-width: 0;"/><text text-anchor="middle" dy="0.72em" transform="translate(0, 14)" class="rv-xy-plot__axis__tick__text" style="font-family: sans-serif; fill: rgb(107, 107, 118); font-size: 14px;">1M</text></g><g transform="translate(337.4121848952107, 0)" class="rv-xy-plot__axis__tick" style="font-family: &quot;Source Sans Pro&quot;; fill: rgb(107, 107, 118); font-size: 14px;"><line x1="0" x2="0" y1="-6" y2="6" class="rv-xy-plot__axis__tick__line" style="font-family: &quot;Source Sans Pro&quot;; fill: rgb(107, 107, 118); font-size: 14px; stroke-width: 0;"/><text text-anchor="middle" dy="0.72em" transform="translate(0, 14)" class="rv-xy-plot__axis__tick__text" style="font-family: sans-serif; fill: rgb(107, 107, 118); font-size: 14px;">1.5M</text></g></g><g transform="translate(0, 0)" class="rv-xy-plot__axis__title"><g transform="translate(442.8, -6) rotate(0)" style="text-anchor: end; font-family: &quot;Source Sans Pro&quot;; fill: rgb(107, 107, 118); font-size: 14px;"><text style="font-family: sans-serif; fill: rgb(107, 107, 118); font-size: 14px;"> Steps</text></g></g></g><g transform="translate(31.2,210)" class="rv-xy-plot__axis rv-xy-plot__axis--horizontal"><line x1="0" x2="0" y1="0" y2="0" class="rv-xy-plot__axis__line"/><g transform="translate(0, 0)" class="rv-xy-plot__axis__ticks"><g transform="translate(111.38781510478921, 0)" class="rv-xy-plot__axis__tick"><line x1="0" x2="0" y1="-6" y2="6" class="rv-xy-plot__axis__tick__line"/><text text-anchor="middle" dy="0.72em" transform="translate(0, 14)" class="rv-xy-plot__axis__tick__text" style="font-family: sans-serif;"/></g><g transform="translate(224.39999999999998, 0)" class="rv-xy-plot__axis__tick"><line x1="0" x2="0" y1="-6" y2="6" class="rv-xy-plot__axis__tick__line"/><text text-anchor="middle" dy="0.72em" transform="translate(0, 14)" class="rv-xy-plot__axis__tick__text" style="font-family: sans-serif;"/></g><g transform="translate(337.4121848952107, 0)" class="rv-xy-plot__axis__tick"><line x1="0" x2="0" y1="-6" y2="6" class="rv-xy-plot__axis__tick__line"/><text text-anchor="middle" dy="0.72em" transform="translate(0, 14)" class="rv-xy-plot__axis__tick__text" style="font-family: sans-serif;"/></g></g></g><g transform="translate(0,5)" class="rv-xy-plot__axis rv-xy-plot__axis--vertical" style="font-family: &quot;Source Sans Pro&quot;; fill: rgb(107, 107, 118); font-size: 14px;"><line x1="31.2" x2="31.2" y1="0" y2="205" class="rv-xy-plot__axis__line" style="font-family: &quot;Source Sans Pro&quot;; fill: rgb(107, 107, 118); font-size: 14px; stroke: none;"/><g transform="translate(31.2, 0)" class="rv-xy-plot__axis__ticks"><g transform="translate(0, 193.4112075694911)" class="rv-xy-plot__axis__tick" style="font-family: &quot;Source Sans Pro&quot;; fill: rgb(107, 107, 118); font-size: 14px;"><line y1="0" y2="0" x1="6" x2="-6" class="rv-xy-plot__axis__tick__line" style="font-family: &quot;Source Sans Pro&quot;; fill: rgb(107, 107, 118); font-size: 14px; stroke: none;"/><text text-anchor="end" dy="0.32em" transform="translate(-14, 0)" class="rv-xy-plot__axis__tick__text" style="font-family: sans-serif; fill: rgb(107, 107, 118); font-size: 14px;">0</text></g><g transform="translate(0, 146.1974637724216)" class="rv-xy-plot__axis__tick" style="font-family: &quot;Source Sans Pro&quot;; fill: rgb(107, 107, 118); font-size: 14px;"><line y1="0" y2="0" x1="6" x2="-6" class="rv-xy-plot__axis__tick__line" style="font-family: &quot;Source Sans Pro&quot;; fill: rgb(107, 107, 118); font-size: 14px; stroke: none;"/><text text-anchor="end" dy="0.32em" transform="translate(-14, 0)" class="rv-xy-plot__axis__tick__text" style="font-family: sans-serif; fill: rgb(107, 107, 118); font-size: 14px;">2</text></g><g transform="translate(0, 98.98371997535205)" class="rv-xy-plot__axis__tick" style="font-family: &quot;Source Sans Pro&quot;; fill: rgb(107, 107, 118); font-size: 14px;"><line y1="0" y2="0" x1="6" x2="-6" class="rv-xy-plot__axis__tick__line" style="font-family: &quot;Source Sans Pro&quot;; fill: rgb(107, 107, 118); font-size: 14px; stroke: none;"/><text text-anchor="end" dy="0.32em" transform="translate(-14, 0)" class="rv-xy-plot__axis__tick__text" style="font-family: sans-serif; fill: rgb(107, 107, 118); font-size: 14px;">4</text></g><g transform="translate(0, 51.76997617828253)" class="rv-xy-plot__axis__tick" style="font-family: &quot;Source Sans Pro&quot;; fill: rgb(107, 107, 118); font-size: 14px;"><line y1="0" y2="0" x1="6" x2="-6" class="rv-xy-plot__axis__tick__line" style="font-family: &quot;Source Sans Pro&quot;; fill: rgb(107, 107, 118); font-size: 14px; stroke: none;"/><text text-anchor="end" dy="0.32em" transform="translate(-14, 0)" class="rv-xy-plot__axis__tick__text" style="font-family: sans-serif; fill: rgb(107, 107, 118); font-size: 14px;">6</text></g><g transform="translate(0, 4.556232381213)" class="rv-xy-plot__axis__tick" style="font-family: &quot;Source Sans Pro&quot;; fill: rgb(107, 107, 118); font-size: 14px;"><line y1="0" y2="0" x1="6" x2="-6" class="rv-xy-plot__axis__tick__line" style="font-family: &quot;Source Sans Pro&quot;; fill: rgb(107, 107, 118); font-size: 14px; stroke: none;"/><text text-anchor="end" dy="0.32em" transform="translate(-14, 0)" class="rv-xy-plot__axis__tick__text" style="font-family: sans-serif; fill: rgb(107, 107, 118); font-size: 14px;">8</text></g></g><g transform="translate(31.2, 0)" class="rv-xy-plot__axis__title"><g transform="translate(16, 6) rotate(-90)" style="text-anchor: end; font-family: &quot;Source Sans Pro&quot;; fill: rgb(107, 107, 118); font-size: 14px;"><text style="font-family: sans-serif; fill: rgb(107, 107, 118); font-size: 14px;">Episodic Return</text></g></g></g></svg></g><style xmlns="http://www.w3.org/1999/xhtml">/*&lt;![CDATA[*/<br />text { font-size: 10px; fill: black }<br />.react-vis-magic-css-import-rule{display:inherit}.rv-treemap{font-size:12px;position:relative}.rv-treemap__leaf{overflow:hidden;position:absolute}.rv-treemap__leaf--circle{align-items:center;border-radius:100%;display:flex;justify-content:center}.rv-treemap__leaf__content{overflow:hidden;padding:10px;text-overflow:ellipsis}.rv-xy-plot{color:#c3c3c3;position:relative}.rv-xy-plot canvas{pointer-events:none}.rv-xy-plot .rv-xy-canvas{pointer-events:none;position:absolute}.rv-xy-plot__inner{display:block}.rv-xy-plot__axis__line{fill:none;stroke-width:2px;stroke:#e6e6e9}.rv-xy-plot__axis__tick__line{stroke:#e6e6e9}.rv-xy-plot__axis__tick__text{fill:#6b6b76;font-size:11px}.rv-xy-plot__axis__title text{fill:#6b6b76;font-size:11px}.rv-xy-plot__grid-lines__line{stroke:#e6e6e9}.rv-xy-plot__circular-grid-lines__line{fill-opacity:0;stroke:#e6e6e9}.rv-xy-plot__series,.rv-xy-plot__series path{pointer-events:all}.rv-xy-plot__series--line{fill:none;stroke:#000;stroke-width:2px}.rv-crosshair{position:absolute;font-size:11px;pointer-events:none}.rv-crosshair__line{background:#47d3d9;width:1px}.rv-crosshair__inner{position:absolute;text-align:left;top:0}.rv-crosshair__inner__content{border-radius:4px;background:#3a3a48;color:#fff;font-size:12px;padding:7px 10px;box-shadow:0 2px 4px rgba(0,0,0,0.5)}.rv-crosshair__inner--left{right:4px}.rv-crosshair__inner--right{left:4px}.rv-crosshair__title{font-weight:bold;white-space:nowrap}.rv-crosshair__item{white-space:nowrap}.rv-hint{position:absolute;pointer-events:none}.rv-hint__content{border-radius:4px;padding:7px 10px;font-size:12px;background:#3a3a48;box-shadow:0 2px 4px rgba(0,0,0,0.5);color:#fff;text-align:left;white-space:nowrap}.rv-discrete-color-legend{box-sizing:border-box;overflow-y:auto;font-size:12px}.rv-discrete-color-legend.horizontal{white-space:nowrap}.rv-discrete-color-legend-item{color:#3a3a48;border-radius:1px;padding:9px 10px}.rv-discrete-color-legend-item.horizontal{display:inline-block}.rv-discrete-color-legend-item.horizontal .rv-discrete-color-legend-item__title{margin-left:0;display:block}.rv-discrete-color-legend-item__color{display:inline-block;vertical-align:middle;overflow:visible}.rv-discrete-color-legend-item__color__path{stroke:#dcdcdc;stroke-width:2px}.rv-discrete-color-legend-item__title{margin-left:10px}.rv-discrete-color-legend-item.disabled{color:#b8b8b8}.rv-discrete-color-legend-item.clickable{cursor:pointer}.rv-discrete-color-legend-item.clickable:hover{background:#f9f9f9}.rv-search-wrapper{display:flex;flex-direction:column}.rv-search-wrapper__form{flex:0}.rv-search-wrapper__form__input{width:100%;color:#a6a6a5;border:1px solid #e5e5e4;padding:7px 10px;font-size:12px;box-sizing:border-box;border-radius:2px;margin:0 0 9px;outline:0}.rv-search-wrapper__contents{flex:1;overflow:auto}.rv-continuous-color-legend{font-size:12px}.rv-continuous-color-legend .rv-gradient{height:4px;border-radius:2px;margin-bottom:5px}.rv-continuous-size-legend{font-size:12px}.rv-continuous-size-legend .rv-bubbles{text-align:justify;overflow:hidden;margin-bottom:5px;width:100%}.rv-continuous-size-legend .rv-bubble{background:#d8d9dc;display:inline-block;vertical-align:bottom}.rv-continuous-size-legend .rv-spacer{display:inline-block;font-size:0;line-height:0;width:100%}.rv-legend-titles{height:16px;position:relative}.rv-legend-titles__left,.rv-legend-titles__right,.rv-legend-titles__center{position:absolute;white-space:nowrap;overflow:hidden}.rv-legend-titles__center{display:block;text-align:center;width:100%}.rv-legend-titles__right{right:0}.rv-radial-chart .rv-xy-plot__series--label{pointer-events:none}<br /><br />/*]]&gt;*/</style></svg>