<svg xmlns="http://www.w3.org/2000/svg" viewBox="0 0 499.9999694824219 300"><g><text x="50%" y="0" style="fill: rgb(54, 58, 61); dominant-baseline: text-before-edge; text-anchor: middle; font-weight: bold; font-size: 13px; font-family: sans-serif;">PongNoFrameskip-v4</text><svg viewBox="0 0 1024 1024" x="109.59375" y="25.90625" height="11" width="11"><path d="M128 533.333h768c23.564 0 42.667-19.103 42.667-42.667v-85.333c0-23.564-19.103-42.667-42.667-42.667h-768c-23.564 0-42.667 19.103-42.667 42.667v85.333c0 23.564 19.103 42.667 42.667 42.667z" style="fill: rgb(215, 62, 62);"/></svg><text x="128.59375" y="23.90625" style="fill: rgb(215, 62, 62); dominant-baseline: text-before-edge; font-size: 11px; font-family: sans-serif;">openai/baselines' PPO</text><svg viewBox="0 0 1024 1024" x="318.571044921875" y="25.90625" height="11" width="11"><path d="M128 533.333h768c23.564 0 42.667-19.103 42.667-42.667v-85.333c0-23.564-19.103-42.667-42.667-42.667h-768c-23.564 0-42.667 19.103-42.667 42.667v85.333c0 23.564 19.103 42.667 42.667 42.667z" style="fill: rgb(56, 116, 216);"/></svg><text x="337.571044921875" y="23.90625" style="fill: rgb(56, 116, 216); dominant-baseline: text-before-edge; font-size: 11px; font-family: sans-serif;">our PPO</text></g><g transform="translate(0, 41.50567626953125)"><svg class="rv-xy-plot__inner" width="500" height="258"><g transform="translate(42,5)" class="rv-xy-plot__grid-lines"><line y1="219.4313713167472" y2="219.4313713167472" x1="0" x2="438" class="rv-xy-plot__grid-lines__line" style="stroke-width: 0.5;"/><line y1="165.90194106795545" y2="165.90194106795545" x1="0" x2="438" class="rv-xy-plot__grid-lines__line" style="stroke-width: 0.5;"/><line y1="112.37251081916367" y2="112.37251081916367" x1="0" x2="438" class="rv-xy-plot__grid-lines__line" style="stroke-width: 0.5;"/><line y1="58.84308057037192" y2="58.84308057037192" x1="0" x2="438" class="rv-xy-plot__grid-lines__line" style="stroke-width: 0.5;"/><line y1="5.313650321580138" y2="5.313650321580138" x1="0" x2="438" class="rv-xy-plot__grid-lines__line" style="stroke-width: 0.5;"/></g><path d="M0,220.769607072967L1.7590361445783131,220.06731963741083L3.5180722891566267,219.83399021739328L5.27710843373494,220.02659525707088L7.0361445783132535,219.88283802925037L8.795180722891565,219.4120842685731L10.55421686746988,219.21375288363308L12.313253012048195,218.65796845373396L14.072289156626507,218.45237139397577L15.83132530120482,216.6350815393106L17.590361445783135,215.3200292810994L19.34939759036145,213.51686670932327L21.10843373493976,205.5662491760304L22.867469879518072,202.59600077372065L24.626506024096386,199.58866146346566L26.3855421686747,197.24144092981507L28.144578313253014,194.79321225166646L29.90361445783133,188.47717349269087L31.66265060240964,182.5850018252075L33.42168674698795,174.4560870244791L35.18072289156627,165.06275856631117L36.93975903614458,155.27424389884473L38.69879518072289,145.0594791640721L40.45783132530121,141.32311653908062L42.21686746987952,128.40569625675505L43.975903614457835,118.34150552619383L45.734939759036145,110.44569326323655L47.49397590361446,103.27135849829793L49.25301204819277,96.35967974308025L51.01204819277108,89.76173935931979L52.77108433734939,83.12159763430331L54.5301204819277,77.56202365072876L56.28915662650603,70.99447890295788L58.048192771084345,65.61721877816989L59.807228915662655,61.527611772198476L61.566265060240966,57.451423439408906L63.325301204819276,53.43553232861061L65.0843373493976,49.559027561536304L66.8433734939759,47.48527906972944L68.60240963855422,45.357665628453276L70.36144578313252,42.666718978415375L72.12048192771084,40.880384094054975L73.87951807228914,39.1253851714305L75.63855421686748,38.06703381028699L77.39759036144578,35.75554658227789L79.1566265060241,33.95679162626639L80.9156626506024,32.586585373549205L82.67469879518072,30.32815102291766L84.43373493975903,28.90230375144131L86.19277108433735,26.785671330369443L87.95180722891567,26.169294479533917L89.71084337349397,24.69642719804816L91.46987951807229,24.126655423749757L93.22891566265059,23.865260827349175L94.98795180722892,22.359249027693377L96.74698795180721,20.806305178016043L98.50602409638554,19.40113798432724L100.26506024096386,17.81255899344964L102.02409638554217,16.628498169385356L103.78313253012048,15.252720222007477L105.54216867469879,14.007544857467362L107.3012048192771,13.057872818383727L109.06024096385543,11.987179647105885L110.81927710843372,11.2109623182869L112.57831325301206,10.349142696074024L114.33734939759034,9.647746422475823L116.09638554216869,8.984658109472084L117.855421686747,8.693730701826178L119.61445783132531,7.8679184033645235L121.37349397590361,7.264881513403634L123.13253012048193,6.827360429498381L124.89156626506023,7.134079206479612L126.65060240963857,6.582489277706836L128.40963855421685,5.9565807535258335L130.1686746987952,5.534424741140521L131.9277108433735,5.387080113243009L133.6867469879518,5.0428804156758575L135.44578313253012,4.689068531060112L137.20481927710844,4.242244391726438L138.96385542168676,3.929628269681326L140.72289156626505,3.8918038405200734L142.48192771084337,3.5203579101369455L144.24096385542168,3.2851750859979014L146,2.9710655366610874L147.75903614457832,2.93951924469465L149.5180722891566,2.6969844329101837L151.27710843373495,2.7756236104095353L153.03614457831324,2.678255704682175L154.79518072289156,2.4215145276758148L156.55421686746988,2.245222687442911L158.3132530120482,2.0293981082593207L160.0722891566265,1.978451530112359L161.8313253012048,2.040682002187658L163.59036144578312,2.2655969726404717L165.34939759036146,2.5535438210125356L167.10843373493975,2.4097395287279832L168.86746987951807,2.178385019922894L170.6265060240964,2.0700227943139136L172.3855421686747,2.2753024011380707L174.14457831325302,2.0566515815069017L175.90361445783134,2.1114914823068665L177.66265060240963,2.7510958630395104L179.42168674698794,2.4875020103140297L181.1807228915663,2.3752252612974143L182.93975903614458,2.3156935122909865L184.6987951807229,2.0932319972927314L186.45783132530124,2.0182004454019244L188.21686746987956,2.1850266802772946L189.97590361445785,2.143462315297428L191.73493975903614,2.139534742269556L193.49397590361448,2.123336804453098L195.2530120481928,2.04546218410783L197.01204819277112,1.932806109997564L198.7710843373494,1.9150674927960507L200.53012048192772,1.7304536797539831L202.28915662650604,1.6138443322688831L204.04819277108436,1.6262356480725355L205.80722891566268,1.4689060710342614L207.56626506024097,1.3264383125286123L209.3253012048193,1.3659785821828658L211.0843373493976,1.7388837985228582L212.84337349397592,1.5709136747558778L214.60240963855426,1.5452227969916978L216.36144578313255,1.4677820359367675L218.12048192771087,1.3254209318116867L219.87951807228916,1.1965075743610476L221.6385542168675,1.079771650511491L223.39759036144585,0.9740628462589366L225.1566265060241,0.9345226607049439L226.9156626506024,0.8425343842004117L228.67469879518075,0.9277848644657527L230.4337349397591,0.9086685200581965L232.19277108433738,0.8191225278390102L233.95180722891564,0.7380352130454289L235.710843373494,0.6646075510513025L237.46987951807233,0.59811599525358L239.22891566265065,0.5379053471314549L240.98795180722894,0.539565358184579L242.74698795180723,0.4848855094443266L244.50602409638557,0.507606156584643L246.2650602409639,0.4559452341315253L248.02409638554218,0.5102937545680999L249.78313253012053,0.4583789652443303L251.54216867469881,0.5377799476803203L253.30120481927713,0.48326877667111945L255.06024096385542,0.5181813527561452L256.81927710843377,0.46552150054412444L258.5783132530121,0.4178359806204378L260.3373493975904,0.37465490937481005L262.09638554216866,0.3355527892433142L263.85542168674704,0.30014431591078305L265.61445783132535,0.3403158810134118L267.37349397590367,0.30445748082169477L269.13253012048193,0.27198632005106527L270.89156626506025,0.24258243473535268L272.65060240963857,0.21595608523346532L274.40963855421694,0.19184490118519937L276.1686746987952,0.1700112961603566L277.9277108433735,0.15024012652548857L279.68674698795184,0.1323365714585648L281.44578313253015,0.18835950063990692L283.20481927710847,0.2932668844802747L284.96385542168673,0.26185280860179216L286.72289156626505,0.43566495231683167L288.4819277108434,0.3907997428119875L290.2409638554217,0.3501725683014215L292.00000000000006,0.3133830975883215L293.7590361445783,0.2800688153759354L295.51807228915663,0.24990145011788945L297.277108433735,0.29481902179679065L299.03614457831327,0.2632583303423208L300.7951807228916,0.2346789089506086L302.5542168674699,0.27200501379362363L304.3132530120482,0.2425993678568663L306.07228915662654,0.2159714231056844L307.83132530120486,0.19185879372760584L309.5903614457832,0.17002387926944196L311.3493975903615,0.15025152337444847L313.10843373493975,0.13234689367862573L314.8674698795181,0.18836884232632178L316.62650602409644,0.16686359403815787L318.3855421686747,0.29186032377116744L320.144578313253,0.260579116272331L321.90361445783134,0.23225277819676537L323.66265060240966,0.2066021881740624L325.42168674698803,0.24658046086589414L327.1807228915663,0.21957645668203607L328.9397590361446,0.19512329090887992L330.6987951807229,0.1729800075514113L332.45783132530124,0.1529284116775158L334.21686746987956,0.13477091937371932L335.9759036144579,0.11832861079759094L337.73493975903614,0.10343946714160746L339.4939759036145,0.08995677413635406L341.2530120481928,0.07774767636073077L343.01204819277115,0.06669186811471417L344.77108433734946,0.05668040795369056L346.5301204819277,0.04761464520424186L348.28915662650604,0.039405247882277505L350.04819277108436,0.031971322435989324L351.8072289156627,0.02523961663873253L353.56626506024105,0.019143797778356175L355.32530120481925,0.01362379902920019L357.08433734939763,0.008625227567383487L358.84337349397595,0.004098828596156956L360.60240963855426,0L362.3614457831326,0.0805628452136603L364.12048192771084,0.0692411119611499L365.87951807228916,0.05898884646010372L367.63855421686753,0.04970502519688069L369.3975903614458,0.4024745632098162L371.1566265060241,0.36074457063643983L372.9156626506025,0.32295645518553073L374.67469879518075,0.2887378612848053L376.43373493975906,0.257751606622866L378.1927710843374,0.2296923596306255L379.9518072289157,0.2502515357063557L381.7108433734941,0.29513603567709423L383.4698795180723,0.3478198922560215L385.2289156626506,0.3112526611463625L386.98795180722897,0.2781396250351974L388.7469879518072,0.24815449552904223L390.5060240963856,0.22100180592101426L392.26506024096386,0.19641399972846807L394.0240963855422,0.5112467633868429L395.78313253012055,0.45924198714999787L397.5421686746988,0.4753555285774871L399.3012048192772,0.5110155840033951L401.06024096385545,0.4590326453171305L402.8192771084337,0.41196009227676944L404.5783132530121,0.7064320516606826L406.33734939759034,0.6359897830142127L408.0963855421687,0.5722015957557061L409.85542168674704,0.6829879200151896L411.6144578313253,0.6147602188882771L413.37349397590367,0.5529774078098075L415.13253012048193,0.569265971977559L416.8915662650603,0.5117806150761905L418.6506024096386,0.763113582597773L420.4096385542168,0.6873170923033146L422.1686746987952,0.6186804511303775L423.9277108433735,0.5565273290900239L425.68674698795184,0.5002452833291157L427.44578313253015,0.4492797232567105L429.2048192771084,0.40312844573336837L430.9638554216868,0.36133668647445416L432.7228915662651,0.3234926389056919L434.4819277108434,0.3524292655150776L436.24096385542174,0.31542662616839556L438,0.28191931112738966L438,4.368930559038918L436.24096385542174,4.4565130864807925L434.4819277108434,4.73936302391797L432.7228915662651,5.051718526332817L430.9638554216868,5.247752501783029L429.2048192771084,5.240878353527929L427.44578313253015,5.419418342514801L425.68674698795184,5.66976312438247L423.9277108433735,5.148517476831268L422.1686746987952,5.2429703305594675L420.4096385542168,5.57063351732849L418.6506024096386,5.9324769748663L416.8915662650603,5.624767606936919L415.13253012048193,5.93641871140725L413.37349397590367,6.1130616878723405L411.6144578313253,6.531488681470822L409.85542168674704,6.93772463127176L408.0963855421687,7.231227843591515L406.33734939759034,7.431260442825614L404.5783132530121,5.837380140521143L402.8192771084337,5.892013153152378L401.06024096385545,6.191656785952177L399.3012048192772,6.522557822448051L397.5421686746988,6.64866532364267L395.78313253012055,6.974058977549254L394.0240963855422,7.035586209975685L392.26506024096386,7.10353167169853L390.5060240963856,7.290243611490774L388.7469879518072,7.735744019218849L386.98795180722897,8.298624048020477L385.2289156626506,8.945038549282389L383.4698795180723,8.095381734517447L381.7108433734941,7.268771477032825L379.9518072289157,7.1004580184757655L378.1927710843374,6.393419493077851L376.43373493975906,6.759871190228009L374.67469879518075,7.13409155643021L372.9156626506025,7.463589770592088L371.1566265060241,7.749905003619986L369.3975903614458,7.84450250398538L367.63855421686753,8.20157461752934L365.87951807228916,7.832756816225384L364.12048192771084,8.165337273355838L362.3614457831326,7.792739363961244L360.60240963855426,8.05134618417904L358.84337349397595,7.716492255432105L357.08433734939763,7.687948514547071L355.32530120481925,8.028689658151931L353.56626506024105,8.451508107176094L351.8072289156627,8.778834560985416L350.04819277108436,9.140306159330361L348.28915662650604,9.120689525228794L346.5301204819277,9.741179273222793L344.77108433734946,10.203038111781623L343.01204819277115,10.713075875842259L341.2530120481928,10.717924713034257L339.4939759036145,10.962590922167495L337.73493975903614,11.631632158153938L335.9759036144579,11.732300433964058L334.21686746987956,11.28507629663789L332.45783132530124,12.019665888516904L330.6987951807229,12.579607243125926L328.9397590361446,13.114199979251135L327.1807228915663,12.950727466372477L325.42168674698803,13.109226993146907L323.66265060240966,13.36403096163048L321.90361445783134,14.01767730911291L320.144578313253,13.250459201668795L318.3855421686747,13.440225323759615L316.62650602409644,13.952914933785184L314.8674698795181,14.016531604478287L313.10843373493975,14.784776537767575L311.3493975903615,12.70159443334558L309.5903614457832,13.472269767931264L307.83132530120486,14.084026735577648L306.07228915662654,14.905845253795368L304.3132530120482,15.906457601073422L302.5542168674699,15.447946825659995L300.7951807228916,16.78430548344177L299.03614457831327,17.00368099401765L297.277108433735,16.73407985260663L295.51807228915663,18.204601837391717L293.7590361445783,17.12961893869695L292.00000000000006,17.91548991803899L290.2409638554217,18.392463663835933L288.4819277108434,19.086711164865964L286.72289156626505,19.40666433061847L284.96385542168673,18.64320609984246L283.20481927710847,16.236605132734493L281.44578313253015,17.236437715480793L279.68674698795184,16.884755925349086L277.9277108433735,16.528296560657704L276.1686746987952,16.82067962106149L274.40963855421694,16.764652666588844L272.65060240963857,16.76260914576985L270.89156626506025,17.51019550928345L269.13253012048193,16.98321275958234L267.37349397590367,17.64213272882062L265.61445783132535,18.928181948099894L263.85542168674704,19.008240635808733L262.09638554216866,20.117713692247957L260.3373493975904,21.422692354867845L258.5783132530121,22.098002992599078L256.81927710843377,19.009454077934087L255.06024096385542,19.22828262703098L253.30120481927713,18.725413074485797L251.54216867469881,17.61169249577528L249.78313253012053,19.03416536261629L248.02409638554218,19.813965804018576L246.2650602409639,19.428031269418984L244.50602409638557,19.783589632991117L242.74698795180723,20.8587200553985L240.98795180722894,22.619908460385314L239.22891566265065,21.13689529389806L237.46987951807233,18.87874257478955L235.710843373494,19.05291420333512L233.95180722891564,18.252553162720336L232.19277108433738,19.043886007840886L230.4337349397591,18.521780287430097L228.67469879518075,18.54349099996213L226.9156626506024,19.458239527141046L225.1566265060241,20.710382035919267L223.39759036144585,17.179263798562086L221.6385542168675,15.625054893037767L219.87951807228916,15.304706440107498L218.12048192771087,16.067732373159146L216.36144578313255,16.742835389307807L214.60240963855426,17.935079779005108L212.84337349397592,16.831975579382235L211.0843373493976,16.544461200116555L209.3253012048193,16.040821827223798L207.56626506024097,16.378080924789888L205.80722891566268,15.857084661937138L204.04819277108436,16.58466993957509L202.28915662650604,17.450199276231263L200.53012048192772,17.04104107185198L198.7710843373494,16.6822671740996L197.01204819277112,17.070487437601685L195.2530120481928,17.738521282159333L193.49397590361448,18.569310578986865L191.73493975903614,19.254098630130045L189.97590361445785,19.219249704041548L188.21686746987956,19.273833021577165L186.45783132530124,19.985585689730392L184.6987951807229,20.151134681873454L182.93975903614458,19.465315657082705L181.1807228915663,20.631370086219068L179.42168674698794,21.51133938191252L177.66265060240963,20.32921922972117L175.90361445783134,21.151083861436017L174.14457831325302,22.244829878185254L172.3855421686747,18.98529088155698L170.6265060240964,19.613784020102628L168.86746987951807,19.82919208960756L167.10843373493975,20.785060703609453L165.34939759036146,20.909925245305416L163.59036144578312,21.978556160994874L161.8313253012048,22.87945820384932L160.0722891566265,23.355792858544444L158.3132530120482,24.360508315375895L156.55421686746988,24.99137089076286L154.79518072289156,25.927406923765187L153.03614457831324,25.78209454213717L151.27710843373495,25.544050217620736L149.5180722891566,27.096301472748447L147.75903614457832,28.4913918491106L146,27.41896633911616L144.24096385542168,28.847791075604874L142.48192771084337,29.73951986819894L140.72289156626505,28.825174695677987L138.96385542168676,28.020201915007963L137.20481927710844,29.35235004023015L135.44578313253012,31.54182415701975L133.6867469879518,29.80984128437946L131.9277108433735,31.009705855488207L130.1686746987952,32.20184565223325L128.40963855421685,33.66749873780091L126.65060240963857,34.85784217719126L124.89156626506023,35.37154699616131L123.13253012048193,36.41397688537077L121.37349397590361,37.61192543515977L119.61445783132531,39.41954791282722L117.855421686747,41.92551197824662L116.09638554216869,42.394934583520346L114.33734939759034,45.3366340217526L112.57831325301206,48.679336567062315L110.81927710843372,52.30197487070307L109.06024096385543,54.13594527107145L107.3012048192771,58.04061194769412L105.54216867469879,61.37093432090183L103.78313253012048,66.33803256196249L102.02409638554217,71.0421150838702L100.26506024096386,75.51966026483703L98.50602409638554,81.32794750903057L96.74698795180721,84.24311365310952L94.98795180722892,83.1468119729511L93.22891566265059,84.47848063082725L91.46987951807229,84.360059957574L89.71084337349397,84.67844557520803L87.95180722891567,89.63850163296325L86.19277108433735,91.0928738881422L84.43373493975903,95.4211531928242L82.67469879518072,93.41235233720928L80.9156626506024,94.23423912259508L79.1566265060241,93.28954651602014L77.39759036144578,93.9872169396715L75.63855421686748,97.0217620006389L73.87951807228914,100.25198974921949L72.12048192771084,105.36877175620455L70.36144578313252,103.32691570743701L68.60240963855422,111.75606035159169L66.8433734939759,115.87252234215207L65.0843373493976,114.53155141594145L63.325301204819276,118.2004801471655L61.566265060240966,119.59204910851066L59.807228915662655,118.52519600412614L58.048192771084345,122.90681946881729L56.28915662650603,129.2721011962153L54.5301204819277,137.23066938565296L52.77108433734939,139.36379170788135L51.01204819277108,135.56425238752536L49.25301204819277,141.87513076222137L47.49397590361446,149.0266836731778L45.734939759036145,152.08281354701282L43.975903614457835,159.98856802346648L42.21686746987952,170.7415064198809L40.45783132530121,182.98761201003762L38.69879518072289,190.8801692006237L36.93975903614458,194.17636756605447L35.18072289156627,196.77978200142482L33.42168674698795,204.3983280734653L31.66265060240964,206.49943224251314L29.90361445783133,211.41946546502612L28.144578313253014,213.82002477020063L26.3855421686747,215.01440671606954L24.626506024096386,215.5732263342865L22.867469879518072,217.0826138392665L21.10843373493976,219.0560503849952L19.34939759036145,219.20037175542905L17.590361445783135,220.61604017179923L15.83132530120482,221.43359486383608L14.072289156626507,221.92231764005572L12.313253012048195,221.98891319650923L10.55421686746988,222.62311365205042L8.795180722891565,222.32803749707065L7.0361445783132535,222.62471495537707L5.27710843373494,222.42404910992187L3.5180722891566267,222.76905435707707L1.7590361445783131,222.53180837629588L0,223Z" class="rv-xy-plot__series rv-xy-plot__series--line" transform="translate(42,5)" style="opacity: 1; stroke: rgba(218, 76, 76, 0); fill: rgba(218, 76, 76, 0.1);"/><path d="M0,221.57679689417893L1.7590361445783131,221.3352694692522L3.5180722891566267,221.25866092862736L5.27710843373494,221.2383539408437L7.0361445783132535,221.25340027984294L8.795180722891565,220.9323797857494L10.55421686746988,220.9970468930357L12.313253012048195,220.42445828002315L14.072289156626507,220.18439159288914L15.83132530120482,219.17744684803728L17.590361445783135,218.21131563874684L19.34939759036145,216.72757661338622L21.10843373493976,213.57200368076238L22.867469879518072,211.16602759045304L24.626506024096386,209.17340663816782L26.3855421686747,207.63723789958462L28.144578313253014,205.37632004607795L29.90361445783133,201.60534361308885L31.66265060240964,196.552880528078L33.42168674698795,191.87717507898398L35.18072289156627,183.7967369679837L36.93975903614458,177.3344500925425L38.69879518072289,169.7531037613307L40.45783132530121,163.75303900354484L42.21686746987952,151.62409689662917L43.975903614457835,141.38437420601304L45.734939759036145,132.60357005000324L47.49397590361446,126.17779098761383L49.25301204819277,118.92897627032941L51.01204819277108,112.22322343428851L52.77108433734939,109.33124736507733L54.5301204819277,105.145634182396L56.28915662650603,98.23492730007172L58.048192771084345,93.33472134419787L59.807228915662655,88.40674766939325L61.566265060240966,85.79930190015361L63.325301204819276,82.99913989271883L65.0843373493976,78.8520127227388L66.8433734939759,77.19422253190785L68.60240963855422,74.2963864333471L70.36144578313252,69.14579645497984L72.12048192771084,68.24287354559632L73.87951807228914,65.73596263910312L75.63855421686748,63.37132961862466L77.39759036144578,60.72197208585502L79.1566265060241,59.327649254942514L80.9156626506024,58.35450637513761L82.67469879518072,57.32438214578033L84.43373493975903,56.83621993596579L86.19277108433735,54.1557298255256L87.95180722891567,54.120726481976455L89.71084337349397,51.17893181964761L91.46987951807229,50.78279689963528L93.22891566265059,50.24139853975573L94.98795180722892,48.44076077570368L96.74698795180721,47.294634105015604L98.50602409638554,45.04647231202541L100.26506024096386,42.06334338871229L102.02409638554217,39.4995411752652L103.78313253012048,36.812301383830516L105.54216867469879,34.05514084366511L107.3012048192771,32.11980887997364L109.06024096385543,30.085370524171744L110.81927710843372,28.959391594871224L112.57831325301206,26.96762861024615L114.33734939759034,25.16491307190777L116.09638554216869,23.427938833749753L117.855421686747,23.252298542361597L119.61445783132531,21.73971024109336L121.37349397590361,20.707180215723312L123.13253012048193,19.752280725131556L124.89156626506023,19.703966561988842L126.65060240963857,18.88762282754056L128.40963855421685,17.868805796155726L130.1686746987952,17.13507147736968L131.9277108433735,16.391624764471132L133.6867469879518,15.641789681266651L135.44578313253012,15.984621349113485L137.20481927710844,14.783524759340947L138.96385542168676,14.035743788950903L140.72289156626505,14.110794050547096L142.48192771084337,14.084014382782879L144.24096385542168,13.564421529511025L146,12.944412201523392L147.75903614457832,13.136614528188126L149.5180722891566,12.50680077585616L151.27710843373495,12.023879519986547L153.03614457831324,11.993983667686972L154.79518072289156,12.280646921941596L156.55421686746988,11.906074860614698L158.3132530120482,11.878078417685058L160.0722891566265,11.29003354828071L161.8313253012048,11.125448751459308L163.59036144578312,10.834873557722887L165.34939759036146,10.505931514243969L167.10843373493975,10.284101598375738L168.86746987951807,9.74713031489926L170.6265060240964,9.891781036273219L172.3855421686747,9.750665319276514L174.14457831325302,10.646264302277459L175.90361445783134,10.268932636920574L177.66265060240963,10.340208922605552L179.42168674698794,10.515516624308841L181.1807228915663,10.066263029783558L182.93975903614458,9.682859545365732L184.6987951807229,9.86006378750492L186.45783132530124,9.800472737862096L188.21686746987956,9.609394707686073L189.97590361445785,9.478906362679655L191.73493975903614,9.433783834082027L193.49397590361448,9.318480100128133L195.2530120481928,9.066585909132836L197.01204819277112,8.740165125201944L198.7710843373494,8.601091012455386L200.53012048192772,8.5152855082315L202.28915662650604,8.416984852474899L204.04819277108436,8.105108763610529L205.80722891566268,7.729054368657472L207.56626506024097,7.774784153002089L209.3253012048193,7.572264691980263L211.0843373493976,7.931981365579754L212.84337349397592,7.965565083742075L214.60240963855426,8.225391444780156L216.36144578313255,7.757714519661095L218.12048192771087,7.619545957418534L219.87951807228916,7.221137949796512L221.6385542168675,7.331233010885726L223.39759036144585,7.670375565389586L225.1566265060241,8.708130512098458L226.9156626506024,8.173986152824057L228.67469879518075,7.889748187089477L230.4337349397591,7.855085778237431L232.19277108433738,8.03639080582448L233.95180722891564,7.694921626959168L235.710843373494,7.951552118288831L237.46987951807233,7.79601010451651L239.22891566265065,8.46045145697153L240.98795180722894,9.069151424810835L242.74698795180723,8.335165242833765L244.50602409638557,7.9159790290070084L246.2650602409639,7.866799632441657L248.02409638554218,8.035761344849071L249.78313253012053,7.686325817171584L251.54216867469881,7.1812840746776265L253.30120481927713,7.4262372142673545L255.06024096385542,7.545049481516985L256.81927710843377,7.362359613482614L258.5783132530121,8.326205586664269L260.3373493975904,8.007925221434256L262.09638554216866,7.614968923603239L263.85542168674704,7.156798542096935L265.61445783132535,7.1464253182639L267.37349397590367,6.636200568992092L269.13253012048193,6.342721454729853L270.89156626506025,6.507701209890147L272.65060240963857,6.192650547273779L274.40963855421694,6.1336972958452565L276.1686746987952,6.182646185917659L277.9277108433735,6.124637963284529L279.68674698795184,6.327340636989483L281.44578313253015,6.526546689175183L283.20481927710847,6.327700182665337L284.96385542168673,7.040946718944454L286.72289156626505,7.394667317031379L288.4819277108434,7.261297217717935L290.2409638554217,6.99866338611449L292.00000000000006,6.811403038463288L293.7590361445783,6.561302619783856L295.51807228915663,6.884885362962597L297.277108433735,6.423444601308813L299.03614457831327,6.4941836461988025L300.7951807228916,6.357386360885439L302.5542168674699,5.914672644479352L304.3132530120482,6.055944243940043L306.07228915662654,5.669796699742978L307.83132530120486,5.411422597456149L309.5903614457832,5.1373241865249195L311.3493975903615,4.937274373766987L313.10843373493975,5.610905716777765L314.8674698795181,5.354081475435607L316.62650602409644,5.322170790626026L318.3855421686747,5.181711059541225L320.144578313253,5.09184092511317L321.90361445783134,5.42179984588271L323.66265060240966,5.32730938781272L325.42168674698803,5.199607392483556L327.1807228915663,5.065909497714765L328.9397590361446,5.131448710778276L330.6987951807229,4.980110760101836L332.45783132530124,4.812970384210177L334.21686746987956,4.489457587322544L335.9759036144579,4.6515865510341605L337.73493975903614,4.545577093705569L339.4939759036145,4.256954035621897L341.2530120481928,4.1581241193644605L343.01204819277115,4.140865103291096L344.77108433734946,3.970733163214047L346.5301204819277,3.816672139143738L348.28915662650604,3.5535613594655127L350.04819277108436,3.509135747873126L351.8072289156627,3.34249490692014L353.56626506024105,3.1915952075282905L355.32530120481925,3.0368908982558818L357.08433734939763,3.0071596423439755L358.84337349397595,3.039630296840143L360.60240963855426,3.160799283414334L362.3614457831326,3.097291566429461L364.12048192771084,3.205522717760567L365.87951807228916,3.0464929919973063L367.63855421686753,3.4910023220267825L369.3975903614458,3.5387671580275986L371.1566265060241,3.438552766114026L372.9156626506025,3.283930060191922L374.67469879518075,3.1301350342391454L376.43373493975906,2.931875570403695L378.1927710843374,2.743150409212975L379.9518072289157,3.121143341971053L381.7108433734941,3.392459946813242L383.4698795180723,3.8969906654006183L385.2289156626506,4.401618208084012L386.98795180722897,4.105725751943231L388.7469879518072,3.8372486608353107L390.5060240963856,3.580343814203852L392.26506024096386,3.4818872136107264L394.0240963855422,3.6324450812232376L395.78313253012055,3.530003300765835L397.5421686746988,3.410551400585862L399.3012048192772,3.3824438720936394L401.06024096385545,3.211718250113237L402.8192771084337,3.0775498040653257L404.5783132530121,3.1904549412462817L406.33734939759034,3.657884357894772L408.0963855421687,3.573506207974155L409.85542168674704,3.5399046348117302L411.6144578313253,3.2860828271476508L413.37349397590367,3.07309230311996L415.13253012048193,3.022283896082121L416.8915662650603,2.9016318049583276L418.6506024096386,3.2225779073627363L420.4096385542168,3.0155861524430283L422.1686746987952,2.818515775777871L423.9277108433735,2.7508217210462247L425.68674698795184,2.891780928778015L427.44578313253015,2.7112210628128515L429.2048192771084,2.5637694343750494L430.9638554216868,2.5345861534717664L432.7228915662651,2.4768576143833467L434.4819277108434,2.3445214312377507L436.24096385542174,2.2317087949844896L438,2.1576441054353994" class="rv-xy-plot__series rv-xy-plot__series--line" transform="translate(42,5)" style="opacity: 1; stroke-width: 1.5; stroke: rgb(218, 76, 76);"/><path d="M0,218.80161331382027L1.7590361445783131,220.36110453101122L3.5180722891566267,220.9127102773677L5.27710843373494,220.61419918569356L7.0361445783132535,220.65173297011046L8.795180722891565,220.50748895697413L10.55421686746988,220.30447593890736L12.313253012048195,219.82432736078573L14.072289156626507,219.00042890060402L15.83132530120482,218.17227780645965L17.590361445783135,217.33639620422065L19.34939759036145,215.25956862958515L21.10843373493976,213.43107929982125L22.867469879518072,210.81831747141345L24.626506024096386,206.20919308949718L26.3855421686747,201.29632038609964L28.144578313253014,196.32474668573093L29.90361445783133,192.43835095210707L31.66265060240964,188.88698829816443L33.42168674698795,182.70591704087266L35.18072289156627,179.88226149112816L36.93975903614458,176.49432425215528L38.69879518072289,171.6258962663154L40.45783132530121,166.33426899519543L42.21686746987952,161.96703615102805L43.975903614457835,154.70968113687545L45.734939759036145,147.33931991672094L47.49397590361446,142.87392698250792L49.25301204819277,140.62461240140587L51.01204819277108,130.14030718594668L52.77108433734939,119.89900961536657L54.5301204819277,114.9354675302887L56.28915662650603,111.26788761811781L58.048192771084345,106.31459272432848L59.807228915662655,99.49505484603623L61.566265060240966,92.33570128220991L63.325301204819276,88.05164851572992L65.0843373493976,82.63964191342689L66.8433734939759,77.6757132412372L68.60240963855422,74.12308009394978L70.36144578313252,70.08234743794354L72.12048192771084,67.20635202929793L73.87951807228914,63.45626857336235L75.63855421686748,60.04440692336996L77.39759036144578,57.57656423311429L79.1566265060241,54.40454646906449L80.9156626506024,50.84620681907444L82.67469879518072,48.20809032333061L84.43373493975903,45.568467642915586L86.19277108433735,43.94570876382595L87.95180722891567,42.499500105437626L89.71084337349397,39.475146708089596L91.46987951807229,37.33262664885276L93.22891566265059,35.005010405017515L94.98795180722892,32.69612080785964L96.74698795180721,31.216240270690342L98.50602409638554,28.96382522928802L100.26506024096386,27.56811975402949L102.02409638554217,26.136018836559682L103.78313253012048,23.910504573615963L105.54216867469879,21.811785230484777L107.3012048192771,20.587838752106226L109.06024096385543,19.142228888678833L110.81927710843372,17.918097969809384L112.57831325301206,17.130735803147942L114.33734939759034,16.012875887319474L116.09638554216869,15.304681154926374L117.855421686747,14.576764791647374L119.61445783132531,13.953918555280723L121.37349397590361,13.339413182356571L123.13253012048193,13.086714358249333L124.89156626506023,13.701336237651045L126.65060240963857,13.098209432000521L128.40963855421685,12.299145297456128L130.1686746987952,12.018355686605062L131.9277108433735,11.688232197821407L133.6867469879518,10.896081361244573L135.44578313253012,10.440793743187966L137.20481927710844,9.513669657418095L138.96385542168676,9.044526869887376L140.72289156626505,8.691988788759268L142.48192771084337,8.204174166443021L144.24096385542168,8.60543326709676L146,7.788643588025963L147.75903614457832,8.566314952249417L149.5180722891566,8.86589871557934L151.27710843373495,8.10884068549554L153.03614457831324,7.971192376318981L154.79518072289156,7.214399466322152L156.55421686746988,6.529114247147644L158.3132530120482,6.464856714338032L160.0722891566265,6.305530064972117L161.8313253012048,6.818662391208738L163.59036144578312,6.297215105219879L165.34939759036146,6.10316108889813L167.10843373493975,6.11285792817293L168.86746987951807,6.451097079527889L170.6265060240964,6.704843743999739L172.3855421686747,6.447003839293949L174.14457831325302,6.050985038173105L175.90361445783134,6.149888683072765L177.66265060240963,5.75485112787304L179.42168674698794,5.496459394527967L181.1807228915663,4.973526775123715L182.93975903614458,4.861181436943717L184.6987951807229,4.566816389204733L186.45783132530124,4.3002589345457665L188.21686746987956,4.395987514247233L189.97590361445785,4.554909777761109L191.73493975903614,4.424320380686045L193.49397590361448,4.339777431736444L195.2530120481928,3.926117789608674L197.01204819277112,4.057187944764341L198.7710843373494,4.007325653917885L200.53012048192772,4.130724389959498L202.28915662650604,3.736814427878068L204.04819277108436,3.452350432275442L205.80722891566268,3.3247823649363895L207.56626506024097,3.3441049472920876L209.3253012048193,3.530152384912835L211.0843373493976,3.1929752383052374L212.84337349397592,3.000015327606656L214.60240963855426,2.9296232588545927L216.36144578313255,2.750303622434695L218.12048192771087,2.486793125804508L219.87951807228916,2.8549530171767765L221.6385542168675,2.77117559059524L223.39759036144585,2.505693769352616L225.1566265060241,2.8720679205317654L226.9156626506024,2.7656051875814893L228.67469879518075,2.6270617889959684L230.4337349397591,2.6641351732909984L232.19277108433738,2.546668854850078L233.95180722891564,2.808042475776208L235.710843373494,3.129000897479235L237.46987951807233,3.0825425880422905L239.22891566265065,2.9899080526166215L240.98795180722894,2.906023933890536L242.74698795180723,2.6278046623115525L244.50602409638557,2.9826433545251767L246.2650602409639,2.8994454949620407L248.02409638554218,2.7482595407486943L249.78313253012053,2.6534921322723006L251.54216867469881,2.3991275162153807L253.30120481927713,2.602202507441792L255.06024096385542,2.656071143767868L256.81927710843377,2.603721826178364L258.5783132530121,2.4664246778720385L260.3373493975904,2.301966106769126L262.09638554216866,2.0808072440357073L263.85542168674704,2.08279823420672L265.61445783132535,2.008754087966233L267.37349397590367,1.9164219114478058L269.13253012048193,1.984505694912185L270.89156626506025,1.9955934742356018L272.65060240963857,1.8033750652712244L274.40963855421694,1.9327021236506705L276.1686746987952,1.872836290645739L277.9277108433735,1.6922137186897057L279.68674698795184,1.8657510399001098L281.44578313253015,1.6857977559101753L283.20481927710847,1.5228431303063867L284.96385542168673,1.5438304443578421L286.72289156626505,1.7735215138880538L288.4819277108434,2.0236528694871043L290.2409638554217,2.117725087710565L292.00000000000006,2.2510679589891676L293.7590361445783,2.203266068707381L295.51807228915663,2.1359011889019373L297.277108433735,1.9304291313978237L299.03614457831327,1.9466250616516638L300.7951807228916,1.7590323108661572L302.5542168674699,1.9262578323132824L304.3132530120482,1.9091379915349935L306.07228915662654,1.8936353164577386L307.83132530120486,1.9638715416495562L309.5903614457832,1.8589241597887352L311.3493975903615,1.896321611853479L313.10843373493975,1.9157393887763816L314.8674698795181,1.7310641485837341L316.62650602409644,1.7660923912704227L318.3855421686747,1.5955530296504405L320.144578313253,1.441123070023101L321.90361445783134,1.3012807942551663L323.66265060240966,1.2589227211494562L325.42168674698803,1.1362913615823178L327.1807228915663,1.1937929287128792L328.9397590361446,1.0773138263960806L330.6987951807229,1.1403864991013914L332.45783132530124,1.085135242905516L334.21686746987956,0.9789201073733119L335.9759036144579,0.8827382115114063L337.73493975903614,0.7956418005689088L339.4939759036145,0.7167726461211141L341.2530120481928,0.6453535892786629L343.01204819277115,0.7702984910172104L344.77108433734946,0.6938233033509419L346.5301204819277,0.725701466629469L348.28915662650604,0.7166448495902151L350.04819277108436,0.6452378647084582L351.8072289156627,0.6817054807141342L353.56626506024105,0.6768047899050279L355.32530120481925,0.6091611563218499L357.08433734939763,0.7646130785277051L358.84337349397595,0.6886749435113254L360.60240963855426,0.8727335147426062L362.3614457831326,0.8588174418145609L364.12048192771084,1.0268040997311847L365.87951807228916,1.1283577928388118L367.63855421686753,1.3551577608968168L369.3975903614458,1.2234358975293258L371.1566265060241,1.1041566771578906L372.9156626506025,0.9961447492296261L374.67469879518075,0.8983357885521721L376.43373493975906,0.8659490025481847L378.1927710843374,0.8436443948451652L379.9518072289157,0.8613702350734758L381.7108433734941,0.7762922753276346L383.4698795180723,0.699250906107192L385.2289156626506,0.6926928483472081L386.98795180722897,0.6235484052511177L388.7469879518072,0.5609354490151637L390.5060240963856,0.5042370056827714L392.26506024096386,0.5161002507886795L394.0240963855422,0.4636370069175886L395.78313253012055,0.4161295190346419L397.5421686746988,0.44534493816138L399.3012048192772,0.39956534628038143L401.06024096385545,0.3581101626866815L402.8192771084337,0.3205708973464211L404.5783132530121,0.2865776468013078L406.33734939759034,0.2557954492236837L408.0963855421687,0.22792098377790693L409.85542168674704,0.20267958176520684L411.6144578313253,0.1798225201004463L413.37349397590367,0.1591245704507106L415.13253012048193,0.14038177988610212L416.8915662650603,0.12340946117377538L418.6506024096386,0.1080403729111361L420.4096385542168,0.09412307156731636L422.1686746987952,0.08152041919223985L423.9277108433735,0.07010823209048245L425.68674698795184,0.05977405714308459L427.44578313253015,0.05041606371976137L429.2048192771084,0.04194204026294712L430.9638554216868,0.03426848565593399L432.7228915662651,0.027319786421457715L434.4819277108434,0.021027471643756956L436.24096385542174,0.015329538271559695L438,0.01016984015383715L438,1.5466450824072977L436.24096385542174,1.6004038665726985L434.4819277108434,1.7714492418107453L432.7228915662651,1.880566738906666L430.9638554216868,2.001066856164984L429.2048192771084,2.134136974575874L427.44578313253015,2.2013178160262123L425.68674698795184,2.3792083218502467L423.9277108433735,2.296458698458827L422.1686746987952,2.4284344854998072L420.4096385542168,2.5741773611797023L418.6506024096386,2.7351234429398126L416.8915662650603,2.838406170861154L415.13253012048193,2.6599709529107343L413.37349397590367,2.6623485213312876L411.6144578313253,2.8324922006577675L409.85542168674704,2.992464779887709L408.0963855421687,2.862008434331006L406.33734939759034,3.0948592131096135L404.5783132530121,3.142602263794395L402.8192771084337,3.2511650080094956L401.06024096385545,3.501344354278298L399.3012048192772,3.711145790068908L397.5421686746988,4.009308151572897L395.78313253012055,3.873245357978552L394.0240963855422,4.2016122650362755L392.26506024096386,4.42064591370157L390.5060240963856,4.726344531413522L388.7469879518072,4.665079574756585L386.98795180722897,5.016218983852017L385.2289156626506,5.450520395955752L383.4698795180723,5.650929249330098L381.7108433734941,5.68611258863749L379.9518072289157,6.097228518935656L378.1927710843374,6.5279637127539525L376.43373493975906,7.026897562663601L374.67469879518075,7.6244106312612425L372.9156626506025,8.344081322322644L371.1566265060241,8.660201522576665L369.3975903614458,6.496526468614864L367.63855421686753,6.508239772854008L365.87951807228916,5.888328819124248L364.12048192771084,5.669079732497592L362.3614457831326,5.5665580321989285L360.60240963855426,5.27385808135371L358.84337349397595,4.850911907259987L357.08433734939763,4.895706836886324L355.32530120481925,4.852108953224461L353.56626506024105,4.803963144943225L351.8072289156627,4.910336036561692L350.04819277108436,4.708723159153493L348.28915662650604,4.5658495030326L346.5301204819277,4.767039289954352L344.77108433734946,4.989216242088366L343.01204819277115,4.875602295025032L341.2530120481928,5.053264660581505L339.4939759036145,5.398364895573442L337.73493975903614,5.593333135192478L335.9759036144579,5.510829590899767L334.21686746987956,5.6430771280527745L332.45783132530124,5.863572588502695L330.6987951807229,6.1303354928598495L328.9397590361446,6.215528220125682L327.1807228915663,6.588804675244745L325.42168674698803,6.721822735425909L323.66265060240966,7.092074070866951L321.90361445783134,7.277590810179093L320.144578313253,7.642000821197056L318.3855421686747,7.986409433334292L316.62650602409644,8.376897732668164L314.8674698795181,8.83603960498466L313.10843373493975,8.980121105361654L311.3493975903615,9.17645874958661L309.5903614457832,8.127585109972955L307.83132530120486,8.700318289772508L306.07228915662654,8.830241986714144L304.3132530120482,8.638682509713698L302.5542168674699,9.264730955075445L300.7951807228916,9.211560920027786L299.03614457831327,8.87364760281236L297.277108433735,8.207992842266945L295.51807228915663,8.789113791020313L293.7590361445783,8.36990653853695L292.00000000000006,8.316458267715628L290.2409638554217,8.29466077161622L288.4819277108434,7.712195772970034L286.72289156626505,7.869335072706035L284.96385542168673,7.800895798989988L283.20481927710847,8.060353486612645L281.44578313253015,8.235197834157438L279.68674698795184,8.260763004271544L277.9277108433735,7.212092826704762L276.1686746987952,7.348085634167171L274.40963855421694,7.616147695002453L272.65060240963857,7.786534135235818L270.89156626506025,8.044493709024634L269.13253012048193,8.267318661926835L267.37349397590367,8.296234528685888L265.61445783132535,8.607363665612787L263.85542168674704,8.79140724707054L262.09638554216866,9.09214673230225L260.3373493975904,9.374622948321493L258.5783132530121,10.021602096828303L256.81927710843377,10.736071103418329L255.06024096385542,10.464121731082688L253.30120481927713,10.107964462306505L251.54216867469881,9.630895411746623L249.78313253012053,8.406068173927444L248.02409638554218,8.616975979334686L246.2650602409639,8.682366487831558L244.50602409638557,9.033775318775131L242.74698795180723,9.10275911423979L240.98795180722894,9.149025008607707L239.22891566265065,9.628884239123533L237.46987951807233,10.238570872868008L235.710843373494,10.380053028079047L233.95180722891564,10.536293978473315L232.19277108433738,10.746059614255065L230.4337349397591,10.754349175692935L228.67469879518075,11.38394225908688L226.9156626506024,11.644904566105545L225.1566265060241,12.235553428069242L223.39759036144585,12.02695684057113L221.6385542168675,12.665215570685715L219.87951807228916,13.08310154049186L218.12048192771087,12.497587347908246L216.36144578313255,12.911947302173038L214.60240963855426,12.699456003725345L212.84337349397592,13.09764801928342L211.0843373493976,13.537378022052428L209.3253012048193,14.395244105749335L207.56626506024097,14.560843056033042L205.80722891566268,14.874009697097042L204.04819277108436,14.196113980326661L202.28915662650604,14.117581140128477L200.53012048192772,14.477575818172436L198.7710843373494,15.061257802045647L197.01204819277112,14.626252660189971L195.2530120481928,14.853177722389823L193.49397590361448,14.452305290100488L191.73493975903614,14.381883498346511L189.97590361445785,14.583317789143312L188.21686746987956,14.76853856976612L186.45783132530124,15.196444535990885L184.6987951807229,16.227398676575156L182.93975903614458,17.05567522912941L181.1807228915663,16.605351822790784L179.42168674698794,16.82601039422179L177.66265060240963,17.003210678160144L175.90361445783134,17.03602517173155L174.14457831325302,17.235135841478396L172.3855421686747,17.982419286032602L170.6265060240964,19.144493702275035L168.86746987951807,19.231168604085635L167.10843373493975,18.44934652392509L165.34939759036146,19.10171796856215L163.59036144578312,19.702486820580905L161.8313253012048,20.396961683998146L160.0722891566265,20.76056779093451L158.3132530120482,21.115573844753538L156.55421686746988,21.996280886792178L154.79518072289156,22.71291687373286L153.03614457831324,22.533633944480755L151.27710843373495,22.654781672222615L149.5180722891566,23.2539913244779L147.75903614457832,22.891789372723856L146,23.217872938054924L144.24096385542168,24.52751001838066L142.48192771084337,25.01631195680242L140.72289156626505,26.07924395654882L138.96385542168676,27.049200638850497L137.20481927710844,28.01401199490071L135.44578313253012,29.0263479046264L133.6867469879518,29.40615051221684L131.9277108433735,30.104957520493144L130.1686746987952,30.87674223390463L128.40963855421685,31.86882407486452L126.65060240963857,31.660685711775944L124.89156626506023,31.98963744843738L123.13253012048193,31.98037368855945L121.37349397590361,33.327547416651L119.61445783132531,34.85546462112605L117.855421686747,35.98407391293191L116.09638554216869,36.951146342444844L114.33734939759034,38.78826690124715L112.57831325301206,39.888804650074135L110.81927710843372,39.92185925905224L109.06024096385543,41.636791810392204L107.3012048192771,44.874349752774236L105.54216867469879,47.518301633860595L103.78313253012048,49.133115731081965L102.02409638554217,52.69063431132379L100.26506024096386,55.68789028051721L98.50602409638554,59.0559318743287L96.74698795180721,62.161292804425514L94.98795180722892,65.87362657808661L93.22891566265059,67.8928577067979L91.46987951807229,68.84182291190908L89.71084337349397,71.22471486012076L87.95180722891567,74.28067049319255L86.19277108433735,77.02706979447579L84.43373493975903,78.29558469314361L82.67469879518072,78.6526466233077L80.9156626506024,81.11457113742571L79.1566265060241,85.43723191192849L77.39759036144578,88.055393276635L75.63855421686748,92.90932268768077L73.87951807228914,98.21252625314162L72.12048192771084,103.76141927029839L70.36144578313252,108.52864226808842L68.60240963855422,115.80341712312091L66.8433734939759,121.15898901259155L65.0843373493976,129.52747146942076L63.325301204819276,133.65559929478135L61.566265060240966,138.3201520672241L59.807228915662655,143.7067906923083L58.048192771084345,147.23595525836535L56.28915662650603,150.62886308612852L54.5301204819277,152.85112997541003L52.77108433734939,157.42428972690706L51.01204819277108,164.5335932245776L49.25301204819277,170.29924102621428L47.49397590361446,174.8072456793716L45.734939759036145,180.60095133894515L43.975903614457835,186.7913724164389L42.21686746987952,191.36330030631134L40.45783132530121,191.52112322383533L38.69879518072289,193.77184642225185L36.93975903614458,199.56568596383966L35.18072289156627,203.15135421470745L33.42168674698795,206.92792595778477L31.66265060240964,207.03601654716044L29.90361445783133,207.4951290570287L28.144578313253014,208.83268573975985L26.3855421686747,213.99374920255886L24.626506024096386,214.3429376695641L22.867469879518072,214.75160058520362L21.10843373493976,217.54526868588175L19.34939759036145,219.66947245881678L17.590361445783135,220.82766106460812L15.83132530120482,221.94651146206664L14.072289156626507,222.2962116221641L12.313253012048195,222.33207678037206L10.55421686746988,222.63224485603212L8.795180722891565,222.82332574965554L7.0361445783132535,222.72021664505164L5.27710843373494,222.8377331433717L3.5180722891566267,222.83771026650675L1.7590361445783131,222.39897118613194L0,221.0784307090177Z" class="rv-xy-plot__series rv-xy-plot__series--line" transform="translate(42,5)" style="opacity: 1; stroke: rgba(83, 135, 221, 0); fill: rgba(83, 135, 221, 0.1);"/><path d="M0,220.25710296394163L1.7590361445783131,221.429927903121L3.5180722891566267,221.83074873021855L5.27710843373494,221.68068289340692L7.0361445783132535,221.70704268400635L8.795180722891565,221.59327204401885L10.55421686746988,221.37991217010315L12.313253012048195,221.01798827632945L14.072289156626507,220.69713694670716L15.83132530120482,220.00670961379174L17.590361445783135,219.01569118944408L19.34939759036145,217.23564917001283L21.10843373493976,215.2775058673607L22.867469879518072,212.5895731100343L24.626506024096386,209.72355986360935L26.3855421686747,207.15812934903866L28.144578313253014,202.2240917159293L29.90361445783133,200.09744379844165L31.66265060240964,197.6007453149998L33.42168674698795,193.7035747285957L35.18072289156627,190.41529336841265L36.93975903614458,186.72916035058222L38.69879518072289,181.69129503892745L40.45783132530121,177.95645220004658L42.21686746987952,175.5487913132446L43.975903614457835,169.347038113014L45.734939759036145,163.17649185279978L47.49397590361446,158.24818793182797L49.25301204819277,154.9809153631754L51.01204819277108,147.23533366951548L52.77108433734939,139.3652586980763L54.5301204819277,134.2856844687445L56.28915662650603,131.9737512759239L58.048192771084345,127.13313560688553L59.807228915662655,121.565444720697L61.566265060240966,115.39705935217566L63.325301204819276,110.88517193463377L65.0843373493976,105.68074498159115L66.8433734939759,99.0677453775474L68.60240963855422,95.00162924217283L70.36144578313252,89.27588091553008L72.12048192771084,85.70780047666835L73.87951807228914,81.05212310770999L75.63855421686748,76.52864922594857L77.39759036144578,72.94167566377917L79.1566265060241,69.63527445613913L80.9156626506024,66.00276477273903L82.67469879518072,63.25794455929164L84.43373493975903,61.654281618411744L86.19277108433735,59.87215030335789L87.95180722891567,57.63280913265646L89.71084337349397,54.84471902270075L91.46987951807229,52.42979577557639L93.22891566265059,50.39666501795154L94.98795180722892,48.24376357751297L96.74698795180721,45.66178128577943L98.50602409638554,42.87727572782788L100.26506024096386,40.51255105219454L102.02409638554217,38.22042322615836L103.78313253012048,35.32922506439828L105.54216867469879,33.32069477470696L107.3012048192771,31.618568226162992L109.06024096385543,29.41042397155529L110.81927710843372,28.036354016459825L112.57831325301206,27.57094212034787L114.33734939759034,26.3238918141346L116.09638554216869,25.285975583455826L117.855421686747,24.594443368387328L119.61445783132531,23.928207185843544L121.37349397590361,22.882365696900873L123.13253012048193,22.026271873199814L124.89156626506023,22.26969922699611L126.65060240963857,21.82244713384558L128.40963855421685,21.646393938805822L130.1686746987952,21.072398908818695L131.9277108433735,20.400910249352012L133.6867469879518,19.6285013070696L135.44578313253012,19.033306658184337L137.20481927710844,18.05497781663304L138.96385542168676,17.287761392527067L140.72289156626505,16.517596549078508L142.48192771084337,15.828924971255148L144.24096385542168,15.753807251266542L146,14.90224933925289L147.75903614457832,15.159539931859703L149.5180722891566,15.611673213419326L151.27710843373495,14.994622343122705L153.03614457831324,14.844609168346379L154.79518072289156,14.621139295814974L156.55421686746988,13.91039499395632L158.3132530120482,13.571634857074626L160.0722891566265,13.294381086255255L161.8313253012048,13.360787646719759L163.59036144578312,12.789875485525135L165.34939759036146,12.534508104881395L167.10843373493975,12.13932089640724L168.86746987951807,12.4752287387491L170.6265060240964,12.497011065635625L172.3855421686747,11.843171984825346L174.14457831325302,11.336049395978364L175.90361445783134,11.216623282595567L177.66265060240963,11.10847929234035L179.42168674698794,10.966406137480046L181.1807228915663,10.609001759628699L182.93975903614458,10.798045594157955L184.6987951807229,10.303377667314699L186.45783132530124,9.61431462436309L188.21686746987956,9.503025737356879L189.97590361445785,9.409473481308606L191.73493975903614,9.34843619849545L193.49397590361448,9.321256748019026L195.2530120481928,9.307881555948109L197.01204819277112,9.281723901906819L198.7710843373494,9.3732137502479L200.53012048192772,9.148072756904948L202.28915662650604,8.898230999336853L204.04819277108436,8.999459688580991L205.80722891566268,9.140085869456422L207.56626506024097,9.003366042167507L209.3253012048193,8.97507289143858L211.0843373493976,8.439588596807607L212.84337349397592,8.181761725979893L214.60240963855426,7.9549783063986L216.36144578313255,7.898101692477571L218.12048192771087,7.586549702117216L219.87951807228916,7.995481011731977L221.6385542168675,7.790307461045754L223.39759036144585,7.364398882776002L225.1566265060241,7.738131405522783L226.9156626506024,7.333538448823849L228.67469879518075,7.100599040970122L230.4337349397591,6.79870040019483L232.19277108433738,6.66225076817158L233.95180722891564,6.73711887299706L235.710843373494,6.791270340348318L237.46987951807233,6.623600428836187L239.22891566265065,6.294390945700592L240.98795180722894,6.034403371729252L242.74698795180723,5.846930911527367L244.50602409638557,5.968717295801817L246.2650602409639,5.78698148768043L248.02409638554218,5.5797403868370195L249.78313253012053,5.3916743093445465L251.54216867469881,5.665219192186015L253.30120481927713,5.902891904860332L255.06024096385542,6.161856172637912L256.81927710843377,6.300847131562488L258.5783132530121,5.9079522499354375L260.3373493975904,5.572503733462006L262.09638554216866,5.413212813113888L263.85542168674704,5.287696430464321L265.61445783132535,5.155710155884462L267.37349397590367,5.035790200442775L269.13253012048193,5.110194150350617L270.89156626506025,5.0133013797095956L272.65060240963857,4.873123776043895L274.40963855421694,4.8202287356951015L276.1686746987952,4.6031792696337615L277.9277108433735,4.520470089872918L279.68674698795184,4.892362379209686L281.44578313253015,4.7636088649732455L283.20481927710847,4.596452901074882L284.96385542168673,4.450705041109893L286.72289156626505,4.64739529107863L288.4819277108434,4.7313993610209915L290.2409638554217,4.920636892347483L292.00000000000006,5.002707926059276L293.7590361445783,5.0320800085501025L295.51807228915663,5.132116764405825L297.277108433735,4.755983712334602L299.03614457831327,5.03927955808856L300.7951807228916,5.205654521728094L302.5542168674699,5.300130461063743L304.3132530120482,5.008453370515685L306.07228915662654,5.074738059895077L307.83132530120486,5.080451168897399L309.5903614457832,4.74290833247348L311.3493975903615,5.138735131784323L313.10843373493975,5.0892428606698035L314.8674698795181,4.925036837076844L316.62650602409644,4.746243925601125L318.3855421686747,4.462744003899777L320.144578313253,4.203470134342462L321.90361445783134,3.9652218263012418L323.66265060240966,3.8172997096662256L325.42168674698803,3.5728573120313545L327.1807228915663,3.540654724618775L328.9397590361446,3.3429450556551346L330.6987951807229,3.3324603218786635L332.45783132530124,3.2054498933378888L334.21686746987956,3.045022471020416L335.9759036144579,2.9222224596672453L337.73493975903614,2.9121517112153628L339.4939759036145,2.8019028694764807L341.2530120481928,2.623412104172046L343.01204819277115,2.620498802959493L344.77108433734946,2.646152847578049L346.5301204819277,2.582701237842892L348.28915662650604,2.474076705342704L350.04819277108436,2.5767678682766553L351.8072289156627,2.7486155178043132L353.56626506024105,2.654817816001498L355.32530120481925,2.6411123959931024L357.08433734939763,2.769159097670478L358.84337349397595,2.728600545986959L360.60240963855426,3.0149254361682116L362.3614457831326,3.063517420702488L364.12048192771084,3.212862449598427L365.87951807228916,3.29813739033085L367.63855421686753,3.8256237067818737L369.3975903614458,3.690888237453553L371.1566265060241,4.357485027213763L372.9156626506025,4.1444176496579255L374.67469879518075,3.773296578084045L376.43373493975906,3.516155885422011L378.1927710843374,3.2996917916106376L379.9518072289157,3.129358872623313L381.7108433734941,2.9103047566733533L383.4698795180723,2.9125963711764213L385.2289156626506,2.8233741497151716L386.98795180722897,2.5979087801313803L388.7469879518072,2.4246418516270243L390.5060240963856,2.411008611593214L392.26506024096386,2.2824847804530033L394.0240963855422,2.1586773199547284L395.78313253012055,1.9751322312937916L397.5421686746988,2.1460230536185882L399.3012048192772,1.9917648031950037L401.06024096385545,1.8962217980365788L402.8192771084337,1.7414817191086347L404.5783132530121,1.6968697092584712L406.33734939759034,1.6171437197663017L408.0963855421687,1.4817428965248556L409.85542168674704,1.506612597758806L411.6144578313253,1.402721331643297L413.37349397590367,1.3283078371250883L415.13253012048193,1.3508163436490583L416.8915662650603,1.3639751352856861L418.6506024096386,1.2876033645762233L420.4096385542168,1.1959725868925624L422.1686746987952,1.1270431373617669L423.9277108433735,1.0505791173644783L425.68674698795184,1.1049405909984902L427.44578313253015,1.0137095119258857L429.2048192771084,1.0045354565752984L430.9638554216868,0.9300123236305878L432.7228915662651,0.8625287565793706L434.4819277108434,0.8014197875652956L436.24096385542174,0.7220048362214004L438,0.6838013361144238" class="rv-xy-plot__series rv-xy-plot__series--line" transform="translate(42,5)" style="opacity: 1; stroke-width: 1.5; stroke: rgb(83, 135, 221);"/><g class="rv-xy-plot__series rv-xy-plot__series--mark" transform="translate(42,5)"><circle r="2" cx="438" cy="0.6838013361144238" style="opacity: 1; stroke: rgb(83, 135, 221); fill: rgb(83, 135, 221); stroke-width: 1;"/></g><g class="rv-xy-plot__series rv-xy-plot__series--mark" transform="translate(42,5)"><circle r="2" cx="438" cy="2.1576441054353994" style="opacity: 1; stroke: rgb(218, 76, 76); fill: rgb(218, 76, 76); stroke-width: 1;"/></g><defs class="rv-gradient-defs"><linearGradient id="leftFadeGradient" x1="0" x2="1" y1="0" y2="0"><stop offset="0%" stop-color="white" stop-opacity="1"/><stop offset="60%" stop-color="white" stop-opacity="1"/><stop offset="100%" stop-color="white" stop-opacity="0"/></linearGradient><linearGradient id="rightFadeGradient" x1="1" x2="0" y1="0" y2="0"><stop offset="0%" stop-color="white" stop-opacity="1"/><stop offset="100%" stop-color="white" stop-opacity="0"/></linearGradient><linearGradient id="bottomFadeGradient" x1="0" x2="0" y1="1" y2="0"><stop offset="0%" stop-color="white" stop-opacity="1"/><stop offset="40%" stop-color="white" stop-opacity="1"/><stop offset="100%" stop-color="white" stop-opacity="0"/></linearGradient><linearGradient id="topFadeGradient" x1="0" x2="0" y1="0" y2="1"><stop offset="0%" stop-color="white" stop-opacity="1"/><stop offset="100%" stop-color="white" stop-opacity="0"/></linearGradient></defs><g class="rv-xy-plot__borders plot-border"><rect class="rv-xy-plot__borders-bottom plot-border-bottom" x="0" y="228" width="500" height="30" style="fill: url(&quot;#bottomFadeGradient&quot;); opacity: 1;"/><rect class="rv-xy-plot__borders-left plot-border-left" x="0" y="0" width="42" height="258" style="fill: url(&quot;#leftFadeGradient&quot;); opacity: 1;"/><rect class="rv-xy-plot__borders-right plot-border-right" x="480" y="0" width="20" height="258" style="fill: url(&quot;#rightFadeGradient&quot;); opacity: 1;"/><rect class="rv-xy-plot__borders-top plot-border-top" x="0" y="0" width="500" height="5" style="fill: url(&quot;#topFadeGradient&quot;); opacity: 1;"/></g><g transform="translate(42,117.37251081916367)" class="rv-xy-plot__axis rv-xy-plot__axis--horizontal"><line x1="0" x2="438" y1="0" y2="0" class="rv-xy-plot__axis__line"/><g transform="translate(0, 0)" class="rv-xy-plot__axis__ticks"/></g><g transform="translate(42,228)" class="rv-xy-plot__axis rv-xy-plot__axis--horizontal" style="font-family: &quot;Source Sans Pro&quot;; fill: rgb(107, 107, 118); font-size: 14px;"><line x1="0" x2="438" y1="0" y2="0" class="rv-xy-plot__axis__line" style="font-family: &quot;Source Sans Pro&quot;; fill: rgb(107, 107, 118); font-size: 14px; stroke-width: 0;"/><g transform="translate(0, 0)" class="rv-xy-plot__axis__ticks"><g transform="translate(86.8664799428941, 0)" class="rv-xy-plot__axis__tick" style="font-family: &quot;Source Sans Pro&quot;; fill: rgb(107, 107, 118); font-size: 14px;"><line x1="0" x2="0" y1="-6" y2="6" class="rv-xy-plot__axis__tick__line" style="font-family: &quot;Source Sans Pro&quot;; fill: rgb(107, 107, 118); font-size: 14px; stroke-width: 0;"/><text text-anchor="middle" dy="0.72em" transform="translate(0, 14)" class="rv-xy-plot__axis__tick__text" style="font-family: sans-serif; fill: rgb(107, 107, 118); font-size: 14px;">2M</text></g><g transform="translate(174.8849611713403, 0)" class="rv-xy-plot__axis__tick" style="font-family: &quot;Source Sans Pro&quot;; fill: rgb(107, 107, 118); font-size: 14px;"><line x1="0" x2="0" y1="-6" y2="6" class="rv-xy-plot__axis__tick__line" style="font-family: &quot;Source Sans Pro&quot;; fill: rgb(107, 107, 118); font-size: 14px; stroke-width: 0;"/><text text-anchor="middle" dy="0.72em" transform="translate(0, 14)" class="rv-xy-plot__axis__tick__text" style="font-family: sans-serif; fill: rgb(107, 107, 118); font-size: 14px;">4M</text></g><g transform="translate(262.90344239978657, 0)" class="rv-xy-plot__axis__tick" style="font-family: &quot;Source Sans Pro&quot;; fill: rgb(107, 107, 118); font-size: 14px;"><line x1="0" x2="0" y1="-6" y2="6" class="rv-xy-plot__axis__tick__line" style="font-family: &quot;Source Sans Pro&quot;; fill: rgb(107, 107, 118); font-size: 14px; stroke-width: 0;"/><text text-anchor="middle" dy="0.72em" transform="translate(0, 14)" class="rv-xy-plot__axis__tick__text" style="font-family: sans-serif; fill: rgb(107, 107, 118); font-size: 14px;">6M</text></g><g transform="translate(350.9219236282328, 0)" class="rv-xy-plot__axis__tick" style="font-family: &quot;Source Sans Pro&quot;; fill: rgb(107, 107, 118); font-size: 14px;"><line x1="0" x2="0" y1="-6" y2="6" class="rv-xy-plot__axis__tick__line" style="font-family: &quot;Source Sans Pro&quot;; fill: rgb(107, 107, 118); font-size: 14px; stroke-width: 0;"/><text text-anchor="middle" dy="0.72em" transform="translate(0, 14)" class="rv-xy-plot__axis__tick__text" style="font-family: sans-serif; fill: rgb(107, 107, 118); font-size: 14px;">8M</text></g></g><g transform="translate(0, 0)" class="rv-xy-plot__axis__title"><g transform="translate(432, -6) rotate(0)" style="text-anchor: end; font-family: &quot;Source Sans Pro&quot;; fill: rgb(107, 107, 118); font-size: 14px;"><text style="font-family: sans-serif; fill: rgb(107, 107, 118); font-size: 14px;"> Steps</text></g></g></g><g transform="translate(42,228)" class="rv-xy-plot__axis rv-xy-plot__axis--horizontal"><line x1="0" x2="0" y1="0" y2="0" class="rv-xy-plot__axis__line"/><g transform="translate(0, 0)" class="rv-xy-plot__axis__ticks"><g transform="translate(86.8664799428941, 0)" class="rv-xy-plot__axis__tick"><line x1="0" x2="0" y1="-6" y2="6" class="rv-xy-plot__axis__tick__line"/><text text-anchor="middle" dy="0.72em" transform="translate(0, 14)" class="rv-xy-plot__axis__tick__text" style="font-family: sans-serif;"/></g><g transform="translate(174.8849611713403, 0)" class="rv-xy-plot__axis__tick"><line x1="0" x2="0" y1="-6" y2="6" class="rv-xy-plot__axis__tick__line"/><text text-anchor="middle" dy="0.72em" transform="translate(0, 14)" class="rv-xy-plot__axis__tick__text" style="font-family: sans-serif;"/></g><g transform="translate(262.90344239978657, 0)" class="rv-xy-plot__axis__tick"><line x1="0" x2="0" y1="-6" y2="6" class="rv-xy-plot__axis__tick__line"/><text text-anchor="middle" dy="0.72em" transform="translate(0, 14)" class="rv-xy-plot__axis__tick__text" style="font-family: sans-serif;"/></g><g transform="translate(350.9219236282328, 0)" class="rv-xy-plot__axis__tick"><line x1="0" x2="0" y1="-6" y2="6" class="rv-xy-plot__axis__tick__line"/><text text-anchor="middle" dy="0.72em" transform="translate(0, 14)" class="rv-xy-plot__axis__tick__text" style="font-family: sans-serif;"/></g></g></g><g transform="translate(0,5)" class="rv-xy-plot__axis rv-xy-plot__axis--vertical" style="font-family: &quot;Source Sans Pro&quot;; fill: rgb(107, 107, 118); font-size: 14px;"><line x1="42" x2="42" y1="0" y2="223" class="rv-xy-plot__axis__line" style="font-family: &quot;Source Sans Pro&quot;; fill: rgb(107, 107, 118); font-size: 14px; stroke: none;"/><g transform="translate(42, 0)" class="rv-xy-plot__axis__ticks"><g transform="translate(0, 219.4313713167472)" class="rv-xy-plot__axis__tick" style="font-family: &quot;Source Sans Pro&quot;; fill: rgb(107, 107, 118); font-size: 14px;"><line y1="0" y2="0" x1="6" x2="-6" class="rv-xy-plot__axis__tick__line" style="font-family: &quot;Source Sans Pro&quot;; fill: rgb(107, 107, 118); font-size: 14px; stroke: none;"/><text text-anchor="end" dy="0.32em" transform="translate(-14, 0)" class="rv-xy-plot__axis__tick__text" style="font-family: sans-serif; fill: rgb(107, 107, 118); font-size: 14px;">-20</text></g><g transform="translate(0, 165.90194106795545)" class="rv-xy-plot__axis__tick" style="font-family: &quot;Source Sans Pro&quot;; fill: rgb(107, 107, 118); font-size: 14px;"><line y1="0" y2="0" x1="6" x2="-6" class="rv-xy-plot__axis__tick__line" style="font-family: &quot;Source Sans Pro&quot;; fill: rgb(107, 107, 118); font-size: 14px; stroke: none;"/><text text-anchor="end" dy="0.32em" transform="translate(-14, 0)" class="rv-xy-plot__axis__tick__text" style="font-family: sans-serif; fill: rgb(107, 107, 118); font-size: 14px;">-10</text></g><g transform="translate(0, 112.37251081916367)" class="rv-xy-plot__axis__tick" style="font-family: &quot;Source Sans Pro&quot;; fill: rgb(107, 107, 118); font-size: 14px;"><line y1="0" y2="0" x1="6" x2="-6" class="rv-xy-plot__axis__tick__line" style="font-family: &quot;Source Sans Pro&quot;; fill: rgb(107, 107, 118); font-size: 14px; stroke: none;"/><text text-anchor="end" dy="0.32em" transform="translate(-14, 0)" class="rv-xy-plot__axis__tick__text" style="font-family: sans-serif; fill: rgb(107, 107, 118); font-size: 14px;">0</text></g><g transform="translate(0, 58.84308057037192)" class="rv-xy-plot__axis__tick" style="font-family: &quot;Source Sans Pro&quot;; fill: rgb(107, 107, 118); font-size: 14px;"><line y1="0" y2="0" x1="6" x2="-6" class="rv-xy-plot__axis__tick__line" style="font-family: &quot;Source Sans Pro&quot;; fill: rgb(107, 107, 118); font-size: 14px; stroke: none;"/><text text-anchor="end" dy="0.32em" transform="translate(-14, 0)" class="rv-xy-plot__axis__tick__text" style="font-family: sans-serif; fill: rgb(107, 107, 118); font-size: 14px;">10</text></g><g transform="translate(0, 5.313650321580138)" class="rv-xy-plot__axis__tick" style="font-family: &quot;Source Sans Pro&quot;; fill: rgb(107, 107, 118); font-size: 14px;"><line y1="0" y2="0" x1="6" x2="-6" class="rv-xy-plot__axis__tick__line" style="font-family: &quot;Source Sans Pro&quot;; fill: rgb(107, 107, 118); font-size: 14px; stroke: none;"/><text text-anchor="end" dy="0.32em" transform="translate(-14, 0)" class="rv-xy-plot__axis__tick__text" style="font-family: sans-serif; fill: rgb(107, 107, 118); font-size: 14px;">20</text></g></g><g transform="translate(42, 0)" class="rv-xy-plot__axis__title"><g transform="translate(16, 6) rotate(-90)" style="text-anchor: end; font-family: &quot;Source Sans Pro&quot;; fill: rgb(107, 107, 118); font-size: 14px;"><text style="font-family: sans-serif; fill: rgb(107, 107, 118); font-size: 14px;">Episodic Return</text></g></g></g></svg></g><style xmlns="http://www.w3.org/1999/xhtml">/*&lt;![CDATA[*/<br />text { font-size: 10px; fill: black }<br />.react-vis-magic-css-import-rule{display:inherit}.rv-treemap{font-size:12px;position:relative}.rv-treemap__leaf{overflow:hidden;position:absolute}.rv-treemap__leaf--circle{align-items:center;border-radius:100%;display:flex;justify-content:center}.rv-treemap__leaf__content{overflow:hidden;padding:10px;text-overflow:ellipsis}.rv-xy-plot{color:#c3c3c3;position:relative}.rv-xy-plot canvas{pointer-events:none}.rv-xy-plot .rv-xy-canvas{pointer-events:none;position:absolute}.rv-xy-plot__inner{display:block}.rv-xy-plot__axis__line{fill:none;stroke-width:2px;stroke:#e6e6e9}.rv-xy-plot__axis__tick__line{stroke:#e6e6e9}.rv-xy-plot__axis__tick__text{fill:#6b6b76;font-size:11px}.rv-xy-plot__axis__title text{fill:#6b6b76;font-size:11px}.rv-xy-plot__grid-lines__line{stroke:#e6e6e9}.rv-xy-plot__circular-grid-lines__line{fill-opacity:0;stroke:#e6e6e9}.rv-xy-plot__series,.rv-xy-plot__series path{pointer-events:all}.rv-xy-plot__series--line{fill:none;stroke:#000;stroke-width:2px}.rv-crosshair{position:absolute;font-size:11px;pointer-events:none}.rv-crosshair__line{background:#47d3d9;width:1px}.rv-crosshair__inner{position:absolute;text-align:left;top:0}.rv-crosshair__inner__content{border-radius:4px;background:#3a3a48;color:#fff;font-size:12px;padding:7px 10px;box-shadow:0 2px 4px rgba(0,0,0,0.5)}.rv-crosshair__inner--left{right:4px}.rv-crosshair__inner--right{left:4px}.rv-crosshair__title{font-weight:bold;white-space:nowrap}.rv-crosshair__item{white-space:nowrap}.rv-hint{position:absolute;pointer-events:none}.rv-hint__content{border-radius:4px;padding:7px 10px;font-size:12px;background:#3a3a48;box-shadow:0 2px 4px rgba(0,0,0,0.5);color:#fff;text-align:left;white-space:nowrap}.rv-discrete-color-legend{box-sizing:border-box;overflow-y:auto;font-size:12px}.rv-discrete-color-legend.horizontal{white-space:nowrap}.rv-discrete-color-legend-item{color:#3a3a48;border-radius:1px;padding:9px 10px}.rv-discrete-color-legend-item.horizontal{display:inline-block}.rv-discrete-color-legend-item.horizontal .rv-discrete-color-legend-item__title{margin-left:0;display:block}.rv-discrete-color-legend-item__color{display:inline-block;vertical-align:middle;overflow:visible}.rv-discrete-color-legend-item__color__path{stroke:#dcdcdc;stroke-width:2px}.rv-discrete-color-legend-item__title{margin-left:10px}.rv-discrete-color-legend-item.disabled{color:#b8b8b8}.rv-discrete-color-legend-item.clickable{cursor:pointer}.rv-discrete-color-legend-item.clickable:hover{background:#f9f9f9}.rv-search-wrapper{display:flex;flex-direction:column}.rv-search-wrapper__form{flex:0}.rv-search-wrapper__form__input{width:100%;color:#a6a6a5;border:1px solid #e5e5e4;padding:7px 10px;font-size:12px;box-sizing:border-box;border-radius:2px;margin:0 0 9px;outline:0}.rv-search-wrapper__contents{flex:1;overflow:auto}.rv-continuous-color-legend{font-size:12px}.rv-continuous-color-legend .rv-gradient{height:4px;border-radius:2px;margin-bottom:5px}.rv-continuous-size-legend{font-size:12px}.rv-continuous-size-legend .rv-bubbles{text-align:justify;overflow:hidden;margin-bottom:5px;width:100%}.rv-continuous-size-legend .rv-bubble{background:#d8d9dc;display:inline-block;vertical-align:bottom}.rv-continuous-size-legend .rv-spacer{display:inline-block;font-size:0;line-height:0;width:100%}.rv-legend-titles{height:16px;position:relative}.rv-legend-titles__left,.rv-legend-titles__right,.rv-legend-titles__center{position:absolute;white-space:nowrap;overflow:hidden}.rv-legend-titles__center{display:block;text-align:center;width:100%}.rv-legend-titles__right{right:0}.rv-radial-chart .rv-xy-plot__series--label{pointer-events:none}<br /><br />/*]]&gt;*/</style></svg>