<svg xmlns="http://www.w3.org/2000/svg" viewBox="0 0 499.9999694824219 300"><g><text x="50%" y="0" style="fill: rgb(54, 58, 61); dominant-baseline: text-before-edge; text-anchor: middle; font-weight: bold; font-size: 13px; font-family: sans-serif;">PongNoFrameskip-v4</text><svg viewBox="0 0 1024 1024" x="69.09661865234375" y="25.90625" height="11" width="11"><path d="M128 533.333h768c23.564 0 42.667-19.103 42.667-42.667v-85.333c0-23.564-19.103-42.667-42.667-42.667h-768c-23.564 0-42.667 19.103-42.667 42.667v85.333c0 23.564 19.103 42.667 42.667 42.667z" style="fill: rgb(56, 116, 216);"/></svg><text x="88.09661865234375" y="23.90625" style="fill: rgb(56, 116, 216); dominant-baseline: text-before-edge; font-size: 11px; font-family: sans-serif;">our PPO-LSTM</text><svg viewBox="0 0 1024 1024" x="205.16192626953125" y="25.90625" height="11" width="11"><path d="M128 533.333h768c23.564 0 42.667-19.103 42.667-42.667v-85.333c0-23.564-19.103-42.667-42.667-42.667h-768c-23.564 0-42.667 19.103-42.667 42.667v85.333c0 23.564 19.103 42.667 42.667 42.667z" style="fill: rgb(215, 62, 62);"/></svg><text x="224.16192626953125" y="23.90625" style="fill: rgb(215, 62, 62); dominant-baseline: text-before-edge; font-size: 11px; font-family: sans-serif;">openai/baselines' PPO-LSTM</text></g><g transform="translate(0, 41.50567626953125)"><svg class="rv-xy-plot__inner" width="500" height="258"><g transform="translate(42,5)" class="rv-xy-plot__grid-lines"><line y1="219.7508764446266" y2="219.7508764446266" x1="0" x2="438" class="rv-xy-plot__grid-lines__line" style="stroke-width: 0.5;"/><line y1="165.8490294617137" y2="165.8490294617137" x1="0" x2="438" class="rv-xy-plot__grid-lines__line" style="stroke-width: 0.5;"/><line y1="111.94718247880077" y2="111.94718247880077" x1="0" x2="438" class="rv-xy-plot__grid-lines__line" style="stroke-width: 0.5;"/><line y1="58.045335495887855" y2="58.045335495887855" x1="0" x2="438" class="rv-xy-plot__grid-lines__line" style="stroke-width: 0.5;"/><line y1="4.143488512974941" y2="4.143488512974941" x1="0" x2="438" class="rv-xy-plot__grid-lines__line" style="stroke-width: 0.5;"/></g><path d="M0,219.33624685245036L1.7590361445783127,220.7661359514293L3.5180722891566263,220.6133771135808L5.27710843373494,220.88275600281656L7.036144578313253,220.96443030297033L8.795180722891565,220.85077703292086L10.554216867469878,220.9144440860191L12.313253012048193,220.46037335742687L14.072289156626505,220.61216484341222L15.831325301204819,220.62999029496217L17.59036144578313,220.5049793031383L19.349397590361445,219.91492060836327L21.10843373493976,217.85606475410992L22.867469879518072,215.46630536644224L24.626506024096386,211.22133849039912L26.385542168674696,208.07415011375582L28.14457831325301,204.42911939489886L29.90361445783132,194.2397897657088L31.66265060240963,185.825609422021L33.421686746987945,179.50579144937703L35.18072289156626,170.7048746226894L36.93975903614457,159.76314194376L38.69879518072289,153.50441350152124L40.4578313253012,146.45418690856945L42.21686746987952,133.58944325191692L43.975903614457835,129.17378553040592L45.73493975903614,123.23541255549837L47.49397590361446,111.96427374421646L49.25301204819277,103.43805791347054L51.01204819277108,94.86637955397075L52.77108433734939,90.36587416883683L54.53012048192771,83.858642235122L56.28915662650602,77.8317449117086L58.04819277108433,71.99487810678635L59.80722891566264,66.78155314556405L61.56626506024095,61.06782289500959L63.32530120481926,55.55028689532555L65.08433734939759,52.14332599781057L66.84337349397589,50.2859868439009L68.60240963855422,46.73302958541212L70.36144578313252,44.81564925128298L72.12048192771084,41.34422327222686L73.87951807228914,38.5031627937695L75.63855421686746,35.112593678663465L77.39759036144578,34.728613334365015L79.15662650602408,33.09539685854666L80.9156626506024,31.019865654602548L82.6746987951807,27.945660043919894L84.43373493975903,26.779317876460944L86.19277108433734,24.75421115498161L87.95180722891567,22.858916564480484L89.71084337349397,21.208843796795623L91.46987951807228,19.588397416328288L93.2289156626506,19.145693170274964L94.98795180722892,18.087740031787135L96.74698795180723,16.879025261502846L98.50602409638554,15.58662721605742L100.26506024096385,15.268430993751645L102.02409638554217,14.980473952671723L103.78313253012047,14.294458088601429L105.54216867469879,13.843687341141518L107.3012048192771,13.282612868288428L109.06024096385542,12.247600341225619L110.81927710843372,11.553600008589944L112.57831325301204,10.937516604499441L114.33734939759034,10.294822457759624L116.09638554216866,9.628033026091792L117.85542168674696,9.211298522255305L119.61445783132528,8.986929557050605L121.37349397590359,8.783797794297179L123.1325301204819,8.536188251230174L124.89156626506022,8.375703046817597L126.65060240963852,8.230400333383034L128.40963855421683,7.844094509164269L130.16867469879514,8.003788231173752L131.9277108433735,7.857274324218993L133.68674698795178,7.724614343772635L135.4457831325301,7.53172759488344L137.20481927710844,7.575375882926558L138.96385542168676,7.633088942750368L140.72289156626505,7.812678999502276L142.48192771084337,7.364117564186699L144.24096385542168,7.059811511065526L146,7.4633146172061L147.7590361445783,6.8950129806189535L149.5180722891566,6.210661170972029L151.27710843373492,6.206329019045781L153.03614457831324,6.5206856226684655L154.79518072289156,6.296099233654559L156.55421686746985,6.601965755276902L158.31325301204816,6.539448469515747L160.07228915662648,6.6525780442274876L161.8313253012048,6.211856473114758L163.5903614457831,6.412510325426201L165.3493975903614,6.4244716087057165L167.10843373493972,6.208990834760741L168.86746987951807,6.2684667737146915L170.62650602409636,7.187955863349275L172.38554216867468,7.104032349337086L174.144578313253,7.163821149916789L175.90361445783134,7.169467638180124L177.66265060240963,7.189128858187597L179.42168674698794,7.919789474788964L181.18072289156626,7.902517142195843L182.93975903614458,7.547423104798736L184.69879518072287,7.819915421718676L186.45783132530116,9.085021040059612L188.21686746987947,9.551715789749128L189.9759036144578,9.2105613708715L191.7349397590361,8.731909432841395L193.4939759036144,8.662168408804327L195.25301204819272,8.308059746065684L197.01204819277103,8.848144356969902L198.77108433734935,8.74317752859534L200.53012048192764,8.308679256640042L202.28915662650596,7.915225203285868L204.0481927710843,7.940815225450628L205.80722891566262,7.391172759548547L207.5662650602409,7.084389394638337L209.32530120481923,7.061169798777628L211.08433734939754,7.231081575981071L212.84337349397586,7.2634371255800705L214.60240963855415,7.223304370585298L216.36144578313247,7.747046533888879L218.12048192771078,7.10114752148685L219.87951807228907,6.567178242071087L221.63855421686742,6.236398823150957L223.39759036144574,5.911407199704668L225.15662650602408,5.744406512088219L226.91566265060237,5.76290308400652L228.6746987951807,5.8645134355939526L230.43373493975903,5.701942530399818L232.19277108433732,5.554728374504274L233.95180722891564,5.251698431332357L235.71084337349393,5.40159793230522L237.46987951807228,5.410046272769422L239.22891566265056,5.1885720965330675L240.9879518072289,5.599017269346039L242.74698795180717,5.607001541552094L244.50602409638552,5.323279989328188L246.2650602409638,5.784645984866675L248.02409638554215,6.138784937552097L249.78313253012044,6.12002787813619L251.54216867469876,6.369748208457221L253.30120481927705,5.90486971794842L255.0602409638554,5.636653923047058L256.81927710843365,6.004772327044457L258.578313253012,5.942100411585922L260.3373493975903,6.026783319411619L262.0963855421686,6.0186061093988625L263.855421686747,6.205168956383174L265.61445783132524,5.71946807371842L267.37349397590356,5.231155339349343L269.1325301204819,5.332078680738398L270.8915662650602,4.9015745610742645L272.6506024096385,4.829964612747675L274.4096385542168,4.968785026913825L276.1686746987951,4.890826279552381L277.92771084337346,4.311066704464607L279.6867469879517,3.786072095150153L281.4457831325301,3.5652517269842576L283.20481927710836,3.4925816112111514L284.9638554216867,4.063232155915488L286.722891566265,4.070813291328577L288.4819277108433,3.7382350366997743L290.2409638554216,3.7765158850395135L291.99999999999994,3.7384428256683537L293.7590361445782,3.394830380411016L295.5180722891566,3.295828115955616L297.2771084337349,3.291038567043236L299.03614457831316,3.0660633317629684L300.79518072289153,2.849610471365695L302.55421686746985,2.780895290178099L304.3132530120481,3.1132738245929374L306.0722891566265,3.2105894379467173L307.8313253012048,3.362358082164907L309.5903614457831,2.9269799558797174L311.34939759036143,2.94006019093672L313.1084337349397,2.5445729536893786L314.86746987951807,2.35616565212775L316.62650602409633,2.1176669361415783L318.38554216867465,2.3090290557848285L320.14457831325296,2.4823148247122386L321.9036144578313,2.5119405461130913L323.6626506024096,2.258727103212412L325.4216867469879,2.3519036584147224L327.1807228915662,2.139265781482174L328.93975903614455,2.023088723976229L330.6987951807228,1.8415111949882284L332.45783132530113,1.804376964661746L334.21686746987945,1.6689175168813013L335.97590361445776,1.6990032280382419L337.7349397590361,1.4207480822536236L339.4939759036144,1.4233597611408557L341.2530120481927,1.4893703443858166L343.01204819277103,1.5703606722548926L344.77108433734935,1.4739789136448447L346.53012048192767,1.5079312475632747L348.289156626506,1.3495580174269233L350.04819277108425,1.3306074790590898L351.8072289156626,1.2568731635478947L353.5662650602409,1.1658579554524935L355.3253012048192,1.0652557199856616L357.0843373493975,1.0165869260805938L358.84337349397583,1.1664830238081665L360.60240963855415,1.1082521483428462L362.36144578313247,1.0894661717986454L364.1204819277107,0.8687888033330328L365.8795180722891,0.7707899186877646L367.63855421686736,0.5802151827733729L369.3975903614458,0.7713316038381873L371.15662650602405,0.750427318833851L372.9156626506024,0.5617760644093426L374.6746987951807,0.5606667071126537L376.43373493975906,0.55966214135504L378.19277108433727,0.38903084914877595L379.9518072289157,0.4042392616246474L381.7108433734939,0.7574543032705071L383.4698795180723,1.162164936714369L385.2289156626506,1.3306374464927129L386.9879518072289,1.4508678651409581L388.7469879518072,1.6033838418286754L390.50602409638554,1.9706171185787715L392.2650602409638,1.6667049222984294L394.0240963855422,1.5303638667214579L395.78313253012044,1.3953298613076326L397.54216867469876,1.145760154359514L399.3012048192771,1.1234311158422594L401.0602409638554,1.0013783399914638L402.8192771084337,0.7890218792473929L404.578313253012,0.5967249253911096L406.3373493975903,0.49533046437050254L408.09638554216866,0.40351387483082624L409.8554216867469,0.3042064530681573L411.61445783132524,0.41228831363375473L413.37349397590367,0.3192237794740531L415.1325301204819,0.3749705953222139L416.89156626506025,0.22178554111572757L418.6506024096385,0.42251381308899216L420.4096385542169,0.36667072736395767L422.16867469879514,0.21426969102216242L423.9277108433735,0.14900251984753055L425.6867469879518,0.10202355545778496L427.44578313253015,0.14434310343647572L429.2048192771084,0.1826650840181333L430.96385542168673,0.1494784657026862L432.72289156626505,0.017593733188880023L434.48192771084337,0L436.2409638554217,0.027710899061080596L438,0.03461972621936016L438,9.499845848885514L436.2409638554217,9.77745639990587L434.48192771084337,10.177739054992886L432.72289156626505,10.582292064800345L430.96385542168673,11.093306529862947L429.2048192771084,11.256000086168859L427.44578313253015,10.873386540922102L425.6867469879518,11.387991434440474L423.9277108433735,11.468969418947593L422.16867469879514,11.670850347485713L420.4096385542169,12.268642885933058L418.6506024096385,10.867106393760718L416.89156626506025,11.287343085048915L415.1325301204819,11.357821910746676L413.37349397590367,11.210741344596224L411.61445783132524,10.261128099577256L409.8554216867469,10.899291268271458L408.09638554216866,11.322885333151666L406.3373493975903,10.047603304112124L404.578313253012,10.382353316933349L402.8192771084337,9.988930584298656L401.0602409638554,9.848994701760338L399.3012048192771,10.256739893511575L397.54216867469876,10.5731432926113L395.78313253012044,10.541006254610062L394.0240963855422,10.271234115442914L392.2650602409638,10.535599147633642L390.50602409638554,10.75257101744672L388.7469879518072,10.486125694252657L386.9879518072289,10.360569614414445L385.2289156626506,10.540540615427801L383.4698795180723,10.982939364764423L381.7108433734939,10.75926759318048L379.9518072289157,10.999571495265728L378.19277108433727,10.777634708692924L376.43373493975906,10.43883344123681L374.6746987951807,11.095533989323911L372.9156626506024,11.171955515646616L371.15662650602405,11.81141879711268L369.3975903614458,11.808045912265666L367.63855421686736,12.420150042345432L365.8795180722891,12.640928122657897L364.1204819277107,13.077517933883604L362.36144578313247,12.978629584819476L360.60240963855415,13.900269630701334L358.84337349397583,14.275446772144262L357.0843373493975,13.575244256569537L355.3253012048192,13.856272163924805L353.5662650602409,14.532096611029898L351.8072289156626,14.491229928933775L350.04819277108425,14.12479821471203L348.289156626506,13.591621275045997L346.53012048192767,14.014927186665258L344.77108433734935,14.388677277752912L343.01204819277103,14.951356147125612L341.2530120481927,15.516503157465934L339.4939759036144,15.738976108370906L337.7349397590361,16.498739606224497L335.97590361445776,16.007032189111012L334.21686746987945,16.588589235174183L332.45783132530113,15.075410540805956L330.6987951807228,15.010894289405782L328.93975903614455,14.859322504497374L327.1807228915662,15.696008267631983L325.4216867469879,16.057694598205448L323.6626506024096,15.332553276870522L321.9036144578313,16.031178058235238L320.14457831325296,12.866730360476009L318.38554216867465,13.425273539961074L316.62650602409633,13.643800672347465L314.86746987951807,13.58055598205318L313.1084337349397,13.862137988379471L311.34939759036143,14.17309329631287L309.5903614457831,14.282203266589107L307.8313253012048,14.777547430380142L306.0722891566265,15.155879991072688L304.3132530120481,15.836075065936685L302.55421686746985,14.947245791296936L300.79518072289153,15.270987529549913L299.03614457831316,15.64456557571963L297.2771084337349,13.845484557927294L295.5180722891566,13.1707152030926L293.7590361445782,12.987835654005995L291.99999999999994,13.769866451338554L290.2409638554216,14.02433989753547L288.4819277108433,14.49278500018116L286.722891566265,15.010096083831177L284.9638554216867,15.511085795852853L283.20481927710836,15.684798348532373L281.4457831325301,16.51388084085172L279.6867469879517,15.780098768399645L277.92771084337346,15.307139168037345L276.1686746987951,15.768830215890107L274.4096385542168,16.606678562461685L272.6506024096385,15.938804527710719L270.8915662650602,16.32581829093695L269.1325301204819,16.022241265716723L267.37349397590356,15.668253886366614L265.61445783132524,16.083272977087038L263.855421686747,17.188205419950982L262.0963855421686,16.674706548110834L260.3373493975903,15.920215623621457L258.578313253012,15.930437855598585L256.81927710843365,16.316578944951527L255.0602409638554,16.220884444459145L253.30120481927705,16.98093844818748L251.54216867469876,16.970611925606363L249.78313253012044,17.40903131509571L248.02409638554215,17.949412498703193L246.2650602409638,17.562175536745247L244.50602409638552,17.415683300485203L242.74698795180717,18.462809718749902L240.9879518072289,18.83197681673522L239.22891566265056,19.12719792358161L237.46987951807228,19.485345423608088L235.71084337349393,20.66402812993224L233.95180722891564,20.84110688914L232.19277108433732,21.739507188097946L230.43373493975903,19.264233386297402L228.6746987951807,20.06842668273166L226.91566265060237,19.368069215983507L225.15662650602408,19.911995281945835L223.39759036144574,19.120348500594353L221.63855421686742,18.995827569341493L219.87951807228907,19.70173803165741L218.12048192771078,20.340716096313084L216.36144578313247,21.655487727744916L214.60240963855415,21.889135182057746L212.84337349397586,22.05344228308991L211.08433734939754,23.21888274362918L209.32530120481923,23.85927333113136L207.5662650602409,24.51023910669074L205.80722891566262,21.761698878436484L204.0481927710843,20.948798100018987L202.28915662650596,20.372402979282658L200.53012048192764,20.26603397428064L198.77108433734935,21.05759686104729L197.01204819277103,20.994590435400703L195.25301204819272,20.128438171761783L193.4939759036144,20.202791108185703L191.7349397590361,21.268905769498943L189.9759036144578,21.087369662032227L188.21686746987947,21.230518041630493L186.45783132530116,21.32612275711652L184.69879518072287,19.18252609277562L182.93975903614458,19.064488126735203L181.18072289156626,20.058730365157594L179.42168674698794,19.750946929477784L177.66265060240963,19.754682998614154L175.90361445783134,20.01764694928204L174.144578313253,20.127303368756415L172.38554216867468,20.85756787359269L170.62650602409636,21.396251098944813L168.86746987951807,20.57195663233908L167.10843373493972,21.1611825112883L165.3493975903614,20.20524357254667L163.5903614457831,20.98115313787013L161.8313253012048,20.957027489301765L160.07228915662648,21.586447440392078L158.31325301204816,22.442210748716303L156.55421686746985,22.476789564599063L154.79518072289156,20.85467347680815L153.03614457831324,21.393109430723648L151.27710843373492,22.068071366800243L149.5180722891566,20.98570366348596L147.7590361445783,20.49338265085474L146,20.32462388074947L144.24096385542168,20.606941749364548L142.48192771084337,21.34055845506958L140.72289156626505,21.635161110743166L138.96385542168676,22.335502410290516L137.20481927710844,23.671455109587715L135.4457831325301,23.459313612964653L133.68674698795178,24.490757299240194L131.9277108433735,25.864312327233776L130.16867469879514,27.568846342022567L128.40963855421683,29.029426686833744L126.65060240963852,29.601616157060253L124.89156626506022,29.633345990713252L123.1325301204819,31.410295640082232L121.37349397590359,33.13173990172252L119.61445783132528,35.22074687619804L117.85542168674696,37.27796193629053L116.09638554216866,38.4868463701833L114.33734939759034,41.02879050283308L112.57831325301204,44.24901845542847L110.81927710843372,47.0317996883773L109.06024096385542,49.14821598421629L107.3012048192771,51.17639140447804L105.54216867469879,53.83978950059261L103.78313253012047,57.44009840507297L102.02409638554217,61.136084790343055L100.26506024096385,64.27984494634512L98.50602409638554,68.76939329708274L96.74698795180723,71.58578805515657L94.98795180722892,73.2301880542755L93.2289156626506,75.8708677080132L91.46987951807228,80.72764531722571L89.71084337349397,82.44764320466737L87.95180722891567,87.35373223945427L86.19277108433734,92.13134325555617L84.43373493975903,96.39474408544375L82.6746987951807,99.94353147256251L80.9156626506024,103.7881383355902L79.15662650602408,107.92820115976315L77.39759036144578,114.55747033328267L75.63855421686746,117.22522130503297L73.87951807228914,116.52902222518553L72.12048192771084,117.47139960358854L70.36144578313252,120.9752214946703L68.60240963855422,123.94098770722044L66.84337349397589,129.6214360131901L65.08433734939759,129.4942247333911L63.32530120481926,134.83418089045642L61.56626506024095,139.34766899887995L59.80722891566264,144.3284730668988L58.04819277108433,148.4084084382854L56.28915662650602,153.1406335219514L54.53012048192771,159.75226662460295L52.77108433734939,164.83293907709617L51.01204819277108,168.276069672435L49.25301204819277,173.31079478536944L47.49397590361446,176.9885408387187L45.73493975903614,182.56275946438987L43.975903614457835,187.36946715474298L42.21686746987952,190.5864548184792L40.4578313253012,195.9078649034443L38.69879518072289,200.5269938598272L36.93975903614457,204.2870856080133L35.18072289156626,207.03188093330834L33.421686746987945,212.6643281230517L31.66265060240963,216.63195647191662L29.90361445783132,219.87193658966274L28.14457831325301,221.26743567171067L26.385542168674696,222.05523959749132L24.626506024096386,222.62506450180533L22.867469879518072,222.93632964065242L21.10843373493976,222.8776013869664L19.349397590361445,223L17.59036144578313,222.90562071693188L15.831325301204819,222.9583046611506L14.072289156626505,222.74077644774007L12.313253012048193,222.7969074181803L10.554216867469878,222.71688967040342L8.795180722891565,222.5709974800125L7.036144578313253,222.60434411689366L5.27710843373494,222.7207881344104L3.5180722891566263,222.31488422836017L1.7590361445783127,222.41245964536813L0,222.14651408831162Z" class="rv-xy-plot__series rv-xy-plot__series--line" transform="translate(42,5)" style="opacity: 1; stroke: rgba(83, 135, 221, 0); fill: rgba(83, 135, 221, 0.1);"/><path d="M0,220.41121246179617L1.7590361445783127,221.41650969305903L3.5180722891566263,221.25951791680637L5.27710843373494,221.63798007244625L7.036144578313253,221.64548687298478L8.795180722891565,221.6576156336241L10.554216867469878,221.7213040095583L12.313253012048193,221.45980334935038L14.072289156626505,221.5369139105618L15.831325301204819,221.71977184748053L17.59036144578313,221.6439456244104L19.349397590361445,221.32547039921337L21.10843373493976,220.26041124463072L22.867469879518072,218.6312306706968L24.626506024096386,216.30016984189731L26.385542168674696,214.53595403587428L28.14457831325301,212.3981837764743L29.90361445783132,208.0331665383284L31.66265060240963,200.88061239158063L33.421686746987945,195.73894484949852L35.18072289156626,188.1719073136444L36.93975903614457,182.23850265008159L38.69879518072289,177.1436403216334L40.4578313253012,170.4844030817591L42.21686746987952,163.5435905408117L43.975903614457835,158.95871064137015L45.73493975903614,153.23099600378717L47.49397590361446,143.52922729167994L49.25301204819277,136.67230058954024L51.01204819277108,130.02113062233454L52.77108433734939,126.1375784885949L54.53012048192771,121.28478653174044L56.28915662650602,115.21287922017922L58.04819277108433,110.23918478157512L59.80722891566264,105.37286882598296L61.56626506024095,99.93728051866589L63.32530120481926,96.18640148793911L65.08433734939759,92.49857598178436L66.84337349397589,90.445871979401L68.60240963855422,85.31635901465977L70.36144578313252,83.21924365974547L72.12048192771084,80.24071329566794L73.87951807228914,77.31384103353518L75.63855421686746,74.7253677552253L77.39759036144578,72.7193398639116L79.15662650602408,68.5058879520124L80.9156626506024,64.9268705773065L82.6746987951807,62.15283114369243L84.43373493975903,59.416052259253846L86.19277108433734,56.0752354804769L87.95180722891567,52.731129944380804L89.71084337349397,50.0109687405828L91.46987951807228,48.20905395818907L93.2289156626506,45.61517495813691L94.98795180722892,43.53150360800628L96.74698795180723,41.867487666152975L98.50602409638554,40.1706841285931L100.26506024096385,37.81230754462721L102.02409638554217,36.23974687066847L103.78313253012047,34.22097424806565L105.54216867469879,32.195368438503436L107.3012048192771,30.509369463317356L109.06024096385542,29.037128901183948L110.81927710843372,27.929947101789647L112.57831325301204,26.18945589704812L114.33734939759034,24.351840803666377L116.09638554216866,22.89767650095071L117.85542168674696,22.135076366767922L119.61445783132528,21.004815868715188L121.37349397590359,19.982481758251787L123.1325301204819,19.09228567695032L124.89156626506022,18.158320230596026L126.65060240963852,17.923337480227083L128.40963855421683,17.377792833123394L130.16867469879514,16.865649621522337L131.9277108433735,16.033204188543124L133.68674698795178,15.357298844031579L135.4457831325301,14.745096888711384L137.20481927710844,14.671031432510775L138.96385542168676,14.143130123824545L140.72289156626505,13.919793816699883L142.48192771084337,13.584579663174994L144.24096385542168,13.023568641381157L146,13.199073917315795L147.7590361445783,12.994224885103412L149.5180722891566,12.978489236158673L151.27710843373492,13.183503387711596L153.03614457831324,13.008428373066478L154.79518072289156,12.78927256796545L156.55421686746985,13.421357843083083L158.31325301204816,13.443069353612259L160.07228915662648,13.13840478215113L161.8313253012048,12.632974390781701L163.5903614457831,12.670227369118615L165.3493975903614,12.483304896610445L167.10843373493972,12.825399469125898L168.86746987951807,12.5710151818232L170.62650602409636,13.32613639987573L172.38554216867468,13.00343792931648L174.144578313253,12.81710433915836L175.90361445783134,12.779711781872818L177.66265060240963,12.70422779916388L179.42168674698794,13.121350086842865L181.18072289156626,13.368404631511012L182.93975903614458,12.77985713065218L184.69879518072287,12.883381152892037L186.45783132530116,14.365240022226063L188.21686746987947,14.593391964770602L189.9759036144578,14.280444256038786L191.7349397590361,14.052691171292143L193.4939759036144,13.591461999753738L195.25301204819272,13.509613943052589L197.01204819277103,14.21299475025299L198.77108433734935,14.33389059858089L200.53012048192764,13.809731784422127L202.28915662650596,13.703763605338619L204.0481927710843,13.93661047708966L205.80722891566262,13.80458100669508L207.5662650602409,14.60051674411506L209.32530120481923,14.534075800793914L211.08433734939754,14.302369935916975L212.84337349397586,13.856868690929423L214.60240963855415,13.727320946540416L216.36144578313247,13.9563250843398L218.12048192771078,13.142534363183309L219.87951807228907,12.56119485364772L221.63855421686742,12.122459725616393L223.39759036144574,11.835487824432452L225.15662650602408,11.983214038069839L226.91566265060237,11.73566218854525L228.6746987951807,12.010153975804808L230.43373493975903,11.5852842298391L232.19277108433732,12.268382304126463L233.95180722891564,11.698900359959893L235.71084337349393,11.706521821088437L237.46987951807228,11.204257786384789L239.22891566265056,10.86703146635136L240.9879518072289,11.090222332723783L242.74698795180717,10.894696298096854L244.50602409638552,10.352738159980113L246.2650602409638,10.797262419550359L248.02409638554215,11.399219243806039L249.78313253012044,11.262598610138939L251.54216867469876,11.205155674076005L253.30120481927705,11.051507910280925L255.0602409638554,10.544172146317955L256.81927710843365,10.691178439059856L258.578313253012,10.506406866824129L260.3373493975903,10.527668754217236L262.0963855421686,10.773217780614806L263.855421686747,11.003653850239397L265.61445783132524,10.301078861471895L267.37349397590356,9.868132081663251L269.1325301204819,9.961001141855256L270.8915662650602,9.950336391561246L272.6506024096385,9.910977760855207L274.4096385542168,10.149316238425454L276.1686746987951,9.74363639995677L277.92771084337346,9.257068444029082L279.6867469879517,9.198336124377176L281.4457831325301,9.343968525056221L283.20481927710836,8.99132940636281L284.9638554216867,9.263198138794557L286.722891566265,9.106296862102598L288.4819277108433,8.778937267012534L290.2409638554216,8.578676141296217L291.99999999999994,8.497548563156974L293.7590361445782,7.888248989118735L295.5180722891566,7.9022435246630875L297.2771084337349,8.003817920150214L299.03614457831316,8.39402258994521L300.79518072289153,8.17253696138827L302.55421686746985,8.14048252378678L304.3132530120481,8.58849499086088L306.0722891566265,8.33126295046438L307.8313253012048,8.21147718126919L309.5903614457831,7.8029629706495065L311.34939759036143,7.706208614055915L313.1084337349397,7.468673051680902L314.86746987951807,7.140427704302475L316.62650602409633,7.124643924174578L318.38554216867465,7.137223693503154L320.14457831325296,7.017080902549276L321.9036144578313,8.06663704272977L323.6626506024096,7.701707985493967L325.4216867469879,8.134997963558977L327.1807228915662,7.906460463479671L328.93975903614455,7.597677983376955L330.6987951807228,7.616894837248745L332.45783132530113,7.652480897830813L334.21686746987945,8.446836340436759L335.97590361445776,8.34017723565731L337.7349397590361,8.54909222445674L339.4939759036144,8.16263363198519L341.2530120481927,8.010284950162337L343.01204819277103,7.814743230365689L344.77108433734935,7.592413573574525L346.53012048192767,7.448467578118215L348.289156626506,7.102330019062501L350.04819277108425,7.203764198432145L351.8072289156626,7.294539156840278L353.5662650602409,7.130238930400973L355.3253012048192,6.822647803682891L357.0843373493975,6.6473595105082754L358.84337349397583,6.892728303850862L360.60240963855415,6.671420440881701L362.36144578313247,6.302508325543586L364.1204819277107,6.112707573397935L365.8795180722891,5.858803566418031L367.63855421686736,5.7210183026606085L369.3975903614458,5.53765407115454L371.15662650602405,5.563557766902128L372.9156626506024,5.287981231889783L374.6746987951807,5.319129513172713L376.43373493975906,5.048641256521639L378.19277108433727,5.274295485007757L379.9518072289157,5.47297669237966L381.7108433734939,5.615174262230418L383.4698795180723,5.843886814042763L385.2289156626506,5.741724332196268L386.9879518072289,5.655408456320999L388.7469879518072,5.737471396860229L390.50602409638554,6.002719371650301L392.2650602409638,5.64767366412127L394.0240963855422,5.427411292808738L395.78313253012044,5.388970352974093L397.54216867469876,5.3986115017061245L399.3012048192771,5.275201529707297L401.0602409638554,5.0608078773929375L402.8192771084337,4.974156526911975L404.578313253012,4.928018319238115L406.3373493975903,4.736721730736827L408.09638554216866,5.061345385146247L409.8554216867469,4.984072239729372L411.61445783132524,4.819808642054063L413.37349397590367,5.243872092578809L415.1325301204819,5.479371462568253L416.89156626506025,5.241650624045228L418.6506024096385,5.166203535479593L420.4096385542169,5.480699831994725L422.16867469879514,5.17759151017203L423.9277108433735,5.0617241449892685L425.6867469879518,5.150365248967348L427.44578313253015,4.89684733154103L429.2048192771084,4.954995647730042L430.96385542168673,4.855709928509208L432.72289156626505,4.610628834095161L434.48192771084337,4.498613417446451L436.2409638554217,4.298578964790402L438,4.128350739337715" class="rv-xy-plot__series rv-xy-plot__series--line" transform="translate(42,5)" style="opacity: 1; stroke-width: 1.5; stroke: rgb(83, 135, 221);"/><path d="M0,220.34978585554788L1.7590361445783127,220.68826201907427L3.5180722891566263,221.13539872203853L5.27710843373494,220.8656990053188L7.036144578313253,220.59644941708854L8.795180722891565,220.32383291973082L10.554216867469878,220.04626360699436L12.313253012048193,220.0882688806192L14.072289156626505,219.43744220779118L15.831325301204819,219.07991923029894L17.59036144578313,217.94894545576273L19.349397590361445,216.14512281836937L21.10843373493976,213.5413354380084L22.867469879518072,209.32065203943125L24.626506024096386,205.8437335807178L26.385542168674696,204.29501975650928L28.14457831325301,200.07272383943598L29.90361445783132,197.41229215827877L31.66265060240963,188.97495890931964L33.421686746987945,178.76844019353464L35.18072289156626,171.06062911622436L36.93975903614457,163.90662917668112L38.69879518072289,150.25905800198876L40.4578313253012,140.66139629199424L42.21686746987952,132.70025825514912L43.975903614457835,124.20426278450897L45.73493975903614,115.24684984109933L47.49397590361446,111.52136423114924L49.25301204819277,105.78335427534365L51.01204819277108,102.77546126808971L52.77108433734939,95.98182919206056L54.53012048192771,94.01325051491985L56.28915662650602,88.01250887230988L58.04819277108433,85.81945353551549L59.80722891566264,80.18424887969887L61.56626506024095,74.26055323450879L63.32530120481926,69.29287906754837L65.08433734939759,64.03598711248632L66.84337349397589,58.98592566172212L68.60240963855422,56.04103463357065L70.36144578313252,52.99599073323918L72.12048192771084,50.03262017783092L73.87951807228914,47.11164571142673L75.63855421686746,45.57916700312263L77.39759036144578,42.306330218387096L79.15662650602408,40.50105286069646L80.9156626506024,38.06198658848194L82.6746987951807,36.29768183607724L84.43373493975903,33.74980694274391L86.19277108433734,31.446180353757324L87.95180722891567,29.61928791962259L89.71084337349397,28.052415148972035L91.46987951807228,26.805788711634563L93.2289156626506,24.99599418084937L94.98795180722892,23.12006835436482L96.74698795180723,22.036157391267487L98.50602409638554,20.978747614115196L100.26506024096385,19.792037996701296L102.02409638554217,19.20320275093535L103.78313253012047,18.287426658099342L105.54216867469879,18.3334964666392L107.3012048192771,17.28179923283034L109.06024096385542,16.46346106158835L110.81927710843372,15.516257842041004L112.57831325301204,14.185282359388484L114.33734939759034,13.439317521238191L116.09638554216866,13.23984756658823L117.85542168674696,12.507022843916927L119.61445783132528,12.735563639924424L121.37349397590359,12.068777221344767L123.1325301204819,11.574294034683492L124.89156626506022,11.041670265964541L126.65060240963852,10.771738452037583L128.40963855421683,10.45091535432563L130.16867469879514,10.024578156317496L131.9277108433735,9.774407813629404L133.68674698795178,10.0063615837247L135.4457831325301,10.08903793691801L137.20481927710844,10.418580887680598L138.96385542168676,9.82561470270055L140.72289156626505,9.751725880930277L142.48192771084337,9.900893576704824L144.24096385542168,9.781312894660925L146,9.961629698195607L147.7590361445783,9.513775081175048L149.5180722891566,9.911750115619087L151.27710843373492,10.067000896236264L153.03614457831324,9.761990323730759L154.79518072289156,9.676765089482943L156.55421686746985,9.008519465211771L158.31325301204816,8.676212808403651L160.07228915662648,8.672348563556358L161.8313253012048,8.142660697744944L163.5903614457831,7.866701368616748L165.3493975903614,7.922337517266053L167.10843373493972,8.201858288921521L168.86746987951807,8.242805401414913L170.62650602409636,8.02528644197043L172.38554216867468,7.6585861751408615L174.144578313253,7.665988427287488L175.90361445783134,7.460529937738054L177.66265060240963,6.841673466463363L179.42168674698794,6.162470117131982L181.18072289156626,6.396065867293693L182.93975903614458,6.353004395572352L184.69879518072287,6.398873910935433L186.45783132530116,6.185821636042475L188.21686746987947,6.502071685576979L189.9759036144578,6.958172050777526L191.7349397590361,6.975162534891985L193.4939759036144,7.144108201407841L195.25301204819272,7.284971354751949L197.01204819277103,7.836837765138604L198.77108433734935,8.081987170685874L200.53012048192764,8.445415108267934L202.28915662650596,8.378491295796547L204.0481927710843,8.40275090706721L205.80722891566262,8.679303401845793L207.5662650602409,8.323578774418603L209.32530120481923,8.336053205976006L211.08433734939754,8.194598879169723L212.84337349397586,8.130152652839438L214.60240963855415,8.347593188911627L216.36144578313247,7.5261594411046655L218.12048192771078,7.546070637979203L219.87951807228907,7.56410097889099L221.63855421686742,7.580428134938185L223.39759036144574,7.892226732607621L225.15662650602408,7.843614129312465L226.91566265060237,7.748676955905607L228.6746987951807,7.699076732424393L230.43373493975903,7.66870943715297L232.19277108433732,7.743043853433873L233.95180722891564,8.166772504715855L235.71084337349393,8.295892173455032L237.46987951807228,7.733927558748506L239.22891566265056,7.649351673574023L240.9879518072289,8.263775201544387L242.74698795180717,8.485564853320081L244.50602409638552,8.499709930035229L246.2650602409638,8.3427970778482L248.02409638554215,8.773517370486257L249.78313253012044,8.336157662546286L251.54216867469876,8.25833989098472L253.30120481927705,8.43538374475243L255.0602409638554,8.284547294236841L256.81927710843365,7.893376546371673L258.578313253012,7.844655443741695L260.3373493975903,8.05511913785527L262.0963855421686,7.940203084843052L263.855421686747,8.090724688010617L265.61445783132524,7.845154037755568L267.37349397590356,8.106487106496791L269.1325301204819,8.24130125816368L270.8915662650602,8.74525438205334L272.6506024096385,8.528778208291353L274.4096385542168,8.405488552260893L276.1686746987951,8.342336922893148L277.92771084337346,8.200289870549241L279.6867469879517,7.817078336336067L281.4457831325301,7.661002385511556L283.20481927710836,7.328732762724289L284.9638554216867,7.2824322813568205L286.722891566265,7.422350020569468L288.4819277108433,7.282345497844011L290.2409638554216,6.985844381302567L291.99999999999994,6.921017160554693L293.7590361445782,6.440434138579162L295.5180722891566,6.528960160163759L297.2771084337349,6.594576313310481L299.03614457831316,6.7449165664113115L300.79518072289153,6.626473016045075L302.55421686746985,6.476787414028477L304.3132530120481,6.638254180309737L306.0722891566265,6.826898960960523L307.8313253012048,6.700711233065059L309.5903614457831,6.459152168720347L311.34939759036143,6.410132756384148L313.1084337349397,6.414235682897936L314.86746987951807,6.054261850622943L316.62650602409633,6.12834979126777L318.38554216867465,6.042689815300628L320.14457831325296,6.168787353806863L321.9036144578313,6.31691785535377L323.6626506024096,6.111612487363203L325.4216867469879,6.027533542415819L327.1807228915662,5.922301684747244L328.93975903614455,5.4633209981641055L330.6987951807228,4.956774013400912L332.45783132530113,4.625367425476298L334.21686746987945,5.089013287383876L335.97590361445776,4.999697611491868L337.7349397590361,5.0206517991445745L339.4939759036144,5.156007162418158L341.2530120481927,5.060363145622442L343.01204819277103,4.755540293762694L344.77108433734935,4.761370580122803L346.53012048192767,4.363561282325352L348.289156626506,4.3427728814081314L350.04819277108425,4.105734672899379L351.8072289156626,4.007467985044222L353.5662650602409,3.9354558765524437L355.3253012048192,3.955106948599248L357.0843373493975,4.057762560876249L358.84337349397583,4.320442790810649L360.60240963855415,4.158251752975763L362.36144578313247,3.9531912521703596L364.1204819277107,4.353040657742456L365.8795180722891,4.129580107526432L367.63855421686736,4.046033106531189L369.3975903614458,3.927947674610632L371.15662650602405,3.9483079825512304L372.9156626506024,3.864912053990631L374.6746987951807,3.5093531570452208L376.43373493975906,3.3995329060102035L378.19277108433727,3.6395296775584627L379.9518072289157,3.305260734915442L381.7108433734939,3.384440976625438L383.4698795180723,3.456141735021225L385.2289156626506,3.634217279344084L386.9879518072289,3.597462987363902L388.7469879518072,3.6490413700227364L390.50602409638554,3.441165153225965L392.2650602409638,3.3377860424085415L394.0240963855422,3.0320202520763537L395.78313253012044,2.933345252864048L397.54216867469876,3.160804929843109L399.3012048192771,2.744465824075272L401.0602409638554,2.7311439129269264L402.8192771084337,2.5008668989555933L404.578313253012,2.48630975871626L406.3373493975903,2.2468322153698423L408.09638554216866,2.2805175144809104L409.8554216867469,2.5837877381003174L411.61445783132524,2.476536962583359L413.37349397590367,2.3430483363282315L415.1325301204819,2.1057887052539694L416.89156626506025,1.9345836736124684L418.6506024096385,1.9735184884449521L420.4096385542169,2.2350709550001016L422.16867469879514,2.4789885209777855L423.9277108433735,2.534386692497131L425.6867469879518,2.4318024131714866L427.44578313253015,2.3671953338550566L429.2048192771084,2.2572603415892525L430.96385542168673,2.180853829233345L432.72289156626505,2.1116647895892076L434.48192771084337,1.7944290207431397L436.2409638554217,1.8466030523806112L438,2.1908614809485467L438,9.026564258589074L436.2409638554217,9.254804317109265L434.48192771084337,9.707667054811049L432.72289156626505,10.006956529118202L430.96385542168673,10.363024577628373L429.2048192771084,11.01181710396517L427.44578313253015,9.978977633590008L425.6867469879518,8.151167939506585L423.9277108433735,8.475516976846126L422.16867469879514,8.83370056859194L420.4096385542169,9.010584305322466L418.6506024096385,8.715041640138926L416.89156626506025,8.468994867959175L415.1325301204819,8.695299782348476L413.37349397590367,9.045172379084738L411.61445783132524,9.119165070135312L409.8554216867469,9.638204067638299L408.09638554216866,9.461682057066033L406.3373493975903,9.903995098916306L404.578313253012,10.22376458436518L402.8192771084337,10.29575164589911L401.0602409638554,9.43811718592809L399.3012048192771,9.803001582473161L397.54216867469876,9.924809728810164L395.78313253012044,9.965611236633455L394.0240963855422,9.823242790253243L392.2650602409638,9.994018946999226L390.50602409638554,10.379407145922077L388.7469879518072,10.842482450154927L386.9879518072289,11.26015048844701L385.2289156626506,11.440248415851965L383.4698795180723,11.719458808740445L381.7108433734939,11.3851910808617L379.9518072289157,11.57833265029507L378.19277108433727,10.760777874895128L376.43373493975906,10.74821398726927L374.6746987951807,11.437187647705667L372.9156626506024,11.57952540034715L371.15662650602405,11.873264508302332L369.3975903614458,12.304745758940973L367.63855421686736,12.968663263086665L365.8795180722891,13.326985146363766L364.1204819277107,13.32909050437673L362.36144578313247,13.787485840872522L360.60240963855415,12.207020732183222L358.84337349397583,12.767030937861886L357.0843373493975,12.916893318352368L355.3253012048192,12.627210780006694L353.5662650602409,12.387635435367642L351.8072289156626,12.36404523615556L350.04819277108425,12.761528691500788L348.289156626506,13.43561039274202L346.53012048192767,13.955097693233318L344.77108433734935,10.255458664052863L343.01204819277103,10.443207606893607L341.2530120481927,10.631799012326029L339.4939759036144,11.15528012827178L337.7349397590361,11.137012302467815L335.97590361445776,11.304265038724964L334.21686746987945,11.863817138364162L332.45783132530113,12.106886711278632L330.6987951807228,12.515881781996772L328.93975903614455,13.389250175856999L327.1807228915662,14.28343940706987L325.4216867469879,14.497773247206135L323.6626506024096,14.82817846626411L321.9036144578313,15.474189257126039L320.14457831325296,14.844367901942974L318.38554216867465,13.898944997024042L316.62650602409633,13.698317849080356L314.86746987951807,13.757901493252103L313.1084337349397,14.198552976468417L311.34939759036143,14.685171135925824L309.5903614457831,15.40997717636701L307.8313253012048,16.360332494840517L306.0722891566265,16.83148074204479L304.3132530120481,17.255386337600175L302.55421686746985,16.149131841237757L300.79518072289153,17.176592286353106L299.03614457831316,17.491912376933648L297.2771084337349,16.18541972421732L295.5180722891566,15.856973793047354L293.7590361445782,16.516590580015563L291.99999999999994,16.120458356358345L290.2409638554216,16.245282052745047L288.4819277108433,17.057861046566902L286.722891566265,17.61783730157577L284.9638554216867,15.98711333429294L283.20481927710836,16.660305693768198L281.4457831325301,17.403722305191472L279.6867469879517,17.983712092857246L277.92771084337346,18.373186449913312L276.1686746987951,18.451864807087595L274.4096385542168,19.157257000905716L272.6506024096385,19.88000452903442L270.8915662650602,18.850740104341995L269.1325301204819,18.585639556431943L267.37349397590356,18.967619361183647L265.61445783132524,17.8900356950542L263.855421686747,17.566889866063057L262.0963855421686,18.292421500884686L260.3373493975903,18.550101100985767L258.578313253012,17.991242500394836L256.81927710843365,18.73292675870941L255.0602409638554,19.762834632758953L253.30120481927705,20.45504031609683L251.54216867469876,21.45373656514018L249.78313253012044,21.725972912706858L248.02409638554215,22.341824693868976L246.2650602409638,21.920789620001347L244.50602409638552,22.228967769710767L242.74698795180717,23.178429355381436L240.9879518072289,24.039508101311778L239.22891566265056,24.357846587704028L237.46987951807228,24.357968162732377L235.71084337349393,24.32998845102258L233.95180722891564,24.668587954755314L232.19277108433732,23.435995633285952L230.43373493975903,23.339953888597822L228.6746987951807,23.262007470808985L226.91566265060237,24.131805890748392L225.15662650602408,24.342631270976234L223.39759036144574,24.762875828935233L221.63855421686742,25.35190979213668L219.87951807228907,25.652525929764337L218.12048192771078,25.928273080428156L216.36144578313247,24.264801365151573L214.60240963855415,24.77064141471277L212.84337349397586,23.147060621785272L211.08433734939754,22.0681224368726L209.32530120481923,22.572405144550842L207.5662650602409,21.49599558779988L205.80722891566262,19.08901817883223L204.0481927710843,19.186141726941575L202.28915662650596,19.711093742006337L200.53012048192764,20.692439382455042L198.77108433734935,20.731912423378756L197.01204819277103,21.056646268697122L195.25301204819272,21.134112318491L193.4939759036144,18.5956498607701L191.7349397590361,18.79125117888794L189.9759036144578,18.857313529634943L188.21686746987947,17.918143694663918L186.45783132530116,18.23050104764585L184.69879518072287,17.450856256443686L182.93975903614458,17.714468621866864L181.18072289156626,18.70845284568387L179.42168674698794,18.978302900144712L177.66265060240963,20.10413682714009L175.90361445783134,19.8412522634455L174.144578313253,19.65135406916232L172.38554216867468,19.983871070931723L170.62650602409636,19.38711491806897L168.86746987951807,19.977690535843404L167.10843373493972,20.05506523120479L165.3493975903614,20.429707638419927L163.5903614457831,20.84343759234829L161.8313253012048,20.758083551366074L160.07228915662648,21.591684176594402L158.31325301204816,20.937693397432803L156.55421686746985,21.846287700198378L154.79518072289156,23.412049344905753L153.03614457831324,23.622797028338077L151.27710843373492,23.887672305498345L149.5180722891566,22.43276491543756L147.7590361445783,23.216228765755154L146,23.63152644069999L144.24096385542168,24.82132373251659L142.48192771084337,25.797838398154692L140.72289156626505,26.745040462526788L138.96385542168676,27.416131197055886L137.20481927710844,29.094779908082142L135.4457831325301,28.604835254279116L133.68674698795178,29.068286695261985L131.9277108433735,29.53191122140366L130.16867469879514,29.256301287604426L128.40963855421683,30.189719544744133L126.65060240963852,31.3613104838853L124.89156626506022,33.31850916296779L123.1325301204819,34.25418026175769L121.37349397590359,35.14693027199736L119.61445783132528,36.58329812786909L117.85542168674696,37.83207301324722L116.09638554216866,38.085419517728866L114.33734939759034,38.252649192627565L112.57831325301204,39.493317858374105L110.81927710843372,41.99036249436435L109.06024096385542,43.3169604384377L107.3012048192771,45.15815768184354L105.54216867469879,47.30500325201589L103.78313253012047,49.98696687430628L102.02409638554217,53.09120722249508L100.26506024096385,56.52122741067081L98.50602409638554,60.21740174395961L96.74698795180723,63.428425294952085L94.98795180722892,65.82760049309712L93.2289156626506,70.59782448065292L91.46987951807228,74.42616659791312L89.71084337349397,77.55862415930487L87.95180722891567,83.7379830976609L86.19277108433734,86.76059069630652L84.43373493975903,89.35438315586984L82.6746987951807,93.10222954968273L80.9156626506024,94.80730686016287L79.15662650602408,99.67685214581563L77.39759036144578,100.46765395765105L75.63855421686746,102.75319369149982L73.87951807228914,106.91298082632821L72.12048192771084,112.28120958873504L70.36144578313252,116.89318072044888L68.60240963855422,122.86356199039837L66.84337349397589,130.34342061656815L65.08433734939759,131.7321452680214L63.32530120481926,135.29229346353677L61.56626506024095,140.11207704358245L59.80722891566264,147.3995922998164L58.04819277108433,153.70349918092074L56.28915662650602,156.47744534843937L54.53012048192771,160.62103759727614L52.77108433734939,164.8633778387377L51.01204819277108,165.34750789363957L49.25301204819277,169.06551250267574L47.49397590361446,173.6200224575694L45.73493975903614,178.2635627465629L43.975903614457835,181.33783605986164L42.21686746987952,187.15110524094666L40.4578313253012,193.00696785522965L38.69879518072289,198.45797808851535L36.93975903614457,203.34784393352L35.18072289156626,208.24376293296928L33.421686746987945,212.17578539898594L31.66265060240963,215.44253126125997L29.90361445783132,215.6906935748228L28.14457831325301,217.043806911324L26.385542168674696,218.10235805630597L24.626506024096386,218.87879681708068L22.867469879518072,220.70499424692915L21.10843373493976,221.70440464634413L19.349397590361445,222.17672754510542L17.59036144578313,222.557670803749L15.831325301204819,222.4272623202882L14.072289156626505,222.23354453738582L12.313253012048193,222.36414654003735L10.554216867469878,222.5877326837288L8.795180722891565,222.4118090984698L7.036144578313253,222.4026983016641L5.27710843373494,222.26632307498906L3.5180722891566263,222.63032715356158L1.7590361445783127,222.2165399498124L0,221.367931854114Z" class="rv-xy-plot__series rv-xy-plot__series--line" transform="translate(42,5)" style="opacity: 1; stroke: rgba(218, 76, 76, 0); fill: rgba(218, 76, 76, 0.1);"/><path d="M0,220.8488770313156L1.7590361445783127,221.44886632594753L3.5180722891566263,221.82868663655276L5.27710843373494,221.54328624163708L7.036144578313253,221.5030014111433L8.795180722891565,221.4052052190056L10.554216867469878,221.3755762467444L12.313253012048193,221.27689888187973L14.072289156626505,220.97755378990277L15.831325301204819,220.74621060555828L17.59036144578313,220.2384608684644L19.349397590361445,219.00177987477085L21.10843373493976,217.39827253197487L22.867469879518072,215.15403661730784L24.626506024096386,212.5753676682693L26.385542168674696,211.2673729537525L28.14457831325301,208.4133169188538L29.90361445783132,206.69971387341377L31.66265060240963,203.54435180224215L33.421686746987945,197.71087503496958L35.18072289156626,192.1848105807811L36.93975903614457,186.32698480885432L38.69879518072289,174.7986284204615L40.4578313253012,167.01031346003208L42.21686746987952,159.75951583467497L43.975903614457835,151.7653241211905L45.73493975903614,147.43331563270803L47.49397590361446,143.45195440327933L49.25301204819277,137.95200455311195L51.01204819277108,134.33535586533395L52.77108433734939,130.16097555217115L54.53012048192771,126.44661783812482L56.28915662650602,121.31207918928264L58.04819277108433,118.35744951410625L59.80722891566264,113.24478419336663L61.56626506024095,106.46728003055466L63.32530120481926,102.0350884937579L65.08433734939759,96.58740588143542L66.84337349397589,93.63177742207476L68.60240963855422,88.85041387792812L70.36144578313252,83.97605145226325L72.12048192771084,80.64907945715534L73.87951807228914,76.70170131720148L75.63855421686746,73.45552346165816L77.39759036144578,70.5561973779131L79.15662650602408,68.74535059439451L80.9156626506024,65.3348249912497L82.6746987951807,62.867342000556455L84.43373493975903,59.64877825372305L86.19277108433734,58.04343709115575L87.95180722891567,55.12773337659953L89.71084337349397,51.32799342598621L91.46987951807228,49.00151092376891L93.2289156626506,46.44461548418998L94.98795180722892,43.280129317618616L96.74698795180723,41.298244889543554L98.50602409638554,39.00495200597524L100.26506024096385,36.887575283933785L102.02409638554217,34.934540719017775L103.78313253012047,33.12446252793514L105.54216867469879,31.9054433620563L107.3012048192771,30.304394092019546L109.06024096385542,28.85438737148356L110.81927710843372,27.495706694628545L112.57831325301204,25.775050642416996L114.33734939759034,25.02900339315902L116.09638554216866,24.663967749220202L117.85542168674696,23.921238227996263L119.61445783132528,23.6594222520253L121.37349397590359,22.74608319835182L123.1325301204819,21.921604623846502L124.89156626506022,21.529003045428965L126.65060240963852,20.49214896511385L128.40963855421683,19.855428708447622L130.16867469879514,19.247794345282223L131.9277108433735,18.97498137108212L133.68674698795178,18.770415602753175L135.4457831325301,18.81320225796282L137.20481927710844,19.25215971079443L138.96385542168676,18.13573001622238L140.72289156626505,17.748888893750365L142.48192771084337,17.340478059069618L144.24096385542168,16.761289019965712L146,16.303935225622794L147.7590361445783,15.83402571486059L149.5180722891566,15.686058932448269L151.27710843373492,16.471900651691566L153.03614457831324,16.216522269280468L154.79518072289156,15.971331270977746L156.55421686746985,14.890281540269324L158.31325301204816,14.269045678388027L160.07228915662648,14.681703001895762L161.8313253012048,14.022797404949152L163.5903614457831,13.747836163603644L165.3493975903614,13.576445850945623L167.10843373493972,13.511772608898875L168.86746987951807,13.548987159423277L170.62650602409636,13.11578884142972L172.38554216867468,13.343167923665636L174.144578313253,13.201523953341765L175.90361445783134,13.0530552815017L177.66265060240963,12.818795877024506L179.42168674698794,12.070003515971186L181.18072289156626,11.985319845003337L182.93975903614458,11.496307931497416L184.69879518072287,11.480635734222686L186.45783132530116,11.579594549781442L188.21686746987947,11.612630004414926L189.9759036144578,12.117774827233827L191.7349397590361,12.098086086471382L193.4939759036144,12.079112271590782L195.25301204819272,13.145538686340974L197.01204819277103,13.528507252504925L198.77108433734935,13.501906979496974L200.53012048192764,13.847439530031863L202.28915662650596,13.407622414670382L204.0481927710843,13.201300683809599L205.80722891566262,13.395133223407525L207.5662650602409,14.044667532163633L209.32530120481923,14.441300732530229L211.08433734939754,14.135315721303108L212.84337349397586,14.702469868557085L214.60240963855415,15.403282744988177L216.36144578313247,14.891258788489225L218.12048192771078,15.856097952849828L219.87951807228907,15.626601637066502L221.63855421686742,15.401811818870891L223.39759036144574,15.395322375734004L225.15662650602408,15.350787018633465L226.91566265060237,15.310458559681997L228.6746987951807,14.861757596959809L230.43373493975903,14.74881831987822L232.19277108433732,14.722922366808154L233.95180722891564,15.463221162476287L235.71084337349393,15.412272030463134L237.46987951807228,14.936173615370448L239.22891566265056,14.977440711786274L240.9879518072289,15.206958983652196L242.74698795180717,14.987865442864694L244.50602409638552,14.642375637674165L246.2650602409638,14.338007458656666L248.02409638554215,14.961915661186962L249.78313253012044,14.331966641456368L251.54216867469876,14.06579205902055L253.30120481927705,13.723215491834008L255.0602409638554,13.457584873844299L256.81927710843365,12.86204492560534L258.578313253012,12.546429557362792L260.3373493975903,12.799292005279435L262.0963855421686,12.547390587175222L263.855421686747,12.313626777911775L265.61445783132524,12.256108506066116L267.37349397590356,12.881495801154042L269.1325301204819,12.84812486134846L270.8915662650602,13.290298130265935L272.6506024096385,13.678580063306338L274.4096385542168,13.29916890966726L276.1686746987951,12.906297412164696L277.92771084337346,12.82108153212979L279.6867469879517,12.404471991409073L281.4457831325301,12.148445758557207L283.20481927710836,11.629895812913373L284.9638554216867,11.283377061061412L286.722891566265,11.84062666137645L288.4819277108433,11.47561631168498L290.2409638554216,11.015773668291718L291.99999999999994,11.096410366453823L293.7590361445782,10.932627919096126L295.5180722891566,10.732591920199091L297.2771084337349,11.109769648956721L299.03614457831316,11.611892897681335L300.79518072289153,11.442857859725448L302.55421686746985,10.917412796418208L304.3132530120481,11.297079865464731L306.0722891566265,11.182836681441378L307.8313253012048,10.87551708113619L309.5903614457831,10.349918697587048L311.34939759036143,10.001260337788418L313.1084337349397,9.763123793560181L314.86746987951807,9.447804203978471L316.62650602409633,9.559634287049262L318.38554216867465,9.576982821063162L320.14457831325296,10.014167946402472L321.9036144578313,10.289364983453767L323.6626506024096,9.925682867603264L325.4216867469879,9.68215841389549L327.1807228915662,9.522656606035822L328.93975903614455,8.938763808924437L330.6987951807228,8.273642949104481L332.45783132530113,7.9986706626631285L334.21686746987945,8.143669285556163L335.97590361445776,7.864810541111666L337.7349397590361,7.818787845985801L339.4939759036144,7.982798962411019L341.2530120481927,7.666419704487247L343.01204819277103,7.49931901601486L344.77108433734935,7.407203424369999L346.53012048192767,8.920586779891986L348.289156626506,8.740889568087109L350.04819277108425,8.30176304165193L351.8072289156626,8.056315473057172L353.5662650602409,7.92512248794122L355.3253012048192,8.204359794726214L357.0843373493975,8.2466843025313L358.84337349397583,8.373912575046718L360.60240963855415,8.04461367272336L362.36144578313247,8.64352082215073L364.1204819277107,8.642071631698702L365.8795180722891,8.539599860836091L367.63855421686736,8.401548627281805L369.3975903614458,8.064385894345119L371.15662650602405,7.901449634901882L372.9156626506024,7.793775687255296L374.6746987951807,7.508366702293784L376.43373493975906,7.133941434445031L378.19277108433727,7.26161938676331L379.9518072289157,7.369154708073639L381.7108433734939,7.27189101980863L383.4698795180723,7.315820707919715L385.2289156626506,7.301182054500349L386.9879518072289,7.144336312216533L388.7469879518072,6.969978524395364L390.50602409638554,6.712413056003792L392.2650602409638,6.523493805121107L394.0240963855422,6.332619291883331L395.78313253012044,6.284237589573089L397.54216867469876,6.459178403918364L399.3012048192771,6.1879020131181175L401.0602409638554,6.045296062144741L402.8192771084337,6.239440155834183L404.578313253012,6.275830922729252L406.3373493975903,6.069692200204607L408.09638554216866,5.894407772233072L409.8554216867469,6.082600043367928L411.61445783132524,5.772137471948174L413.37349397590367,5.70180668339564L415.1325301204819,5.456544253104272L416.89156626506025,5.335743849185076L418.6506024096385,5.441335148540866L420.4096385542169,5.636629913154964L422.16867469879514,5.6595824393947884L423.9277108433735,5.510712566597009L425.6867469879518,5.296701740965263L427.44578313253015,5.932656834025426L429.2048192771084,6.223342667460585L430.96385542168673,5.899585338614364L432.72289156626505,5.793875851179149L434.48192771084337,5.574332203247522L436.2409638554217,5.350270781258216L438,5.431456196704949" class="rv-xy-plot__series rv-xy-plot__series--line" transform="translate(42,5)" style="opacity: 1; stroke-width: 1.5; stroke: rgb(218, 76, 76);"/><g class="rv-xy-plot__series rv-xy-plot__series--mark" transform="translate(42,5)"><circle r="2" cx="438" cy="5.431456196704949" style="opacity: 1; stroke: rgb(218, 76, 76); fill: rgb(218, 76, 76); stroke-width: 1;"/></g><g class="rv-xy-plot__series rv-xy-plot__series--mark" transform="translate(42,5)"><circle r="2" cx="438" cy="4.128350739337715" style="opacity: 1; stroke: rgb(83, 135, 221); fill: rgb(83, 135, 221); stroke-width: 1;"/></g><defs class="rv-gradient-defs"><linearGradient id="leftFadeGradient" x1="0" x2="1" y1="0" y2="0"><stop offset="0%" stop-color="white" stop-opacity="1"/><stop offset="60%" stop-color="white" stop-opacity="1"/><stop offset="100%" stop-color="white" stop-opacity="0"/></linearGradient><linearGradient id="rightFadeGradient" x1="1" x2="0" y1="0" y2="0"><stop offset="0%" stop-color="white" stop-opacity="1"/><stop offset="100%" stop-color="white" stop-opacity="0"/></linearGradient><linearGradient id="bottomFadeGradient" x1="0" x2="0" y1="1" y2="0"><stop offset="0%" stop-color="white" stop-opacity="1"/><stop offset="40%" stop-color="white" stop-opacity="1"/><stop offset="100%" stop-color="white" stop-opacity="0"/></linearGradient><linearGradient id="topFadeGradient" x1="0" x2="0" y1="0" y2="1"><stop offset="0%" stop-color="white" stop-opacity="1"/><stop offset="100%" stop-color="white" stop-opacity="0"/></linearGradient></defs><g class="rv-xy-plot__borders plot-border"><rect class="rv-xy-plot__borders-bottom plot-border-bottom" x="0" y="228" width="500" height="30" style="fill: url(&quot;#bottomFadeGradient&quot;); opacity: 1;"/><rect class="rv-xy-plot__borders-left plot-border-left" x="0" y="0" width="42" height="258" style="fill: url(&quot;#leftFadeGradient&quot;); opacity: 1;"/><rect class="rv-xy-plot__borders-right plot-border-right" x="480" y="0" width="20" height="258" style="fill: url(&quot;#rightFadeGradient&quot;); opacity: 1;"/><rect class="rv-xy-plot__borders-top plot-border-top" x="0" y="0" width="500" height="5" style="fill: url(&quot;#topFadeGradient&quot;); opacity: 1;"/></g><g transform="translate(42,116.94718247880077)" class="rv-xy-plot__axis rv-xy-plot__axis--horizontal"><line x1="0" x2="438" y1="0" y2="0" class="rv-xy-plot__axis__line"/><g transform="translate(0, 0)" class="rv-xy-plot__axis__ticks"/></g><g transform="translate(42,228)" class="rv-xy-plot__axis rv-xy-plot__axis--horizontal" style="font-family: &quot;Source Sans Pro&quot;; fill: rgb(107, 107, 118); font-size: 14px;"><line x1="0" x2="438" y1="0" y2="0" class="rv-xy-plot__axis__line" style="font-family: &quot;Source Sans Pro&quot;; fill: rgb(107, 107, 118); font-size: 14px; stroke-width: 0;"/><g transform="translate(0, 0)" class="rv-xy-plot__axis__ticks"><g transform="translate(86.83455216289457, 0)" class="rv-xy-plot__axis__tick" style="font-family: &quot;Source Sans Pro&quot;; fill: rgb(107, 107, 118); font-size: 14px;"><line x1="0" x2="0" y1="-6" y2="6" class="rv-xy-plot__axis__tick__line" style="font-family: &quot;Source Sans Pro&quot;; fill: rgb(107, 107, 118); font-size: 14px; stroke-width: 0;"/><text text-anchor="middle" dy="0.72em" transform="translate(0, 14)" class="rv-xy-plot__axis__tick__text" style="font-family: sans-serif; fill: rgb(107, 107, 118); font-size: 14px;">2M</text></g><g transform="translate(174.86409828398976, 0)" class="rv-xy-plot__axis__tick" style="font-family: &quot;Source Sans Pro&quot;; fill: rgb(107, 107, 118); font-size: 14px;"><line x1="0" x2="0" y1="-6" y2="6" class="rv-xy-plot__axis__tick__line" style="font-family: &quot;Source Sans Pro&quot;; fill: rgb(107, 107, 118); font-size: 14px; stroke-width: 0;"/><text text-anchor="middle" dy="0.72em" transform="translate(0, 14)" class="rv-xy-plot__axis__tick__text" style="font-family: sans-serif; fill: rgb(107, 107, 118); font-size: 14px;">4M</text></g><g transform="translate(262.8936444050849, 0)" class="rv-xy-plot__axis__tick" style="font-family: &quot;Source Sans Pro&quot;; fill: rgb(107, 107, 118); font-size: 14px;"><line x1="0" x2="0" y1="-6" y2="6" class="rv-xy-plot__axis__tick__line" style="font-family: &quot;Source Sans Pro&quot;; fill: rgb(107, 107, 118); font-size: 14px; stroke-width: 0;"/><text text-anchor="middle" dy="0.72em" transform="translate(0, 14)" class="rv-xy-plot__axis__tick__text" style="font-family: sans-serif; fill: rgb(107, 107, 118); font-size: 14px;">6M</text></g><g transform="translate(350.9231905261801, 0)" class="rv-xy-plot__axis__tick" style="font-family: &quot;Source Sans Pro&quot;; fill: rgb(107, 107, 118); font-size: 14px;"><line x1="0" x2="0" y1="-6" y2="6" class="rv-xy-plot__axis__tick__line" style="font-family: &quot;Source Sans Pro&quot;; fill: rgb(107, 107, 118); font-size: 14px; stroke-width: 0;"/><text text-anchor="middle" dy="0.72em" transform="translate(0, 14)" class="rv-xy-plot__axis__tick__text" style="font-family: sans-serif; fill: rgb(107, 107, 118); font-size: 14px;">8M</text></g></g><g transform="translate(0, 0)" class="rv-xy-plot__axis__title"><g transform="translate(432, -6) rotate(0)" style="text-anchor: end; font-family: &quot;Source Sans Pro&quot;; fill: rgb(107, 107, 118); font-size: 14px;"><text style="font-family: sans-serif; fill: rgb(107, 107, 118); font-size: 14px;"> Steps</text></g></g></g><g transform="translate(42,228)" class="rv-xy-plot__axis rv-xy-plot__axis--horizontal"><line x1="0" x2="0" y1="0" y2="0" class="rv-xy-plot__axis__line"/><g transform="translate(0, 0)" class="rv-xy-plot__axis__ticks"><g transform="translate(86.83455216289457, 0)" class="rv-xy-plot__axis__tick"><line x1="0" x2="0" y1="-6" y2="6" class="rv-xy-plot__axis__tick__line"/><text text-anchor="middle" dy="0.72em" transform="translate(0, 14)" class="rv-xy-plot__axis__tick__text" style="font-family: sans-serif;"/></g><g transform="translate(174.86409828398976, 0)" class="rv-xy-plot__axis__tick"><line x1="0" x2="0" y1="-6" y2="6" class="rv-xy-plot__axis__tick__line"/><text text-anchor="middle" dy="0.72em" transform="translate(0, 14)" class="rv-xy-plot__axis__tick__text" style="font-family: sans-serif;"/></g><g transform="translate(262.8936444050849, 0)" class="rv-xy-plot__axis__tick"><line x1="0" x2="0" y1="-6" y2="6" class="rv-xy-plot__axis__tick__line"/><text text-anchor="middle" dy="0.72em" transform="translate(0, 14)" class="rv-xy-plot__axis__tick__text" style="font-family: sans-serif;"/></g><g transform="translate(350.9231905261801, 0)" class="rv-xy-plot__axis__tick"><line x1="0" x2="0" y1="-6" y2="6" class="rv-xy-plot__axis__tick__line"/><text text-anchor="middle" dy="0.72em" transform="translate(0, 14)" class="rv-xy-plot__axis__tick__text" style="font-family: sans-serif;"/></g></g></g><g transform="translate(0,5)" class="rv-xy-plot__axis rv-xy-plot__axis--vertical" style="font-family: &quot;Source Sans Pro&quot;; fill: rgb(107, 107, 118); font-size: 14px;"><line x1="42" x2="42" y1="0" y2="223" class="rv-xy-plot__axis__line" style="font-family: &quot;Source Sans Pro&quot;; fill: rgb(107, 107, 118); font-size: 14px; stroke: none;"/><g transform="translate(42, 0)" class="rv-xy-plot__axis__ticks"><g transform="translate(0, 219.7508764446266)" class="rv-xy-plot__axis__tick" style="font-family: &quot;Source Sans Pro&quot;; fill: rgb(107, 107, 118); font-size: 14px;"><line y1="0" y2="0" x1="6" x2="-6" class="rv-xy-plot__axis__tick__line" style="font-family: &quot;Source Sans Pro&quot;; fill: rgb(107, 107, 118); font-size: 14px; stroke: none;"/><text text-anchor="end" dy="0.32em" transform="translate(-14, 0)" class="rv-xy-plot__axis__tick__text" style="font-family: sans-serif; fill: rgb(107, 107, 118); font-size: 14px;">-20</text></g><g transform="translate(0, 165.8490294617137)" class="rv-xy-plot__axis__tick" style="font-family: &quot;Source Sans Pro&quot;; fill: rgb(107, 107, 118); font-size: 14px;"><line y1="0" y2="0" x1="6" x2="-6" class="rv-xy-plot__axis__tick__line" style="font-family: &quot;Source Sans Pro&quot;; fill: rgb(107, 107, 118); font-size: 14px; stroke: none;"/><text text-anchor="end" dy="0.32em" transform="translate(-14, 0)" class="rv-xy-plot__axis__tick__text" style="font-family: sans-serif; fill: rgb(107, 107, 118); font-size: 14px;">-10</text></g><g transform="translate(0, 111.94718247880077)" class="rv-xy-plot__axis__tick" style="font-family: &quot;Source Sans Pro&quot;; fill: rgb(107, 107, 118); font-size: 14px;"><line y1="0" y2="0" x1="6" x2="-6" class="rv-xy-plot__axis__tick__line" style="font-family: &quot;Source Sans Pro&quot;; fill: rgb(107, 107, 118); font-size: 14px; stroke: none;"/><text text-anchor="end" dy="0.32em" transform="translate(-14, 0)" class="rv-xy-plot__axis__tick__text" style="font-family: sans-serif; fill: rgb(107, 107, 118); font-size: 14px;">0</text></g><g transform="translate(0, 58.045335495887855)" class="rv-xy-plot__axis__tick" style="font-family: &quot;Source Sans Pro&quot;; fill: rgb(107, 107, 118); font-size: 14px;"><line y1="0" y2="0" x1="6" x2="-6" class="rv-xy-plot__axis__tick__line" style="font-family: &quot;Source Sans Pro&quot;; fill: rgb(107, 107, 118); font-size: 14px; stroke: none;"/><text text-anchor="end" dy="0.32em" transform="translate(-14, 0)" class="rv-xy-plot__axis__tick__text" style="font-family: sans-serif; fill: rgb(107, 107, 118); font-size: 14px;">10</text></g><g transform="translate(0, 4.143488512974941)" class="rv-xy-plot__axis__tick" style="font-family: &quot;Source Sans Pro&quot;; fill: rgb(107, 107, 118); font-size: 14px;"><line y1="0" y2="0" x1="6" x2="-6" class="rv-xy-plot__axis__tick__line" style="font-family: &quot;Source Sans Pro&quot;; fill: rgb(107, 107, 118); font-size: 14px; stroke: none;"/><text text-anchor="end" dy="0.32em" transform="translate(-14, 0)" class="rv-xy-plot__axis__tick__text" style="font-family: sans-serif; fill: rgb(107, 107, 118); font-size: 14px;">20</text></g></g><g transform="translate(42, 0)" class="rv-xy-plot__axis__title"><g transform="translate(16, 6) rotate(-90)" style="text-anchor: end; font-family: &quot;Source Sans Pro&quot;; fill: rgb(107, 107, 118); font-size: 14px;"><text style="font-family: sans-serif; fill: rgb(107, 107, 118); font-size: 14px;">Episodic Return</text></g></g></g></svg></g><style xmlns="http://www.w3.org/1999/xhtml">/*&lt;![CDATA[*/<br />text { font-size: 10px; fill: black }<br />.react-vis-magic-css-import-rule{display:inherit}.rv-treemap{font-size:12px;position:relative}.rv-treemap__leaf{overflow:hidden;position:absolute}.rv-treemap__leaf--circle{align-items:center;border-radius:100%;display:flex;justify-content:center}.rv-treemap__leaf__content{overflow:hidden;padding:10px;text-overflow:ellipsis}.rv-xy-plot{color:#c3c3c3;position:relative}.rv-xy-plot canvas{pointer-events:none}.rv-xy-plot .rv-xy-canvas{pointer-events:none;position:absolute}.rv-xy-plot__inner{display:block}.rv-xy-plot__axis__line{fill:none;stroke-width:2px;stroke:#e6e6e9}.rv-xy-plot__axis__tick__line{stroke:#e6e6e9}.rv-xy-plot__axis__tick__text{fill:#6b6b76;font-size:11px}.rv-xy-plot__axis__title text{fill:#6b6b76;font-size:11px}.rv-xy-plot__grid-lines__line{stroke:#e6e6e9}.rv-xy-plot__circular-grid-lines__line{fill-opacity:0;stroke:#e6e6e9}.rv-xy-plot__series,.rv-xy-plot__series path{pointer-events:all}.rv-xy-plot__series--line{fill:none;stroke:#000;stroke-width:2px}.rv-crosshair{position:absolute;font-size:11px;pointer-events:none}.rv-crosshair__line{background:#47d3d9;width:1px}.rv-crosshair__inner{position:absolute;text-align:left;top:0}.rv-crosshair__inner__content{border-radius:4px;background:#3a3a48;color:#fff;font-size:12px;padding:7px 10px;box-shadow:0 2px 4px rgba(0,0,0,0.5)}.rv-crosshair__inner--left{right:4px}.rv-crosshair__inner--right{left:4px}.rv-crosshair__title{font-weight:bold;white-space:nowrap}.rv-crosshair__item{white-space:nowrap}.rv-hint{position:absolute;pointer-events:none}.rv-hint__content{border-radius:4px;padding:7px 10px;font-size:12px;background:#3a3a48;box-shadow:0 2px 4px rgba(0,0,0,0.5);color:#fff;text-align:left;white-space:nowrap}.rv-discrete-color-legend{box-sizing:border-box;overflow-y:auto;font-size:12px}.rv-discrete-color-legend.horizontal{white-space:nowrap}.rv-discrete-color-legend-item{color:#3a3a48;border-radius:1px;padding:9px 10px}.rv-discrete-color-legend-item.horizontal{display:inline-block}.rv-discrete-color-legend-item.horizontal .rv-discrete-color-legend-item__title{margin-left:0;display:block}.rv-discrete-color-legend-item__color{display:inline-block;vertical-align:middle;overflow:visible}.rv-discrete-color-legend-item__color__path{stroke:#dcdcdc;stroke-width:2px}.rv-discrete-color-legend-item__title{margin-left:10px}.rv-discrete-color-legend-item.disabled{color:#b8b8b8}.rv-discrete-color-legend-item.clickable{cursor:pointer}.rv-discrete-color-legend-item.clickable:hover{background:#f9f9f9}.rv-search-wrapper{display:flex;flex-direction:column}.rv-search-wrapper__form{flex:0}.rv-search-wrapper__form__input{width:100%;color:#a6a6a5;border:1px solid #e5e5e4;padding:7px 10px;font-size:12px;box-sizing:border-box;border-radius:2px;margin:0 0 9px;outline:0}.rv-search-wrapper__contents{flex:1;overflow:auto}.rv-continuous-color-legend{font-size:12px}.rv-continuous-color-legend .rv-gradient{height:4px;border-radius:2px;margin-bottom:5px}.rv-continuous-size-legend{font-size:12px}.rv-continuous-size-legend .rv-bubbles{text-align:justify;overflow:hidden;margin-bottom:5px;width:100%}.rv-continuous-size-legend .rv-bubble{background:#d8d9dc;display:inline-block;vertical-align:bottom}.rv-continuous-size-legend .rv-spacer{display:inline-block;font-size:0;line-height:0;width:100%}.rv-legend-titles{height:16px;position:relative}.rv-legend-titles__left,.rv-legend-titles__right,.rv-legend-titles__center{position:absolute;white-space:nowrap;overflow:hidden}.rv-legend-titles__center{display:block;text-align:center;width:100%}.rv-legend-titles__right{right:0}.rv-radial-chart .rv-xy-plot__series--label{pointer-events:none}<br /><br />/*]]&gt;*/</style></svg>