<?xml version="1.0" encoding="utf-8" standalone="no"?>
<!DOCTYPE svg PUBLIC "-//W3C//DTD SVG 1.1//EN"
  "http://www.w3.org/Graphics/SVG/1.1/DTD/svg11.dtd">
<!-- Created with matplotlib (https://matplotlib.org/) -->
<svg height="288pt" version="1.1" viewBox="0 0 432 288" width="432pt" xmlns="http://www.w3.org/2000/svg" xmlns:xlink="http://www.w3.org/1999/xlink">
 <defs>
  <style type="text/css">
*{stroke-linecap:butt;stroke-linejoin:round;}
  </style>
 </defs>
 <g id="figure_1">
  <g id="patch_1">
   <path d="M 0 288 
L 432 288 
L 432 0 
L 0 0 
z
" style="fill:#ffffff;"/>
  </g>
  <g id="axes_1">
   <g id="patch_2">
    <path d="M 54 252 
L 388.8 252 
L 388.8 34.56 
L 54 34.56 
z
" style="fill:#eaeaf2;"/>
   </g>
   <g id="matplotlib.axis_1">
    <g id="xtick_1">
     <g id="line2d_1">
      <path clip-path="url(#p396691d23c)" d="M 68.604545 252 
L 68.604545 34.56 
" style="fill:none;stroke:#ffffff;stroke-linecap:round;"/>
     </g>
     <g id="text_1">
      <!-- 0.00 -->
      <defs>
       <path d="M 31.78125 66.40625 
Q 24.171875 66.40625 20.328125 58.90625 
Q 16.5 51.421875 16.5 36.375 
Q 16.5 21.390625 20.328125 13.890625 
Q 24.171875 6.390625 31.78125 6.390625 
Q 39.453125 6.390625 43.28125 13.890625 
Q 47.125 21.390625 47.125 36.375 
Q 47.125 51.421875 43.28125 58.90625 
Q 39.453125 66.40625 31.78125 66.40625 
z
M 31.78125 74.21875 
Q 44.046875 74.21875 50.515625 64.515625 
Q 56.984375 54.828125 56.984375 36.375 
Q 56.984375 17.96875 50.515625 8.265625 
Q 44.046875 -1.421875 31.78125 -1.421875 
Q 19.53125 -1.421875 13.0625 8.265625 
Q 6.59375 17.96875 6.59375 36.375 
Q 6.59375 54.828125 13.0625 64.515625 
Q 19.53125 74.21875 31.78125 74.21875 
z
" id="DejaVuSans-48"/>
       <path d="M 10.6875 12.40625 
L 21 12.40625 
L 21 0 
L 10.6875 0 
z
" id="DejaVuSans-46"/>
      </defs>
      <g style="fill:#262626;" transform="translate(56.358452 269.858281)scale(0.11 -0.11)">
       <use xlink:href="#DejaVuSans-48"/>
       <use x="63.623047" xlink:href="#DejaVuSans-46"/>
       <use x="95.410156" xlink:href="#DejaVuSans-48"/>
       <use x="159.033203" xlink:href="#DejaVuSans-48"/>
      </g>
     </g>
    </g>
    <g id="xtick_2">
     <g id="line2d_2">
      <path clip-path="url(#p396691d23c)" d="M 106.956818 252 
L 106.956818 34.56 
" style="fill:none;stroke:#ffffff;stroke-linecap:round;"/>
     </g>
     <g id="text_2">
      <!-- 0.25 -->
      <defs>
       <path d="M 19.1875 8.296875 
L 53.609375 8.296875 
L 53.609375 0 
L 7.328125 0 
L 7.328125 8.296875 
Q 12.9375 14.109375 22.625 23.890625 
Q 32.328125 33.6875 34.8125 36.53125 
Q 39.546875 41.84375 41.421875 45.53125 
Q 43.3125 49.21875 43.3125 52.78125 
Q 43.3125 58.59375 39.234375 62.25 
Q 35.15625 65.921875 28.609375 65.921875 
Q 23.96875 65.921875 18.8125 64.3125 
Q 13.671875 62.703125 7.8125 59.421875 
L 7.8125 69.390625 
Q 13.765625 71.78125 18.9375 73 
Q 24.125 74.21875 28.421875 74.21875 
Q 39.75 74.21875 46.484375 68.546875 
Q 53.21875 62.890625 53.21875 53.421875 
Q 53.21875 48.921875 51.53125 44.890625 
Q 49.859375 40.875 45.40625 35.40625 
Q 44.1875 33.984375 37.640625 27.21875 
Q 31.109375 20.453125 19.1875 8.296875 
z
" id="DejaVuSans-50"/>
       <path d="M 10.796875 72.90625 
L 49.515625 72.90625 
L 49.515625 64.59375 
L 19.828125 64.59375 
L 19.828125 46.734375 
Q 21.96875 47.46875 24.109375 47.828125 
Q 26.265625 48.1875 28.421875 48.1875 
Q 40.625 48.1875 47.75 41.5 
Q 54.890625 34.8125 54.890625 23.390625 
Q 54.890625 11.625 47.5625 5.09375 
Q 40.234375 -1.421875 26.90625 -1.421875 
Q 22.3125 -1.421875 17.546875 -0.640625 
Q 12.796875 0.140625 7.71875 1.703125 
L 7.71875 11.625 
Q 12.109375 9.234375 16.796875 8.0625 
Q 21.484375 6.890625 26.703125 6.890625 
Q 35.15625 6.890625 40.078125 11.328125 
Q 45.015625 15.765625 45.015625 23.390625 
Q 45.015625 31 40.078125 35.4375 
Q 35.15625 39.890625 26.703125 39.890625 
Q 22.75 39.890625 18.8125 39.015625 
Q 14.890625 38.140625 10.796875 36.28125 
z
" id="DejaVuSans-53"/>
      </defs>
      <g style="fill:#262626;" transform="translate(94.710724 269.858281)scale(0.11 -0.11)">
       <use xlink:href="#DejaVuSans-48"/>
       <use x="63.623047" xlink:href="#DejaVuSans-46"/>
       <use x="95.410156" xlink:href="#DejaVuSans-50"/>
       <use x="159.033203" xlink:href="#DejaVuSans-53"/>
      </g>
     </g>
    </g>
    <g id="xtick_3">
     <g id="line2d_3">
      <path clip-path="url(#p396691d23c)" d="M 145.309091 252 
L 145.309091 34.56 
" style="fill:none;stroke:#ffffff;stroke-linecap:round;"/>
     </g>
     <g id="text_3">
      <!-- 0.50 -->
      <g style="fill:#262626;" transform="translate(133.062997 269.858281)scale(0.11 -0.11)">
       <use xlink:href="#DejaVuSans-48"/>
       <use x="63.623047" xlink:href="#DejaVuSans-46"/>
       <use x="95.410156" xlink:href="#DejaVuSans-53"/>
       <use x="159.033203" xlink:href="#DejaVuSans-48"/>
      </g>
     </g>
    </g>
    <g id="xtick_4">
     <g id="line2d_4">
      <path clip-path="url(#p396691d23c)" d="M 183.661364 252 
L 183.661364 34.56 
" style="fill:none;stroke:#ffffff;stroke-linecap:round;"/>
     </g>
     <g id="text_4">
      <!-- 0.75 -->
      <defs>
       <path d="M 8.203125 72.90625 
L 55.078125 72.90625 
L 55.078125 68.703125 
L 28.609375 0 
L 18.3125 0 
L 43.21875 64.59375 
L 8.203125 64.59375 
z
" id="DejaVuSans-55"/>
      </defs>
      <g style="fill:#262626;" transform="translate(171.41527 269.858281)scale(0.11 -0.11)">
       <use xlink:href="#DejaVuSans-48"/>
       <use x="63.623047" xlink:href="#DejaVuSans-46"/>
       <use x="95.410156" xlink:href="#DejaVuSans-55"/>
       <use x="159.033203" xlink:href="#DejaVuSans-53"/>
      </g>
     </g>
    </g>
    <g id="xtick_5">
     <g id="line2d_5">
      <path clip-path="url(#p396691d23c)" d="M 222.013636 252 
L 222.013636 34.56 
" style="fill:none;stroke:#ffffff;stroke-linecap:round;"/>
     </g>
     <g id="text_5">
      <!-- 1.00 -->
      <defs>
       <path d="M 12.40625 8.296875 
L 28.515625 8.296875 
L 28.515625 63.921875 
L 10.984375 60.40625 
L 10.984375 69.390625 
L 28.421875 72.90625 
L 38.28125 72.90625 
L 38.28125 8.296875 
L 54.390625 8.296875 
L 54.390625 0 
L 12.40625 0 
z
" id="DejaVuSans-49"/>
      </defs>
      <g style="fill:#262626;" transform="translate(209.767543 269.858281)scale(0.11 -0.11)">
       <use xlink:href="#DejaVuSans-49"/>
       <use x="63.623047" xlink:href="#DejaVuSans-46"/>
       <use x="95.410156" xlink:href="#DejaVuSans-48"/>
       <use x="159.033203" xlink:href="#DejaVuSans-48"/>
      </g>
     </g>
    </g>
    <g id="xtick_6">
     <g id="line2d_6">
      <path clip-path="url(#p396691d23c)" d="M 260.365909 252 
L 260.365909 34.56 
" style="fill:none;stroke:#ffffff;stroke-linecap:round;"/>
     </g>
     <g id="text_6">
      <!-- 1.25 -->
      <g style="fill:#262626;" transform="translate(248.119815 269.858281)scale(0.11 -0.11)">
       <use xlink:href="#DejaVuSans-49"/>
       <use x="63.623047" xlink:href="#DejaVuSans-46"/>
       <use x="95.410156" xlink:href="#DejaVuSans-50"/>
       <use x="159.033203" xlink:href="#DejaVuSans-53"/>
      </g>
     </g>
    </g>
    <g id="xtick_7">
     <g id="line2d_7">
      <path clip-path="url(#p396691d23c)" d="M 298.718182 252 
L 298.718182 34.56 
" style="fill:none;stroke:#ffffff;stroke-linecap:round;"/>
     </g>
     <g id="text_7">
      <!-- 1.50 -->
      <g style="fill:#262626;" transform="translate(286.472088 269.858281)scale(0.11 -0.11)">
       <use xlink:href="#DejaVuSans-49"/>
       <use x="63.623047" xlink:href="#DejaVuSans-46"/>
       <use x="95.410156" xlink:href="#DejaVuSans-53"/>
       <use x="159.033203" xlink:href="#DejaVuSans-48"/>
      </g>
     </g>
    </g>
    <g id="xtick_8">
     <g id="line2d_8">
      <path clip-path="url(#p396691d23c)" d="M 337.070455 252 
L 337.070455 34.56 
" style="fill:none;stroke:#ffffff;stroke-linecap:round;"/>
     </g>
     <g id="text_8">
      <!-- 1.75 -->
      <g style="fill:#262626;" transform="translate(324.824361 269.858281)scale(0.11 -0.11)">
       <use xlink:href="#DejaVuSans-49"/>
       <use x="63.623047" xlink:href="#DejaVuSans-46"/>
       <use x="95.410156" xlink:href="#DejaVuSans-55"/>
       <use x="159.033203" xlink:href="#DejaVuSans-53"/>
      </g>
     </g>
    </g>
    <g id="xtick_9">
     <g id="line2d_9">
      <path clip-path="url(#p396691d23c)" d="M 375.422727 252 
L 375.422727 34.56 
" style="fill:none;stroke:#ffffff;stroke-linecap:round;"/>
     </g>
     <g id="text_9">
      <!-- 2.00 -->
      <g style="fill:#262626;" transform="translate(363.176634 269.858281)scale(0.11 -0.11)">
       <use xlink:href="#DejaVuSans-50"/>
       <use x="63.623047" xlink:href="#DejaVuSans-46"/>
       <use x="95.410156" xlink:href="#DejaVuSans-48"/>
       <use x="159.033203" xlink:href="#DejaVuSans-48"/>
      </g>
     </g>
    </g>
    <g id="text_10">
     <!-- Time Steps -->
     <defs>
      <path d="M -0.296875 72.90625 
L 61.375 72.90625 
L 61.375 64.59375 
L 35.5 64.59375 
L 35.5 0 
L 25.59375 0 
L 25.59375 64.59375 
L -0.296875 64.59375 
z
" id="DejaVuSans-84"/>
      <path d="M 9.421875 54.6875 
L 18.40625 54.6875 
L 18.40625 0 
L 9.421875 0 
z
M 9.421875 75.984375 
L 18.40625 75.984375 
L 18.40625 64.59375 
L 9.421875 64.59375 
z
" id="DejaVuSans-105"/>
      <path d="M 52 44.1875 
Q 55.375 50.25 60.0625 53.125 
Q 64.75 56 71.09375 56 
Q 79.640625 56 84.28125 50.015625 
Q 88.921875 44.046875 88.921875 33.015625 
L 88.921875 0 
L 79.890625 0 
L 79.890625 32.71875 
Q 79.890625 40.578125 77.09375 44.375 
Q 74.3125 48.1875 68.609375 48.1875 
Q 61.625 48.1875 57.5625 43.546875 
Q 53.515625 38.921875 53.515625 30.90625 
L 53.515625 0 
L 44.484375 0 
L 44.484375 32.71875 
Q 44.484375 40.625 41.703125 44.40625 
Q 38.921875 48.1875 33.109375 48.1875 
Q 26.21875 48.1875 22.15625 43.53125 
Q 18.109375 38.875 18.109375 30.90625 
L 18.109375 0 
L 9.078125 0 
L 9.078125 54.6875 
L 18.109375 54.6875 
L 18.109375 46.1875 
Q 21.1875 51.21875 25.484375 53.609375 
Q 29.78125 56 35.6875 56 
Q 41.65625 56 45.828125 52.96875 
Q 50 49.953125 52 44.1875 
z
" id="DejaVuSans-109"/>
      <path d="M 56.203125 29.59375 
L 56.203125 25.203125 
L 14.890625 25.203125 
Q 15.484375 15.921875 20.484375 11.0625 
Q 25.484375 6.203125 34.421875 6.203125 
Q 39.59375 6.203125 44.453125 7.46875 
Q 49.3125 8.734375 54.109375 11.28125 
L 54.109375 2.78125 
Q 49.265625 0.734375 44.1875 -0.34375 
Q 39.109375 -1.421875 33.890625 -1.421875 
Q 20.796875 -1.421875 13.15625 6.1875 
Q 5.515625 13.8125 5.515625 26.8125 
Q 5.515625 40.234375 12.765625 48.109375 
Q 20.015625 56 32.328125 56 
Q 43.359375 56 49.78125 48.890625 
Q 56.203125 41.796875 56.203125 29.59375 
z
M 47.21875 32.234375 
Q 47.125 39.59375 43.09375 43.984375 
Q 39.0625 48.390625 32.421875 48.390625 
Q 24.90625 48.390625 20.390625 44.140625 
Q 15.875 39.890625 15.1875 32.171875 
z
" id="DejaVuSans-101"/>
      <path id="DejaVuSans-32"/>
      <path d="M 53.515625 70.515625 
L 53.515625 60.890625 
Q 47.90625 63.578125 42.921875 64.890625 
Q 37.9375 66.21875 33.296875 66.21875 
Q 25.25 66.21875 20.875 63.09375 
Q 16.5 59.96875 16.5 54.203125 
Q 16.5 49.359375 19.40625 46.890625 
Q 22.3125 44.4375 30.421875 42.921875 
L 36.375 41.703125 
Q 47.40625 39.59375 52.65625 34.296875 
Q 57.90625 29 57.90625 20.125 
Q 57.90625 9.515625 50.796875 4.046875 
Q 43.703125 -1.421875 29.984375 -1.421875 
Q 24.8125 -1.421875 18.96875 -0.25 
Q 13.140625 0.921875 6.890625 3.21875 
L 6.890625 13.375 
Q 12.890625 10.015625 18.65625 8.296875 
Q 24.421875 6.59375 29.984375 6.59375 
Q 38.421875 6.59375 43.015625 9.90625 
Q 47.609375 13.234375 47.609375 19.390625 
Q 47.609375 24.75 44.3125 27.78125 
Q 41.015625 30.8125 33.5 32.328125 
L 27.484375 33.5 
Q 16.453125 35.6875 11.515625 40.375 
Q 6.59375 45.0625 6.59375 53.421875 
Q 6.59375 63.09375 13.40625 68.65625 
Q 20.21875 74.21875 32.171875 74.21875 
Q 37.3125 74.21875 42.625 73.28125 
Q 47.953125 72.359375 53.515625 70.515625 
z
" id="DejaVuSans-83"/>
      <path d="M 18.3125 70.21875 
L 18.3125 54.6875 
L 36.8125 54.6875 
L 36.8125 47.703125 
L 18.3125 47.703125 
L 18.3125 18.015625 
Q 18.3125 11.328125 20.140625 9.421875 
Q 21.96875 7.515625 27.59375 7.515625 
L 36.8125 7.515625 
L 36.8125 0 
L 27.59375 0 
Q 17.1875 0 13.234375 3.875 
Q 9.28125 7.765625 9.28125 18.015625 
L 9.28125 47.703125 
L 2.6875 47.703125 
L 2.6875 54.6875 
L 9.28125 54.6875 
L 9.28125 70.21875 
z
" id="DejaVuSans-116"/>
      <path d="M 18.109375 8.203125 
L 18.109375 -20.796875 
L 9.078125 -20.796875 
L 9.078125 54.6875 
L 18.109375 54.6875 
L 18.109375 46.390625 
Q 20.953125 51.265625 25.265625 53.625 
Q 29.59375 56 35.59375 56 
Q 45.5625 56 51.78125 48.09375 
Q 58.015625 40.1875 58.015625 27.296875 
Q 58.015625 14.40625 51.78125 6.484375 
Q 45.5625 -1.421875 35.59375 -1.421875 
Q 29.59375 -1.421875 25.265625 0.953125 
Q 20.953125 3.328125 18.109375 8.203125 
z
M 48.6875 27.296875 
Q 48.6875 37.203125 44.609375 42.84375 
Q 40.53125 48.484375 33.40625 48.484375 
Q 26.265625 48.484375 22.1875 42.84375 
Q 18.109375 37.203125 18.109375 27.296875 
Q 18.109375 17.390625 22.1875 11.75 
Q 26.265625 6.109375 33.40625 6.109375 
Q 40.53125 6.109375 44.609375 11.75 
Q 48.6875 17.390625 48.6875 27.296875 
z
" id="DejaVuSans-112"/>
      <path d="M 44.28125 53.078125 
L 44.28125 44.578125 
Q 40.484375 46.53125 36.375 47.5 
Q 32.28125 48.484375 27.875 48.484375 
Q 21.1875 48.484375 17.84375 46.4375 
Q 14.5 44.390625 14.5 40.28125 
Q 14.5 37.15625 16.890625 35.375 
Q 19.28125 33.59375 26.515625 31.984375 
L 29.59375 31.296875 
Q 39.15625 29.25 43.1875 25.515625 
Q 47.21875 21.78125 47.21875 15.09375 
Q 47.21875 7.46875 41.1875 3.015625 
Q 35.15625 -1.421875 24.609375 -1.421875 
Q 20.21875 -1.421875 15.453125 -0.5625 
Q 10.6875 0.296875 5.421875 2 
L 5.421875 11.28125 
Q 10.40625 8.6875 15.234375 7.390625 
Q 20.0625 6.109375 24.8125 6.109375 
Q 31.15625 6.109375 34.5625 8.28125 
Q 37.984375 10.453125 37.984375 14.40625 
Q 37.984375 18.0625 35.515625 20.015625 
Q 33.0625 21.96875 24.703125 23.78125 
L 21.578125 24.515625 
Q 13.234375 26.265625 9.515625 29.90625 
Q 5.8125 33.546875 5.8125 39.890625 
Q 5.8125 47.609375 11.28125 51.796875 
Q 16.75 56 26.8125 56 
Q 31.78125 56 36.171875 55.265625 
Q 40.578125 54.546875 44.28125 53.078125 
z
" id="DejaVuSans-115"/>
     </defs>
     <g style="fill:#262626;" transform="translate(188.025 285.264063)scale(0.12 -0.12)">
      <use xlink:href="#DejaVuSans-84"/>
      <use x="57.958984" xlink:href="#DejaVuSans-105"/>
      <use x="85.742188" xlink:href="#DejaVuSans-109"/>
      <use x="183.154297" xlink:href="#DejaVuSans-101"/>
      <use x="244.677734" xlink:href="#DejaVuSans-32"/>
      <use x="276.464844" xlink:href="#DejaVuSans-83"/>
      <use x="339.941406" xlink:href="#DejaVuSans-116"/>
      <use x="379.150391" xlink:href="#DejaVuSans-101"/>
      <use x="440.673828" xlink:href="#DejaVuSans-112"/>
      <use x="504.150391" xlink:href="#DejaVuSans-115"/>
     </g>
    </g>
    <g id="text_11">
     <!-- 1e6 -->
     <defs>
      <path d="M 33.015625 40.375 
Q 26.375 40.375 22.484375 35.828125 
Q 18.609375 31.296875 18.609375 23.390625 
Q 18.609375 15.53125 22.484375 10.953125 
Q 26.375 6.390625 33.015625 6.390625 
Q 39.65625 6.390625 43.53125 10.953125 
Q 47.40625 15.53125 47.40625 23.390625 
Q 47.40625 31.296875 43.53125 35.828125 
Q 39.65625 40.375 33.015625 40.375 
z
M 52.59375 71.296875 
L 52.59375 62.3125 
Q 48.875 64.0625 45.09375 64.984375 
Q 41.3125 65.921875 37.59375 65.921875 
Q 27.828125 65.921875 22.671875 59.328125 
Q 17.53125 52.734375 16.796875 39.40625 
Q 19.671875 43.65625 24.015625 45.921875 
Q 28.375 48.1875 33.59375 48.1875 
Q 44.578125 48.1875 50.953125 41.515625 
Q 57.328125 34.859375 57.328125 23.390625 
Q 57.328125 12.15625 50.6875 5.359375 
Q 44.046875 -1.421875 33.015625 -1.421875 
Q 20.359375 -1.421875 13.671875 8.265625 
Q 6.984375 17.96875 6.984375 36.375 
Q 6.984375 53.65625 15.1875 63.9375 
Q 23.390625 74.21875 37.203125 74.21875 
Q 40.921875 74.21875 44.703125 73.484375 
Q 48.484375 72.75 52.59375 71.296875 
z
" id="DejaVuSans-54"/>
     </defs>
     <g style="fill:#262626;" transform="translate(368.034063 283.504219)scale(0.11 -0.11)">
      <use xlink:href="#DejaVuSans-49"/>
      <use x="63.623047" xlink:href="#DejaVuSans-101"/>
      <use x="125.146484" xlink:href="#DejaVuSans-54"/>
     </g>
    </g>
   </g>
   <g id="matplotlib.axis_2">
    <g id="ytick_1">
     <g id="line2d_10">
      <path clip-path="url(#p396691d23c)" d="M 54 244.101429 
L 388.8 244.101429 
" style="fill:none;stroke:#ffffff;stroke-linecap:round;"/>
     </g>
     <g id="text_12">
      <!-- 0 -->
      <g style="fill:#262626;" transform="translate(37.50125 248.28057)scale(0.11 -0.11)">
       <use xlink:href="#DejaVuSans-48"/>
      </g>
     </g>
    </g>
    <g id="ytick_2">
     <g id="line2d_11">
      <path clip-path="url(#p396691d23c)" d="M 54 213.7997 
L 388.8 213.7997 
" style="fill:none;stroke:#ffffff;stroke-linecap:round;"/>
     </g>
     <g id="text_13">
      <!-- 200 -->
      <g style="fill:#262626;" transform="translate(23.50375 217.978841)scale(0.11 -0.11)">
       <use xlink:href="#DejaVuSans-50"/>
       <use x="63.623047" xlink:href="#DejaVuSans-48"/>
       <use x="127.246094" xlink:href="#DejaVuSans-48"/>
      </g>
     </g>
    </g>
    <g id="ytick_3">
     <g id="line2d_12">
      <path clip-path="url(#p396691d23c)" d="M 54 183.497971 
L 388.8 183.497971 
" style="fill:none;stroke:#ffffff;stroke-linecap:round;"/>
     </g>
     <g id="text_14">
      <!-- 400 -->
      <defs>
       <path d="M 37.796875 64.3125 
L 12.890625 25.390625 
L 37.796875 25.390625 
z
M 35.203125 72.90625 
L 47.609375 72.90625 
L 47.609375 25.390625 
L 58.015625 25.390625 
L 58.015625 17.1875 
L 47.609375 17.1875 
L 47.609375 0 
L 37.796875 0 
L 37.796875 17.1875 
L 4.890625 17.1875 
L 4.890625 26.703125 
z
" id="DejaVuSans-52"/>
      </defs>
      <g style="fill:#262626;" transform="translate(23.50375 187.677111)scale(0.11 -0.11)">
       <use xlink:href="#DejaVuSans-52"/>
       <use x="63.623047" xlink:href="#DejaVuSans-48"/>
       <use x="127.246094" xlink:href="#DejaVuSans-48"/>
      </g>
     </g>
    </g>
    <g id="ytick_4">
     <g id="line2d_13">
      <path clip-path="url(#p396691d23c)" d="M 54 153.196242 
L 388.8 153.196242 
" style="fill:none;stroke:#ffffff;stroke-linecap:round;"/>
     </g>
     <g id="text_15">
      <!-- 600 -->
      <g style="fill:#262626;" transform="translate(23.50375 157.375382)scale(0.11 -0.11)">
       <use xlink:href="#DejaVuSans-54"/>
       <use x="63.623047" xlink:href="#DejaVuSans-48"/>
       <use x="127.246094" xlink:href="#DejaVuSans-48"/>
      </g>
     </g>
    </g>
    <g id="ytick_5">
     <g id="line2d_14">
      <path clip-path="url(#p396691d23c)" d="M 54 122.894512 
L 388.8 122.894512 
" style="fill:none;stroke:#ffffff;stroke-linecap:round;"/>
     </g>
     <g id="text_16">
      <!-- 800 -->
      <defs>
       <path d="M 31.78125 34.625 
Q 24.75 34.625 20.71875 30.859375 
Q 16.703125 27.09375 16.703125 20.515625 
Q 16.703125 13.921875 20.71875 10.15625 
Q 24.75 6.390625 31.78125 6.390625 
Q 38.8125 6.390625 42.859375 10.171875 
Q 46.921875 13.96875 46.921875 20.515625 
Q 46.921875 27.09375 42.890625 30.859375 
Q 38.875 34.625 31.78125 34.625 
z
M 21.921875 38.8125 
Q 15.578125 40.375 12.03125 44.71875 
Q 8.5 49.078125 8.5 55.328125 
Q 8.5 64.0625 14.71875 69.140625 
Q 20.953125 74.21875 31.78125 74.21875 
Q 42.671875 74.21875 48.875 69.140625 
Q 55.078125 64.0625 55.078125 55.328125 
Q 55.078125 49.078125 51.53125 44.71875 
Q 48 40.375 41.703125 38.8125 
Q 48.828125 37.15625 52.796875 32.3125 
Q 56.78125 27.484375 56.78125 20.515625 
Q 56.78125 9.90625 50.3125 4.234375 
Q 43.84375 -1.421875 31.78125 -1.421875 
Q 19.734375 -1.421875 13.25 4.234375 
Q 6.78125 9.90625 6.78125 20.515625 
Q 6.78125 27.484375 10.78125 32.3125 
Q 14.796875 37.15625 21.921875 38.8125 
z
M 18.3125 54.390625 
Q 18.3125 48.734375 21.84375 45.5625 
Q 25.390625 42.390625 31.78125 42.390625 
Q 38.140625 42.390625 41.71875 45.5625 
Q 45.3125 48.734375 45.3125 54.390625 
Q 45.3125 60.0625 41.71875 63.234375 
Q 38.140625 66.40625 31.78125 66.40625 
Q 25.390625 66.40625 21.84375 63.234375 
Q 18.3125 60.0625 18.3125 54.390625 
z
" id="DejaVuSans-56"/>
      </defs>
      <g style="fill:#262626;" transform="translate(23.50375 127.073653)scale(0.11 -0.11)">
       <use xlink:href="#DejaVuSans-56"/>
       <use x="63.623047" xlink:href="#DejaVuSans-48"/>
       <use x="127.246094" xlink:href="#DejaVuSans-48"/>
      </g>
     </g>
    </g>
    <g id="ytick_6">
     <g id="line2d_15">
      <path clip-path="url(#p396691d23c)" d="M 54 92.592783 
L 388.8 92.592783 
" style="fill:none;stroke:#ffffff;stroke-linecap:round;"/>
     </g>
     <g id="text_17">
      <!-- 1000 -->
      <g style="fill:#262626;" transform="translate(16.505 96.771924)scale(0.11 -0.11)">
       <use xlink:href="#DejaVuSans-49"/>
       <use x="63.623047" xlink:href="#DejaVuSans-48"/>
       <use x="127.246094" xlink:href="#DejaVuSans-48"/>
       <use x="190.869141" xlink:href="#DejaVuSans-48"/>
      </g>
     </g>
    </g>
    <g id="ytick_7">
     <g id="line2d_16">
      <path clip-path="url(#p396691d23c)" d="M 54 62.291054 
L 388.8 62.291054 
" style="fill:none;stroke:#ffffff;stroke-linecap:round;"/>
     </g>
     <g id="text_18">
      <!-- 1200 -->
      <g style="fill:#262626;" transform="translate(16.505 66.470195)scale(0.11 -0.11)">
       <use xlink:href="#DejaVuSans-49"/>
       <use x="63.623047" xlink:href="#DejaVuSans-50"/>
       <use x="127.246094" xlink:href="#DejaVuSans-48"/>
       <use x="190.869141" xlink:href="#DejaVuSans-48"/>
      </g>
     </g>
    </g>
    <g id="text_19">
     <!-- Average Episode Reward -->
     <defs>
      <path d="M 34.1875 63.1875 
L 20.796875 26.90625 
L 47.609375 26.90625 
z
M 28.609375 72.90625 
L 39.796875 72.90625 
L 67.578125 0 
L 57.328125 0 
L 50.6875 18.703125 
L 17.828125 18.703125 
L 11.1875 0 
L 0.78125 0 
z
" id="DejaVuSans-65"/>
      <path d="M 2.984375 54.6875 
L 12.5 54.6875 
L 29.59375 8.796875 
L 46.6875 54.6875 
L 56.203125 54.6875 
L 35.6875 0 
L 23.484375 0 
z
" id="DejaVuSans-118"/>
      <path d="M 41.109375 46.296875 
Q 39.59375 47.171875 37.8125 47.578125 
Q 36.03125 48 33.890625 48 
Q 26.265625 48 22.1875 43.046875 
Q 18.109375 38.09375 18.109375 28.8125 
L 18.109375 0 
L 9.078125 0 
L 9.078125 54.6875 
L 18.109375 54.6875 
L 18.109375 46.1875 
Q 20.953125 51.171875 25.484375 53.578125 
Q 30.03125 56 36.53125 56 
Q 37.453125 56 38.578125 55.875 
Q 39.703125 55.765625 41.0625 55.515625 
z
" id="DejaVuSans-114"/>
      <path d="M 34.28125 27.484375 
Q 23.390625 27.484375 19.1875 25 
Q 14.984375 22.515625 14.984375 16.5 
Q 14.984375 11.71875 18.140625 8.90625 
Q 21.296875 6.109375 26.703125 6.109375 
Q 34.1875 6.109375 38.703125 11.40625 
Q 43.21875 16.703125 43.21875 25.484375 
L 43.21875 27.484375 
z
M 52.203125 31.203125 
L 52.203125 0 
L 43.21875 0 
L 43.21875 8.296875 
Q 40.140625 3.328125 35.546875 0.953125 
Q 30.953125 -1.421875 24.3125 -1.421875 
Q 15.921875 -1.421875 10.953125 3.296875 
Q 6 8.015625 6 15.921875 
Q 6 25.140625 12.171875 29.828125 
Q 18.359375 34.515625 30.609375 34.515625 
L 43.21875 34.515625 
L 43.21875 35.40625 
Q 43.21875 41.609375 39.140625 45 
Q 35.0625 48.390625 27.6875 48.390625 
Q 23 48.390625 18.546875 47.265625 
Q 14.109375 46.140625 10.015625 43.890625 
L 10.015625 52.203125 
Q 14.9375 54.109375 19.578125 55.046875 
Q 24.21875 56 28.609375 56 
Q 40.484375 56 46.34375 49.84375 
Q 52.203125 43.703125 52.203125 31.203125 
z
" id="DejaVuSans-97"/>
      <path d="M 45.40625 27.984375 
Q 45.40625 37.75 41.375 43.109375 
Q 37.359375 48.484375 30.078125 48.484375 
Q 22.859375 48.484375 18.828125 43.109375 
Q 14.796875 37.75 14.796875 27.984375 
Q 14.796875 18.265625 18.828125 12.890625 
Q 22.859375 7.515625 30.078125 7.515625 
Q 37.359375 7.515625 41.375 12.890625 
Q 45.40625 18.265625 45.40625 27.984375 
z
M 54.390625 6.78125 
Q 54.390625 -7.171875 48.1875 -13.984375 
Q 42 -20.796875 29.203125 -20.796875 
Q 24.46875 -20.796875 20.265625 -20.09375 
Q 16.0625 -19.390625 12.109375 -17.921875 
L 12.109375 -9.1875 
Q 16.0625 -11.328125 19.921875 -12.34375 
Q 23.78125 -13.375 27.78125 -13.375 
Q 36.625 -13.375 41.015625 -8.765625 
Q 45.40625 -4.15625 45.40625 5.171875 
L 45.40625 9.625 
Q 42.625 4.78125 38.28125 2.390625 
Q 33.9375 0 27.875 0 
Q 17.828125 0 11.671875 7.65625 
Q 5.515625 15.328125 5.515625 27.984375 
Q 5.515625 40.671875 11.671875 48.328125 
Q 17.828125 56 27.875 56 
Q 33.9375 56 38.28125 53.609375 
Q 42.625 51.21875 45.40625 46.390625 
L 45.40625 54.6875 
L 54.390625 54.6875 
z
" id="DejaVuSans-103"/>
      <path d="M 9.8125 72.90625 
L 55.90625 72.90625 
L 55.90625 64.59375 
L 19.671875 64.59375 
L 19.671875 43.015625 
L 54.390625 43.015625 
L 54.390625 34.71875 
L 19.671875 34.71875 
L 19.671875 8.296875 
L 56.78125 8.296875 
L 56.78125 0 
L 9.8125 0 
z
" id="DejaVuSans-69"/>
      <path d="M 30.609375 48.390625 
Q 23.390625 48.390625 19.1875 42.75 
Q 14.984375 37.109375 14.984375 27.296875 
Q 14.984375 17.484375 19.15625 11.84375 
Q 23.34375 6.203125 30.609375 6.203125 
Q 37.796875 6.203125 41.984375 11.859375 
Q 46.1875 17.53125 46.1875 27.296875 
Q 46.1875 37.015625 41.984375 42.703125 
Q 37.796875 48.390625 30.609375 48.390625 
z
M 30.609375 56 
Q 42.328125 56 49.015625 48.375 
Q 55.71875 40.765625 55.71875 27.296875 
Q 55.71875 13.875 49.015625 6.21875 
Q 42.328125 -1.421875 30.609375 -1.421875 
Q 18.84375 -1.421875 12.171875 6.21875 
Q 5.515625 13.875 5.515625 27.296875 
Q 5.515625 40.765625 12.171875 48.375 
Q 18.84375 56 30.609375 56 
z
" id="DejaVuSans-111"/>
      <path d="M 45.40625 46.390625 
L 45.40625 75.984375 
L 54.390625 75.984375 
L 54.390625 0 
L 45.40625 0 
L 45.40625 8.203125 
Q 42.578125 3.328125 38.25 0.953125 
Q 33.9375 -1.421875 27.875 -1.421875 
Q 17.96875 -1.421875 11.734375 6.484375 
Q 5.515625 14.40625 5.515625 27.296875 
Q 5.515625 40.1875 11.734375 48.09375 
Q 17.96875 56 27.875 56 
Q 33.9375 56 38.25 53.625 
Q 42.578125 51.265625 45.40625 46.390625 
z
M 14.796875 27.296875 
Q 14.796875 17.390625 18.875 11.75 
Q 22.953125 6.109375 30.078125 6.109375 
Q 37.203125 6.109375 41.296875 11.75 
Q 45.40625 17.390625 45.40625 27.296875 
Q 45.40625 37.203125 41.296875 42.84375 
Q 37.203125 48.484375 30.078125 48.484375 
Q 22.953125 48.484375 18.875 42.84375 
Q 14.796875 37.203125 14.796875 27.296875 
z
" id="DejaVuSans-100"/>
      <path d="M 44.390625 34.1875 
Q 47.5625 33.109375 50.5625 29.59375 
Q 53.5625 26.078125 56.59375 19.921875 
L 66.609375 0 
L 56 0 
L 46.6875 18.703125 
Q 43.0625 26.03125 39.671875 28.421875 
Q 36.28125 30.8125 30.421875 30.8125 
L 19.671875 30.8125 
L 19.671875 0 
L 9.8125 0 
L 9.8125 72.90625 
L 32.078125 72.90625 
Q 44.578125 72.90625 50.734375 67.671875 
Q 56.890625 62.453125 56.890625 51.90625 
Q 56.890625 45.015625 53.6875 40.46875 
Q 50.484375 35.9375 44.390625 34.1875 
z
M 19.671875 64.796875 
L 19.671875 38.921875 
L 32.078125 38.921875 
Q 39.203125 38.921875 42.84375 42.21875 
Q 46.484375 45.515625 46.484375 51.90625 
Q 46.484375 58.296875 42.84375 61.546875 
Q 39.203125 64.796875 32.078125 64.796875 
z
" id="DejaVuSans-82"/>
      <path d="M 4.203125 54.6875 
L 13.1875 54.6875 
L 24.421875 12.015625 
L 35.59375 54.6875 
L 46.1875 54.6875 
L 57.421875 12.015625 
L 68.609375 54.6875 
L 77.59375 54.6875 
L 63.28125 0 
L 52.6875 0 
L 40.921875 44.828125 
L 29.109375 0 
L 18.5 0 
z
" id="DejaVuSans-119"/>
     </defs>
     <g style="fill:#262626;" transform="translate(10.009375 217.643438)rotate(-90)scale(0.12 -0.12)">
      <use xlink:href="#DejaVuSans-65"/>
      <use x="62.533203" xlink:href="#DejaVuSans-118"/>
      <use x="121.712891" xlink:href="#DejaVuSans-101"/>
      <use x="183.236328" xlink:href="#DejaVuSans-114"/>
      <use x="224.349609" xlink:href="#DejaVuSans-97"/>
      <use x="285.628906" xlink:href="#DejaVuSans-103"/>
      <use x="349.105469" xlink:href="#DejaVuSans-101"/>
      <use x="410.628906" xlink:href="#DejaVuSans-32"/>
      <use x="442.416016" xlink:href="#DejaVuSans-69"/>
      <use x="505.599609" xlink:href="#DejaVuSans-112"/>
      <use x="569.076172" xlink:href="#DejaVuSans-105"/>
      <use x="596.859375" xlink:href="#DejaVuSans-115"/>
      <use x="648.958984" xlink:href="#DejaVuSans-111"/>
      <use x="710.140625" xlink:href="#DejaVuSans-100"/>
      <use x="773.617188" xlink:href="#DejaVuSans-101"/>
      <use x="835.140625" xlink:href="#DejaVuSans-32"/>
      <use x="866.927734" xlink:href="#DejaVuSans-82"/>
      <use x="931.910156" xlink:href="#DejaVuSans-101"/>
      <use x="993.433594" xlink:href="#DejaVuSans-119"/>
      <use x="1075.220703" xlink:href="#DejaVuSans-97"/>
      <use x="1136.5" xlink:href="#DejaVuSans-114"/>
      <use x="1175.863281" xlink:href="#DejaVuSans-100"/>
     </g>
    </g>
   </g>
   <g id="PolyCollection_1">
    <defs>
     <path d="M 69.218182 -45.934424 
L 69.218182 -45.883636 
L 69.831818 -46.026334 
L 70.445455 -46.16611 
L 71.059091 -46.440485 
L 71.672727 -47.518412 
L 72.286364 -47.628672 
L 72.9 -49.54736 
L 73.513636 -50.256035 
L 74.127273 -51.955768 
L 74.740909 -52.283953 
L 75.354545 -53.417433 
L 75.968182 -53.918659 
L 76.581818 -54.452384 
L 77.195455 -54.592545 
L 77.809091 -54.320915 
L 78.422727 -53.970656 
L 79.036364 -54.843491 
L 79.65 -55.184646 
L 80.263636 -56.63441 
L 80.877273 -56.412252 
L 81.490909 -56.827449 
L 82.104545 -56.967126 
L 82.718182 -57.026467 
L 83.331818 -59.364673 
L 83.945455 -59.717114 
L 84.559091 -59.567992 
L 85.172727 -57.100664 
L 85.786364 -56.898981 
L 86.4 -57.489287 
L 87.013636 -58.973391 
L 87.627273 -57.420275 
L 88.240909 -57.431314 
L 88.854545 -56.851947 
L 89.468182 -56.378867 
L 90.081818 -57.523468 
L 90.695455 -56.847852 
L 91.309091 -58.618278 
L 91.922727 -62.226439 
L 92.536364 -63.634129 
L 93.15 -68.648292 
L 93.763636 -68.588302 
L 94.377273 -78.31125 
L 94.990909 -78.31125 
L 95.604545 -77.269856 
L 96.218182 -77.269856 
L 96.831818 -82.780055 
L 97.445455 -82.322662 
L 98.059091 -87.918498 
L 98.672727 -87.918498 
L 99.286364 -87.771011 
L 99.9 -86.837156 
L 100.513636 -86.837156 
L 101.127273 -94.006878 
L 101.740909 -94.006878 
L 102.354545 -97.285781 
L 102.968182 -97.246655 
L 103.581818 -101.839079 
L 104.195455 -107.383884 
L 104.809091 -107.273109 
L 105.422727 -105.440287 
L 106.036364 -104.378348 
L 106.65 -104.378348 
L 107.263636 -108.081822 
L 107.877273 -108.861168 
L 108.490909 -112.114237 
L 109.104545 -112.114237 
L 109.718182 -109.658257 
L 110.331818 -113.679465 
L 110.945455 -123.989067 
L 111.559091 -122.226459 
L 112.172727 -122.075615 
L 112.786364 -121.900232 
L 113.4 -122.845679 
L 114.013636 -122.845679 
L 114.627273 -121.97431 
L 115.240909 -121.97431 
L 115.854545 -122.554523 
L 116.468182 -122.387329 
L 117.081818 -122.387329 
L 117.695455 -122.387329 
L 118.309091 -122.765214 
L 118.922727 -118.370382 
L 119.536364 -117.476847 
L 120.15 -117.476847 
L 120.763636 -117.183806 
L 121.377273 -111.478645 
L 121.990909 -111.926245 
L 122.604545 -112.907492 
L 123.218182 -112.907492 
L 123.831818 -112.907492 
L 124.445455 -112.70416 
L 125.059091 -112.458864 
L 125.672727 -113.13658 
L 126.286364 -112.955426 
L 126.9 -112.955426 
L 127.513636 -112.955426 
L 128.127273 -112.955426 
L 128.740909 -112.955426 
L 129.354545 -113.783589 
L 129.968182 -113.783589 
L 130.581818 -113.892457 
L 131.195455 -112.900291 
L 131.809091 -112.900291 
L 132.422727 -112.976628 
L 133.036364 -112.976628 
L 133.65 -112.976628 
L 134.263636 -114.297342 
L 134.877273 -122.062074 
L 135.490909 -125.085357 
L 136.104545 -127.820179 
L 136.718182 -129.086664 
L 137.331818 -135.322989 
L 137.945455 -134.809861 
L 138.559091 -132.5949 
L 139.172727 -126.773983 
L 139.786364 -125.043352 
L 140.4 -125.675214 
L 141.013636 -125.675214 
L 141.627273 -133.863399 
L 142.240909 -132.925235 
L 142.854545 -130.981322 
L 143.468182 -133.709291 
L 144.081818 -133.446348 
L 144.695455 -133.446348 
L 145.309091 -133.446348 
L 145.922727 -141.31431 
L 146.536364 -141.113786 
L 147.15 -134.941589 
L 147.763636 -134.941589 
L 148.377273 -131.947745 
L 148.990909 -138.876783 
L 149.604545 -131.797486 
L 150.218182 -131.797486 
L 150.831818 -131.797486 
L 151.445455 -131.797486 
L 152.059091 -131.797486 
L 152.672727 -142.209827 
L 153.286364 -141.925993 
L 153.9 -141.925993 
L 154.513636 -137.136447 
L 155.127273 -137.136447 
L 155.740909 -137.136447 
L 156.354545 -137.136447 
L 156.968182 -137.136447 
L 157.581818 -137.55902 
L 158.195455 -137.55902 
L 158.809091 -137.55902 
L 159.422727 -137.281675 
L 160.036364 -137.97429 
L 160.65 -146.285825 
L 161.263636 -147.948622 
L 161.877273 -147.331471 
L 162.490909 -141.925633 
L 163.104545 -145.553524 
L 163.718182 -145.07662 
L 164.331818 -144.844556 
L 164.945455 -153.491464 
L 165.559091 -153.491464 
L 166.172727 -153.491464 
L 166.786364 -153.491464 
L 167.4 -157.408472 
L 168.013636 -157.212065 
L 168.627273 -162.884915 
L 169.240909 -154.831926 
L 169.854545 -153.509251 
L 170.468182 -168.551526 
L 171.081818 -169.833588 
L 171.695455 -179.499243 
L 172.309091 -179.499243 
L 172.922727 -179.1341 
L 173.536364 -179.1341 
L 174.15 -175.318211 
L 174.763636 -175.318211 
L 175.377273 -175.052484 
L 175.990909 -175.052484 
L 176.604545 -175.265377 
L 177.218182 -175.265377 
L 177.831818 -175.265377 
L 178.445455 -175.116896 
L 179.059091 -175.116896 
L 179.672727 -181.962832 
L 180.286364 -184.486701 
L 180.9 -184.486701 
L 181.513636 -185.074349 
L 182.127273 -180.509415 
L 182.740909 -181.00649 
L 183.354545 -180.76695 
L 183.968182 -186.214467 
L 184.581818 -188.402087 
L 185.195455 -188.402087 
L 185.809091 -189.452621 
L 186.422727 -189.255131 
L 187.036364 -190.529689 
L 187.65 -189.494471 
L 188.263636 -181.830029 
L 188.877273 -182.632375 
L 189.490909 -183.044543 
L 190.104545 -183.044543 
L 190.718182 -177.314079 
L 191.331818 -174.487506 
L 191.945455 -174.3532 
L 192.559091 -174.828244 
L 193.172727 -165.843117 
L 193.786364 -165.65883 
L 194.4 -164.966219 
L 195.013636 -172.168837 
L 195.627273 -171.942145 
L 196.240909 -170.593474 
L 196.854545 -170.593474 
L 197.468182 -170.647356 
L 198.081818 -170.647356 
L 198.695455 -165.586259 
L 199.309091 -167.274765 
L 199.922727 -167.274765 
L 200.536364 -167.274765 
L 201.15 -170.501088 
L 201.763636 -172.019418 
L 202.377273 -172.019418 
L 202.990909 -172.019418 
L 203.604545 -172.850874 
L 204.218182 -172.850874 
L 204.831818 -181.772633 
L 205.445455 -182.097845 
L 206.059091 -182.097845 
L 206.672727 -181.751055 
L 207.286364 -180.967566 
L 207.9 -180.967566 
L 208.513636 -170.290878 
L 209.127273 -170.290878 
L 209.740909 -170.290878 
L 210.354545 -171.394075 
L 210.968182 -173.186168 
L 211.581818 -168.906573 
L 212.195455 -171.66155 
L 212.809091 -156.021617 
L 213.422727 -155.95347 
L 214.036364 -155.960913 
L 214.65 -145.126321 
L 215.263636 -145.085826 
L 215.877273 -134.201646 
L 216.490909 -133.010956 
L 217.104545 -129.220821 
L 217.718182 -131.061857 
L 218.331818 -130.816591 
L 218.945455 -128.895523 
L 219.559091 -143.113023 
L 220.172727 -155.726797 
L 220.786364 -155.726797 
L 221.4 -155.726797 
L 222.013636 -161.540218 
L 222.627273 -161.540218 
L 223.240909 -149.979636 
L 223.854545 -149.979636 
L 224.468182 -149.355078 
L 225.081818 -148.512944 
L 225.695455 -148.512944 
L 226.309091 -148.512944 
L 226.922727 -150.857298 
L 227.536364 -150.783229 
L 228.15 -147.30646 
L 228.763636 -147.30646 
L 229.377273 -147.384904 
L 229.990909 -147.261273 
L 230.604545 -159.372386 
L 231.218182 -159.372386 
L 231.831818 -159.372386 
L 232.445455 -159.361437 
L 233.059091 -169.127785 
L 233.672727 -169.127785 
L 234.286364 -169.127785 
L 234.9 -157.913295 
L 235.513636 -157.860935 
L 236.127273 -157.813935 
L 236.740909 -169.665965 
L 237.354545 -171.034413 
L 237.968182 -171.778279 
L 238.581818 -183.516847 
L 239.195455 -183.477795 
L 239.809091 -183.477795 
L 240.422727 -183.477795 
L 241.036364 -193.991063 
L 241.65 -193.695142 
L 242.263636 -187.271539 
L 242.877273 -187.512654 
L 243.490909 -176.333327 
L 244.104545 -171.144308 
L 244.718182 -171.144308 
L 245.331818 -168.222377 
L 245.945455 -180.498567 
L 246.559091 -180.91079 
L 247.172727 -180.91079 
L 247.786364 -181.206785 
L 248.4 -169.18052 
L 249.013636 -169.18052 
L 249.627273 -169.18052 
L 250.240909 -169.411056 
L 250.854545 -169.80963 
L 251.468182 -181.518579 
L 252.081818 -181.518579 
L 252.695455 -181.518579 
L 253.309091 -181.518579 
L 253.922727 -181.518579 
L 254.536364 -181.518579 
L 255.15 -181.49893 
L 255.763636 -179.526989 
L 256.377273 -179.885773 
L 256.990909 -179.885773 
L 257.604545 -179.885773 
L 258.218182 -186.452354 
L 258.831818 -172.889537 
L 259.445455 -155.987014 
L 260.059091 -155.987014 
L 260.672727 -155.987014 
L 261.286364 -155.974439 
L 261.9 -155.974439 
L 262.513636 -155.974439 
L 263.127273 -153.327559 
L 263.740909 -148.529878 
L 264.354545 -147.722666 
L 264.968182 -147.722666 
L 265.581818 -147.722666 
L 266.195455 -160.238157 
L 266.809091 -160.190496 
L 267.422727 -160.94379 
L 268.036364 -160.94379 
L 268.65 -160.85158 
L 269.263636 -160.7902 
L 269.877273 -153.447548 
L 270.490909 -153.48623 
L 271.104545 -161.731283 
L 271.718182 -163.575446 
L 272.331818 -163.559492 
L 272.945455 -163.370448 
L 273.559091 -175.79728 
L 274.172727 -178.13424 
L 274.786364 -166.568271 
L 275.4 -168.539205 
L 276.013636 -168.539205 
L 276.627273 -168.539205 
L 277.240909 -168.476571 
L 277.854545 -168.476571 
L 278.468182 -168.418772 
L 279.081818 -168.399564 
L 279.695455 -168.399564 
L 280.309091 -173.782488 
L 280.922727 -173.782488 
L 281.536364 -173.782488 
L 282.15 -175.775334 
L 282.763636 -175.775334 
L 283.377273 -187.026194 
L 283.990909 -184.919078 
L 284.604545 -187.045747 
L 285.218182 -187.045747 
L 285.831818 -184.957605 
L 286.445455 -184.429345 
L 287.059091 -184.268589 
L 287.672727 -184.884289 
L 288.286364 -184.884289 
L 288.9 -185.090145 
L 289.513636 -185.090145 
L 290.127273 -185.090145 
L 290.740909 -185.24362 
L 291.354545 -185.24362 
L 291.968182 -185.24362 
L 292.581818 -198.695386 
L 293.195455 -198.667246 
L 293.809091 -190.84829 
L 294.422727 -188.906206 
L 295.036364 -188.906206 
L 295.65 -189.722387 
L 296.263636 -189.722387 
L 296.877273 -189.655512 
L 297.490909 -191.506862 
L 298.104545 -191.506862 
L 298.718182 -184.441476 
L 299.331818 -176.956103 
L 299.945455 -175.030168 
L 300.559091 -162.738492 
L 301.172727 -166.516213 
L 301.786364 -168.42785 
L 302.4 -168.42785 
L 303.013636 -168.656523 
L 303.627273 -169.436364 
L 304.240909 -169.336545 
L 304.854545 -169.336545 
L 305.468182 -169.336545 
L 306.081818 -169.97653 
L 306.695455 -169.97653 
L 307.309091 -169.97653 
L 307.922727 -169.97653 
L 308.536364 -169.52928 
L 309.15 -169.632328 
L 309.763636 -169.632328 
L 310.377273 -181.539821 
L 310.990909 -181.62956 
L 311.604545 -182.104886 
L 312.218182 -169.576118 
L 312.831818 -169.576118 
L 313.445455 -169.958731 
L 314.059091 -156.856364 
L 314.672727 -156.856364 
L 315.286364 -156.93342 
L 315.9 -156.973082 
L 316.513636 -156.973082 
L 317.127273 -166.944588 
L 317.740909 -166.031225 
L 318.354545 -166.071817 
L 318.968182 -166.071817 
L 319.581818 -165.665844 
L 320.195455 -167.109668 
L 320.809091 -170.127475 
L 321.422727 -170.127475 
L 322.036364 -173.309678 
L 322.65 -186.628349 
L 323.263636 -186.050668 
L 323.877273 -186.38022 
L 324.490909 -186.38022 
L 325.104545 -187.073369 
L 325.718182 -193.824065 
L 326.331818 -181.654799 
L 326.945455 -181.654799 
L 327.559091 -160.325536 
L 328.172727 -162.25901 
L 328.786364 -162.167963 
L 329.4 -162.180797 
L 330.013636 -175.069038 
L 330.627273 -170.754916 
L 331.240909 -172.268519 
L 331.854545 -186.140737 
L 332.468182 -186.06333 
L 333.081818 -186.06333 
L 333.695455 -186.13817 
L 334.309091 -186.13817 
L 334.922727 -195.695019 
L 335.536364 -195.695019 
L 336.15 -195.640596 
L 336.763636 -193.999612 
L 337.377273 -194.351073 
L 337.990909 -194.351073 
L 338.604545 -196.172404 
L 339.218182 -201.099918 
L 339.831818 -201.609456 
L 340.445455 -193.435882 
L 341.059091 -192.383527 
L 341.672727 -182.873901 
L 342.286364 -182.873901 
L 342.9 -182.873901 
L 343.513636 -184.559861 
L 344.127273 -184.559861 
L 344.740909 -184.559861 
L 345.354545 -186.488854 
L 345.968182 -186.026645 
L 346.581818 -173.504551 
L 347.195455 -176.943499 
L 347.809091 -176.145498 
L 348.422727 -165.332793 
L 349.036364 -176.093206 
L 349.65 -174.538806 
L 350.263636 -173.874825 
L 350.877273 -175.843682 
L 351.490909 -163.907423 
L 352.104545 -163.907423 
L 352.718182 -163.965924 
L 353.331818 -145.452078 
L 353.945455 -155.861871 
L 354.559091 -155.861871 
L 355.172727 -155.861871 
L 355.786364 -155.940922 
L 356.4 -164.976558 
L 357.013636 -162.975025 
L 357.627273 -165.174838 
L 358.240909 -167.142102 
L 358.854545 -179.143843 
L 359.468182 -179.150833 
L 360.081818 -179.128533 
L 360.695455 -192.230664 
L 361.309091 -192.235655 
L 361.922727 -192.235655 
L 362.536364 -192.235655 
L 363.15 -192.235655 
L 363.763636 -192.218177 
L 364.377273 -192.218177 
L 364.990909 -192.184675 
L 365.604545 -199.498492 
L 366.218182 -199.439859 
L 366.831818 -199.43598 
L 367.445455 -200.65961 
L 368.059091 -200.65961 
L 368.672727 -205.173749 
L 369.286364 -205.173749 
L 369.9 -212.4486 
L 369.9 -216.577961 
L 369.9 -216.577961 
L 369.286364 -210.835109 
L 368.672727 -210.835109 
L 368.059091 -206.919589 
L 367.445455 -206.919589 
L 366.831818 -207.129531 
L 366.218182 -207.106924 
L 365.604545 -206.765183 
L 364.990909 -211.354369 
L 364.377273 -211.159103 
L 363.763636 -211.159103 
L 363.15 -211.057235 
L 362.536364 -211.057235 
L 361.922727 -211.057235 
L 361.309091 -211.057235 
L 360.695455 -211.086324 
L 360.081818 -213.334294 
L 359.468182 -213.204324 
L 358.854545 -212.899503 
L 358.240909 -214.958676 
L 357.627273 -226.424734 
L 357.013636 -226.802162 
L 356.4 -215.136375 
L 355.786364 -216.827327 
L 355.172727 -216.84089 
L 354.559091 -216.84089 
L 353.945455 -216.84089 
L 353.331818 -218.626928 
L 352.718182 -215.999675 
L 352.104545 -216.34064 
L 351.490909 -216.34064 
L 350.877273 -214.54629 
L 350.263636 -226.021633 
L 349.65 -225.907711 
L 349.036364 -216.848006 
L 348.422727 -227.71607 
L 347.809091 -226.0495 
L 347.195455 -221.398407 
L 346.581818 -221.988437 
L 345.968182 -219.839986 
L 345.354545 -217.387278 
L 344.740909 -217.355267 
L 344.127273 -217.355267 
L 343.513636 -217.355267 
L 342.9 -205.832941 
L 342.286364 -205.832941 
L 341.672727 -205.832941 
L 341.059091 -204.201347 
L 340.445455 -204.020791 
L 339.831818 -206.513827 
L 339.218182 -209.483634 
L 338.604545 -203.446011 
L 337.990909 -197.732848 
L 337.377273 -197.732848 
L 336.763636 -197.43489 
L 336.15 -205.116236 
L 335.536364 -204.799035 
L 334.922727 -204.799035 
L 334.309091 -206.438731 
L 333.695455 -206.438731 
L 333.081818 -203.497713 
L 332.468182 -203.497713 
L 331.854545 -203.484432 
L 331.240909 -205.864528 
L 330.627273 -214.686451 
L 330.013636 -213.946265 
L 329.4 -218.471524 
L 328.786364 -218.546322 
L 328.172727 -218.436424 
L 327.559091 -230.137702 
L 326.945455 -214.797999 
L 326.331818 -214.797999 
L 325.718182 -217.539358 
L 325.104545 -218.697595 
L 324.490909 -218.81652 
L 323.877273 -218.81652 
L 323.263636 -220.737286 
L 322.65 -214.308616 
L 322.036364 -216.761213 
L 321.422727 -206.099131 
L 320.809091 -206.099131 
L 320.195455 -206.616905 
L 319.581818 -206.864626 
L 318.968182 -204.498445 
L 318.354545 -204.498445 
L 317.740909 -204.735032 
L 317.127273 -199.819688 
L 316.513636 -203.345922 
L 315.9 -203.345922 
L 315.286364 -203.577092 
L 314.672727 -204.026205 
L 314.059091 -204.026205 
L 313.445455 -201.778194 
L 312.831818 -201.84384 
L 312.218182 -201.84384 
L 311.604545 -199.694243 
L 310.990909 -199.775796 
L 310.377273 -199.439097 
L 309.763636 -201.4821 
L 309.15 -201.4821 
L 308.536364 -202.082709 
L 307.922727 -199.475942 
L 307.309091 -199.475942 
L 306.695455 -199.475942 
L 306.081818 -199.475942 
L 305.468182 -199.585746 
L 304.854545 -199.585746 
L 304.240909 -199.585746 
L 303.627273 -199.003961 
L 303.013636 -187.700344 
L 302.4 -187.739578 
L 301.786364 -187.739578 
L 301.172727 -198.88141 
L 300.559091 -199.529565 
L 299.945455 -196.97549 
L 299.331818 -185.75032 
L 298.718182 -184.584603 
L 298.104545 -199.923331 
L 297.490909 -199.923331 
L 296.877273 -210.713785 
L 296.263636 -210.324012 
L 295.65 -210.324012 
L 295.036364 -215.081064 
L 294.422727 -215.081064 
L 293.809091 -203.761769 
L 293.195455 -202.420248 
L 292.581818 -202.256239 
L 291.968182 -201.61429 
L 291.354545 -201.61429 
L 290.740909 -201.61429 
L 290.127273 -202.508811 
L 289.513636 -202.508811 
L 288.9 -202.508811 
L 288.286364 -203.708625 
L 287.672727 -203.708625 
L 287.059091 -203.814263 
L 286.445455 -203.786681 
L 285.831818 -200.707761 
L 285.218182 -188.537177 
L 284.604545 -188.537177 
L 283.990909 -200.932309 
L 283.377273 -188.651137 
L 282.763636 -191.446655 
L 282.15 -191.446655 
L 281.536364 -203.061812 
L 280.922727 -203.061812 
L 280.309091 -203.061812 
L 279.695455 -203.985376 
L 279.081818 -203.985376 
L 278.468182 -203.873423 
L 277.854545 -203.536546 
L 277.240909 -203.536546 
L 276.627273 -203.5258 
L 276.013636 -203.5258 
L 275.4 -203.5258 
L 274.786364 -215.013246 
L 274.172727 -213.028839 
L 273.559091 -224.575905 
L 272.945455 -226.708012 
L 272.331818 -226.675578 
L 271.718182 -226.582595 
L 271.104545 -237.331161 
L 270.490909 -238.374118 
L 269.877273 -238.380755 
L 269.263636 -237.654255 
L 268.65 -237.643724 
L 268.036364 -237.627903 
L 267.422727 -237.627903 
L 266.809091 -242.018423 
L 266.195455 -241.740634 
L 265.581818 -243.556364 
L 264.968182 -243.556364 
L 264.354545 -243.556364 
L 263.740909 -238.851588 
L 263.127273 -238.028436 
L 262.513636 -222.60129 
L 261.9 -222.60129 
L 261.286364 -222.60129 
L 260.672727 -222.527993 
L 260.059091 -222.527993 
L 259.445455 -222.527993 
L 258.831818 -219.505496 
L 258.218182 -207.680476 
L 257.604545 -208.807123 
L 256.990909 -208.807123 
L 256.377273 -208.807123 
L 255.763636 -208.868681 
L 255.15 -197.375366 
L 254.536364 -197.260841 
L 253.922727 -197.260841 
L 253.309091 -197.260841 
L 252.695455 -197.260841 
L 252.081818 -197.260841 
L 251.468182 -197.260841 
L 250.854545 -199.269779 
L 250.240909 -199.338164 
L 249.627273 -199.346243 
L 249.013636 -199.346243 
L 248.4 -199.346243 
L 247.786364 -197.282862 
L 247.172727 -197.333647 
L 246.559091 -197.333647 
L 245.945455 -197.404373 
L 245.331818 -199.267117 
L 244.718182 -198.765793 
L 244.104545 -198.765793 
L 243.490909 -197.875498 
L 242.877273 -195.957429 
L 242.263636 -195.563299 
L 241.65 -198.159959 
L 241.036364 -196.435204 
L 240.422727 -196.214203 
L 239.809091 -196.214203 
L 239.195455 -196.214203 
L 238.581818 -195.986593 
L 237.968182 -198.000613 
L 237.354545 -198.12824 
L 236.740909 -198.363029 
L 236.127273 -200.396515 
L 235.513636 -200.122577 
L 234.9 -199.817401 
L 234.286364 -197.893299 
L 233.672727 -197.893299 
L 233.059091 -197.893299 
L 232.445455 -199.56894 
L 231.831818 -199.505124 
L 231.218182 -199.505124 
L 230.604545 -199.505124 
L 229.990909 -201.583062 
L 229.377273 -200.862484 
L 228.763636 -201.319693 
L 228.15 -201.319693 
L 227.536364 -200.723173 
L 226.922727 -200.291468 
L 226.309091 -200.693695 
L 225.695455 -200.693695 
L 225.081818 -200.693695 
L 224.468182 -195.785375 
L 223.854545 -192.145186 
L 223.240909 -192.145186 
L 222.627273 -190.161704 
L 222.013636 -190.161704 
L 221.4 -191.159129 
L 220.786364 -191.159129 
L 220.172727 -191.159129 
L 219.559091 -201.179126 
L 218.945455 -203.618463 
L 218.331818 -192.421657 
L 217.718182 -190.992144 
L 217.104545 -201.722485 
L 216.490909 -197.541973 
L 215.877273 -190.602124 
L 215.263636 -188.734694 
L 214.65 -188.343351 
L 214.036364 -186.294907 
L 213.422727 -177.333875 
L 212.809091 -176.936687 
L 212.195455 -174.253298 
L 211.581818 -174.667933 
L 210.968182 -177.54293 
L 210.354545 -187.988016 
L 209.740909 -194.417916 
L 209.127273 -194.417916 
L 208.513636 -194.417916 
L 207.9 -191.410493 
L 207.286364 -191.410493 
L 206.672727 -191.720508 
L 206.059091 -189.699266 
L 205.445455 -189.699266 
L 204.831818 -189.755063 
L 204.218182 -191.285795 
L 203.604545 -191.285795 
L 202.990909 -196.131872 
L 202.377273 -196.131872 
L 201.763636 -196.131872 
L 201.15 -204.981349 
L 200.536364 -205.534898 
L 199.922727 -205.534898 
L 199.309091 -205.534898 
L 198.695455 -215.376234 
L 198.081818 -214.507886 
L 197.468182 -214.507886 
L 196.854545 -214.821938 
L 196.240909 -214.821938 
L 195.627273 -206.961306 
L 195.013636 -205.640046 
L 194.4 -206.87582 
L 193.786364 -206.756987 
L 193.172727 -205.682883 
L 192.559091 -204.141279 
L 191.945455 -204.222784 
L 191.331818 -203.43999 
L 190.718182 -202.955027 
L 190.104545 -201.971835 
L 189.490909 -201.971835 
L 188.877273 -202.042552 
L 188.263636 -202.180213 
L 187.65 -203.167218 
L 187.036364 -193.303187 
L 186.422727 -192.745512 
L 185.809091 -191.594459 
L 185.195455 -191.774702 
L 184.581818 -191.774702 
L 183.968182 -192.150038 
L 183.354545 -193.084684 
L 182.740909 -191.688539 
L 182.127273 -189.584142 
L 181.513636 -190.275254 
L 180.9 -193.700322 
L 180.286364 -193.700322 
L 179.672727 -208.410505 
L 179.059091 -209.585082 
L 178.445455 -209.585082 
L 177.831818 -208.719673 
L 177.218182 -208.719673 
L 176.604545 -208.719673 
L 175.990909 -208.044358 
L 175.377273 -208.044358 
L 174.763636 -206.495588 
L 174.15 -206.495588 
L 173.536364 -205.840885 
L 172.922727 -205.840885 
L 172.309091 -203.712677 
L 171.695455 -203.712677 
L 171.081818 -205.371041 
L 170.468182 -205.591008 
L 169.854545 -206.347599 
L 169.240909 -198.638483 
L 168.627273 -197.256808 
L 168.013636 -198.230116 
L 167.4 -197.085368 
L 166.786364 -197.757421 
L 166.172727 -197.757421 
L 165.559091 -197.757421 
L 164.945455 -197.757421 
L 164.331818 -198.184013 
L 163.718182 -196.831443 
L 163.104545 -194.051839 
L 162.490909 -194.674287 
L 161.877273 -193.746792 
L 161.263636 -190.149768 
L 160.65 -190.435059 
L 160.036364 -187.516536 
L 159.422727 -191.553396 
L 158.809091 -189.936906 
L 158.195455 -189.936906 
L 157.581818 -189.936906 
L 156.968182 -190.009409 
L 156.354545 -190.009409 
L 155.740909 -190.009409 
L 155.127273 -190.009409 
L 154.513636 -190.009409 
L 153.9 -186.045377 
L 153.286364 -186.045377 
L 152.672727 -184.391073 
L 152.059091 -184.827781 
L 151.445455 -184.827781 
L 150.831818 -184.827781 
L 150.218182 -184.827781 
L 149.604545 -184.827781 
L 148.990909 -182.284824 
L 148.377273 -183.473659 
L 147.763636 -182.959997 
L 147.15 -182.959997 
L 146.536364 -181.901015 
L 145.922727 -180.732277 
L 145.309091 -182.082206 
L 144.695455 -182.082206 
L 144.081818 -182.082206 
L 143.468182 -180.549661 
L 142.854545 -181.017706 
L 142.240909 -169.687753 
L 141.627273 -164.219733 
L 141.013636 -170.428003 
L 140.4 -170.428003 
L 139.786364 -170.536413 
L 139.172727 -168.658517 
L 138.559091 -167.659805 
L 137.945455 -164.286742 
L 137.331818 -161.296009 
L 136.718182 -161.301381 
L 136.104545 -161.518675 
L 135.490909 -161.141023 
L 134.877273 -161.659737 
L 134.263636 -162.991954 
L 133.65 -164.588866 
L 133.036364 -164.588866 
L 132.422727 -164.588866 
L 131.809091 -165.033791 
L 131.195455 -165.033791 
L 130.581818 -164.863563 
L 129.968182 -165.498091 
L 129.354545 -165.498091 
L 128.740909 -165.640181 
L 128.127273 -165.640181 
L 127.513636 -165.640181 
L 126.9 -165.640181 
L 126.286364 -165.640181 
L 125.672727 -164.584339 
L 125.059091 -164.700616 
L 124.445455 -163.270922 
L 123.831818 -162.085817 
L 123.218182 -162.085817 
L 122.604545 -162.085817 
L 121.990909 -162.254173 
L 121.377273 -162.330969 
L 120.763636 -161.352118 
L 120.15 -159.644153 
L 119.536364 -159.644153 
L 118.922727 -158.359054 
L 118.309091 -164.949205 
L 117.695455 -163.501903 
L 117.081818 -163.501903 
L 116.468182 -163.501903 
L 115.854545 -162.527429 
L 115.240909 -162.626978 
L 114.627273 -162.626978 
L 114.013636 -157.548266 
L 113.4 -157.548266 
L 112.786364 -157.71048 
L 112.172727 -156.688268 
L 111.559091 -155.809088 
L 110.945455 -145.535857 
L 110.331818 -147.304705 
L 109.718182 -144.082137 
L 109.104545 -143.660758 
L 108.490909 -143.660758 
L 107.877273 -137.312438 
L 107.263636 -137.446152 
L 106.65 -131.233377 
L 106.036364 -131.233377 
L 105.422727 -125.043947 
L 104.809091 -114.361476 
L 104.195455 -113.715832 
L 103.581818 -113.622257 
L 102.968182 -114.410193 
L 102.354545 -114.40348 
L 101.740909 -103.12478 
L 101.127273 -103.12478 
L 100.513636 -108.682132 
L 99.9 -108.682132 
L 99.286364 -103.239226 
L 98.672727 -102.379609 
L 98.059091 -102.379609 
L 97.445455 -103.339702 
L 96.831818 -100.673818 
L 96.218182 -101.619219 
L 95.604545 -101.619219 
L 94.990909 -95.549527 
L 94.377273 -95.549527 
L 93.763636 -92.154685 
L 93.15 -91.805038 
L 92.536364 -92.665332 
L 91.922727 -92.906853 
L 91.309091 -93.802654 
L 90.695455 -94.567725 
L 90.081818 -86.314072 
L 89.468182 -86.510455 
L 88.854545 -81.061233 
L 88.240909 -80.961829 
L 87.627273 -75.449745 
L 87.013636 -70.192998 
L 86.4 -69.596754 
L 85.786364 -69.698035 
L 85.172727 -69.663431 
L 84.559091 -60.441692 
L 83.945455 -60.416106 
L 83.331818 -60.047211 
L 82.718182 -60.086539 
L 82.104545 -59.401559 
L 81.490909 -58.451849 
L 80.877273 -58.120046 
L 80.263636 -56.714851 
L 79.65 -56.8958 
L 79.036364 -56.778329 
L 78.422727 -56.602434 
L 77.809091 -54.919506 
L 77.195455 -55.624788 
L 76.581818 -54.68816 
L 75.968182 -54.257272 
L 75.354545 -54.020815 
L 74.740909 -53.645021 
L 74.127273 -52.121348 
L 73.513636 -50.727509 
L 72.9 -49.621859 
L 72.286364 -49.204598 
L 71.672727 -47.907787 
L 71.059091 -47.336563 
L 70.445455 -46.927871 
L 69.831818 -46.168953 
L 69.218182 -45.934424 
z
" id="m740aa79fd8" style="stroke:#4c72b0;stroke-opacity:0.2;"/>
    </defs>
    <g clip-path="url(#p396691d23c)">
     <use style="fill:#4c72b0;fill-opacity:0.2;stroke:#4c72b0;stroke-opacity:0.2;" x="0" xlink:href="#m740aa79fd8" y="288"/>
    </g>
   </g>
   <g id="line2d_17">
    <path clip-path="url(#p396691d23c)" d="M 69.218182 242.09097 
L 69.831818 241.902356 
L 71.059091 241.111476 
L 72.286364 239.583365 
L 72.9 238.41539 
L 73.513636 237.508228 
L 74.127273 235.961442 
L 75.354545 234.280876 
L 76.581818 233.429728 
L 77.195455 232.891333 
L 77.809091 233.37979 
L 79.036364 232.18909 
L 79.65 231.959777 
L 80.877273 230.733851 
L 81.490909 230.360351 
L 82.104545 229.815658 
L 82.718182 229.443497 
L 83.331818 228.294058 
L 83.945455 227.93339 
L 84.559091 227.995158 
L 85.172727 224.617953 
L 85.786364 224.701492 
L 86.4 224.456979 
L 87.013636 223.416805 
L 87.627273 221.56499 
L 88.240909 218.803428 
L 88.854545 219.04341 
L 89.468182 216.555339 
L 90.081818 216.08123 
L 90.695455 212.292211 
L 91.309091 211.789534 
L 91.922727 210.433354 
L 92.536364 209.85027 
L 93.15 207.773335 
L 93.763636 207.628507 
L 94.377273 201.069612 
L 94.990909 201.069612 
L 95.604545 198.555463 
L 96.218182 198.555463 
L 96.831818 196.273063 
L 97.445455 195.168818 
L 98.059091 192.850947 
L 98.672727 192.850947 
L 99.286364 192.494882 
L 99.9 190.240356 
L 100.513636 190.240356 
L 101.127273 189.434171 
L 101.740909 189.434171 
L 102.354545 182.15537 
L 102.968182 182.171576 
L 103.581818 180.269332 
L 104.195455 177.450142 
L 104.809091 177.182707 
L 105.422727 172.757883 
L 106.036364 170.194137 
L 106.65 170.194137 
L 107.263636 165.236013 
L 107.877273 164.913197 
L 108.490909 160.112503 
L 109.104545 160.112503 
L 109.718182 161.129803 
L 110.945455 153.237538 
L 111.559091 148.982227 
L 113.4 147.803027 
L 114.013636 147.803027 
L 114.627273 145.699356 
L 115.240909 145.699356 
L 115.854545 145.459024 
L 116.468182 145.055384 
L 117.695455 145.055384 
L 118.309091 144.14279 
L 118.922727 149.635282 
L 119.536364 149.4395 
L 120.15 149.4395 
L 120.763636 148.732038 
L 121.377273 151.095193 
L 121.990909 150.909791 
L 122.604545 150.503345 
L 123.831818 150.503345 
L 125.672727 149.139541 
L 126.286364 148.702196 
L 128.740909 148.702196 
L 129.354545 148.35916 
L 129.968182 148.35916 
L 130.581818 148.62199 
L 131.195455 149.032959 
L 131.809091 149.032959 
L 132.422727 149.217253 
L 133.65 149.217253 
L 134.263636 149.355352 
L 134.877273 146.139095 
L 135.490909 144.88681 
L 136.104545 143.330573 
L 136.718182 142.805978 
L 137.331818 139.690501 
L 137.945455 138.451699 
L 138.559091 137.872647 
L 139.172727 140.28375 
L 139.786364 140.210117 
L 140.4 139.948391 
L 141.013636 139.948391 
L 141.627273 138.958434 
L 142.240909 136.693506 
L 142.854545 132.000486 
L 143.468182 130.870524 
L 144.081818 130.235723 
L 145.309091 130.235723 
L 145.922727 126.976707 
L 146.536364 126.492599 
L 147.15 129.049207 
L 147.763636 129.049207 
L 148.377273 130.289298 
L 148.990909 127.419197 
L 149.604545 129.687367 
L 152.059091 129.687367 
L 152.672727 124.69955 
L 153.286364 124.014315 
L 153.9 124.014315 
L 154.513636 124.427072 
L 156.968182 124.427072 
L 157.581818 124.252037 
L 158.809091 124.252037 
L 159.422727 123.582465 
L 160.036364 125.254587 
L 160.65 119.639558 
L 161.263636 118.950805 
L 161.877273 117.460869 
L 162.490909 119.70004 
L 163.104545 118.197318 
L 163.718182 117.045968 
L 164.331818 116.485716 
L 164.945455 112.375558 
L 166.786364 112.375558 
L 167.4 110.75308 
L 168.013636 110.27891 
L 168.627273 107.929139 
L 169.240909 111.264796 
L 169.854545 108.071575 
L 170.468182 100.928733 
L 171.081818 100.397686 
L 171.695455 96.39404 
L 172.309091 96.39404 
L 172.922727 95.512507 
L 173.536364 95.512507 
L 174.15 97.093101 
L 174.763636 97.093101 
L 175.377273 96.451579 
L 175.990909 96.451579 
L 176.604545 96.007475 
L 177.831818 96.007475 
L 178.445455 95.649011 
L 179.059091 95.649011 
L 179.672727 92.813331 
L 180.286364 98.906489 
L 180.9 98.906489 
L 181.513636 100.325198 
L 182.127273 102.953222 
L 182.740909 101.652485 
L 183.354545 101.074183 
L 183.968182 98.817747 
L 184.581818 97.911606 
L 185.195455 97.911606 
L 186.422727 96.999678 
L 187.036364 96.083562 
L 187.65 91.669156 
L 188.263636 95.994879 
L 188.877273 95.662537 
L 189.490909 95.491811 
L 190.104545 95.491811 
L 190.718182 97.865447 
L 191.331818 99.036252 
L 191.945455 98.712008 
L 192.559091 98.515238 
L 193.172727 102.237 
L 193.786364 101.792092 
L 194.4 102.078981 
L 195.013636 99.095558 
L 195.627273 98.548274 
L 196.240909 95.292294 
L 196.854545 95.292294 
L 197.468182 95.422379 
L 198.081818 95.422379 
L 198.695455 97.518754 
L 199.309091 101.595168 
L 200.536364 101.595168 
L 201.15 100.258782 
L 201.763636 103.924355 
L 202.990909 103.924355 
L 203.604545 105.931666 
L 204.218182 105.931666 
L 204.831818 102.236152 
L 205.445455 102.101445 
L 206.059091 102.101445 
L 206.672727 101.264219 
L 207.286364 101.81097 
L 207.9 101.81097 
L 208.513636 105.645603 
L 209.740909 105.645603 
L 210.354545 108.308955 
L 211.581818 116.212747 
L 212.195455 115.042576 
L 212.809091 121.520848 
L 213.422727 121.356328 
L 214.036364 116.87209 
L 214.65 121.265164 
L 215.263636 121.08974 
L 215.877273 125.598115 
L 216.490909 122.723535 
L 217.104545 122.528347 
L 217.718182 126.973 
L 218.331818 126.380876 
L 218.945455 121.743007 
L 219.559091 115.853926 
L 220.172727 114.557037 
L 221.4 114.557037 
L 222.013636 112.149039 
L 222.627273 112.149039 
L 223.240909 116.937589 
L 223.854545 116.937589 
L 224.468182 115.429774 
L 225.081818 113.396681 
L 226.309091 113.396681 
L 226.922727 112.425617 
L 227.536364 112.246799 
L 228.15 113.686924 
L 228.763636 113.686924 
L 229.377273 113.876306 
L 229.990909 113.577833 
L 230.604545 108.561245 
L 232.445455 108.534812 
L 233.059091 104.489458 
L 234.286364 104.489458 
L 234.9 109.134652 
L 236.127273 108.894775 
L 236.740909 103.985503 
L 237.354545 103.418673 
L 237.968182 103.110554 
L 238.581818 98.24828 
L 239.809091 98.154001 
L 240.422727 98.154001 
L 241.036364 92.786867 
L 241.65 92.07245 
L 242.263636 96.582581 
L 242.877273 96.264958 
L 243.490909 100.895587 
L 244.104545 103.044949 
L 244.718182 103.044949 
L 245.331818 104.255253 
L 245.945455 99.04853 
L 246.559091 98.877781 
L 247.172727 98.877781 
L 247.786364 98.755176 
L 248.4 103.736619 
L 249.627273 103.736619 
L 250.854545 103.460295 
L 251.468182 98.61029 
L 255.15 98.562852 
L 255.763636 93.802165 
L 256.377273 93.653552 
L 257.604545 93.653552 
L 258.218182 90.933585 
L 258.831818 91.802483 
L 259.445455 98.742496 
L 262.513636 98.712136 
L 263.127273 92.322003 
L 263.740909 94.309267 
L 264.354545 92.360485 
L 265.581818 92.360485 
L 266.195455 87.010605 
L 266.809091 86.895541 
L 267.422727 88.714153 
L 269.263636 88.777772 
L 269.877273 92.085849 
L 270.490909 92.069826 
L 271.104545 88.468778 
L 271.718182 92.92098 
L 272.331818 92.882465 
L 272.945455 92.96077 
L 273.559091 87.813407 
L 275.4 101.967497 
L 277.854545 101.993441 
L 279.081818 101.80753 
L 279.695455 101.80753 
L 280.309091 99.57785 
L 281.536364 99.57785 
L 282.15 104.389005 
L 282.763636 104.389005 
L 283.377273 100.161335 
L 283.990909 95.074306 
L 284.604545 100.208538 
L 285.218182 100.208538 
L 285.831818 95.167317 
L 286.445455 93.891987 
L 287.059091 93.958574 
L 287.672727 93.703543 
L 288.286364 93.703543 
L 288.9 94.200522 
L 290.127273 94.200522 
L 290.740909 94.571045 
L 291.968182 94.571045 
L 292.581818 87.524188 
L 293.195455 87.456253 
L 293.809091 90.694971 
L 294.422727 86.006365 
L 295.036364 86.006365 
L 295.65 87.976801 
L 296.263636 87.976801 
L 296.877273 87.815351 
L 297.490909 92.284904 
L 298.104545 92.284904 
L 298.718182 103.48696 
L 299.331818 106.646789 
L 299.945455 101.997171 
L 300.559091 106.865972 
L 301.172727 105.301188 
L 301.786364 109.916286 
L 303.013636 109.821566 
L 303.627273 103.779838 
L 304.240909 103.538854 
L 305.468182 103.538854 
L 306.081818 103.273764 
L 307.922727 103.273764 
L 308.536364 102.194006 
L 309.15 102.442786 
L 309.763636 102.442786 
L 310.377273 97.510541 
L 311.604545 97.100435 
L 312.218182 102.290021 
L 312.831818 102.290021 
L 313.445455 102.131538 
L 314.059091 107.558715 
L 314.672727 107.558715 
L 315.9 107.840498 
L 316.513636 107.840498 
L 317.127273 104.617862 
L 317.740909 102.616871 
L 318.968182 102.714869 
L 319.581818 101.734765 
L 320.195455 101.136713 
L 320.809091 99.886697 
L 321.422727 99.886697 
L 322.036364 92.964555 
L 322.65 87.531517 
L 323.263636 84.606023 
L 323.877273 85.40163 
L 324.490909 85.40163 
L 325.104545 85.114518 
L 325.718182 82.318288 
L 326.331818 89.773601 
L 326.945455 89.773601 
L 327.559091 92.768381 
L 328.172727 97.652283 
L 329.4 97.67384 
L 330.013636 93.492349 
L 330.627273 95.279316 
L 331.240909 98.933476 
L 331.854545 93.187416 
L 333.081818 93.219479 
L 333.695455 91.71155 
L 334.309091 91.71155 
L 334.922727 87.752973 
L 335.536364 87.752973 
L 336.15 87.621584 
L 336.763636 92.282749 
L 337.377273 91.95804 
L 337.990909 91.95804 
L 338.604545 88.190793 
L 339.218182 82.708224 
L 339.831818 83.938358 
L 340.445455 89.271663 
L 341.059091 89.707563 
L 341.672727 93.646579 
L 342.9 93.646579 
L 343.513636 87.042436 
L 344.740909 87.042436 
L 345.968182 85.066685 
L 346.581818 90.253506 
L 347.195455 88.829047 
L 347.809091 86.902501 
L 348.422727 91.475568 
L 349.036364 91.529394 
L 349.65 87.776741 
L 350.263636 88.051771 
L 351.490909 97.875968 
L 352.104545 97.875968 
L 352.718182 98.017201 
L 353.331818 105.960497 
L 353.945455 101.648619 
L 355.786364 101.615876 
L 356.4 97.943533 
L 357.013636 93.111406 
L 357.627273 92.200214 
L 358.240909 96.949611 
L 358.854545 91.978327 
L 360.081818 91.768586 
L 360.695455 86.341506 
L 364.377273 86.31136 
L 364.990909 86.230478 
L 365.604545 84.868162 
L 366.218182 84.726608 
L 366.831818 84.717245 
L 367.445455 84.2104 
L 368.059091 84.2104 
L 368.672727 79.995571 
L 369.286364 79.995571 
L 369.9 73.48672 
L 370.513636 85.281418 
L 371.740909 85.281418 
L 372.968182 64.453329 
L 373.581818 64.453329 
L 373.581818 64.453329 
" style="fill:none;stroke:#4c72b0;stroke-linecap:round;stroke-width:1.5;"/>
   </g>
   <g id="line2d_18"/>
   <g id="line2d_19"/>
   <g id="patch_3">
    <path d="M 54 252 
L 54 34.56 
" style="fill:none;stroke:#ffffff;stroke-linecap:square;stroke-linejoin:miter;stroke-width:1.25;"/>
   </g>
   <g id="patch_4">
    <path d="M 388.8 252 
L 388.8 34.56 
" style="fill:none;stroke:#ffffff;stroke-linecap:square;stroke-linejoin:miter;stroke-width:1.25;"/>
   </g>
   <g id="patch_5">
    <path d="M 54 252 
L 388.8 252 
" style="fill:none;stroke:#ffffff;stroke-linecap:square;stroke-linejoin:miter;stroke-width:1.25;"/>
   </g>
   <g id="patch_6">
    <path d="M 54 34.56 
L 388.8 34.56 
" style="fill:none;stroke:#ffffff;stroke-linecap:square;stroke-linejoin:miter;stroke-width:1.25;"/>
   </g>
   <g id="text_20">
    <!-- Walker2DBulletEnv-v0 -->
    <defs>
     <path d="M 3.328125 72.90625 
L 13.28125 72.90625 
L 28.609375 11.28125 
L 43.890625 72.90625 
L 54.984375 72.90625 
L 70.3125 11.28125 
L 85.59375 72.90625 
L 95.609375 72.90625 
L 77.296875 0 
L 64.890625 0 
L 49.515625 63.28125 
L 33.984375 0 
L 21.578125 0 
z
" id="DejaVuSans-87"/>
     <path d="M 9.421875 75.984375 
L 18.40625 75.984375 
L 18.40625 0 
L 9.421875 0 
z
" id="DejaVuSans-108"/>
     <path d="M 9.078125 75.984375 
L 18.109375 75.984375 
L 18.109375 31.109375 
L 44.921875 54.6875 
L 56.390625 54.6875 
L 27.390625 29.109375 
L 57.625 0 
L 45.90625 0 
L 18.109375 26.703125 
L 18.109375 0 
L 9.078125 0 
z
" id="DejaVuSans-107"/>
     <path d="M 19.671875 64.796875 
L 19.671875 8.109375 
L 31.59375 8.109375 
Q 46.6875 8.109375 53.6875 14.9375 
Q 60.6875 21.78125 60.6875 36.53125 
Q 60.6875 51.171875 53.6875 57.984375 
Q 46.6875 64.796875 31.59375 64.796875 
z
M 9.8125 72.90625 
L 30.078125 72.90625 
Q 51.265625 72.90625 61.171875 64.09375 
Q 71.09375 55.28125 71.09375 36.53125 
Q 71.09375 17.671875 61.125 8.828125 
Q 51.171875 0 30.078125 0 
L 9.8125 0 
z
" id="DejaVuSans-68"/>
     <path d="M 19.671875 34.8125 
L 19.671875 8.109375 
L 35.5 8.109375 
Q 43.453125 8.109375 47.28125 11.40625 
Q 51.125 14.703125 51.125 21.484375 
Q 51.125 28.328125 47.28125 31.5625 
Q 43.453125 34.8125 35.5 34.8125 
z
M 19.671875 64.796875 
L 19.671875 42.828125 
L 34.28125 42.828125 
Q 41.5 42.828125 45.03125 45.53125 
Q 48.578125 48.25 48.578125 53.8125 
Q 48.578125 59.328125 45.03125 62.0625 
Q 41.5 64.796875 34.28125 64.796875 
z
M 9.8125 72.90625 
L 35.015625 72.90625 
Q 46.296875 72.90625 52.390625 68.21875 
Q 58.5 63.53125 58.5 54.890625 
Q 58.5 48.1875 55.375 44.234375 
Q 52.25 40.28125 46.1875 39.3125 
Q 53.46875 37.75 57.5 32.78125 
Q 61.53125 27.828125 61.53125 20.40625 
Q 61.53125 10.640625 54.890625 5.3125 
Q 48.25 0 35.984375 0 
L 9.8125 0 
z
" id="DejaVuSans-66"/>
     <path d="M 8.5 21.578125 
L 8.5 54.6875 
L 17.484375 54.6875 
L 17.484375 21.921875 
Q 17.484375 14.15625 20.5 10.265625 
Q 23.53125 6.390625 29.59375 6.390625 
Q 36.859375 6.390625 41.078125 11.03125 
Q 45.3125 15.671875 45.3125 23.6875 
L 45.3125 54.6875 
L 54.296875 54.6875 
L 54.296875 0 
L 45.3125 0 
L 45.3125 8.40625 
Q 42.046875 3.421875 37.71875 1 
Q 33.40625 -1.421875 27.6875 -1.421875 
Q 18.265625 -1.421875 13.375 4.4375 
Q 8.5 10.296875 8.5 21.578125 
z
M 31.109375 56 
z
" id="DejaVuSans-117"/>
     <path d="M 54.890625 33.015625 
L 54.890625 0 
L 45.90625 0 
L 45.90625 32.71875 
Q 45.90625 40.484375 42.875 44.328125 
Q 39.84375 48.1875 33.796875 48.1875 
Q 26.515625 48.1875 22.3125 43.546875 
Q 18.109375 38.921875 18.109375 30.90625 
L 18.109375 0 
L 9.078125 0 
L 9.078125 54.6875 
L 18.109375 54.6875 
L 18.109375 46.1875 
Q 21.34375 51.125 25.703125 53.5625 
Q 30.078125 56 35.796875 56 
Q 45.21875 56 50.046875 50.171875 
Q 54.890625 44.34375 54.890625 33.015625 
z
" id="DejaVuSans-110"/>
     <path d="M 4.890625 31.390625 
L 31.203125 31.390625 
L 31.203125 23.390625 
L 4.890625 23.390625 
z
" id="DejaVuSans-45"/>
    </defs>
    <g style="fill:#262626;" transform="translate(154.993125 28.56)scale(0.12 -0.12)">
     <use xlink:href="#DejaVuSans-87"/>
     <use x="92.501953" xlink:href="#DejaVuSans-97"/>
     <use x="153.78125" xlink:href="#DejaVuSans-108"/>
     <use x="181.564453" xlink:href="#DejaVuSans-107"/>
     <use x="235.849609" xlink:href="#DejaVuSans-101"/>
     <use x="297.373047" xlink:href="#DejaVuSans-114"/>
     <use x="338.486328" xlink:href="#DejaVuSans-50"/>
     <use x="402.109375" xlink:href="#DejaVuSans-68"/>
     <use x="479.111328" xlink:href="#DejaVuSans-66"/>
     <use x="547.714844" xlink:href="#DejaVuSans-117"/>
     <use x="611.09375" xlink:href="#DejaVuSans-108"/>
     <use x="638.876953" xlink:href="#DejaVuSans-108"/>
     <use x="666.660156" xlink:href="#DejaVuSans-101"/>
     <use x="728.183594" xlink:href="#DejaVuSans-116"/>
     <use x="767.392578" xlink:href="#DejaVuSans-69"/>
     <use x="830.576172" xlink:href="#DejaVuSans-110"/>
     <use x="893.955078" xlink:href="#DejaVuSans-118"/>
     <use x="950.509766" xlink:href="#DejaVuSans-45"/>
     <use x="983.96875" xlink:href="#DejaVuSans-118"/>
     <use x="1043.148438" xlink:href="#DejaVuSans-48"/>
    </g>
   </g>
  </g>
 </g>
 <defs>
  <clipPath id="p396691d23c">
   <rect height="217.44" width="334.8" x="54" y="34.56"/>
  </clipPath>
 </defs>
</svg>
