<svg xmlns="http://www.w3.org/2000/svg" width="250" height="41" viewBox="0 0 250 41">
    <g fill="none">
        <path fill="#AF9BFF" d="M210.764 0.061L219.763 26.875 230.303 26.875 221.305 0.061z"/>
        <path fill="#B9DCFF" d="M239.303 0.061L230.288 26.875 240.848 26.875 249.863 0.061z"/>
        <path fill="#AF9BFF" d="M182.207 0.061L191.222 26.875 180.662 26.875 171.646 0.061z"/>
        <path fill="#B9DCFF" d="M200.208 0.061L186.544 40.847 197.104 40.847 210.769 0.061z"/>
        <path fill="#AF9BFF" d="M9.956 7.289c-2.262 0-4.125.97-5.514 2.417V7.758H0v26.74h4.522v-8.992c1.507 1.213 3.331 1.838 5.434 1.838 2.776 0 5.037-.938 6.821-2.815 1.786-1.915 2.658-4.3 2.658-7.193s-.872-5.278-2.658-7.194C14.993 8.227 12.732 7.29 9.956 7.29zm3.49 14.386c-.913 1.173-2.182 1.76-3.808 1.76-3.332 0-5.196-2.62-5.196-6.06 0-3.44 1.864-6.06 5.196-6.06 1.627 0 2.896.587 3.808 1.76.913 1.173 1.388 2.62 1.388 4.3 0 1.681-.475 3.128-1.388 4.3zM50.451 23.062L45.142 7.758 40.296 7.758 46.959 26.959 49.062 26.959 46.388 34.464 51.233 34.464 60.751 7.758 55.906 7.758zM70.81 22.783L65.596 7.758 60.751 7.758 67.413 26.959 69.334 26.959 69.334 26.959 74.179 26.959 80.96 7.795 76.115 7.766zM111.694 7.758H116.21600000000001V26.913999999999998H111.694zM152.485 7.289c-1.932-.023-3.776.805-5.037 2.26V7.76h-4.443v19.155h4.522V16.32c0-3.089 1.547-5.004 4.284-5.004 2.42 0 3.847 1.759 3.847 4.456v11.142h4.522V15.772c0-5.356-2.896-8.483-7.695-8.483zM83.639 7.758H88.161V26.913999999999998H83.639zM83.636 0L83.658 4.49 88.17 4.511 88.149.021zM116.165.021L111.652 0 111.674 4.49 116.186 4.511zM30.21 7.29c-3.174 0-6.09 1.344-7.54 3.774l3.36 2.279c.915-1.14 2.117-2.027 4.14-2.027 2.182 0 3.807 1.25 3.807 3.166v.836h-4.055c-4.759 0-7.963 2.019-7.963 6.201 0 1.76.635 3.206 1.864 4.261 1.27 1.056 2.817 1.564 4.68 1.564 2.222 0 4.086-.626 5.554-1.916v1.486h4.442V14.521c0-4.73-3.252-7.232-8.29-7.232zm3.767 14.503c-1.15 1.094-2.697 1.641-4.56 1.641-1.904 0-2.936-.862-2.936-2.152 0-1.512 1.328-2.37 3.4-2.384h4.096v2.895zM101.928 15.42l-3.242-.703c-1.348-.313-2.022-.9-2.022-1.799 0-.977 1.095-1.798 2.822-1.798 1.979 0 3.58.821 4.843 2.424l3.073-3.05c-2.231-2.15-4.8-3.205-7.79-3.205-4.422 0-7.538 2.228-7.538 5.708 0 3.166 2.106 5.16 6.275 6.06l2.737.625c1.895.469 2.527 1.055 2.527 1.876 0 1.095-.927 1.955-3.159 1.955-2.4 0-4.38-.938-5.895-2.776l-3.032 2.893c2.105 2.463 4.969 3.714 8.548 3.714 5.222 0 8.17-2.463 8.17-5.942 0-3.089-2.106-5.083-6.317-5.982zM129.734 7.22c-4.084 0-7.765 2.446-9.327 6.2-1.563 3.754-.7 8.074 2.188 10.947 2.887 2.873 7.23 3.732 11.002 2.177 3.773-1.554 6.232-5.217 6.232-9.28 0-5.548-4.52-10.045-10.095-10.045zm0 15.665c-3.12 0-5.65-2.517-5.65-5.62 0-3.105 2.53-5.622 5.65-5.622 3.12 0 5.649 2.517 5.649 5.621 0 3.104-2.53 5.62-5.65 5.62z"/>
    </g>
</svg>
