<svg xmlns="http://www.w3.org/2000/svg" width="250" height="42" viewBox="0 0 250 42">
    <g fill="none">
        <path fill="#00CD78" d="M210.764 0.062L219.763 27.011 230.303 27.011 221.305 0.062z"/>
        <path fill="#C8FFE1" d="M239.303 0.062L230.288 27.011 240.848 27.011 249.863 0.062z"/>
        <path fill="#00CD78" d="M182.207 0.062L191.222 27.011 180.662 27.011 171.646 0.062z"/>
        <path fill="#C8FFE1" d="M200.208 0.062L186.544 41.054 197.104 41.054 210.769 0.062z"/>
        <path fill="#00CD78" d="M9.956 7.326c-2.262 0-4.125.975-5.514 2.429V7.797H0v26.875h4.522v-9.037c1.507 1.219 3.331 1.847 5.434 1.847 2.776 0 5.037-.943 6.821-2.829 1.786-1.925 2.658-4.322 2.658-7.23 0-2.907-.872-5.304-2.658-7.23-1.784-1.924-4.045-2.867-6.821-2.867zm3.49 14.459c-.913 1.179-2.182 1.768-3.808 1.768-3.332 0-5.196-2.632-5.196-6.09 0-3.457 1.864-6.09 5.196-6.09 1.627 0 2.896.589 3.808 1.768.913 1.179 1.388 2.632 1.388 4.322s-.475 3.144-1.388 4.322zM50.451 23.178L45.142 7.797 40.296 7.797 46.959 27.096 49.062 27.096 46.388 34.638 51.233 34.638 60.751 7.797 55.906 7.797zM70.81 22.898L65.596 7.797 60.751 7.797 67.413 27.096 69.334 27.096 69.334 27.096 74.179 27.096 80.96 7.834 76.115 7.805zM111.694 7.797H116.21600000000001V27.049H111.694zM152.485 7.326c-1.932-.023-3.776.808-5.037 2.272v-1.8h-4.443V27.05h4.522V16.402c0-3.104 1.547-5.029 4.284-5.029 2.42 0 3.847 1.768 3.847 4.479V27.05h4.522V15.852c0-5.383-2.896-8.526-7.695-8.526zM83.639 7.797H88.161V27.049H83.639zM83.636 0L83.658 4.512 88.17 4.534 88.149.021zM116.165.021L111.652 0 111.674 4.512 116.186 4.534zM30.21 7.326c-3.174 0-6.09 1.351-7.54 3.794l3.36 2.29c.915-1.145 2.117-2.037 4.14-2.037 2.182 0 3.807 1.257 3.807 3.182v.84h-4.055c-4.759 0-7.963 2.03-7.963 6.233 0 1.768.635 3.221 1.864 4.282 1.27 1.061 2.817 1.572 4.68 1.572 2.222 0 4.086-.629 5.554-1.925v1.493h4.442V14.595c0-4.755-3.252-7.27-8.29-7.27zm3.767 14.577c-1.15 1.1-2.697 1.65-4.56 1.65-1.904 0-2.936-.867-2.936-2.164 0-1.52 1.328-2.382 3.4-2.396h4.096v2.91zM101.928 15.498l-3.242-.707c-1.348-.315-2.022-.904-2.022-1.807 0-.983 1.095-1.808 2.822-1.808 1.979 0 3.58.825 4.843 2.436l3.073-3.064c-2.231-2.161-4.8-3.222-7.79-3.222-4.422 0-7.538 2.24-7.538 5.736 0 3.183 2.106 5.187 6.275 6.09l2.737.63c1.895.47 2.527 1.06 2.527 1.885 0 1.1-.927 1.965-3.159 1.965-2.4 0-4.38-.943-5.895-2.79l-3.032 2.907c2.105 2.476 4.969 3.733 8.548 3.733 5.222 0 8.17-2.475 8.17-5.972 0-3.104-2.106-5.108-6.317-6.012zM129.734 7.255c-4.084 0-7.765 2.46-9.327 6.233-1.563 3.772-.7 8.115 2.188 11.002 2.887 2.887 7.23 3.751 11.002 2.188 3.773-1.562 6.232-5.244 6.232-9.327 0-5.576-4.52-10.096-10.095-10.096zm0 15.745c-3.12 0-5.65-2.529-5.65-5.649s2.53-5.649 5.65-5.649c3.12 0 5.649 2.53 5.649 5.65 0 3.119-2.53 5.648-5.65 5.648z"/>
    </g>
</svg>
